<?xml version="1.0" encoding="utf-8" standalone="no"?>
<!DOCTYPE svg PUBLIC "-//W3C//DTD SVG 1.1//EN"
  "http://www.w3.org/Graphics/SVG/1.1/DTD/svg11.dtd">
<!-- Created with matplotlib (https://matplotlib.org/) -->
<svg height="432pt" version="1.1" viewBox="0 0 720 432" width="720pt" xmlns="http://www.w3.org/2000/svg" xmlns:xlink="http://www.w3.org/1999/xlink">
 <metadata>
  <rdf:RDF xmlns:cc="http://creativecommons.org/ns#" xmlns:dc="http://purl.org/dc/elements/1.1/" xmlns:rdf="http://www.w3.org/1999/02/22-rdf-syntax-ns#">
   <cc:Work>
    <dc:type rdf:resource="http://purl.org/dc/dcmitype/StillImage"/>
    <dc:date>2020-10-16T00:30:40.746762</dc:date>
    <dc:format>image/svg+xml</dc:format>
    <dc:creator>
     <cc:Agent>
      <dc:title>Matplotlib v3.3.2, https://matplotlib.org/</dc:title>
     </cc:Agent>
    </dc:creator>
   </cc:Work>
  </rdf:RDF>
 </metadata>
 <defs>
  <style type="text/css">*{stroke-linecap:butt;stroke-linejoin:round;}</style>
 </defs>
 <g id="figure_1">
  <g id="patch_1">
   <path d="M 0 432 
L 720 432 
L 720 0 
L 0 0 
z
" style="fill:#ffffff;"/>
  </g>
  <g id="axes_1">
   <g id="patch_2">
    <path d="M 90 384.48 
L 648 384.48 
L 648 51.84 
L 90 51.84 
z
" style="fill:#ffffff;"/>
   </g>
   <g id="PolyCollection_1">
    <defs>
     <path d="M 115.363636 -62.64 
L 115.363636 -62.64 
L 116.452204 -62.64 
L 117.540773 -62.64 
L 118.629341 -62.64 
L 119.717909 -62.64 
L 120.806477 -62.64 
L 121.895045 -62.64 
L 122.983613 -62.64 
L 124.072181 -62.64 
L 125.160749 -62.64 
L 126.249317 -62.64 
L 127.337885 -62.64 
L 128.426453 -62.64 
L 129.515021 -62.64 
L 130.60359 -62.64 
L 131.692158 -62.64 
L 132.780726 -62.64 
L 133.869294 -62.64 
L 134.957862 -62.64 
L 136.04643 -62.64 
L 137.134998 -62.64 
L 138.223566 -62.64 
L 139.312134 -62.64 
L 140.400702 -62.64 
L 141.48927 -62.64 
L 142.577838 -62.64 
L 143.666407 -62.64 
L 144.754975 -62.64 
L 145.843543 -62.64 
L 146.932111 -62.64 
L 148.020679 -62.64 
L 149.109247 -62.64 
L 150.197815 -62.64 
L 151.286383 -62.64 
L 152.374951 -62.64 
L 153.463519 -62.64 
L 154.552087 -62.64 
L 155.640655 -62.64 
L 156.729224 -62.64 
L 157.817792 -62.64 
L 158.90636 -62.64 
L 159.994928 -62.64 
L 161.083496 -62.64 
L 162.172064 -62.64 
L 163.260632 -62.64 
L 164.3492 -62.64 
L 165.437768 -62.64 
L 166.526336 -62.64 
L 167.614904 -62.64 
L 168.703472 -62.64 
L 169.792041 -62.64 
L 170.880609 -62.64 
L 171.969177 -62.64 
L 173.057745 -62.64 
L 174.146313 -62.64 
L 175.234881 -62.64 
L 176.323449 -62.64 
L 177.412017 -62.64 
L 178.500585 -62.64 
L 179.589153 -62.64 
L 180.677721 -62.64 
L 181.76629 -62.64 
L 182.854858 -62.64 
L 183.943426 -62.64 
L 185.031994 -62.64 
L 186.120562 -62.64 
L 187.20913 -62.64 
L 188.297698 -62.64 
L 189.386266 -62.64 
L 190.474834 -62.64 
L 191.563402 -62.64 
L 192.65197 -62.64 
L 193.740538 -62.64 
L 194.829107 -62.64 
L 195.917675 -62.64 
L 197.006243 -62.64 
L 198.094811 -62.64 
L 199.183379 -62.64 
L 200.271947 -62.64 
L 201.360515 -62.64 
L 202.449083 -62.64 
L 203.537651 -62.64 
L 204.626219 -62.64 
L 205.714787 -62.64 
L 206.803355 -62.64 
L 207.891924 -62.64 
L 208.980492 -62.64 
L 210.06906 -62.64 
L 211.157628 -62.64 
L 212.246196 -62.64 
L 213.334764 -62.64 
L 214.423332 -62.64 
L 215.5119 -62.64 
L 216.600468 -62.64 
L 217.689036 -62.64 
L 218.777604 -62.64 
L 219.866172 -62.64 
L 220.954741 -62.64 
L 222.043309 -62.64 
L 223.131877 -62.64 
L 224.220445 -62.64 
L 225.309013 -62.64 
L 226.397581 -62.64 
L 227.486149 -62.64 
L 228.574717 -62.64 
L 229.663285 -62.64 
L 230.751853 -62.64 
L 231.840421 -62.64 
L 232.928989 -62.64 
L 234.017558 -62.64 
L 235.106126 -62.64 
L 236.194694 -62.64 
L 237.283262 -62.64 
L 238.37183 -62.64 
L 239.460398 -62.64 
L 240.548966 -62.64 
L 241.637534 -62.64 
L 242.726102 -62.64 
L 243.81467 -62.64 
L 244.903238 -62.64 
L 245.991806 -62.64 
L 247.080375 -62.64 
L 248.168943 -62.64 
L 249.257511 -62.64 
L 250.346079 -62.64 
L 251.434647 -62.64 
L 252.523215 -62.64 
L 253.611783 -62.64 
L 254.700351 -62.64 
L 255.788919 -62.64 
L 256.877487 -62.64 
L 257.966055 -62.64 
L 259.054623 -62.64 
L 260.143192 -62.64 
L 261.23176 -62.64 
L 262.320328 -62.64 
L 263.408896 -62.64 
L 264.497464 -62.64 
L 265.586032 -62.64 
L 266.6746 -62.64 
L 267.763168 -62.64 
L 268.851736 -62.64 
L 269.940304 -62.64 
L 271.028872 -62.64 
L 272.11744 -62.64 
L 273.206009 -62.64 
L 274.294577 -62.64 
L 275.383145 -62.64 
L 276.471713 -62.64 
L 277.560281 -62.64 
L 278.648849 -62.64 
L 279.737417 -62.64 
L 280.825985 -62.64 
L 281.914553 -62.64 
L 283.003121 -62.64 
L 284.091689 -62.64 
L 285.180258 -62.64 
L 286.268826 -62.64 
L 287.357394 -62.64 
L 288.445962 -62.64 
L 289.53453 -62.64 
L 290.623098 -62.64 
L 291.711666 -62.64 
L 292.800234 -62.64 
L 293.888802 -62.64 
L 294.97737 -62.64 
L 296.065938 -62.64 
L 297.154506 -62.64 
L 298.243075 -62.64 
L 299.331643 -62.64 
L 300.420211 -62.64 
L 301.508779 -62.64 
L 302.597347 -62.64 
L 303.685915 -62.64 
L 304.774483 -62.64 
L 305.863051 -62.64 
L 306.951619 -62.64 
L 308.040187 -62.64 
L 309.128755 -62.64 
L 310.217323 -62.64 
L 311.305892 -62.64 
L 312.39446 -62.64 
L 313.483028 -62.64 
L 314.571596 -62.64 
L 315.660164 -62.64 
L 316.748732 -62.64 
L 317.8373 -62.64 
L 318.925868 -62.64 
L 320.014436 -62.64 
L 321.103004 -62.64 
L 322.191572 -62.64 
L 323.28014 -62.64 
L 324.368709 -62.64 
L 325.457277 -62.64 
L 326.545845 -62.64 
L 327.634413 -62.64 
L 328.722981 -62.64 
L 329.811549 -62.64 
L 330.900117 -62.64 
L 331.988685 -62.64 
L 333.077253 -62.64 
L 334.165821 -62.64 
L 335.254389 -62.64 
L 336.342957 -62.64 
L 337.431526 -62.64 
L 338.520094 -62.64 
L 339.608662 -62.64 
L 340.69723 -62.64 
L 341.785798 -62.64 
L 342.874366 -62.64 
L 343.962934 -62.64 
L 345.051502 -62.64 
L 346.14007 -62.64 
L 347.228638 -62.64 
L 348.317206 -62.64 
L 349.405774 -62.64 
L 350.494343 -62.64 
L 351.582911 -62.64 
L 352.671479 -62.64 
L 353.760047 -62.64 
L 354.848615 -62.64 
L 355.937183 -62.64 
L 357.025751 -62.64 
L 358.114319 -62.64 
L 359.202887 -62.64 
L 360.291455 -62.64 
L 361.380023 -62.64 
L 362.468591 -62.64 
L 363.55716 -62.64 
L 364.645728 -62.64 
L 365.734296 -62.64 
L 366.822864 -62.64 
L 367.911432 -62.64 
L 369 -62.64 
L 370.088568 -62.64 
L 371.177136 -62.64 
L 372.265704 -62.64 
L 373.354272 -62.64 
L 374.44284 -62.64 
L 375.531409 -62.64 
L 376.619977 -62.64 
L 377.708545 -62.64 
L 378.797113 -62.64 
L 379.885681 -62.64 
L 380.974249 -62.64 
L 382.062817 -62.64 
L 383.151385 -62.64 
L 384.239953 -62.64 
L 385.328521 -62.64 
L 386.417089 -62.64 
L 387.505657 -62.64 
L 388.594226 -62.64 
L 389.682794 -62.64 
L 390.771362 -62.64 
L 391.85993 -62.64 
L 392.948498 -62.64 
L 394.037066 -62.64 
L 395.125634 -62.64 
L 396.214202 -62.64 
L 397.30277 -62.64 
L 398.391338 -62.64 
L 399.479906 -62.64 
L 400.568474 -62.64 
L 401.657043 -62.64 
L 402.745611 -62.64 
L 403.834179 -62.64 
L 404.922747 -62.64 
L 406.011315 -62.64 
L 407.099883 -62.64 
L 408.188451 -62.64 
L 409.277019 -62.64 
L 410.365587 -62.64 
L 411.454155 -62.64 
L 412.542723 -62.64 
L 413.631291 -62.64 
L 414.71986 -62.64 
L 415.808428 -62.64 
L 416.896996 -62.64 
L 417.985564 -62.64 
L 419.074132 -62.64 
L 420.1627 -62.64 
L 421.251268 -62.64 
L 422.339836 -62.64 
L 423.428404 -62.64 
L 424.516972 -62.64 
L 425.60554 -62.64 
L 426.694108 -62.64 
L 427.782677 -62.64 
L 428.871245 -62.64 
L 429.959813 -62.64 
L 431.048381 -62.64 
L 432.136949 -62.64 
L 433.225517 -62.64 
L 434.314085 -62.64 
L 435.402653 -62.64 
L 436.491221 -62.64 
L 437.579789 -62.64 
L 438.668357 -62.64 
L 439.756925 -62.64 
L 440.845494 -62.64 
L 441.934062 -62.64 
L 443.02263 -62.64 
L 444.111198 -62.64 
L 445.199766 -62.64 
L 446.288334 -62.64 
L 447.376902 -62.64 
L 448.46547 -62.64 
L 449.554038 -62.64 
L 450.642606 -62.64 
L 451.731174 -62.64 
L 452.819742 -62.64 
L 453.908311 -62.64 
L 454.996879 -62.64 
L 456.085447 -62.64 
L 457.174015 -62.64 
L 458.262583 -62.64 
L 459.351151 -62.64 
L 460.439719 -62.64 
L 461.528287 -62.64 
L 462.616855 -62.64 
L 463.705423 -62.64 
L 464.793991 -62.64 
L 465.88256 -62.64 
L 466.971128 -62.64 
L 468.059696 -62.64 
L 469.148264 -62.64 
L 470.236832 -62.64 
L 471.3254 -62.64 
L 472.413968 -62.64 
L 473.502536 -62.64 
L 474.591104 -62.64 
L 475.679672 -62.64 
L 476.76824 -62.64 
L 477.856808 -62.64 
L 478.945377 -62.64 
L 480.033945 -62.64 
L 481.122513 -62.64 
L 482.211081 -62.64 
L 483.299649 -62.64 
L 484.388217 -62.64 
L 485.476785 -62.64 
L 486.565353 -62.64 
L 487.653921 -62.64 
L 488.742489 -62.64 
L 489.831057 -62.64 
L 490.919625 -62.64 
L 492.008194 -62.64 
L 493.096762 -62.64 
L 494.18533 -62.64 
L 495.273898 -62.64 
L 496.362466 -62.64 
L 497.451034 -62.64 
L 498.539602 -62.64 
L 499.62817 -62.64 
L 500.716738 -62.64 
L 501.805306 -62.64 
L 502.893874 -62.64 
L 503.982442 -62.64 
L 505.071011 -62.64 
L 506.159579 -62.64 
L 507.248147 -62.64 
L 508.336715 -62.64 
L 509.425283 -62.64 
L 510.513851 -62.64 
L 511.602419 -300.751627 
L 512.690987 -365.04 
L 513.779555 -126.928373 
L 514.868123 -62.64 
L 515.956691 -62.64 
L 517.045259 -62.64 
L 518.133828 -62.64 
L 519.222396 -62.64 
L 520.310964 -62.64 
L 521.399532 -62.64 
L 522.4881 -62.64 
L 523.576668 -62.64 
L 524.665236 -62.64 
L 525.753804 -62.64 
L 526.842372 -62.64 
L 527.93094 -62.64 
L 529.019508 -62.64 
L 530.108076 -62.64 
L 531.196645 -62.64 
L 532.285213 -62.64 
L 533.373781 -62.64 
L 534.462349 -62.64 
L 535.550917 -62.64 
L 536.639485 -62.64 
L 537.728053 -62.64 
L 538.816621 -62.64 
L 539.905189 -62.64 
L 540.993757 -62.64 
L 542.082325 -62.64 
L 543.170893 -62.64 
L 544.259462 -62.64 
L 545.34803 -62.64 
L 546.436598 -62.64 
L 547.525166 -62.64 
L 548.613734 -62.64 
L 549.702302 -62.64 
L 550.79087 -62.64 
L 551.879438 -62.64 
L 552.968006 -62.64 
L 554.056574 -62.64 
L 555.145142 -62.64 
L 556.23371 -62.64 
L 557.322279 -62.64 
L 558.410847 -62.64 
L 559.499415 -62.64 
L 560.587983 -62.64 
L 561.676551 -62.64 
L 562.765119 -62.64 
L 563.853687 -62.64 
L 564.942255 -62.64 
L 566.030823 -62.64 
L 567.119391 -62.64 
L 568.207959 -62.64 
L 569.296528 -62.64 
L 570.385096 -62.64 
L 571.473664 -62.64 
L 572.562232 -62.64 
L 573.6508 -62.64 
L 574.739368 -62.64 
L 575.827936 -62.64 
L 576.916504 -62.64 
L 578.005072 -62.64 
L 579.09364 -62.64 
L 580.182208 -62.64 
L 581.270776 -62.64 
L 582.359345 -62.64 
L 583.447913 -62.64 
L 584.536481 -62.64 
L 585.625049 -62.64 
L 586.713617 -62.64 
L 587.802185 -62.64 
L 588.890753 -62.64 
L 589.979321 -62.64 
L 591.067889 -62.64 
L 592.156457 -62.64 
L 593.245025 -62.64 
L 594.333593 -62.64 
L 595.422162 -62.64 
L 596.51073 -62.64 
L 597.599298 -62.64 
L 598.687866 -62.64 
L 599.776434 -62.64 
L 600.865002 -62.64 
L 601.95357 -62.64 
L 603.042138 -62.64 
L 604.130706 -62.64 
L 605.219274 -62.64 
L 606.307842 -62.64 
L 607.39641 -62.64 
L 608.484979 -62.64 
L 609.573547 -62.64 
L 610.662115 -62.64 
L 611.750683 -62.64 
L 612.839251 -62.64 
L 613.927819 -62.64 
L 615.016387 -62.64 
L 616.104955 -62.64 
L 617.193523 -62.64 
L 618.282091 -62.64 
L 619.370659 -62.64 
L 620.459227 -62.64 
L 621.547796 -62.64 
L 622.636364 -62.64 
L 622.636364 -62.64 
L 622.636364 -62.64 
L 621.547796 -62.64 
L 620.459227 -62.64 
L 619.370659 -62.64 
L 618.282091 -62.64 
L 617.193523 -62.64 
L 616.104955 -62.64 
L 615.016387 -62.64 
L 613.927819 -62.64 
L 612.839251 -62.64 
L 611.750683 -62.64 
L 610.662115 -62.64 
L 609.573547 -62.64 
L 608.484979 -62.64 
L 607.39641 -62.64 
L 606.307842 -62.64 
L 605.219274 -62.64 
L 604.130706 -62.64 
L 603.042138 -62.64 
L 601.95357 -62.64 
L 600.865002 -62.64 
L 599.776434 -62.64 
L 598.687866 -62.64 
L 597.599298 -62.64 
L 596.51073 -62.64 
L 595.422162 -62.64 
L 594.333593 -62.64 
L 593.245025 -62.64 
L 592.156457 -62.64 
L 591.067889 -62.64 
L 589.979321 -62.64 
L 588.890753 -62.64 
L 587.802185 -62.64 
L 586.713617 -62.64 
L 585.625049 -62.64 
L 584.536481 -62.64 
L 583.447913 -62.64 
L 582.359345 -62.64 
L 581.270776 -62.64 
L 580.182208 -62.64 
L 579.09364 -62.64 
L 578.005072 -62.64 
L 576.916504 -62.64 
L 575.827936 -62.64 
L 574.739368 -62.64 
L 573.6508 -62.64 
L 572.562232 -62.64 
L 571.473664 -62.64 
L 570.385096 -62.64 
L 569.296528 -62.64 
L 568.207959 -62.64 
L 567.119391 -62.64 
L 566.030823 -62.64 
L 564.942255 -62.64 
L 563.853687 -62.64 
L 562.765119 -62.64 
L 561.676551 -62.64 
L 560.587983 -62.64 
L 559.499415 -62.64 
L 558.410847 -62.64 
L 557.322279 -62.64 
L 556.23371 -62.64 
L 555.145142 -62.64 
L 554.056574 -62.64 
L 552.968006 -62.64 
L 551.879438 -62.64 
L 550.79087 -62.64 
L 549.702302 -62.64 
L 548.613734 -62.64 
L 547.525166 -62.64 
L 546.436598 -62.64 
L 545.34803 -62.64 
L 544.259462 -62.64 
L 543.170893 -62.64 
L 542.082325 -62.64 
L 540.993757 -62.64 
L 539.905189 -62.64 
L 538.816621 -62.64 
L 537.728053 -62.64 
L 536.639485 -62.64 
L 535.550917 -62.64 
L 534.462349 -62.64 
L 533.373781 -62.64 
L 532.285213 -62.64 
L 531.196645 -62.64 
L 530.108076 -62.64 
L 529.019508 -62.64 
L 527.93094 -62.64 
L 526.842372 -62.64 
L 525.753804 -62.64 
L 524.665236 -62.64 
L 523.576668 -62.64 
L 522.4881 -62.64 
L 521.399532 -62.64 
L 520.310964 -62.64 
L 519.222396 -62.64 
L 518.133828 -62.64 
L 517.045259 -62.64 
L 515.956691 -62.64 
L 514.868123 -62.64 
L 513.779555 -126.928373 
L 512.690987 -365.04 
L 511.602419 -300.751627 
L 510.513851 -62.64 
L 509.425283 -62.64 
L 508.336715 -62.64 
L 507.248147 -62.64 
L 506.159579 -62.64 
L 505.071011 -62.64 
L 503.982442 -62.64 
L 502.893874 -62.64 
L 501.805306 -62.64 
L 500.716738 -62.64 
L 499.62817 -62.64 
L 498.539602 -62.64 
L 497.451034 -62.64 
L 496.362466 -62.64 
L 495.273898 -62.64 
L 494.18533 -62.64 
L 493.096762 -62.64 
L 492.008194 -62.64 
L 490.919625 -62.64 
L 489.831057 -62.64 
L 488.742489 -62.64 
L 487.653921 -62.64 
L 486.565353 -62.64 
L 485.476785 -62.64 
L 484.388217 -62.64 
L 483.299649 -62.64 
L 482.211081 -62.64 
L 481.122513 -62.64 
L 480.033945 -62.64 
L 478.945377 -62.64 
L 477.856808 -62.64 
L 476.76824 -62.64 
L 475.679672 -62.64 
L 474.591104 -62.64 
L 473.502536 -62.64 
L 472.413968 -62.64 
L 471.3254 -62.64 
L 470.236832 -62.64 
L 469.148264 -62.64 
L 468.059696 -62.64 
L 466.971128 -62.64 
L 465.88256 -62.64 
L 464.793991 -62.64 
L 463.705423 -62.64 
L 462.616855 -62.64 
L 461.528287 -62.64 
L 460.439719 -62.64 
L 459.351151 -62.64 
L 458.262583 -62.64 
L 457.174015 -62.64 
L 456.085447 -62.64 
L 454.996879 -62.64 
L 453.908311 -62.64 
L 452.819742 -62.64 
L 451.731174 -62.64 
L 450.642606 -62.64 
L 449.554038 -62.64 
L 448.46547 -62.64 
L 447.376902 -62.64 
L 446.288334 -62.64 
L 445.199766 -62.64 
L 444.111198 -62.64 
L 443.02263 -62.64 
L 441.934062 -62.64 
L 440.845494 -62.64 
L 439.756925 -62.64 
L 438.668357 -62.64 
L 437.579789 -62.64 
L 436.491221 -62.64 
L 435.402653 -62.64 
L 434.314085 -62.64 
L 433.225517 -62.64 
L 432.136949 -62.64 
L 431.048381 -62.64 
L 429.959813 -62.64 
L 428.871245 -62.64 
L 427.782677 -62.64 
L 426.694108 -62.64 
L 425.60554 -62.64 
L 424.516972 -62.64 
L 423.428404 -62.64 
L 422.339836 -62.64 
L 421.251268 -62.64 
L 420.1627 -62.64 
L 419.074132 -62.64 
L 417.985564 -62.64 
L 416.896996 -62.64 
L 415.808428 -62.64 
L 414.71986 -62.64 
L 413.631291 -62.64 
L 412.542723 -62.64 
L 411.454155 -62.64 
L 410.365587 -62.64 
L 409.277019 -62.64 
L 408.188451 -62.64 
L 407.099883 -62.64 
L 406.011315 -62.64 
L 404.922747 -62.64 
L 403.834179 -62.64 
L 402.745611 -62.64 
L 401.657043 -62.64 
L 400.568474 -62.64 
L 399.479906 -62.64 
L 398.391338 -62.64 
L 397.30277 -62.64 
L 396.214202 -62.64 
L 395.125634 -62.64 
L 394.037066 -62.64 
L 392.948498 -62.64 
L 391.85993 -62.64 
L 390.771362 -62.64 
L 389.682794 -62.64 
L 388.594226 -62.64 
L 387.505657 -62.64 
L 386.417089 -62.64 
L 385.328521 -62.64 
L 384.239953 -62.64 
L 383.151385 -62.64 
L 382.062817 -62.64 
L 380.974249 -62.64 
L 379.885681 -62.64 
L 378.797113 -62.64 
L 377.708545 -62.64 
L 376.619977 -62.64 
L 375.531409 -62.64 
L 374.44284 -62.64 
L 373.354272 -62.64 
L 372.265704 -62.64 
L 371.177136 -62.64 
L 370.088568 -62.64 
L 369 -62.64 
L 367.911432 -62.64 
L 366.822864 -62.64 
L 365.734296 -62.64 
L 364.645728 -62.64 
L 363.55716 -62.64 
L 362.468591 -62.64 
L 361.380023 -62.64 
L 360.291455 -62.64 
L 359.202887 -62.64 
L 358.114319 -62.64 
L 357.025751 -62.64 
L 355.937183 -62.64 
L 354.848615 -62.64 
L 353.760047 -62.64 
L 352.671479 -62.64 
L 351.582911 -62.64 
L 350.494343 -62.64 
L 349.405774 -62.64 
L 348.317206 -62.64 
L 347.228638 -62.64 
L 346.14007 -62.64 
L 345.051502 -62.64 
L 343.962934 -62.64 
L 342.874366 -62.64 
L 341.785798 -62.64 
L 340.69723 -62.64 
L 339.608662 -62.64 
L 338.520094 -62.64 
L 337.431526 -62.64 
L 336.342957 -62.64 
L 335.254389 -62.64 
L 334.165821 -62.64 
L 333.077253 -62.64 
L 331.988685 -62.64 
L 330.900117 -62.64 
L 329.811549 -62.64 
L 328.722981 -62.64 
L 327.634413 -62.64 
L 326.545845 -62.64 
L 325.457277 -62.64 
L 324.368709 -62.64 
L 323.28014 -62.64 
L 322.191572 -62.64 
L 321.103004 -62.64 
L 320.014436 -62.64 
L 318.925868 -62.64 
L 317.8373 -62.64 
L 316.748732 -62.64 
L 315.660164 -62.64 
L 314.571596 -62.64 
L 313.483028 -62.64 
L 312.39446 -62.64 
L 311.305892 -62.64 
L 310.217323 -62.64 
L 309.128755 -62.64 
L 308.040187 -62.64 
L 306.951619 -62.64 
L 305.863051 -62.64 
L 304.774483 -62.64 
L 303.685915 -62.64 
L 302.597347 -62.64 
L 301.508779 -62.64 
L 300.420211 -62.64 
L 299.331643 -62.64 
L 298.243075 -62.64 
L 297.154506 -62.64 
L 296.065938 -62.64 
L 294.97737 -62.64 
L 293.888802 -62.64 
L 292.800234 -62.64 
L 291.711666 -62.64 
L 290.623098 -62.64 
L 289.53453 -62.64 
L 288.445962 -62.64 
L 287.357394 -62.64 
L 286.268826 -62.64 
L 285.180258 -62.64 
L 284.091689 -62.64 
L 283.003121 -62.64 
L 281.914553 -62.64 
L 280.825985 -62.64 
L 279.737417 -62.64 
L 278.648849 -62.64 
L 277.560281 -62.64 
L 276.471713 -62.64 
L 275.383145 -62.64 
L 274.294577 -62.64 
L 273.206009 -62.64 
L 272.11744 -62.64 
L 271.028872 -62.64 
L 269.940304 -62.64 
L 268.851736 -62.64 
L 267.763168 -62.64 
L 266.6746 -62.64 
L 265.586032 -62.64 
L 264.497464 -62.64 
L 263.408896 -62.64 
L 262.320328 -62.64 
L 261.23176 -62.64 
L 260.143192 -62.64 
L 259.054623 -62.64 
L 257.966055 -62.64 
L 256.877487 -62.64 
L 255.788919 -62.64 
L 254.700351 -62.64 
L 253.611783 -62.64 
L 252.523215 -62.64 
L 251.434647 -62.64 
L 250.346079 -62.64 
L 249.257511 -62.64 
L 248.168943 -62.64 
L 247.080375 -62.64 
L 245.991806 -62.64 
L 244.903238 -62.64 
L 243.81467 -62.64 
L 242.726102 -62.64 
L 241.637534 -62.64 
L 240.548966 -62.64 
L 239.460398 -62.64 
L 238.37183 -62.64 
L 237.283262 -62.64 
L 236.194694 -62.64 
L 235.106126 -62.64 
L 234.017558 -62.64 
L 232.928989 -62.64 
L 231.840421 -62.64 
L 230.751853 -62.64 
L 229.663285 -62.64 
L 228.574717 -62.64 
L 227.486149 -62.64 
L 226.397581 -62.64 
L 225.309013 -62.64 
L 224.220445 -62.64 
L 223.131877 -62.64 
L 222.043309 -62.64 
L 220.954741 -62.64 
L 219.866172 -62.64 
L 218.777604 -62.64 
L 217.689036 -62.64 
L 216.600468 -62.64 
L 215.5119 -62.64 
L 214.423332 -62.64 
L 213.334764 -62.64 
L 212.246196 -62.64 
L 211.157628 -62.64 
L 210.06906 -62.64 
L 208.980492 -62.64 
L 207.891924 -62.64 
L 206.803355 -62.64 
L 205.714787 -62.64 
L 204.626219 -62.64 
L 203.537651 -62.64 
L 202.449083 -62.64 
L 201.360515 -62.64 
L 200.271947 -62.64 
L 199.183379 -62.64 
L 198.094811 -62.64 
L 197.006243 -62.64 
L 195.917675 -62.64 
L 194.829107 -62.64 
L 193.740538 -62.64 
L 192.65197 -62.64 
L 191.563402 -62.64 
L 190.474834 -62.64 
L 189.386266 -62.64 
L 188.297698 -62.64 
L 187.20913 -62.64 
L 186.120562 -62.64 
L 185.031994 -62.64 
L 183.943426 -62.64 
L 182.854858 -62.64 
L 181.76629 -62.64 
L 180.677721 -62.64 
L 179.589153 -62.64 
L 178.500585 -62.64 
L 177.412017 -62.64 
L 176.323449 -62.64 
L 175.234881 -62.64 
L 174.146313 -62.64 
L 173.057745 -62.64 
L 171.969177 -62.64 
L 170.880609 -62.64 
L 169.792041 -62.64 
L 168.703472 -62.64 
L 167.614904 -62.64 
L 166.526336 -62.64 
L 165.437768 -62.64 
L 164.3492 -62.64 
L 163.260632 -62.64 
L 162.172064 -62.64 
L 161.083496 -62.64 
L 159.994928 -62.64 
L 158.90636 -62.64 
L 157.817792 -62.64 
L 156.729224 -62.64 
L 155.640655 -62.64 
L 154.552087 -62.64 
L 153.463519 -62.64 
L 152.374951 -62.64 
L 151.286383 -62.64 
L 150.197815 -62.64 
L 149.109247 -62.64 
L 148.020679 -62.64 
L 146.932111 -62.64 
L 145.843543 -62.64 
L 144.754975 -62.64 
L 143.666407 -62.64 
L 142.577838 -62.64 
L 141.48927 -62.64 
L 140.400702 -62.64 
L 139.312134 -62.64 
L 138.223566 -62.64 
L 137.134998 -62.64 
L 136.04643 -62.64 
L 134.957862 -62.64 
L 133.869294 -62.64 
L 132.780726 -62.64 
L 131.692158 -62.64 
L 130.60359 -62.64 
L 129.515021 -62.64 
L 128.426453 -62.64 
L 127.337885 -62.64 
L 126.249317 -62.64 
L 125.160749 -62.64 
L 124.072181 -62.64 
L 122.983613 -62.64 
L 121.895045 -62.64 
L 120.806477 -62.64 
L 119.717909 -62.64 
L 118.629341 -62.64 
L 117.540773 -62.64 
L 116.452204 -62.64 
L 115.363636 -62.64 
z
" id="m6644bacbc3" style="stroke:#0072b2;stroke-opacity:0.2;"/>
    </defs>
    <g clip-path="url(#pd44b89f279)">
     <use style="fill:#0072b2;fill-opacity:0.2;stroke:#0072b2;stroke-opacity:0.2;" x="0" xlink:href="#m6644bacbc3" y="432"/>
    </g>
   </g>
   <g id="matplotlib.axis_1">
    <g id="xtick_1">
     <g id="line2d_1">
      <path clip-path="url(#pd44b89f279)" d="M 100.123683 384.48 
L 100.123683 51.84 
" style="fill:none;stroke:#808080;stroke-linecap:square;stroke-opacity:0.2;"/>
     </g>
     <g id="line2d_2">
      <defs>
       <path d="M 0 0 
L 0 3.5 
" id="m6a39c88838" style="stroke:#000000;stroke-width:0.8;"/>
      </defs>
      <g>
       <use style="stroke:#000000;stroke-width:0.8;" x="100.123683" xlink:href="#m6a39c88838" y="384.48"/>
      </g>
     </g>
     <g id="text_1">
      <!-- 2019-10 -->
      <g transform="translate(79.232277 399.078438)scale(0.1 -0.1)">
       <defs>
        <path d="M 19.1875 8.296875 
L 53.609375 8.296875 
L 53.609375 0 
L 7.328125 0 
L 7.328125 8.296875 
Q 12.9375 14.109375 22.625 23.890625 
Q 32.328125 33.6875 34.8125 36.53125 
Q 39.546875 41.84375 41.421875 45.53125 
Q 43.3125 49.21875 43.3125 52.78125 
Q 43.3125 58.59375 39.234375 62.25 
Q 35.15625 65.921875 28.609375 65.921875 
Q 23.96875 65.921875 18.8125 64.3125 
Q 13.671875 62.703125 7.8125 59.421875 
L 7.8125 69.390625 
Q 13.765625 71.78125 18.9375 73 
Q 24.125 74.21875 28.421875 74.21875 
Q 39.75 74.21875 46.484375 68.546875 
Q 53.21875 62.890625 53.21875 53.421875 
Q 53.21875 48.921875 51.53125 44.890625 
Q 49.859375 40.875 45.40625 35.40625 
Q 44.1875 33.984375 37.640625 27.21875 
Q 31.109375 20.453125 19.1875 8.296875 
z
" id="DejaVuSans-50"/>
        <path d="M 31.78125 66.40625 
Q 24.171875 66.40625 20.328125 58.90625 
Q 16.5 51.421875 16.5 36.375 
Q 16.5 21.390625 20.328125 13.890625 
Q 24.171875 6.390625 31.78125 6.390625 
Q 39.453125 6.390625 43.28125 13.890625 
Q 47.125 21.390625 47.125 36.375 
Q 47.125 51.421875 43.28125 58.90625 
Q 39.453125 66.40625 31.78125 66.40625 
z
M 31.78125 74.21875 
Q 44.046875 74.21875 50.515625 64.515625 
Q 56.984375 54.828125 56.984375 36.375 
Q 56.984375 17.96875 50.515625 8.265625 
Q 44.046875 -1.421875 31.78125 -1.421875 
Q 19.53125 -1.421875 13.0625 8.265625 
Q 6.59375 17.96875 6.59375 36.375 
Q 6.59375 54.828125 13.0625 64.515625 
Q 19.53125 74.21875 31.78125 74.21875 
z
" id="DejaVuSans-48"/>
        <path d="M 12.40625 8.296875 
L 28.515625 8.296875 
L 28.515625 63.921875 
L 10.984375 60.40625 
L 10.984375 69.390625 
L 28.421875 72.90625 
L 38.28125 72.90625 
L 38.28125 8.296875 
L 54.390625 8.296875 
L 54.390625 0 
L 12.40625 0 
z
" id="DejaVuSans-49"/>
        <path d="M 10.984375 1.515625 
L 10.984375 10.5 
Q 14.703125 8.734375 18.5 7.8125 
Q 22.3125 6.890625 25.984375 6.890625 
Q 35.75 6.890625 40.890625 13.453125 
Q 46.046875 20.015625 46.78125 33.40625 
Q 43.953125 29.203125 39.59375 26.953125 
Q 35.25 24.703125 29.984375 24.703125 
Q 19.046875 24.703125 12.671875 31.3125 
Q 6.296875 37.9375 6.296875 49.421875 
Q 6.296875 60.640625 12.9375 67.421875 
Q 19.578125 74.21875 30.609375 74.21875 
Q 43.265625 74.21875 49.921875 64.515625 
Q 56.59375 54.828125 56.59375 36.375 
Q 56.59375 19.140625 48.40625 8.859375 
Q 40.234375 -1.421875 26.421875 -1.421875 
Q 22.703125 -1.421875 18.890625 -0.6875 
Q 15.09375 0.046875 10.984375 1.515625 
z
M 30.609375 32.421875 
Q 37.25 32.421875 41.125 36.953125 
Q 45.015625 41.5 45.015625 49.421875 
Q 45.015625 57.28125 41.125 61.84375 
Q 37.25 66.40625 30.609375 66.40625 
Q 23.96875 66.40625 20.09375 61.84375 
Q 16.21875 57.28125 16.21875 49.421875 
Q 16.21875 41.5 20.09375 36.953125 
Q 23.96875 32.421875 30.609375 32.421875 
z
" id="DejaVuSans-57"/>
        <path d="M 4.890625 31.390625 
L 31.203125 31.390625 
L 31.203125 23.390625 
L 4.890625 23.390625 
z
" id="DejaVuSans-45"/>
       </defs>
       <use xlink:href="#DejaVuSans-50"/>
       <use x="63.623047" xlink:href="#DejaVuSans-48"/>
       <use x="127.246094" xlink:href="#DejaVuSans-49"/>
       <use x="190.869141" xlink:href="#DejaVuSans-57"/>
       <use x="254.492188" xlink:href="#DejaVuSans-45"/>
       <use x="290.576172" xlink:href="#DejaVuSans-49"/>
       <use x="354.199219" xlink:href="#DejaVuSans-48"/>
      </g>
     </g>
    </g>
    <g id="xtick_2">
     <g id="line2d_3">
      <path clip-path="url(#pd44b89f279)" d="M 166.526336 384.48 
L 166.526336 51.84 
" style="fill:none;stroke:#808080;stroke-linecap:square;stroke-opacity:0.2;"/>
     </g>
     <g id="line2d_4">
      <g>
       <use style="stroke:#000000;stroke-width:0.8;" x="166.526336" xlink:href="#m6a39c88838" y="384.48"/>
      </g>
     </g>
     <g id="text_2">
      <!-- 2019-12 -->
      <g transform="translate(145.63493 399.078438)scale(0.1 -0.1)">
       <use xlink:href="#DejaVuSans-50"/>
       <use x="63.623047" xlink:href="#DejaVuSans-48"/>
       <use x="127.246094" xlink:href="#DejaVuSans-49"/>
       <use x="190.869141" xlink:href="#DejaVuSans-57"/>
       <use x="254.492188" xlink:href="#DejaVuSans-45"/>
       <use x="290.576172" xlink:href="#DejaVuSans-49"/>
       <use x="354.199219" xlink:href="#DejaVuSans-50"/>
      </g>
     </g>
    </g>
    <g id="xtick_3">
     <g id="line2d_5">
      <path clip-path="url(#pd44b89f279)" d="M 234.017558 384.48 
L 234.017558 51.84 
" style="fill:none;stroke:#808080;stroke-linecap:square;stroke-opacity:0.2;"/>
     </g>
     <g id="line2d_6">
      <g>
       <use style="stroke:#000000;stroke-width:0.8;" x="234.017558" xlink:href="#m6a39c88838" y="384.48"/>
      </g>
     </g>
     <g id="text_3">
      <!-- 2020-02 -->
      <g transform="translate(213.126151 399.078438)scale(0.1 -0.1)">
       <use xlink:href="#DejaVuSans-50"/>
       <use x="63.623047" xlink:href="#DejaVuSans-48"/>
       <use x="127.246094" xlink:href="#DejaVuSans-50"/>
       <use x="190.869141" xlink:href="#DejaVuSans-48"/>
       <use x="254.492188" xlink:href="#DejaVuSans-45"/>
       <use x="290.576172" xlink:href="#DejaVuSans-48"/>
       <use x="354.199219" xlink:href="#DejaVuSans-50"/>
      </g>
     </g>
    </g>
    <g id="xtick_4">
     <g id="line2d_7">
      <path clip-path="url(#pd44b89f279)" d="M 299.331643 384.48 
L 299.331643 51.84 
" style="fill:none;stroke:#808080;stroke-linecap:square;stroke-opacity:0.2;"/>
     </g>
     <g id="line2d_8">
      <g>
       <use style="stroke:#000000;stroke-width:0.8;" x="299.331643" xlink:href="#m6a39c88838" y="384.48"/>
      </g>
     </g>
     <g id="text_4">
      <!-- 2020-04 -->
      <g transform="translate(278.440236 399.078438)scale(0.1 -0.1)">
       <defs>
        <path d="M 37.796875 64.3125 
L 12.890625 25.390625 
L 37.796875 25.390625 
z
M 35.203125 72.90625 
L 47.609375 72.90625 
L 47.609375 25.390625 
L 58.015625 25.390625 
L 58.015625 17.1875 
L 47.609375 17.1875 
L 47.609375 0 
L 37.796875 0 
L 37.796875 17.1875 
L 4.890625 17.1875 
L 4.890625 26.703125 
z
" id="DejaVuSans-52"/>
       </defs>
       <use xlink:href="#DejaVuSans-50"/>
       <use x="63.623047" xlink:href="#DejaVuSans-48"/>
       <use x="127.246094" xlink:href="#DejaVuSans-50"/>
       <use x="190.869141" xlink:href="#DejaVuSans-48"/>
       <use x="254.492188" xlink:href="#DejaVuSans-45"/>
       <use x="290.576172" xlink:href="#DejaVuSans-48"/>
       <use x="354.199219" xlink:href="#DejaVuSans-52"/>
      </g>
     </g>
    </g>
    <g id="xtick_5">
     <g id="line2d_9">
      <path clip-path="url(#pd44b89f279)" d="M 365.734296 384.48 
L 365.734296 51.84 
" style="fill:none;stroke:#808080;stroke-linecap:square;stroke-opacity:0.2;"/>
     </g>
     <g id="line2d_10">
      <g>
       <use style="stroke:#000000;stroke-width:0.8;" x="365.734296" xlink:href="#m6a39c88838" y="384.48"/>
      </g>
     </g>
     <g id="text_5">
      <!-- 2020-06 -->
      <g transform="translate(344.842889 399.078438)scale(0.1 -0.1)">
       <defs>
        <path d="M 33.015625 40.375 
Q 26.375 40.375 22.484375 35.828125 
Q 18.609375 31.296875 18.609375 23.390625 
Q 18.609375 15.53125 22.484375 10.953125 
Q 26.375 6.390625 33.015625 6.390625 
Q 39.65625 6.390625 43.53125 10.953125 
Q 47.40625 15.53125 47.40625 23.390625 
Q 47.40625 31.296875 43.53125 35.828125 
Q 39.65625 40.375 33.015625 40.375 
z
M 52.59375 71.296875 
L 52.59375 62.3125 
Q 48.875 64.0625 45.09375 64.984375 
Q 41.3125 65.921875 37.59375 65.921875 
Q 27.828125 65.921875 22.671875 59.328125 
Q 17.53125 52.734375 16.796875 39.40625 
Q 19.671875 43.65625 24.015625 45.921875 
Q 28.375 48.1875 33.59375 48.1875 
Q 44.578125 48.1875 50.953125 41.515625 
Q 57.328125 34.859375 57.328125 23.390625 
Q 57.328125 12.15625 50.6875 5.359375 
Q 44.046875 -1.421875 33.015625 -1.421875 
Q 20.359375 -1.421875 13.671875 8.265625 
Q 6.984375 17.96875 6.984375 36.375 
Q 6.984375 53.65625 15.1875 63.9375 
Q 23.390625 74.21875 37.203125 74.21875 
Q 40.921875 74.21875 44.703125 73.484375 
Q 48.484375 72.75 52.59375 71.296875 
z
" id="DejaVuSans-54"/>
       </defs>
       <use xlink:href="#DejaVuSans-50"/>
       <use x="63.623047" xlink:href="#DejaVuSans-48"/>
       <use x="127.246094" xlink:href="#DejaVuSans-50"/>
       <use x="190.869141" xlink:href="#DejaVuSans-48"/>
       <use x="254.492188" xlink:href="#DejaVuSans-45"/>
       <use x="290.576172" xlink:href="#DejaVuSans-48"/>
       <use x="354.199219" xlink:href="#DejaVuSans-54"/>
      </g>
     </g>
    </g>
    <g id="xtick_6">
     <g id="line2d_11">
      <path clip-path="url(#pd44b89f279)" d="M 432.136949 384.48 
L 432.136949 51.84 
" style="fill:none;stroke:#808080;stroke-linecap:square;stroke-opacity:0.2;"/>
     </g>
     <g id="line2d_12">
      <g>
       <use style="stroke:#000000;stroke-width:0.8;" x="432.136949" xlink:href="#m6a39c88838" y="384.48"/>
      </g>
     </g>
     <g id="text_6">
      <!-- 2020-08 -->
      <g transform="translate(411.245543 399.078438)scale(0.1 -0.1)">
       <defs>
        <path d="M 31.78125 34.625 
Q 24.75 34.625 20.71875 30.859375 
Q 16.703125 27.09375 16.703125 20.515625 
Q 16.703125 13.921875 20.71875 10.15625 
Q 24.75 6.390625 31.78125 6.390625 
Q 38.8125 6.390625 42.859375 10.171875 
Q 46.921875 13.96875 46.921875 20.515625 
Q 46.921875 27.09375 42.890625 30.859375 
Q 38.875 34.625 31.78125 34.625 
z
M 21.921875 38.8125 
Q 15.578125 40.375 12.03125 44.71875 
Q 8.5 49.078125 8.5 55.328125 
Q 8.5 64.0625 14.71875 69.140625 
Q 20.953125 74.21875 31.78125 74.21875 
Q 42.671875 74.21875 48.875 69.140625 
Q 55.078125 64.0625 55.078125 55.328125 
Q 55.078125 49.078125 51.53125 44.71875 
Q 48 40.375 41.703125 38.8125 
Q 48.828125 37.15625 52.796875 32.3125 
Q 56.78125 27.484375 56.78125 20.515625 
Q 56.78125 9.90625 50.3125 4.234375 
Q 43.84375 -1.421875 31.78125 -1.421875 
Q 19.734375 -1.421875 13.25 4.234375 
Q 6.78125 9.90625 6.78125 20.515625 
Q 6.78125 27.484375 10.78125 32.3125 
Q 14.796875 37.15625 21.921875 38.8125 
z
M 18.3125 54.390625 
Q 18.3125 48.734375 21.84375 45.5625 
Q 25.390625 42.390625 31.78125 42.390625 
Q 38.140625 42.390625 41.71875 45.5625 
Q 45.3125 48.734375 45.3125 54.390625 
Q 45.3125 60.0625 41.71875 63.234375 
Q 38.140625 66.40625 31.78125 66.40625 
Q 25.390625 66.40625 21.84375 63.234375 
Q 18.3125 60.0625 18.3125 54.390625 
z
" id="DejaVuSans-56"/>
       </defs>
       <use xlink:href="#DejaVuSans-50"/>
       <use x="63.623047" xlink:href="#DejaVuSans-48"/>
       <use x="127.246094" xlink:href="#DejaVuSans-50"/>
       <use x="190.869141" xlink:href="#DejaVuSans-48"/>
       <use x="254.492188" xlink:href="#DejaVuSans-45"/>
       <use x="290.576172" xlink:href="#DejaVuSans-48"/>
       <use x="354.199219" xlink:href="#DejaVuSans-56"/>
      </g>
     </g>
    </g>
    <g id="xtick_7">
     <g id="line2d_13">
      <path clip-path="url(#pd44b89f279)" d="M 498.539602 384.48 
L 498.539602 51.84 
" style="fill:none;stroke:#808080;stroke-linecap:square;stroke-opacity:0.2;"/>
     </g>
     <g id="line2d_14">
      <g>
       <use style="stroke:#000000;stroke-width:0.8;" x="498.539602" xlink:href="#m6a39c88838" y="384.48"/>
      </g>
     </g>
     <g id="text_7">
      <!-- 2020-10 -->
      <g transform="translate(477.648196 399.078438)scale(0.1 -0.1)">
       <use xlink:href="#DejaVuSans-50"/>
       <use x="63.623047" xlink:href="#DejaVuSans-48"/>
       <use x="127.246094" xlink:href="#DejaVuSans-50"/>
       <use x="190.869141" xlink:href="#DejaVuSans-48"/>
       <use x="254.492188" xlink:href="#DejaVuSans-45"/>
       <use x="290.576172" xlink:href="#DejaVuSans-49"/>
       <use x="354.199219" xlink:href="#DejaVuSans-48"/>
      </g>
     </g>
    </g>
    <g id="xtick_8">
     <g id="line2d_15">
      <path clip-path="url(#pd44b89f279)" d="M 564.942255 384.48 
L 564.942255 51.84 
" style="fill:none;stroke:#808080;stroke-linecap:square;stroke-opacity:0.2;"/>
     </g>
     <g id="line2d_16">
      <g>
       <use style="stroke:#000000;stroke-width:0.8;" x="564.942255" xlink:href="#m6a39c88838" y="384.48"/>
      </g>
     </g>
     <g id="text_8">
      <!-- 2020-12 -->
      <g transform="translate(544.050849 399.078438)scale(0.1 -0.1)">
       <use xlink:href="#DejaVuSans-50"/>
       <use x="63.623047" xlink:href="#DejaVuSans-48"/>
       <use x="127.246094" xlink:href="#DejaVuSans-50"/>
       <use x="190.869141" xlink:href="#DejaVuSans-48"/>
       <use x="254.492188" xlink:href="#DejaVuSans-45"/>
       <use x="290.576172" xlink:href="#DejaVuSans-49"/>
       <use x="354.199219" xlink:href="#DejaVuSans-50"/>
      </g>
     </g>
    </g>
    <g id="xtick_9">
     <g id="line2d_17">
      <path clip-path="url(#pd44b89f279)" d="M 632.433476 384.48 
L 632.433476 51.84 
" style="fill:none;stroke:#808080;stroke-linecap:square;stroke-opacity:0.2;"/>
     </g>
     <g id="line2d_18">
      <g>
       <use style="stroke:#000000;stroke-width:0.8;" x="632.433476" xlink:href="#m6a39c88838" y="384.48"/>
      </g>
     </g>
     <g id="text_9">
      <!-- 2021-02 -->
      <g transform="translate(611.54207 399.078438)scale(0.1 -0.1)">
       <use xlink:href="#DejaVuSans-50"/>
       <use x="63.623047" xlink:href="#DejaVuSans-48"/>
       <use x="127.246094" xlink:href="#DejaVuSans-50"/>
       <use x="190.869141" xlink:href="#DejaVuSans-49"/>
       <use x="254.492188" xlink:href="#DejaVuSans-45"/>
       <use x="290.576172" xlink:href="#DejaVuSans-48"/>
       <use x="354.199219" xlink:href="#DejaVuSans-50"/>
      </g>
     </g>
    </g>
    <g id="text_10">
     <!-- ds -->
     <g transform="translate(363.221094 412.756563)scale(0.1 -0.1)">
      <defs>
       <path d="M 45.40625 46.390625 
L 45.40625 75.984375 
L 54.390625 75.984375 
L 54.390625 0 
L 45.40625 0 
L 45.40625 8.203125 
Q 42.578125 3.328125 38.25 0.953125 
Q 33.9375 -1.421875 27.875 -1.421875 
Q 17.96875 -1.421875 11.734375 6.484375 
Q 5.515625 14.40625 5.515625 27.296875 
Q 5.515625 40.1875 11.734375 48.09375 
Q 17.96875 56 27.875 56 
Q 33.9375 56 38.25 53.625 
Q 42.578125 51.265625 45.40625 46.390625 
z
M 14.796875 27.296875 
Q 14.796875 17.390625 18.875 11.75 
Q 22.953125 6.109375 30.078125 6.109375 
Q 37.203125 6.109375 41.296875 11.75 
Q 45.40625 17.390625 45.40625 27.296875 
Q 45.40625 37.203125 41.296875 42.84375 
Q 37.203125 48.484375 30.078125 48.484375 
Q 22.953125 48.484375 18.875 42.84375 
Q 14.796875 37.203125 14.796875 27.296875 
z
" id="DejaVuSans-100"/>
       <path d="M 44.28125 53.078125 
L 44.28125 44.578125 
Q 40.484375 46.53125 36.375 47.5 
Q 32.28125 48.484375 27.875 48.484375 
Q 21.1875 48.484375 17.84375 46.4375 
Q 14.5 44.390625 14.5 40.28125 
Q 14.5 37.15625 16.890625 35.375 
Q 19.28125 33.59375 26.515625 31.984375 
L 29.59375 31.296875 
Q 39.15625 29.25 43.1875 25.515625 
Q 47.21875 21.78125 47.21875 15.09375 
Q 47.21875 7.46875 41.1875 3.015625 
Q 35.15625 -1.421875 24.609375 -1.421875 
Q 20.21875 -1.421875 15.453125 -0.5625 
Q 10.6875 0.296875 5.421875 2 
L 5.421875 11.28125 
Q 10.40625 8.6875 15.234375 7.390625 
Q 20.0625 6.109375 24.8125 6.109375 
Q 31.15625 6.109375 34.5625 8.28125 
Q 37.984375 10.453125 37.984375 14.40625 
Q 37.984375 18.0625 35.515625 20.015625 
Q 33.0625 21.96875 24.703125 23.78125 
L 21.578125 24.515625 
Q 13.234375 26.265625 9.515625 29.90625 
Q 5.8125 33.546875 5.8125 39.890625 
Q 5.8125 47.609375 11.28125 51.796875 
Q 16.75 56 26.8125 56 
Q 31.78125 56 36.171875 55.265625 
Q 40.578125 54.546875 44.28125 53.078125 
z
" id="DejaVuSans-115"/>
      </defs>
      <use xlink:href="#DejaVuSans-100"/>
      <use x="63.476562" xlink:href="#DejaVuSans-115"/>
     </g>
    </g>
   </g>
   <g id="matplotlib.axis_2">
    <g id="ytick_1">
     <g id="line2d_19">
      <path clip-path="url(#pd44b89f279)" d="M 90 369.36 
L 648 369.36 
" style="fill:none;stroke:#808080;stroke-linecap:square;stroke-opacity:0.2;"/>
     </g>
     <g id="line2d_20">
      <defs>
       <path d="M 0 0 
L -3.5 0 
" id="mebc6bea203" style="stroke:#000000;stroke-width:0.8;"/>
      </defs>
      <g>
       <use style="stroke:#000000;stroke-width:0.8;" x="90" xlink:href="#mebc6bea203" y="369.36"/>
      </g>
     </g>
     <g id="text_11">
      <!-- 0.0 -->
      <g transform="translate(67.096875 373.159219)scale(0.1 -0.1)">
       <defs>
        <path d="M 10.6875 12.40625 
L 21 12.40625 
L 21 0 
L 10.6875 0 
z
" id="DejaVuSans-46"/>
       </defs>
       <use xlink:href="#DejaVuSans-48"/>
       <use x="63.623047" xlink:href="#DejaVuSans-46"/>
       <use x="95.410156" xlink:href="#DejaVuSans-48"/>
      </g>
     </g>
    </g>
    <g id="ytick_2">
     <g id="line2d_21">
      <path clip-path="url(#pd44b89f279)" d="M 90 301.501218 
L 648 301.501218 
" style="fill:none;stroke:#808080;stroke-linecap:square;stroke-opacity:0.2;"/>
     </g>
     <g id="line2d_22">
      <g>
       <use style="stroke:#000000;stroke-width:0.8;" x="90" xlink:href="#mebc6bea203" y="301.501218"/>
      </g>
     </g>
     <g id="text_12">
      <!-- 0.1 -->
      <g transform="translate(67.096875 305.300436)scale(0.1 -0.1)">
       <use xlink:href="#DejaVuSans-48"/>
       <use x="63.623047" xlink:href="#DejaVuSans-46"/>
       <use x="95.410156" xlink:href="#DejaVuSans-49"/>
      </g>
     </g>
    </g>
    <g id="ytick_3">
     <g id="line2d_23">
      <path clip-path="url(#pd44b89f279)" d="M 90 233.642435 
L 648 233.642435 
" style="fill:none;stroke:#808080;stroke-linecap:square;stroke-opacity:0.2;"/>
     </g>
     <g id="line2d_24">
      <g>
       <use style="stroke:#000000;stroke-width:0.8;" x="90" xlink:href="#mebc6bea203" y="233.642435"/>
      </g>
     </g>
     <g id="text_13">
      <!-- 0.2 -->
      <g transform="translate(67.096875 237.441654)scale(0.1 -0.1)">
       <use xlink:href="#DejaVuSans-48"/>
       <use x="63.623047" xlink:href="#DejaVuSans-46"/>
       <use x="95.410156" xlink:href="#DejaVuSans-50"/>
      </g>
     </g>
    </g>
    <g id="ytick_4">
     <g id="line2d_25">
      <path clip-path="url(#pd44b89f279)" d="M 90 165.783653 
L 648 165.783653 
" style="fill:none;stroke:#808080;stroke-linecap:square;stroke-opacity:0.2;"/>
     </g>
     <g id="line2d_26">
      <g>
       <use style="stroke:#000000;stroke-width:0.8;" x="90" xlink:href="#mebc6bea203" y="165.783653"/>
      </g>
     </g>
     <g id="text_14">
      <!-- 0.3 -->
      <g transform="translate(67.096875 169.582872)scale(0.1 -0.1)">
       <defs>
        <path d="M 40.578125 39.3125 
Q 47.65625 37.796875 51.625 33 
Q 55.609375 28.21875 55.609375 21.1875 
Q 55.609375 10.40625 48.1875 4.484375 
Q 40.765625 -1.421875 27.09375 -1.421875 
Q 22.515625 -1.421875 17.65625 -0.515625 
Q 12.796875 0.390625 7.625 2.203125 
L 7.625 11.71875 
Q 11.71875 9.328125 16.59375 8.109375 
Q 21.484375 6.890625 26.8125 6.890625 
Q 36.078125 6.890625 40.9375 10.546875 
Q 45.796875 14.203125 45.796875 21.1875 
Q 45.796875 27.640625 41.28125 31.265625 
Q 36.765625 34.90625 28.71875 34.90625 
L 20.21875 34.90625 
L 20.21875 43.015625 
L 29.109375 43.015625 
Q 36.375 43.015625 40.234375 45.921875 
Q 44.09375 48.828125 44.09375 54.296875 
Q 44.09375 59.90625 40.109375 62.90625 
Q 36.140625 65.921875 28.71875 65.921875 
Q 24.65625 65.921875 20.015625 65.03125 
Q 15.375 64.15625 9.8125 62.3125 
L 9.8125 71.09375 
Q 15.4375 72.65625 20.34375 73.4375 
Q 25.25 74.21875 29.59375 74.21875 
Q 40.828125 74.21875 47.359375 69.109375 
Q 53.90625 64.015625 53.90625 55.328125 
Q 53.90625 49.265625 50.4375 45.09375 
Q 46.96875 40.921875 40.578125 39.3125 
z
" id="DejaVuSans-51"/>
       </defs>
       <use xlink:href="#DejaVuSans-48"/>
       <use x="63.623047" xlink:href="#DejaVuSans-46"/>
       <use x="95.410156" xlink:href="#DejaVuSans-51"/>
      </g>
     </g>
    </g>
    <g id="ytick_5">
     <g id="line2d_27">
      <path clip-path="url(#pd44b89f279)" d="M 90 97.924871 
L 648 97.924871 
" style="fill:none;stroke:#808080;stroke-linecap:square;stroke-opacity:0.2;"/>
     </g>
     <g id="line2d_28">
      <g>
       <use style="stroke:#000000;stroke-width:0.8;" x="90" xlink:href="#mebc6bea203" y="97.924871"/>
      </g>
     </g>
     <g id="text_15">
      <!-- 0.4 -->
      <g transform="translate(67.096875 101.724089)scale(0.1 -0.1)">
       <use xlink:href="#DejaVuSans-48"/>
       <use x="63.623047" xlink:href="#DejaVuSans-46"/>
       <use x="95.410156" xlink:href="#DejaVuSans-52"/>
      </g>
     </g>
    </g>
    <g id="text_16">
     <!-- amazon_prime_day -->
     <g transform="translate(60.739062 266.774062)rotate(-90)scale(0.1 -0.1)">
      <defs>
       <path d="M 34.28125 27.484375 
Q 23.390625 27.484375 19.1875 25 
Q 14.984375 22.515625 14.984375 16.5 
Q 14.984375 11.71875 18.140625 8.90625 
Q 21.296875 6.109375 26.703125 6.109375 
Q 34.1875 6.109375 38.703125 11.40625 
Q 43.21875 16.703125 43.21875 25.484375 
L 43.21875 27.484375 
z
M 52.203125 31.203125 
L 52.203125 0 
L 43.21875 0 
L 43.21875 8.296875 
Q 40.140625 3.328125 35.546875 0.953125 
Q 30.953125 -1.421875 24.3125 -1.421875 
Q 15.921875 -1.421875 10.953125 3.296875 
Q 6 8.015625 6 15.921875 
Q 6 25.140625 12.171875 29.828125 
Q 18.359375 34.515625 30.609375 34.515625 
L 43.21875 34.515625 
L 43.21875 35.40625 
Q 43.21875 41.609375 39.140625 45 
Q 35.0625 48.390625 27.6875 48.390625 
Q 23 48.390625 18.546875 47.265625 
Q 14.109375 46.140625 10.015625 43.890625 
L 10.015625 52.203125 
Q 14.9375 54.109375 19.578125 55.046875 
Q 24.21875 56 28.609375 56 
Q 40.484375 56 46.34375 49.84375 
Q 52.203125 43.703125 52.203125 31.203125 
z
" id="DejaVuSans-97"/>
       <path d="M 52 44.1875 
Q 55.375 50.25 60.0625 53.125 
Q 64.75 56 71.09375 56 
Q 79.640625 56 84.28125 50.015625 
Q 88.921875 44.046875 88.921875 33.015625 
L 88.921875 0 
L 79.890625 0 
L 79.890625 32.71875 
Q 79.890625 40.578125 77.09375 44.375 
Q 74.3125 48.1875 68.609375 48.1875 
Q 61.625 48.1875 57.5625 43.546875 
Q 53.515625 38.921875 53.515625 30.90625 
L 53.515625 0 
L 44.484375 0 
L 44.484375 32.71875 
Q 44.484375 40.625 41.703125 44.40625 
Q 38.921875 48.1875 33.109375 48.1875 
Q 26.21875 48.1875 22.15625 43.53125 
Q 18.109375 38.875 18.109375 30.90625 
L 18.109375 0 
L 9.078125 0 
L 9.078125 54.6875 
L 18.109375 54.6875 
L 18.109375 46.1875 
Q 21.1875 51.21875 25.484375 53.609375 
Q 29.78125 56 35.6875 56 
Q 41.65625 56 45.828125 52.96875 
Q 50 49.953125 52 44.1875 
z
" id="DejaVuSans-109"/>
       <path d="M 5.515625 54.6875 
L 48.1875 54.6875 
L 48.1875 46.484375 
L 14.40625 7.171875 
L 48.1875 7.171875 
L 48.1875 0 
L 4.296875 0 
L 4.296875 8.203125 
L 38.09375 47.515625 
L 5.515625 47.515625 
z
" id="DejaVuSans-122"/>
       <path d="M 30.609375 48.390625 
Q 23.390625 48.390625 19.1875 42.75 
Q 14.984375 37.109375 14.984375 27.296875 
Q 14.984375 17.484375 19.15625 11.84375 
Q 23.34375 6.203125 30.609375 6.203125 
Q 37.796875 6.203125 41.984375 11.859375 
Q 46.1875 17.53125 46.1875 27.296875 
Q 46.1875 37.015625 41.984375 42.703125 
Q 37.796875 48.390625 30.609375 48.390625 
z
M 30.609375 56 
Q 42.328125 56 49.015625 48.375 
Q 55.71875 40.765625 55.71875 27.296875 
Q 55.71875 13.875 49.015625 6.21875 
Q 42.328125 -1.421875 30.609375 -1.421875 
Q 18.84375 -1.421875 12.171875 6.21875 
Q 5.515625 13.875 5.515625 27.296875 
Q 5.515625 40.765625 12.171875 48.375 
Q 18.84375 56 30.609375 56 
z
" id="DejaVuSans-111"/>
       <path d="M 54.890625 33.015625 
L 54.890625 0 
L 45.90625 0 
L 45.90625 32.71875 
Q 45.90625 40.484375 42.875 44.328125 
Q 39.84375 48.1875 33.796875 48.1875 
Q 26.515625 48.1875 22.3125 43.546875 
Q 18.109375 38.921875 18.109375 30.90625 
L 18.109375 0 
L 9.078125 0 
L 9.078125 54.6875 
L 18.109375 54.6875 
L 18.109375 46.1875 
Q 21.34375 51.125 25.703125 53.5625 
Q 30.078125 56 35.796875 56 
Q 45.21875 56 50.046875 50.171875 
Q 54.890625 44.34375 54.890625 33.015625 
z
" id="DejaVuSans-110"/>
       <path d="M 50.984375 -16.609375 
L 50.984375 -23.578125 
L -0.984375 -23.578125 
L -0.984375 -16.609375 
z
" id="DejaVuSans-95"/>
       <path d="M 18.109375 8.203125 
L 18.109375 -20.796875 
L 9.078125 -20.796875 
L 9.078125 54.6875 
L 18.109375 54.6875 
L 18.109375 46.390625 
Q 20.953125 51.265625 25.265625 53.625 
Q 29.59375 56 35.59375 56 
Q 45.5625 56 51.78125 48.09375 
Q 58.015625 40.1875 58.015625 27.296875 
Q 58.015625 14.40625 51.78125 6.484375 
Q 45.5625 -1.421875 35.59375 -1.421875 
Q 29.59375 -1.421875 25.265625 0.953125 
Q 20.953125 3.328125 18.109375 8.203125 
z
M 48.6875 27.296875 
Q 48.6875 37.203125 44.609375 42.84375 
Q 40.53125 48.484375 33.40625 48.484375 
Q 26.265625 48.484375 22.1875 42.84375 
Q 18.109375 37.203125 18.109375 27.296875 
Q 18.109375 17.390625 22.1875 11.75 
Q 26.265625 6.109375 33.40625 6.109375 
Q 40.53125 6.109375 44.609375 11.75 
Q 48.6875 17.390625 48.6875 27.296875 
z
" id="DejaVuSans-112"/>
       <path d="M 41.109375 46.296875 
Q 39.59375 47.171875 37.8125 47.578125 
Q 36.03125 48 33.890625 48 
Q 26.265625 48 22.1875 43.046875 
Q 18.109375 38.09375 18.109375 28.8125 
L 18.109375 0 
L 9.078125 0 
L 9.078125 54.6875 
L 18.109375 54.6875 
L 18.109375 46.1875 
Q 20.953125 51.171875 25.484375 53.578125 
Q 30.03125 56 36.53125 56 
Q 37.453125 56 38.578125 55.875 
Q 39.703125 55.765625 41.0625 55.515625 
z
" id="DejaVuSans-114"/>
       <path d="M 9.421875 54.6875 
L 18.40625 54.6875 
L 18.40625 0 
L 9.421875 0 
z
M 9.421875 75.984375 
L 18.40625 75.984375 
L 18.40625 64.59375 
L 9.421875 64.59375 
z
" id="DejaVuSans-105"/>
       <path d="M 56.203125 29.59375 
L 56.203125 25.203125 
L 14.890625 25.203125 
Q 15.484375 15.921875 20.484375 11.0625 
Q 25.484375 6.203125 34.421875 6.203125 
Q 39.59375 6.203125 44.453125 7.46875 
Q 49.3125 8.734375 54.109375 11.28125 
L 54.109375 2.78125 
Q 49.265625 0.734375 44.1875 -0.34375 
Q 39.109375 -1.421875 33.890625 -1.421875 
Q 20.796875 -1.421875 13.15625 6.1875 
Q 5.515625 13.8125 5.515625 26.8125 
Q 5.515625 40.234375 12.765625 48.109375 
Q 20.015625 56 32.328125 56 
Q 43.359375 56 49.78125 48.890625 
Q 56.203125 41.796875 56.203125 29.59375 
z
M 47.21875 32.234375 
Q 47.125 39.59375 43.09375 43.984375 
Q 39.0625 48.390625 32.421875 48.390625 
Q 24.90625 48.390625 20.390625 44.140625 
Q 15.875 39.890625 15.1875 32.171875 
z
" id="DejaVuSans-101"/>
       <path d="M 32.171875 -5.078125 
Q 28.375 -14.84375 24.75 -17.8125 
Q 21.140625 -20.796875 15.09375 -20.796875 
L 7.90625 -20.796875 
L 7.90625 -13.28125 
L 13.1875 -13.28125 
Q 16.890625 -13.28125 18.9375 -11.515625 
Q 21 -9.765625 23.484375 -3.21875 
L 25.09375 0.875 
L 2.984375 54.6875 
L 12.5 54.6875 
L 29.59375 11.921875 
L 46.6875 54.6875 
L 56.203125 54.6875 
z
" id="DejaVuSans-121"/>
      </defs>
      <use xlink:href="#DejaVuSans-97"/>
      <use x="61.279297" xlink:href="#DejaVuSans-109"/>
      <use x="158.691406" xlink:href="#DejaVuSans-97"/>
      <use x="219.970703" xlink:href="#DejaVuSans-122"/>
      <use x="272.460938" xlink:href="#DejaVuSans-111"/>
      <use x="333.642578" xlink:href="#DejaVuSans-110"/>
      <use x="397.021484" xlink:href="#DejaVuSans-95"/>
      <use x="447.021484" xlink:href="#DejaVuSans-112"/>
      <use x="510.498047" xlink:href="#DejaVuSans-114"/>
      <use x="551.611328" xlink:href="#DejaVuSans-105"/>
      <use x="579.394531" xlink:href="#DejaVuSans-109"/>
      <use x="676.806641" xlink:href="#DejaVuSans-101"/>
      <use x="738.330078" xlink:href="#DejaVuSans-95"/>
      <use x="788.330078" xlink:href="#DejaVuSans-100"/>
      <use x="851.806641" xlink:href="#DejaVuSans-97"/>
      <use x="913.085938" xlink:href="#DejaVuSans-121"/>
     </g>
    </g>
   </g>
   <g id="line2d_29">
    <path clip-path="url(#pd44b89f279)" d="M 115.363636 369.36 
L 510.513851 369.36 
L 511.602419 131.248373 
L 512.690987 66.96 
L 513.779555 305.071627 
L 514.868123 369.36 
L 622.636364 369.36 
L 622.636364 369.36 
" style="fill:none;stroke:#0072b2;stroke-linecap:square;stroke-width:1.5;"/>
   </g>
   <g id="patch_3">
    <path d="M 90 384.48 
L 90 51.84 
" style="fill:none;stroke:#000000;stroke-linecap:square;stroke-linejoin:miter;stroke-width:0.8;"/>
   </g>
   <g id="patch_4">
    <path d="M 648 384.48 
L 648 51.84 
" style="fill:none;stroke:#000000;stroke-linecap:square;stroke-linejoin:miter;stroke-width:0.8;"/>
   </g>
   <g id="patch_5">
    <path d="M 90 384.48 
L 648 384.48 
" style="fill:none;stroke:#000000;stroke-linecap:square;stroke-linejoin:miter;stroke-width:0.8;"/>
   </g>
   <g id="patch_6">
    <path d="M 90 51.84 
L 648 51.84 
" style="fill:none;stroke:#000000;stroke-linecap:square;stroke-linejoin:miter;stroke-width:0.8;"/>
   </g>
  </g>
 </g>
 <defs>
  <clipPath id="pd44b89f279">
   <rect height="332.64" width="558" x="90" y="51.84"/>
  </clipPath>
 </defs>
</svg>
