<?xml version="1.0" encoding="utf-8" standalone="no"?>
<!DOCTYPE svg PUBLIC "-//W3C//DTD SVG 1.1//EN"
  "http://www.w3.org/Graphics/SVG/1.1/DTD/svg11.dtd">
<!-- Created with matplotlib (https://matplotlib.org/) -->
<svg height="432pt" version="1.1" viewBox="0 0 720 432" width="720pt" xmlns="http://www.w3.org/2000/svg" xmlns:xlink="http://www.w3.org/1999/xlink">
 <metadata>
  <rdf:RDF xmlns:cc="http://creativecommons.org/ns#" xmlns:dc="http://purl.org/dc/elements/1.1/" xmlns:rdf="http://www.w3.org/1999/02/22-rdf-syntax-ns#">
   <cc:Work>
    <dc:type rdf:resource="http://purl.org/dc/dcmitype/StillImage"/>
    <dc:date>2020-10-16T00:30:40.965730</dc:date>
    <dc:format>image/svg+xml</dc:format>
    <dc:creator>
     <cc:Agent>
      <dc:title>Matplotlib v3.3.2, https://matplotlib.org/</dc:title>
     </cc:Agent>
    </dc:creator>
   </cc:Work>
  </rdf:RDF>
 </metadata>
 <defs>
  <style type="text/css">*{stroke-linecap:butt;stroke-linejoin:round;}</style>
 </defs>
 <g id="figure_1">
  <g id="patch_1">
   <path d="M 0 432 
L 720 432 
L 720 0 
L 0 0 
z
" style="fill:#ffffff;"/>
  </g>
  <g id="axes_1">
   <g id="patch_2">
    <path d="M 90 384.48 
L 648 384.48 
L 648 51.84 
L 90 51.84 
z
" style="fill:#ffffff;"/>
   </g>
   <g id="PolyCollection_1">
    <defs>
     <path d="M 115.363636 -365.04 
L 115.363636 -365.04 
L 116.452204 -365.04 
L 117.540773 -365.04 
L 118.629341 -365.04 
L 119.717909 -365.04 
L 120.806477 -365.04 
L 121.895045 -365.04 
L 122.983613 -365.04 
L 124.072181 -365.04 
L 125.160749 -365.04 
L 126.249317 -365.04 
L 127.337885 -365.04 
L 128.426453 -365.04 
L 129.515021 -365.04 
L 130.60359 -365.04 
L 131.692158 -365.04 
L 132.780726 -365.04 
L 133.869294 -365.04 
L 134.957862 -365.04 
L 136.04643 -365.04 
L 137.134998 -365.04 
L 138.223566 -365.04 
L 139.312134 -365.04 
L 140.400702 -365.04 
L 141.48927 -365.04 
L 142.577838 -365.04 
L 143.666407 -365.04 
L 144.754975 -365.04 
L 145.843543 -365.04 
L 146.932111 -365.04 
L 148.020679 -365.04 
L 149.109247 -365.04 
L 150.197815 -365.04 
L 151.286383 -365.04 
L 152.374951 -365.04 
L 153.463519 -365.04 
L 154.552087 -365.04 
L 155.640655 -365.04 
L 156.729224 -365.04 
L 157.817792 -365.04 
L 158.90636 -365.04 
L 159.994928 -365.04 
L 161.083496 -365.04 
L 162.172064 -365.04 
L 163.260632 -365.04 
L 164.3492 -365.04 
L 165.437768 -365.04 
L 166.526336 -365.04 
L 167.614904 -365.04 
L 168.703472 -365.04 
L 169.792041 -365.04 
L 170.880609 -365.04 
L 171.969177 -365.04 
L 173.057745 -365.04 
L 174.146313 -365.04 
L 175.234881 -365.04 
L 176.323449 -365.04 
L 177.412017 -365.04 
L 178.500585 -365.04 
L 179.589153 -365.04 
L 180.677721 -365.04 
L 181.76629 -365.04 
L 182.854858 -365.04 
L 183.943426 -365.04 
L 185.031994 -365.04 
L 186.120562 -365.04 
L 187.20913 -365.04 
L 188.297698 -365.04 
L 189.386266 -365.04 
L 190.474834 -365.04 
L 191.563402 -365.04 
L 192.65197 -365.04 
L 193.740538 -365.04 
L 194.829107 -365.04 
L 195.917675 -365.04 
L 197.006243 -365.04 
L 198.094811 -365.04 
L 199.183379 -365.04 
L 200.271947 -365.04 
L 201.360515 -365.04 
L 202.449083 -365.04 
L 203.537651 -365.04 
L 204.626219 -365.04 
L 205.714787 -365.04 
L 206.803355 -365.04 
L 207.891924 -365.04 
L 208.980492 -365.04 
L 210.06906 -365.04 
L 211.157628 -365.04 
L 212.246196 -365.04 
L 213.334764 -365.04 
L 214.423332 -365.04 
L 215.5119 -365.04 
L 216.600468 -365.04 
L 217.689036 -365.04 
L 218.777604 -365.04 
L 219.866172 -365.04 
L 220.954741 -365.04 
L 222.043309 -365.04 
L 223.131877 -365.04 
L 224.220445 -365.04 
L 225.309013 -153.637776 
L 226.397581 -216.994949 
L 227.486149 -202.761299 
L 228.574717 -62.64 
L 229.663285 -188.400971 
L 230.751853 -316.043666 
L 231.840421 -342.063726 
L 232.928989 -365.04 
L 234.017558 -365.04 
L 235.106126 -365.04 
L 236.194694 -365.04 
L 237.283262 -365.04 
L 238.37183 -365.04 
L 239.460398 -365.04 
L 240.548966 -365.04 
L 241.637534 -365.04 
L 242.726102 -365.04 
L 243.81467 -365.04 
L 244.903238 -365.04 
L 245.991806 -365.04 
L 247.080375 -365.04 
L 248.168943 -365.04 
L 249.257511 -365.04 
L 250.346079 -365.04 
L 251.434647 -365.04 
L 252.523215 -365.04 
L 253.611783 -365.04 
L 254.700351 -365.04 
L 255.788919 -365.04 
L 256.877487 -365.04 
L 257.966055 -365.04 
L 259.054623 -365.04 
L 260.143192 -365.04 
L 261.23176 -365.04 
L 262.320328 -365.04 
L 263.408896 -365.04 
L 264.497464 -365.04 
L 265.586032 -365.04 
L 266.6746 -365.04 
L 267.763168 -365.04 
L 268.851736 -365.04 
L 269.940304 -365.04 
L 271.028872 -365.04 
L 272.11744 -365.04 
L 273.206009 -365.04 
L 274.294577 -365.04 
L 275.383145 -365.04 
L 276.471713 -365.04 
L 277.560281 -365.04 
L 278.648849 -365.04 
L 279.737417 -365.04 
L 280.825985 -365.04 
L 281.914553 -365.04 
L 283.003121 -365.04 
L 284.091689 -365.04 
L 285.180258 -153.637776 
L 286.268826 -216.994949 
L 287.357394 -202.761299 
L 288.445962 -62.64 
L 289.53453 -188.400971 
L 290.623098 -316.043666 
L 291.711666 -342.063726 
L 292.800234 -365.04 
L 293.888802 -365.04 
L 294.97737 -365.04 
L 296.065938 -365.04 
L 297.154506 -365.04 
L 298.243075 -365.04 
L 299.331643 -365.04 
L 300.420211 -365.04 
L 301.508779 -365.04 
L 302.597347 -365.04 
L 303.685915 -365.04 
L 304.774483 -365.04 
L 305.863051 -365.04 
L 306.951619 -365.04 
L 308.040187 -365.04 
L 309.128755 -365.04 
L 310.217323 -365.04 
L 311.305892 -365.04 
L 312.39446 -365.04 
L 313.483028 -365.04 
L 314.571596 -365.04 
L 315.660164 -365.04 
L 316.748732 -153.637776 
L 317.8373 -216.994949 
L 318.925868 -202.761299 
L 320.014436 -62.64 
L 321.103004 -188.400971 
L 322.191572 -316.043666 
L 323.28014 -342.063726 
L 324.368709 -365.04 
L 325.457277 -365.04 
L 326.545845 -365.04 
L 327.634413 -365.04 
L 328.722981 -365.04 
L 329.811549 -365.04 
L 330.900117 -365.04 
L 331.988685 -365.04 
L 333.077253 -365.04 
L 334.165821 -365.04 
L 335.254389 -365.04 
L 336.342957 -365.04 
L 337.431526 -365.04 
L 338.520094 -365.04 
L 339.608662 -365.04 
L 340.69723 -365.04 
L 341.785798 -365.04 
L 342.874366 -365.04 
L 343.962934 -365.04 
L 345.051502 -365.04 
L 346.14007 -365.04 
L 347.228638 -365.04 
L 348.317206 -365.04 
L 349.405774 -365.04 
L 350.494343 -365.04 
L 351.582911 -365.04 
L 352.671479 -365.04 
L 353.760047 -365.04 
L 354.848615 -365.04 
L 355.937183 -365.04 
L 357.025751 -365.04 
L 358.114319 -365.04 
L 359.202887 -365.04 
L 360.291455 -365.04 
L 361.380023 -365.04 
L 362.468591 -365.04 
L 363.55716 -365.04 
L 364.645728 -365.04 
L 365.734296 -365.04 
L 366.822864 -365.04 
L 367.911432 -365.04 
L 369 -365.04 
L 370.088568 -365.04 
L 371.177136 -365.04 
L 372.265704 -365.04 
L 373.354272 -365.04 
L 374.44284 -365.04 
L 375.531409 -365.04 
L 376.619977 -365.04 
L 377.708545 -365.04 
L 378.797113 -365.04 
L 379.885681 -365.04 
L 380.974249 -365.04 
L 382.062817 -365.04 
L 383.151385 -365.04 
L 384.239953 -365.04 
L 385.328521 -365.04 
L 386.417089 -365.04 
L 387.505657 -365.04 
L 388.594226 -365.04 
L 389.682794 -365.04 
L 390.771362 -365.04 
L 391.85993 -365.04 
L 392.948498 -365.04 
L 394.037066 -365.04 
L 395.125634 -365.04 
L 396.214202 -365.04 
L 397.30277 -365.04 
L 398.391338 -365.04 
L 399.479906 -365.04 
L 400.568474 -365.04 
L 401.657043 -365.04 
L 402.745611 -365.04 
L 403.834179 -365.04 
L 404.922747 -365.04 
L 406.011315 -365.04 
L 407.099883 -365.04 
L 408.188451 -365.04 
L 409.277019 -365.04 
L 410.365587 -365.04 
L 411.454155 -365.04 
L 412.542723 -365.04 
L 413.631291 -365.04 
L 414.71986 -365.04 
L 415.808428 -365.04 
L 416.896996 -365.04 
L 417.985564 -365.04 
L 419.074132 -365.04 
L 420.1627 -365.04 
L 421.251268 -365.04 
L 422.339836 -365.04 
L 423.428404 -365.04 
L 424.516972 -365.04 
L 425.60554 -365.04 
L 426.694108 -365.04 
L 427.782677 -365.04 
L 428.871245 -365.04 
L 429.959813 -365.04 
L 431.048381 -365.04 
L 432.136949 -365.04 
L 433.225517 -365.04 
L 434.314085 -365.04 
L 435.402653 -365.04 
L 436.491221 -365.04 
L 437.579789 -365.04 
L 438.668357 -365.04 
L 439.756925 -365.04 
L 440.845494 -365.04 
L 441.934062 -365.04 
L 443.02263 -365.04 
L 444.111198 -365.04 
L 445.199766 -365.04 
L 446.288334 -365.04 
L 447.376902 -365.04 
L 448.46547 -365.04 
L 449.554038 -365.04 
L 450.642606 -365.04 
L 451.731174 -365.04 
L 452.819742 -365.04 
L 453.908311 -365.04 
L 454.996879 -365.04 
L 456.085447 -365.04 
L 457.174015 -365.04 
L 458.262583 -365.04 
L 459.351151 -365.04 
L 460.439719 -365.04 
L 461.528287 -365.04 
L 462.616855 -365.04 
L 463.705423 -365.04 
L 464.793991 -365.04 
L 465.88256 -365.04 
L 466.971128 -365.04 
L 468.059696 -365.04 
L 469.148264 -365.04 
L 470.236832 -365.04 
L 471.3254 -365.04 
L 472.413968 -365.04 
L 473.502536 -365.04 
L 474.591104 -365.04 
L 475.679672 -365.04 
L 476.76824 -365.04 
L 477.856808 -365.04 
L 478.945377 -365.04 
L 480.033945 -365.04 
L 481.122513 -365.04 
L 482.211081 -365.04 
L 483.299649 -365.04 
L 484.388217 -365.04 
L 485.476785 -365.04 
L 486.565353 -365.04 
L 487.653921 -365.04 
L 488.742489 -365.04 
L 489.831057 -365.04 
L 490.919625 -365.04 
L 492.008194 -365.04 
L 493.096762 -365.04 
L 494.18533 -365.04 
L 495.273898 -365.04 
L 496.362466 -365.04 
L 497.451034 -365.04 
L 498.539602 -365.04 
L 499.62817 -365.04 
L 500.716738 -365.04 
L 501.805306 -365.04 
L 502.893874 -365.04 
L 503.982442 -365.04 
L 505.071011 -365.04 
L 506.159579 -365.04 
L 507.248147 -365.04 
L 508.336715 -365.04 
L 509.425283 -365.04 
L 510.513851 -365.04 
L 511.602419 -365.04 
L 512.690987 -365.04 
L 513.779555 -365.04 
L 514.868123 -365.04 
L 515.956691 -365.04 
L 517.045259 -365.04 
L 518.133828 -365.04 
L 519.222396 -365.04 
L 520.310964 -365.04 
L 521.399532 -365.04 
L 522.4881 -365.04 
L 523.576668 -365.04 
L 524.665236 -365.04 
L 525.753804 -365.04 
L 526.842372 -365.04 
L 527.93094 -365.04 
L 529.019508 -365.04 
L 530.108076 -365.04 
L 531.196645 -365.04 
L 532.285213 -365.04 
L 533.373781 -365.04 
L 534.462349 -365.04 
L 535.550917 -365.04 
L 536.639485 -365.04 
L 537.728053 -365.04 
L 538.816621 -365.04 
L 539.905189 -365.04 
L 540.993757 -365.04 
L 542.082325 -365.04 
L 543.170893 -365.04 
L 544.259462 -365.04 
L 545.34803 -365.04 
L 546.436598 -365.04 
L 547.525166 -365.04 
L 548.613734 -365.04 
L 549.702302 -365.04 
L 550.79087 -365.04 
L 551.879438 -365.04 
L 552.968006 -365.04 
L 554.056574 -365.04 
L 555.145142 -365.04 
L 556.23371 -365.04 
L 557.322279 -365.04 
L 558.410847 -365.04 
L 559.499415 -365.04 
L 560.587983 -365.04 
L 561.676551 -365.04 
L 562.765119 -365.04 
L 563.853687 -365.04 
L 564.942255 -365.04 
L 566.030823 -365.04 
L 567.119391 -365.04 
L 568.207959 -365.04 
L 569.296528 -365.04 
L 570.385096 -365.04 
L 571.473664 -365.04 
L 572.562232 -365.04 
L 573.6508 -365.04 
L 574.739368 -365.04 
L 575.827936 -365.04 
L 576.916504 -365.04 
L 578.005072 -365.04 
L 579.09364 -365.04 
L 580.182208 -365.04 
L 581.270776 -365.04 
L 582.359345 -365.04 
L 583.447913 -365.04 
L 584.536481 -365.04 
L 585.625049 -365.04 
L 586.713617 -365.04 
L 587.802185 -365.04 
L 588.890753 -365.04 
L 589.979321 -365.04 
L 591.067889 -365.04 
L 592.156457 -365.04 
L 593.245025 -365.04 
L 594.333593 -365.04 
L 595.422162 -365.04 
L 596.51073 -365.04 
L 597.599298 -365.04 
L 598.687866 -365.04 
L 599.776434 -365.04 
L 600.865002 -365.04 
L 601.95357 -365.04 
L 603.042138 -365.04 
L 604.130706 -365.04 
L 605.219274 -365.04 
L 606.307842 -365.04 
L 607.39641 -365.04 
L 608.484979 -365.04 
L 609.573547 -365.04 
L 610.662115 -365.04 
L 611.750683 -365.04 
L 612.839251 -365.04 
L 613.927819 -365.04 
L 615.016387 -365.04 
L 616.104955 -365.04 
L 617.193523 -365.04 
L 618.282091 -365.04 
L 619.370659 -365.04 
L 620.459227 -365.04 
L 621.547796 -365.04 
L 622.636364 -365.04 
L 622.636364 -365.04 
L 622.636364 -365.04 
L 621.547796 -365.04 
L 620.459227 -365.04 
L 619.370659 -365.04 
L 618.282091 -365.04 
L 617.193523 -365.04 
L 616.104955 -365.04 
L 615.016387 -365.04 
L 613.927819 -365.04 
L 612.839251 -365.04 
L 611.750683 -365.04 
L 610.662115 -365.04 
L 609.573547 -365.04 
L 608.484979 -365.04 
L 607.39641 -365.04 
L 606.307842 -365.04 
L 605.219274 -365.04 
L 604.130706 -365.04 
L 603.042138 -365.04 
L 601.95357 -365.04 
L 600.865002 -365.04 
L 599.776434 -365.04 
L 598.687866 -365.04 
L 597.599298 -365.04 
L 596.51073 -365.04 
L 595.422162 -365.04 
L 594.333593 -365.04 
L 593.245025 -365.04 
L 592.156457 -365.04 
L 591.067889 -365.04 
L 589.979321 -365.04 
L 588.890753 -365.04 
L 587.802185 -365.04 
L 586.713617 -365.04 
L 585.625049 -365.04 
L 584.536481 -365.04 
L 583.447913 -365.04 
L 582.359345 -365.04 
L 581.270776 -365.04 
L 580.182208 -365.04 
L 579.09364 -365.04 
L 578.005072 -365.04 
L 576.916504 -365.04 
L 575.827936 -365.04 
L 574.739368 -365.04 
L 573.6508 -365.04 
L 572.562232 -365.04 
L 571.473664 -365.04 
L 570.385096 -365.04 
L 569.296528 -365.04 
L 568.207959 -365.04 
L 567.119391 -365.04 
L 566.030823 -365.04 
L 564.942255 -365.04 
L 563.853687 -365.04 
L 562.765119 -365.04 
L 561.676551 -365.04 
L 560.587983 -365.04 
L 559.499415 -365.04 
L 558.410847 -365.04 
L 557.322279 -365.04 
L 556.23371 -365.04 
L 555.145142 -365.04 
L 554.056574 -365.04 
L 552.968006 -365.04 
L 551.879438 -365.04 
L 550.79087 -365.04 
L 549.702302 -365.04 
L 548.613734 -365.04 
L 547.525166 -365.04 
L 546.436598 -365.04 
L 545.34803 -365.04 
L 544.259462 -365.04 
L 543.170893 -365.04 
L 542.082325 -365.04 
L 540.993757 -365.04 
L 539.905189 -365.04 
L 538.816621 -365.04 
L 537.728053 -365.04 
L 536.639485 -365.04 
L 535.550917 -365.04 
L 534.462349 -365.04 
L 533.373781 -365.04 
L 532.285213 -365.04 
L 531.196645 -365.04 
L 530.108076 -365.04 
L 529.019508 -365.04 
L 527.93094 -365.04 
L 526.842372 -365.04 
L 525.753804 -365.04 
L 524.665236 -365.04 
L 523.576668 -365.04 
L 522.4881 -365.04 
L 521.399532 -365.04 
L 520.310964 -365.04 
L 519.222396 -365.04 
L 518.133828 -365.04 
L 517.045259 -365.04 
L 515.956691 -365.04 
L 514.868123 -365.04 
L 513.779555 -365.04 
L 512.690987 -365.04 
L 511.602419 -365.04 
L 510.513851 -365.04 
L 509.425283 -365.04 
L 508.336715 -365.04 
L 507.248147 -365.04 
L 506.159579 -365.04 
L 505.071011 -365.04 
L 503.982442 -365.04 
L 502.893874 -365.04 
L 501.805306 -365.04 
L 500.716738 -365.04 
L 499.62817 -365.04 
L 498.539602 -365.04 
L 497.451034 -365.04 
L 496.362466 -365.04 
L 495.273898 -365.04 
L 494.18533 -365.04 
L 493.096762 -365.04 
L 492.008194 -365.04 
L 490.919625 -365.04 
L 489.831057 -365.04 
L 488.742489 -365.04 
L 487.653921 -365.04 
L 486.565353 -365.04 
L 485.476785 -365.04 
L 484.388217 -365.04 
L 483.299649 -365.04 
L 482.211081 -365.04 
L 481.122513 -365.04 
L 480.033945 -365.04 
L 478.945377 -365.04 
L 477.856808 -365.04 
L 476.76824 -365.04 
L 475.679672 -365.04 
L 474.591104 -365.04 
L 473.502536 -365.04 
L 472.413968 -365.04 
L 471.3254 -365.04 
L 470.236832 -365.04 
L 469.148264 -365.04 
L 468.059696 -365.04 
L 466.971128 -365.04 
L 465.88256 -365.04 
L 464.793991 -365.04 
L 463.705423 -365.04 
L 462.616855 -365.04 
L 461.528287 -365.04 
L 460.439719 -365.04 
L 459.351151 -365.04 
L 458.262583 -365.04 
L 457.174015 -365.04 
L 456.085447 -365.04 
L 454.996879 -365.04 
L 453.908311 -365.04 
L 452.819742 -365.04 
L 451.731174 -365.04 
L 450.642606 -365.04 
L 449.554038 -365.04 
L 448.46547 -365.04 
L 447.376902 -365.04 
L 446.288334 -365.04 
L 445.199766 -365.04 
L 444.111198 -365.04 
L 443.02263 -365.04 
L 441.934062 -365.04 
L 440.845494 -365.04 
L 439.756925 -365.04 
L 438.668357 -365.04 
L 437.579789 -365.04 
L 436.491221 -365.04 
L 435.402653 -365.04 
L 434.314085 -365.04 
L 433.225517 -365.04 
L 432.136949 -365.04 
L 431.048381 -365.04 
L 429.959813 -365.04 
L 428.871245 -365.04 
L 427.782677 -365.04 
L 426.694108 -365.04 
L 425.60554 -365.04 
L 424.516972 -365.04 
L 423.428404 -365.04 
L 422.339836 -365.04 
L 421.251268 -365.04 
L 420.1627 -365.04 
L 419.074132 -365.04 
L 417.985564 -365.04 
L 416.896996 -365.04 
L 415.808428 -365.04 
L 414.71986 -365.04 
L 413.631291 -365.04 
L 412.542723 -365.04 
L 411.454155 -365.04 
L 410.365587 -365.04 
L 409.277019 -365.04 
L 408.188451 -365.04 
L 407.099883 -365.04 
L 406.011315 -365.04 
L 404.922747 -365.04 
L 403.834179 -365.04 
L 402.745611 -365.04 
L 401.657043 -365.04 
L 400.568474 -365.04 
L 399.479906 -365.04 
L 398.391338 -365.04 
L 397.30277 -365.04 
L 396.214202 -365.04 
L 395.125634 -365.04 
L 394.037066 -365.04 
L 392.948498 -365.04 
L 391.85993 -365.04 
L 390.771362 -365.04 
L 389.682794 -365.04 
L 388.594226 -365.04 
L 387.505657 -365.04 
L 386.417089 -365.04 
L 385.328521 -365.04 
L 384.239953 -365.04 
L 383.151385 -365.04 
L 382.062817 -365.04 
L 380.974249 -365.04 
L 379.885681 -365.04 
L 378.797113 -365.04 
L 377.708545 -365.04 
L 376.619977 -365.04 
L 375.531409 -365.04 
L 374.44284 -365.04 
L 373.354272 -365.04 
L 372.265704 -365.04 
L 371.177136 -365.04 
L 370.088568 -365.04 
L 369 -365.04 
L 367.911432 -365.04 
L 366.822864 -365.04 
L 365.734296 -365.04 
L 364.645728 -365.04 
L 363.55716 -365.04 
L 362.468591 -365.04 
L 361.380023 -365.04 
L 360.291455 -365.04 
L 359.202887 -365.04 
L 358.114319 -365.04 
L 357.025751 -365.04 
L 355.937183 -365.04 
L 354.848615 -365.04 
L 353.760047 -365.04 
L 352.671479 -365.04 
L 351.582911 -365.04 
L 350.494343 -365.04 
L 349.405774 -365.04 
L 348.317206 -365.04 
L 347.228638 -365.04 
L 346.14007 -365.04 
L 345.051502 -365.04 
L 343.962934 -365.04 
L 342.874366 -365.04 
L 341.785798 -365.04 
L 340.69723 -365.04 
L 339.608662 -365.04 
L 338.520094 -365.04 
L 337.431526 -365.04 
L 336.342957 -365.04 
L 335.254389 -365.04 
L 334.165821 -365.04 
L 333.077253 -365.04 
L 331.988685 -365.04 
L 330.900117 -365.04 
L 329.811549 -365.04 
L 328.722981 -365.04 
L 327.634413 -365.04 
L 326.545845 -365.04 
L 325.457277 -365.04 
L 324.368709 -365.04 
L 323.28014 -342.063726 
L 322.191572 -316.043666 
L 321.103004 -188.400971 
L 320.014436 -62.64 
L 318.925868 -202.761299 
L 317.8373 -216.994949 
L 316.748732 -153.637776 
L 315.660164 -365.04 
L 314.571596 -365.04 
L 313.483028 -365.04 
L 312.39446 -365.04 
L 311.305892 -365.04 
L 310.217323 -365.04 
L 309.128755 -365.04 
L 308.040187 -365.04 
L 306.951619 -365.04 
L 305.863051 -365.04 
L 304.774483 -365.04 
L 303.685915 -365.04 
L 302.597347 -365.04 
L 301.508779 -365.04 
L 300.420211 -365.04 
L 299.331643 -365.04 
L 298.243075 -365.04 
L 297.154506 -365.04 
L 296.065938 -365.04 
L 294.97737 -365.04 
L 293.888802 -365.04 
L 292.800234 -365.04 
L 291.711666 -342.063726 
L 290.623098 -316.043666 
L 289.53453 -188.400971 
L 288.445962 -62.64 
L 287.357394 -202.761299 
L 286.268826 -216.994949 
L 285.180258 -153.637776 
L 284.091689 -365.04 
L 283.003121 -365.04 
L 281.914553 -365.04 
L 280.825985 -365.04 
L 279.737417 -365.04 
L 278.648849 -365.04 
L 277.560281 -365.04 
L 276.471713 -365.04 
L 275.383145 -365.04 
L 274.294577 -365.04 
L 273.206009 -365.04 
L 272.11744 -365.04 
L 271.028872 -365.04 
L 269.940304 -365.04 
L 268.851736 -365.04 
L 267.763168 -365.04 
L 266.6746 -365.04 
L 265.586032 -365.04 
L 264.497464 -365.04 
L 263.408896 -365.04 
L 262.320328 -365.04 
L 261.23176 -365.04 
L 260.143192 -365.04 
L 259.054623 -365.04 
L 257.966055 -365.04 
L 256.877487 -365.04 
L 255.788919 -365.04 
L 254.700351 -365.04 
L 253.611783 -365.04 
L 252.523215 -365.04 
L 251.434647 -365.04 
L 250.346079 -365.04 
L 249.257511 -365.04 
L 248.168943 -365.04 
L 247.080375 -365.04 
L 245.991806 -365.04 
L 244.903238 -365.04 
L 243.81467 -365.04 
L 242.726102 -365.04 
L 241.637534 -365.04 
L 240.548966 -365.04 
L 239.460398 -365.04 
L 238.37183 -365.04 
L 237.283262 -365.04 
L 236.194694 -365.04 
L 235.106126 -365.04 
L 234.017558 -365.04 
L 232.928989 -365.04 
L 231.840421 -342.063726 
L 230.751853 -316.043666 
L 229.663285 -188.400971 
L 228.574717 -62.64 
L 227.486149 -202.761299 
L 226.397581 -216.994949 
L 225.309013 -153.637776 
L 224.220445 -365.04 
L 223.131877 -365.04 
L 222.043309 -365.04 
L 220.954741 -365.04 
L 219.866172 -365.04 
L 218.777604 -365.04 
L 217.689036 -365.04 
L 216.600468 -365.04 
L 215.5119 -365.04 
L 214.423332 -365.04 
L 213.334764 -365.04 
L 212.246196 -365.04 
L 211.157628 -365.04 
L 210.06906 -365.04 
L 208.980492 -365.04 
L 207.891924 -365.04 
L 206.803355 -365.04 
L 205.714787 -365.04 
L 204.626219 -365.04 
L 203.537651 -365.04 
L 202.449083 -365.04 
L 201.360515 -365.04 
L 200.271947 -365.04 
L 199.183379 -365.04 
L 198.094811 -365.04 
L 197.006243 -365.04 
L 195.917675 -365.04 
L 194.829107 -365.04 
L 193.740538 -365.04 
L 192.65197 -365.04 
L 191.563402 -365.04 
L 190.474834 -365.04 
L 189.386266 -365.04 
L 188.297698 -365.04 
L 187.20913 -365.04 
L 186.120562 -365.04 
L 185.031994 -365.04 
L 183.943426 -365.04 
L 182.854858 -365.04 
L 181.76629 -365.04 
L 180.677721 -365.04 
L 179.589153 -365.04 
L 178.500585 -365.04 
L 177.412017 -365.04 
L 176.323449 -365.04 
L 175.234881 -365.04 
L 174.146313 -365.04 
L 173.057745 -365.04 
L 171.969177 -365.04 
L 170.880609 -365.04 
L 169.792041 -365.04 
L 168.703472 -365.04 
L 167.614904 -365.04 
L 166.526336 -365.04 
L 165.437768 -365.04 
L 164.3492 -365.04 
L 163.260632 -365.04 
L 162.172064 -365.04 
L 161.083496 -365.04 
L 159.994928 -365.04 
L 158.90636 -365.04 
L 157.817792 -365.04 
L 156.729224 -365.04 
L 155.640655 -365.04 
L 154.552087 -365.04 
L 153.463519 -365.04 
L 152.374951 -365.04 
L 151.286383 -365.04 
L 150.197815 -365.04 
L 149.109247 -365.04 
L 148.020679 -365.04 
L 146.932111 -365.04 
L 145.843543 -365.04 
L 144.754975 -365.04 
L 143.666407 -365.04 
L 142.577838 -365.04 
L 141.48927 -365.04 
L 140.400702 -365.04 
L 139.312134 -365.04 
L 138.223566 -365.04 
L 137.134998 -365.04 
L 136.04643 -365.04 
L 134.957862 -365.04 
L 133.869294 -365.04 
L 132.780726 -365.04 
L 131.692158 -365.04 
L 130.60359 -365.04 
L 129.515021 -365.04 
L 128.426453 -365.04 
L 127.337885 -365.04 
L 126.249317 -365.04 
L 125.160749 -365.04 
L 124.072181 -365.04 
L 122.983613 -365.04 
L 121.895045 -365.04 
L 120.806477 -365.04 
L 119.717909 -365.04 
L 118.629341 -365.04 
L 117.540773 -365.04 
L 116.452204 -365.04 
L 115.363636 -365.04 
z
" id="m1134bfefe5" style="stroke:#0072b2;stroke-opacity:0.2;"/>
    </defs>
    <g clip-path="url(#p62a92bc6ae)">
     <use style="fill:#0072b2;fill-opacity:0.2;stroke:#0072b2;stroke-opacity:0.2;" x="0" xlink:href="#m1134bfefe5" y="432"/>
    </g>
   </g>
   <g id="matplotlib.axis_1">
    <g id="xtick_1">
     <g id="line2d_1">
      <path clip-path="url(#p62a92bc6ae)" d="M 100.123683 384.48 
L 100.123683 51.84 
" style="fill:none;stroke:#808080;stroke-linecap:square;stroke-opacity:0.2;"/>
     </g>
     <g id="line2d_2">
      <defs>
       <path d="M 0 0 
L 0 3.5 
" id="m6755271c05" style="stroke:#000000;stroke-width:0.8;"/>
      </defs>
      <g>
       <use style="stroke:#000000;stroke-width:0.8;" x="100.123683" xlink:href="#m6755271c05" y="384.48"/>
      </g>
     </g>
     <g id="text_1">
      <!-- 2019-10 -->
      <g transform="translate(79.232277 399.078438)scale(0.1 -0.1)">
       <defs>
        <path d="M 19.1875 8.296875 
L 53.609375 8.296875 
L 53.609375 0 
L 7.328125 0 
L 7.328125 8.296875 
Q 12.9375 14.109375 22.625 23.890625 
Q 32.328125 33.6875 34.8125 36.53125 
Q 39.546875 41.84375 41.421875 45.53125 
Q 43.3125 49.21875 43.3125 52.78125 
Q 43.3125 58.59375 39.234375 62.25 
Q 35.15625 65.921875 28.609375 65.921875 
Q 23.96875 65.921875 18.8125 64.3125 
Q 13.671875 62.703125 7.8125 59.421875 
L 7.8125 69.390625 
Q 13.765625 71.78125 18.9375 73 
Q 24.125 74.21875 28.421875 74.21875 
Q 39.75 74.21875 46.484375 68.546875 
Q 53.21875 62.890625 53.21875 53.421875 
Q 53.21875 48.921875 51.53125 44.890625 
Q 49.859375 40.875 45.40625 35.40625 
Q 44.1875 33.984375 37.640625 27.21875 
Q 31.109375 20.453125 19.1875 8.296875 
z
" id="DejaVuSans-50"/>
        <path d="M 31.78125 66.40625 
Q 24.171875 66.40625 20.328125 58.90625 
Q 16.5 51.421875 16.5 36.375 
Q 16.5 21.390625 20.328125 13.890625 
Q 24.171875 6.390625 31.78125 6.390625 
Q 39.453125 6.390625 43.28125 13.890625 
Q 47.125 21.390625 47.125 36.375 
Q 47.125 51.421875 43.28125 58.90625 
Q 39.453125 66.40625 31.78125 66.40625 
z
M 31.78125 74.21875 
Q 44.046875 74.21875 50.515625 64.515625 
Q 56.984375 54.828125 56.984375 36.375 
Q 56.984375 17.96875 50.515625 8.265625 
Q 44.046875 -1.421875 31.78125 -1.421875 
Q 19.53125 -1.421875 13.0625 8.265625 
Q 6.59375 17.96875 6.59375 36.375 
Q 6.59375 54.828125 13.0625 64.515625 
Q 19.53125 74.21875 31.78125 74.21875 
z
" id="DejaVuSans-48"/>
        <path d="M 12.40625 8.296875 
L 28.515625 8.296875 
L 28.515625 63.921875 
L 10.984375 60.40625 
L 10.984375 69.390625 
L 28.421875 72.90625 
L 38.28125 72.90625 
L 38.28125 8.296875 
L 54.390625 8.296875 
L 54.390625 0 
L 12.40625 0 
z
" id="DejaVuSans-49"/>
        <path d="M 10.984375 1.515625 
L 10.984375 10.5 
Q 14.703125 8.734375 18.5 7.8125 
Q 22.3125 6.890625 25.984375 6.890625 
Q 35.75 6.890625 40.890625 13.453125 
Q 46.046875 20.015625 46.78125 33.40625 
Q 43.953125 29.203125 39.59375 26.953125 
Q 35.25 24.703125 29.984375 24.703125 
Q 19.046875 24.703125 12.671875 31.3125 
Q 6.296875 37.9375 6.296875 49.421875 
Q 6.296875 60.640625 12.9375 67.421875 
Q 19.578125 74.21875 30.609375 74.21875 
Q 43.265625 74.21875 49.921875 64.515625 
Q 56.59375 54.828125 56.59375 36.375 
Q 56.59375 19.140625 48.40625 8.859375 
Q 40.234375 -1.421875 26.421875 -1.421875 
Q 22.703125 -1.421875 18.890625 -0.6875 
Q 15.09375 0.046875 10.984375 1.515625 
z
M 30.609375 32.421875 
Q 37.25 32.421875 41.125 36.953125 
Q 45.015625 41.5 45.015625 49.421875 
Q 45.015625 57.28125 41.125 61.84375 
Q 37.25 66.40625 30.609375 66.40625 
Q 23.96875 66.40625 20.09375 61.84375 
Q 16.21875 57.28125 16.21875 49.421875 
Q 16.21875 41.5 20.09375 36.953125 
Q 23.96875 32.421875 30.609375 32.421875 
z
" id="DejaVuSans-57"/>
        <path d="M 4.890625 31.390625 
L 31.203125 31.390625 
L 31.203125 23.390625 
L 4.890625 23.390625 
z
" id="DejaVuSans-45"/>
       </defs>
       <use xlink:href="#DejaVuSans-50"/>
       <use x="63.623047" xlink:href="#DejaVuSans-48"/>
       <use x="127.246094" xlink:href="#DejaVuSans-49"/>
       <use x="190.869141" xlink:href="#DejaVuSans-57"/>
       <use x="254.492188" xlink:href="#DejaVuSans-45"/>
       <use x="290.576172" xlink:href="#DejaVuSans-49"/>
       <use x="354.199219" xlink:href="#DejaVuSans-48"/>
      </g>
     </g>
    </g>
    <g id="xtick_2">
     <g id="line2d_3">
      <path clip-path="url(#p62a92bc6ae)" d="M 166.526336 384.48 
L 166.526336 51.84 
" style="fill:none;stroke:#808080;stroke-linecap:square;stroke-opacity:0.2;"/>
     </g>
     <g id="line2d_4">
      <g>
       <use style="stroke:#000000;stroke-width:0.8;" x="166.526336" xlink:href="#m6755271c05" y="384.48"/>
      </g>
     </g>
     <g id="text_2">
      <!-- 2019-12 -->
      <g transform="translate(145.63493 399.078438)scale(0.1 -0.1)">
       <use xlink:href="#DejaVuSans-50"/>
       <use x="63.623047" xlink:href="#DejaVuSans-48"/>
       <use x="127.246094" xlink:href="#DejaVuSans-49"/>
       <use x="190.869141" xlink:href="#DejaVuSans-57"/>
       <use x="254.492188" xlink:href="#DejaVuSans-45"/>
       <use x="290.576172" xlink:href="#DejaVuSans-49"/>
       <use x="354.199219" xlink:href="#DejaVuSans-50"/>
      </g>
     </g>
    </g>
    <g id="xtick_3">
     <g id="line2d_5">
      <path clip-path="url(#p62a92bc6ae)" d="M 234.017558 384.48 
L 234.017558 51.84 
" style="fill:none;stroke:#808080;stroke-linecap:square;stroke-opacity:0.2;"/>
     </g>
     <g id="line2d_6">
      <g>
       <use style="stroke:#000000;stroke-width:0.8;" x="234.017558" xlink:href="#m6755271c05" y="384.48"/>
      </g>
     </g>
     <g id="text_3">
      <!-- 2020-02 -->
      <g transform="translate(213.126151 399.078438)scale(0.1 -0.1)">
       <use xlink:href="#DejaVuSans-50"/>
       <use x="63.623047" xlink:href="#DejaVuSans-48"/>
       <use x="127.246094" xlink:href="#DejaVuSans-50"/>
       <use x="190.869141" xlink:href="#DejaVuSans-48"/>
       <use x="254.492188" xlink:href="#DejaVuSans-45"/>
       <use x="290.576172" xlink:href="#DejaVuSans-48"/>
       <use x="354.199219" xlink:href="#DejaVuSans-50"/>
      </g>
     </g>
    </g>
    <g id="xtick_4">
     <g id="line2d_7">
      <path clip-path="url(#p62a92bc6ae)" d="M 299.331643 384.48 
L 299.331643 51.84 
" style="fill:none;stroke:#808080;stroke-linecap:square;stroke-opacity:0.2;"/>
     </g>
     <g id="line2d_8">
      <g>
       <use style="stroke:#000000;stroke-width:0.8;" x="299.331643" xlink:href="#m6755271c05" y="384.48"/>
      </g>
     </g>
     <g id="text_4">
      <!-- 2020-04 -->
      <g transform="translate(278.440236 399.078438)scale(0.1 -0.1)">
       <defs>
        <path d="M 37.796875 64.3125 
L 12.890625 25.390625 
L 37.796875 25.390625 
z
M 35.203125 72.90625 
L 47.609375 72.90625 
L 47.609375 25.390625 
L 58.015625 25.390625 
L 58.015625 17.1875 
L 47.609375 17.1875 
L 47.609375 0 
L 37.796875 0 
L 37.796875 17.1875 
L 4.890625 17.1875 
L 4.890625 26.703125 
z
" id="DejaVuSans-52"/>
       </defs>
       <use xlink:href="#DejaVuSans-50"/>
       <use x="63.623047" xlink:href="#DejaVuSans-48"/>
       <use x="127.246094" xlink:href="#DejaVuSans-50"/>
       <use x="190.869141" xlink:href="#DejaVuSans-48"/>
       <use x="254.492188" xlink:href="#DejaVuSans-45"/>
       <use x="290.576172" xlink:href="#DejaVuSans-48"/>
       <use x="354.199219" xlink:href="#DejaVuSans-52"/>
      </g>
     </g>
    </g>
    <g id="xtick_5">
     <g id="line2d_9">
      <path clip-path="url(#p62a92bc6ae)" d="M 365.734296 384.48 
L 365.734296 51.84 
" style="fill:none;stroke:#808080;stroke-linecap:square;stroke-opacity:0.2;"/>
     </g>
     <g id="line2d_10">
      <g>
       <use style="stroke:#000000;stroke-width:0.8;" x="365.734296" xlink:href="#m6755271c05" y="384.48"/>
      </g>
     </g>
     <g id="text_5">
      <!-- 2020-06 -->
      <g transform="translate(344.842889 399.078438)scale(0.1 -0.1)">
       <defs>
        <path d="M 33.015625 40.375 
Q 26.375 40.375 22.484375 35.828125 
Q 18.609375 31.296875 18.609375 23.390625 
Q 18.609375 15.53125 22.484375 10.953125 
Q 26.375 6.390625 33.015625 6.390625 
Q 39.65625 6.390625 43.53125 10.953125 
Q 47.40625 15.53125 47.40625 23.390625 
Q 47.40625 31.296875 43.53125 35.828125 
Q 39.65625 40.375 33.015625 40.375 
z
M 52.59375 71.296875 
L 52.59375 62.3125 
Q 48.875 64.0625 45.09375 64.984375 
Q 41.3125 65.921875 37.59375 65.921875 
Q 27.828125 65.921875 22.671875 59.328125 
Q 17.53125 52.734375 16.796875 39.40625 
Q 19.671875 43.65625 24.015625 45.921875 
Q 28.375 48.1875 33.59375 48.1875 
Q 44.578125 48.1875 50.953125 41.515625 
Q 57.328125 34.859375 57.328125 23.390625 
Q 57.328125 12.15625 50.6875 5.359375 
Q 44.046875 -1.421875 33.015625 -1.421875 
Q 20.359375 -1.421875 13.671875 8.265625 
Q 6.984375 17.96875 6.984375 36.375 
Q 6.984375 53.65625 15.1875 63.9375 
Q 23.390625 74.21875 37.203125 74.21875 
Q 40.921875 74.21875 44.703125 73.484375 
Q 48.484375 72.75 52.59375 71.296875 
z
" id="DejaVuSans-54"/>
       </defs>
       <use xlink:href="#DejaVuSans-50"/>
       <use x="63.623047" xlink:href="#DejaVuSans-48"/>
       <use x="127.246094" xlink:href="#DejaVuSans-50"/>
       <use x="190.869141" xlink:href="#DejaVuSans-48"/>
       <use x="254.492188" xlink:href="#DejaVuSans-45"/>
       <use x="290.576172" xlink:href="#DejaVuSans-48"/>
       <use x="354.199219" xlink:href="#DejaVuSans-54"/>
      </g>
     </g>
    </g>
    <g id="xtick_6">
     <g id="line2d_11">
      <path clip-path="url(#p62a92bc6ae)" d="M 432.136949 384.48 
L 432.136949 51.84 
" style="fill:none;stroke:#808080;stroke-linecap:square;stroke-opacity:0.2;"/>
     </g>
     <g id="line2d_12">
      <g>
       <use style="stroke:#000000;stroke-width:0.8;" x="432.136949" xlink:href="#m6755271c05" y="384.48"/>
      </g>
     </g>
     <g id="text_6">
      <!-- 2020-08 -->
      <g transform="translate(411.245543 399.078438)scale(0.1 -0.1)">
       <defs>
        <path d="M 31.78125 34.625 
Q 24.75 34.625 20.71875 30.859375 
Q 16.703125 27.09375 16.703125 20.515625 
Q 16.703125 13.921875 20.71875 10.15625 
Q 24.75 6.390625 31.78125 6.390625 
Q 38.8125 6.390625 42.859375 10.171875 
Q 46.921875 13.96875 46.921875 20.515625 
Q 46.921875 27.09375 42.890625 30.859375 
Q 38.875 34.625 31.78125 34.625 
z
M 21.921875 38.8125 
Q 15.578125 40.375 12.03125 44.71875 
Q 8.5 49.078125 8.5 55.328125 
Q 8.5 64.0625 14.71875 69.140625 
Q 20.953125 74.21875 31.78125 74.21875 
Q 42.671875 74.21875 48.875 69.140625 
Q 55.078125 64.0625 55.078125 55.328125 
Q 55.078125 49.078125 51.53125 44.71875 
Q 48 40.375 41.703125 38.8125 
Q 48.828125 37.15625 52.796875 32.3125 
Q 56.78125 27.484375 56.78125 20.515625 
Q 56.78125 9.90625 50.3125 4.234375 
Q 43.84375 -1.421875 31.78125 -1.421875 
Q 19.734375 -1.421875 13.25 4.234375 
Q 6.78125 9.90625 6.78125 20.515625 
Q 6.78125 27.484375 10.78125 32.3125 
Q 14.796875 37.15625 21.921875 38.8125 
z
M 18.3125 54.390625 
Q 18.3125 48.734375 21.84375 45.5625 
Q 25.390625 42.390625 31.78125 42.390625 
Q 38.140625 42.390625 41.71875 45.5625 
Q 45.3125 48.734375 45.3125 54.390625 
Q 45.3125 60.0625 41.71875 63.234375 
Q 38.140625 66.40625 31.78125 66.40625 
Q 25.390625 66.40625 21.84375 63.234375 
Q 18.3125 60.0625 18.3125 54.390625 
z
" id="DejaVuSans-56"/>
       </defs>
       <use xlink:href="#DejaVuSans-50"/>
       <use x="63.623047" xlink:href="#DejaVuSans-48"/>
       <use x="127.246094" xlink:href="#DejaVuSans-50"/>
       <use x="190.869141" xlink:href="#DejaVuSans-48"/>
       <use x="254.492188" xlink:href="#DejaVuSans-45"/>
       <use x="290.576172" xlink:href="#DejaVuSans-48"/>
       <use x="354.199219" xlink:href="#DejaVuSans-56"/>
      </g>
     </g>
    </g>
    <g id="xtick_7">
     <g id="line2d_13">
      <path clip-path="url(#p62a92bc6ae)" d="M 498.539602 384.48 
L 498.539602 51.84 
" style="fill:none;stroke:#808080;stroke-linecap:square;stroke-opacity:0.2;"/>
     </g>
     <g id="line2d_14">
      <g>
       <use style="stroke:#000000;stroke-width:0.8;" x="498.539602" xlink:href="#m6755271c05" y="384.48"/>
      </g>
     </g>
     <g id="text_7">
      <!-- 2020-10 -->
      <g transform="translate(477.648196 399.078438)scale(0.1 -0.1)">
       <use xlink:href="#DejaVuSans-50"/>
       <use x="63.623047" xlink:href="#DejaVuSans-48"/>
       <use x="127.246094" xlink:href="#DejaVuSans-50"/>
       <use x="190.869141" xlink:href="#DejaVuSans-48"/>
       <use x="254.492188" xlink:href="#DejaVuSans-45"/>
       <use x="290.576172" xlink:href="#DejaVuSans-49"/>
       <use x="354.199219" xlink:href="#DejaVuSans-48"/>
      </g>
     </g>
    </g>
    <g id="xtick_8">
     <g id="line2d_15">
      <path clip-path="url(#p62a92bc6ae)" d="M 564.942255 384.48 
L 564.942255 51.84 
" style="fill:none;stroke:#808080;stroke-linecap:square;stroke-opacity:0.2;"/>
     </g>
     <g id="line2d_16">
      <g>
       <use style="stroke:#000000;stroke-width:0.8;" x="564.942255" xlink:href="#m6755271c05" y="384.48"/>
      </g>
     </g>
     <g id="text_8">
      <!-- 2020-12 -->
      <g transform="translate(544.050849 399.078438)scale(0.1 -0.1)">
       <use xlink:href="#DejaVuSans-50"/>
       <use x="63.623047" xlink:href="#DejaVuSans-48"/>
       <use x="127.246094" xlink:href="#DejaVuSans-50"/>
       <use x="190.869141" xlink:href="#DejaVuSans-48"/>
       <use x="254.492188" xlink:href="#DejaVuSans-45"/>
       <use x="290.576172" xlink:href="#DejaVuSans-49"/>
       <use x="354.199219" xlink:href="#DejaVuSans-50"/>
      </g>
     </g>
    </g>
    <g id="xtick_9">
     <g id="line2d_17">
      <path clip-path="url(#p62a92bc6ae)" d="M 632.433476 384.48 
L 632.433476 51.84 
" style="fill:none;stroke:#808080;stroke-linecap:square;stroke-opacity:0.2;"/>
     </g>
     <g id="line2d_18">
      <g>
       <use style="stroke:#000000;stroke-width:0.8;" x="632.433476" xlink:href="#m6755271c05" y="384.48"/>
      </g>
     </g>
     <g id="text_9">
      <!-- 2021-02 -->
      <g transform="translate(611.54207 399.078438)scale(0.1 -0.1)">
       <use xlink:href="#DejaVuSans-50"/>
       <use x="63.623047" xlink:href="#DejaVuSans-48"/>
       <use x="127.246094" xlink:href="#DejaVuSans-50"/>
       <use x="190.869141" xlink:href="#DejaVuSans-49"/>
       <use x="254.492188" xlink:href="#DejaVuSans-45"/>
       <use x="290.576172" xlink:href="#DejaVuSans-48"/>
       <use x="354.199219" xlink:href="#DejaVuSans-50"/>
      </g>
     </g>
    </g>
    <g id="text_10">
     <!-- ds -->
     <g transform="translate(363.221094 412.756563)scale(0.1 -0.1)">
      <defs>
       <path d="M 45.40625 46.390625 
L 45.40625 75.984375 
L 54.390625 75.984375 
L 54.390625 0 
L 45.40625 0 
L 45.40625 8.203125 
Q 42.578125 3.328125 38.25 0.953125 
Q 33.9375 -1.421875 27.875 -1.421875 
Q 17.96875 -1.421875 11.734375 6.484375 
Q 5.515625 14.40625 5.515625 27.296875 
Q 5.515625 40.1875 11.734375 48.09375 
Q 17.96875 56 27.875 56 
Q 33.9375 56 38.25 53.625 
Q 42.578125 51.265625 45.40625 46.390625 
z
M 14.796875 27.296875 
Q 14.796875 17.390625 18.875 11.75 
Q 22.953125 6.109375 30.078125 6.109375 
Q 37.203125 6.109375 41.296875 11.75 
Q 45.40625 17.390625 45.40625 27.296875 
Q 45.40625 37.203125 41.296875 42.84375 
Q 37.203125 48.484375 30.078125 48.484375 
Q 22.953125 48.484375 18.875 42.84375 
Q 14.796875 37.203125 14.796875 27.296875 
z
" id="DejaVuSans-100"/>
       <path d="M 44.28125 53.078125 
L 44.28125 44.578125 
Q 40.484375 46.53125 36.375 47.5 
Q 32.28125 48.484375 27.875 48.484375 
Q 21.1875 48.484375 17.84375 46.4375 
Q 14.5 44.390625 14.5 40.28125 
Q 14.5 37.15625 16.890625 35.375 
Q 19.28125 33.59375 26.515625 31.984375 
L 29.59375 31.296875 
Q 39.15625 29.25 43.1875 25.515625 
Q 47.21875 21.78125 47.21875 15.09375 
Q 47.21875 7.46875 41.1875 3.015625 
Q 35.15625 -1.421875 24.609375 -1.421875 
Q 20.21875 -1.421875 15.453125 -0.5625 
Q 10.6875 0.296875 5.421875 2 
L 5.421875 11.28125 
Q 10.40625 8.6875 15.234375 7.390625 
Q 20.0625 6.109375 24.8125 6.109375 
Q 31.15625 6.109375 34.5625 8.28125 
Q 37.984375 10.453125 37.984375 14.40625 
Q 37.984375 18.0625 35.515625 20.015625 
Q 33.0625 21.96875 24.703125 23.78125 
L 21.578125 24.515625 
Q 13.234375 26.265625 9.515625 29.90625 
Q 5.8125 33.546875 5.8125 39.890625 
Q 5.8125 47.609375 11.28125 51.796875 
Q 16.75 56 26.8125 56 
Q 31.78125 56 36.171875 55.265625 
Q 40.578125 54.546875 44.28125 53.078125 
z
" id="DejaVuSans-115"/>
      </defs>
      <use xlink:href="#DejaVuSans-100"/>
      <use x="63.476562" xlink:href="#DejaVuSans-115"/>
     </g>
    </g>
   </g>
   <g id="matplotlib.axis_2">
    <g id="ytick_1">
     <g id="line2d_19">
      <path clip-path="url(#p62a92bc6ae)" d="M 90 372.18577 
L 648 372.18577 
" style="fill:none;stroke:#808080;stroke-linecap:square;stroke-opacity:0.2;"/>
     </g>
     <g id="line2d_20">
      <defs>
       <path d="M 0 0 
L -3.5 0 
" id="m02a95685b4" style="stroke:#000000;stroke-width:0.8;"/>
      </defs>
      <g>
       <use style="stroke:#000000;stroke-width:0.8;" x="90" xlink:href="#m02a95685b4" y="372.18577"/>
      </g>
     </g>
     <g id="text_11">
      <!-- −1.4 -->
      <g transform="translate(58.717187 375.984989)scale(0.1 -0.1)">
       <defs>
        <path d="M 10.59375 35.5 
L 73.1875 35.5 
L 73.1875 27.203125 
L 10.59375 27.203125 
z
" id="DejaVuSans-8722"/>
        <path d="M 10.6875 12.40625 
L 21 12.40625 
L 21 0 
L 10.6875 0 
z
" id="DejaVuSans-46"/>
       </defs>
       <use xlink:href="#DejaVuSans-8722"/>
       <use x="83.789062" xlink:href="#DejaVuSans-49"/>
       <use x="147.412109" xlink:href="#DejaVuSans-46"/>
       <use x="179.199219" xlink:href="#DejaVuSans-52"/>
      </g>
     </g>
    </g>
    <g id="ytick_2">
     <g id="line2d_21">
      <path clip-path="url(#p62a92bc6ae)" d="M 90 328.582088 
L 648 328.582088 
" style="fill:none;stroke:#808080;stroke-linecap:square;stroke-opacity:0.2;"/>
     </g>
     <g id="line2d_22">
      <g>
       <use style="stroke:#000000;stroke-width:0.8;" x="90" xlink:href="#m02a95685b4" y="328.582088"/>
      </g>
     </g>
     <g id="text_12">
      <!-- −1.2 -->
      <g transform="translate(58.717187 332.381307)scale(0.1 -0.1)">
       <use xlink:href="#DejaVuSans-8722"/>
       <use x="83.789062" xlink:href="#DejaVuSans-49"/>
       <use x="147.412109" xlink:href="#DejaVuSans-46"/>
       <use x="179.199219" xlink:href="#DejaVuSans-50"/>
      </g>
     </g>
    </g>
    <g id="ytick_3">
     <g id="line2d_23">
      <path clip-path="url(#p62a92bc6ae)" d="M 90 284.978407 
L 648 284.978407 
" style="fill:none;stroke:#808080;stroke-linecap:square;stroke-opacity:0.2;"/>
     </g>
     <g id="line2d_24">
      <g>
       <use style="stroke:#000000;stroke-width:0.8;" x="90" xlink:href="#m02a95685b4" y="284.978407"/>
      </g>
     </g>
     <g id="text_13">
      <!-- −1.0 -->
      <g transform="translate(58.717187 288.777626)scale(0.1 -0.1)">
       <use xlink:href="#DejaVuSans-8722"/>
       <use x="83.789062" xlink:href="#DejaVuSans-49"/>
       <use x="147.412109" xlink:href="#DejaVuSans-46"/>
       <use x="179.199219" xlink:href="#DejaVuSans-48"/>
      </g>
     </g>
    </g>
    <g id="ytick_4">
     <g id="line2d_25">
      <path clip-path="url(#p62a92bc6ae)" d="M 90 241.374726 
L 648 241.374726 
" style="fill:none;stroke:#808080;stroke-linecap:square;stroke-opacity:0.2;"/>
     </g>
     <g id="line2d_26">
      <g>
       <use style="stroke:#000000;stroke-width:0.8;" x="90" xlink:href="#m02a95685b4" y="241.374726"/>
      </g>
     </g>
     <g id="text_14">
      <!-- −0.8 -->
      <g transform="translate(58.717187 245.173944)scale(0.1 -0.1)">
       <use xlink:href="#DejaVuSans-8722"/>
       <use x="83.789062" xlink:href="#DejaVuSans-48"/>
       <use x="147.412109" xlink:href="#DejaVuSans-46"/>
       <use x="179.199219" xlink:href="#DejaVuSans-56"/>
      </g>
     </g>
    </g>
    <g id="ytick_5">
     <g id="line2d_27">
      <path clip-path="url(#p62a92bc6ae)" d="M 90 197.771044 
L 648 197.771044 
" style="fill:none;stroke:#808080;stroke-linecap:square;stroke-opacity:0.2;"/>
     </g>
     <g id="line2d_28">
      <g>
       <use style="stroke:#000000;stroke-width:0.8;" x="90" xlink:href="#m02a95685b4" y="197.771044"/>
      </g>
     </g>
     <g id="text_15">
      <!-- −0.6 -->
      <g transform="translate(58.717187 201.570263)scale(0.1 -0.1)">
       <use xlink:href="#DejaVuSans-8722"/>
       <use x="83.789062" xlink:href="#DejaVuSans-48"/>
       <use x="147.412109" xlink:href="#DejaVuSans-46"/>
       <use x="179.199219" xlink:href="#DejaVuSans-54"/>
      </g>
     </g>
    </g>
    <g id="ytick_6">
     <g id="line2d_29">
      <path clip-path="url(#p62a92bc6ae)" d="M 90 154.167363 
L 648 154.167363 
" style="fill:none;stroke:#808080;stroke-linecap:square;stroke-opacity:0.2;"/>
     </g>
     <g id="line2d_30">
      <g>
       <use style="stroke:#000000;stroke-width:0.8;" x="90" xlink:href="#m02a95685b4" y="154.167363"/>
      </g>
     </g>
     <g id="text_16">
      <!-- −0.4 -->
      <g transform="translate(58.717187 157.966582)scale(0.1 -0.1)">
       <use xlink:href="#DejaVuSans-8722"/>
       <use x="83.789062" xlink:href="#DejaVuSans-48"/>
       <use x="147.412109" xlink:href="#DejaVuSans-46"/>
       <use x="179.199219" xlink:href="#DejaVuSans-52"/>
      </g>
     </g>
    </g>
    <g id="ytick_7">
     <g id="line2d_31">
      <path clip-path="url(#p62a92bc6ae)" d="M 90 110.563681 
L 648 110.563681 
" style="fill:none;stroke:#808080;stroke-linecap:square;stroke-opacity:0.2;"/>
     </g>
     <g id="line2d_32">
      <g>
       <use style="stroke:#000000;stroke-width:0.8;" x="90" xlink:href="#m02a95685b4" y="110.563681"/>
      </g>
     </g>
     <g id="text_17">
      <!-- −0.2 -->
      <g transform="translate(58.717187 114.3629)scale(0.1 -0.1)">
       <use xlink:href="#DejaVuSans-8722"/>
       <use x="83.789062" xlink:href="#DejaVuSans-48"/>
       <use x="147.412109" xlink:href="#DejaVuSans-46"/>
       <use x="179.199219" xlink:href="#DejaVuSans-50"/>
      </g>
     </g>
    </g>
    <g id="ytick_8">
     <g id="line2d_33">
      <path clip-path="url(#p62a92bc6ae)" d="M 90 66.96 
L 648 66.96 
" style="fill:none;stroke:#808080;stroke-linecap:square;stroke-opacity:0.2;"/>
     </g>
     <g id="line2d_34">
      <g>
       <use style="stroke:#000000;stroke-width:0.8;" x="90" xlink:href="#m02a95685b4" y="66.96"/>
      </g>
     </g>
     <g id="text_18">
      <!-- 0.0 -->
      <g transform="translate(67.096875 70.759219)scale(0.1 -0.1)">
       <use xlink:href="#DejaVuSans-48"/>
       <use x="63.623047" xlink:href="#DejaVuSans-46"/>
       <use x="95.410156" xlink:href="#DejaVuSans-48"/>
      </g>
     </g>
    </g>
    <g id="text_19">
     <!-- corona_policy -->
     <g transform="translate(52.359375 252.424062)rotate(-90)scale(0.1 -0.1)">
      <defs>
       <path d="M 48.78125 52.59375 
L 48.78125 44.1875 
Q 44.96875 46.296875 41.140625 47.34375 
Q 37.3125 48.390625 33.40625 48.390625 
Q 24.65625 48.390625 19.8125 42.84375 
Q 14.984375 37.3125 14.984375 27.296875 
Q 14.984375 17.28125 19.8125 11.734375 
Q 24.65625 6.203125 33.40625 6.203125 
Q 37.3125 6.203125 41.140625 7.25 
Q 44.96875 8.296875 48.78125 10.40625 
L 48.78125 2.09375 
Q 45.015625 0.34375 40.984375 -0.53125 
Q 36.96875 -1.421875 32.421875 -1.421875 
Q 20.0625 -1.421875 12.78125 6.34375 
Q 5.515625 14.109375 5.515625 27.296875 
Q 5.515625 40.671875 12.859375 48.328125 
Q 20.21875 56 33.015625 56 
Q 37.15625 56 41.109375 55.140625 
Q 45.0625 54.296875 48.78125 52.59375 
z
" id="DejaVuSans-99"/>
       <path d="M 30.609375 48.390625 
Q 23.390625 48.390625 19.1875 42.75 
Q 14.984375 37.109375 14.984375 27.296875 
Q 14.984375 17.484375 19.15625 11.84375 
Q 23.34375 6.203125 30.609375 6.203125 
Q 37.796875 6.203125 41.984375 11.859375 
Q 46.1875 17.53125 46.1875 27.296875 
Q 46.1875 37.015625 41.984375 42.703125 
Q 37.796875 48.390625 30.609375 48.390625 
z
M 30.609375 56 
Q 42.328125 56 49.015625 48.375 
Q 55.71875 40.765625 55.71875 27.296875 
Q 55.71875 13.875 49.015625 6.21875 
Q 42.328125 -1.421875 30.609375 -1.421875 
Q 18.84375 -1.421875 12.171875 6.21875 
Q 5.515625 13.875 5.515625 27.296875 
Q 5.515625 40.765625 12.171875 48.375 
Q 18.84375 56 30.609375 56 
z
" id="DejaVuSans-111"/>
       <path d="M 41.109375 46.296875 
Q 39.59375 47.171875 37.8125 47.578125 
Q 36.03125 48 33.890625 48 
Q 26.265625 48 22.1875 43.046875 
Q 18.109375 38.09375 18.109375 28.8125 
L 18.109375 0 
L 9.078125 0 
L 9.078125 54.6875 
L 18.109375 54.6875 
L 18.109375 46.1875 
Q 20.953125 51.171875 25.484375 53.578125 
Q 30.03125 56 36.53125 56 
Q 37.453125 56 38.578125 55.875 
Q 39.703125 55.765625 41.0625 55.515625 
z
" id="DejaVuSans-114"/>
       <path d="M 54.890625 33.015625 
L 54.890625 0 
L 45.90625 0 
L 45.90625 32.71875 
Q 45.90625 40.484375 42.875 44.328125 
Q 39.84375 48.1875 33.796875 48.1875 
Q 26.515625 48.1875 22.3125 43.546875 
Q 18.109375 38.921875 18.109375 30.90625 
L 18.109375 0 
L 9.078125 0 
L 9.078125 54.6875 
L 18.109375 54.6875 
L 18.109375 46.1875 
Q 21.34375 51.125 25.703125 53.5625 
Q 30.078125 56 35.796875 56 
Q 45.21875 56 50.046875 50.171875 
Q 54.890625 44.34375 54.890625 33.015625 
z
" id="DejaVuSans-110"/>
       <path d="M 34.28125 27.484375 
Q 23.390625 27.484375 19.1875 25 
Q 14.984375 22.515625 14.984375 16.5 
Q 14.984375 11.71875 18.140625 8.90625 
Q 21.296875 6.109375 26.703125 6.109375 
Q 34.1875 6.109375 38.703125 11.40625 
Q 43.21875 16.703125 43.21875 25.484375 
L 43.21875 27.484375 
z
M 52.203125 31.203125 
L 52.203125 0 
L 43.21875 0 
L 43.21875 8.296875 
Q 40.140625 3.328125 35.546875 0.953125 
Q 30.953125 -1.421875 24.3125 -1.421875 
Q 15.921875 -1.421875 10.953125 3.296875 
Q 6 8.015625 6 15.921875 
Q 6 25.140625 12.171875 29.828125 
Q 18.359375 34.515625 30.609375 34.515625 
L 43.21875 34.515625 
L 43.21875 35.40625 
Q 43.21875 41.609375 39.140625 45 
Q 35.0625 48.390625 27.6875 48.390625 
Q 23 48.390625 18.546875 47.265625 
Q 14.109375 46.140625 10.015625 43.890625 
L 10.015625 52.203125 
Q 14.9375 54.109375 19.578125 55.046875 
Q 24.21875 56 28.609375 56 
Q 40.484375 56 46.34375 49.84375 
Q 52.203125 43.703125 52.203125 31.203125 
z
" id="DejaVuSans-97"/>
       <path d="M 50.984375 -16.609375 
L 50.984375 -23.578125 
L -0.984375 -23.578125 
L -0.984375 -16.609375 
z
" id="DejaVuSans-95"/>
       <path d="M 18.109375 8.203125 
L 18.109375 -20.796875 
L 9.078125 -20.796875 
L 9.078125 54.6875 
L 18.109375 54.6875 
L 18.109375 46.390625 
Q 20.953125 51.265625 25.265625 53.625 
Q 29.59375 56 35.59375 56 
Q 45.5625 56 51.78125 48.09375 
Q 58.015625 40.1875 58.015625 27.296875 
Q 58.015625 14.40625 51.78125 6.484375 
Q 45.5625 -1.421875 35.59375 -1.421875 
Q 29.59375 -1.421875 25.265625 0.953125 
Q 20.953125 3.328125 18.109375 8.203125 
z
M 48.6875 27.296875 
Q 48.6875 37.203125 44.609375 42.84375 
Q 40.53125 48.484375 33.40625 48.484375 
Q 26.265625 48.484375 22.1875 42.84375 
Q 18.109375 37.203125 18.109375 27.296875 
Q 18.109375 17.390625 22.1875 11.75 
Q 26.265625 6.109375 33.40625 6.109375 
Q 40.53125 6.109375 44.609375 11.75 
Q 48.6875 17.390625 48.6875 27.296875 
z
" id="DejaVuSans-112"/>
       <path d="M 9.421875 75.984375 
L 18.40625 75.984375 
L 18.40625 0 
L 9.421875 0 
z
" id="DejaVuSans-108"/>
       <path d="M 9.421875 54.6875 
L 18.40625 54.6875 
L 18.40625 0 
L 9.421875 0 
z
M 9.421875 75.984375 
L 18.40625 75.984375 
L 18.40625 64.59375 
L 9.421875 64.59375 
z
" id="DejaVuSans-105"/>
       <path d="M 32.171875 -5.078125 
Q 28.375 -14.84375 24.75 -17.8125 
Q 21.140625 -20.796875 15.09375 -20.796875 
L 7.90625 -20.796875 
L 7.90625 -13.28125 
L 13.1875 -13.28125 
Q 16.890625 -13.28125 18.9375 -11.515625 
Q 21 -9.765625 23.484375 -3.21875 
L 25.09375 0.875 
L 2.984375 54.6875 
L 12.5 54.6875 
L 29.59375 11.921875 
L 46.6875 54.6875 
L 56.203125 54.6875 
z
" id="DejaVuSans-121"/>
      </defs>
      <use xlink:href="#DejaVuSans-99"/>
      <use x="54.980469" xlink:href="#DejaVuSans-111"/>
      <use x="116.162109" xlink:href="#DejaVuSans-114"/>
      <use x="155.025391" xlink:href="#DejaVuSans-111"/>
      <use x="216.207031" xlink:href="#DejaVuSans-110"/>
      <use x="279.585938" xlink:href="#DejaVuSans-97"/>
      <use x="340.865234" xlink:href="#DejaVuSans-95"/>
      <use x="390.865234" xlink:href="#DejaVuSans-112"/>
      <use x="454.341797" xlink:href="#DejaVuSans-111"/>
      <use x="515.523438" xlink:href="#DejaVuSans-108"/>
      <use x="543.306641" xlink:href="#DejaVuSans-105"/>
      <use x="571.089844" xlink:href="#DejaVuSans-99"/>
      <use x="626.070312" xlink:href="#DejaVuSans-121"/>
     </g>
    </g>
   </g>
   <g id="line2d_35">
    <path clip-path="url(#p62a92bc6ae)" d="M 115.363636 66.96 
L 224.220445 66.96 
L 225.309013 278.362224 
L 226.397581 215.005051 
L 227.486149 229.238701 
L 228.574717 369.36 
L 230.751853 115.956334 
L 231.840421 89.936274 
L 232.928989 66.96 
L 284.091689 66.96 
L 285.180258 278.362224 
L 286.268826 215.005051 
L 287.357394 229.238701 
L 288.445962 369.36 
L 290.623098 115.956334 
L 291.711666 89.936274 
L 292.800234 66.96 
L 315.660164 66.96 
L 316.748732 278.362224 
L 317.8373 215.005051 
L 318.925868 229.238701 
L 320.014436 369.36 
L 322.191572 115.956334 
L 323.28014 89.936274 
L 324.368709 66.96 
L 622.636364 66.96 
L 622.636364 66.96 
" style="fill:none;stroke:#0072b2;stroke-linecap:square;stroke-width:1.5;"/>
   </g>
   <g id="patch_3">
    <path d="M 90 384.48 
L 90 51.84 
" style="fill:none;stroke:#000000;stroke-linecap:square;stroke-linejoin:miter;stroke-width:0.8;"/>
   </g>
   <g id="patch_4">
    <path d="M 648 384.48 
L 648 51.84 
" style="fill:none;stroke:#000000;stroke-linecap:square;stroke-linejoin:miter;stroke-width:0.8;"/>
   </g>
   <g id="patch_5">
    <path d="M 90 384.48 
L 648 384.48 
" style="fill:none;stroke:#000000;stroke-linecap:square;stroke-linejoin:miter;stroke-width:0.8;"/>
   </g>
   <g id="patch_6">
    <path d="M 90 51.84 
L 648 51.84 
" style="fill:none;stroke:#000000;stroke-linecap:square;stroke-linejoin:miter;stroke-width:0.8;"/>
   </g>
  </g>
 </g>
 <defs>
  <clipPath id="p62a92bc6ae">
   <rect height="332.64" width="558" x="90" y="51.84"/>
  </clipPath>
 </defs>
</svg>
