<?xml version="1.0" encoding="utf-8" standalone="no"?>
<!DOCTYPE svg PUBLIC "-//W3C//DTD SVG 1.1//EN"
  "http://www.w3.org/Graphics/SVG/1.1/DTD/svg11.dtd">
<!-- Created with matplotlib (https://matplotlib.org/) -->
<svg height="432pt" version="1.1" viewBox="0 0 720 432" width="720pt" xmlns="http://www.w3.org/2000/svg" xmlns:xlink="http://www.w3.org/1999/xlink">
 <metadata>
  <rdf:RDF xmlns:cc="http://creativecommons.org/ns#" xmlns:dc="http://purl.org/dc/elements/1.1/" xmlns:rdf="http://www.w3.org/1999/02/22-rdf-syntax-ns#">
   <cc:Work>
    <dc:type rdf:resource="http://purl.org/dc/dcmitype/StillImage"/>
    <dc:date>2020-09-25T01:17:51.886656</dc:date>
    <dc:format>image/svg+xml</dc:format>
    <dc:creator>
     <cc:Agent>
      <dc:title>Matplotlib v3.3.2, https://matplotlib.org/</dc:title>
     </cc:Agent>
    </dc:creator>
   </cc:Work>
  </rdf:RDF>
 </metadata>
 <defs>
  <style type="text/css">*{stroke-linecap:butt;stroke-linejoin:round;}</style>
 </defs>
 <g id="figure_1">
  <g id="patch_1">
   <path d="M 0 432 
L 720 432 
L 720 0 
L 0 0 
z
" style="fill:#ffffff;"/>
  </g>
  <g id="axes_1">
   <g id="patch_2">
    <path d="M 90 384.48 
L 648 384.48 
L 648 51.84 
L 90 51.84 
z
" style="fill:#ffffff;"/>
   </g>
   <g id="PolyCollection_1">
    <defs>
     <path d="M 115.363636 -365.04 
L 115.363636 -365.04 
L 116.346723 -365.04 
L 117.32981 -365.04 
L 118.312896 -365.04 
L 119.295983 -365.04 
L 120.27907 -365.04 
L 121.262156 -365.04 
L 122.245243 -365.04 
L 123.22833 -365.04 
L 124.211416 -365.04 
L 125.194503 -365.04 
L 126.17759 -365.04 
L 127.160677 -365.04 
L 128.143763 -365.04 
L 129.12685 -365.04 
L 130.109937 -365.04 
L 131.093023 -365.04 
L 132.07611 -365.04 
L 133.059197 -365.04 
L 134.042283 -365.04 
L 135.02537 -365.04 
L 136.008457 -365.04 
L 136.991543 -365.04 
L 137.97463 -365.04 
L 138.957717 -365.04 
L 139.940803 -365.04 
L 140.92389 -365.04 
L 141.906977 -365.04 
L 142.890063 -365.04 
L 143.87315 -365.04 
L 144.856237 -365.04 
L 145.839323 -365.04 
L 146.82241 -365.04 
L 147.805497 -365.04 
L 148.788584 -365.04 
L 149.77167 -365.04 
L 150.754757 -365.04 
L 151.737844 -365.04 
L 152.72093 -365.04 
L 153.704017 -365.04 
L 154.687104 -365.04 
L 155.67019 -365.04 
L 156.653277 -365.04 
L 157.636364 -365.04 
L 158.61945 -365.04 
L 159.602537 -365.04 
L 160.585624 -365.04 
L 161.56871 -365.04 
L 162.551797 -365.04 
L 163.534884 -365.04 
L 164.51797 -365.04 
L 165.501057 -365.04 
L 166.484144 -365.04 
L 167.46723 -365.04 
L 168.450317 -365.04 
L 169.433404 -365.04 
L 170.41649 -365.04 
L 171.399577 -365.04 
L 172.382664 -365.04 
L 173.365751 -365.04 
L 174.348837 -365.04 
L 175.331924 -365.04 
L 176.315011 -365.04 
L 177.298097 -365.04 
L 178.281184 -365.04 
L 179.264271 -365.04 
L 180.247357 -365.04 
L 181.230444 -365.04 
L 182.213531 -365.04 
L 183.196617 -365.04 
L 184.179704 -365.04 
L 185.162791 -365.04 
L 186.145877 -365.04 
L 187.128964 -365.04 
L 188.112051 -365.04 
L 189.095137 -365.04 
L 190.078224 -365.04 
L 191.061311 -365.04 
L 192.044397 -365.04 
L 193.027484 -365.04 
L 194.010571 -365.04 
L 194.993658 -365.04 
L 195.976744 -365.04 
L 196.959831 -365.04 
L 197.942918 -365.04 
L 198.926004 -365.04 
L 199.909091 -365.04 
L 200.892178 -365.04 
L 201.875264 -365.04 
L 202.858351 -365.04 
L 203.841438 -365.04 
L 204.824524 -365.04 
L 205.807611 -365.04 
L 206.790698 -365.04 
L 207.773784 -365.04 
L 208.756871 -365.04 
L 209.739958 -365.04 
L 210.723044 -365.04 
L 211.706131 -365.04 
L 212.689218 -365.04 
L 213.672304 -365.04 
L 214.655391 -365.04 
L 215.638478 -365.04 
L 216.621564 -365.04 
L 217.604651 -365.04 
L 218.587738 -365.04 
L 219.570825 -365.04 
L 220.553911 -365.04 
L 221.536998 -365.04 
L 222.520085 -365.04 
L 223.503171 -365.04 
L 224.486258 -365.04 
L 225.469345 -365.04 
L 226.452431 -365.04 
L 227.435518 -365.04 
L 228.418605 -365.04 
L 229.401691 -365.04 
L 230.384778 -365.04 
L 231.367865 -365.04 
L 232.350951 -365.04 
L 233.334038 -365.04 
L 234.317125 -365.04 
L 235.300211 -365.04 
L 236.283298 -365.04 
L 237.266385 -365.04 
L 238.249471 -365.04 
L 239.232558 -365.04 
L 240.215645 -365.04 
L 241.198732 -365.04 
L 242.181818 -365.04 
L 243.164905 -365.04 
L 244.147992 -365.04 
L 245.131078 -365.04 
L 246.114165 -365.04 
L 247.097252 -225.327546 
L 248.080338 -250.094362 
L 249.063425 -231.242723 
L 250.046512 -136.986491 
L 251.029598 -62.64 
L 252.012685 -203.311728 
L 252.995772 -331.904359 
L 253.978858 -365.04 
L 254.961945 -365.04 
L 255.945032 -365.04 
L 256.928118 -365.04 
L 257.911205 -365.04 
L 258.894292 -365.04 
L 259.877378 -365.04 
L 260.860465 -365.04 
L 261.843552 -365.04 
L 262.826638 -365.04 
L 263.809725 -365.04 
L 264.792812 -365.04 
L 265.775899 -365.04 
L 266.758985 -365.04 
L 267.742072 -365.04 
L 268.725159 -365.04 
L 269.708245 -365.04 
L 270.691332 -365.04 
L 271.674419 -365.04 
L 272.657505 -365.04 
L 273.640592 -365.04 
L 274.623679 -365.04 
L 275.606765 -365.04 
L 276.589852 -365.04 
L 277.572939 -365.04 
L 278.556025 -365.04 
L 279.539112 -365.04 
L 280.522199 -365.04 
L 281.505285 -365.04 
L 282.488372 -365.04 
L 283.471459 -365.04 
L 284.454545 -365.04 
L 285.437632 -365.04 
L 286.420719 -365.04 
L 287.403805 -365.04 
L 288.386892 -365.04 
L 289.369979 -365.04 
L 290.353066 -365.04 
L 291.336152 -365.04 
L 292.319239 -365.04 
L 293.302326 -365.04 
L 294.285412 -365.04 
L 295.268499 -365.04 
L 296.251586 -365.04 
L 297.234672 -365.04 
L 298.217759 -365.04 
L 299.200846 -365.04 
L 300.183932 -365.04 
L 301.167019 -225.327546 
L 302.150106 -250.094362 
L 303.133192 -231.242723 
L 304.116279 -136.986491 
L 305.099366 -62.64 
L 306.082452 -203.311728 
L 307.065539 -331.904359 
L 308.048626 -365.04 
L 309.031712 -365.04 
L 310.014799 -365.04 
L 310.997886 -365.04 
L 311.980973 -365.04 
L 312.964059 -365.04 
L 313.947146 -365.04 
L 314.930233 -365.04 
L 315.913319 -365.04 
L 316.896406 -365.04 
L 317.879493 -365.04 
L 318.862579 -365.04 
L 319.845666 -365.04 
L 320.828753 -365.04 
L 321.811839 -365.04 
L 322.794926 -365.04 
L 323.778013 -365.04 
L 324.761099 -365.04 
L 325.744186 -365.04 
L 326.727273 -365.04 
L 327.710359 -365.04 
L 328.693446 -365.04 
L 329.676533 -225.327546 
L 330.659619 -250.094362 
L 331.642706 -231.242723 
L 332.625793 -136.986491 
L 333.608879 -62.64 
L 334.591966 -203.311728 
L 335.575053 -331.904359 
L 336.55814 -365.04 
L 337.541226 -365.04 
L 338.524313 -365.04 
L 339.5074 -365.04 
L 340.490486 -365.04 
L 341.473573 -365.04 
L 342.45666 -365.04 
L 343.439746 -365.04 
L 344.422833 -365.04 
L 345.40592 -365.04 
L 346.389006 -365.04 
L 347.372093 -365.04 
L 348.35518 -365.04 
L 349.338266 -365.04 
L 350.321353 -365.04 
L 351.30444 -365.04 
L 352.287526 -365.04 
L 353.270613 -365.04 
L 354.2537 -365.04 
L 355.236786 -365.04 
L 356.219873 -365.04 
L 357.20296 -365.04 
L 358.186047 -365.04 
L 359.169133 -365.04 
L 360.15222 -365.04 
L 361.135307 -365.04 
L 362.118393 -365.04 
L 363.10148 -365.04 
L 364.084567 -365.04 
L 365.067653 -365.04 
L 366.05074 -365.04 
L 367.033827 -365.04 
L 368.016913 -365.04 
L 369 -365.04 
L 369.983087 -365.04 
L 370.966173 -365.04 
L 371.94926 -365.04 
L 372.932347 -365.04 
L 373.915433 -365.04 
L 374.89852 -365.04 
L 375.881607 -365.04 
L 376.864693 -365.04 
L 377.84778 -365.04 
L 378.830867 -365.04 
L 379.813953 -365.04 
L 380.79704 -365.04 
L 381.780127 -365.04 
L 382.763214 -365.04 
L 383.7463 -365.04 
L 384.729387 -365.04 
L 385.712474 -365.04 
L 386.69556 -365.04 
L 387.678647 -365.04 
L 388.661734 -365.04 
L 389.64482 -365.04 
L 390.627907 -365.04 
L 391.610994 -365.04 
L 392.59408 -365.04 
L 393.577167 -365.04 
L 394.560254 -365.04 
L 395.54334 -365.04 
L 396.526427 -365.04 
L 397.509514 -365.04 
L 398.4926 -365.04 
L 399.475687 -365.04 
L 400.458774 -365.04 
L 401.44186 -365.04 
L 402.424947 -365.04 
L 403.408034 -365.04 
L 404.391121 -365.04 
L 405.374207 -365.04 
L 406.357294 -365.04 
L 407.340381 -365.04 
L 408.323467 -365.04 
L 409.306554 -365.04 
L 410.289641 -365.04 
L 411.272727 -365.04 
L 412.255814 -365.04 
L 413.238901 -365.04 
L 414.221987 -365.04 
L 415.205074 -365.04 
L 416.188161 -365.04 
L 417.171247 -365.04 
L 418.154334 -365.04 
L 419.137421 -365.04 
L 420.120507 -365.04 
L 421.103594 -365.04 
L 422.086681 -365.04 
L 423.069767 -365.04 
L 424.052854 -365.04 
L 425.035941 -365.04 
L 426.019027 -365.04 
L 427.002114 -365.04 
L 427.985201 -365.04 
L 428.968288 -365.04 
L 429.951374 -365.04 
L 430.934461 -365.04 
L 431.917548 -365.04 
L 432.900634 -365.04 
L 433.883721 -365.04 
L 434.866808 -365.04 
L 435.849894 -365.04 
L 436.832981 -365.04 
L 437.816068 -365.04 
L 438.799154 -365.04 
L 439.782241 -365.04 
L 440.765328 -365.04 
L 441.748414 -365.04 
L 442.731501 -365.04 
L 443.714588 -365.04 
L 444.697674 -365.04 
L 445.680761 -365.04 
L 446.663848 -365.04 
L 447.646934 -365.04 
L 448.630021 -365.04 
L 449.613108 -365.04 
L 450.596195 -365.04 
L 451.579281 -365.04 
L 452.562368 -365.04 
L 453.545455 -365.04 
L 454.528541 -365.04 
L 455.511628 -365.04 
L 456.494715 -365.04 
L 457.477801 -365.04 
L 458.460888 -365.04 
L 459.443975 -365.04 
L 460.427061 -365.04 
L 461.410148 -365.04 
L 462.393235 -365.04 
L 463.376321 -365.04 
L 464.359408 -365.04 
L 465.342495 -365.04 
L 466.325581 -365.04 
L 467.308668 -365.04 
L 468.291755 -365.04 
L 469.274841 -365.04 
L 470.257928 -365.04 
L 471.241015 -365.04 
L 472.224101 -365.04 
L 473.207188 -365.04 
L 474.190275 -365.04 
L 475.173362 -365.04 
L 476.156448 -365.04 
L 477.139535 -365.04 
L 478.122622 -365.04 
L 479.105708 -365.04 
L 480.088795 -365.04 
L 481.071882 -365.04 
L 482.054968 -365.04 
L 483.038055 -365.04 
L 484.021142 -365.04 
L 485.004228 -365.04 
L 485.987315 -365.04 
L 486.970402 -365.04 
L 487.953488 -365.04 
L 488.936575 -365.04 
L 489.919662 -365.04 
L 490.902748 -365.04 
L 491.885835 -365.04 
L 492.868922 -365.04 
L 493.852008 -365.04 
L 494.835095 -365.04 
L 495.818182 -365.04 
L 496.801268 -365.04 
L 497.784355 -365.04 
L 498.767442 -365.04 
L 499.750529 -365.04 
L 500.733615 -365.04 
L 501.716702 -365.04 
L 502.699789 -365.04 
L 503.682875 -365.04 
L 504.665962 -365.04 
L 505.649049 -365.04 
L 506.632135 -365.04 
L 507.615222 -365.04 
L 508.598309 -365.04 
L 509.581395 -365.04 
L 510.564482 -365.04 
L 511.547569 -365.04 
L 512.530655 -365.04 
L 513.513742 -365.04 
L 514.496829 -365.04 
L 515.479915 -365.04 
L 516.463002 -365.04 
L 517.446089 -365.04 
L 518.429175 -365.04 
L 519.412262 -365.04 
L 520.395349 -365.04 
L 521.378436 -365.04 
L 522.361522 -365.04 
L 523.344609 -365.04 
L 524.327696 -365.04 
L 525.310782 -365.04 
L 526.293869 -365.04 
L 527.276956 -365.04 
L 528.260042 -365.04 
L 529.243129 -365.04 
L 530.226216 -365.04 
L 531.209302 -365.04 
L 532.192389 -365.04 
L 533.175476 -365.04 
L 534.158562 -365.04 
L 535.141649 -365.04 
L 536.124736 -365.04 
L 537.107822 -365.04 
L 538.090909 -365.04 
L 539.073996 -365.04 
L 540.057082 -365.04 
L 541.040169 -365.04 
L 542.023256 -365.04 
L 543.006342 -365.04 
L 543.989429 -365.04 
L 544.972516 -365.04 
L 545.955603 -365.04 
L 546.938689 -365.04 
L 547.921776 -365.04 
L 548.904863 -365.04 
L 549.887949 -365.04 
L 550.871036 -365.04 
L 551.854123 -365.04 
L 552.837209 -365.04 
L 553.820296 -365.04 
L 554.803383 -365.04 
L 555.786469 -365.04 
L 556.769556 -365.04 
L 557.752643 -365.04 
L 558.735729 -365.04 
L 559.718816 -365.04 
L 560.701903 -365.04 
L 561.684989 -365.04 
L 562.668076 -365.04 
L 563.651163 -365.04 
L 564.634249 -365.04 
L 565.617336 -365.04 
L 566.600423 -365.04 
L 567.58351 -365.04 
L 568.566596 -365.04 
L 569.549683 -365.04 
L 570.53277 -365.04 
L 571.515856 -365.04 
L 572.498943 -365.04 
L 573.48203 -365.04 
L 574.465116 -365.04 
L 575.448203 -365.04 
L 576.43129 -365.04 
L 577.414376 -365.04 
L 578.397463 -365.04 
L 579.38055 -365.04 
L 580.363636 -365.04 
L 581.346723 -365.04 
L 582.32981 -365.04 
L 583.312896 -365.04 
L 584.295983 -365.04 
L 585.27907 -365.04 
L 586.262156 -365.04 
L 587.245243 -365.04 
L 588.22833 -365.04 
L 589.211416 -365.04 
L 590.194503 -365.04 
L 591.17759 -365.04 
L 592.160677 -365.04 
L 593.143763 -365.04 
L 594.12685 -365.04 
L 595.109937 -365.04 
L 596.093023 -365.04 
L 597.07611 -365.04 
L 598.059197 -365.04 
L 599.042283 -365.04 
L 600.02537 -365.04 
L 601.008457 -365.04 
L 601.991543 -365.04 
L 602.97463 -365.04 
L 603.957717 -365.04 
L 604.940803 -365.04 
L 605.92389 -365.04 
L 606.906977 -365.04 
L 607.890063 -365.04 
L 608.87315 -365.04 
L 609.856237 -365.04 
L 610.839323 -365.04 
L 611.82241 -365.04 
L 612.805497 -365.04 
L 613.788584 -365.04 
L 614.77167 -365.04 
L 615.754757 -365.04 
L 616.737844 -365.04 
L 617.72093 -365.04 
L 618.704017 -365.04 
L 619.687104 -365.04 
L 620.67019 -365.04 
L 621.653277 -365.04 
L 622.636364 -365.04 
L 622.636364 -365.04 
L 622.636364 -365.04 
L 621.653277 -365.04 
L 620.67019 -365.04 
L 619.687104 -365.04 
L 618.704017 -365.04 
L 617.72093 -365.04 
L 616.737844 -365.04 
L 615.754757 -365.04 
L 614.77167 -365.04 
L 613.788584 -365.04 
L 612.805497 -365.04 
L 611.82241 -365.04 
L 610.839323 -365.04 
L 609.856237 -365.04 
L 608.87315 -365.04 
L 607.890063 -365.04 
L 606.906977 -365.04 
L 605.92389 -365.04 
L 604.940803 -365.04 
L 603.957717 -365.04 
L 602.97463 -365.04 
L 601.991543 -365.04 
L 601.008457 -365.04 
L 600.02537 -365.04 
L 599.042283 -365.04 
L 598.059197 -365.04 
L 597.07611 -365.04 
L 596.093023 -365.04 
L 595.109937 -365.04 
L 594.12685 -365.04 
L 593.143763 -365.04 
L 592.160677 -365.04 
L 591.17759 -365.04 
L 590.194503 -365.04 
L 589.211416 -365.04 
L 588.22833 -365.04 
L 587.245243 -365.04 
L 586.262156 -365.04 
L 585.27907 -365.04 
L 584.295983 -365.04 
L 583.312896 -365.04 
L 582.32981 -365.04 
L 581.346723 -365.04 
L 580.363636 -365.04 
L 579.38055 -365.04 
L 578.397463 -365.04 
L 577.414376 -365.04 
L 576.43129 -365.04 
L 575.448203 -365.04 
L 574.465116 -365.04 
L 573.48203 -365.04 
L 572.498943 -365.04 
L 571.515856 -365.04 
L 570.53277 -365.04 
L 569.549683 -365.04 
L 568.566596 -365.04 
L 567.58351 -365.04 
L 566.600423 -365.04 
L 565.617336 -365.04 
L 564.634249 -365.04 
L 563.651163 -365.04 
L 562.668076 -365.04 
L 561.684989 -365.04 
L 560.701903 -365.04 
L 559.718816 -365.04 
L 558.735729 -365.04 
L 557.752643 -365.04 
L 556.769556 -365.04 
L 555.786469 -365.04 
L 554.803383 -365.04 
L 553.820296 -365.04 
L 552.837209 -365.04 
L 551.854123 -365.04 
L 550.871036 -365.04 
L 549.887949 -365.04 
L 548.904863 -365.04 
L 547.921776 -365.04 
L 546.938689 -365.04 
L 545.955603 -365.04 
L 544.972516 -365.04 
L 543.989429 -365.04 
L 543.006342 -365.04 
L 542.023256 -365.04 
L 541.040169 -365.04 
L 540.057082 -365.04 
L 539.073996 -365.04 
L 538.090909 -365.04 
L 537.107822 -365.04 
L 536.124736 -365.04 
L 535.141649 -365.04 
L 534.158562 -365.04 
L 533.175476 -365.04 
L 532.192389 -365.04 
L 531.209302 -365.04 
L 530.226216 -365.04 
L 529.243129 -365.04 
L 528.260042 -365.04 
L 527.276956 -365.04 
L 526.293869 -365.04 
L 525.310782 -365.04 
L 524.327696 -365.04 
L 523.344609 -365.04 
L 522.361522 -365.04 
L 521.378436 -365.04 
L 520.395349 -365.04 
L 519.412262 -365.04 
L 518.429175 -365.04 
L 517.446089 -365.04 
L 516.463002 -365.04 
L 515.479915 -365.04 
L 514.496829 -365.04 
L 513.513742 -365.04 
L 512.530655 -365.04 
L 511.547569 -365.04 
L 510.564482 -365.04 
L 509.581395 -365.04 
L 508.598309 -365.04 
L 507.615222 -365.04 
L 506.632135 -365.04 
L 505.649049 -365.04 
L 504.665962 -365.04 
L 503.682875 -365.04 
L 502.699789 -365.04 
L 501.716702 -365.04 
L 500.733615 -365.04 
L 499.750529 -365.04 
L 498.767442 -365.04 
L 497.784355 -365.04 
L 496.801268 -365.04 
L 495.818182 -365.04 
L 494.835095 -365.04 
L 493.852008 -365.04 
L 492.868922 -365.04 
L 491.885835 -365.04 
L 490.902748 -365.04 
L 489.919662 -365.04 
L 488.936575 -365.04 
L 487.953488 -365.04 
L 486.970402 -365.04 
L 485.987315 -365.04 
L 485.004228 -365.04 
L 484.021142 -365.04 
L 483.038055 -365.04 
L 482.054968 -365.04 
L 481.071882 -365.04 
L 480.088795 -365.04 
L 479.105708 -365.04 
L 478.122622 -365.04 
L 477.139535 -365.04 
L 476.156448 -365.04 
L 475.173362 -365.04 
L 474.190275 -365.04 
L 473.207188 -365.04 
L 472.224101 -365.04 
L 471.241015 -365.04 
L 470.257928 -365.04 
L 469.274841 -365.04 
L 468.291755 -365.04 
L 467.308668 -365.04 
L 466.325581 -365.04 
L 465.342495 -365.04 
L 464.359408 -365.04 
L 463.376321 -365.04 
L 462.393235 -365.04 
L 461.410148 -365.04 
L 460.427061 -365.04 
L 459.443975 -365.04 
L 458.460888 -365.04 
L 457.477801 -365.04 
L 456.494715 -365.04 
L 455.511628 -365.04 
L 454.528541 -365.04 
L 453.545455 -365.04 
L 452.562368 -365.04 
L 451.579281 -365.04 
L 450.596195 -365.04 
L 449.613108 -365.04 
L 448.630021 -365.04 
L 447.646934 -365.04 
L 446.663848 -365.04 
L 445.680761 -365.04 
L 444.697674 -365.04 
L 443.714588 -365.04 
L 442.731501 -365.04 
L 441.748414 -365.04 
L 440.765328 -365.04 
L 439.782241 -365.04 
L 438.799154 -365.04 
L 437.816068 -365.04 
L 436.832981 -365.04 
L 435.849894 -365.04 
L 434.866808 -365.04 
L 433.883721 -365.04 
L 432.900634 -365.04 
L 431.917548 -365.04 
L 430.934461 -365.04 
L 429.951374 -365.04 
L 428.968288 -365.04 
L 427.985201 -365.04 
L 427.002114 -365.04 
L 426.019027 -365.04 
L 425.035941 -365.04 
L 424.052854 -365.04 
L 423.069767 -365.04 
L 422.086681 -365.04 
L 421.103594 -365.04 
L 420.120507 -365.04 
L 419.137421 -365.04 
L 418.154334 -365.04 
L 417.171247 -365.04 
L 416.188161 -365.04 
L 415.205074 -365.04 
L 414.221987 -365.04 
L 413.238901 -365.04 
L 412.255814 -365.04 
L 411.272727 -365.04 
L 410.289641 -365.04 
L 409.306554 -365.04 
L 408.323467 -365.04 
L 407.340381 -365.04 
L 406.357294 -365.04 
L 405.374207 -365.04 
L 404.391121 -365.04 
L 403.408034 -365.04 
L 402.424947 -365.04 
L 401.44186 -365.04 
L 400.458774 -365.04 
L 399.475687 -365.04 
L 398.4926 -365.04 
L 397.509514 -365.04 
L 396.526427 -365.04 
L 395.54334 -365.04 
L 394.560254 -365.04 
L 393.577167 -365.04 
L 392.59408 -365.04 
L 391.610994 -365.04 
L 390.627907 -365.04 
L 389.64482 -365.04 
L 388.661734 -365.04 
L 387.678647 -365.04 
L 386.69556 -365.04 
L 385.712474 -365.04 
L 384.729387 -365.04 
L 383.7463 -365.04 
L 382.763214 -365.04 
L 381.780127 -365.04 
L 380.79704 -365.04 
L 379.813953 -365.04 
L 378.830867 -365.04 
L 377.84778 -365.04 
L 376.864693 -365.04 
L 375.881607 -365.04 
L 374.89852 -365.04 
L 373.915433 -365.04 
L 372.932347 -365.04 
L 371.94926 -365.04 
L 370.966173 -365.04 
L 369.983087 -365.04 
L 369 -365.04 
L 368.016913 -365.04 
L 367.033827 -365.04 
L 366.05074 -365.04 
L 365.067653 -365.04 
L 364.084567 -365.04 
L 363.10148 -365.04 
L 362.118393 -365.04 
L 361.135307 -365.04 
L 360.15222 -365.04 
L 359.169133 -365.04 
L 358.186047 -365.04 
L 357.20296 -365.04 
L 356.219873 -365.04 
L 355.236786 -365.04 
L 354.2537 -365.04 
L 353.270613 -365.04 
L 352.287526 -365.04 
L 351.30444 -365.04 
L 350.321353 -365.04 
L 349.338266 -365.04 
L 348.35518 -365.04 
L 347.372093 -365.04 
L 346.389006 -365.04 
L 345.40592 -365.04 
L 344.422833 -365.04 
L 343.439746 -365.04 
L 342.45666 -365.04 
L 341.473573 -365.04 
L 340.490486 -365.04 
L 339.5074 -365.04 
L 338.524313 -365.04 
L 337.541226 -365.04 
L 336.55814 -365.04 
L 335.575053 -331.904359 
L 334.591966 -203.311728 
L 333.608879 -62.64 
L 332.625793 -136.986491 
L 331.642706 -231.242723 
L 330.659619 -250.094362 
L 329.676533 -225.327546 
L 328.693446 -365.04 
L 327.710359 -365.04 
L 326.727273 -365.04 
L 325.744186 -365.04 
L 324.761099 -365.04 
L 323.778013 -365.04 
L 322.794926 -365.04 
L 321.811839 -365.04 
L 320.828753 -365.04 
L 319.845666 -365.04 
L 318.862579 -365.04 
L 317.879493 -365.04 
L 316.896406 -365.04 
L 315.913319 -365.04 
L 314.930233 -365.04 
L 313.947146 -365.04 
L 312.964059 -365.04 
L 311.980973 -365.04 
L 310.997886 -365.04 
L 310.014799 -365.04 
L 309.031712 -365.04 
L 308.048626 -365.04 
L 307.065539 -331.904359 
L 306.082452 -203.311728 
L 305.099366 -62.64 
L 304.116279 -136.986491 
L 303.133192 -231.242723 
L 302.150106 -250.094362 
L 301.167019 -225.327546 
L 300.183932 -365.04 
L 299.200846 -365.04 
L 298.217759 -365.04 
L 297.234672 -365.04 
L 296.251586 -365.04 
L 295.268499 -365.04 
L 294.285412 -365.04 
L 293.302326 -365.04 
L 292.319239 -365.04 
L 291.336152 -365.04 
L 290.353066 -365.04 
L 289.369979 -365.04 
L 288.386892 -365.04 
L 287.403805 -365.04 
L 286.420719 -365.04 
L 285.437632 -365.04 
L 284.454545 -365.04 
L 283.471459 -365.04 
L 282.488372 -365.04 
L 281.505285 -365.04 
L 280.522199 -365.04 
L 279.539112 -365.04 
L 278.556025 -365.04 
L 277.572939 -365.04 
L 276.589852 -365.04 
L 275.606765 -365.04 
L 274.623679 -365.04 
L 273.640592 -365.04 
L 272.657505 -365.04 
L 271.674419 -365.04 
L 270.691332 -365.04 
L 269.708245 -365.04 
L 268.725159 -365.04 
L 267.742072 -365.04 
L 266.758985 -365.04 
L 265.775899 -365.04 
L 264.792812 -365.04 
L 263.809725 -365.04 
L 262.826638 -365.04 
L 261.843552 -365.04 
L 260.860465 -365.04 
L 259.877378 -365.04 
L 258.894292 -365.04 
L 257.911205 -365.04 
L 256.928118 -365.04 
L 255.945032 -365.04 
L 254.961945 -365.04 
L 253.978858 -365.04 
L 252.995772 -331.904359 
L 252.012685 -203.311728 
L 251.029598 -62.64 
L 250.046512 -136.986491 
L 249.063425 -231.242723 
L 248.080338 -250.094362 
L 247.097252 -225.327546 
L 246.114165 -365.04 
L 245.131078 -365.04 
L 244.147992 -365.04 
L 243.164905 -365.04 
L 242.181818 -365.04 
L 241.198732 -365.04 
L 240.215645 -365.04 
L 239.232558 -365.04 
L 238.249471 -365.04 
L 237.266385 -365.04 
L 236.283298 -365.04 
L 235.300211 -365.04 
L 234.317125 -365.04 
L 233.334038 -365.04 
L 232.350951 -365.04 
L 231.367865 -365.04 
L 230.384778 -365.04 
L 229.401691 -365.04 
L 228.418605 -365.04 
L 227.435518 -365.04 
L 226.452431 -365.04 
L 225.469345 -365.04 
L 224.486258 -365.04 
L 223.503171 -365.04 
L 222.520085 -365.04 
L 221.536998 -365.04 
L 220.553911 -365.04 
L 219.570825 -365.04 
L 218.587738 -365.04 
L 217.604651 -365.04 
L 216.621564 -365.04 
L 215.638478 -365.04 
L 214.655391 -365.04 
L 213.672304 -365.04 
L 212.689218 -365.04 
L 211.706131 -365.04 
L 210.723044 -365.04 
L 209.739958 -365.04 
L 208.756871 -365.04 
L 207.773784 -365.04 
L 206.790698 -365.04 
L 205.807611 -365.04 
L 204.824524 -365.04 
L 203.841438 -365.04 
L 202.858351 -365.04 
L 201.875264 -365.04 
L 200.892178 -365.04 
L 199.909091 -365.04 
L 198.926004 -365.04 
L 197.942918 -365.04 
L 196.959831 -365.04 
L 195.976744 -365.04 
L 194.993658 -365.04 
L 194.010571 -365.04 
L 193.027484 -365.04 
L 192.044397 -365.04 
L 191.061311 -365.04 
L 190.078224 -365.04 
L 189.095137 -365.04 
L 188.112051 -365.04 
L 187.128964 -365.04 
L 186.145877 -365.04 
L 185.162791 -365.04 
L 184.179704 -365.04 
L 183.196617 -365.04 
L 182.213531 -365.04 
L 181.230444 -365.04 
L 180.247357 -365.04 
L 179.264271 -365.04 
L 178.281184 -365.04 
L 177.298097 -365.04 
L 176.315011 -365.04 
L 175.331924 -365.04 
L 174.348837 -365.04 
L 173.365751 -365.04 
L 172.382664 -365.04 
L 171.399577 -365.04 
L 170.41649 -365.04 
L 169.433404 -365.04 
L 168.450317 -365.04 
L 167.46723 -365.04 
L 166.484144 -365.04 
L 165.501057 -365.04 
L 164.51797 -365.04 
L 163.534884 -365.04 
L 162.551797 -365.04 
L 161.56871 -365.04 
L 160.585624 -365.04 
L 159.602537 -365.04 
L 158.61945 -365.04 
L 157.636364 -365.04 
L 156.653277 -365.04 
L 155.67019 -365.04 
L 154.687104 -365.04 
L 153.704017 -365.04 
L 152.72093 -365.04 
L 151.737844 -365.04 
L 150.754757 -365.04 
L 149.77167 -365.04 
L 148.788584 -365.04 
L 147.805497 -365.04 
L 146.82241 -365.04 
L 145.839323 -365.04 
L 144.856237 -365.04 
L 143.87315 -365.04 
L 142.890063 -365.04 
L 141.906977 -365.04 
L 140.92389 -365.04 
L 139.940803 -365.04 
L 138.957717 -365.04 
L 137.97463 -365.04 
L 136.991543 -365.04 
L 136.008457 -365.04 
L 135.02537 -365.04 
L 134.042283 -365.04 
L 133.059197 -365.04 
L 132.07611 -365.04 
L 131.093023 -365.04 
L 130.109937 -365.04 
L 129.12685 -365.04 
L 128.143763 -365.04 
L 127.160677 -365.04 
L 126.17759 -365.04 
L 125.194503 -365.04 
L 124.211416 -365.04 
L 123.22833 -365.04 
L 122.245243 -365.04 
L 121.262156 -365.04 
L 120.27907 -365.04 
L 119.295983 -365.04 
L 118.312896 -365.04 
L 117.32981 -365.04 
L 116.346723 -365.04 
L 115.363636 -365.04 
z
" id="m62ec8e8705" style="stroke:#0072b2;stroke-opacity:0.2;"/>
    </defs>
    <g clip-path="url(#p057e2e6a9f)">
     <use style="fill:#0072b2;fill-opacity:0.2;stroke:#0072b2;stroke-opacity:0.2;" x="0" xlink:href="#m62ec8e8705" y="432"/>
    </g>
   </g>
   <g id="matplotlib.axis_1">
    <g id="xtick_1">
     <g id="line2d_1">
      <path clip-path="url(#p057e2e6a9f)" d="M 104.549683 384.48 
L 104.549683 51.84 
" style="fill:none;stroke:#808080;stroke-linecap:square;stroke-opacity:0.2;"/>
     </g>
     <g id="line2d_2">
      <defs>
       <path d="M 0 0 
L 0 3.5 
" id="mb714876d9a" style="stroke:#000000;stroke-width:0.8;"/>
      </defs>
      <g>
       <use style="stroke:#000000;stroke-width:0.8;" x="104.549683" xlink:href="#mb714876d9a" y="384.48"/>
      </g>
     </g>
     <g id="text_1">
      <!-- 2019-09 -->
      <g transform="translate(83.658277 399.078438)scale(0.1 -0.1)">
       <defs>
        <path d="M 19.1875 8.296875 
L 53.609375 8.296875 
L 53.609375 0 
L 7.328125 0 
L 7.328125 8.296875 
Q 12.9375 14.109375 22.625 23.890625 
Q 32.328125 33.6875 34.8125 36.53125 
Q 39.546875 41.84375 41.421875 45.53125 
Q 43.3125 49.21875 43.3125 52.78125 
Q 43.3125 58.59375 39.234375 62.25 
Q 35.15625 65.921875 28.609375 65.921875 
Q 23.96875 65.921875 18.8125 64.3125 
Q 13.671875 62.703125 7.8125 59.421875 
L 7.8125 69.390625 
Q 13.765625 71.78125 18.9375 73 
Q 24.125 74.21875 28.421875 74.21875 
Q 39.75 74.21875 46.484375 68.546875 
Q 53.21875 62.890625 53.21875 53.421875 
Q 53.21875 48.921875 51.53125 44.890625 
Q 49.859375 40.875 45.40625 35.40625 
Q 44.1875 33.984375 37.640625 27.21875 
Q 31.109375 20.453125 19.1875 8.296875 
z
" id="DejaVuSans-50"/>
        <path d="M 31.78125 66.40625 
Q 24.171875 66.40625 20.328125 58.90625 
Q 16.5 51.421875 16.5 36.375 
Q 16.5 21.390625 20.328125 13.890625 
Q 24.171875 6.390625 31.78125 6.390625 
Q 39.453125 6.390625 43.28125 13.890625 
Q 47.125 21.390625 47.125 36.375 
Q 47.125 51.421875 43.28125 58.90625 
Q 39.453125 66.40625 31.78125 66.40625 
z
M 31.78125 74.21875 
Q 44.046875 74.21875 50.515625 64.515625 
Q 56.984375 54.828125 56.984375 36.375 
Q 56.984375 17.96875 50.515625 8.265625 
Q 44.046875 -1.421875 31.78125 -1.421875 
Q 19.53125 -1.421875 13.0625 8.265625 
Q 6.59375 17.96875 6.59375 36.375 
Q 6.59375 54.828125 13.0625 64.515625 
Q 19.53125 74.21875 31.78125 74.21875 
z
" id="DejaVuSans-48"/>
        <path d="M 12.40625 8.296875 
L 28.515625 8.296875 
L 28.515625 63.921875 
L 10.984375 60.40625 
L 10.984375 69.390625 
L 28.421875 72.90625 
L 38.28125 72.90625 
L 38.28125 8.296875 
L 54.390625 8.296875 
L 54.390625 0 
L 12.40625 0 
z
" id="DejaVuSans-49"/>
        <path d="M 10.984375 1.515625 
L 10.984375 10.5 
Q 14.703125 8.734375 18.5 7.8125 
Q 22.3125 6.890625 25.984375 6.890625 
Q 35.75 6.890625 40.890625 13.453125 
Q 46.046875 20.015625 46.78125 33.40625 
Q 43.953125 29.203125 39.59375 26.953125 
Q 35.25 24.703125 29.984375 24.703125 
Q 19.046875 24.703125 12.671875 31.3125 
Q 6.296875 37.9375 6.296875 49.421875 
Q 6.296875 60.640625 12.9375 67.421875 
Q 19.578125 74.21875 30.609375 74.21875 
Q 43.265625 74.21875 49.921875 64.515625 
Q 56.59375 54.828125 56.59375 36.375 
Q 56.59375 19.140625 48.40625 8.859375 
Q 40.234375 -1.421875 26.421875 -1.421875 
Q 22.703125 -1.421875 18.890625 -0.6875 
Q 15.09375 0.046875 10.984375 1.515625 
z
M 30.609375 32.421875 
Q 37.25 32.421875 41.125 36.953125 
Q 45.015625 41.5 45.015625 49.421875 
Q 45.015625 57.28125 41.125 61.84375 
Q 37.25 66.40625 30.609375 66.40625 
Q 23.96875 66.40625 20.09375 61.84375 
Q 16.21875 57.28125 16.21875 49.421875 
Q 16.21875 41.5 20.09375 36.953125 
Q 23.96875 32.421875 30.609375 32.421875 
z
" id="DejaVuSans-57"/>
        <path d="M 4.890625 31.390625 
L 31.203125 31.390625 
L 31.203125 23.390625 
L 4.890625 23.390625 
z
" id="DejaVuSans-45"/>
       </defs>
       <use xlink:href="#DejaVuSans-50"/>
       <use x="63.623047" xlink:href="#DejaVuSans-48"/>
       <use x="127.246094" xlink:href="#DejaVuSans-49"/>
       <use x="190.869141" xlink:href="#DejaVuSans-57"/>
       <use x="254.492188" xlink:href="#DejaVuSans-45"/>
       <use x="290.576172" xlink:href="#DejaVuSans-48"/>
       <use x="354.199219" xlink:href="#DejaVuSans-57"/>
      </g>
     </g>
    </g>
    <g id="xtick_2">
     <g id="line2d_3">
      <path clip-path="url(#p057e2e6a9f)" d="M 164.51797 384.48 
L 164.51797 51.84 
" style="fill:none;stroke:#808080;stroke-linecap:square;stroke-opacity:0.2;"/>
     </g>
     <g id="line2d_4">
      <g>
       <use style="stroke:#000000;stroke-width:0.8;" x="164.51797" xlink:href="#mb714876d9a" y="384.48"/>
      </g>
     </g>
     <g id="text_2">
      <!-- 2019-11 -->
      <g transform="translate(143.626564 399.078438)scale(0.1 -0.1)">
       <use xlink:href="#DejaVuSans-50"/>
       <use x="63.623047" xlink:href="#DejaVuSans-48"/>
       <use x="127.246094" xlink:href="#DejaVuSans-49"/>
       <use x="190.869141" xlink:href="#DejaVuSans-57"/>
       <use x="254.492188" xlink:href="#DejaVuSans-45"/>
       <use x="290.576172" xlink:href="#DejaVuSans-49"/>
       <use x="354.199219" xlink:href="#DejaVuSans-49"/>
      </g>
     </g>
    </g>
    <g id="xtick_3">
     <g id="line2d_5">
      <path clip-path="url(#p057e2e6a9f)" d="M 224.486258 384.48 
L 224.486258 51.84 
" style="fill:none;stroke:#808080;stroke-linecap:square;stroke-opacity:0.2;"/>
     </g>
     <g id="line2d_6">
      <g>
       <use style="stroke:#000000;stroke-width:0.8;" x="224.486258" xlink:href="#mb714876d9a" y="384.48"/>
      </g>
     </g>
     <g id="text_3">
      <!-- 2020-01 -->
      <g transform="translate(203.594852 399.078438)scale(0.1 -0.1)">
       <use xlink:href="#DejaVuSans-50"/>
       <use x="63.623047" xlink:href="#DejaVuSans-48"/>
       <use x="127.246094" xlink:href="#DejaVuSans-50"/>
       <use x="190.869141" xlink:href="#DejaVuSans-48"/>
       <use x="254.492188" xlink:href="#DejaVuSans-45"/>
       <use x="290.576172" xlink:href="#DejaVuSans-48"/>
       <use x="354.199219" xlink:href="#DejaVuSans-49"/>
      </g>
     </g>
    </g>
    <g id="xtick_4">
     <g id="line2d_7">
      <path clip-path="url(#p057e2e6a9f)" d="M 283.471459 384.48 
L 283.471459 51.84 
" style="fill:none;stroke:#808080;stroke-linecap:square;stroke-opacity:0.2;"/>
     </g>
     <g id="line2d_8">
      <g>
       <use style="stroke:#000000;stroke-width:0.8;" x="283.471459" xlink:href="#mb714876d9a" y="384.48"/>
      </g>
     </g>
     <g id="text_4">
      <!-- 2020-03 -->
      <g transform="translate(262.580053 399.078438)scale(0.1 -0.1)">
       <defs>
        <path d="M 40.578125 39.3125 
Q 47.65625 37.796875 51.625 33 
Q 55.609375 28.21875 55.609375 21.1875 
Q 55.609375 10.40625 48.1875 4.484375 
Q 40.765625 -1.421875 27.09375 -1.421875 
Q 22.515625 -1.421875 17.65625 -0.515625 
Q 12.796875 0.390625 7.625 2.203125 
L 7.625 11.71875 
Q 11.71875 9.328125 16.59375 8.109375 
Q 21.484375 6.890625 26.8125 6.890625 
Q 36.078125 6.890625 40.9375 10.546875 
Q 45.796875 14.203125 45.796875 21.1875 
Q 45.796875 27.640625 41.28125 31.265625 
Q 36.765625 34.90625 28.71875 34.90625 
L 20.21875 34.90625 
L 20.21875 43.015625 
L 29.109375 43.015625 
Q 36.375 43.015625 40.234375 45.921875 
Q 44.09375 48.828125 44.09375 54.296875 
Q 44.09375 59.90625 40.109375 62.90625 
Q 36.140625 65.921875 28.71875 65.921875 
Q 24.65625 65.921875 20.015625 65.03125 
Q 15.375 64.15625 9.8125 62.3125 
L 9.8125 71.09375 
Q 15.4375 72.65625 20.34375 73.4375 
Q 25.25 74.21875 29.59375 74.21875 
Q 40.828125 74.21875 47.359375 69.109375 
Q 53.90625 64.015625 53.90625 55.328125 
Q 53.90625 49.265625 50.4375 45.09375 
Q 46.96875 40.921875 40.578125 39.3125 
z
" id="DejaVuSans-51"/>
       </defs>
       <use xlink:href="#DejaVuSans-50"/>
       <use x="63.623047" xlink:href="#DejaVuSans-48"/>
       <use x="127.246094" xlink:href="#DejaVuSans-50"/>
       <use x="190.869141" xlink:href="#DejaVuSans-48"/>
       <use x="254.492188" xlink:href="#DejaVuSans-45"/>
       <use x="290.576172" xlink:href="#DejaVuSans-48"/>
       <use x="354.199219" xlink:href="#DejaVuSans-51"/>
      </g>
     </g>
    </g>
    <g id="xtick_5">
     <g id="line2d_9">
      <path clip-path="url(#p057e2e6a9f)" d="M 343.439746 384.48 
L 343.439746 51.84 
" style="fill:none;stroke:#808080;stroke-linecap:square;stroke-opacity:0.2;"/>
     </g>
     <g id="line2d_10">
      <g>
       <use style="stroke:#000000;stroke-width:0.8;" x="343.439746" xlink:href="#mb714876d9a" y="384.48"/>
      </g>
     </g>
     <g id="text_5">
      <!-- 2020-05 -->
      <g transform="translate(322.54834 399.078438)scale(0.1 -0.1)">
       <defs>
        <path d="M 10.796875 72.90625 
L 49.515625 72.90625 
L 49.515625 64.59375 
L 19.828125 64.59375 
L 19.828125 46.734375 
Q 21.96875 47.46875 24.109375 47.828125 
Q 26.265625 48.1875 28.421875 48.1875 
Q 40.625 48.1875 47.75 41.5 
Q 54.890625 34.8125 54.890625 23.390625 
Q 54.890625 11.625 47.5625 5.09375 
Q 40.234375 -1.421875 26.90625 -1.421875 
Q 22.3125 -1.421875 17.546875 -0.640625 
Q 12.796875 0.140625 7.71875 1.703125 
L 7.71875 11.625 
Q 12.109375 9.234375 16.796875 8.0625 
Q 21.484375 6.890625 26.703125 6.890625 
Q 35.15625 6.890625 40.078125 11.328125 
Q 45.015625 15.765625 45.015625 23.390625 
Q 45.015625 31 40.078125 35.4375 
Q 35.15625 39.890625 26.703125 39.890625 
Q 22.75 39.890625 18.8125 39.015625 
Q 14.890625 38.140625 10.796875 36.28125 
z
" id="DejaVuSans-53"/>
       </defs>
       <use xlink:href="#DejaVuSans-50"/>
       <use x="63.623047" xlink:href="#DejaVuSans-48"/>
       <use x="127.246094" xlink:href="#DejaVuSans-50"/>
       <use x="190.869141" xlink:href="#DejaVuSans-48"/>
       <use x="254.492188" xlink:href="#DejaVuSans-45"/>
       <use x="290.576172" xlink:href="#DejaVuSans-48"/>
       <use x="354.199219" xlink:href="#DejaVuSans-53"/>
      </g>
     </g>
    </g>
    <g id="xtick_6">
     <g id="line2d_11">
      <path clip-path="url(#p057e2e6a9f)" d="M 403.408034 384.48 
L 403.408034 51.84 
" style="fill:none;stroke:#808080;stroke-linecap:square;stroke-opacity:0.2;"/>
     </g>
     <g id="line2d_12">
      <g>
       <use style="stroke:#000000;stroke-width:0.8;" x="403.408034" xlink:href="#mb714876d9a" y="384.48"/>
      </g>
     </g>
     <g id="text_6">
      <!-- 2020-07 -->
      <g transform="translate(382.516628 399.078438)scale(0.1 -0.1)">
       <defs>
        <path d="M 8.203125 72.90625 
L 55.078125 72.90625 
L 55.078125 68.703125 
L 28.609375 0 
L 18.3125 0 
L 43.21875 64.59375 
L 8.203125 64.59375 
z
" id="DejaVuSans-55"/>
       </defs>
       <use xlink:href="#DejaVuSans-50"/>
       <use x="63.623047" xlink:href="#DejaVuSans-48"/>
       <use x="127.246094" xlink:href="#DejaVuSans-50"/>
       <use x="190.869141" xlink:href="#DejaVuSans-48"/>
       <use x="254.492188" xlink:href="#DejaVuSans-45"/>
       <use x="290.576172" xlink:href="#DejaVuSans-48"/>
       <use x="354.199219" xlink:href="#DejaVuSans-55"/>
      </g>
     </g>
    </g>
    <g id="xtick_7">
     <g id="line2d_13">
      <path clip-path="url(#p057e2e6a9f)" d="M 464.359408 384.48 
L 464.359408 51.84 
" style="fill:none;stroke:#808080;stroke-linecap:square;stroke-opacity:0.2;"/>
     </g>
     <g id="line2d_14">
      <g>
       <use style="stroke:#000000;stroke-width:0.8;" x="464.359408" xlink:href="#mb714876d9a" y="384.48"/>
      </g>
     </g>
     <g id="text_7">
      <!-- 2020-09 -->
      <g transform="translate(443.468002 399.078438)scale(0.1 -0.1)">
       <use xlink:href="#DejaVuSans-50"/>
       <use x="63.623047" xlink:href="#DejaVuSans-48"/>
       <use x="127.246094" xlink:href="#DejaVuSans-50"/>
       <use x="190.869141" xlink:href="#DejaVuSans-48"/>
       <use x="254.492188" xlink:href="#DejaVuSans-45"/>
       <use x="290.576172" xlink:href="#DejaVuSans-48"/>
       <use x="354.199219" xlink:href="#DejaVuSans-57"/>
      </g>
     </g>
    </g>
    <g id="xtick_8">
     <g id="line2d_15">
      <path clip-path="url(#p057e2e6a9f)" d="M 524.327696 384.48 
L 524.327696 51.84 
" style="fill:none;stroke:#808080;stroke-linecap:square;stroke-opacity:0.2;"/>
     </g>
     <g id="line2d_16">
      <g>
       <use style="stroke:#000000;stroke-width:0.8;" x="524.327696" xlink:href="#mb714876d9a" y="384.48"/>
      </g>
     </g>
     <g id="text_8">
      <!-- 2020-11 -->
      <g transform="translate(503.436289 399.078438)scale(0.1 -0.1)">
       <use xlink:href="#DejaVuSans-50"/>
       <use x="63.623047" xlink:href="#DejaVuSans-48"/>
       <use x="127.246094" xlink:href="#DejaVuSans-50"/>
       <use x="190.869141" xlink:href="#DejaVuSans-48"/>
       <use x="254.492188" xlink:href="#DejaVuSans-45"/>
       <use x="290.576172" xlink:href="#DejaVuSans-49"/>
       <use x="354.199219" xlink:href="#DejaVuSans-49"/>
      </g>
     </g>
    </g>
    <g id="xtick_9">
     <g id="line2d_17">
      <path clip-path="url(#p057e2e6a9f)" d="M 584.295983 384.48 
L 584.295983 51.84 
" style="fill:none;stroke:#808080;stroke-linecap:square;stroke-opacity:0.2;"/>
     </g>
     <g id="line2d_18">
      <g>
       <use style="stroke:#000000;stroke-width:0.8;" x="584.295983" xlink:href="#mb714876d9a" y="384.48"/>
      </g>
     </g>
     <g id="text_9">
      <!-- 2021-01 -->
      <g transform="translate(563.404577 399.078438)scale(0.1 -0.1)">
       <use xlink:href="#DejaVuSans-50"/>
       <use x="63.623047" xlink:href="#DejaVuSans-48"/>
       <use x="127.246094" xlink:href="#DejaVuSans-50"/>
       <use x="190.869141" xlink:href="#DejaVuSans-49"/>
       <use x="254.492188" xlink:href="#DejaVuSans-45"/>
       <use x="290.576172" xlink:href="#DejaVuSans-48"/>
       <use x="354.199219" xlink:href="#DejaVuSans-49"/>
      </g>
     </g>
    </g>
    <g id="xtick_10">
     <g id="line2d_19">
      <path clip-path="url(#p057e2e6a9f)" d="M 642.298097 384.48 
L 642.298097 51.84 
" style="fill:none;stroke:#808080;stroke-linecap:square;stroke-opacity:0.2;"/>
     </g>
     <g id="line2d_20">
      <g>
       <use style="stroke:#000000;stroke-width:0.8;" x="642.298097" xlink:href="#mb714876d9a" y="384.48"/>
      </g>
     </g>
     <g id="text_10">
      <!-- 2021-03 -->
      <g transform="translate(621.406691 399.078438)scale(0.1 -0.1)">
       <use xlink:href="#DejaVuSans-50"/>
       <use x="63.623047" xlink:href="#DejaVuSans-48"/>
       <use x="127.246094" xlink:href="#DejaVuSans-50"/>
       <use x="190.869141" xlink:href="#DejaVuSans-49"/>
       <use x="254.492188" xlink:href="#DejaVuSans-45"/>
       <use x="290.576172" xlink:href="#DejaVuSans-48"/>
       <use x="354.199219" xlink:href="#DejaVuSans-51"/>
      </g>
     </g>
    </g>
    <g id="text_11">
     <!-- ds -->
     <g transform="translate(363.221094 412.756563)scale(0.1 -0.1)">
      <defs>
       <path d="M 45.40625 46.390625 
L 45.40625 75.984375 
L 54.390625 75.984375 
L 54.390625 0 
L 45.40625 0 
L 45.40625 8.203125 
Q 42.578125 3.328125 38.25 0.953125 
Q 33.9375 -1.421875 27.875 -1.421875 
Q 17.96875 -1.421875 11.734375 6.484375 
Q 5.515625 14.40625 5.515625 27.296875 
Q 5.515625 40.1875 11.734375 48.09375 
Q 17.96875 56 27.875 56 
Q 33.9375 56 38.25 53.625 
Q 42.578125 51.265625 45.40625 46.390625 
z
M 14.796875 27.296875 
Q 14.796875 17.390625 18.875 11.75 
Q 22.953125 6.109375 30.078125 6.109375 
Q 37.203125 6.109375 41.296875 11.75 
Q 45.40625 17.390625 45.40625 27.296875 
Q 45.40625 37.203125 41.296875 42.84375 
Q 37.203125 48.484375 30.078125 48.484375 
Q 22.953125 48.484375 18.875 42.84375 
Q 14.796875 37.203125 14.796875 27.296875 
z
" id="DejaVuSans-100"/>
       <path d="M 44.28125 53.078125 
L 44.28125 44.578125 
Q 40.484375 46.53125 36.375 47.5 
Q 32.28125 48.484375 27.875 48.484375 
Q 21.1875 48.484375 17.84375 46.4375 
Q 14.5 44.390625 14.5 40.28125 
Q 14.5 37.15625 16.890625 35.375 
Q 19.28125 33.59375 26.515625 31.984375 
L 29.59375 31.296875 
Q 39.15625 29.25 43.1875 25.515625 
Q 47.21875 21.78125 47.21875 15.09375 
Q 47.21875 7.46875 41.1875 3.015625 
Q 35.15625 -1.421875 24.609375 -1.421875 
Q 20.21875 -1.421875 15.453125 -0.5625 
Q 10.6875 0.296875 5.421875 2 
L 5.421875 11.28125 
Q 10.40625 8.6875 15.234375 7.390625 
Q 20.0625 6.109375 24.8125 6.109375 
Q 31.15625 6.109375 34.5625 8.28125 
Q 37.984375 10.453125 37.984375 14.40625 
Q 37.984375 18.0625 35.515625 20.015625 
Q 33.0625 21.96875 24.703125 23.78125 
L 21.578125 24.515625 
Q 13.234375 26.265625 9.515625 29.90625 
Q 5.8125 33.546875 5.8125 39.890625 
Q 5.8125 47.609375 11.28125 51.796875 
Q 16.75 56 26.8125 56 
Q 31.78125 56 36.171875 55.265625 
Q 40.578125 54.546875 44.28125 53.078125 
z
" id="DejaVuSans-115"/>
      </defs>
      <use xlink:href="#DejaVuSans-100"/>
      <use x="63.476562" xlink:href="#DejaVuSans-115"/>
     </g>
    </g>
   </g>
   <g id="matplotlib.axis_2">
    <g id="ytick_1">
     <g id="line2d_21">
      <path clip-path="url(#p057e2e6a9f)" d="M 90 345.339589 
L 648 345.339589 
" style="fill:none;stroke:#808080;stroke-linecap:square;stroke-opacity:0.2;"/>
     </g>
     <g id="line2d_22">
      <defs>
       <path d="M 0 0 
L -3.5 0 
" id="me1f53a6e51" style="stroke:#000000;stroke-width:0.8;"/>
      </defs>
      <g>
       <use style="stroke:#000000;stroke-width:0.8;" x="90" xlink:href="#me1f53a6e51" y="345.339589"/>
      </g>
     </g>
     <g id="text_12">
      <!-- −1.75 -->
      <g transform="translate(52.354687 349.138807)scale(0.1 -0.1)">
       <defs>
        <path d="M 10.59375 35.5 
L 73.1875 35.5 
L 73.1875 27.203125 
L 10.59375 27.203125 
z
" id="DejaVuSans-8722"/>
        <path d="M 10.6875 12.40625 
L 21 12.40625 
L 21 0 
L 10.6875 0 
z
" id="DejaVuSans-46"/>
       </defs>
       <use xlink:href="#DejaVuSans-8722"/>
       <use x="83.789062" xlink:href="#DejaVuSans-49"/>
       <use x="147.412109" xlink:href="#DejaVuSans-46"/>
       <use x="179.199219" xlink:href="#DejaVuSans-55"/>
       <use x="242.822266" xlink:href="#DejaVuSans-53"/>
      </g>
     </g>
    </g>
    <g id="ytick_2">
     <g id="line2d_23">
      <path clip-path="url(#p057e2e6a9f)" d="M 90 305.571076 
L 648 305.571076 
" style="fill:none;stroke:#808080;stroke-linecap:square;stroke-opacity:0.2;"/>
     </g>
     <g id="line2d_24">
      <g>
       <use style="stroke:#000000;stroke-width:0.8;" x="90" xlink:href="#me1f53a6e51" y="305.571076"/>
      </g>
     </g>
     <g id="text_13">
      <!-- −1.50 -->
      <g transform="translate(52.354687 309.370295)scale(0.1 -0.1)">
       <use xlink:href="#DejaVuSans-8722"/>
       <use x="83.789062" xlink:href="#DejaVuSans-49"/>
       <use x="147.412109" xlink:href="#DejaVuSans-46"/>
       <use x="179.199219" xlink:href="#DejaVuSans-53"/>
       <use x="242.822266" xlink:href="#DejaVuSans-48"/>
      </g>
     </g>
    </g>
    <g id="ytick_3">
     <g id="line2d_25">
      <path clip-path="url(#p057e2e6a9f)" d="M 90 265.802563 
L 648 265.802563 
" style="fill:none;stroke:#808080;stroke-linecap:square;stroke-opacity:0.2;"/>
     </g>
     <g id="line2d_26">
      <g>
       <use style="stroke:#000000;stroke-width:0.8;" x="90" xlink:href="#me1f53a6e51" y="265.802563"/>
      </g>
     </g>
     <g id="text_14">
      <!-- −1.25 -->
      <g transform="translate(52.354687 269.601782)scale(0.1 -0.1)">
       <use xlink:href="#DejaVuSans-8722"/>
       <use x="83.789062" xlink:href="#DejaVuSans-49"/>
       <use x="147.412109" xlink:href="#DejaVuSans-46"/>
       <use x="179.199219" xlink:href="#DejaVuSans-50"/>
       <use x="242.822266" xlink:href="#DejaVuSans-53"/>
      </g>
     </g>
    </g>
    <g id="ytick_4">
     <g id="line2d_27">
      <path clip-path="url(#p057e2e6a9f)" d="M 90 226.034051 
L 648 226.034051 
" style="fill:none;stroke:#808080;stroke-linecap:square;stroke-opacity:0.2;"/>
     </g>
     <g id="line2d_28">
      <g>
       <use style="stroke:#000000;stroke-width:0.8;" x="90" xlink:href="#me1f53a6e51" y="226.034051"/>
      </g>
     </g>
     <g id="text_15">
      <!-- −1.00 -->
      <g transform="translate(52.354687 229.833269)scale(0.1 -0.1)">
       <use xlink:href="#DejaVuSans-8722"/>
       <use x="83.789062" xlink:href="#DejaVuSans-49"/>
       <use x="147.412109" xlink:href="#DejaVuSans-46"/>
       <use x="179.199219" xlink:href="#DejaVuSans-48"/>
       <use x="242.822266" xlink:href="#DejaVuSans-48"/>
      </g>
     </g>
    </g>
    <g id="ytick_5">
     <g id="line2d_29">
      <path clip-path="url(#p057e2e6a9f)" d="M 90 186.265538 
L 648 186.265538 
" style="fill:none;stroke:#808080;stroke-linecap:square;stroke-opacity:0.2;"/>
     </g>
     <g id="line2d_30">
      <g>
       <use style="stroke:#000000;stroke-width:0.8;" x="90" xlink:href="#me1f53a6e51" y="186.265538"/>
      </g>
     </g>
     <g id="text_16">
      <!-- −0.75 -->
      <g transform="translate(52.354687 190.064757)scale(0.1 -0.1)">
       <use xlink:href="#DejaVuSans-8722"/>
       <use x="83.789062" xlink:href="#DejaVuSans-48"/>
       <use x="147.412109" xlink:href="#DejaVuSans-46"/>
       <use x="179.199219" xlink:href="#DejaVuSans-55"/>
       <use x="242.822266" xlink:href="#DejaVuSans-53"/>
      </g>
     </g>
    </g>
    <g id="ytick_6">
     <g id="line2d_31">
      <path clip-path="url(#p057e2e6a9f)" d="M 90 146.497025 
L 648 146.497025 
" style="fill:none;stroke:#808080;stroke-linecap:square;stroke-opacity:0.2;"/>
     </g>
     <g id="line2d_32">
      <g>
       <use style="stroke:#000000;stroke-width:0.8;" x="90" xlink:href="#me1f53a6e51" y="146.497025"/>
      </g>
     </g>
     <g id="text_17">
      <!-- −0.50 -->
      <g transform="translate(52.354687 150.296244)scale(0.1 -0.1)">
       <use xlink:href="#DejaVuSans-8722"/>
       <use x="83.789062" xlink:href="#DejaVuSans-48"/>
       <use x="147.412109" xlink:href="#DejaVuSans-46"/>
       <use x="179.199219" xlink:href="#DejaVuSans-53"/>
       <use x="242.822266" xlink:href="#DejaVuSans-48"/>
      </g>
     </g>
    </g>
    <g id="ytick_7">
     <g id="line2d_33">
      <path clip-path="url(#p057e2e6a9f)" d="M 90 106.728513 
L 648 106.728513 
" style="fill:none;stroke:#808080;stroke-linecap:square;stroke-opacity:0.2;"/>
     </g>
     <g id="line2d_34">
      <g>
       <use style="stroke:#000000;stroke-width:0.8;" x="90" xlink:href="#me1f53a6e51" y="106.728513"/>
      </g>
     </g>
     <g id="text_18">
      <!-- −0.25 -->
      <g transform="translate(52.354687 110.527731)scale(0.1 -0.1)">
       <use xlink:href="#DejaVuSans-8722"/>
       <use x="83.789062" xlink:href="#DejaVuSans-48"/>
       <use x="147.412109" xlink:href="#DejaVuSans-46"/>
       <use x="179.199219" xlink:href="#DejaVuSans-50"/>
       <use x="242.822266" xlink:href="#DejaVuSans-53"/>
      </g>
     </g>
    </g>
    <g id="ytick_8">
     <g id="line2d_35">
      <path clip-path="url(#p057e2e6a9f)" d="M 90 66.96 
L 648 66.96 
" style="fill:none;stroke:#808080;stroke-linecap:square;stroke-opacity:0.2;"/>
     </g>
     <g id="line2d_36">
      <g>
       <use style="stroke:#000000;stroke-width:0.8;" x="90" xlink:href="#me1f53a6e51" y="66.96"/>
      </g>
     </g>
     <g id="text_19">
      <!-- 0.00 -->
      <g transform="translate(60.734375 70.759219)scale(0.1 -0.1)">
       <use xlink:href="#DejaVuSans-48"/>
       <use x="63.623047" xlink:href="#DejaVuSans-46"/>
       <use x="95.410156" xlink:href="#DejaVuSans-48"/>
       <use x="159.033203" xlink:href="#DejaVuSans-48"/>
      </g>
     </g>
    </g>
    <g id="text_20">
     <!-- corona_policy -->
     <g transform="translate(45.996875 252.424062)rotate(-90)scale(0.1 -0.1)">
      <defs>
       <path d="M 48.78125 52.59375 
L 48.78125 44.1875 
Q 44.96875 46.296875 41.140625 47.34375 
Q 37.3125 48.390625 33.40625 48.390625 
Q 24.65625 48.390625 19.8125 42.84375 
Q 14.984375 37.3125 14.984375 27.296875 
Q 14.984375 17.28125 19.8125 11.734375 
Q 24.65625 6.203125 33.40625 6.203125 
Q 37.3125 6.203125 41.140625 7.25 
Q 44.96875 8.296875 48.78125 10.40625 
L 48.78125 2.09375 
Q 45.015625 0.34375 40.984375 -0.53125 
Q 36.96875 -1.421875 32.421875 -1.421875 
Q 20.0625 -1.421875 12.78125 6.34375 
Q 5.515625 14.109375 5.515625 27.296875 
Q 5.515625 40.671875 12.859375 48.328125 
Q 20.21875 56 33.015625 56 
Q 37.15625 56 41.109375 55.140625 
Q 45.0625 54.296875 48.78125 52.59375 
z
" id="DejaVuSans-99"/>
       <path d="M 30.609375 48.390625 
Q 23.390625 48.390625 19.1875 42.75 
Q 14.984375 37.109375 14.984375 27.296875 
Q 14.984375 17.484375 19.15625 11.84375 
Q 23.34375 6.203125 30.609375 6.203125 
Q 37.796875 6.203125 41.984375 11.859375 
Q 46.1875 17.53125 46.1875 27.296875 
Q 46.1875 37.015625 41.984375 42.703125 
Q 37.796875 48.390625 30.609375 48.390625 
z
M 30.609375 56 
Q 42.328125 56 49.015625 48.375 
Q 55.71875 40.765625 55.71875 27.296875 
Q 55.71875 13.875 49.015625 6.21875 
Q 42.328125 -1.421875 30.609375 -1.421875 
Q 18.84375 -1.421875 12.171875 6.21875 
Q 5.515625 13.875 5.515625 27.296875 
Q 5.515625 40.765625 12.171875 48.375 
Q 18.84375 56 30.609375 56 
z
" id="DejaVuSans-111"/>
       <path d="M 41.109375 46.296875 
Q 39.59375 47.171875 37.8125 47.578125 
Q 36.03125 48 33.890625 48 
Q 26.265625 48 22.1875 43.046875 
Q 18.109375 38.09375 18.109375 28.8125 
L 18.109375 0 
L 9.078125 0 
L 9.078125 54.6875 
L 18.109375 54.6875 
L 18.109375 46.1875 
Q 20.953125 51.171875 25.484375 53.578125 
Q 30.03125 56 36.53125 56 
Q 37.453125 56 38.578125 55.875 
Q 39.703125 55.765625 41.0625 55.515625 
z
" id="DejaVuSans-114"/>
       <path d="M 54.890625 33.015625 
L 54.890625 0 
L 45.90625 0 
L 45.90625 32.71875 
Q 45.90625 40.484375 42.875 44.328125 
Q 39.84375 48.1875 33.796875 48.1875 
Q 26.515625 48.1875 22.3125 43.546875 
Q 18.109375 38.921875 18.109375 30.90625 
L 18.109375 0 
L 9.078125 0 
L 9.078125 54.6875 
L 18.109375 54.6875 
L 18.109375 46.1875 
Q 21.34375 51.125 25.703125 53.5625 
Q 30.078125 56 35.796875 56 
Q 45.21875 56 50.046875 50.171875 
Q 54.890625 44.34375 54.890625 33.015625 
z
" id="DejaVuSans-110"/>
       <path d="M 34.28125 27.484375 
Q 23.390625 27.484375 19.1875 25 
Q 14.984375 22.515625 14.984375 16.5 
Q 14.984375 11.71875 18.140625 8.90625 
Q 21.296875 6.109375 26.703125 6.109375 
Q 34.1875 6.109375 38.703125 11.40625 
Q 43.21875 16.703125 43.21875 25.484375 
L 43.21875 27.484375 
z
M 52.203125 31.203125 
L 52.203125 0 
L 43.21875 0 
L 43.21875 8.296875 
Q 40.140625 3.328125 35.546875 0.953125 
Q 30.953125 -1.421875 24.3125 -1.421875 
Q 15.921875 -1.421875 10.953125 3.296875 
Q 6 8.015625 6 15.921875 
Q 6 25.140625 12.171875 29.828125 
Q 18.359375 34.515625 30.609375 34.515625 
L 43.21875 34.515625 
L 43.21875 35.40625 
Q 43.21875 41.609375 39.140625 45 
Q 35.0625 48.390625 27.6875 48.390625 
Q 23 48.390625 18.546875 47.265625 
Q 14.109375 46.140625 10.015625 43.890625 
L 10.015625 52.203125 
Q 14.9375 54.109375 19.578125 55.046875 
Q 24.21875 56 28.609375 56 
Q 40.484375 56 46.34375 49.84375 
Q 52.203125 43.703125 52.203125 31.203125 
z
" id="DejaVuSans-97"/>
       <path d="M 50.984375 -16.609375 
L 50.984375 -23.578125 
L -0.984375 -23.578125 
L -0.984375 -16.609375 
z
" id="DejaVuSans-95"/>
       <path d="M 18.109375 8.203125 
L 18.109375 -20.796875 
L 9.078125 -20.796875 
L 9.078125 54.6875 
L 18.109375 54.6875 
L 18.109375 46.390625 
Q 20.953125 51.265625 25.265625 53.625 
Q 29.59375 56 35.59375 56 
Q 45.5625 56 51.78125 48.09375 
Q 58.015625 40.1875 58.015625 27.296875 
Q 58.015625 14.40625 51.78125 6.484375 
Q 45.5625 -1.421875 35.59375 -1.421875 
Q 29.59375 -1.421875 25.265625 0.953125 
Q 20.953125 3.328125 18.109375 8.203125 
z
M 48.6875 27.296875 
Q 48.6875 37.203125 44.609375 42.84375 
Q 40.53125 48.484375 33.40625 48.484375 
Q 26.265625 48.484375 22.1875 42.84375 
Q 18.109375 37.203125 18.109375 27.296875 
Q 18.109375 17.390625 22.1875 11.75 
Q 26.265625 6.109375 33.40625 6.109375 
Q 40.53125 6.109375 44.609375 11.75 
Q 48.6875 17.390625 48.6875 27.296875 
z
" id="DejaVuSans-112"/>
       <path d="M 9.421875 75.984375 
L 18.40625 75.984375 
L 18.40625 0 
L 9.421875 0 
z
" id="DejaVuSans-108"/>
       <path d="M 9.421875 54.6875 
L 18.40625 54.6875 
L 18.40625 0 
L 9.421875 0 
z
M 9.421875 75.984375 
L 18.40625 75.984375 
L 18.40625 64.59375 
L 9.421875 64.59375 
z
" id="DejaVuSans-105"/>
       <path d="M 32.171875 -5.078125 
Q 28.375 -14.84375 24.75 -17.8125 
Q 21.140625 -20.796875 15.09375 -20.796875 
L 7.90625 -20.796875 
L 7.90625 -13.28125 
L 13.1875 -13.28125 
Q 16.890625 -13.28125 18.9375 -11.515625 
Q 21 -9.765625 23.484375 -3.21875 
L 25.09375 0.875 
L 2.984375 54.6875 
L 12.5 54.6875 
L 29.59375 11.921875 
L 46.6875 54.6875 
L 56.203125 54.6875 
z
" id="DejaVuSans-121"/>
      </defs>
      <use xlink:href="#DejaVuSans-99"/>
      <use x="54.980469" xlink:href="#DejaVuSans-111"/>
      <use x="116.162109" xlink:href="#DejaVuSans-114"/>
      <use x="155.025391" xlink:href="#DejaVuSans-111"/>
      <use x="216.207031" xlink:href="#DejaVuSans-110"/>
      <use x="279.585938" xlink:href="#DejaVuSans-97"/>
      <use x="340.865234" xlink:href="#DejaVuSans-95"/>
      <use x="390.865234" xlink:href="#DejaVuSans-112"/>
      <use x="454.341797" xlink:href="#DejaVuSans-111"/>
      <use x="515.523438" xlink:href="#DejaVuSans-108"/>
      <use x="543.306641" xlink:href="#DejaVuSans-105"/>
      <use x="571.089844" xlink:href="#DejaVuSans-99"/>
      <use x="626.070312" xlink:href="#DejaVuSans-121"/>
     </g>
    </g>
   </g>
   <g id="line2d_37">
    <path clip-path="url(#p057e2e6a9f)" d="M 115.363636 66.96 
L 246.114165 66.96 
L 247.097252 206.672454 
L 248.080338 181.905638 
L 249.063425 200.757277 
L 250.046512 295.013509 
L 251.029598 369.36 
L 252.995772 100.095641 
L 253.978858 66.96 
L 300.183932 66.96 
L 301.167019 206.672454 
L 302.150106 181.905638 
L 303.133192 200.757277 
L 304.116279 295.013509 
L 305.099366 369.36 
L 307.065539 100.095641 
L 308.048626 66.96 
L 328.693446 66.96 
L 329.676533 206.672454 
L 330.659619 181.905638 
L 331.642706 200.757277 
L 332.625793 295.013509 
L 333.608879 369.36 
L 335.575053 100.095641 
L 336.55814 66.96 
L 622.636364 66.96 
L 622.636364 66.96 
" style="fill:none;stroke:#0072b2;stroke-linecap:square;stroke-width:1.5;"/>
   </g>
   <g id="patch_3">
    <path d="M 90 384.48 
L 90 51.84 
" style="fill:none;stroke:#000000;stroke-linecap:square;stroke-linejoin:miter;stroke-width:0.8;"/>
   </g>
   <g id="patch_4">
    <path d="M 648 384.48 
L 648 51.84 
" style="fill:none;stroke:#000000;stroke-linecap:square;stroke-linejoin:miter;stroke-width:0.8;"/>
   </g>
   <g id="patch_5">
    <path d="M 90 384.48 
L 648 384.48 
" style="fill:none;stroke:#000000;stroke-linecap:square;stroke-linejoin:miter;stroke-width:0.8;"/>
   </g>
   <g id="patch_6">
    <path d="M 90 51.84 
L 648 51.84 
" style="fill:none;stroke:#000000;stroke-linecap:square;stroke-linejoin:miter;stroke-width:0.8;"/>
   </g>
  </g>
 </g>
 <defs>
  <clipPath id="p057e2e6a9f">
   <rect height="332.64" width="558" x="90" y="51.84"/>
  </clipPath>
 </defs>
</svg>
