<?xml version="1.0" encoding="utf-8" standalone="no"?>
<!DOCTYPE svg PUBLIC "-//W3C//DTD SVG 1.1//EN"
  "http://www.w3.org/Graphics/SVG/1.1/DTD/svg11.dtd">
<!-- Created with matplotlib (https://matplotlib.org/) -->
<svg height="432pt" version="1.1" viewBox="0 0 720 432" width="720pt" xmlns="http://www.w3.org/2000/svg" xmlns:xlink="http://www.w3.org/1999/xlink">
 <metadata>
  <rdf:RDF xmlns:cc="http://creativecommons.org/ns#" xmlns:dc="http://purl.org/dc/elements/1.1/" xmlns:rdf="http://www.w3.org/1999/02/22-rdf-syntax-ns#">
   <cc:Work>
    <dc:type rdf:resource="http://purl.org/dc/dcmitype/StillImage"/>
    <dc:date>2021-02-17T13:30:07.711601</dc:date>
    <dc:format>image/svg+xml</dc:format>
    <dc:creator>
     <cc:Agent>
      <dc:title>Matplotlib v3.3.2, https://matplotlib.org/</dc:title>
     </cc:Agent>
    </dc:creator>
   </cc:Work>
  </rdf:RDF>
 </metadata>
 <defs>
  <style type="text/css">*{stroke-linecap:butt;stroke-linejoin:round;}</style>
 </defs>
 <g id="figure_1">
  <g id="patch_1">
   <path d="M 0 432 
L 720 432 
L 720 0 
L 0 0 
z
" style="fill:#ffffff;"/>
  </g>
  <g id="axes_1">
   <g id="patch_2">
    <path d="M 90 384.48 
L 648 384.48 
L 648 51.84 
L 90 51.84 
z
" style="fill:#ffffff;"/>
   </g>
   <g id="PolyCollection_1">
    <defs>
     <path d="M 115.363636 -137.447722 
L 115.363636 -137.447722 
L 116.753425 -137.447722 
L 118.143213 -137.447722 
L 119.533001 -137.447722 
L 120.92279 -137.447722 
L 122.312578 -137.447722 
L 123.702366 -137.447722 
L 125.092154 -137.447722 
L 126.481943 -137.447722 
L 127.871731 -137.447722 
L 129.261519 -137.447722 
L 130.651308 -137.447722 
L 132.041096 -137.447722 
L 133.430884 -137.447722 
L 134.820672 -137.447722 
L 136.210461 -137.447722 
L 137.600249 -137.447722 
L 138.990037 -137.447722 
L 140.379826 -137.447722 
L 141.769614 -137.447722 
L 143.159402 -137.447722 
L 144.549191 -137.447722 
L 145.938979 -137.447722 
L 147.328767 -137.447722 
L 148.718555 -137.447722 
L 150.108344 -137.447722 
L 151.498132 -137.447722 
L 152.88792 -137.447722 
L 154.277709 -137.447722 
L 155.667497 -137.447722 
L 157.057285 -137.447722 
L 158.447073 -137.447722 
L 159.836862 -137.447722 
L 161.22665 -137.447722 
L 162.616438 -137.447722 
L 164.006227 -137.447722 
L 165.396015 -137.447722 
L 166.785803 -137.447722 
L 168.175592 -137.447722 
L 169.56538 -137.447722 
L 170.955168 -137.447722 
L 172.344956 -137.447722 
L 173.734745 -137.447722 
L 175.124533 -137.447722 
L 176.514321 -137.447722 
L 177.90411 -137.447722 
L 179.293898 -137.447722 
L 180.683686 -137.447722 
L 182.073474 -137.447722 
L 183.463263 -137.447722 
L 184.853051 -137.447722 
L 186.242839 -137.447722 
L 187.632628 -137.447722 
L 189.022416 -137.447722 
L 190.412204 -137.447722 
L 191.801993 -137.447722 
L 193.191781 -137.447722 
L 194.581569 -137.447722 
L 195.971357 -137.447722 
L 197.361146 -137.447722 
L 198.750934 -137.447722 
L 200.140722 -137.447722 
L 201.530511 -137.447722 
L 202.920299 -137.447722 
L 204.310087 -137.447722 
L 205.699875 -137.447722 
L 207.089664 -137.447722 
L 208.479452 -137.447722 
L 209.86924 -137.447722 
L 211.259029 -137.447722 
L 212.648817 -137.447722 
L 214.038605 -137.447722 
L 215.428394 -137.447722 
L 216.818182 -137.447722 
L 218.20797 -137.447722 
L 219.597758 -137.447722 
L 220.987547 -137.447722 
L 222.377335 -137.447722 
L 223.767123 -137.447722 
L 225.156912 -137.447722 
L 226.5467 -137.447722 
L 227.936488 -137.447722 
L 229.326276 -137.447722 
L 230.716065 -137.447722 
L 232.105853 -137.447722 
L 233.495641 -137.447722 
L 234.88543 -137.447722 
L 236.275218 -137.447722 
L 237.665006 -137.447722 
L 239.054795 -137.447722 
L 240.444583 -137.447722 
L 241.834371 -137.447722 
L 243.224159 -137.447722 
L 244.613948 -137.447722 
L 246.003736 -137.447722 
L 247.393524 -137.447722 
L 248.783313 -137.447722 
L 250.173101 -137.447722 
L 251.562889 -137.447722 
L 252.952677 -137.447722 
L 254.342466 -137.447722 
L 255.732254 -137.447722 
L 257.122042 -137.447722 
L 258.511831 -137.447722 
L 259.901619 -137.447722 
L 261.291407 -137.447722 
L 262.681196 -137.447722 
L 264.070984 -137.447722 
L 265.460772 -137.447722 
L 266.85056 -137.447722 
L 268.240349 -137.447722 
L 269.630137 -137.447722 
L 271.019925 -137.447722 
L 272.409714 -137.447722 
L 273.799502 -137.447722 
L 275.18929 -137.447722 
L 276.579078 -137.447722 
L 277.968867 -137.447722 
L 279.358655 -137.447722 
L 280.748443 -137.447722 
L 282.138232 -137.447722 
L 283.52802 -137.447722 
L 284.917808 -137.447722 
L 286.307597 -137.447722 
L 287.697385 -137.447722 
L 289.087173 -137.447722 
L 290.476961 -137.447722 
L 291.86675 -137.447722 
L 293.256538 -137.447722 
L 294.646326 -137.447722 
L 296.036115 -137.447722 
L 297.425903 -137.447722 
L 298.815691 -137.447722 
L 300.205479 -137.447722 
L 301.595268 -137.447722 
L 302.985056 -137.447722 
L 304.374844 -137.447722 
L 305.764633 -137.447722 
L 307.154421 -137.447722 
L 308.544209 -137.447722 
L 309.933998 -137.447722 
L 311.323786 -137.447722 
L 312.713574 -137.447722 
L 314.103362 -137.447722 
L 315.493151 -137.447722 
L 316.882939 -137.447722 
L 318.272727 -137.447722 
L 319.662516 -137.447722 
L 321.052304 -137.447722 
L 322.442092 -137.447722 
L 323.83188 -137.447722 
L 325.221669 -137.447722 
L 326.611457 -137.447722 
L 328.001245 -137.447722 
L 329.391034 -137.447722 
L 330.780822 -137.447722 
L 332.17061 -137.447722 
L 333.560399 -137.447722 
L 334.950187 -137.447722 
L 336.339975 -137.447722 
L 337.729763 -137.447722 
L 339.119552 -137.447722 
L 340.50934 -137.447722 
L 341.899128 -137.447722 
L 343.288917 -137.447722 
L 344.678705 -137.447722 
L 346.068493 -137.447722 
L 347.458281 -137.447722 
L 348.84807 -137.447722 
L 350.237858 -137.447722 
L 351.627646 -137.447722 
L 353.017435 -137.447722 
L 354.407223 -137.447722 
L 355.797011 -137.447722 
L 357.1868 -137.447722 
L 358.576588 -137.447722 
L 359.966376 -137.447722 
L 361.356164 -137.447722 
L 362.745953 -137.447722 
L 364.135741 -137.447722 
L 365.525529 -137.447722 
L 366.915318 -137.447722 
L 368.305106 -137.447722 
L 369.694894 -137.447722 
L 371.084682 -137.447722 
L 372.474471 -137.447722 
L 373.864259 -137.447722 
L 375.254047 -137.447722 
L 376.643836 -137.447722 
L 378.033624 -137.447722 
L 379.423412 -137.447722 
L 380.8132 -137.447722 
L 382.202989 -137.447722 
L 383.592777 -137.447722 
L 384.982565 -137.447722 
L 386.372354 -137.447722 
L 387.762142 -137.447722 
L 389.15193 -137.447722 
L 390.541719 -137.447722 
L 391.931507 -137.447722 
L 393.321295 -137.447722 
L 394.711083 -137.447722 
L 396.100872 -137.447722 
L 397.49066 -137.447722 
L 398.880448 -137.447722 
L 400.270237 -137.447722 
L 401.660025 -137.447722 
L 403.049813 -137.447722 
L 404.439601 -137.447722 
L 405.82939 -137.447722 
L 407.219178 -137.447722 
L 408.608966 -137.447722 
L 409.998755 -137.447722 
L 411.388543 -137.447722 
L 412.778331 -137.447722 
L 414.16812 -137.447722 
L 415.557908 -137.447722 
L 416.947696 -137.447722 
L 418.337484 -137.447722 
L 419.727273 -137.447722 
L 421.117061 -137.447722 
L 422.506849 -137.447722 
L 423.896638 -137.447722 
L 425.286426 -137.447722 
L 426.676214 -137.447722 
L 428.066002 -137.447722 
L 429.455791 -137.447722 
L 430.845579 -137.447722 
L 432.235367 -137.447722 
L 433.625156 -137.447722 
L 435.014944 -137.447722 
L 436.404732 -137.447722 
L 437.794521 -137.447722 
L 439.184309 -137.447722 
L 440.574097 -137.447722 
L 441.963885 -137.447722 
L 443.353674 -137.447722 
L 444.743462 -137.447722 
L 446.13325 -137.447722 
L 447.523039 -137.447722 
L 448.912827 -137.447722 
L 450.302615 -137.447722 
L 451.692403 -137.447722 
L 453.082192 -137.447722 
L 454.47198 -137.447722 
L 455.861768 -137.447722 
L 457.251557 -137.447722 
L 458.641345 -137.447722 
L 460.031133 -137.447722 
L 461.420922 -137.447722 
L 462.81071 -137.447722 
L 464.200498 -137.447722 
L 465.590286 -137.447722 
L 466.980075 -137.447722 
L 468.369863 -137.447722 
L 469.759651 -137.447722 
L 471.14944 -137.447722 
L 472.539228 -137.447722 
L 473.929016 -137.447722 
L 475.318804 -137.447722 
L 476.708593 -137.447722 
L 478.098381 -137.447722 
L 479.488169 -137.447722 
L 480.877958 -137.447722 
L 482.267746 -336.183547 
L 483.657534 -328.075423 
L 485.047323 -346.324377 
L 486.437111 -365.04 
L 487.826899 -220.746535 
L 489.216687 -115.84043 
L 490.606476 -67.771091 
L 491.996264 -97.651003 
L 493.386052 -62.64 
L 494.775841 -137.447722 
L 496.165629 -137.447722 
L 497.555417 -137.447722 
L 498.945205 -137.447722 
L 500.334994 -137.447722 
L 501.724782 -137.447722 
L 503.11457 -137.447722 
L 504.504359 -137.447722 
L 505.894147 -137.447722 
L 507.283935 -137.447722 
L 508.673724 -137.447722 
L 510.063512 -137.447722 
L 511.4533 -137.447722 
L 512.843088 -137.447722 
L 514.232877 -137.447722 
L 515.622665 -137.447722 
L 517.012453 -137.447722 
L 518.402242 -137.447722 
L 519.79203 -137.447722 
L 521.181818 -137.447722 
L 522.571606 -137.447722 
L 523.961395 -137.447722 
L 525.351183 -137.447722 
L 526.740971 -137.447722 
L 528.13076 -137.447722 
L 529.520548 -137.447722 
L 530.910336 -137.447722 
L 532.300125 -137.447722 
L 533.689913 -137.447722 
L 535.079701 -137.447722 
L 536.469489 -137.447722 
L 537.859278 -137.447722 
L 539.249066 -137.447722 
L 540.638854 -137.447722 
L 542.028643 -137.447722 
L 543.418431 -137.447722 
L 544.808219 -137.447722 
L 546.198007 -137.447722 
L 547.587796 -137.447722 
L 548.977584 -137.447722 
L 550.367372 -137.447722 
L 551.757161 -137.447722 
L 553.146949 -137.447722 
L 554.536737 -137.447722 
L 555.926526 -137.447722 
L 557.316314 -137.447722 
L 558.706102 -137.447722 
L 560.09589 -137.447722 
L 561.485679 -137.447722 
L 562.875467 -137.447722 
L 564.265255 -137.447722 
L 565.655044 -137.447722 
L 567.044832 -137.447722 
L 568.43462 -137.447722 
L 569.824408 -137.447722 
L 571.214197 -137.447722 
L 572.603985 -137.447722 
L 573.993773 -137.447722 
L 575.383562 -137.447722 
L 576.77335 -137.447722 
L 578.163138 -137.447722 
L 579.552927 -137.447722 
L 580.942715 -137.447722 
L 582.332503 -137.447722 
L 583.722291 -137.447722 
L 585.11208 -137.447722 
L 586.501868 -137.447722 
L 587.891656 -137.447722 
L 589.281445 -137.447722 
L 590.671233 -137.447722 
L 592.061021 -137.447722 
L 593.450809 -137.447722 
L 594.840598 -137.447722 
L 596.230386 -137.447722 
L 597.620174 -137.447722 
L 599.009963 -137.447722 
L 600.399751 -137.447722 
L 601.789539 -137.447722 
L 603.179328 -137.447722 
L 604.569116 -137.447722 
L 605.958904 -137.447722 
L 607.348692 -137.447722 
L 608.738481 -137.447722 
L 610.128269 -137.447722 
L 611.518057 -137.447722 
L 612.907846 -137.447722 
L 614.297634 -137.447722 
L 615.687422 -137.447722 
L 617.07721 -137.447722 
L 618.466999 -137.447722 
L 619.856787 -137.447722 
L 621.246575 -137.447722 
L 622.636364 -137.447722 
L 622.636364 -137.447722 
L 622.636364 -137.447722 
L 621.246575 -137.447722 
L 619.856787 -137.447722 
L 618.466999 -137.447722 
L 617.07721 -137.447722 
L 615.687422 -137.447722 
L 614.297634 -137.447722 
L 612.907846 -137.447722 
L 611.518057 -137.447722 
L 610.128269 -137.447722 
L 608.738481 -137.447722 
L 607.348692 -137.447722 
L 605.958904 -137.447722 
L 604.569116 -137.447722 
L 603.179328 -137.447722 
L 601.789539 -137.447722 
L 600.399751 -137.447722 
L 599.009963 -137.447722 
L 597.620174 -137.447722 
L 596.230386 -137.447722 
L 594.840598 -137.447722 
L 593.450809 -137.447722 
L 592.061021 -137.447722 
L 590.671233 -137.447722 
L 589.281445 -137.447722 
L 587.891656 -137.447722 
L 586.501868 -137.447722 
L 585.11208 -137.447722 
L 583.722291 -137.447722 
L 582.332503 -137.447722 
L 580.942715 -137.447722 
L 579.552927 -137.447722 
L 578.163138 -137.447722 
L 576.77335 -137.447722 
L 575.383562 -137.447722 
L 573.993773 -137.447722 
L 572.603985 -137.447722 
L 571.214197 -137.447722 
L 569.824408 -137.447722 
L 568.43462 -137.447722 
L 567.044832 -137.447722 
L 565.655044 -137.447722 
L 564.265255 -137.447722 
L 562.875467 -137.447722 
L 561.485679 -137.447722 
L 560.09589 -137.447722 
L 558.706102 -137.447722 
L 557.316314 -137.447722 
L 555.926526 -137.447722 
L 554.536737 -137.447722 
L 553.146949 -137.447722 
L 551.757161 -137.447722 
L 550.367372 -137.447722 
L 548.977584 -137.447722 
L 547.587796 -137.447722 
L 546.198007 -137.447722 
L 544.808219 -137.447722 
L 543.418431 -137.447722 
L 542.028643 -137.447722 
L 540.638854 -137.447722 
L 539.249066 -137.447722 
L 537.859278 -137.447722 
L 536.469489 -137.447722 
L 535.079701 -137.447722 
L 533.689913 -137.447722 
L 532.300125 -137.447722 
L 530.910336 -137.447722 
L 529.520548 -137.447722 
L 528.13076 -137.447722 
L 526.740971 -137.447722 
L 525.351183 -137.447722 
L 523.961395 -137.447722 
L 522.571606 -137.447722 
L 521.181818 -137.447722 
L 519.79203 -137.447722 
L 518.402242 -137.447722 
L 517.012453 -137.447722 
L 515.622665 -137.447722 
L 514.232877 -137.447722 
L 512.843088 -137.447722 
L 511.4533 -137.447722 
L 510.063512 -137.447722 
L 508.673724 -137.447722 
L 507.283935 -137.447722 
L 505.894147 -137.447722 
L 504.504359 -137.447722 
L 503.11457 -137.447722 
L 501.724782 -137.447722 
L 500.334994 -137.447722 
L 498.945205 -137.447722 
L 497.555417 -137.447722 
L 496.165629 -137.447722 
L 494.775841 -137.447722 
L 493.386052 -62.64 
L 491.996264 -97.651003 
L 490.606476 -67.771091 
L 489.216687 -115.84043 
L 487.826899 -220.746535 
L 486.437111 -365.04 
L 485.047323 -346.324377 
L 483.657534 -328.075423 
L 482.267746 -336.183547 
L 480.877958 -137.447722 
L 479.488169 -137.447722 
L 478.098381 -137.447722 
L 476.708593 -137.447722 
L 475.318804 -137.447722 
L 473.929016 -137.447722 
L 472.539228 -137.447722 
L 471.14944 -137.447722 
L 469.759651 -137.447722 
L 468.369863 -137.447722 
L 466.980075 -137.447722 
L 465.590286 -137.447722 
L 464.200498 -137.447722 
L 462.81071 -137.447722 
L 461.420922 -137.447722 
L 460.031133 -137.447722 
L 458.641345 -137.447722 
L 457.251557 -137.447722 
L 455.861768 -137.447722 
L 454.47198 -137.447722 
L 453.082192 -137.447722 
L 451.692403 -137.447722 
L 450.302615 -137.447722 
L 448.912827 -137.447722 
L 447.523039 -137.447722 
L 446.13325 -137.447722 
L 444.743462 -137.447722 
L 443.353674 -137.447722 
L 441.963885 -137.447722 
L 440.574097 -137.447722 
L 439.184309 -137.447722 
L 437.794521 -137.447722 
L 436.404732 -137.447722 
L 435.014944 -137.447722 
L 433.625156 -137.447722 
L 432.235367 -137.447722 
L 430.845579 -137.447722 
L 429.455791 -137.447722 
L 428.066002 -137.447722 
L 426.676214 -137.447722 
L 425.286426 -137.447722 
L 423.896638 -137.447722 
L 422.506849 -137.447722 
L 421.117061 -137.447722 
L 419.727273 -137.447722 
L 418.337484 -137.447722 
L 416.947696 -137.447722 
L 415.557908 -137.447722 
L 414.16812 -137.447722 
L 412.778331 -137.447722 
L 411.388543 -137.447722 
L 409.998755 -137.447722 
L 408.608966 -137.447722 
L 407.219178 -137.447722 
L 405.82939 -137.447722 
L 404.439601 -137.447722 
L 403.049813 -137.447722 
L 401.660025 -137.447722 
L 400.270237 -137.447722 
L 398.880448 -137.447722 
L 397.49066 -137.447722 
L 396.100872 -137.447722 
L 394.711083 -137.447722 
L 393.321295 -137.447722 
L 391.931507 -137.447722 
L 390.541719 -137.447722 
L 389.15193 -137.447722 
L 387.762142 -137.447722 
L 386.372354 -137.447722 
L 384.982565 -137.447722 
L 383.592777 -137.447722 
L 382.202989 -137.447722 
L 380.8132 -137.447722 
L 379.423412 -137.447722 
L 378.033624 -137.447722 
L 376.643836 -137.447722 
L 375.254047 -137.447722 
L 373.864259 -137.447722 
L 372.474471 -137.447722 
L 371.084682 -137.447722 
L 369.694894 -137.447722 
L 368.305106 -137.447722 
L 366.915318 -137.447722 
L 365.525529 -137.447722 
L 364.135741 -137.447722 
L 362.745953 -137.447722 
L 361.356164 -137.447722 
L 359.966376 -137.447722 
L 358.576588 -137.447722 
L 357.1868 -137.447722 
L 355.797011 -137.447722 
L 354.407223 -137.447722 
L 353.017435 -137.447722 
L 351.627646 -137.447722 
L 350.237858 -137.447722 
L 348.84807 -137.447722 
L 347.458281 -137.447722 
L 346.068493 -137.447722 
L 344.678705 -137.447722 
L 343.288917 -137.447722 
L 341.899128 -137.447722 
L 340.50934 -137.447722 
L 339.119552 -137.447722 
L 337.729763 -137.447722 
L 336.339975 -137.447722 
L 334.950187 -137.447722 
L 333.560399 -137.447722 
L 332.17061 -137.447722 
L 330.780822 -137.447722 
L 329.391034 -137.447722 
L 328.001245 -137.447722 
L 326.611457 -137.447722 
L 325.221669 -137.447722 
L 323.83188 -137.447722 
L 322.442092 -137.447722 
L 321.052304 -137.447722 
L 319.662516 -137.447722 
L 318.272727 -137.447722 
L 316.882939 -137.447722 
L 315.493151 -137.447722 
L 314.103362 -137.447722 
L 312.713574 -137.447722 
L 311.323786 -137.447722 
L 309.933998 -137.447722 
L 308.544209 -137.447722 
L 307.154421 -137.447722 
L 305.764633 -137.447722 
L 304.374844 -137.447722 
L 302.985056 -137.447722 
L 301.595268 -137.447722 
L 300.205479 -137.447722 
L 298.815691 -137.447722 
L 297.425903 -137.447722 
L 296.036115 -137.447722 
L 294.646326 -137.447722 
L 293.256538 -137.447722 
L 291.86675 -137.447722 
L 290.476961 -137.447722 
L 289.087173 -137.447722 
L 287.697385 -137.447722 
L 286.307597 -137.447722 
L 284.917808 -137.447722 
L 283.52802 -137.447722 
L 282.138232 -137.447722 
L 280.748443 -137.447722 
L 279.358655 -137.447722 
L 277.968867 -137.447722 
L 276.579078 -137.447722 
L 275.18929 -137.447722 
L 273.799502 -137.447722 
L 272.409714 -137.447722 
L 271.019925 -137.447722 
L 269.630137 -137.447722 
L 268.240349 -137.447722 
L 266.85056 -137.447722 
L 265.460772 -137.447722 
L 264.070984 -137.447722 
L 262.681196 -137.447722 
L 261.291407 -137.447722 
L 259.901619 -137.447722 
L 258.511831 -137.447722 
L 257.122042 -137.447722 
L 255.732254 -137.447722 
L 254.342466 -137.447722 
L 252.952677 -137.447722 
L 251.562889 -137.447722 
L 250.173101 -137.447722 
L 248.783313 -137.447722 
L 247.393524 -137.447722 
L 246.003736 -137.447722 
L 244.613948 -137.447722 
L 243.224159 -137.447722 
L 241.834371 -137.447722 
L 240.444583 -137.447722 
L 239.054795 -137.447722 
L 237.665006 -137.447722 
L 236.275218 -137.447722 
L 234.88543 -137.447722 
L 233.495641 -137.447722 
L 232.105853 -137.447722 
L 230.716065 -137.447722 
L 229.326276 -137.447722 
L 227.936488 -137.447722 
L 226.5467 -137.447722 
L 225.156912 -137.447722 
L 223.767123 -137.447722 
L 222.377335 -137.447722 
L 220.987547 -137.447722 
L 219.597758 -137.447722 
L 218.20797 -137.447722 
L 216.818182 -137.447722 
L 215.428394 -137.447722 
L 214.038605 -137.447722 
L 212.648817 -137.447722 
L 211.259029 -137.447722 
L 209.86924 -137.447722 
L 208.479452 -137.447722 
L 207.089664 -137.447722 
L 205.699875 -137.447722 
L 204.310087 -137.447722 
L 202.920299 -137.447722 
L 201.530511 -137.447722 
L 200.140722 -137.447722 
L 198.750934 -137.447722 
L 197.361146 -137.447722 
L 195.971357 -137.447722 
L 194.581569 -137.447722 
L 193.191781 -137.447722 
L 191.801993 -137.447722 
L 190.412204 -137.447722 
L 189.022416 -137.447722 
L 187.632628 -137.447722 
L 186.242839 -137.447722 
L 184.853051 -137.447722 
L 183.463263 -137.447722 
L 182.073474 -137.447722 
L 180.683686 -137.447722 
L 179.293898 -137.447722 
L 177.90411 -137.447722 
L 176.514321 -137.447722 
L 175.124533 -137.447722 
L 173.734745 -137.447722 
L 172.344956 -137.447722 
L 170.955168 -137.447722 
L 169.56538 -137.447722 
L 168.175592 -137.447722 
L 166.785803 -137.447722 
L 165.396015 -137.447722 
L 164.006227 -137.447722 
L 162.616438 -137.447722 
L 161.22665 -137.447722 
L 159.836862 -137.447722 
L 158.447073 -137.447722 
L 157.057285 -137.447722 
L 155.667497 -137.447722 
L 154.277709 -137.447722 
L 152.88792 -137.447722 
L 151.498132 -137.447722 
L 150.108344 -137.447722 
L 148.718555 -137.447722 
L 147.328767 -137.447722 
L 145.938979 -137.447722 
L 144.549191 -137.447722 
L 143.159402 -137.447722 
L 141.769614 -137.447722 
L 140.379826 -137.447722 
L 138.990037 -137.447722 
L 137.600249 -137.447722 
L 136.210461 -137.447722 
L 134.820672 -137.447722 
L 133.430884 -137.447722 
L 132.041096 -137.447722 
L 130.651308 -137.447722 
L 129.261519 -137.447722 
L 127.871731 -137.447722 
L 126.481943 -137.447722 
L 125.092154 -137.447722 
L 123.702366 -137.447722 
L 122.312578 -137.447722 
L 120.92279 -137.447722 
L 119.533001 -137.447722 
L 118.143213 -137.447722 
L 116.753425 -137.447722 
L 115.363636 -137.447722 
z
" id="m895fb619ab" style="stroke:#0072b2;stroke-opacity:0.2;"/>
    </defs>
    <g clip-path="url(#p194162ce06)">
     <use style="fill:#0072b2;fill-opacity:0.2;stroke:#0072b2;stroke-opacity:0.2;" x="0" xlink:href="#m895fb619ab" y="432"/>
    </g>
   </g>
   <g id="matplotlib.axis_1">
    <g id="xtick_1">
     <g id="line2d_1">
      <path clip-path="url(#p194162ce06)" d="M 107.024907 384.48 
L 107.024907 51.84 
" style="fill:none;stroke:#808080;stroke-linecap:square;stroke-opacity:0.2;"/>
     </g>
     <g id="line2d_2">
      <defs>
       <path d="M 0 0 
L 0 3.5 
" id="m67bf999f2c" style="stroke:#000000;stroke-width:0.8;"/>
      </defs>
      <g>
       <use style="stroke:#000000;stroke-width:0.8;" x="107.024907" xlink:href="#m67bf999f2c" y="384.48"/>
      </g>
     </g>
     <g id="text_1">
      <!-- 2020-02 -->
      <g transform="translate(86.1335 399.078438)scale(0.1 -0.1)">
       <defs>
        <path d="M 19.1875 8.296875 
L 53.609375 8.296875 
L 53.609375 0 
L 7.328125 0 
L 7.328125 8.296875 
Q 12.9375 14.109375 22.625 23.890625 
Q 32.328125 33.6875 34.8125 36.53125 
Q 39.546875 41.84375 41.421875 45.53125 
Q 43.3125 49.21875 43.3125 52.78125 
Q 43.3125 58.59375 39.234375 62.25 
Q 35.15625 65.921875 28.609375 65.921875 
Q 23.96875 65.921875 18.8125 64.3125 
Q 13.671875 62.703125 7.8125 59.421875 
L 7.8125 69.390625 
Q 13.765625 71.78125 18.9375 73 
Q 24.125 74.21875 28.421875 74.21875 
Q 39.75 74.21875 46.484375 68.546875 
Q 53.21875 62.890625 53.21875 53.421875 
Q 53.21875 48.921875 51.53125 44.890625 
Q 49.859375 40.875 45.40625 35.40625 
Q 44.1875 33.984375 37.640625 27.21875 
Q 31.109375 20.453125 19.1875 8.296875 
z
" id="DejaVuSans-50"/>
        <path d="M 31.78125 66.40625 
Q 24.171875 66.40625 20.328125 58.90625 
Q 16.5 51.421875 16.5 36.375 
Q 16.5 21.390625 20.328125 13.890625 
Q 24.171875 6.390625 31.78125 6.390625 
Q 39.453125 6.390625 43.28125 13.890625 
Q 47.125 21.390625 47.125 36.375 
Q 47.125 51.421875 43.28125 58.90625 
Q 39.453125 66.40625 31.78125 66.40625 
z
M 31.78125 74.21875 
Q 44.046875 74.21875 50.515625 64.515625 
Q 56.984375 54.828125 56.984375 36.375 
Q 56.984375 17.96875 50.515625 8.265625 
Q 44.046875 -1.421875 31.78125 -1.421875 
Q 19.53125 -1.421875 13.0625 8.265625 
Q 6.59375 17.96875 6.59375 36.375 
Q 6.59375 54.828125 13.0625 64.515625 
Q 19.53125 74.21875 31.78125 74.21875 
z
" id="DejaVuSans-48"/>
        <path d="M 4.890625 31.390625 
L 31.203125 31.390625 
L 31.203125 23.390625 
L 4.890625 23.390625 
z
" id="DejaVuSans-45"/>
       </defs>
       <use xlink:href="#DejaVuSans-50"/>
       <use x="63.623047" xlink:href="#DejaVuSans-48"/>
       <use x="127.246094" xlink:href="#DejaVuSans-50"/>
       <use x="190.869141" xlink:href="#DejaVuSans-48"/>
       <use x="254.492188" xlink:href="#DejaVuSans-45"/>
       <use x="290.576172" xlink:href="#DejaVuSans-48"/>
       <use x="354.199219" xlink:href="#DejaVuSans-50"/>
      </g>
     </g>
    </g>
    <g id="xtick_2">
     <g id="line2d_3">
      <path clip-path="url(#p194162ce06)" d="M 190.412204 384.48 
L 190.412204 51.84 
" style="fill:none;stroke:#808080;stroke-linecap:square;stroke-opacity:0.2;"/>
     </g>
     <g id="line2d_4">
      <g>
       <use style="stroke:#000000;stroke-width:0.8;" x="190.412204" xlink:href="#m67bf999f2c" y="384.48"/>
      </g>
     </g>
     <g id="text_2">
      <!-- 2020-04 -->
      <g transform="translate(169.520798 399.078438)scale(0.1 -0.1)">
       <defs>
        <path d="M 37.796875 64.3125 
L 12.890625 25.390625 
L 37.796875 25.390625 
z
M 35.203125 72.90625 
L 47.609375 72.90625 
L 47.609375 25.390625 
L 58.015625 25.390625 
L 58.015625 17.1875 
L 47.609375 17.1875 
L 47.609375 0 
L 37.796875 0 
L 37.796875 17.1875 
L 4.890625 17.1875 
L 4.890625 26.703125 
z
" id="DejaVuSans-52"/>
       </defs>
       <use xlink:href="#DejaVuSans-50"/>
       <use x="63.623047" xlink:href="#DejaVuSans-48"/>
       <use x="127.246094" xlink:href="#DejaVuSans-50"/>
       <use x="190.869141" xlink:href="#DejaVuSans-48"/>
       <use x="254.492188" xlink:href="#DejaVuSans-45"/>
       <use x="290.576172" xlink:href="#DejaVuSans-48"/>
       <use x="354.199219" xlink:href="#DejaVuSans-52"/>
      </g>
     </g>
    </g>
    <g id="xtick_3">
     <g id="line2d_5">
      <path clip-path="url(#p194162ce06)" d="M 275.18929 384.48 
L 275.18929 51.84 
" style="fill:none;stroke:#808080;stroke-linecap:square;stroke-opacity:0.2;"/>
     </g>
     <g id="line2d_6">
      <g>
       <use style="stroke:#000000;stroke-width:0.8;" x="275.18929" xlink:href="#m67bf999f2c" y="384.48"/>
      </g>
     </g>
     <g id="text_3">
      <!-- 2020-06 -->
      <g transform="translate(254.297884 399.078438)scale(0.1 -0.1)">
       <defs>
        <path d="M 33.015625 40.375 
Q 26.375 40.375 22.484375 35.828125 
Q 18.609375 31.296875 18.609375 23.390625 
Q 18.609375 15.53125 22.484375 10.953125 
Q 26.375 6.390625 33.015625 6.390625 
Q 39.65625 6.390625 43.53125 10.953125 
Q 47.40625 15.53125 47.40625 23.390625 
Q 47.40625 31.296875 43.53125 35.828125 
Q 39.65625 40.375 33.015625 40.375 
z
M 52.59375 71.296875 
L 52.59375 62.3125 
Q 48.875 64.0625 45.09375 64.984375 
Q 41.3125 65.921875 37.59375 65.921875 
Q 27.828125 65.921875 22.671875 59.328125 
Q 17.53125 52.734375 16.796875 39.40625 
Q 19.671875 43.65625 24.015625 45.921875 
Q 28.375 48.1875 33.59375 48.1875 
Q 44.578125 48.1875 50.953125 41.515625 
Q 57.328125 34.859375 57.328125 23.390625 
Q 57.328125 12.15625 50.6875 5.359375 
Q 44.046875 -1.421875 33.015625 -1.421875 
Q 20.359375 -1.421875 13.671875 8.265625 
Q 6.984375 17.96875 6.984375 36.375 
Q 6.984375 53.65625 15.1875 63.9375 
Q 23.390625 74.21875 37.203125 74.21875 
Q 40.921875 74.21875 44.703125 73.484375 
Q 48.484375 72.75 52.59375 71.296875 
z
" id="DejaVuSans-54"/>
       </defs>
       <use xlink:href="#DejaVuSans-50"/>
       <use x="63.623047" xlink:href="#DejaVuSans-48"/>
       <use x="127.246094" xlink:href="#DejaVuSans-50"/>
       <use x="190.869141" xlink:href="#DejaVuSans-48"/>
       <use x="254.492188" xlink:href="#DejaVuSans-45"/>
       <use x="290.576172" xlink:href="#DejaVuSans-48"/>
       <use x="354.199219" xlink:href="#DejaVuSans-54"/>
      </g>
     </g>
    </g>
    <g id="xtick_4">
     <g id="line2d_7">
      <path clip-path="url(#p194162ce06)" d="M 359.966376 384.48 
L 359.966376 51.84 
" style="fill:none;stroke:#808080;stroke-linecap:square;stroke-opacity:0.2;"/>
     </g>
     <g id="line2d_8">
      <g>
       <use style="stroke:#000000;stroke-width:0.8;" x="359.966376" xlink:href="#m67bf999f2c" y="384.48"/>
      </g>
     </g>
     <g id="text_4">
      <!-- 2020-08 -->
      <g transform="translate(339.07497 399.078438)scale(0.1 -0.1)">
       <defs>
        <path d="M 31.78125 34.625 
Q 24.75 34.625 20.71875 30.859375 
Q 16.703125 27.09375 16.703125 20.515625 
Q 16.703125 13.921875 20.71875 10.15625 
Q 24.75 6.390625 31.78125 6.390625 
Q 38.8125 6.390625 42.859375 10.171875 
Q 46.921875 13.96875 46.921875 20.515625 
Q 46.921875 27.09375 42.890625 30.859375 
Q 38.875 34.625 31.78125 34.625 
z
M 21.921875 38.8125 
Q 15.578125 40.375 12.03125 44.71875 
Q 8.5 49.078125 8.5 55.328125 
Q 8.5 64.0625 14.71875 69.140625 
Q 20.953125 74.21875 31.78125 74.21875 
Q 42.671875 74.21875 48.875 69.140625 
Q 55.078125 64.0625 55.078125 55.328125 
Q 55.078125 49.078125 51.53125 44.71875 
Q 48 40.375 41.703125 38.8125 
Q 48.828125 37.15625 52.796875 32.3125 
Q 56.78125 27.484375 56.78125 20.515625 
Q 56.78125 9.90625 50.3125 4.234375 
Q 43.84375 -1.421875 31.78125 -1.421875 
Q 19.734375 -1.421875 13.25 4.234375 
Q 6.78125 9.90625 6.78125 20.515625 
Q 6.78125 27.484375 10.78125 32.3125 
Q 14.796875 37.15625 21.921875 38.8125 
z
M 18.3125 54.390625 
Q 18.3125 48.734375 21.84375 45.5625 
Q 25.390625 42.390625 31.78125 42.390625 
Q 38.140625 42.390625 41.71875 45.5625 
Q 45.3125 48.734375 45.3125 54.390625 
Q 45.3125 60.0625 41.71875 63.234375 
Q 38.140625 66.40625 31.78125 66.40625 
Q 25.390625 66.40625 21.84375 63.234375 
Q 18.3125 60.0625 18.3125 54.390625 
z
" id="DejaVuSans-56"/>
       </defs>
       <use xlink:href="#DejaVuSans-50"/>
       <use x="63.623047" xlink:href="#DejaVuSans-48"/>
       <use x="127.246094" xlink:href="#DejaVuSans-50"/>
       <use x="190.869141" xlink:href="#DejaVuSans-48"/>
       <use x="254.492188" xlink:href="#DejaVuSans-45"/>
       <use x="290.576172" xlink:href="#DejaVuSans-48"/>
       <use x="354.199219" xlink:href="#DejaVuSans-56"/>
      </g>
     </g>
    </g>
    <g id="xtick_5">
     <g id="line2d_9">
      <path clip-path="url(#p194162ce06)" d="M 444.743462 384.48 
L 444.743462 51.84 
" style="fill:none;stroke:#808080;stroke-linecap:square;stroke-opacity:0.2;"/>
     </g>
     <g id="line2d_10">
      <g>
       <use style="stroke:#000000;stroke-width:0.8;" x="444.743462" xlink:href="#m67bf999f2c" y="384.48"/>
      </g>
     </g>
     <g id="text_5">
      <!-- 2020-10 -->
      <g transform="translate(423.852056 399.078438)scale(0.1 -0.1)">
       <defs>
        <path d="M 12.40625 8.296875 
L 28.515625 8.296875 
L 28.515625 63.921875 
L 10.984375 60.40625 
L 10.984375 69.390625 
L 28.421875 72.90625 
L 38.28125 72.90625 
L 38.28125 8.296875 
L 54.390625 8.296875 
L 54.390625 0 
L 12.40625 0 
z
" id="DejaVuSans-49"/>
       </defs>
       <use xlink:href="#DejaVuSans-50"/>
       <use x="63.623047" xlink:href="#DejaVuSans-48"/>
       <use x="127.246094" xlink:href="#DejaVuSans-50"/>
       <use x="190.869141" xlink:href="#DejaVuSans-48"/>
       <use x="254.492188" xlink:href="#DejaVuSans-45"/>
       <use x="290.576172" xlink:href="#DejaVuSans-49"/>
       <use x="354.199219" xlink:href="#DejaVuSans-48"/>
      </g>
     </g>
    </g>
    <g id="xtick_6">
     <g id="line2d_11">
      <path clip-path="url(#p194162ce06)" d="M 529.520548 384.48 
L 529.520548 51.84 
" style="fill:none;stroke:#808080;stroke-linecap:square;stroke-opacity:0.2;"/>
     </g>
     <g id="line2d_12">
      <g>
       <use style="stroke:#000000;stroke-width:0.8;" x="529.520548" xlink:href="#m67bf999f2c" y="384.48"/>
      </g>
     </g>
     <g id="text_6">
      <!-- 2020-12 -->
      <g transform="translate(508.629142 399.078438)scale(0.1 -0.1)">
       <use xlink:href="#DejaVuSans-50"/>
       <use x="63.623047" xlink:href="#DejaVuSans-48"/>
       <use x="127.246094" xlink:href="#DejaVuSans-50"/>
       <use x="190.869141" xlink:href="#DejaVuSans-48"/>
       <use x="254.492188" xlink:href="#DejaVuSans-45"/>
       <use x="290.576172" xlink:href="#DejaVuSans-49"/>
       <use x="354.199219" xlink:href="#DejaVuSans-50"/>
      </g>
     </g>
    </g>
    <g id="xtick_7">
     <g id="line2d_13">
      <path clip-path="url(#p194162ce06)" d="M 615.687422 384.48 
L 615.687422 51.84 
" style="fill:none;stroke:#808080;stroke-linecap:square;stroke-opacity:0.2;"/>
     </g>
     <g id="line2d_14">
      <g>
       <use style="stroke:#000000;stroke-width:0.8;" x="615.687422" xlink:href="#m67bf999f2c" y="384.48"/>
      </g>
     </g>
     <g id="text_7">
      <!-- 2021-02 -->
      <g transform="translate(594.796016 399.078438)scale(0.1 -0.1)">
       <use xlink:href="#DejaVuSans-50"/>
       <use x="63.623047" xlink:href="#DejaVuSans-48"/>
       <use x="127.246094" xlink:href="#DejaVuSans-50"/>
       <use x="190.869141" xlink:href="#DejaVuSans-49"/>
       <use x="254.492188" xlink:href="#DejaVuSans-45"/>
       <use x="290.576172" xlink:href="#DejaVuSans-48"/>
       <use x="354.199219" xlink:href="#DejaVuSans-50"/>
      </g>
     </g>
    </g>
    <g id="text_8">
     <!-- ds -->
     <g transform="translate(363.221094 412.756563)scale(0.1 -0.1)">
      <defs>
       <path d="M 45.40625 46.390625 
L 45.40625 75.984375 
L 54.390625 75.984375 
L 54.390625 0 
L 45.40625 0 
L 45.40625 8.203125 
Q 42.578125 3.328125 38.25 0.953125 
Q 33.9375 -1.421875 27.875 -1.421875 
Q 17.96875 -1.421875 11.734375 6.484375 
Q 5.515625 14.40625 5.515625 27.296875 
Q 5.515625 40.1875 11.734375 48.09375 
Q 17.96875 56 27.875 56 
Q 33.9375 56 38.25 53.625 
Q 42.578125 51.265625 45.40625 46.390625 
z
M 14.796875 27.296875 
Q 14.796875 17.390625 18.875 11.75 
Q 22.953125 6.109375 30.078125 6.109375 
Q 37.203125 6.109375 41.296875 11.75 
Q 45.40625 17.390625 45.40625 27.296875 
Q 45.40625 37.203125 41.296875 42.84375 
Q 37.203125 48.484375 30.078125 48.484375 
Q 22.953125 48.484375 18.875 42.84375 
Q 14.796875 37.203125 14.796875 27.296875 
z
" id="DejaVuSans-100"/>
       <path d="M 44.28125 53.078125 
L 44.28125 44.578125 
Q 40.484375 46.53125 36.375 47.5 
Q 32.28125 48.484375 27.875 48.484375 
Q 21.1875 48.484375 17.84375 46.4375 
Q 14.5 44.390625 14.5 40.28125 
Q 14.5 37.15625 16.890625 35.375 
Q 19.28125 33.59375 26.515625 31.984375 
L 29.59375 31.296875 
Q 39.15625 29.25 43.1875 25.515625 
Q 47.21875 21.78125 47.21875 15.09375 
Q 47.21875 7.46875 41.1875 3.015625 
Q 35.15625 -1.421875 24.609375 -1.421875 
Q 20.21875 -1.421875 15.453125 -0.5625 
Q 10.6875 0.296875 5.421875 2 
L 5.421875 11.28125 
Q 10.40625 8.6875 15.234375 7.390625 
Q 20.0625 6.109375 24.8125 6.109375 
Q 31.15625 6.109375 34.5625 8.28125 
Q 37.984375 10.453125 37.984375 14.40625 
Q 37.984375 18.0625 35.515625 20.015625 
Q 33.0625 21.96875 24.703125 23.78125 
L 21.578125 24.515625 
Q 13.234375 26.265625 9.515625 29.90625 
Q 5.8125 33.546875 5.8125 39.890625 
Q 5.8125 47.609375 11.28125 51.796875 
Q 16.75 56 26.8125 56 
Q 31.78125 56 36.171875 55.265625 
Q 40.578125 54.546875 44.28125 53.078125 
z
" id="DejaVuSans-115"/>
      </defs>
      <use xlink:href="#DejaVuSans-100"/>
      <use x="63.476562" xlink:href="#DejaVuSans-115"/>
     </g>
    </g>
   </g>
   <g id="matplotlib.axis_2">
    <g id="ytick_1">
     <g id="line2d_15">
      <path clip-path="url(#p194162ce06)" d="M 90 381.818308 
L 648 381.818308 
" style="fill:none;stroke:#808080;stroke-linecap:square;stroke-opacity:0.2;"/>
     </g>
     <g id="line2d_16">
      <defs>
       <path d="M 0 0 
L -3.5 0 
" id="m6018ec34cc" style="stroke:#000000;stroke-width:0.8;"/>
      </defs>
      <g>
       <use style="stroke:#000000;stroke-width:0.8;" x="90" xlink:href="#m6018ec34cc" y="381.818308"/>
      </g>
     </g>
     <g id="text_9">
      <!-- −0.4 -->
      <g transform="translate(58.717187 385.617527)scale(0.1 -0.1)">
       <defs>
        <path d="M 10.59375 35.5 
L 73.1875 35.5 
L 73.1875 27.203125 
L 10.59375 27.203125 
z
" id="DejaVuSans-8722"/>
        <path d="M 10.6875 12.40625 
L 21 12.40625 
L 21 0 
L 10.6875 0 
z
" id="DejaVuSans-46"/>
       </defs>
       <use xlink:href="#DejaVuSans-8722"/>
       <use x="83.789062" xlink:href="#DejaVuSans-48"/>
       <use x="147.412109" xlink:href="#DejaVuSans-46"/>
       <use x="179.199219" xlink:href="#DejaVuSans-52"/>
      </g>
     </g>
    </g>
    <g id="ytick_2">
     <g id="line2d_17">
      <path clip-path="url(#p194162ce06)" d="M 90 338.185293 
L 648 338.185293 
" style="fill:none;stroke:#808080;stroke-linecap:square;stroke-opacity:0.2;"/>
     </g>
     <g id="line2d_18">
      <g>
       <use style="stroke:#000000;stroke-width:0.8;" x="90" xlink:href="#m6018ec34cc" y="338.185293"/>
      </g>
     </g>
     <g id="text_10">
      <!-- −0.2 -->
      <g transform="translate(58.717187 341.984512)scale(0.1 -0.1)">
       <use xlink:href="#DejaVuSans-8722"/>
       <use x="83.789062" xlink:href="#DejaVuSans-48"/>
       <use x="147.412109" xlink:href="#DejaVuSans-46"/>
       <use x="179.199219" xlink:href="#DejaVuSans-50"/>
      </g>
     </g>
    </g>
    <g id="ytick_3">
     <g id="line2d_19">
      <path clip-path="url(#p194162ce06)" d="M 90 294.552278 
L 648 294.552278 
" style="fill:none;stroke:#808080;stroke-linecap:square;stroke-opacity:0.2;"/>
     </g>
     <g id="line2d_20">
      <g>
       <use style="stroke:#000000;stroke-width:0.8;" x="90" xlink:href="#m6018ec34cc" y="294.552278"/>
      </g>
     </g>
     <g id="text_11">
      <!-- 0.0 -->
      <g transform="translate(67.096875 298.351497)scale(0.1 -0.1)">
       <use xlink:href="#DejaVuSans-48"/>
       <use x="63.623047" xlink:href="#DejaVuSans-46"/>
       <use x="95.410156" xlink:href="#DejaVuSans-48"/>
      </g>
     </g>
    </g>
    <g id="ytick_4">
     <g id="line2d_21">
      <path clip-path="url(#p194162ce06)" d="M 90 250.919263 
L 648 250.919263 
" style="fill:none;stroke:#808080;stroke-linecap:square;stroke-opacity:0.2;"/>
     </g>
     <g id="line2d_22">
      <g>
       <use style="stroke:#000000;stroke-width:0.8;" x="90" xlink:href="#m6018ec34cc" y="250.919263"/>
      </g>
     </g>
     <g id="text_12">
      <!-- 0.2 -->
      <g transform="translate(67.096875 254.718482)scale(0.1 -0.1)">
       <use xlink:href="#DejaVuSans-48"/>
       <use x="63.623047" xlink:href="#DejaVuSans-46"/>
       <use x="95.410156" xlink:href="#DejaVuSans-50"/>
      </g>
     </g>
    </g>
    <g id="ytick_5">
     <g id="line2d_23">
      <path clip-path="url(#p194162ce06)" d="M 90 207.286248 
L 648 207.286248 
" style="fill:none;stroke:#808080;stroke-linecap:square;stroke-opacity:0.2;"/>
     </g>
     <g id="line2d_24">
      <g>
       <use style="stroke:#000000;stroke-width:0.8;" x="90" xlink:href="#m6018ec34cc" y="207.286248"/>
      </g>
     </g>
     <g id="text_13">
      <!-- 0.4 -->
      <g transform="translate(67.096875 211.085466)scale(0.1 -0.1)">
       <use xlink:href="#DejaVuSans-48"/>
       <use x="63.623047" xlink:href="#DejaVuSans-46"/>
       <use x="95.410156" xlink:href="#DejaVuSans-52"/>
      </g>
     </g>
    </g>
    <g id="ytick_6">
     <g id="line2d_25">
      <path clip-path="url(#p194162ce06)" d="M 90 163.653232 
L 648 163.653232 
" style="fill:none;stroke:#808080;stroke-linecap:square;stroke-opacity:0.2;"/>
     </g>
     <g id="line2d_26">
      <g>
       <use style="stroke:#000000;stroke-width:0.8;" x="90" xlink:href="#m6018ec34cc" y="163.653232"/>
      </g>
     </g>
     <g id="text_14">
      <!-- 0.6 -->
      <g transform="translate(67.096875 167.452451)scale(0.1 -0.1)">
       <use xlink:href="#DejaVuSans-48"/>
       <use x="63.623047" xlink:href="#DejaVuSans-46"/>
       <use x="95.410156" xlink:href="#DejaVuSans-54"/>
      </g>
     </g>
    </g>
    <g id="ytick_7">
     <g id="line2d_27">
      <path clip-path="url(#p194162ce06)" d="M 90 120.020217 
L 648 120.020217 
" style="fill:none;stroke:#808080;stroke-linecap:square;stroke-opacity:0.2;"/>
     </g>
     <g id="line2d_28">
      <g>
       <use style="stroke:#000000;stroke-width:0.8;" x="90" xlink:href="#m6018ec34cc" y="120.020217"/>
      </g>
     </g>
     <g id="text_15">
      <!-- 0.8 -->
      <g transform="translate(67.096875 123.819436)scale(0.1 -0.1)">
       <use xlink:href="#DejaVuSans-48"/>
       <use x="63.623047" xlink:href="#DejaVuSans-46"/>
       <use x="95.410156" xlink:href="#DejaVuSans-56"/>
      </g>
     </g>
    </g>
    <g id="ytick_8">
     <g id="line2d_29">
      <path clip-path="url(#p194162ce06)" d="M 90 76.387202 
L 648 76.387202 
" style="fill:none;stroke:#808080;stroke-linecap:square;stroke-opacity:0.2;"/>
     </g>
     <g id="line2d_30">
      <g>
       <use style="stroke:#000000;stroke-width:0.8;" x="90" xlink:href="#m6018ec34cc" y="76.387202"/>
      </g>
     </g>
     <g id="text_16">
      <!-- 1.0 -->
      <g transform="translate(67.096875 80.186421)scale(0.1 -0.1)">
       <use xlink:href="#DejaVuSans-49"/>
       <use x="63.623047" xlink:href="#DejaVuSans-46"/>
       <use x="95.410156" xlink:href="#DejaVuSans-48"/>
      </g>
     </g>
    </g>
    <g id="text_17">
     <!-- Preisänderung_in_einer_Woche_Ankündigung_Teil_Lockdown -->
     <g transform="translate(52.359375 369.046719)rotate(-90)scale(0.1 -0.1)">
      <defs>
       <path d="M 19.671875 64.796875 
L 19.671875 37.40625 
L 32.078125 37.40625 
Q 38.96875 37.40625 42.71875 40.96875 
Q 46.484375 44.53125 46.484375 51.125 
Q 46.484375 57.671875 42.71875 61.234375 
Q 38.96875 64.796875 32.078125 64.796875 
z
M 9.8125 72.90625 
L 32.078125 72.90625 
Q 44.34375 72.90625 50.609375 67.359375 
Q 56.890625 61.8125 56.890625 51.125 
Q 56.890625 40.328125 50.609375 34.8125 
Q 44.34375 29.296875 32.078125 29.296875 
L 19.671875 29.296875 
L 19.671875 0 
L 9.8125 0 
z
" id="DejaVuSans-80"/>
       <path d="M 41.109375 46.296875 
Q 39.59375 47.171875 37.8125 47.578125 
Q 36.03125 48 33.890625 48 
Q 26.265625 48 22.1875 43.046875 
Q 18.109375 38.09375 18.109375 28.8125 
L 18.109375 0 
L 9.078125 0 
L 9.078125 54.6875 
L 18.109375 54.6875 
L 18.109375 46.1875 
Q 20.953125 51.171875 25.484375 53.578125 
Q 30.03125 56 36.53125 56 
Q 37.453125 56 38.578125 55.875 
Q 39.703125 55.765625 41.0625 55.515625 
z
" id="DejaVuSans-114"/>
       <path d="M 56.203125 29.59375 
L 56.203125 25.203125 
L 14.890625 25.203125 
Q 15.484375 15.921875 20.484375 11.0625 
Q 25.484375 6.203125 34.421875 6.203125 
Q 39.59375 6.203125 44.453125 7.46875 
Q 49.3125 8.734375 54.109375 11.28125 
L 54.109375 2.78125 
Q 49.265625 0.734375 44.1875 -0.34375 
Q 39.109375 -1.421875 33.890625 -1.421875 
Q 20.796875 -1.421875 13.15625 6.1875 
Q 5.515625 13.8125 5.515625 26.8125 
Q 5.515625 40.234375 12.765625 48.109375 
Q 20.015625 56 32.328125 56 
Q 43.359375 56 49.78125 48.890625 
Q 56.203125 41.796875 56.203125 29.59375 
z
M 47.21875 32.234375 
Q 47.125 39.59375 43.09375 43.984375 
Q 39.0625 48.390625 32.421875 48.390625 
Q 24.90625 48.390625 20.390625 44.140625 
Q 15.875 39.890625 15.1875 32.171875 
z
" id="DejaVuSans-101"/>
       <path d="M 9.421875 54.6875 
L 18.40625 54.6875 
L 18.40625 0 
L 9.421875 0 
z
M 9.421875 75.984375 
L 18.40625 75.984375 
L 18.40625 64.59375 
L 9.421875 64.59375 
z
" id="DejaVuSans-105"/>
       <path d="M 34.28125 27.484375 
Q 23.390625 27.484375 19.1875 25 
Q 14.984375 22.515625 14.984375 16.5 
Q 14.984375 11.71875 18.140625 8.90625 
Q 21.296875 6.109375 26.703125 6.109375 
Q 34.1875 6.109375 38.703125 11.40625 
Q 43.21875 16.703125 43.21875 25.484375 
L 43.21875 27.484375 
z
M 52.203125 31.203125 
L 52.203125 0 
L 43.21875 0 
L 43.21875 8.296875 
Q 40.140625 3.328125 35.546875 0.953125 
Q 30.953125 -1.421875 24.3125 -1.421875 
Q 15.921875 -1.421875 10.953125 3.296875 
Q 6 8.015625 6 15.921875 
Q 6 25.140625 12.171875 29.828125 
Q 18.359375 34.515625 30.609375 34.515625 
L 43.21875 34.515625 
L 43.21875 35.40625 
Q 43.21875 41.609375 39.140625 45 
Q 35.0625 48.390625 27.6875 48.390625 
Q 23 48.390625 18.546875 47.265625 
Q 14.109375 46.140625 10.015625 43.890625 
L 10.015625 52.203125 
Q 14.9375 54.109375 19.578125 55.046875 
Q 24.21875 56 28.609375 56 
Q 40.484375 56 46.34375 49.84375 
Q 52.203125 43.703125 52.203125 31.203125 
z
M 33.59375 75.78125 
L 43.5 75.78125 
L 43.5 65.921875 
L 33.59375 65.921875 
z
M 14.5 75.78125 
L 24.40625 75.78125 
L 24.40625 65.921875 
L 14.5 65.921875 
z
" id="DejaVuSans-228"/>
       <path d="M 54.890625 33.015625 
L 54.890625 0 
L 45.90625 0 
L 45.90625 32.71875 
Q 45.90625 40.484375 42.875 44.328125 
Q 39.84375 48.1875 33.796875 48.1875 
Q 26.515625 48.1875 22.3125 43.546875 
Q 18.109375 38.921875 18.109375 30.90625 
L 18.109375 0 
L 9.078125 0 
L 9.078125 54.6875 
L 18.109375 54.6875 
L 18.109375 46.1875 
Q 21.34375 51.125 25.703125 53.5625 
Q 30.078125 56 35.796875 56 
Q 45.21875 56 50.046875 50.171875 
Q 54.890625 44.34375 54.890625 33.015625 
z
" id="DejaVuSans-110"/>
       <path d="M 8.5 21.578125 
L 8.5 54.6875 
L 17.484375 54.6875 
L 17.484375 21.921875 
Q 17.484375 14.15625 20.5 10.265625 
Q 23.53125 6.390625 29.59375 6.390625 
Q 36.859375 6.390625 41.078125 11.03125 
Q 45.3125 15.671875 45.3125 23.6875 
L 45.3125 54.6875 
L 54.296875 54.6875 
L 54.296875 0 
L 45.3125 0 
L 45.3125 8.40625 
Q 42.046875 3.421875 37.71875 1 
Q 33.40625 -1.421875 27.6875 -1.421875 
Q 18.265625 -1.421875 13.375 4.4375 
Q 8.5 10.296875 8.5 21.578125 
z
M 31.109375 56 
z
" id="DejaVuSans-117"/>
       <path d="M 45.40625 27.984375 
Q 45.40625 37.75 41.375 43.109375 
Q 37.359375 48.484375 30.078125 48.484375 
Q 22.859375 48.484375 18.828125 43.109375 
Q 14.796875 37.75 14.796875 27.984375 
Q 14.796875 18.265625 18.828125 12.890625 
Q 22.859375 7.515625 30.078125 7.515625 
Q 37.359375 7.515625 41.375 12.890625 
Q 45.40625 18.265625 45.40625 27.984375 
z
M 54.390625 6.78125 
Q 54.390625 -7.171875 48.1875 -13.984375 
Q 42 -20.796875 29.203125 -20.796875 
Q 24.46875 -20.796875 20.265625 -20.09375 
Q 16.0625 -19.390625 12.109375 -17.921875 
L 12.109375 -9.1875 
Q 16.0625 -11.328125 19.921875 -12.34375 
Q 23.78125 -13.375 27.78125 -13.375 
Q 36.625 -13.375 41.015625 -8.765625 
Q 45.40625 -4.15625 45.40625 5.171875 
L 45.40625 9.625 
Q 42.625 4.78125 38.28125 2.390625 
Q 33.9375 0 27.875 0 
Q 17.828125 0 11.671875 7.65625 
Q 5.515625 15.328125 5.515625 27.984375 
Q 5.515625 40.671875 11.671875 48.328125 
Q 17.828125 56 27.875 56 
Q 33.9375 56 38.28125 53.609375 
Q 42.625 51.21875 45.40625 46.390625 
L 45.40625 54.6875 
L 54.390625 54.6875 
z
" id="DejaVuSans-103"/>
       <path d="M 50.984375 -16.609375 
L 50.984375 -23.578125 
L -0.984375 -23.578125 
L -0.984375 -16.609375 
z
" id="DejaVuSans-95"/>
       <path d="M 3.328125 72.90625 
L 13.28125 72.90625 
L 28.609375 11.28125 
L 43.890625 72.90625 
L 54.984375 72.90625 
L 70.3125 11.28125 
L 85.59375 72.90625 
L 95.609375 72.90625 
L 77.296875 0 
L 64.890625 0 
L 49.515625 63.28125 
L 33.984375 0 
L 21.578125 0 
z
" id="DejaVuSans-87"/>
       <path d="M 30.609375 48.390625 
Q 23.390625 48.390625 19.1875 42.75 
Q 14.984375 37.109375 14.984375 27.296875 
Q 14.984375 17.484375 19.15625 11.84375 
Q 23.34375 6.203125 30.609375 6.203125 
Q 37.796875 6.203125 41.984375 11.859375 
Q 46.1875 17.53125 46.1875 27.296875 
Q 46.1875 37.015625 41.984375 42.703125 
Q 37.796875 48.390625 30.609375 48.390625 
z
M 30.609375 56 
Q 42.328125 56 49.015625 48.375 
Q 55.71875 40.765625 55.71875 27.296875 
Q 55.71875 13.875 49.015625 6.21875 
Q 42.328125 -1.421875 30.609375 -1.421875 
Q 18.84375 -1.421875 12.171875 6.21875 
Q 5.515625 13.875 5.515625 27.296875 
Q 5.515625 40.765625 12.171875 48.375 
Q 18.84375 56 30.609375 56 
z
" id="DejaVuSans-111"/>
       <path d="M 48.78125 52.59375 
L 48.78125 44.1875 
Q 44.96875 46.296875 41.140625 47.34375 
Q 37.3125 48.390625 33.40625 48.390625 
Q 24.65625 48.390625 19.8125 42.84375 
Q 14.984375 37.3125 14.984375 27.296875 
Q 14.984375 17.28125 19.8125 11.734375 
Q 24.65625 6.203125 33.40625 6.203125 
Q 37.3125 6.203125 41.140625 7.25 
Q 44.96875 8.296875 48.78125 10.40625 
L 48.78125 2.09375 
Q 45.015625 0.34375 40.984375 -0.53125 
Q 36.96875 -1.421875 32.421875 -1.421875 
Q 20.0625 -1.421875 12.78125 6.34375 
Q 5.515625 14.109375 5.515625 27.296875 
Q 5.515625 40.671875 12.859375 48.328125 
Q 20.21875 56 33.015625 56 
Q 37.15625 56 41.109375 55.140625 
Q 45.0625 54.296875 48.78125 52.59375 
z
" id="DejaVuSans-99"/>
       <path d="M 54.890625 33.015625 
L 54.890625 0 
L 45.90625 0 
L 45.90625 32.71875 
Q 45.90625 40.484375 42.875 44.328125 
Q 39.84375 48.1875 33.796875 48.1875 
Q 26.515625 48.1875 22.3125 43.546875 
Q 18.109375 38.921875 18.109375 30.90625 
L 18.109375 0 
L 9.078125 0 
L 9.078125 75.984375 
L 18.109375 75.984375 
L 18.109375 46.1875 
Q 21.34375 51.125 25.703125 53.5625 
Q 30.078125 56 35.796875 56 
Q 45.21875 56 50.046875 50.171875 
Q 54.890625 44.34375 54.890625 33.015625 
z
" id="DejaVuSans-104"/>
       <path d="M 34.1875 63.1875 
L 20.796875 26.90625 
L 47.609375 26.90625 
z
M 28.609375 72.90625 
L 39.796875 72.90625 
L 67.578125 0 
L 57.328125 0 
L 50.6875 18.703125 
L 17.828125 18.703125 
L 11.1875 0 
L 0.78125 0 
z
" id="DejaVuSans-65"/>
       <path d="M 9.078125 75.984375 
L 18.109375 75.984375 
L 18.109375 31.109375 
L 44.921875 54.6875 
L 56.390625 54.6875 
L 27.390625 29.109375 
L 57.625 0 
L 45.90625 0 
L 18.109375 26.703125 
L 18.109375 0 
L 9.078125 0 
z
" id="DejaVuSans-107"/>
       <path d="M 8.5 21.578125 
L 8.5 54.6875 
L 17.484375 54.6875 
L 17.484375 21.921875 
Q 17.484375 14.15625 20.5 10.265625 
Q 23.53125 6.390625 29.59375 6.390625 
Q 36.859375 6.390625 41.078125 11.03125 
Q 45.3125 15.671875 45.3125 23.6875 
L 45.3125 54.6875 
L 54.296875 54.6875 
L 54.296875 0 
L 45.3125 0 
L 45.3125 8.40625 
Q 42.046875 3.421875 37.71875 1 
Q 33.40625 -1.421875 27.6875 -1.421875 
Q 18.265625 -1.421875 13.375 4.4375 
Q 8.5 10.296875 8.5 21.578125 
z
M 31.109375 56 
z
M 35.59375 75.78125 
L 45.5 75.78125 
L 45.5 65.921875 
L 35.59375 65.921875 
z
M 16.5 75.78125 
L 26.40625 75.78125 
L 26.40625 65.921875 
L 16.5 65.921875 
z
" id="DejaVuSans-252"/>
       <path d="M -0.296875 72.90625 
L 61.375 72.90625 
L 61.375 64.59375 
L 35.5 64.59375 
L 35.5 0 
L 25.59375 0 
L 25.59375 64.59375 
L -0.296875 64.59375 
z
" id="DejaVuSans-84"/>
       <path d="M 9.421875 75.984375 
L 18.40625 75.984375 
L 18.40625 0 
L 9.421875 0 
z
" id="DejaVuSans-108"/>
       <path d="M 9.8125 72.90625 
L 19.671875 72.90625 
L 19.671875 8.296875 
L 55.171875 8.296875 
L 55.171875 0 
L 9.8125 0 
z
" id="DejaVuSans-76"/>
       <path d="M 4.203125 54.6875 
L 13.1875 54.6875 
L 24.421875 12.015625 
L 35.59375 54.6875 
L 46.1875 54.6875 
L 57.421875 12.015625 
L 68.609375 54.6875 
L 77.59375 54.6875 
L 63.28125 0 
L 52.6875 0 
L 40.921875 44.828125 
L 29.109375 0 
L 18.5 0 
z
" id="DejaVuSans-119"/>
      </defs>
      <use xlink:href="#DejaVuSans-80"/>
      <use x="58.552734" xlink:href="#DejaVuSans-114"/>
      <use x="97.416016" xlink:href="#DejaVuSans-101"/>
      <use x="158.939453" xlink:href="#DejaVuSans-105"/>
      <use x="186.722656" xlink:href="#DejaVuSans-115"/>
      <use x="238.822266" xlink:href="#DejaVuSans-228"/>
      <use x="300.101562" xlink:href="#DejaVuSans-110"/>
      <use x="363.480469" xlink:href="#DejaVuSans-100"/>
      <use x="426.957031" xlink:href="#DejaVuSans-101"/>
      <use x="488.480469" xlink:href="#DejaVuSans-114"/>
      <use x="529.59375" xlink:href="#DejaVuSans-117"/>
      <use x="592.972656" xlink:href="#DejaVuSans-110"/>
      <use x="656.351562" xlink:href="#DejaVuSans-103"/>
      <use x="719.828125" xlink:href="#DejaVuSans-95"/>
      <use x="769.828125" xlink:href="#DejaVuSans-105"/>
      <use x="797.611328" xlink:href="#DejaVuSans-110"/>
      <use x="860.990234" xlink:href="#DejaVuSans-95"/>
      <use x="910.990234" xlink:href="#DejaVuSans-101"/>
      <use x="972.513672" xlink:href="#DejaVuSans-105"/>
      <use x="1000.296875" xlink:href="#DejaVuSans-110"/>
      <use x="1063.675781" xlink:href="#DejaVuSans-101"/>
      <use x="1125.199219" xlink:href="#DejaVuSans-114"/>
      <use x="1166.3125" xlink:href="#DejaVuSans-95"/>
      <use x="1216.3125" xlink:href="#DejaVuSans-87"/>
      <use x="1309.314453" xlink:href="#DejaVuSans-111"/>
      <use x="1370.496094" xlink:href="#DejaVuSans-99"/>
      <use x="1425.476562" xlink:href="#DejaVuSans-104"/>
      <use x="1488.855469" xlink:href="#DejaVuSans-101"/>
      <use x="1550.378906" xlink:href="#DejaVuSans-95"/>
      <use x="1600.378906" xlink:href="#DejaVuSans-65"/>
      <use x="1668.787109" xlink:href="#DejaVuSans-110"/>
      <use x="1732.166016" xlink:href="#DejaVuSans-107"/>
      <use x="1786.951172" xlink:href="#DejaVuSans-252"/>
      <use x="1850.330078" xlink:href="#DejaVuSans-110"/>
      <use x="1913.708984" xlink:href="#DejaVuSans-100"/>
      <use x="1977.185547" xlink:href="#DejaVuSans-105"/>
      <use x="2004.96875" xlink:href="#DejaVuSans-103"/>
      <use x="2068.445312" xlink:href="#DejaVuSans-117"/>
      <use x="2131.824219" xlink:href="#DejaVuSans-110"/>
      <use x="2195.203125" xlink:href="#DejaVuSans-103"/>
      <use x="2258.679688" xlink:href="#DejaVuSans-95"/>
      <use x="2308.679688" xlink:href="#DejaVuSans-84"/>
      <use x="2352.763672" xlink:href="#DejaVuSans-101"/>
      <use x="2414.287109" xlink:href="#DejaVuSans-105"/>
      <use x="2442.070312" xlink:href="#DejaVuSans-108"/>
      <use x="2469.853516" xlink:href="#DejaVuSans-95"/>
      <use x="2519.853516" xlink:href="#DejaVuSans-76"/>
      <use x="2573.816406" xlink:href="#DejaVuSans-111"/>
      <use x="2634.998047" xlink:href="#DejaVuSans-99"/>
      <use x="2689.978516" xlink:href="#DejaVuSans-107"/>
      <use x="2747.888672" xlink:href="#DejaVuSans-100"/>
      <use x="2811.365234" xlink:href="#DejaVuSans-111"/>
      <use x="2872.546875" xlink:href="#DejaVuSans-119"/>
      <use x="2954.333984" xlink:href="#DejaVuSans-110"/>
     </g>
    </g>
   </g>
   <g id="line2d_31">
    <path clip-path="url(#p194162ce06)" d="M 115.363636 294.552278 
L 480.877958 294.552278 
L 482.267746 95.816453 
L 483.657534 103.924577 
L 486.437111 66.96 
L 487.826899 211.253465 
L 489.216687 316.15957 
L 490.606476 364.228909 
L 491.996264 334.348997 
L 493.386052 369.36 
L 494.775841 294.552278 
L 622.636364 294.552278 
L 622.636364 294.552278 
" style="fill:none;stroke:#0072b2;stroke-linecap:square;stroke-width:1.5;"/>
   </g>
   <g id="patch_3">
    <path d="M 90 384.48 
L 90 51.84 
" style="fill:none;stroke:#000000;stroke-linecap:square;stroke-linejoin:miter;stroke-width:0.8;"/>
   </g>
   <g id="patch_4">
    <path d="M 648 384.48 
L 648 51.84 
" style="fill:none;stroke:#000000;stroke-linecap:square;stroke-linejoin:miter;stroke-width:0.8;"/>
   </g>
   <g id="patch_5">
    <path d="M 90 384.48 
L 648 384.48 
" style="fill:none;stroke:#000000;stroke-linecap:square;stroke-linejoin:miter;stroke-width:0.8;"/>
   </g>
   <g id="patch_6">
    <path d="M 90 51.84 
L 648 51.84 
" style="fill:none;stroke:#000000;stroke-linecap:square;stroke-linejoin:miter;stroke-width:0.8;"/>
   </g>
  </g>
 </g>
 <defs>
  <clipPath id="p194162ce06">
   <rect height="332.64" width="558" x="90" y="51.84"/>
  </clipPath>
 </defs>
</svg>
