<?xml version="1.0" encoding="utf-8" standalone="no"?>
<!DOCTYPE svg PUBLIC "-//W3C//DTD SVG 1.1//EN"
  "http://www.w3.org/Graphics/SVG/1.1/DTD/svg11.dtd">
<!-- Created with matplotlib (https://matplotlib.org/) -->
<svg height="432pt" version="1.1" viewBox="0 0 864 432" width="864pt" xmlns="http://www.w3.org/2000/svg" xmlns:xlink="http://www.w3.org/1999/xlink">
 <metadata>
  <rdf:RDF xmlns:cc="http://creativecommons.org/ns#" xmlns:dc="http://purl.org/dc/elements/1.1/" xmlns:rdf="http://www.w3.org/1999/02/22-rdf-syntax-ns#">
   <cc:Work>
    <dc:type rdf:resource="http://purl.org/dc/dcmitype/StillImage"/>
    <dc:date>2021-02-19T22:35:50.814860</dc:date>
    <dc:format>image/svg+xml</dc:format>
    <dc:creator>
     <cc:Agent>
      <dc:title>Matplotlib v3.3.2, https://matplotlib.org/</dc:title>
     </cc:Agent>
    </dc:creator>
   </cc:Work>
  </rdf:RDF>
 </metadata>
 <defs>
  <style type="text/css">*{stroke-linecap:butt;stroke-linejoin:round;}</style>
 </defs>
 <g id="figure_1">
  <g id="patch_1">
   <path d="M 0 432 
L 864 432 
L 864 0 
L 0 0 
z
" style="fill:#ffffff;"/>
  </g>
  <g id="axes_1">
   <g id="patch_2">
    <path d="M 44.57 390.04 
L 853.2 390.04 
L 853.2 28.32 
L 44.57 28.32 
z
" style="fill:#ffffff;"/>
   </g>
   <g id="matplotlib.axis_1">
    <g id="xtick_1">
     <g id="line2d_1">
      <path clip-path="url(#p970946d9c0)" d="M 121.108775 390.04 
L 121.108775 28.32 
" style="fill:none;stroke:#b0b0b0;stroke-linecap:square;stroke-width:0.8;"/>
     </g>
     <g id="line2d_2">
      <defs>
       <path d="M 0 0 
L 0 3.5 
" id="mfdb26cc81f" style="stroke:#000000;stroke-width:0.8;"/>
      </defs>
      <g>
       <use style="stroke:#000000;stroke-width:0.8;" x="121.108775" xlink:href="#mfdb26cc81f" y="390.04"/>
      </g>
     </g>
     <g id="text_1">
      <!-- 2020-01 -->
      <g transform="translate(100.217369 404.638438)scale(0.1 -0.1)">
       <defs>
        <path d="M 19.1875 8.296875 
L 53.609375 8.296875 
L 53.609375 0 
L 7.328125 0 
L 7.328125 8.296875 
Q 12.9375 14.109375 22.625 23.890625 
Q 32.328125 33.6875 34.8125 36.53125 
Q 39.546875 41.84375 41.421875 45.53125 
Q 43.3125 49.21875 43.3125 52.78125 
Q 43.3125 58.59375 39.234375 62.25 
Q 35.15625 65.921875 28.609375 65.921875 
Q 23.96875 65.921875 18.8125 64.3125 
Q 13.671875 62.703125 7.8125 59.421875 
L 7.8125 69.390625 
Q 13.765625 71.78125 18.9375 73 
Q 24.125 74.21875 28.421875 74.21875 
Q 39.75 74.21875 46.484375 68.546875 
Q 53.21875 62.890625 53.21875 53.421875 
Q 53.21875 48.921875 51.53125 44.890625 
Q 49.859375 40.875 45.40625 35.40625 
Q 44.1875 33.984375 37.640625 27.21875 
Q 31.109375 20.453125 19.1875 8.296875 
z
" id="DejaVuSans-50"/>
        <path d="M 31.78125 66.40625 
Q 24.171875 66.40625 20.328125 58.90625 
Q 16.5 51.421875 16.5 36.375 
Q 16.5 21.390625 20.328125 13.890625 
Q 24.171875 6.390625 31.78125 6.390625 
Q 39.453125 6.390625 43.28125 13.890625 
Q 47.125 21.390625 47.125 36.375 
Q 47.125 51.421875 43.28125 58.90625 
Q 39.453125 66.40625 31.78125 66.40625 
z
M 31.78125 74.21875 
Q 44.046875 74.21875 50.515625 64.515625 
Q 56.984375 54.828125 56.984375 36.375 
Q 56.984375 17.96875 50.515625 8.265625 
Q 44.046875 -1.421875 31.78125 -1.421875 
Q 19.53125 -1.421875 13.0625 8.265625 
Q 6.59375 17.96875 6.59375 36.375 
Q 6.59375 54.828125 13.0625 64.515625 
Q 19.53125 74.21875 31.78125 74.21875 
z
" id="DejaVuSans-48"/>
        <path d="M 4.890625 31.390625 
L 31.203125 31.390625 
L 31.203125 23.390625 
L 4.890625 23.390625 
z
" id="DejaVuSans-45"/>
        <path d="M 12.40625 8.296875 
L 28.515625 8.296875 
L 28.515625 63.921875 
L 10.984375 60.40625 
L 10.984375 69.390625 
L 28.421875 72.90625 
L 38.28125 72.90625 
L 38.28125 8.296875 
L 54.390625 8.296875 
L 54.390625 0 
L 12.40625 0 
z
" id="DejaVuSans-49"/>
       </defs>
       <use xlink:href="#DejaVuSans-50"/>
       <use x="63.623047" xlink:href="#DejaVuSans-48"/>
       <use x="127.246094" xlink:href="#DejaVuSans-50"/>
       <use x="190.869141" xlink:href="#DejaVuSans-48"/>
       <use x="254.492188" xlink:href="#DejaVuSans-45"/>
       <use x="290.576172" xlink:href="#DejaVuSans-48"/>
       <use x="354.199219" xlink:href="#DejaVuSans-49"/>
      </g>
     </g>
    </g>
    <g id="xtick_2">
     <g id="line2d_3">
      <path clip-path="url(#p970946d9c0)" d="M 224.890166 390.04 
L 224.890166 28.32 
" style="fill:none;stroke:#b0b0b0;stroke-linecap:square;stroke-width:0.8;"/>
     </g>
     <g id="line2d_4">
      <g>
       <use style="stroke:#000000;stroke-width:0.8;" x="224.890166" xlink:href="#mfdb26cc81f" y="390.04"/>
      </g>
     </g>
     <g id="text_2">
      <!-- 2020-03 -->
      <g transform="translate(203.99876 404.638438)scale(0.1 -0.1)">
       <defs>
        <path d="M 40.578125 39.3125 
Q 47.65625 37.796875 51.625 33 
Q 55.609375 28.21875 55.609375 21.1875 
Q 55.609375 10.40625 48.1875 4.484375 
Q 40.765625 -1.421875 27.09375 -1.421875 
Q 22.515625 -1.421875 17.65625 -0.515625 
Q 12.796875 0.390625 7.625 2.203125 
L 7.625 11.71875 
Q 11.71875 9.328125 16.59375 8.109375 
Q 21.484375 6.890625 26.8125 6.890625 
Q 36.078125 6.890625 40.9375 10.546875 
Q 45.796875 14.203125 45.796875 21.1875 
Q 45.796875 27.640625 41.28125 31.265625 
Q 36.765625 34.90625 28.71875 34.90625 
L 20.21875 34.90625 
L 20.21875 43.015625 
L 29.109375 43.015625 
Q 36.375 43.015625 40.234375 45.921875 
Q 44.09375 48.828125 44.09375 54.296875 
Q 44.09375 59.90625 40.109375 62.90625 
Q 36.140625 65.921875 28.71875 65.921875 
Q 24.65625 65.921875 20.015625 65.03125 
Q 15.375 64.15625 9.8125 62.3125 
L 9.8125 71.09375 
Q 15.4375 72.65625 20.34375 73.4375 
Q 25.25 74.21875 29.59375 74.21875 
Q 40.828125 74.21875 47.359375 69.109375 
Q 53.90625 64.015625 53.90625 55.328125 
Q 53.90625 49.265625 50.4375 45.09375 
Q 46.96875 40.921875 40.578125 39.3125 
z
" id="DejaVuSans-51"/>
       </defs>
       <use xlink:href="#DejaVuSans-50"/>
       <use x="63.623047" xlink:href="#DejaVuSans-48"/>
       <use x="127.246094" xlink:href="#DejaVuSans-50"/>
       <use x="190.869141" xlink:href="#DejaVuSans-48"/>
       <use x="254.492188" xlink:href="#DejaVuSans-45"/>
       <use x="290.576172" xlink:href="#DejaVuSans-48"/>
       <use x="354.199219" xlink:href="#DejaVuSans-51"/>
      </g>
     </g>
    </g>
    <g id="xtick_3">
     <g id="line2d_5">
      <path clip-path="url(#p970946d9c0)" d="M 330.401246 390.04 
L 330.401246 28.32 
" style="fill:none;stroke:#b0b0b0;stroke-linecap:square;stroke-width:0.8;"/>
     </g>
     <g id="line2d_6">
      <g>
       <use style="stroke:#000000;stroke-width:0.8;" x="330.401246" xlink:href="#mfdb26cc81f" y="390.04"/>
      </g>
     </g>
     <g id="text_3">
      <!-- 2020-05 -->
      <g transform="translate(309.50984 404.638438)scale(0.1 -0.1)">
       <defs>
        <path d="M 10.796875 72.90625 
L 49.515625 72.90625 
L 49.515625 64.59375 
L 19.828125 64.59375 
L 19.828125 46.734375 
Q 21.96875 47.46875 24.109375 47.828125 
Q 26.265625 48.1875 28.421875 48.1875 
Q 40.625 48.1875 47.75 41.5 
Q 54.890625 34.8125 54.890625 23.390625 
Q 54.890625 11.625 47.5625 5.09375 
Q 40.234375 -1.421875 26.90625 -1.421875 
Q 22.3125 -1.421875 17.546875 -0.640625 
Q 12.796875 0.140625 7.71875 1.703125 
L 7.71875 11.625 
Q 12.109375 9.234375 16.796875 8.0625 
Q 21.484375 6.890625 26.703125 6.890625 
Q 35.15625 6.890625 40.078125 11.328125 
Q 45.015625 15.765625 45.015625 23.390625 
Q 45.015625 31 40.078125 35.4375 
Q 35.15625 39.890625 26.703125 39.890625 
Q 22.75 39.890625 18.8125 39.015625 
Q 14.890625 38.140625 10.796875 36.28125 
z
" id="DejaVuSans-53"/>
       </defs>
       <use xlink:href="#DejaVuSans-50"/>
       <use x="63.623047" xlink:href="#DejaVuSans-48"/>
       <use x="127.246094" xlink:href="#DejaVuSans-50"/>
       <use x="190.869141" xlink:href="#DejaVuSans-48"/>
       <use x="254.492188" xlink:href="#DejaVuSans-45"/>
       <use x="290.576172" xlink:href="#DejaVuSans-48"/>
       <use x="354.199219" xlink:href="#DejaVuSans-53"/>
      </g>
     </g>
    </g>
    <g id="xtick_4">
     <g id="line2d_7">
      <path clip-path="url(#p970946d9c0)" d="M 435.912326 390.04 
L 435.912326 28.32 
" style="fill:none;stroke:#b0b0b0;stroke-linecap:square;stroke-width:0.8;"/>
     </g>
     <g id="line2d_8">
      <g>
       <use style="stroke:#000000;stroke-width:0.8;" x="435.912326" xlink:href="#mfdb26cc81f" y="390.04"/>
      </g>
     </g>
     <g id="text_4">
      <!-- 2020-07 -->
      <g transform="translate(415.02092 404.638438)scale(0.1 -0.1)">
       <defs>
        <path d="M 8.203125 72.90625 
L 55.078125 72.90625 
L 55.078125 68.703125 
L 28.609375 0 
L 18.3125 0 
L 43.21875 64.59375 
L 8.203125 64.59375 
z
" id="DejaVuSans-55"/>
       </defs>
       <use xlink:href="#DejaVuSans-50"/>
       <use x="63.623047" xlink:href="#DejaVuSans-48"/>
       <use x="127.246094" xlink:href="#DejaVuSans-50"/>
       <use x="190.869141" xlink:href="#DejaVuSans-48"/>
       <use x="254.492188" xlink:href="#DejaVuSans-45"/>
       <use x="290.576172" xlink:href="#DejaVuSans-48"/>
       <use x="354.199219" xlink:href="#DejaVuSans-55"/>
      </g>
     </g>
    </g>
    <g id="xtick_5">
     <g id="line2d_9">
      <path clip-path="url(#p970946d9c0)" d="M 543.153096 390.04 
L 543.153096 28.32 
" style="fill:none;stroke:#b0b0b0;stroke-linecap:square;stroke-width:0.8;"/>
     </g>
     <g id="line2d_10">
      <g>
       <use style="stroke:#000000;stroke-width:0.8;" x="543.153096" xlink:href="#mfdb26cc81f" y="390.04"/>
      </g>
     </g>
     <g id="text_5">
      <!-- 2020-09 -->
      <g transform="translate(522.26169 404.638438)scale(0.1 -0.1)">
       <defs>
        <path d="M 10.984375 1.515625 
L 10.984375 10.5 
Q 14.703125 8.734375 18.5 7.8125 
Q 22.3125 6.890625 25.984375 6.890625 
Q 35.75 6.890625 40.890625 13.453125 
Q 46.046875 20.015625 46.78125 33.40625 
Q 43.953125 29.203125 39.59375 26.953125 
Q 35.25 24.703125 29.984375 24.703125 
Q 19.046875 24.703125 12.671875 31.3125 
Q 6.296875 37.9375 6.296875 49.421875 
Q 6.296875 60.640625 12.9375 67.421875 
Q 19.578125 74.21875 30.609375 74.21875 
Q 43.265625 74.21875 49.921875 64.515625 
Q 56.59375 54.828125 56.59375 36.375 
Q 56.59375 19.140625 48.40625 8.859375 
Q 40.234375 -1.421875 26.421875 -1.421875 
Q 22.703125 -1.421875 18.890625 -0.6875 
Q 15.09375 0.046875 10.984375 1.515625 
z
M 30.609375 32.421875 
Q 37.25 32.421875 41.125 36.953125 
Q 45.015625 41.5 45.015625 49.421875 
Q 45.015625 57.28125 41.125 61.84375 
Q 37.25 66.40625 30.609375 66.40625 
Q 23.96875 66.40625 20.09375 61.84375 
Q 16.21875 57.28125 16.21875 49.421875 
Q 16.21875 41.5 20.09375 36.953125 
Q 23.96875 32.421875 30.609375 32.421875 
z
" id="DejaVuSans-57"/>
       </defs>
       <use xlink:href="#DejaVuSans-50"/>
       <use x="63.623047" xlink:href="#DejaVuSans-48"/>
       <use x="127.246094" xlink:href="#DejaVuSans-50"/>
       <use x="190.869141" xlink:href="#DejaVuSans-48"/>
       <use x="254.492188" xlink:href="#DejaVuSans-45"/>
       <use x="290.576172" xlink:href="#DejaVuSans-48"/>
       <use x="354.199219" xlink:href="#DejaVuSans-57"/>
      </g>
     </g>
    </g>
    <g id="xtick_6">
     <g id="line2d_11">
      <path clip-path="url(#p970946d9c0)" d="M 648.664176 390.04 
L 648.664176 28.32 
" style="fill:none;stroke:#b0b0b0;stroke-linecap:square;stroke-width:0.8;"/>
     </g>
     <g id="line2d_12">
      <g>
       <use style="stroke:#000000;stroke-width:0.8;" x="648.664176" xlink:href="#mfdb26cc81f" y="390.04"/>
      </g>
     </g>
     <g id="text_6">
      <!-- 2020-11 -->
      <g transform="translate(627.77277 404.638438)scale(0.1 -0.1)">
       <use xlink:href="#DejaVuSans-50"/>
       <use x="63.623047" xlink:href="#DejaVuSans-48"/>
       <use x="127.246094" xlink:href="#DejaVuSans-50"/>
       <use x="190.869141" xlink:href="#DejaVuSans-48"/>
       <use x="254.492188" xlink:href="#DejaVuSans-45"/>
       <use x="290.576172" xlink:href="#DejaVuSans-49"/>
       <use x="354.199219" xlink:href="#DejaVuSans-49"/>
      </g>
     </g>
    </g>
    <g id="xtick_7">
     <g id="line2d_13">
      <path clip-path="url(#p970946d9c0)" d="M 754.175257 390.04 
L 754.175257 28.32 
" style="fill:none;stroke:#b0b0b0;stroke-linecap:square;stroke-width:0.8;"/>
     </g>
     <g id="line2d_14">
      <g>
       <use style="stroke:#000000;stroke-width:0.8;" x="754.175257" xlink:href="#mfdb26cc81f" y="390.04"/>
      </g>
     </g>
     <g id="text_7">
      <!-- 2021-01 -->
      <g transform="translate(733.28385 404.638438)scale(0.1 -0.1)">
       <use xlink:href="#DejaVuSans-50"/>
       <use x="63.623047" xlink:href="#DejaVuSans-48"/>
       <use x="127.246094" xlink:href="#DejaVuSans-50"/>
       <use x="190.869141" xlink:href="#DejaVuSans-49"/>
       <use x="254.492188" xlink:href="#DejaVuSans-45"/>
       <use x="290.576172" xlink:href="#DejaVuSans-48"/>
       <use x="354.199219" xlink:href="#DejaVuSans-49"/>
      </g>
     </g>
    </g>
    <g id="text_8">
     <!-- Datum -->
     <g transform="translate(431.971719 418.316562)scale(0.1 -0.1)">
      <defs>
       <path d="M 19.671875 64.796875 
L 19.671875 8.109375 
L 31.59375 8.109375 
Q 46.6875 8.109375 53.6875 14.9375 
Q 60.6875 21.78125 60.6875 36.53125 
Q 60.6875 51.171875 53.6875 57.984375 
Q 46.6875 64.796875 31.59375 64.796875 
z
M 9.8125 72.90625 
L 30.078125 72.90625 
Q 51.265625 72.90625 61.171875 64.09375 
Q 71.09375 55.28125 71.09375 36.53125 
Q 71.09375 17.671875 61.125 8.828125 
Q 51.171875 0 30.078125 0 
L 9.8125 0 
z
" id="DejaVuSans-68"/>
       <path d="M 34.28125 27.484375 
Q 23.390625 27.484375 19.1875 25 
Q 14.984375 22.515625 14.984375 16.5 
Q 14.984375 11.71875 18.140625 8.90625 
Q 21.296875 6.109375 26.703125 6.109375 
Q 34.1875 6.109375 38.703125 11.40625 
Q 43.21875 16.703125 43.21875 25.484375 
L 43.21875 27.484375 
z
M 52.203125 31.203125 
L 52.203125 0 
L 43.21875 0 
L 43.21875 8.296875 
Q 40.140625 3.328125 35.546875 0.953125 
Q 30.953125 -1.421875 24.3125 -1.421875 
Q 15.921875 -1.421875 10.953125 3.296875 
Q 6 8.015625 6 15.921875 
Q 6 25.140625 12.171875 29.828125 
Q 18.359375 34.515625 30.609375 34.515625 
L 43.21875 34.515625 
L 43.21875 35.40625 
Q 43.21875 41.609375 39.140625 45 
Q 35.0625 48.390625 27.6875 48.390625 
Q 23 48.390625 18.546875 47.265625 
Q 14.109375 46.140625 10.015625 43.890625 
L 10.015625 52.203125 
Q 14.9375 54.109375 19.578125 55.046875 
Q 24.21875 56 28.609375 56 
Q 40.484375 56 46.34375 49.84375 
Q 52.203125 43.703125 52.203125 31.203125 
z
" id="DejaVuSans-97"/>
       <path d="M 18.3125 70.21875 
L 18.3125 54.6875 
L 36.8125 54.6875 
L 36.8125 47.703125 
L 18.3125 47.703125 
L 18.3125 18.015625 
Q 18.3125 11.328125 20.140625 9.421875 
Q 21.96875 7.515625 27.59375 7.515625 
L 36.8125 7.515625 
L 36.8125 0 
L 27.59375 0 
Q 17.1875 0 13.234375 3.875 
Q 9.28125 7.765625 9.28125 18.015625 
L 9.28125 47.703125 
L 2.6875 47.703125 
L 2.6875 54.6875 
L 9.28125 54.6875 
L 9.28125 70.21875 
z
" id="DejaVuSans-116"/>
       <path d="M 8.5 21.578125 
L 8.5 54.6875 
L 17.484375 54.6875 
L 17.484375 21.921875 
Q 17.484375 14.15625 20.5 10.265625 
Q 23.53125 6.390625 29.59375 6.390625 
Q 36.859375 6.390625 41.078125 11.03125 
Q 45.3125 15.671875 45.3125 23.6875 
L 45.3125 54.6875 
L 54.296875 54.6875 
L 54.296875 0 
L 45.3125 0 
L 45.3125 8.40625 
Q 42.046875 3.421875 37.71875 1 
Q 33.40625 -1.421875 27.6875 -1.421875 
Q 18.265625 -1.421875 13.375 4.4375 
Q 8.5 10.296875 8.5 21.578125 
z
M 31.109375 56 
z
" id="DejaVuSans-117"/>
       <path d="M 52 44.1875 
Q 55.375 50.25 60.0625 53.125 
Q 64.75 56 71.09375 56 
Q 79.640625 56 84.28125 50.015625 
Q 88.921875 44.046875 88.921875 33.015625 
L 88.921875 0 
L 79.890625 0 
L 79.890625 32.71875 
Q 79.890625 40.578125 77.09375 44.375 
Q 74.3125 48.1875 68.609375 48.1875 
Q 61.625 48.1875 57.5625 43.546875 
Q 53.515625 38.921875 53.515625 30.90625 
L 53.515625 0 
L 44.484375 0 
L 44.484375 32.71875 
Q 44.484375 40.625 41.703125 44.40625 
Q 38.921875 48.1875 33.109375 48.1875 
Q 26.21875 48.1875 22.15625 43.53125 
Q 18.109375 38.875 18.109375 30.90625 
L 18.109375 0 
L 9.078125 0 
L 9.078125 54.6875 
L 18.109375 54.6875 
L 18.109375 46.1875 
Q 21.1875 51.21875 25.484375 53.609375 
Q 29.78125 56 35.6875 56 
Q 41.65625 56 45.828125 52.96875 
Q 50 49.953125 52 44.1875 
z
" id="DejaVuSans-109"/>
      </defs>
      <use xlink:href="#DejaVuSans-68"/>
      <use x="77.001953" xlink:href="#DejaVuSans-97"/>
      <use x="138.28125" xlink:href="#DejaVuSans-116"/>
      <use x="177.490234" xlink:href="#DejaVuSans-117"/>
      <use x="240.869141" xlink:href="#DejaVuSans-109"/>
     </g>
    </g>
   </g>
   <g id="matplotlib.axis_2">
    <g id="ytick_1">
     <g id="line2d_15">
      <path clip-path="url(#p970946d9c0)" d="M 44.57 378.252837 
L 853.2 378.252837 
" style="fill:none;stroke:#b0b0b0;stroke-linecap:square;stroke-width:0.8;"/>
     </g>
     <g id="line2d_16">
      <defs>
       <path d="M 0 0 
L -3.5 0 
" id="m076de67efd" style="stroke:#000000;stroke-width:0.8;"/>
      </defs>
      <g>
       <use style="stroke:#000000;stroke-width:0.8;" x="44.57" xlink:href="#m076de67efd" y="378.252837"/>
      </g>
     </g>
     <g id="text_9">
      <!-- 5 -->
      <g transform="translate(31.2075 382.052056)scale(0.1 -0.1)">
       <use xlink:href="#DejaVuSans-53"/>
      </g>
     </g>
    </g>
    <g id="ytick_2">
     <g id="line2d_17">
      <path clip-path="url(#p970946d9c0)" d="M 44.57 323.532419 
L 853.2 323.532419 
" style="fill:none;stroke:#b0b0b0;stroke-linecap:square;stroke-width:0.8;"/>
     </g>
     <g id="line2d_18">
      <g>
       <use style="stroke:#000000;stroke-width:0.8;" x="44.57" xlink:href="#m076de67efd" y="323.532419"/>
      </g>
     </g>
     <g id="text_10">
      <!-- 10 -->
      <g transform="translate(24.845 327.331638)scale(0.1 -0.1)">
       <use xlink:href="#DejaVuSans-49"/>
       <use x="63.623047" xlink:href="#DejaVuSans-48"/>
      </g>
     </g>
    </g>
    <g id="ytick_3">
     <g id="line2d_19">
      <path clip-path="url(#p970946d9c0)" d="M 44.57 268.812001 
L 853.2 268.812001 
" style="fill:none;stroke:#b0b0b0;stroke-linecap:square;stroke-width:0.8;"/>
     </g>
     <g id="line2d_20">
      <g>
       <use style="stroke:#000000;stroke-width:0.8;" x="44.57" xlink:href="#m076de67efd" y="268.812001"/>
      </g>
     </g>
     <g id="text_11">
      <!-- 15 -->
      <g transform="translate(24.845 272.61122)scale(0.1 -0.1)">
       <use xlink:href="#DejaVuSans-49"/>
       <use x="63.623047" xlink:href="#DejaVuSans-53"/>
      </g>
     </g>
    </g>
    <g id="ytick_4">
     <g id="line2d_21">
      <path clip-path="url(#p970946d9c0)" d="M 44.57 214.091583 
L 853.2 214.091583 
" style="fill:none;stroke:#b0b0b0;stroke-linecap:square;stroke-width:0.8;"/>
     </g>
     <g id="line2d_22">
      <g>
       <use style="stroke:#000000;stroke-width:0.8;" x="44.57" xlink:href="#m076de67efd" y="214.091583"/>
      </g>
     </g>
     <g id="text_12">
      <!-- 20 -->
      <g transform="translate(24.845 217.890802)scale(0.1 -0.1)">
       <use xlink:href="#DejaVuSans-50"/>
       <use x="63.623047" xlink:href="#DejaVuSans-48"/>
      </g>
     </g>
    </g>
    <g id="ytick_5">
     <g id="line2d_23">
      <path clip-path="url(#p970946d9c0)" d="M 44.57 159.371165 
L 853.2 159.371165 
" style="fill:none;stroke:#b0b0b0;stroke-linecap:square;stroke-width:0.8;"/>
     </g>
     <g id="line2d_24">
      <g>
       <use style="stroke:#000000;stroke-width:0.8;" x="44.57" xlink:href="#m076de67efd" y="159.371165"/>
      </g>
     </g>
     <g id="text_13">
      <!-- 25 -->
      <g transform="translate(24.845 163.170384)scale(0.1 -0.1)">
       <use xlink:href="#DejaVuSans-50"/>
       <use x="63.623047" xlink:href="#DejaVuSans-53"/>
      </g>
     </g>
    </g>
    <g id="ytick_6">
     <g id="line2d_25">
      <path clip-path="url(#p970946d9c0)" d="M 44.57 104.650747 
L 853.2 104.650747 
" style="fill:none;stroke:#b0b0b0;stroke-linecap:square;stroke-width:0.8;"/>
     </g>
     <g id="line2d_26">
      <g>
       <use style="stroke:#000000;stroke-width:0.8;" x="44.57" xlink:href="#m076de67efd" y="104.650747"/>
      </g>
     </g>
     <g id="text_14">
      <!-- 30 -->
      <g transform="translate(24.845 108.449966)scale(0.1 -0.1)">
       <use xlink:href="#DejaVuSans-51"/>
       <use x="63.623047" xlink:href="#DejaVuSans-48"/>
      </g>
     </g>
    </g>
    <g id="ytick_7">
     <g id="line2d_27">
      <path clip-path="url(#p970946d9c0)" d="M 44.57 49.930329 
L 853.2 49.930329 
" style="fill:none;stroke:#b0b0b0;stroke-linecap:square;stroke-width:0.8;"/>
     </g>
     <g id="line2d_28">
      <g>
       <use style="stroke:#000000;stroke-width:0.8;" x="44.57" xlink:href="#m076de67efd" y="49.930329"/>
      </g>
     </g>
     <g id="text_15">
      <!-- 35 -->
      <g transform="translate(24.845 53.729548)scale(0.1 -0.1)">
       <use xlink:href="#DejaVuSans-51"/>
       <use x="63.623047" xlink:href="#DejaVuSans-53"/>
      </g>
     </g>
    </g>
    <g id="text_16">
     <!-- durchschnittliche Produktpreise (€) -->
     <g transform="translate(18.765313 296.810469)rotate(-90)scale(0.1 -0.1)">
      <defs>
       <path d="M 45.40625 46.390625 
L 45.40625 75.984375 
L 54.390625 75.984375 
L 54.390625 0 
L 45.40625 0 
L 45.40625 8.203125 
Q 42.578125 3.328125 38.25 0.953125 
Q 33.9375 -1.421875 27.875 -1.421875 
Q 17.96875 -1.421875 11.734375 6.484375 
Q 5.515625 14.40625 5.515625 27.296875 
Q 5.515625 40.1875 11.734375 48.09375 
Q 17.96875 56 27.875 56 
Q 33.9375 56 38.25 53.625 
Q 42.578125 51.265625 45.40625 46.390625 
z
M 14.796875 27.296875 
Q 14.796875 17.390625 18.875 11.75 
Q 22.953125 6.109375 30.078125 6.109375 
Q 37.203125 6.109375 41.296875 11.75 
Q 45.40625 17.390625 45.40625 27.296875 
Q 45.40625 37.203125 41.296875 42.84375 
Q 37.203125 48.484375 30.078125 48.484375 
Q 22.953125 48.484375 18.875 42.84375 
Q 14.796875 37.203125 14.796875 27.296875 
z
" id="DejaVuSans-100"/>
       <path d="M 41.109375 46.296875 
Q 39.59375 47.171875 37.8125 47.578125 
Q 36.03125 48 33.890625 48 
Q 26.265625 48 22.1875 43.046875 
Q 18.109375 38.09375 18.109375 28.8125 
L 18.109375 0 
L 9.078125 0 
L 9.078125 54.6875 
L 18.109375 54.6875 
L 18.109375 46.1875 
Q 20.953125 51.171875 25.484375 53.578125 
Q 30.03125 56 36.53125 56 
Q 37.453125 56 38.578125 55.875 
Q 39.703125 55.765625 41.0625 55.515625 
z
" id="DejaVuSans-114"/>
       <path d="M 48.78125 52.59375 
L 48.78125 44.1875 
Q 44.96875 46.296875 41.140625 47.34375 
Q 37.3125 48.390625 33.40625 48.390625 
Q 24.65625 48.390625 19.8125 42.84375 
Q 14.984375 37.3125 14.984375 27.296875 
Q 14.984375 17.28125 19.8125 11.734375 
Q 24.65625 6.203125 33.40625 6.203125 
Q 37.3125 6.203125 41.140625 7.25 
Q 44.96875 8.296875 48.78125 10.40625 
L 48.78125 2.09375 
Q 45.015625 0.34375 40.984375 -0.53125 
Q 36.96875 -1.421875 32.421875 -1.421875 
Q 20.0625 -1.421875 12.78125 6.34375 
Q 5.515625 14.109375 5.515625 27.296875 
Q 5.515625 40.671875 12.859375 48.328125 
Q 20.21875 56 33.015625 56 
Q 37.15625 56 41.109375 55.140625 
Q 45.0625 54.296875 48.78125 52.59375 
z
" id="DejaVuSans-99"/>
       <path d="M 54.890625 33.015625 
L 54.890625 0 
L 45.90625 0 
L 45.90625 32.71875 
Q 45.90625 40.484375 42.875 44.328125 
Q 39.84375 48.1875 33.796875 48.1875 
Q 26.515625 48.1875 22.3125 43.546875 
Q 18.109375 38.921875 18.109375 30.90625 
L 18.109375 0 
L 9.078125 0 
L 9.078125 75.984375 
L 18.109375 75.984375 
L 18.109375 46.1875 
Q 21.34375 51.125 25.703125 53.5625 
Q 30.078125 56 35.796875 56 
Q 45.21875 56 50.046875 50.171875 
Q 54.890625 44.34375 54.890625 33.015625 
z
" id="DejaVuSans-104"/>
       <path d="M 44.28125 53.078125 
L 44.28125 44.578125 
Q 40.484375 46.53125 36.375 47.5 
Q 32.28125 48.484375 27.875 48.484375 
Q 21.1875 48.484375 17.84375 46.4375 
Q 14.5 44.390625 14.5 40.28125 
Q 14.5 37.15625 16.890625 35.375 
Q 19.28125 33.59375 26.515625 31.984375 
L 29.59375 31.296875 
Q 39.15625 29.25 43.1875 25.515625 
Q 47.21875 21.78125 47.21875 15.09375 
Q 47.21875 7.46875 41.1875 3.015625 
Q 35.15625 -1.421875 24.609375 -1.421875 
Q 20.21875 -1.421875 15.453125 -0.5625 
Q 10.6875 0.296875 5.421875 2 
L 5.421875 11.28125 
Q 10.40625 8.6875 15.234375 7.390625 
Q 20.0625 6.109375 24.8125 6.109375 
Q 31.15625 6.109375 34.5625 8.28125 
Q 37.984375 10.453125 37.984375 14.40625 
Q 37.984375 18.0625 35.515625 20.015625 
Q 33.0625 21.96875 24.703125 23.78125 
L 21.578125 24.515625 
Q 13.234375 26.265625 9.515625 29.90625 
Q 5.8125 33.546875 5.8125 39.890625 
Q 5.8125 47.609375 11.28125 51.796875 
Q 16.75 56 26.8125 56 
Q 31.78125 56 36.171875 55.265625 
Q 40.578125 54.546875 44.28125 53.078125 
z
" id="DejaVuSans-115"/>
       <path d="M 54.890625 33.015625 
L 54.890625 0 
L 45.90625 0 
L 45.90625 32.71875 
Q 45.90625 40.484375 42.875 44.328125 
Q 39.84375 48.1875 33.796875 48.1875 
Q 26.515625 48.1875 22.3125 43.546875 
Q 18.109375 38.921875 18.109375 30.90625 
L 18.109375 0 
L 9.078125 0 
L 9.078125 54.6875 
L 18.109375 54.6875 
L 18.109375 46.1875 
Q 21.34375 51.125 25.703125 53.5625 
Q 30.078125 56 35.796875 56 
Q 45.21875 56 50.046875 50.171875 
Q 54.890625 44.34375 54.890625 33.015625 
z
" id="DejaVuSans-110"/>
       <path d="M 9.421875 54.6875 
L 18.40625 54.6875 
L 18.40625 0 
L 9.421875 0 
z
M 9.421875 75.984375 
L 18.40625 75.984375 
L 18.40625 64.59375 
L 9.421875 64.59375 
z
" id="DejaVuSans-105"/>
       <path d="M 9.421875 75.984375 
L 18.40625 75.984375 
L 18.40625 0 
L 9.421875 0 
z
" id="DejaVuSans-108"/>
       <path d="M 56.203125 29.59375 
L 56.203125 25.203125 
L 14.890625 25.203125 
Q 15.484375 15.921875 20.484375 11.0625 
Q 25.484375 6.203125 34.421875 6.203125 
Q 39.59375 6.203125 44.453125 7.46875 
Q 49.3125 8.734375 54.109375 11.28125 
L 54.109375 2.78125 
Q 49.265625 0.734375 44.1875 -0.34375 
Q 39.109375 -1.421875 33.890625 -1.421875 
Q 20.796875 -1.421875 13.15625 6.1875 
Q 5.515625 13.8125 5.515625 26.8125 
Q 5.515625 40.234375 12.765625 48.109375 
Q 20.015625 56 32.328125 56 
Q 43.359375 56 49.78125 48.890625 
Q 56.203125 41.796875 56.203125 29.59375 
z
M 47.21875 32.234375 
Q 47.125 39.59375 43.09375 43.984375 
Q 39.0625 48.390625 32.421875 48.390625 
Q 24.90625 48.390625 20.390625 44.140625 
Q 15.875 39.890625 15.1875 32.171875 
z
" id="DejaVuSans-101"/>
       <path id="DejaVuSans-32"/>
       <path d="M 19.671875 64.796875 
L 19.671875 37.40625 
L 32.078125 37.40625 
Q 38.96875 37.40625 42.71875 40.96875 
Q 46.484375 44.53125 46.484375 51.125 
Q 46.484375 57.671875 42.71875 61.234375 
Q 38.96875 64.796875 32.078125 64.796875 
z
M 9.8125 72.90625 
L 32.078125 72.90625 
Q 44.34375 72.90625 50.609375 67.359375 
Q 56.890625 61.8125 56.890625 51.125 
Q 56.890625 40.328125 50.609375 34.8125 
Q 44.34375 29.296875 32.078125 29.296875 
L 19.671875 29.296875 
L 19.671875 0 
L 9.8125 0 
z
" id="DejaVuSans-80"/>
       <path d="M 30.609375 48.390625 
Q 23.390625 48.390625 19.1875 42.75 
Q 14.984375 37.109375 14.984375 27.296875 
Q 14.984375 17.484375 19.15625 11.84375 
Q 23.34375 6.203125 30.609375 6.203125 
Q 37.796875 6.203125 41.984375 11.859375 
Q 46.1875 17.53125 46.1875 27.296875 
Q 46.1875 37.015625 41.984375 42.703125 
Q 37.796875 48.390625 30.609375 48.390625 
z
M 30.609375 56 
Q 42.328125 56 49.015625 48.375 
Q 55.71875 40.765625 55.71875 27.296875 
Q 55.71875 13.875 49.015625 6.21875 
Q 42.328125 -1.421875 30.609375 -1.421875 
Q 18.84375 -1.421875 12.171875 6.21875 
Q 5.515625 13.875 5.515625 27.296875 
Q 5.515625 40.765625 12.171875 48.375 
Q 18.84375 56 30.609375 56 
z
" id="DejaVuSans-111"/>
       <path d="M 9.078125 75.984375 
L 18.109375 75.984375 
L 18.109375 31.109375 
L 44.921875 54.6875 
L 56.390625 54.6875 
L 27.390625 29.109375 
L 57.625 0 
L 45.90625 0 
L 18.109375 26.703125 
L 18.109375 0 
L 9.078125 0 
z
" id="DejaVuSans-107"/>
       <path d="M 18.109375 8.203125 
L 18.109375 -20.796875 
L 9.078125 -20.796875 
L 9.078125 54.6875 
L 18.109375 54.6875 
L 18.109375 46.390625 
Q 20.953125 51.265625 25.265625 53.625 
Q 29.59375 56 35.59375 56 
Q 45.5625 56 51.78125 48.09375 
Q 58.015625 40.1875 58.015625 27.296875 
Q 58.015625 14.40625 51.78125 6.484375 
Q 45.5625 -1.421875 35.59375 -1.421875 
Q 29.59375 -1.421875 25.265625 0.953125 
Q 20.953125 3.328125 18.109375 8.203125 
z
M 48.6875 27.296875 
Q 48.6875 37.203125 44.609375 42.84375 
Q 40.53125 48.484375 33.40625 48.484375 
Q 26.265625 48.484375 22.1875 42.84375 
Q 18.109375 37.203125 18.109375 27.296875 
Q 18.109375 17.390625 22.1875 11.75 
Q 26.265625 6.109375 33.40625 6.109375 
Q 40.53125 6.109375 44.609375 11.75 
Q 48.6875 17.390625 48.6875 27.296875 
z
" id="DejaVuSans-112"/>
       <path d="M 31 75.875 
Q 24.46875 64.65625 21.28125 53.65625 
Q 18.109375 42.671875 18.109375 31.390625 
Q 18.109375 20.125 21.3125 9.0625 
Q 24.515625 -2 31 -13.1875 
L 23.1875 -13.1875 
Q 15.875 -1.703125 12.234375 9.375 
Q 8.59375 20.453125 8.59375 31.390625 
Q 8.59375 42.28125 12.203125 53.3125 
Q 15.828125 64.359375 23.1875 75.875 
z
" id="DejaVuSans-40"/>
       <path d="M 56.984375 67.28125 
L 56.984375 56.890625 
Q 52.546875 62.015625 48.40625 64.203125 
Q 44.28125 66.40625 39.3125 66.40625 
Q 31.640625 66.40625 26.703125 61.515625 
Q 21.78125 56.640625 20.21875 47.515625 
L 48.390625 47.515625 
L 45.703125 41.5 
L 19.4375 41.5 
Q 19.34375 40.328125 19.3125 39.203125 
Q 19.28125 38.09375 19.28125 36.375 
Q 19.28125 34.8125 19.3125 33.6875 
Q 19.34375 32.5625 19.4375 31.390625 
L 41.21875 31.390625 
L 38.484375 25.390625 
L 20.21875 25.390625 
Q 21.78125 16.265625 26.703125 11.328125 
Q 31.640625 6.390625 39.3125 6.390625 
Q 44.28125 6.390625 48.40625 8.59375 
Q 52.546875 10.796875 56.984375 15.921875 
L 56.984375 5.609375 
Q 52.640625 2.09375 48.125 0.328125 
Q 43.609375 -1.421875 38.921875 -1.421875 
Q 27.34375 -1.421875 19.796875 5.65625 
Q 12.25 12.75 10.296875 25.390625 
L 0 25.390625 
L 2.6875 31.390625 
L 9.46875 31.390625 
Q 9.46875 32.515625 9.4375 33.65625 
Q 9.421875 34.8125 9.421875 36.375 
Q 9.421875 38.09375 9.4375 39.234375 
Q 9.46875 40.375 9.46875 41.5 
L 0 41.5 
L 2.6875 47.515625 
L 10.296875 47.515625 
Q 12.25 60.0625 19.8125 67.140625 
Q 27.390625 74.21875 38.921875 74.21875 
Q 43.703125 74.21875 48.21875 72.484375 
Q 52.734375 70.75 56.984375 67.28125 
z
" id="DejaVuSans-8364"/>
       <path d="M 8.015625 75.875 
L 15.828125 75.875 
Q 23.140625 64.359375 26.78125 53.3125 
Q 30.421875 42.28125 30.421875 31.390625 
Q 30.421875 20.453125 26.78125 9.375 
Q 23.140625 -1.703125 15.828125 -13.1875 
L 8.015625 -13.1875 
Q 14.5 -2 17.703125 9.0625 
Q 20.90625 20.125 20.90625 31.390625 
Q 20.90625 42.671875 17.703125 53.65625 
Q 14.5 64.65625 8.015625 75.875 
z
" id="DejaVuSans-41"/>
      </defs>
      <use xlink:href="#DejaVuSans-100"/>
      <use x="63.476562" xlink:href="#DejaVuSans-117"/>
      <use x="126.855469" xlink:href="#DejaVuSans-114"/>
      <use x="165.71875" xlink:href="#DejaVuSans-99"/>
      <use x="220.699219" xlink:href="#DejaVuSans-104"/>
      <use x="284.078125" xlink:href="#DejaVuSans-115"/>
      <use x="336.177734" xlink:href="#DejaVuSans-99"/>
      <use x="391.158203" xlink:href="#DejaVuSans-104"/>
      <use x="454.537109" xlink:href="#DejaVuSans-110"/>
      <use x="517.916016" xlink:href="#DejaVuSans-105"/>
      <use x="545.699219" xlink:href="#DejaVuSans-116"/>
      <use x="584.908203" xlink:href="#DejaVuSans-116"/>
      <use x="624.117188" xlink:href="#DejaVuSans-108"/>
      <use x="651.900391" xlink:href="#DejaVuSans-105"/>
      <use x="679.683594" xlink:href="#DejaVuSans-99"/>
      <use x="734.664062" xlink:href="#DejaVuSans-104"/>
      <use x="798.042969" xlink:href="#DejaVuSans-101"/>
      <use x="859.566406" xlink:href="#DejaVuSans-32"/>
      <use x="891.353516" xlink:href="#DejaVuSans-80"/>
      <use x="949.90625" xlink:href="#DejaVuSans-114"/>
      <use x="988.769531" xlink:href="#DejaVuSans-111"/>
      <use x="1049.951172" xlink:href="#DejaVuSans-100"/>
      <use x="1113.427734" xlink:href="#DejaVuSans-117"/>
      <use x="1176.806641" xlink:href="#DejaVuSans-107"/>
      <use x="1234.716797" xlink:href="#DejaVuSans-116"/>
      <use x="1273.925781" xlink:href="#DejaVuSans-112"/>
      <use x="1337.402344" xlink:href="#DejaVuSans-114"/>
      <use x="1376.265625" xlink:href="#DejaVuSans-101"/>
      <use x="1437.789062" xlink:href="#DejaVuSans-105"/>
      <use x="1465.572266" xlink:href="#DejaVuSans-115"/>
      <use x="1517.671875" xlink:href="#DejaVuSans-101"/>
      <use x="1579.195312" xlink:href="#DejaVuSans-32"/>
      <use x="1610.982422" xlink:href="#DejaVuSans-40"/>
      <use x="1649.996094" xlink:href="#DejaVuSans-8364"/>
      <use x="1713.619141" xlink:href="#DejaVuSans-41"/>
     </g>
    </g>
   </g>
   <g id="line2d_29">
    <path clip-path="url(#p970946d9c0)" d="M 81.325909 370.379937 
L 93.433738 370.448338 
L 95.163428 370.598819 
L 115.919706 370.598819 
L 117.649396 370.448338 
L 145.324433 370.523578 
L 147.054123 370.588559 
L 148.783813 370.831381 
L 150.513503 370.530418 
L 153.972882 370.571459 
L 155.702572 372.821836 
L 157.432262 373.201459 
L 159.161952 372.620054 
L 160.891642 373.598182 
L 162.621332 370.475698 
L 164.351021 370.390197 
L 166.080711 370.441498 
L 169.540091 370.420978 
L 171.269781 370.130275 
L 172.999471 369.43601 
L 174.72916 369.45311 
L 176.45885 369.011927 
L 178.18854 369.080327 
L 179.91823 368.495503 
L 181.64792 369.124788 
L 183.37761 316.301139 
L 185.107299 186.446828 
L 186.836989 186.134371 
L 188.566679 185.499908 
L 190.296369 186.140982 
L 192.026059 185.152844 
L 193.755749 188.238969 
L 195.485439 185.035614 
L 197.215128 182.886427 
L 198.944818 182.818865 
L 200.674508 183.203164 
L 204.133888 183.274241 
L 205.863578 182.519155 
L 207.593267 181.01135 
L 209.322957 183.473491 
L 211.052647 183.248761 
L 212.782337 182.760315 
L 214.512027 181.918205 
L 216.241717 182.300409 
L 217.971406 179.263419 
L 219.701096 170.221699 
L 223.160476 127.819455 
L 224.890166 162.413814 
L 226.619856 129.303227 
L 228.349545 123.789265 
L 230.079235 114.603393 
L 231.808925 103.967947 
L 233.538615 99.242913 
L 235.268305 95.57252 
L 236.997995 96.696076 
L 238.727684 90.597499 
L 240.457374 86.156071 
L 242.187064 80.759648 
L 243.916754 79.202453 
L 245.646444 73.580824 
L 247.376134 64.732615 
L 249.105824 60.213781 
L 250.835513 55.283856 
L 252.565203 53.790382 
L 254.294893 48.517473 
L 256.024583 48.058056 
L 257.754273 46.240023 
L 259.483963 46.106064 
L 261.213652 44.761818 
L 262.943342 46.881875 
L 264.673032 50.907246 
L 266.402722 49.408916 
L 268.132412 49.965765 
L 269.862102 57.507593 
L 271.591791 58.500772 
L 273.321481 56.505529 
L 275.051171 58.2278 
L 276.780861 55.659343 
L 278.510551 85.366762 
L 280.240241 76.050923 
L 281.96993 73.791647 
L 283.69962 69.697461 
L 285.42931 69.574826 
L 287.159 71.66875 
L 288.88869 73.156581 
L 290.61838 72.250535 
L 292.34807 71.183872 
L 294.077759 72.704636 
L 295.807449 72.680641 
L 297.537139 72.225786 
L 299.266829 70.943102 
L 300.996519 73.1577 
L 302.726209 74.232224 
L 304.455898 72.656285 
L 306.185588 70.53909 
L 307.915278 73.792192 
L 309.644968 71.118023 
L 311.374658 71.515948 
L 313.104348 72.292783 
L 314.834037 74.197259 
L 316.563727 77.299273 
L 318.293417 75.12009 
L 320.023107 74.126773 
L 321.752797 73.780725 
L 323.482487 74.688849 
L 325.212176 76.02395 
L 326.941866 78.55995 
L 328.671556 79.660003 
L 330.401246 82.858053 
L 332.130936 81.545019 
L 333.860626 81.470051 
L 335.590316 80.245313 
L 337.320005 79.228278 
L 339.049695 77.751972 
L 340.779385 81.608812 
L 342.509075 72.126609 
L 344.238765 72.068774 
L 345.968455 69.905125 
L 347.698144 71.645374 
L 349.427834 72.420358 
L 351.157524 73.800761 
L 352.887214 82.44086 
L 354.616904 82.632469 
L 356.346594 82.106316 
L 358.076283 82.299454 
L 359.805973 84.09857 
L 361.535663 85.470956 
L 363.265353 86.006112 
L 364.995043 83.184872 
L 366.724733 81.018747 
L 368.454422 82.415638 
L 370.184112 82.26617 
L 371.913802 86.448269 
L 373.643492 87.34709 
L 375.373182 84.50415 
L 377.102872 85.313288 
L 378.832561 85.341171 
L 380.562251 84.633794 
L 382.291941 83.773724 
L 384.021631 81.870494 
L 385.751321 84.838354 
L 387.481011 86.500711 
L 389.210701 86.637481 
L 390.94039 86.576115 
L 392.67008 86.847419 
L 394.39977 84.958105 
L 396.12946 87.539965 
L 397.85915 87.854995 
L 401.318529 87.993753 
L 403.048219 88.606671 
L 406.507599 87.967293 
L 408.237289 89.03636 
L 409.966979 88.956783 
L 413.426358 92.284057 
L 415.156048 92.115553 
L 416.885738 92.395731 
L 418.615428 90.728434 
L 422.074807 91.544153 
L 423.804497 92.06046 
L 425.534187 92.137516 
L 427.263877 92.329347 
L 428.993567 93.683336 
L 430.723257 93.446215 
L 432.452947 93.721554 
L 434.182636 94.808393 
L 435.912326 98.483719 
L 439.371706 103.982935 
L 441.101396 105.925076 
L 442.831086 105.676538 
L 444.560775 107.037228 
L 446.290465 107.042439 
L 448.020155 110.687117 
L 449.749845 111.76738 
L 451.479535 110.149839 
L 453.209225 111.477399 
L 454.938914 111.413522 
L 456.668604 105.944579 
L 458.398294 106.793086 
L 460.127984 108.151119 
L 461.857674 108.070681 
L 463.587364 106.402544 
L 465.317053 107.871258 
L 467.046743 107.757107 
L 468.776433 108.155578 
L 470.506123 108.962098 
L 472.235813 110.710307 
L 473.965503 111.385873 
L 475.695193 110.915833 
L 477.424882 108.863663 
L 479.154572 107.403215 
L 480.884262 108.162478 
L 482.613952 109.362496 
L 484.343642 109.160992 
L 486.073332 107.94679 
L 487.803021 110.510022 
L 489.532711 114.900843 
L 491.262401 115.059335 
L 492.992091 116.818276 
L 494.721781 115.781916 
L 496.451471 116.117045 
L 498.18116 115.89644 
L 499.91085 116.905539 
L 501.64054 116.169211 
L 503.37023 115.092633 
L 505.09992 123.92746 
L 506.82961 114.24502 
L 508.559299 123.657301 
L 510.288989 126.662939 
L 512.018679 126.917975 
L 513.748369 129.338888 
L 515.478059 129.426196 
L 517.207749 129.717468 
L 518.937439 129.498703 
L 520.667128 133.400098 
L 522.396818 131.66419 
L 524.126508 131.680313 
L 525.856198 132.302392 
L 527.585888 130.049938 
L 529.315578 132.585732 
L 531.045267 132.872818 
L 532.774957 132.563723 
L 534.504647 133.848837 
L 536.234337 135.417529 
L 537.964027 135.413901 
L 539.693717 135.27834 
L 541.423406 136.300553 
L 543.153096 140.404078 
L 544.882786 140.744239 
L 546.612476 140.009318 
L 548.342166 141.977562 
L 550.071856 141.96355 
L 551.801545 141.414171 
L 553.531235 141.617712 
L 555.260925 143.590325 
L 556.990615 143.299083 
L 558.720305 144.917783 
L 560.449995 144.508549 
L 562.179684 144.800311 
L 563.909374 144.296948 
L 565.639064 142.165485 
L 567.368754 139.616496 
L 569.098444 140.160172 
L 570.828134 141.8214 
L 572.557824 141.923784 
L 574.287513 141.63266 
L 576.017203 138.976537 
L 577.746893 139.24051 
L 579.476583 140.204188 
L 581.206273 139.121621 
L 582.935963 138.877502 
L 584.665652 139.881736 
L 586.395342 138.051589 
L 588.125032 137.691724 
L 589.854722 139.406746 
L 591.584412 141.485406 
L 593.314102 142.349539 
L 595.043791 142.42846 
L 596.773481 142.999031 
L 598.503171 139.913348 
L 600.232861 139.544492 
L 601.962551 139.293421 
L 603.692241 139.56154 
L 605.42193 140.896289 
L 607.15162 138.523998 
L 608.88131 140.658807 
L 610.611 140.163286 
L 612.34069 139.446145 
L 614.07038 140.257127 
L 615.80007 140.219019 
L 617.529759 139.620948 
L 619.259449 138.772363 
L 620.989139 138.195193 
L 622.718829 139.347046 
L 624.448519 139.616265 
L 627.907898 139.705108 
L 629.637588 138.33659 
L 631.367278 136.553577 
L 633.096968 136.623392 
L 634.826658 136.572564 
L 636.556348 136.253322 
L 638.286037 137.019671 
L 640.015727 134.820841 
L 641.745417 139.061467 
L 643.475107 139.439415 
L 645.204797 137.777385 
L 646.934487 137.011534 
L 648.664176 144.918986 
L 650.393866 150.855739 
L 652.123556 153.939904 
L 653.853246 154.289546 
L 655.582936 156.016328 
L 657.312626 154.344322 
L 660.772005 154.463712 
L 662.501695 156.45759 
L 664.231385 158.045084 
L 665.961075 158.001242 
L 667.690765 159.122764 
L 669.420455 157.581627 
L 671.150144 159.257574 
L 672.879834 159.013681 
L 674.609524 156.915675 
L 676.339214 157.486254 
L 678.068904 160.025085 
L 679.798594 158.788862 
L 681.528283 158.89089 
L 683.257973 159.962953 
L 684.987663 160.318635 
L 686.717353 161.441067 
L 688.447043 161.051872 
L 690.176733 162.343383 
L 691.906422 162.723757 
L 693.636112 162.985319 
L 695.365802 163.450087 
L 697.095492 163.310602 
L 698.825182 164.619248 
L 700.554872 165.470064 
L 702.284561 165.051943 
L 704.014251 164.897388 
L 705.743941 166.137717 
L 707.473631 165.869728 
L 709.203321 166.070153 
L 710.933011 165.571302 
L 712.662701 166.593721 
L 714.39239 167.022329 
L 716.12208 161.669754 
L 717.85177 161.827406 
L 719.58146 161.765735 
L 721.31115 160.972841 
L 723.04084 161.636359 
L 724.770529 160.501503 
L 726.500219 161.082983 
L 728.229909 162.451332 
L 731.689289 161.952255 
L 733.418979 161.866988 
L 735.148668 161.526469 
L 736.878358 161.645579 
L 738.608048 161.061785 
L 742.067428 160.807508 
L 747.256497 160.723204 
L 748.986187 161.879194 
L 752.445567 160.151521 
L 754.175257 160.777431 
L 755.904947 160.416177 
L 757.634636 159.732309 
L 759.364326 160.315189 
L 761.094016 157.974889 
L 762.823706 158.524947 
L 764.553396 157.671594 
L 766.283086 158.514958 
L 768.012775 157.843494 
L 769.742465 156.842171 
L 771.472155 157.070715 
L 773.201845 159.329056 
L 774.931535 158.69851 
L 776.661225 159.038461 
L 778.390914 158.838312 
L 780.120604 158.401973 
L 781.850294 158.284206 
L 785.309674 160.020799 
L 787.039364 162.321357 
L 788.769053 160.126625 
L 790.498743 157.421826 
L 792.228433 157.198672 
L 793.958123 156.640951 
L 795.687813 161.108525 
L 797.417503 161.211174 
L 799.147193 163.849476 
L 800.876882 161.923689 
L 802.606572 162.123071 
L 804.336262 160.803756 
L 806.065952 160.548942 
L 807.795642 164.159284 
L 809.525332 164.875974 
L 811.255021 165.03732 
L 812.984711 165.479339 
L 814.714401 164.719378 
L 816.444091 164.641003 
L 816.444091 164.641003 
" style="fill:none;stroke:#1f77b4;stroke-linecap:square;stroke-width:1.5;"/>
    <defs>
     <path d="M -3 3 
L 3 -3 
M -3 -3 
L 3 3 
" id="m478e796d68" style="stroke:#1f77b4;"/>
    </defs>
    <g clip-path="url(#p970946d9c0)">
     <use style="fill:#1f77b4;stroke:#1f77b4;" x="81.325909" xlink:href="#m478e796d68" y="370.379937"/>
     <use style="fill:#1f77b4;stroke:#1f77b4;" x="83.055599" xlink:href="#m478e796d68" y="370.379937"/>
     <use style="fill:#1f77b4;stroke:#1f77b4;" x="84.785289" xlink:href="#m478e796d68" y="370.455178"/>
     <use style="fill:#1f77b4;stroke:#1f77b4;" x="86.514979" xlink:href="#m478e796d68" y="370.448338"/>
     <use style="fill:#1f77b4;stroke:#1f77b4;" x="88.244668" xlink:href="#m478e796d68" y="370.448338"/>
     <use style="fill:#1f77b4;stroke:#1f77b4;" x="89.974358" xlink:href="#m478e796d68" y="370.448338"/>
     <use style="fill:#1f77b4;stroke:#1f77b4;" x="91.704048" xlink:href="#m478e796d68" y="370.448338"/>
     <use style="fill:#1f77b4;stroke:#1f77b4;" x="93.433738" xlink:href="#m478e796d68" y="370.448338"/>
     <use style="fill:#1f77b4;stroke:#1f77b4;" x="95.163428" xlink:href="#m478e796d68" y="370.598819"/>
     <use style="fill:#1f77b4;stroke:#1f77b4;" x="96.893118" xlink:href="#m478e796d68" y="370.598819"/>
     <use style="fill:#1f77b4;stroke:#1f77b4;" x="98.622807" xlink:href="#m478e796d68" y="370.598819"/>
     <use style="fill:#1f77b4;stroke:#1f77b4;" x="100.352497" xlink:href="#m478e796d68" y="370.598819"/>
     <use style="fill:#1f77b4;stroke:#1f77b4;" x="102.082187" xlink:href="#m478e796d68" y="370.598819"/>
     <use style="fill:#1f77b4;stroke:#1f77b4;" x="103.811877" xlink:href="#m478e796d68" y="370.598819"/>
     <use style="fill:#1f77b4;stroke:#1f77b4;" x="105.541567" xlink:href="#m478e796d68" y="370.598819"/>
     <use style="fill:#1f77b4;stroke:#1f77b4;" x="107.271257" xlink:href="#m478e796d68" y="370.598819"/>
     <use style="fill:#1f77b4;stroke:#1f77b4;" x="109.000947" xlink:href="#m478e796d68" y="370.598819"/>
     <use style="fill:#1f77b4;stroke:#1f77b4;" x="110.730636" xlink:href="#m478e796d68" y="370.598819"/>
     <use style="fill:#1f77b4;stroke:#1f77b4;" x="112.460326" xlink:href="#m478e796d68" y="370.598819"/>
     <use style="fill:#1f77b4;stroke:#1f77b4;" x="114.190016" xlink:href="#m478e796d68" y="370.598819"/>
     <use style="fill:#1f77b4;stroke:#1f77b4;" x="115.919706" xlink:href="#m478e796d68" y="370.598819"/>
     <use style="fill:#1f77b4;stroke:#1f77b4;" x="117.649396" xlink:href="#m478e796d68" y="370.448338"/>
     <use style="fill:#1f77b4;stroke:#1f77b4;" x="119.379086" xlink:href="#m478e796d68" y="370.448338"/>
     <use style="fill:#1f77b4;stroke:#1f77b4;" x="121.108775" xlink:href="#m478e796d68" y="370.448338"/>
     <use style="fill:#1f77b4;stroke:#1f77b4;" x="122.838465" xlink:href="#m478e796d68" y="370.448338"/>
     <use style="fill:#1f77b4;stroke:#1f77b4;" x="124.568155" xlink:href="#m478e796d68" y="370.448338"/>
     <use style="fill:#1f77b4;stroke:#1f77b4;" x="126.297845" xlink:href="#m478e796d68" y="370.448338"/>
     <use style="fill:#1f77b4;stroke:#1f77b4;" x="128.027535" xlink:href="#m478e796d68" y="370.448338"/>
     <use style="fill:#1f77b4;stroke:#1f77b4;" x="129.757225" xlink:href="#m478e796d68" y="370.448338"/>
     <use style="fill:#1f77b4;stroke:#1f77b4;" x="131.486914" xlink:href="#m478e796d68" y="370.448338"/>
     <use style="fill:#1f77b4;stroke:#1f77b4;" x="133.216604" xlink:href="#m478e796d68" y="370.448338"/>
     <use style="fill:#1f77b4;stroke:#1f77b4;" x="134.946294" xlink:href="#m478e796d68" y="370.448338"/>
     <use style="fill:#1f77b4;stroke:#1f77b4;" x="136.675984" xlink:href="#m478e796d68" y="370.448338"/>
     <use style="fill:#1f77b4;stroke:#1f77b4;" x="138.405674" xlink:href="#m478e796d68" y="370.448338"/>
     <use style="fill:#1f77b4;stroke:#1f77b4;" x="140.135364" xlink:href="#m478e796d68" y="370.448338"/>
     <use style="fill:#1f77b4;stroke:#1f77b4;" x="141.865053" xlink:href="#m478e796d68" y="370.485958"/>
     <use style="fill:#1f77b4;stroke:#1f77b4;" x="143.594743" xlink:href="#m478e796d68" y="370.516738"/>
     <use style="fill:#1f77b4;stroke:#1f77b4;" x="145.324433" xlink:href="#m478e796d68" y="370.523578"/>
     <use style="fill:#1f77b4;stroke:#1f77b4;" x="147.054123" xlink:href="#m478e796d68" y="370.588559"/>
     <use style="fill:#1f77b4;stroke:#1f77b4;" x="148.783813" xlink:href="#m478e796d68" y="370.831381"/>
     <use style="fill:#1f77b4;stroke:#1f77b4;" x="150.513503" xlink:href="#m478e796d68" y="370.530418"/>
     <use style="fill:#1f77b4;stroke:#1f77b4;" x="152.243193" xlink:href="#m478e796d68" y="370.516738"/>
     <use style="fill:#1f77b4;stroke:#1f77b4;" x="153.972882" xlink:href="#m478e796d68" y="370.571459"/>
     <use style="fill:#1f77b4;stroke:#1f77b4;" x="155.702572" xlink:href="#m478e796d68" y="372.821836"/>
     <use style="fill:#1f77b4;stroke:#1f77b4;" x="157.432262" xlink:href="#m478e796d68" y="373.201459"/>
     <use style="fill:#1f77b4;stroke:#1f77b4;" x="159.161952" xlink:href="#m478e796d68" y="372.620054"/>
     <use style="fill:#1f77b4;stroke:#1f77b4;" x="160.891642" xlink:href="#m478e796d68" y="373.598182"/>
     <use style="fill:#1f77b4;stroke:#1f77b4;" x="162.621332" xlink:href="#m478e796d68" y="370.475698"/>
     <use style="fill:#1f77b4;stroke:#1f77b4;" x="164.351021" xlink:href="#m478e796d68" y="370.390197"/>
     <use style="fill:#1f77b4;stroke:#1f77b4;" x="166.080711" xlink:href="#m478e796d68" y="370.441498"/>
     <use style="fill:#1f77b4;stroke:#1f77b4;" x="167.810401" xlink:href="#m478e796d68" y="370.376517"/>
     <use style="fill:#1f77b4;stroke:#1f77b4;" x="169.540091" xlink:href="#m478e796d68" y="370.420978"/>
     <use style="fill:#1f77b4;stroke:#1f77b4;" x="171.269781" xlink:href="#m478e796d68" y="370.130275"/>
     <use style="fill:#1f77b4;stroke:#1f77b4;" x="172.999471" xlink:href="#m478e796d68" y="369.43601"/>
     <use style="fill:#1f77b4;stroke:#1f77b4;" x="174.72916" xlink:href="#m478e796d68" y="369.45311"/>
     <use style="fill:#1f77b4;stroke:#1f77b4;" x="176.45885" xlink:href="#m478e796d68" y="369.011927"/>
     <use style="fill:#1f77b4;stroke:#1f77b4;" x="178.18854" xlink:href="#m478e796d68" y="369.080327"/>
     <use style="fill:#1f77b4;stroke:#1f77b4;" x="179.91823" xlink:href="#m478e796d68" y="368.495503"/>
     <use style="fill:#1f77b4;stroke:#1f77b4;" x="181.64792" xlink:href="#m478e796d68" y="369.124788"/>
     <use style="fill:#1f77b4;stroke:#1f77b4;" x="183.37761" xlink:href="#m478e796d68" y="316.301139"/>
     <use style="fill:#1f77b4;stroke:#1f77b4;" x="185.107299" xlink:href="#m478e796d68" y="186.446828"/>
     <use style="fill:#1f77b4;stroke:#1f77b4;" x="186.836989" xlink:href="#m478e796d68" y="186.134371"/>
     <use style="fill:#1f77b4;stroke:#1f77b4;" x="188.566679" xlink:href="#m478e796d68" y="185.499908"/>
     <use style="fill:#1f77b4;stroke:#1f77b4;" x="190.296369" xlink:href="#m478e796d68" y="186.140982"/>
     <use style="fill:#1f77b4;stroke:#1f77b4;" x="192.026059" xlink:href="#m478e796d68" y="185.152844"/>
     <use style="fill:#1f77b4;stroke:#1f77b4;" x="193.755749" xlink:href="#m478e796d68" y="188.238969"/>
     <use style="fill:#1f77b4;stroke:#1f77b4;" x="195.485439" xlink:href="#m478e796d68" y="185.035614"/>
     <use style="fill:#1f77b4;stroke:#1f77b4;" x="197.215128" xlink:href="#m478e796d68" y="182.886427"/>
     <use style="fill:#1f77b4;stroke:#1f77b4;" x="198.944818" xlink:href="#m478e796d68" y="182.818865"/>
     <use style="fill:#1f77b4;stroke:#1f77b4;" x="200.674508" xlink:href="#m478e796d68" y="183.203164"/>
     <use style="fill:#1f77b4;stroke:#1f77b4;" x="202.404198" xlink:href="#m478e796d68" y="183.214471"/>
     <use style="fill:#1f77b4;stroke:#1f77b4;" x="204.133888" xlink:href="#m478e796d68" y="183.274241"/>
     <use style="fill:#1f77b4;stroke:#1f77b4;" x="205.863578" xlink:href="#m478e796d68" y="182.519155"/>
     <use style="fill:#1f77b4;stroke:#1f77b4;" x="207.593267" xlink:href="#m478e796d68" y="181.01135"/>
     <use style="fill:#1f77b4;stroke:#1f77b4;" x="209.322957" xlink:href="#m478e796d68" y="183.473491"/>
     <use style="fill:#1f77b4;stroke:#1f77b4;" x="211.052647" xlink:href="#m478e796d68" y="183.248761"/>
     <use style="fill:#1f77b4;stroke:#1f77b4;" x="212.782337" xlink:href="#m478e796d68" y="182.760315"/>
     <use style="fill:#1f77b4;stroke:#1f77b4;" x="214.512027" xlink:href="#m478e796d68" y="181.918205"/>
     <use style="fill:#1f77b4;stroke:#1f77b4;" x="216.241717" xlink:href="#m478e796d68" y="182.300409"/>
     <use style="fill:#1f77b4;stroke:#1f77b4;" x="217.971406" xlink:href="#m478e796d68" y="179.263419"/>
     <use style="fill:#1f77b4;stroke:#1f77b4;" x="219.701096" xlink:href="#m478e796d68" y="170.221699"/>
     <use style="fill:#1f77b4;stroke:#1f77b4;" x="221.430786" xlink:href="#m478e796d68" y="149.584363"/>
     <use style="fill:#1f77b4;stroke:#1f77b4;" x="223.160476" xlink:href="#m478e796d68" y="127.819455"/>
     <use style="fill:#1f77b4;stroke:#1f77b4;" x="224.890166" xlink:href="#m478e796d68" y="162.413814"/>
     <use style="fill:#1f77b4;stroke:#1f77b4;" x="226.619856" xlink:href="#m478e796d68" y="129.303227"/>
     <use style="fill:#1f77b4;stroke:#1f77b4;" x="228.349545" xlink:href="#m478e796d68" y="123.789265"/>
     <use style="fill:#1f77b4;stroke:#1f77b4;" x="230.079235" xlink:href="#m478e796d68" y="114.603393"/>
     <use style="fill:#1f77b4;stroke:#1f77b4;" x="231.808925" xlink:href="#m478e796d68" y="103.967947"/>
     <use style="fill:#1f77b4;stroke:#1f77b4;" x="233.538615" xlink:href="#m478e796d68" y="99.242913"/>
     <use style="fill:#1f77b4;stroke:#1f77b4;" x="235.268305" xlink:href="#m478e796d68" y="95.57252"/>
     <use style="fill:#1f77b4;stroke:#1f77b4;" x="236.997995" xlink:href="#m478e796d68" y="96.696076"/>
     <use style="fill:#1f77b4;stroke:#1f77b4;" x="238.727684" xlink:href="#m478e796d68" y="90.597499"/>
     <use style="fill:#1f77b4;stroke:#1f77b4;" x="240.457374" xlink:href="#m478e796d68" y="86.156071"/>
     <use style="fill:#1f77b4;stroke:#1f77b4;" x="242.187064" xlink:href="#m478e796d68" y="80.759648"/>
     <use style="fill:#1f77b4;stroke:#1f77b4;" x="243.916754" xlink:href="#m478e796d68" y="79.202453"/>
     <use style="fill:#1f77b4;stroke:#1f77b4;" x="245.646444" xlink:href="#m478e796d68" y="73.580824"/>
     <use style="fill:#1f77b4;stroke:#1f77b4;" x="247.376134" xlink:href="#m478e796d68" y="64.732615"/>
     <use style="fill:#1f77b4;stroke:#1f77b4;" x="249.105824" xlink:href="#m478e796d68" y="60.213781"/>
     <use style="fill:#1f77b4;stroke:#1f77b4;" x="250.835513" xlink:href="#m478e796d68" y="55.283856"/>
     <use style="fill:#1f77b4;stroke:#1f77b4;" x="252.565203" xlink:href="#m478e796d68" y="53.790382"/>
     <use style="fill:#1f77b4;stroke:#1f77b4;" x="254.294893" xlink:href="#m478e796d68" y="48.517473"/>
     <use style="fill:#1f77b4;stroke:#1f77b4;" x="256.024583" xlink:href="#m478e796d68" y="48.058056"/>
     <use style="fill:#1f77b4;stroke:#1f77b4;" x="257.754273" xlink:href="#m478e796d68" y="46.240023"/>
     <use style="fill:#1f77b4;stroke:#1f77b4;" x="259.483963" xlink:href="#m478e796d68" y="46.106064"/>
     <use style="fill:#1f77b4;stroke:#1f77b4;" x="261.213652" xlink:href="#m478e796d68" y="44.761818"/>
     <use style="fill:#1f77b4;stroke:#1f77b4;" x="262.943342" xlink:href="#m478e796d68" y="46.881875"/>
     <use style="fill:#1f77b4;stroke:#1f77b4;" x="264.673032" xlink:href="#m478e796d68" y="50.907246"/>
     <use style="fill:#1f77b4;stroke:#1f77b4;" x="266.402722" xlink:href="#m478e796d68" y="49.408916"/>
     <use style="fill:#1f77b4;stroke:#1f77b4;" x="268.132412" xlink:href="#m478e796d68" y="49.965765"/>
     <use style="fill:#1f77b4;stroke:#1f77b4;" x="269.862102" xlink:href="#m478e796d68" y="57.507593"/>
     <use style="fill:#1f77b4;stroke:#1f77b4;" x="271.591791" xlink:href="#m478e796d68" y="58.500772"/>
     <use style="fill:#1f77b4;stroke:#1f77b4;" x="273.321481" xlink:href="#m478e796d68" y="56.505529"/>
     <use style="fill:#1f77b4;stroke:#1f77b4;" x="275.051171" xlink:href="#m478e796d68" y="58.2278"/>
     <use style="fill:#1f77b4;stroke:#1f77b4;" x="276.780861" xlink:href="#m478e796d68" y="55.659343"/>
     <use style="fill:#1f77b4;stroke:#1f77b4;" x="278.510551" xlink:href="#m478e796d68" y="85.366762"/>
     <use style="fill:#1f77b4;stroke:#1f77b4;" x="280.240241" xlink:href="#m478e796d68" y="76.050923"/>
     <use style="fill:#1f77b4;stroke:#1f77b4;" x="281.96993" xlink:href="#m478e796d68" y="73.791647"/>
     <use style="fill:#1f77b4;stroke:#1f77b4;" x="283.69962" xlink:href="#m478e796d68" y="69.697461"/>
     <use style="fill:#1f77b4;stroke:#1f77b4;" x="285.42931" xlink:href="#m478e796d68" y="69.574826"/>
     <use style="fill:#1f77b4;stroke:#1f77b4;" x="287.159" xlink:href="#m478e796d68" y="71.66875"/>
     <use style="fill:#1f77b4;stroke:#1f77b4;" x="288.88869" xlink:href="#m478e796d68" y="73.156581"/>
     <use style="fill:#1f77b4;stroke:#1f77b4;" x="290.61838" xlink:href="#m478e796d68" y="72.250535"/>
     <use style="fill:#1f77b4;stroke:#1f77b4;" x="292.34807" xlink:href="#m478e796d68" y="71.183872"/>
     <use style="fill:#1f77b4;stroke:#1f77b4;" x="294.077759" xlink:href="#m478e796d68" y="72.704636"/>
     <use style="fill:#1f77b4;stroke:#1f77b4;" x="295.807449" xlink:href="#m478e796d68" y="72.680641"/>
     <use style="fill:#1f77b4;stroke:#1f77b4;" x="297.537139" xlink:href="#m478e796d68" y="72.225786"/>
     <use style="fill:#1f77b4;stroke:#1f77b4;" x="299.266829" xlink:href="#m478e796d68" y="70.943102"/>
     <use style="fill:#1f77b4;stroke:#1f77b4;" x="300.996519" xlink:href="#m478e796d68" y="73.1577"/>
     <use style="fill:#1f77b4;stroke:#1f77b4;" x="302.726209" xlink:href="#m478e796d68" y="74.232224"/>
     <use style="fill:#1f77b4;stroke:#1f77b4;" x="304.455898" xlink:href="#m478e796d68" y="72.656285"/>
     <use style="fill:#1f77b4;stroke:#1f77b4;" x="306.185588" xlink:href="#m478e796d68" y="70.53909"/>
     <use style="fill:#1f77b4;stroke:#1f77b4;" x="307.915278" xlink:href="#m478e796d68" y="73.792192"/>
     <use style="fill:#1f77b4;stroke:#1f77b4;" x="309.644968" xlink:href="#m478e796d68" y="71.118023"/>
     <use style="fill:#1f77b4;stroke:#1f77b4;" x="311.374658" xlink:href="#m478e796d68" y="71.515948"/>
     <use style="fill:#1f77b4;stroke:#1f77b4;" x="313.104348" xlink:href="#m478e796d68" y="72.292783"/>
     <use style="fill:#1f77b4;stroke:#1f77b4;" x="314.834037" xlink:href="#m478e796d68" y="74.197259"/>
     <use style="fill:#1f77b4;stroke:#1f77b4;" x="316.563727" xlink:href="#m478e796d68" y="77.299273"/>
     <use style="fill:#1f77b4;stroke:#1f77b4;" x="318.293417" xlink:href="#m478e796d68" y="75.12009"/>
     <use style="fill:#1f77b4;stroke:#1f77b4;" x="320.023107" xlink:href="#m478e796d68" y="74.126773"/>
     <use style="fill:#1f77b4;stroke:#1f77b4;" x="321.752797" xlink:href="#m478e796d68" y="73.780725"/>
     <use style="fill:#1f77b4;stroke:#1f77b4;" x="323.482487" xlink:href="#m478e796d68" y="74.688849"/>
     <use style="fill:#1f77b4;stroke:#1f77b4;" x="325.212176" xlink:href="#m478e796d68" y="76.02395"/>
     <use style="fill:#1f77b4;stroke:#1f77b4;" x="326.941866" xlink:href="#m478e796d68" y="78.55995"/>
     <use style="fill:#1f77b4;stroke:#1f77b4;" x="328.671556" xlink:href="#m478e796d68" y="79.660003"/>
     <use style="fill:#1f77b4;stroke:#1f77b4;" x="330.401246" xlink:href="#m478e796d68" y="82.858053"/>
     <use style="fill:#1f77b4;stroke:#1f77b4;" x="332.130936" xlink:href="#m478e796d68" y="81.545019"/>
     <use style="fill:#1f77b4;stroke:#1f77b4;" x="333.860626" xlink:href="#m478e796d68" y="81.470051"/>
     <use style="fill:#1f77b4;stroke:#1f77b4;" x="335.590316" xlink:href="#m478e796d68" y="80.245313"/>
     <use style="fill:#1f77b4;stroke:#1f77b4;" x="337.320005" xlink:href="#m478e796d68" y="79.228278"/>
     <use style="fill:#1f77b4;stroke:#1f77b4;" x="339.049695" xlink:href="#m478e796d68" y="77.751972"/>
     <use style="fill:#1f77b4;stroke:#1f77b4;" x="340.779385" xlink:href="#m478e796d68" y="81.608812"/>
     <use style="fill:#1f77b4;stroke:#1f77b4;" x="342.509075" xlink:href="#m478e796d68" y="72.126609"/>
     <use style="fill:#1f77b4;stroke:#1f77b4;" x="344.238765" xlink:href="#m478e796d68" y="72.068774"/>
     <use style="fill:#1f77b4;stroke:#1f77b4;" x="345.968455" xlink:href="#m478e796d68" y="69.905125"/>
     <use style="fill:#1f77b4;stroke:#1f77b4;" x="347.698144" xlink:href="#m478e796d68" y="71.645374"/>
     <use style="fill:#1f77b4;stroke:#1f77b4;" x="349.427834" xlink:href="#m478e796d68" y="72.420358"/>
     <use style="fill:#1f77b4;stroke:#1f77b4;" x="351.157524" xlink:href="#m478e796d68" y="73.800761"/>
     <use style="fill:#1f77b4;stroke:#1f77b4;" x="352.887214" xlink:href="#m478e796d68" y="82.44086"/>
     <use style="fill:#1f77b4;stroke:#1f77b4;" x="354.616904" xlink:href="#m478e796d68" y="82.632469"/>
     <use style="fill:#1f77b4;stroke:#1f77b4;" x="356.346594" xlink:href="#m478e796d68" y="82.106316"/>
     <use style="fill:#1f77b4;stroke:#1f77b4;" x="358.076283" xlink:href="#m478e796d68" y="82.299454"/>
     <use style="fill:#1f77b4;stroke:#1f77b4;" x="359.805973" xlink:href="#m478e796d68" y="84.09857"/>
     <use style="fill:#1f77b4;stroke:#1f77b4;" x="361.535663" xlink:href="#m478e796d68" y="85.470956"/>
     <use style="fill:#1f77b4;stroke:#1f77b4;" x="363.265353" xlink:href="#m478e796d68" y="86.006112"/>
     <use style="fill:#1f77b4;stroke:#1f77b4;" x="364.995043" xlink:href="#m478e796d68" y="83.184872"/>
     <use style="fill:#1f77b4;stroke:#1f77b4;" x="366.724733" xlink:href="#m478e796d68" y="81.018747"/>
     <use style="fill:#1f77b4;stroke:#1f77b4;" x="368.454422" xlink:href="#m478e796d68" y="82.415638"/>
     <use style="fill:#1f77b4;stroke:#1f77b4;" x="370.184112" xlink:href="#m478e796d68" y="82.26617"/>
     <use style="fill:#1f77b4;stroke:#1f77b4;" x="371.913802" xlink:href="#m478e796d68" y="86.448269"/>
     <use style="fill:#1f77b4;stroke:#1f77b4;" x="373.643492" xlink:href="#m478e796d68" y="87.34709"/>
     <use style="fill:#1f77b4;stroke:#1f77b4;" x="375.373182" xlink:href="#m478e796d68" y="84.50415"/>
     <use style="fill:#1f77b4;stroke:#1f77b4;" x="377.102872" xlink:href="#m478e796d68" y="85.313288"/>
     <use style="fill:#1f77b4;stroke:#1f77b4;" x="378.832561" xlink:href="#m478e796d68" y="85.341171"/>
     <use style="fill:#1f77b4;stroke:#1f77b4;" x="380.562251" xlink:href="#m478e796d68" y="84.633794"/>
     <use style="fill:#1f77b4;stroke:#1f77b4;" x="382.291941" xlink:href="#m478e796d68" y="83.773724"/>
     <use style="fill:#1f77b4;stroke:#1f77b4;" x="384.021631" xlink:href="#m478e796d68" y="81.870494"/>
     <use style="fill:#1f77b4;stroke:#1f77b4;" x="385.751321" xlink:href="#m478e796d68" y="84.838354"/>
     <use style="fill:#1f77b4;stroke:#1f77b4;" x="387.481011" xlink:href="#m478e796d68" y="86.500711"/>
     <use style="fill:#1f77b4;stroke:#1f77b4;" x="389.210701" xlink:href="#m478e796d68" y="86.637481"/>
     <use style="fill:#1f77b4;stroke:#1f77b4;" x="390.94039" xlink:href="#m478e796d68" y="86.576115"/>
     <use style="fill:#1f77b4;stroke:#1f77b4;" x="392.67008" xlink:href="#m478e796d68" y="86.847419"/>
     <use style="fill:#1f77b4;stroke:#1f77b4;" x="394.39977" xlink:href="#m478e796d68" y="84.958105"/>
     <use style="fill:#1f77b4;stroke:#1f77b4;" x="396.12946" xlink:href="#m478e796d68" y="87.539965"/>
     <use style="fill:#1f77b4;stroke:#1f77b4;" x="397.85915" xlink:href="#m478e796d68" y="87.854995"/>
     <use style="fill:#1f77b4;stroke:#1f77b4;" x="399.58884" xlink:href="#m478e796d68" y="87.958349"/>
     <use style="fill:#1f77b4;stroke:#1f77b4;" x="401.318529" xlink:href="#m478e796d68" y="87.993753"/>
     <use style="fill:#1f77b4;stroke:#1f77b4;" x="403.048219" xlink:href="#m478e796d68" y="88.606671"/>
     <use style="fill:#1f77b4;stroke:#1f77b4;" x="404.777909" xlink:href="#m478e796d68" y="88.284311"/>
     <use style="fill:#1f77b4;stroke:#1f77b4;" x="406.507599" xlink:href="#m478e796d68" y="87.967293"/>
     <use style="fill:#1f77b4;stroke:#1f77b4;" x="408.237289" xlink:href="#m478e796d68" y="89.03636"/>
     <use style="fill:#1f77b4;stroke:#1f77b4;" x="409.966979" xlink:href="#m478e796d68" y="88.956783"/>
     <use style="fill:#1f77b4;stroke:#1f77b4;" x="411.696668" xlink:href="#m478e796d68" y="90.650882"/>
     <use style="fill:#1f77b4;stroke:#1f77b4;" x="413.426358" xlink:href="#m478e796d68" y="92.284057"/>
     <use style="fill:#1f77b4;stroke:#1f77b4;" x="415.156048" xlink:href="#m478e796d68" y="92.115553"/>
     <use style="fill:#1f77b4;stroke:#1f77b4;" x="416.885738" xlink:href="#m478e796d68" y="92.395731"/>
     <use style="fill:#1f77b4;stroke:#1f77b4;" x="418.615428" xlink:href="#m478e796d68" y="90.728434"/>
     <use style="fill:#1f77b4;stroke:#1f77b4;" x="420.345118" xlink:href="#m478e796d68" y="91.085916"/>
     <use style="fill:#1f77b4;stroke:#1f77b4;" x="422.074807" xlink:href="#m478e796d68" y="91.544153"/>
     <use style="fill:#1f77b4;stroke:#1f77b4;" x="423.804497" xlink:href="#m478e796d68" y="92.06046"/>
     <use style="fill:#1f77b4;stroke:#1f77b4;" x="425.534187" xlink:href="#m478e796d68" y="92.137516"/>
     <use style="fill:#1f77b4;stroke:#1f77b4;" x="427.263877" xlink:href="#m478e796d68" y="92.329347"/>
     <use style="fill:#1f77b4;stroke:#1f77b4;" x="428.993567" xlink:href="#m478e796d68" y="93.683336"/>
     <use style="fill:#1f77b4;stroke:#1f77b4;" x="430.723257" xlink:href="#m478e796d68" y="93.446215"/>
     <use style="fill:#1f77b4;stroke:#1f77b4;" x="432.452947" xlink:href="#m478e796d68" y="93.721554"/>
     <use style="fill:#1f77b4;stroke:#1f77b4;" x="434.182636" xlink:href="#m478e796d68" y="94.808393"/>
     <use style="fill:#1f77b4;stroke:#1f77b4;" x="435.912326" xlink:href="#m478e796d68" y="98.483719"/>
     <use style="fill:#1f77b4;stroke:#1f77b4;" x="437.642016" xlink:href="#m478e796d68" y="101.133379"/>
     <use style="fill:#1f77b4;stroke:#1f77b4;" x="439.371706" xlink:href="#m478e796d68" y="103.982935"/>
     <use style="fill:#1f77b4;stroke:#1f77b4;" x="441.101396" xlink:href="#m478e796d68" y="105.925076"/>
     <use style="fill:#1f77b4;stroke:#1f77b4;" x="442.831086" xlink:href="#m478e796d68" y="105.676538"/>
     <use style="fill:#1f77b4;stroke:#1f77b4;" x="444.560775" xlink:href="#m478e796d68" y="107.037228"/>
     <use style="fill:#1f77b4;stroke:#1f77b4;" x="446.290465" xlink:href="#m478e796d68" y="107.042439"/>
     <use style="fill:#1f77b4;stroke:#1f77b4;" x="448.020155" xlink:href="#m478e796d68" y="110.687117"/>
     <use style="fill:#1f77b4;stroke:#1f77b4;" x="449.749845" xlink:href="#m478e796d68" y="111.76738"/>
     <use style="fill:#1f77b4;stroke:#1f77b4;" x="451.479535" xlink:href="#m478e796d68" y="110.149839"/>
     <use style="fill:#1f77b4;stroke:#1f77b4;" x="453.209225" xlink:href="#m478e796d68" y="111.477399"/>
     <use style="fill:#1f77b4;stroke:#1f77b4;" x="454.938914" xlink:href="#m478e796d68" y="111.413522"/>
     <use style="fill:#1f77b4;stroke:#1f77b4;" x="456.668604" xlink:href="#m478e796d68" y="105.944579"/>
     <use style="fill:#1f77b4;stroke:#1f77b4;" x="458.398294" xlink:href="#m478e796d68" y="106.793086"/>
     <use style="fill:#1f77b4;stroke:#1f77b4;" x="460.127984" xlink:href="#m478e796d68" y="108.151119"/>
     <use style="fill:#1f77b4;stroke:#1f77b4;" x="461.857674" xlink:href="#m478e796d68" y="108.070681"/>
     <use style="fill:#1f77b4;stroke:#1f77b4;" x="463.587364" xlink:href="#m478e796d68" y="106.402544"/>
     <use style="fill:#1f77b4;stroke:#1f77b4;" x="465.317053" xlink:href="#m478e796d68" y="107.871258"/>
     <use style="fill:#1f77b4;stroke:#1f77b4;" x="467.046743" xlink:href="#m478e796d68" y="107.757107"/>
     <use style="fill:#1f77b4;stroke:#1f77b4;" x="468.776433" xlink:href="#m478e796d68" y="108.155578"/>
     <use style="fill:#1f77b4;stroke:#1f77b4;" x="470.506123" xlink:href="#m478e796d68" y="108.962098"/>
     <use style="fill:#1f77b4;stroke:#1f77b4;" x="472.235813" xlink:href="#m478e796d68" y="110.710307"/>
     <use style="fill:#1f77b4;stroke:#1f77b4;" x="473.965503" xlink:href="#m478e796d68" y="111.385873"/>
     <use style="fill:#1f77b4;stroke:#1f77b4;" x="475.695193" xlink:href="#m478e796d68" y="110.915833"/>
     <use style="fill:#1f77b4;stroke:#1f77b4;" x="477.424882" xlink:href="#m478e796d68" y="108.863663"/>
     <use style="fill:#1f77b4;stroke:#1f77b4;" x="479.154572" xlink:href="#m478e796d68" y="107.403215"/>
     <use style="fill:#1f77b4;stroke:#1f77b4;" x="480.884262" xlink:href="#m478e796d68" y="108.162478"/>
     <use style="fill:#1f77b4;stroke:#1f77b4;" x="482.613952" xlink:href="#m478e796d68" y="109.362496"/>
     <use style="fill:#1f77b4;stroke:#1f77b4;" x="484.343642" xlink:href="#m478e796d68" y="109.160992"/>
     <use style="fill:#1f77b4;stroke:#1f77b4;" x="486.073332" xlink:href="#m478e796d68" y="107.94679"/>
     <use style="fill:#1f77b4;stroke:#1f77b4;" x="487.803021" xlink:href="#m478e796d68" y="110.510022"/>
     <use style="fill:#1f77b4;stroke:#1f77b4;" x="489.532711" xlink:href="#m478e796d68" y="114.900843"/>
     <use style="fill:#1f77b4;stroke:#1f77b4;" x="491.262401" xlink:href="#m478e796d68" y="115.059335"/>
     <use style="fill:#1f77b4;stroke:#1f77b4;" x="492.992091" xlink:href="#m478e796d68" y="116.818276"/>
     <use style="fill:#1f77b4;stroke:#1f77b4;" x="494.721781" xlink:href="#m478e796d68" y="115.781916"/>
     <use style="fill:#1f77b4;stroke:#1f77b4;" x="496.451471" xlink:href="#m478e796d68" y="116.117045"/>
     <use style="fill:#1f77b4;stroke:#1f77b4;" x="498.18116" xlink:href="#m478e796d68" y="115.89644"/>
     <use style="fill:#1f77b4;stroke:#1f77b4;" x="499.91085" xlink:href="#m478e796d68" y="116.905539"/>
     <use style="fill:#1f77b4;stroke:#1f77b4;" x="501.64054" xlink:href="#m478e796d68" y="116.169211"/>
     <use style="fill:#1f77b4;stroke:#1f77b4;" x="503.37023" xlink:href="#m478e796d68" y="115.092633"/>
     <use style="fill:#1f77b4;stroke:#1f77b4;" x="505.09992" xlink:href="#m478e796d68" y="123.92746"/>
     <use style="fill:#1f77b4;stroke:#1f77b4;" x="506.82961" xlink:href="#m478e796d68" y="114.24502"/>
     <use style="fill:#1f77b4;stroke:#1f77b4;" x="508.559299" xlink:href="#m478e796d68" y="123.657301"/>
     <use style="fill:#1f77b4;stroke:#1f77b4;" x="510.288989" xlink:href="#m478e796d68" y="126.662939"/>
     <use style="fill:#1f77b4;stroke:#1f77b4;" x="512.018679" xlink:href="#m478e796d68" y="126.917975"/>
     <use style="fill:#1f77b4;stroke:#1f77b4;" x="513.748369" xlink:href="#m478e796d68" y="129.338888"/>
     <use style="fill:#1f77b4;stroke:#1f77b4;" x="515.478059" xlink:href="#m478e796d68" y="129.426196"/>
     <use style="fill:#1f77b4;stroke:#1f77b4;" x="517.207749" xlink:href="#m478e796d68" y="129.717468"/>
     <use style="fill:#1f77b4;stroke:#1f77b4;" x="518.937439" xlink:href="#m478e796d68" y="129.498703"/>
     <use style="fill:#1f77b4;stroke:#1f77b4;" x="520.667128" xlink:href="#m478e796d68" y="133.400098"/>
     <use style="fill:#1f77b4;stroke:#1f77b4;" x="522.396818" xlink:href="#m478e796d68" y="131.66419"/>
     <use style="fill:#1f77b4;stroke:#1f77b4;" x="524.126508" xlink:href="#m478e796d68" y="131.680313"/>
     <use style="fill:#1f77b4;stroke:#1f77b4;" x="525.856198" xlink:href="#m478e796d68" y="132.302392"/>
     <use style="fill:#1f77b4;stroke:#1f77b4;" x="527.585888" xlink:href="#m478e796d68" y="130.049938"/>
     <use style="fill:#1f77b4;stroke:#1f77b4;" x="529.315578" xlink:href="#m478e796d68" y="132.585732"/>
     <use style="fill:#1f77b4;stroke:#1f77b4;" x="531.045267" xlink:href="#m478e796d68" y="132.872818"/>
     <use style="fill:#1f77b4;stroke:#1f77b4;" x="532.774957" xlink:href="#m478e796d68" y="132.563723"/>
     <use style="fill:#1f77b4;stroke:#1f77b4;" x="534.504647" xlink:href="#m478e796d68" y="133.848837"/>
     <use style="fill:#1f77b4;stroke:#1f77b4;" x="536.234337" xlink:href="#m478e796d68" y="135.417529"/>
     <use style="fill:#1f77b4;stroke:#1f77b4;" x="537.964027" xlink:href="#m478e796d68" y="135.413901"/>
     <use style="fill:#1f77b4;stroke:#1f77b4;" x="539.693717" xlink:href="#m478e796d68" y="135.27834"/>
     <use style="fill:#1f77b4;stroke:#1f77b4;" x="541.423406" xlink:href="#m478e796d68" y="136.300553"/>
     <use style="fill:#1f77b4;stroke:#1f77b4;" x="543.153096" xlink:href="#m478e796d68" y="140.404078"/>
     <use style="fill:#1f77b4;stroke:#1f77b4;" x="544.882786" xlink:href="#m478e796d68" y="140.744239"/>
     <use style="fill:#1f77b4;stroke:#1f77b4;" x="546.612476" xlink:href="#m478e796d68" y="140.009318"/>
     <use style="fill:#1f77b4;stroke:#1f77b4;" x="548.342166" xlink:href="#m478e796d68" y="141.977562"/>
     <use style="fill:#1f77b4;stroke:#1f77b4;" x="550.071856" xlink:href="#m478e796d68" y="141.96355"/>
     <use style="fill:#1f77b4;stroke:#1f77b4;" x="551.801545" xlink:href="#m478e796d68" y="141.414171"/>
     <use style="fill:#1f77b4;stroke:#1f77b4;" x="553.531235" xlink:href="#m478e796d68" y="141.617712"/>
     <use style="fill:#1f77b4;stroke:#1f77b4;" x="555.260925" xlink:href="#m478e796d68" y="143.590325"/>
     <use style="fill:#1f77b4;stroke:#1f77b4;" x="556.990615" xlink:href="#m478e796d68" y="143.299083"/>
     <use style="fill:#1f77b4;stroke:#1f77b4;" x="558.720305" xlink:href="#m478e796d68" y="144.917783"/>
     <use style="fill:#1f77b4;stroke:#1f77b4;" x="560.449995" xlink:href="#m478e796d68" y="144.508549"/>
     <use style="fill:#1f77b4;stroke:#1f77b4;" x="562.179684" xlink:href="#m478e796d68" y="144.800311"/>
     <use style="fill:#1f77b4;stroke:#1f77b4;" x="563.909374" xlink:href="#m478e796d68" y="144.296948"/>
     <use style="fill:#1f77b4;stroke:#1f77b4;" x="565.639064" xlink:href="#m478e796d68" y="142.165485"/>
     <use style="fill:#1f77b4;stroke:#1f77b4;" x="567.368754" xlink:href="#m478e796d68" y="139.616496"/>
     <use style="fill:#1f77b4;stroke:#1f77b4;" x="569.098444" xlink:href="#m478e796d68" y="140.160172"/>
     <use style="fill:#1f77b4;stroke:#1f77b4;" x="570.828134" xlink:href="#m478e796d68" y="141.8214"/>
     <use style="fill:#1f77b4;stroke:#1f77b4;" x="572.557824" xlink:href="#m478e796d68" y="141.923784"/>
     <use style="fill:#1f77b4;stroke:#1f77b4;" x="574.287513" xlink:href="#m478e796d68" y="141.63266"/>
     <use style="fill:#1f77b4;stroke:#1f77b4;" x="576.017203" xlink:href="#m478e796d68" y="138.976537"/>
     <use style="fill:#1f77b4;stroke:#1f77b4;" x="577.746893" xlink:href="#m478e796d68" y="139.24051"/>
     <use style="fill:#1f77b4;stroke:#1f77b4;" x="579.476583" xlink:href="#m478e796d68" y="140.204188"/>
     <use style="fill:#1f77b4;stroke:#1f77b4;" x="581.206273" xlink:href="#m478e796d68" y="139.121621"/>
     <use style="fill:#1f77b4;stroke:#1f77b4;" x="582.935963" xlink:href="#m478e796d68" y="138.877502"/>
     <use style="fill:#1f77b4;stroke:#1f77b4;" x="584.665652" xlink:href="#m478e796d68" y="139.881736"/>
     <use style="fill:#1f77b4;stroke:#1f77b4;" x="586.395342" xlink:href="#m478e796d68" y="138.051589"/>
     <use style="fill:#1f77b4;stroke:#1f77b4;" x="588.125032" xlink:href="#m478e796d68" y="137.691724"/>
     <use style="fill:#1f77b4;stroke:#1f77b4;" x="589.854722" xlink:href="#m478e796d68" y="139.406746"/>
     <use style="fill:#1f77b4;stroke:#1f77b4;" x="591.584412" xlink:href="#m478e796d68" y="141.485406"/>
     <use style="fill:#1f77b4;stroke:#1f77b4;" x="593.314102" xlink:href="#m478e796d68" y="142.349539"/>
     <use style="fill:#1f77b4;stroke:#1f77b4;" x="595.043791" xlink:href="#m478e796d68" y="142.42846"/>
     <use style="fill:#1f77b4;stroke:#1f77b4;" x="596.773481" xlink:href="#m478e796d68" y="142.999031"/>
     <use style="fill:#1f77b4;stroke:#1f77b4;" x="598.503171" xlink:href="#m478e796d68" y="139.913348"/>
     <use style="fill:#1f77b4;stroke:#1f77b4;" x="600.232861" xlink:href="#m478e796d68" y="139.544492"/>
     <use style="fill:#1f77b4;stroke:#1f77b4;" x="601.962551" xlink:href="#m478e796d68" y="139.293421"/>
     <use style="fill:#1f77b4;stroke:#1f77b4;" x="603.692241" xlink:href="#m478e796d68" y="139.56154"/>
     <use style="fill:#1f77b4;stroke:#1f77b4;" x="605.42193" xlink:href="#m478e796d68" y="140.896289"/>
     <use style="fill:#1f77b4;stroke:#1f77b4;" x="607.15162" xlink:href="#m478e796d68" y="138.523998"/>
     <use style="fill:#1f77b4;stroke:#1f77b4;" x="608.88131" xlink:href="#m478e796d68" y="140.658807"/>
     <use style="fill:#1f77b4;stroke:#1f77b4;" x="610.611" xlink:href="#m478e796d68" y="140.163286"/>
     <use style="fill:#1f77b4;stroke:#1f77b4;" x="612.34069" xlink:href="#m478e796d68" y="139.446145"/>
     <use style="fill:#1f77b4;stroke:#1f77b4;" x="614.07038" xlink:href="#m478e796d68" y="140.257127"/>
     <use style="fill:#1f77b4;stroke:#1f77b4;" x="615.80007" xlink:href="#m478e796d68" y="140.219019"/>
     <use style="fill:#1f77b4;stroke:#1f77b4;" x="617.529759" xlink:href="#m478e796d68" y="139.620948"/>
     <use style="fill:#1f77b4;stroke:#1f77b4;" x="619.259449" xlink:href="#m478e796d68" y="138.772363"/>
     <use style="fill:#1f77b4;stroke:#1f77b4;" x="620.989139" xlink:href="#m478e796d68" y="138.195193"/>
     <use style="fill:#1f77b4;stroke:#1f77b4;" x="622.718829" xlink:href="#m478e796d68" y="139.347046"/>
     <use style="fill:#1f77b4;stroke:#1f77b4;" x="624.448519" xlink:href="#m478e796d68" y="139.616265"/>
     <use style="fill:#1f77b4;stroke:#1f77b4;" x="626.178209" xlink:href="#m478e796d68" y="139.643332"/>
     <use style="fill:#1f77b4;stroke:#1f77b4;" x="627.907898" xlink:href="#m478e796d68" y="139.705108"/>
     <use style="fill:#1f77b4;stroke:#1f77b4;" x="629.637588" xlink:href="#m478e796d68" y="138.33659"/>
     <use style="fill:#1f77b4;stroke:#1f77b4;" x="631.367278" xlink:href="#m478e796d68" y="136.553577"/>
     <use style="fill:#1f77b4;stroke:#1f77b4;" x="633.096968" xlink:href="#m478e796d68" y="136.623392"/>
     <use style="fill:#1f77b4;stroke:#1f77b4;" x="634.826658" xlink:href="#m478e796d68" y="136.572564"/>
     <use style="fill:#1f77b4;stroke:#1f77b4;" x="636.556348" xlink:href="#m478e796d68" y="136.253322"/>
     <use style="fill:#1f77b4;stroke:#1f77b4;" x="638.286037" xlink:href="#m478e796d68" y="137.019671"/>
     <use style="fill:#1f77b4;stroke:#1f77b4;" x="640.015727" xlink:href="#m478e796d68" y="134.820841"/>
     <use style="fill:#1f77b4;stroke:#1f77b4;" x="641.745417" xlink:href="#m478e796d68" y="139.061467"/>
     <use style="fill:#1f77b4;stroke:#1f77b4;" x="643.475107" xlink:href="#m478e796d68" y="139.439415"/>
     <use style="fill:#1f77b4;stroke:#1f77b4;" x="645.204797" xlink:href="#m478e796d68" y="137.777385"/>
     <use style="fill:#1f77b4;stroke:#1f77b4;" x="646.934487" xlink:href="#m478e796d68" y="137.011534"/>
     <use style="fill:#1f77b4;stroke:#1f77b4;" x="648.664176" xlink:href="#m478e796d68" y="144.918986"/>
     <use style="fill:#1f77b4;stroke:#1f77b4;" x="650.393866" xlink:href="#m478e796d68" y="150.855739"/>
     <use style="fill:#1f77b4;stroke:#1f77b4;" x="652.123556" xlink:href="#m478e796d68" y="153.939904"/>
     <use style="fill:#1f77b4;stroke:#1f77b4;" x="653.853246" xlink:href="#m478e796d68" y="154.289546"/>
     <use style="fill:#1f77b4;stroke:#1f77b4;" x="655.582936" xlink:href="#m478e796d68" y="156.016328"/>
     <use style="fill:#1f77b4;stroke:#1f77b4;" x="657.312626" xlink:href="#m478e796d68" y="154.344322"/>
     <use style="fill:#1f77b4;stroke:#1f77b4;" x="659.042316" xlink:href="#m478e796d68" y="154.396473"/>
     <use style="fill:#1f77b4;stroke:#1f77b4;" x="660.772005" xlink:href="#m478e796d68" y="154.463712"/>
     <use style="fill:#1f77b4;stroke:#1f77b4;" x="662.501695" xlink:href="#m478e796d68" y="156.45759"/>
     <use style="fill:#1f77b4;stroke:#1f77b4;" x="664.231385" xlink:href="#m478e796d68" y="158.045084"/>
     <use style="fill:#1f77b4;stroke:#1f77b4;" x="665.961075" xlink:href="#m478e796d68" y="158.001242"/>
     <use style="fill:#1f77b4;stroke:#1f77b4;" x="667.690765" xlink:href="#m478e796d68" y="159.122764"/>
     <use style="fill:#1f77b4;stroke:#1f77b4;" x="669.420455" xlink:href="#m478e796d68" y="157.581627"/>
     <use style="fill:#1f77b4;stroke:#1f77b4;" x="671.150144" xlink:href="#m478e796d68" y="159.257574"/>
     <use style="fill:#1f77b4;stroke:#1f77b4;" x="672.879834" xlink:href="#m478e796d68" y="159.013681"/>
     <use style="fill:#1f77b4;stroke:#1f77b4;" x="674.609524" xlink:href="#m478e796d68" y="156.915675"/>
     <use style="fill:#1f77b4;stroke:#1f77b4;" x="676.339214" xlink:href="#m478e796d68" y="157.486254"/>
     <use style="fill:#1f77b4;stroke:#1f77b4;" x="678.068904" xlink:href="#m478e796d68" y="160.025085"/>
     <use style="fill:#1f77b4;stroke:#1f77b4;" x="679.798594" xlink:href="#m478e796d68" y="158.788862"/>
     <use style="fill:#1f77b4;stroke:#1f77b4;" x="681.528283" xlink:href="#m478e796d68" y="158.89089"/>
     <use style="fill:#1f77b4;stroke:#1f77b4;" x="683.257973" xlink:href="#m478e796d68" y="159.962953"/>
     <use style="fill:#1f77b4;stroke:#1f77b4;" x="684.987663" xlink:href="#m478e796d68" y="160.318635"/>
     <use style="fill:#1f77b4;stroke:#1f77b4;" x="686.717353" xlink:href="#m478e796d68" y="161.441067"/>
     <use style="fill:#1f77b4;stroke:#1f77b4;" x="688.447043" xlink:href="#m478e796d68" y="161.051872"/>
     <use style="fill:#1f77b4;stroke:#1f77b4;" x="690.176733" xlink:href="#m478e796d68" y="162.343383"/>
     <use style="fill:#1f77b4;stroke:#1f77b4;" x="691.906422" xlink:href="#m478e796d68" y="162.723757"/>
     <use style="fill:#1f77b4;stroke:#1f77b4;" x="693.636112" xlink:href="#m478e796d68" y="162.985319"/>
     <use style="fill:#1f77b4;stroke:#1f77b4;" x="695.365802" xlink:href="#m478e796d68" y="163.450087"/>
     <use style="fill:#1f77b4;stroke:#1f77b4;" x="697.095492" xlink:href="#m478e796d68" y="163.310602"/>
     <use style="fill:#1f77b4;stroke:#1f77b4;" x="698.825182" xlink:href="#m478e796d68" y="164.619248"/>
     <use style="fill:#1f77b4;stroke:#1f77b4;" x="700.554872" xlink:href="#m478e796d68" y="165.470064"/>
     <use style="fill:#1f77b4;stroke:#1f77b4;" x="702.284561" xlink:href="#m478e796d68" y="165.051943"/>
     <use style="fill:#1f77b4;stroke:#1f77b4;" x="704.014251" xlink:href="#m478e796d68" y="164.897388"/>
     <use style="fill:#1f77b4;stroke:#1f77b4;" x="705.743941" xlink:href="#m478e796d68" y="166.137717"/>
     <use style="fill:#1f77b4;stroke:#1f77b4;" x="707.473631" xlink:href="#m478e796d68" y="165.869728"/>
     <use style="fill:#1f77b4;stroke:#1f77b4;" x="709.203321" xlink:href="#m478e796d68" y="166.070153"/>
     <use style="fill:#1f77b4;stroke:#1f77b4;" x="710.933011" xlink:href="#m478e796d68" y="165.571302"/>
     <use style="fill:#1f77b4;stroke:#1f77b4;" x="712.662701" xlink:href="#m478e796d68" y="166.593721"/>
     <use style="fill:#1f77b4;stroke:#1f77b4;" x="714.39239" xlink:href="#m478e796d68" y="167.022329"/>
     <use style="fill:#1f77b4;stroke:#1f77b4;" x="716.12208" xlink:href="#m478e796d68" y="161.669754"/>
     <use style="fill:#1f77b4;stroke:#1f77b4;" x="717.85177" xlink:href="#m478e796d68" y="161.827406"/>
     <use style="fill:#1f77b4;stroke:#1f77b4;" x="719.58146" xlink:href="#m478e796d68" y="161.765735"/>
     <use style="fill:#1f77b4;stroke:#1f77b4;" x="721.31115" xlink:href="#m478e796d68" y="160.972841"/>
     <use style="fill:#1f77b4;stroke:#1f77b4;" x="723.04084" xlink:href="#m478e796d68" y="161.636359"/>
     <use style="fill:#1f77b4;stroke:#1f77b4;" x="724.770529" xlink:href="#m478e796d68" y="160.501503"/>
     <use style="fill:#1f77b4;stroke:#1f77b4;" x="726.500219" xlink:href="#m478e796d68" y="161.082983"/>
     <use style="fill:#1f77b4;stroke:#1f77b4;" x="728.229909" xlink:href="#m478e796d68" y="162.451332"/>
     <use style="fill:#1f77b4;stroke:#1f77b4;" x="729.959599" xlink:href="#m478e796d68" y="162.189597"/>
     <use style="fill:#1f77b4;stroke:#1f77b4;" x="731.689289" xlink:href="#m478e796d68" y="161.952255"/>
     <use style="fill:#1f77b4;stroke:#1f77b4;" x="733.418979" xlink:href="#m478e796d68" y="161.866988"/>
     <use style="fill:#1f77b4;stroke:#1f77b4;" x="735.148668" xlink:href="#m478e796d68" y="161.526469"/>
     <use style="fill:#1f77b4;stroke:#1f77b4;" x="736.878358" xlink:href="#m478e796d68" y="161.645579"/>
     <use style="fill:#1f77b4;stroke:#1f77b4;" x="738.608048" xlink:href="#m478e796d68" y="161.061785"/>
     <use style="fill:#1f77b4;stroke:#1f77b4;" x="740.337738" xlink:href="#m478e796d68" y="160.921358"/>
     <use style="fill:#1f77b4;stroke:#1f77b4;" x="742.067428" xlink:href="#m478e796d68" y="160.807508"/>
     <use style="fill:#1f77b4;stroke:#1f77b4;" x="743.797118" xlink:href="#m478e796d68" y="160.778528"/>
     <use style="fill:#1f77b4;stroke:#1f77b4;" x="745.526807" xlink:href="#m478e796d68" y="160.724741"/>
     <use style="fill:#1f77b4;stroke:#1f77b4;" x="747.256497" xlink:href="#m478e796d68" y="160.723204"/>
     <use style="fill:#1f77b4;stroke:#1f77b4;" x="748.986187" xlink:href="#m478e796d68" y="161.879194"/>
     <use style="fill:#1f77b4;stroke:#1f77b4;" x="750.715877" xlink:href="#m478e796d68" y="161.036049"/>
     <use style="fill:#1f77b4;stroke:#1f77b4;" x="752.445567" xlink:href="#m478e796d68" y="160.151521"/>
     <use style="fill:#1f77b4;stroke:#1f77b4;" x="754.175257" xlink:href="#m478e796d68" y="160.777431"/>
     <use style="fill:#1f77b4;stroke:#1f77b4;" x="755.904947" xlink:href="#m478e796d68" y="160.416177"/>
     <use style="fill:#1f77b4;stroke:#1f77b4;" x="757.634636" xlink:href="#m478e796d68" y="159.732309"/>
     <use style="fill:#1f77b4;stroke:#1f77b4;" x="759.364326" xlink:href="#m478e796d68" y="160.315189"/>
     <use style="fill:#1f77b4;stroke:#1f77b4;" x="761.094016" xlink:href="#m478e796d68" y="157.974889"/>
     <use style="fill:#1f77b4;stroke:#1f77b4;" x="762.823706" xlink:href="#m478e796d68" y="158.524947"/>
     <use style="fill:#1f77b4;stroke:#1f77b4;" x="764.553396" xlink:href="#m478e796d68" y="157.671594"/>
     <use style="fill:#1f77b4;stroke:#1f77b4;" x="766.283086" xlink:href="#m478e796d68" y="158.514958"/>
     <use style="fill:#1f77b4;stroke:#1f77b4;" x="768.012775" xlink:href="#m478e796d68" y="157.843494"/>
     <use style="fill:#1f77b4;stroke:#1f77b4;" x="769.742465" xlink:href="#m478e796d68" y="156.842171"/>
     <use style="fill:#1f77b4;stroke:#1f77b4;" x="771.472155" xlink:href="#m478e796d68" y="157.070715"/>
     <use style="fill:#1f77b4;stroke:#1f77b4;" x="773.201845" xlink:href="#m478e796d68" y="159.329056"/>
     <use style="fill:#1f77b4;stroke:#1f77b4;" x="774.931535" xlink:href="#m478e796d68" y="158.69851"/>
     <use style="fill:#1f77b4;stroke:#1f77b4;" x="776.661225" xlink:href="#m478e796d68" y="159.038461"/>
     <use style="fill:#1f77b4;stroke:#1f77b4;" x="778.390914" xlink:href="#m478e796d68" y="158.838312"/>
     <use style="fill:#1f77b4;stroke:#1f77b4;" x="780.120604" xlink:href="#m478e796d68" y="158.401973"/>
     <use style="fill:#1f77b4;stroke:#1f77b4;" x="781.850294" xlink:href="#m478e796d68" y="158.284206"/>
     <use style="fill:#1f77b4;stroke:#1f77b4;" x="783.579984" xlink:href="#m478e796d68" y="159.168497"/>
     <use style="fill:#1f77b4;stroke:#1f77b4;" x="785.309674" xlink:href="#m478e796d68" y="160.020799"/>
     <use style="fill:#1f77b4;stroke:#1f77b4;" x="787.039364" xlink:href="#m478e796d68" y="162.321357"/>
     <use style="fill:#1f77b4;stroke:#1f77b4;" x="788.769053" xlink:href="#m478e796d68" y="160.126625"/>
     <use style="fill:#1f77b4;stroke:#1f77b4;" x="790.498743" xlink:href="#m478e796d68" y="157.421826"/>
     <use style="fill:#1f77b4;stroke:#1f77b4;" x="792.228433" xlink:href="#m478e796d68" y="157.198672"/>
     <use style="fill:#1f77b4;stroke:#1f77b4;" x="793.958123" xlink:href="#m478e796d68" y="156.640951"/>
     <use style="fill:#1f77b4;stroke:#1f77b4;" x="795.687813" xlink:href="#m478e796d68" y="161.108525"/>
     <use style="fill:#1f77b4;stroke:#1f77b4;" x="797.417503" xlink:href="#m478e796d68" y="161.211174"/>
     <use style="fill:#1f77b4;stroke:#1f77b4;" x="799.147193" xlink:href="#m478e796d68" y="163.849476"/>
     <use style="fill:#1f77b4;stroke:#1f77b4;" x="800.876882" xlink:href="#m478e796d68" y="161.923689"/>
     <use style="fill:#1f77b4;stroke:#1f77b4;" x="802.606572" xlink:href="#m478e796d68" y="162.123071"/>
     <use style="fill:#1f77b4;stroke:#1f77b4;" x="804.336262" xlink:href="#m478e796d68" y="160.803756"/>
     <use style="fill:#1f77b4;stroke:#1f77b4;" x="806.065952" xlink:href="#m478e796d68" y="160.548942"/>
     <use style="fill:#1f77b4;stroke:#1f77b4;" x="807.795642" xlink:href="#m478e796d68" y="164.159284"/>
     <use style="fill:#1f77b4;stroke:#1f77b4;" x="809.525332" xlink:href="#m478e796d68" y="164.875974"/>
     <use style="fill:#1f77b4;stroke:#1f77b4;" x="811.255021" xlink:href="#m478e796d68" y="165.03732"/>
     <use style="fill:#1f77b4;stroke:#1f77b4;" x="812.984711" xlink:href="#m478e796d68" y="165.479339"/>
     <use style="fill:#1f77b4;stroke:#1f77b4;" x="814.714401" xlink:href="#m478e796d68" y="164.719378"/>
     <use style="fill:#1f77b4;stroke:#1f77b4;" x="816.444091" xlink:href="#m478e796d68" y="164.641003"/>
    </g>
   </g>
   <g id="patch_3">
    <path d="M 44.57 390.04 
L 44.57 28.32 
" style="fill:none;stroke:#000000;stroke-linecap:square;stroke-linejoin:miter;stroke-width:0.8;"/>
   </g>
   <g id="patch_4">
    <path d="M 853.2 390.04 
L 853.2 28.32 
" style="fill:none;stroke:#000000;stroke-linecap:square;stroke-linejoin:miter;stroke-width:0.8;"/>
   </g>
   <g id="patch_5">
    <path d="M 44.57 390.04 
L 853.2 390.04 
" style="fill:none;stroke:#000000;stroke-linecap:square;stroke-linejoin:miter;stroke-width:0.8;"/>
   </g>
   <g id="patch_6">
    <path d="M 44.57 28.32 
L 853.2 28.32 
" style="fill:none;stroke:#000000;stroke-linecap:square;stroke-linejoin:miter;stroke-width:0.8;"/>
   </g>
   <g id="text_17">
    <!-- Durchschnittliche Preisentwicklung von Kategorie 'Desinfektionsmittel' -->
    <g transform="translate(165.98875 22.32)scale(0.16 -0.16)">
     <defs>
      <path d="M 4.203125 54.6875 
L 13.1875 54.6875 
L 24.421875 12.015625 
L 35.59375 54.6875 
L 46.1875 54.6875 
L 57.421875 12.015625 
L 68.609375 54.6875 
L 77.59375 54.6875 
L 63.28125 0 
L 52.6875 0 
L 40.921875 44.828125 
L 29.109375 0 
L 18.5 0 
z
" id="DejaVuSans-119"/>
      <path d="M 45.40625 27.984375 
Q 45.40625 37.75 41.375 43.109375 
Q 37.359375 48.484375 30.078125 48.484375 
Q 22.859375 48.484375 18.828125 43.109375 
Q 14.796875 37.75 14.796875 27.984375 
Q 14.796875 18.265625 18.828125 12.890625 
Q 22.859375 7.515625 30.078125 7.515625 
Q 37.359375 7.515625 41.375 12.890625 
Q 45.40625 18.265625 45.40625 27.984375 
z
M 54.390625 6.78125 
Q 54.390625 -7.171875 48.1875 -13.984375 
Q 42 -20.796875 29.203125 -20.796875 
Q 24.46875 -20.796875 20.265625 -20.09375 
Q 16.0625 -19.390625 12.109375 -17.921875 
L 12.109375 -9.1875 
Q 16.0625 -11.328125 19.921875 -12.34375 
Q 23.78125 -13.375 27.78125 -13.375 
Q 36.625 -13.375 41.015625 -8.765625 
Q 45.40625 -4.15625 45.40625 5.171875 
L 45.40625 9.625 
Q 42.625 4.78125 38.28125 2.390625 
Q 33.9375 0 27.875 0 
Q 17.828125 0 11.671875 7.65625 
Q 5.515625 15.328125 5.515625 27.984375 
Q 5.515625 40.671875 11.671875 48.328125 
Q 17.828125 56 27.875 56 
Q 33.9375 56 38.28125 53.609375 
Q 42.625 51.21875 45.40625 46.390625 
L 45.40625 54.6875 
L 54.390625 54.6875 
z
" id="DejaVuSans-103"/>
      <path d="M 2.984375 54.6875 
L 12.5 54.6875 
L 29.59375 8.796875 
L 46.6875 54.6875 
L 56.203125 54.6875 
L 35.6875 0 
L 23.484375 0 
z
" id="DejaVuSans-118"/>
      <path d="M 9.8125 72.90625 
L 19.671875 72.90625 
L 19.671875 42.09375 
L 52.390625 72.90625 
L 65.09375 72.90625 
L 28.90625 38.921875 
L 67.671875 0 
L 54.6875 0 
L 19.671875 35.109375 
L 19.671875 0 
L 9.8125 0 
z
" id="DejaVuSans-75"/>
      <path d="M 17.921875 72.90625 
L 17.921875 45.796875 
L 9.625 45.796875 
L 9.625 72.90625 
z
" id="DejaVuSans-39"/>
      <path d="M 37.109375 75.984375 
L 37.109375 68.5 
L 28.515625 68.5 
Q 23.6875 68.5 21.796875 66.546875 
Q 19.921875 64.59375 19.921875 59.515625 
L 19.921875 54.6875 
L 34.71875 54.6875 
L 34.71875 47.703125 
L 19.921875 47.703125 
L 19.921875 0 
L 10.890625 0 
L 10.890625 47.703125 
L 2.296875 47.703125 
L 2.296875 54.6875 
L 10.890625 54.6875 
L 10.890625 58.5 
Q 10.890625 67.625 15.140625 71.796875 
Q 19.390625 75.984375 28.609375 75.984375 
z
" id="DejaVuSans-102"/>
     </defs>
     <use xlink:href="#DejaVuSans-68"/>
     <use x="77.001953" xlink:href="#DejaVuSans-117"/>
     <use x="140.380859" xlink:href="#DejaVuSans-114"/>
     <use x="179.244141" xlink:href="#DejaVuSans-99"/>
     <use x="234.224609" xlink:href="#DejaVuSans-104"/>
     <use x="297.603516" xlink:href="#DejaVuSans-115"/>
     <use x="349.703125" xlink:href="#DejaVuSans-99"/>
     <use x="404.683594" xlink:href="#DejaVuSans-104"/>
     <use x="468.0625" xlink:href="#DejaVuSans-110"/>
     <use x="531.441406" xlink:href="#DejaVuSans-105"/>
     <use x="559.224609" xlink:href="#DejaVuSans-116"/>
     <use x="598.433594" xlink:href="#DejaVuSans-116"/>
     <use x="637.642578" xlink:href="#DejaVuSans-108"/>
     <use x="665.425781" xlink:href="#DejaVuSans-105"/>
     <use x="693.208984" xlink:href="#DejaVuSans-99"/>
     <use x="748.189453" xlink:href="#DejaVuSans-104"/>
     <use x="811.568359" xlink:href="#DejaVuSans-101"/>
     <use x="873.091797" xlink:href="#DejaVuSans-32"/>
     <use x="904.878906" xlink:href="#DejaVuSans-80"/>
     <use x="963.431641" xlink:href="#DejaVuSans-114"/>
     <use x="1002.294922" xlink:href="#DejaVuSans-101"/>
     <use x="1063.818359" xlink:href="#DejaVuSans-105"/>
     <use x="1091.601562" xlink:href="#DejaVuSans-115"/>
     <use x="1143.701172" xlink:href="#DejaVuSans-101"/>
     <use x="1205.224609" xlink:href="#DejaVuSans-110"/>
     <use x="1268.603516" xlink:href="#DejaVuSans-116"/>
     <use x="1307.8125" xlink:href="#DejaVuSans-119"/>
     <use x="1389.599609" xlink:href="#DejaVuSans-105"/>
     <use x="1417.382812" xlink:href="#DejaVuSans-99"/>
     <use x="1472.363281" xlink:href="#DejaVuSans-107"/>
     <use x="1530.273438" xlink:href="#DejaVuSans-108"/>
     <use x="1558.056641" xlink:href="#DejaVuSans-117"/>
     <use x="1621.435547" xlink:href="#DejaVuSans-110"/>
     <use x="1684.814453" xlink:href="#DejaVuSans-103"/>
     <use x="1748.291016" xlink:href="#DejaVuSans-32"/>
     <use x="1780.078125" xlink:href="#DejaVuSans-118"/>
     <use x="1839.257812" xlink:href="#DejaVuSans-111"/>
     <use x="1900.439453" xlink:href="#DejaVuSans-110"/>
     <use x="1963.818359" xlink:href="#DejaVuSans-32"/>
     <use x="1995.605469" xlink:href="#DejaVuSans-75"/>
     <use x="2059.431641" xlink:href="#DejaVuSans-97"/>
     <use x="2120.710938" xlink:href="#DejaVuSans-116"/>
     <use x="2159.919922" xlink:href="#DejaVuSans-101"/>
     <use x="2221.443359" xlink:href="#DejaVuSans-103"/>
     <use x="2284.919922" xlink:href="#DejaVuSans-111"/>
     <use x="2346.101562" xlink:href="#DejaVuSans-114"/>
     <use x="2387.214844" xlink:href="#DejaVuSans-105"/>
     <use x="2414.998047" xlink:href="#DejaVuSans-101"/>
     <use x="2476.521484" xlink:href="#DejaVuSans-32"/>
     <use x="2508.308594" xlink:href="#DejaVuSans-39"/>
     <use x="2535.798828" xlink:href="#DejaVuSans-68"/>
     <use x="2612.800781" xlink:href="#DejaVuSans-101"/>
     <use x="2674.324219" xlink:href="#DejaVuSans-115"/>
     <use x="2726.423828" xlink:href="#DejaVuSans-105"/>
     <use x="2754.207031" xlink:href="#DejaVuSans-110"/>
     <use x="2817.585938" xlink:href="#DejaVuSans-102"/>
     <use x="2852.791016" xlink:href="#DejaVuSans-101"/>
     <use x="2914.314453" xlink:href="#DejaVuSans-107"/>
     <use x="2972.224609" xlink:href="#DejaVuSans-116"/>
     <use x="3011.433594" xlink:href="#DejaVuSans-105"/>
     <use x="3039.216797" xlink:href="#DejaVuSans-111"/>
     <use x="3100.398438" xlink:href="#DejaVuSans-110"/>
     <use x="3163.777344" xlink:href="#DejaVuSans-115"/>
     <use x="3215.876953" xlink:href="#DejaVuSans-109"/>
     <use x="3313.289062" xlink:href="#DejaVuSans-105"/>
     <use x="3341.072266" xlink:href="#DejaVuSans-116"/>
     <use x="3380.28125" xlink:href="#DejaVuSans-116"/>
     <use x="3419.490234" xlink:href="#DejaVuSans-101"/>
     <use x="3481.013672" xlink:href="#DejaVuSans-108"/>
     <use x="3508.796875" xlink:href="#DejaVuSans-39"/>
    </g>
   </g>
  </g>
 </g>
 <defs>
  <clipPath id="p970946d9c0">
   <rect height="361.72" width="808.63" x="44.57" y="28.32"/>
  </clipPath>
 </defs>
</svg>
