<?xml version="1.0" encoding="utf-8" standalone="no"?>
<!DOCTYPE svg PUBLIC "-//W3C//DTD SVG 1.1//EN"
  "http://www.w3.org/Graphics/SVG/1.1/DTD/svg11.dtd">
<!-- Created with matplotlib (https://matplotlib.org/) -->
<svg height="432pt" version="1.1" viewBox="0 0 864 432" width="864pt" xmlns="http://www.w3.org/2000/svg" xmlns:xlink="http://www.w3.org/1999/xlink">
 <metadata>
  <rdf:RDF xmlns:cc="http://creativecommons.org/ns#" xmlns:dc="http://purl.org/dc/elements/1.1/" xmlns:rdf="http://www.w3.org/1999/02/22-rdf-syntax-ns#">
   <cc:Work>
    <dc:type rdf:resource="http://purl.org/dc/dcmitype/StillImage"/>
    <dc:date>2021-02-17T13:27:10.044130</dc:date>
    <dc:format>image/svg+xml</dc:format>
    <dc:creator>
     <cc:Agent>
      <dc:title>Matplotlib v3.3.2, https://matplotlib.org/</dc:title>
     </cc:Agent>
    </dc:creator>
   </cc:Work>
  </rdf:RDF>
 </metadata>
 <defs>
  <style type="text/css">*{stroke-linecap:butt;stroke-linejoin:round;}</style>
 </defs>
 <g id="figure_1">
  <g id="patch_1">
   <path d="M 0 432 
L 864 432 
L 864 0 
L 0 0 
z
" style="fill:#ffffff;"/>
  </g>
  <g id="axes_1">
   <g id="patch_2">
    <path d="M 44.57 390.04 
L 853.2 390.04 
L 853.2 28.32 
L 44.57 28.32 
z
" style="fill:#ffffff;"/>
   </g>
   <g id="matplotlib.axis_1">
    <g id="xtick_1">
     <g id="line2d_1">
      <path clip-path="url(#p0008b2585e)" d="M 127.648425 390.04 
L 127.648425 28.32 
" style="fill:none;stroke:#b0b0b0;stroke-linecap:square;stroke-width:0.8;"/>
     </g>
     <g id="line2d_2">
      <defs>
       <path d="M 0 0 
L 0 3.5 
" id="m90e544248b" style="stroke:#000000;stroke-width:0.8;"/>
      </defs>
      <g>
       <use style="stroke:#000000;stroke-width:0.8;" x="127.648425" xlink:href="#m90e544248b" y="390.04"/>
      </g>
     </g>
     <g id="text_1">
      <!-- 2020-03 -->
      <g transform="translate(106.757018 404.638438)scale(0.1 -0.1)">
       <defs>
        <path d="M 19.1875 8.296875 
L 53.609375 8.296875 
L 53.609375 0 
L 7.328125 0 
L 7.328125 8.296875 
Q 12.9375 14.109375 22.625 23.890625 
Q 32.328125 33.6875 34.8125 36.53125 
Q 39.546875 41.84375 41.421875 45.53125 
Q 43.3125 49.21875 43.3125 52.78125 
Q 43.3125 58.59375 39.234375 62.25 
Q 35.15625 65.921875 28.609375 65.921875 
Q 23.96875 65.921875 18.8125 64.3125 
Q 13.671875 62.703125 7.8125 59.421875 
L 7.8125 69.390625 
Q 13.765625 71.78125 18.9375 73 
Q 24.125 74.21875 28.421875 74.21875 
Q 39.75 74.21875 46.484375 68.546875 
Q 53.21875 62.890625 53.21875 53.421875 
Q 53.21875 48.921875 51.53125 44.890625 
Q 49.859375 40.875 45.40625 35.40625 
Q 44.1875 33.984375 37.640625 27.21875 
Q 31.109375 20.453125 19.1875 8.296875 
z
" id="DejaVuSans-50"/>
        <path d="M 31.78125 66.40625 
Q 24.171875 66.40625 20.328125 58.90625 
Q 16.5 51.421875 16.5 36.375 
Q 16.5 21.390625 20.328125 13.890625 
Q 24.171875 6.390625 31.78125 6.390625 
Q 39.453125 6.390625 43.28125 13.890625 
Q 47.125 21.390625 47.125 36.375 
Q 47.125 51.421875 43.28125 58.90625 
Q 39.453125 66.40625 31.78125 66.40625 
z
M 31.78125 74.21875 
Q 44.046875 74.21875 50.515625 64.515625 
Q 56.984375 54.828125 56.984375 36.375 
Q 56.984375 17.96875 50.515625 8.265625 
Q 44.046875 -1.421875 31.78125 -1.421875 
Q 19.53125 -1.421875 13.0625 8.265625 
Q 6.59375 17.96875 6.59375 36.375 
Q 6.59375 54.828125 13.0625 64.515625 
Q 19.53125 74.21875 31.78125 74.21875 
z
" id="DejaVuSans-48"/>
        <path d="M 4.890625 31.390625 
L 31.203125 31.390625 
L 31.203125 23.390625 
L 4.890625 23.390625 
z
" id="DejaVuSans-45"/>
        <path d="M 40.578125 39.3125 
Q 47.65625 37.796875 51.625 33 
Q 55.609375 28.21875 55.609375 21.1875 
Q 55.609375 10.40625 48.1875 4.484375 
Q 40.765625 -1.421875 27.09375 -1.421875 
Q 22.515625 -1.421875 17.65625 -0.515625 
Q 12.796875 0.390625 7.625 2.203125 
L 7.625 11.71875 
Q 11.71875 9.328125 16.59375 8.109375 
Q 21.484375 6.890625 26.8125 6.890625 
Q 36.078125 6.890625 40.9375 10.546875 
Q 45.796875 14.203125 45.796875 21.1875 
Q 45.796875 27.640625 41.28125 31.265625 
Q 36.765625 34.90625 28.71875 34.90625 
L 20.21875 34.90625 
L 20.21875 43.015625 
L 29.109375 43.015625 
Q 36.375 43.015625 40.234375 45.921875 
Q 44.09375 48.828125 44.09375 54.296875 
Q 44.09375 59.90625 40.109375 62.90625 
Q 36.140625 65.921875 28.71875 65.921875 
Q 24.65625 65.921875 20.015625 65.03125 
Q 15.375 64.15625 9.8125 62.3125 
L 9.8125 71.09375 
Q 15.4375 72.65625 20.34375 73.4375 
Q 25.25 74.21875 29.59375 74.21875 
Q 40.828125 74.21875 47.359375 69.109375 
Q 53.90625 64.015625 53.90625 55.328125 
Q 53.90625 49.265625 50.4375 45.09375 
Q 46.96875 40.921875 40.578125 39.3125 
z
" id="DejaVuSans-51"/>
       </defs>
       <use xlink:href="#DejaVuSans-50"/>
       <use x="63.623047" xlink:href="#DejaVuSans-48"/>
       <use x="127.246094" xlink:href="#DejaVuSans-50"/>
       <use x="190.869141" xlink:href="#DejaVuSans-48"/>
       <use x="254.492188" xlink:href="#DejaVuSans-45"/>
       <use x="290.576172" xlink:href="#DejaVuSans-48"/>
       <use x="354.199219" xlink:href="#DejaVuSans-51"/>
      </g>
     </g>
    </g>
    <g id="xtick_2">
     <g id="line2d_3">
      <path clip-path="url(#p0008b2585e)" d="M 250.503792 390.04 
L 250.503792 28.32 
" style="fill:none;stroke:#b0b0b0;stroke-linecap:square;stroke-width:0.8;"/>
     </g>
     <g id="line2d_4">
      <g>
       <use style="stroke:#000000;stroke-width:0.8;" x="250.503792" xlink:href="#m90e544248b" y="390.04"/>
      </g>
     </g>
     <g id="text_2">
      <!-- 2020-05 -->
      <g transform="translate(229.612386 404.638438)scale(0.1 -0.1)">
       <defs>
        <path d="M 10.796875 72.90625 
L 49.515625 72.90625 
L 49.515625 64.59375 
L 19.828125 64.59375 
L 19.828125 46.734375 
Q 21.96875 47.46875 24.109375 47.828125 
Q 26.265625 48.1875 28.421875 48.1875 
Q 40.625 48.1875 47.75 41.5 
Q 54.890625 34.8125 54.890625 23.390625 
Q 54.890625 11.625 47.5625 5.09375 
Q 40.234375 -1.421875 26.90625 -1.421875 
Q 22.3125 -1.421875 17.546875 -0.640625 
Q 12.796875 0.140625 7.71875 1.703125 
L 7.71875 11.625 
Q 12.109375 9.234375 16.796875 8.0625 
Q 21.484375 6.890625 26.703125 6.890625 
Q 35.15625 6.890625 40.078125 11.328125 
Q 45.015625 15.765625 45.015625 23.390625 
Q 45.015625 31 40.078125 35.4375 
Q 35.15625 39.890625 26.703125 39.890625 
Q 22.75 39.890625 18.8125 39.015625 
Q 14.890625 38.140625 10.796875 36.28125 
z
" id="DejaVuSans-53"/>
       </defs>
       <use xlink:href="#DejaVuSans-50"/>
       <use x="63.623047" xlink:href="#DejaVuSans-48"/>
       <use x="127.246094" xlink:href="#DejaVuSans-50"/>
       <use x="190.869141" xlink:href="#DejaVuSans-48"/>
       <use x="254.492188" xlink:href="#DejaVuSans-45"/>
       <use x="290.576172" xlink:href="#DejaVuSans-48"/>
       <use x="354.199219" xlink:href="#DejaVuSans-53"/>
      </g>
     </g>
    </g>
    <g id="xtick_3">
     <g id="line2d_5">
      <path clip-path="url(#p0008b2585e)" d="M 373.359159 390.04 
L 373.359159 28.32 
" style="fill:none;stroke:#b0b0b0;stroke-linecap:square;stroke-width:0.8;"/>
     </g>
     <g id="line2d_6">
      <g>
       <use style="stroke:#000000;stroke-width:0.8;" x="373.359159" xlink:href="#m90e544248b" y="390.04"/>
      </g>
     </g>
     <g id="text_3">
      <!-- 2020-07 -->
      <g transform="translate(352.467753 404.638438)scale(0.1 -0.1)">
       <defs>
        <path d="M 8.203125 72.90625 
L 55.078125 72.90625 
L 55.078125 68.703125 
L 28.609375 0 
L 18.3125 0 
L 43.21875 64.59375 
L 8.203125 64.59375 
z
" id="DejaVuSans-55"/>
       </defs>
       <use xlink:href="#DejaVuSans-50"/>
       <use x="63.623047" xlink:href="#DejaVuSans-48"/>
       <use x="127.246094" xlink:href="#DejaVuSans-50"/>
       <use x="190.869141" xlink:href="#DejaVuSans-48"/>
       <use x="254.492188" xlink:href="#DejaVuSans-45"/>
       <use x="290.576172" xlink:href="#DejaVuSans-48"/>
       <use x="354.199219" xlink:href="#DejaVuSans-55"/>
      </g>
     </g>
    </g>
    <g id="xtick_4">
     <g id="line2d_7">
      <path clip-path="url(#p0008b2585e)" d="M 498.228549 390.04 
L 498.228549 28.32 
" style="fill:none;stroke:#b0b0b0;stroke-linecap:square;stroke-width:0.8;"/>
     </g>
     <g id="line2d_8">
      <g>
       <use style="stroke:#000000;stroke-width:0.8;" x="498.228549" xlink:href="#m90e544248b" y="390.04"/>
      </g>
     </g>
     <g id="text_4">
      <!-- 2020-09 -->
      <g transform="translate(477.337143 404.638438)scale(0.1 -0.1)">
       <defs>
        <path d="M 10.984375 1.515625 
L 10.984375 10.5 
Q 14.703125 8.734375 18.5 7.8125 
Q 22.3125 6.890625 25.984375 6.890625 
Q 35.75 6.890625 40.890625 13.453125 
Q 46.046875 20.015625 46.78125 33.40625 
Q 43.953125 29.203125 39.59375 26.953125 
Q 35.25 24.703125 29.984375 24.703125 
Q 19.046875 24.703125 12.671875 31.3125 
Q 6.296875 37.9375 6.296875 49.421875 
Q 6.296875 60.640625 12.9375 67.421875 
Q 19.578125 74.21875 30.609375 74.21875 
Q 43.265625 74.21875 49.921875 64.515625 
Q 56.59375 54.828125 56.59375 36.375 
Q 56.59375 19.140625 48.40625 8.859375 
Q 40.234375 -1.421875 26.421875 -1.421875 
Q 22.703125 -1.421875 18.890625 -0.6875 
Q 15.09375 0.046875 10.984375 1.515625 
z
M 30.609375 32.421875 
Q 37.25 32.421875 41.125 36.953125 
Q 45.015625 41.5 45.015625 49.421875 
Q 45.015625 57.28125 41.125 61.84375 
Q 37.25 66.40625 30.609375 66.40625 
Q 23.96875 66.40625 20.09375 61.84375 
Q 16.21875 57.28125 16.21875 49.421875 
Q 16.21875 41.5 20.09375 36.953125 
Q 23.96875 32.421875 30.609375 32.421875 
z
" id="DejaVuSans-57"/>
       </defs>
       <use xlink:href="#DejaVuSans-50"/>
       <use x="63.623047" xlink:href="#DejaVuSans-48"/>
       <use x="127.246094" xlink:href="#DejaVuSans-50"/>
       <use x="190.869141" xlink:href="#DejaVuSans-48"/>
       <use x="254.492188" xlink:href="#DejaVuSans-45"/>
       <use x="290.576172" xlink:href="#DejaVuSans-48"/>
       <use x="354.199219" xlink:href="#DejaVuSans-57"/>
      </g>
     </g>
    </g>
    <g id="xtick_5">
     <g id="line2d_9">
      <path clip-path="url(#p0008b2585e)" d="M 621.083917 390.04 
L 621.083917 28.32 
" style="fill:none;stroke:#b0b0b0;stroke-linecap:square;stroke-width:0.8;"/>
     </g>
     <g id="line2d_10">
      <g>
       <use style="stroke:#000000;stroke-width:0.8;" x="621.083917" xlink:href="#m90e544248b" y="390.04"/>
      </g>
     </g>
     <g id="text_5">
      <!-- 2020-11 -->
      <g transform="translate(600.19251 404.638438)scale(0.1 -0.1)">
       <defs>
        <path d="M 12.40625 8.296875 
L 28.515625 8.296875 
L 28.515625 63.921875 
L 10.984375 60.40625 
L 10.984375 69.390625 
L 28.421875 72.90625 
L 38.28125 72.90625 
L 38.28125 8.296875 
L 54.390625 8.296875 
L 54.390625 0 
L 12.40625 0 
z
" id="DejaVuSans-49"/>
       </defs>
       <use xlink:href="#DejaVuSans-50"/>
       <use x="63.623047" xlink:href="#DejaVuSans-48"/>
       <use x="127.246094" xlink:href="#DejaVuSans-50"/>
       <use x="190.869141" xlink:href="#DejaVuSans-48"/>
       <use x="254.492188" xlink:href="#DejaVuSans-45"/>
       <use x="290.576172" xlink:href="#DejaVuSans-49"/>
       <use x="354.199219" xlink:href="#DejaVuSans-49"/>
      </g>
     </g>
    </g>
    <g id="xtick_6">
     <g id="line2d_11">
      <path clip-path="url(#p0008b2585e)" d="M 743.939284 390.04 
L 743.939284 28.32 
" style="fill:none;stroke:#b0b0b0;stroke-linecap:square;stroke-width:0.8;"/>
     </g>
     <g id="line2d_12">
      <g>
       <use style="stroke:#000000;stroke-width:0.8;" x="743.939284" xlink:href="#m90e544248b" y="390.04"/>
      </g>
     </g>
     <g id="text_6">
      <!-- 2021-01 -->
      <g transform="translate(723.047878 404.638438)scale(0.1 -0.1)">
       <use xlink:href="#DejaVuSans-50"/>
       <use x="63.623047" xlink:href="#DejaVuSans-48"/>
       <use x="127.246094" xlink:href="#DejaVuSans-50"/>
       <use x="190.869141" xlink:href="#DejaVuSans-49"/>
       <use x="254.492188" xlink:href="#DejaVuSans-45"/>
       <use x="290.576172" xlink:href="#DejaVuSans-48"/>
       <use x="354.199219" xlink:href="#DejaVuSans-49"/>
      </g>
     </g>
    </g>
    <g id="text_7">
     <!-- Datum -->
     <g transform="translate(431.971719 418.316562)scale(0.1 -0.1)">
      <defs>
       <path d="M 19.671875 64.796875 
L 19.671875 8.109375 
L 31.59375 8.109375 
Q 46.6875 8.109375 53.6875 14.9375 
Q 60.6875 21.78125 60.6875 36.53125 
Q 60.6875 51.171875 53.6875 57.984375 
Q 46.6875 64.796875 31.59375 64.796875 
z
M 9.8125 72.90625 
L 30.078125 72.90625 
Q 51.265625 72.90625 61.171875 64.09375 
Q 71.09375 55.28125 71.09375 36.53125 
Q 71.09375 17.671875 61.125 8.828125 
Q 51.171875 0 30.078125 0 
L 9.8125 0 
z
" id="DejaVuSans-68"/>
       <path d="M 34.28125 27.484375 
Q 23.390625 27.484375 19.1875 25 
Q 14.984375 22.515625 14.984375 16.5 
Q 14.984375 11.71875 18.140625 8.90625 
Q 21.296875 6.109375 26.703125 6.109375 
Q 34.1875 6.109375 38.703125 11.40625 
Q 43.21875 16.703125 43.21875 25.484375 
L 43.21875 27.484375 
z
M 52.203125 31.203125 
L 52.203125 0 
L 43.21875 0 
L 43.21875 8.296875 
Q 40.140625 3.328125 35.546875 0.953125 
Q 30.953125 -1.421875 24.3125 -1.421875 
Q 15.921875 -1.421875 10.953125 3.296875 
Q 6 8.015625 6 15.921875 
Q 6 25.140625 12.171875 29.828125 
Q 18.359375 34.515625 30.609375 34.515625 
L 43.21875 34.515625 
L 43.21875 35.40625 
Q 43.21875 41.609375 39.140625 45 
Q 35.0625 48.390625 27.6875 48.390625 
Q 23 48.390625 18.546875 47.265625 
Q 14.109375 46.140625 10.015625 43.890625 
L 10.015625 52.203125 
Q 14.9375 54.109375 19.578125 55.046875 
Q 24.21875 56 28.609375 56 
Q 40.484375 56 46.34375 49.84375 
Q 52.203125 43.703125 52.203125 31.203125 
z
" id="DejaVuSans-97"/>
       <path d="M 18.3125 70.21875 
L 18.3125 54.6875 
L 36.8125 54.6875 
L 36.8125 47.703125 
L 18.3125 47.703125 
L 18.3125 18.015625 
Q 18.3125 11.328125 20.140625 9.421875 
Q 21.96875 7.515625 27.59375 7.515625 
L 36.8125 7.515625 
L 36.8125 0 
L 27.59375 0 
Q 17.1875 0 13.234375 3.875 
Q 9.28125 7.765625 9.28125 18.015625 
L 9.28125 47.703125 
L 2.6875 47.703125 
L 2.6875 54.6875 
L 9.28125 54.6875 
L 9.28125 70.21875 
z
" id="DejaVuSans-116"/>
       <path d="M 8.5 21.578125 
L 8.5 54.6875 
L 17.484375 54.6875 
L 17.484375 21.921875 
Q 17.484375 14.15625 20.5 10.265625 
Q 23.53125 6.390625 29.59375 6.390625 
Q 36.859375 6.390625 41.078125 11.03125 
Q 45.3125 15.671875 45.3125 23.6875 
L 45.3125 54.6875 
L 54.296875 54.6875 
L 54.296875 0 
L 45.3125 0 
L 45.3125 8.40625 
Q 42.046875 3.421875 37.71875 1 
Q 33.40625 -1.421875 27.6875 -1.421875 
Q 18.265625 -1.421875 13.375 4.4375 
Q 8.5 10.296875 8.5 21.578125 
z
M 31.109375 56 
z
" id="DejaVuSans-117"/>
       <path d="M 52 44.1875 
Q 55.375 50.25 60.0625 53.125 
Q 64.75 56 71.09375 56 
Q 79.640625 56 84.28125 50.015625 
Q 88.921875 44.046875 88.921875 33.015625 
L 88.921875 0 
L 79.890625 0 
L 79.890625 32.71875 
Q 79.890625 40.578125 77.09375 44.375 
Q 74.3125 48.1875 68.609375 48.1875 
Q 61.625 48.1875 57.5625 43.546875 
Q 53.515625 38.921875 53.515625 30.90625 
L 53.515625 0 
L 44.484375 0 
L 44.484375 32.71875 
Q 44.484375 40.625 41.703125 44.40625 
Q 38.921875 48.1875 33.109375 48.1875 
Q 26.21875 48.1875 22.15625 43.53125 
Q 18.109375 38.875 18.109375 30.90625 
L 18.109375 0 
L 9.078125 0 
L 9.078125 54.6875 
L 18.109375 54.6875 
L 18.109375 46.1875 
Q 21.1875 51.21875 25.484375 53.609375 
Q 29.78125 56 35.6875 56 
Q 41.65625 56 45.828125 52.96875 
Q 50 49.953125 52 44.1875 
z
" id="DejaVuSans-109"/>
      </defs>
      <use xlink:href="#DejaVuSans-68"/>
      <use x="77.001953" xlink:href="#DejaVuSans-97"/>
      <use x="138.28125" xlink:href="#DejaVuSans-116"/>
      <use x="177.490234" xlink:href="#DejaVuSans-117"/>
      <use x="240.869141" xlink:href="#DejaVuSans-109"/>
     </g>
    </g>
   </g>
   <g id="matplotlib.axis_2">
    <g id="ytick_1">
     <g id="line2d_13">
      <path clip-path="url(#p0008b2585e)" d="M 44.57 382.684328 
L 853.2 382.684328 
" style="fill:none;stroke:#b0b0b0;stroke-linecap:square;stroke-width:0.8;"/>
     </g>
     <g id="line2d_14">
      <defs>
       <path d="M 0 0 
L -3.5 0 
" id="m563aac27c0" style="stroke:#000000;stroke-width:0.8;"/>
      </defs>
      <g>
       <use style="stroke:#000000;stroke-width:0.8;" x="44.57" xlink:href="#m563aac27c0" y="382.684328"/>
      </g>
     </g>
     <g id="text_8">
      <!-- 22 -->
      <g transform="translate(24.845 386.483547)scale(0.1 -0.1)">
       <use xlink:href="#DejaVuSans-50"/>
       <use x="63.623047" xlink:href="#DejaVuSans-50"/>
      </g>
     </g>
    </g>
    <g id="ytick_2">
     <g id="line2d_15">
      <path clip-path="url(#p0008b2585e)" d="M 44.57 332.518673 
L 853.2 332.518673 
" style="fill:none;stroke:#b0b0b0;stroke-linecap:square;stroke-width:0.8;"/>
     </g>
     <g id="line2d_16">
      <g>
       <use style="stroke:#000000;stroke-width:0.8;" x="44.57" xlink:href="#m563aac27c0" y="332.518673"/>
      </g>
     </g>
     <g id="text_9">
      <!-- 24 -->
      <g transform="translate(24.845 336.317892)scale(0.1 -0.1)">
       <defs>
        <path d="M 37.796875 64.3125 
L 12.890625 25.390625 
L 37.796875 25.390625 
z
M 35.203125 72.90625 
L 47.609375 72.90625 
L 47.609375 25.390625 
L 58.015625 25.390625 
L 58.015625 17.1875 
L 47.609375 17.1875 
L 47.609375 0 
L 37.796875 0 
L 37.796875 17.1875 
L 4.890625 17.1875 
L 4.890625 26.703125 
z
" id="DejaVuSans-52"/>
       </defs>
       <use xlink:href="#DejaVuSans-50"/>
       <use x="63.623047" xlink:href="#DejaVuSans-52"/>
      </g>
     </g>
    </g>
    <g id="ytick_3">
     <g id="line2d_17">
      <path clip-path="url(#p0008b2585e)" d="M 44.57 282.353018 
L 853.2 282.353018 
" style="fill:none;stroke:#b0b0b0;stroke-linecap:square;stroke-width:0.8;"/>
     </g>
     <g id="line2d_18">
      <g>
       <use style="stroke:#000000;stroke-width:0.8;" x="44.57" xlink:href="#m563aac27c0" y="282.353018"/>
      </g>
     </g>
     <g id="text_10">
      <!-- 26 -->
      <g transform="translate(24.845 286.152236)scale(0.1 -0.1)">
       <defs>
        <path d="M 33.015625 40.375 
Q 26.375 40.375 22.484375 35.828125 
Q 18.609375 31.296875 18.609375 23.390625 
Q 18.609375 15.53125 22.484375 10.953125 
Q 26.375 6.390625 33.015625 6.390625 
Q 39.65625 6.390625 43.53125 10.953125 
Q 47.40625 15.53125 47.40625 23.390625 
Q 47.40625 31.296875 43.53125 35.828125 
Q 39.65625 40.375 33.015625 40.375 
z
M 52.59375 71.296875 
L 52.59375 62.3125 
Q 48.875 64.0625 45.09375 64.984375 
Q 41.3125 65.921875 37.59375 65.921875 
Q 27.828125 65.921875 22.671875 59.328125 
Q 17.53125 52.734375 16.796875 39.40625 
Q 19.671875 43.65625 24.015625 45.921875 
Q 28.375 48.1875 33.59375 48.1875 
Q 44.578125 48.1875 50.953125 41.515625 
Q 57.328125 34.859375 57.328125 23.390625 
Q 57.328125 12.15625 50.6875 5.359375 
Q 44.046875 -1.421875 33.015625 -1.421875 
Q 20.359375 -1.421875 13.671875 8.265625 
Q 6.984375 17.96875 6.984375 36.375 
Q 6.984375 53.65625 15.1875 63.9375 
Q 23.390625 74.21875 37.203125 74.21875 
Q 40.921875 74.21875 44.703125 73.484375 
Q 48.484375 72.75 52.59375 71.296875 
z
" id="DejaVuSans-54"/>
       </defs>
       <use xlink:href="#DejaVuSans-50"/>
       <use x="63.623047" xlink:href="#DejaVuSans-54"/>
      </g>
     </g>
    </g>
    <g id="ytick_4">
     <g id="line2d_19">
      <path clip-path="url(#p0008b2585e)" d="M 44.57 232.187362 
L 853.2 232.187362 
" style="fill:none;stroke:#b0b0b0;stroke-linecap:square;stroke-width:0.8;"/>
     </g>
     <g id="line2d_20">
      <g>
       <use style="stroke:#000000;stroke-width:0.8;" x="44.57" xlink:href="#m563aac27c0" y="232.187362"/>
      </g>
     </g>
     <g id="text_11">
      <!-- 28 -->
      <g transform="translate(24.845 235.986581)scale(0.1 -0.1)">
       <defs>
        <path d="M 31.78125 34.625 
Q 24.75 34.625 20.71875 30.859375 
Q 16.703125 27.09375 16.703125 20.515625 
Q 16.703125 13.921875 20.71875 10.15625 
Q 24.75 6.390625 31.78125 6.390625 
Q 38.8125 6.390625 42.859375 10.171875 
Q 46.921875 13.96875 46.921875 20.515625 
Q 46.921875 27.09375 42.890625 30.859375 
Q 38.875 34.625 31.78125 34.625 
z
M 21.921875 38.8125 
Q 15.578125 40.375 12.03125 44.71875 
Q 8.5 49.078125 8.5 55.328125 
Q 8.5 64.0625 14.71875 69.140625 
Q 20.953125 74.21875 31.78125 74.21875 
Q 42.671875 74.21875 48.875 69.140625 
Q 55.078125 64.0625 55.078125 55.328125 
Q 55.078125 49.078125 51.53125 44.71875 
Q 48 40.375 41.703125 38.8125 
Q 48.828125 37.15625 52.796875 32.3125 
Q 56.78125 27.484375 56.78125 20.515625 
Q 56.78125 9.90625 50.3125 4.234375 
Q 43.84375 -1.421875 31.78125 -1.421875 
Q 19.734375 -1.421875 13.25 4.234375 
Q 6.78125 9.90625 6.78125 20.515625 
Q 6.78125 27.484375 10.78125 32.3125 
Q 14.796875 37.15625 21.921875 38.8125 
z
M 18.3125 54.390625 
Q 18.3125 48.734375 21.84375 45.5625 
Q 25.390625 42.390625 31.78125 42.390625 
Q 38.140625 42.390625 41.71875 45.5625 
Q 45.3125 48.734375 45.3125 54.390625 
Q 45.3125 60.0625 41.71875 63.234375 
Q 38.140625 66.40625 31.78125 66.40625 
Q 25.390625 66.40625 21.84375 63.234375 
Q 18.3125 60.0625 18.3125 54.390625 
z
" id="DejaVuSans-56"/>
       </defs>
       <use xlink:href="#DejaVuSans-50"/>
       <use x="63.623047" xlink:href="#DejaVuSans-56"/>
      </g>
     </g>
    </g>
    <g id="ytick_5">
     <g id="line2d_21">
      <path clip-path="url(#p0008b2585e)" d="M 44.57 182.021707 
L 853.2 182.021707 
" style="fill:none;stroke:#b0b0b0;stroke-linecap:square;stroke-width:0.8;"/>
     </g>
     <g id="line2d_22">
      <g>
       <use style="stroke:#000000;stroke-width:0.8;" x="44.57" xlink:href="#m563aac27c0" y="182.021707"/>
      </g>
     </g>
     <g id="text_12">
      <!-- 30 -->
      <g transform="translate(24.845 185.820925)scale(0.1 -0.1)">
       <use xlink:href="#DejaVuSans-51"/>
       <use x="63.623047" xlink:href="#DejaVuSans-48"/>
      </g>
     </g>
    </g>
    <g id="ytick_6">
     <g id="line2d_23">
      <path clip-path="url(#p0008b2585e)" d="M 44.57 131.856051 
L 853.2 131.856051 
" style="fill:none;stroke:#b0b0b0;stroke-linecap:square;stroke-width:0.8;"/>
     </g>
     <g id="line2d_24">
      <g>
       <use style="stroke:#000000;stroke-width:0.8;" x="44.57" xlink:href="#m563aac27c0" y="131.856051"/>
      </g>
     </g>
     <g id="text_13">
      <!-- 32 -->
      <g transform="translate(24.845 135.65527)scale(0.1 -0.1)">
       <use xlink:href="#DejaVuSans-51"/>
       <use x="63.623047" xlink:href="#DejaVuSans-50"/>
      </g>
     </g>
    </g>
    <g id="ytick_7">
     <g id="line2d_25">
      <path clip-path="url(#p0008b2585e)" d="M 44.57 81.690396 
L 853.2 81.690396 
" style="fill:none;stroke:#b0b0b0;stroke-linecap:square;stroke-width:0.8;"/>
     </g>
     <g id="line2d_26">
      <g>
       <use style="stroke:#000000;stroke-width:0.8;" x="44.57" xlink:href="#m563aac27c0" y="81.690396"/>
      </g>
     </g>
     <g id="text_14">
      <!-- 34 -->
      <g transform="translate(24.845 85.489615)scale(0.1 -0.1)">
       <use xlink:href="#DejaVuSans-51"/>
       <use x="63.623047" xlink:href="#DejaVuSans-52"/>
      </g>
     </g>
    </g>
    <g id="ytick_8">
     <g id="line2d_27">
      <path clip-path="url(#p0008b2585e)" d="M 44.57 31.52474 
L 853.2 31.52474 
" style="fill:none;stroke:#b0b0b0;stroke-linecap:square;stroke-width:0.8;"/>
     </g>
     <g id="line2d_28">
      <g>
       <use style="stroke:#000000;stroke-width:0.8;" x="44.57" xlink:href="#m563aac27c0" y="31.52474"/>
      </g>
     </g>
     <g id="text_15">
      <!-- 36 -->
      <g transform="translate(24.845 35.323959)scale(0.1 -0.1)">
       <use xlink:href="#DejaVuSans-51"/>
       <use x="63.623047" xlink:href="#DejaVuSans-54"/>
      </g>
     </g>
    </g>
    <g id="text_16">
     <!-- durchschnittliche Produktpreise (€) -->
     <g transform="translate(18.765313 296.810469)rotate(-90)scale(0.1 -0.1)">
      <defs>
       <path d="M 45.40625 46.390625 
L 45.40625 75.984375 
L 54.390625 75.984375 
L 54.390625 0 
L 45.40625 0 
L 45.40625 8.203125 
Q 42.578125 3.328125 38.25 0.953125 
Q 33.9375 -1.421875 27.875 -1.421875 
Q 17.96875 -1.421875 11.734375 6.484375 
Q 5.515625 14.40625 5.515625 27.296875 
Q 5.515625 40.1875 11.734375 48.09375 
Q 17.96875 56 27.875 56 
Q 33.9375 56 38.25 53.625 
Q 42.578125 51.265625 45.40625 46.390625 
z
M 14.796875 27.296875 
Q 14.796875 17.390625 18.875 11.75 
Q 22.953125 6.109375 30.078125 6.109375 
Q 37.203125 6.109375 41.296875 11.75 
Q 45.40625 17.390625 45.40625 27.296875 
Q 45.40625 37.203125 41.296875 42.84375 
Q 37.203125 48.484375 30.078125 48.484375 
Q 22.953125 48.484375 18.875 42.84375 
Q 14.796875 37.203125 14.796875 27.296875 
z
" id="DejaVuSans-100"/>
       <path d="M 41.109375 46.296875 
Q 39.59375 47.171875 37.8125 47.578125 
Q 36.03125 48 33.890625 48 
Q 26.265625 48 22.1875 43.046875 
Q 18.109375 38.09375 18.109375 28.8125 
L 18.109375 0 
L 9.078125 0 
L 9.078125 54.6875 
L 18.109375 54.6875 
L 18.109375 46.1875 
Q 20.953125 51.171875 25.484375 53.578125 
Q 30.03125 56 36.53125 56 
Q 37.453125 56 38.578125 55.875 
Q 39.703125 55.765625 41.0625 55.515625 
z
" id="DejaVuSans-114"/>
       <path d="M 48.78125 52.59375 
L 48.78125 44.1875 
Q 44.96875 46.296875 41.140625 47.34375 
Q 37.3125 48.390625 33.40625 48.390625 
Q 24.65625 48.390625 19.8125 42.84375 
Q 14.984375 37.3125 14.984375 27.296875 
Q 14.984375 17.28125 19.8125 11.734375 
Q 24.65625 6.203125 33.40625 6.203125 
Q 37.3125 6.203125 41.140625 7.25 
Q 44.96875 8.296875 48.78125 10.40625 
L 48.78125 2.09375 
Q 45.015625 0.34375 40.984375 -0.53125 
Q 36.96875 -1.421875 32.421875 -1.421875 
Q 20.0625 -1.421875 12.78125 6.34375 
Q 5.515625 14.109375 5.515625 27.296875 
Q 5.515625 40.671875 12.859375 48.328125 
Q 20.21875 56 33.015625 56 
Q 37.15625 56 41.109375 55.140625 
Q 45.0625 54.296875 48.78125 52.59375 
z
" id="DejaVuSans-99"/>
       <path d="M 54.890625 33.015625 
L 54.890625 0 
L 45.90625 0 
L 45.90625 32.71875 
Q 45.90625 40.484375 42.875 44.328125 
Q 39.84375 48.1875 33.796875 48.1875 
Q 26.515625 48.1875 22.3125 43.546875 
Q 18.109375 38.921875 18.109375 30.90625 
L 18.109375 0 
L 9.078125 0 
L 9.078125 75.984375 
L 18.109375 75.984375 
L 18.109375 46.1875 
Q 21.34375 51.125 25.703125 53.5625 
Q 30.078125 56 35.796875 56 
Q 45.21875 56 50.046875 50.171875 
Q 54.890625 44.34375 54.890625 33.015625 
z
" id="DejaVuSans-104"/>
       <path d="M 44.28125 53.078125 
L 44.28125 44.578125 
Q 40.484375 46.53125 36.375 47.5 
Q 32.28125 48.484375 27.875 48.484375 
Q 21.1875 48.484375 17.84375 46.4375 
Q 14.5 44.390625 14.5 40.28125 
Q 14.5 37.15625 16.890625 35.375 
Q 19.28125 33.59375 26.515625 31.984375 
L 29.59375 31.296875 
Q 39.15625 29.25 43.1875 25.515625 
Q 47.21875 21.78125 47.21875 15.09375 
Q 47.21875 7.46875 41.1875 3.015625 
Q 35.15625 -1.421875 24.609375 -1.421875 
Q 20.21875 -1.421875 15.453125 -0.5625 
Q 10.6875 0.296875 5.421875 2 
L 5.421875 11.28125 
Q 10.40625 8.6875 15.234375 7.390625 
Q 20.0625 6.109375 24.8125 6.109375 
Q 31.15625 6.109375 34.5625 8.28125 
Q 37.984375 10.453125 37.984375 14.40625 
Q 37.984375 18.0625 35.515625 20.015625 
Q 33.0625 21.96875 24.703125 23.78125 
L 21.578125 24.515625 
Q 13.234375 26.265625 9.515625 29.90625 
Q 5.8125 33.546875 5.8125 39.890625 
Q 5.8125 47.609375 11.28125 51.796875 
Q 16.75 56 26.8125 56 
Q 31.78125 56 36.171875 55.265625 
Q 40.578125 54.546875 44.28125 53.078125 
z
" id="DejaVuSans-115"/>
       <path d="M 54.890625 33.015625 
L 54.890625 0 
L 45.90625 0 
L 45.90625 32.71875 
Q 45.90625 40.484375 42.875 44.328125 
Q 39.84375 48.1875 33.796875 48.1875 
Q 26.515625 48.1875 22.3125 43.546875 
Q 18.109375 38.921875 18.109375 30.90625 
L 18.109375 0 
L 9.078125 0 
L 9.078125 54.6875 
L 18.109375 54.6875 
L 18.109375 46.1875 
Q 21.34375 51.125 25.703125 53.5625 
Q 30.078125 56 35.796875 56 
Q 45.21875 56 50.046875 50.171875 
Q 54.890625 44.34375 54.890625 33.015625 
z
" id="DejaVuSans-110"/>
       <path d="M 9.421875 54.6875 
L 18.40625 54.6875 
L 18.40625 0 
L 9.421875 0 
z
M 9.421875 75.984375 
L 18.40625 75.984375 
L 18.40625 64.59375 
L 9.421875 64.59375 
z
" id="DejaVuSans-105"/>
       <path d="M 9.421875 75.984375 
L 18.40625 75.984375 
L 18.40625 0 
L 9.421875 0 
z
" id="DejaVuSans-108"/>
       <path d="M 56.203125 29.59375 
L 56.203125 25.203125 
L 14.890625 25.203125 
Q 15.484375 15.921875 20.484375 11.0625 
Q 25.484375 6.203125 34.421875 6.203125 
Q 39.59375 6.203125 44.453125 7.46875 
Q 49.3125 8.734375 54.109375 11.28125 
L 54.109375 2.78125 
Q 49.265625 0.734375 44.1875 -0.34375 
Q 39.109375 -1.421875 33.890625 -1.421875 
Q 20.796875 -1.421875 13.15625 6.1875 
Q 5.515625 13.8125 5.515625 26.8125 
Q 5.515625 40.234375 12.765625 48.109375 
Q 20.015625 56 32.328125 56 
Q 43.359375 56 49.78125 48.890625 
Q 56.203125 41.796875 56.203125 29.59375 
z
M 47.21875 32.234375 
Q 47.125 39.59375 43.09375 43.984375 
Q 39.0625 48.390625 32.421875 48.390625 
Q 24.90625 48.390625 20.390625 44.140625 
Q 15.875 39.890625 15.1875 32.171875 
z
" id="DejaVuSans-101"/>
       <path id="DejaVuSans-32"/>
       <path d="M 19.671875 64.796875 
L 19.671875 37.40625 
L 32.078125 37.40625 
Q 38.96875 37.40625 42.71875 40.96875 
Q 46.484375 44.53125 46.484375 51.125 
Q 46.484375 57.671875 42.71875 61.234375 
Q 38.96875 64.796875 32.078125 64.796875 
z
M 9.8125 72.90625 
L 32.078125 72.90625 
Q 44.34375 72.90625 50.609375 67.359375 
Q 56.890625 61.8125 56.890625 51.125 
Q 56.890625 40.328125 50.609375 34.8125 
Q 44.34375 29.296875 32.078125 29.296875 
L 19.671875 29.296875 
L 19.671875 0 
L 9.8125 0 
z
" id="DejaVuSans-80"/>
       <path d="M 30.609375 48.390625 
Q 23.390625 48.390625 19.1875 42.75 
Q 14.984375 37.109375 14.984375 27.296875 
Q 14.984375 17.484375 19.15625 11.84375 
Q 23.34375 6.203125 30.609375 6.203125 
Q 37.796875 6.203125 41.984375 11.859375 
Q 46.1875 17.53125 46.1875 27.296875 
Q 46.1875 37.015625 41.984375 42.703125 
Q 37.796875 48.390625 30.609375 48.390625 
z
M 30.609375 56 
Q 42.328125 56 49.015625 48.375 
Q 55.71875 40.765625 55.71875 27.296875 
Q 55.71875 13.875 49.015625 6.21875 
Q 42.328125 -1.421875 30.609375 -1.421875 
Q 18.84375 -1.421875 12.171875 6.21875 
Q 5.515625 13.875 5.515625 27.296875 
Q 5.515625 40.765625 12.171875 48.375 
Q 18.84375 56 30.609375 56 
z
" id="DejaVuSans-111"/>
       <path d="M 9.078125 75.984375 
L 18.109375 75.984375 
L 18.109375 31.109375 
L 44.921875 54.6875 
L 56.390625 54.6875 
L 27.390625 29.109375 
L 57.625 0 
L 45.90625 0 
L 18.109375 26.703125 
L 18.109375 0 
L 9.078125 0 
z
" id="DejaVuSans-107"/>
       <path d="M 18.109375 8.203125 
L 18.109375 -20.796875 
L 9.078125 -20.796875 
L 9.078125 54.6875 
L 18.109375 54.6875 
L 18.109375 46.390625 
Q 20.953125 51.265625 25.265625 53.625 
Q 29.59375 56 35.59375 56 
Q 45.5625 56 51.78125 48.09375 
Q 58.015625 40.1875 58.015625 27.296875 
Q 58.015625 14.40625 51.78125 6.484375 
Q 45.5625 -1.421875 35.59375 -1.421875 
Q 29.59375 -1.421875 25.265625 0.953125 
Q 20.953125 3.328125 18.109375 8.203125 
z
M 48.6875 27.296875 
Q 48.6875 37.203125 44.609375 42.84375 
Q 40.53125 48.484375 33.40625 48.484375 
Q 26.265625 48.484375 22.1875 42.84375 
Q 18.109375 37.203125 18.109375 27.296875 
Q 18.109375 17.390625 22.1875 11.75 
Q 26.265625 6.109375 33.40625 6.109375 
Q 40.53125 6.109375 44.609375 11.75 
Q 48.6875 17.390625 48.6875 27.296875 
z
" id="DejaVuSans-112"/>
       <path d="M 31 75.875 
Q 24.46875 64.65625 21.28125 53.65625 
Q 18.109375 42.671875 18.109375 31.390625 
Q 18.109375 20.125 21.3125 9.0625 
Q 24.515625 -2 31 -13.1875 
L 23.1875 -13.1875 
Q 15.875 -1.703125 12.234375 9.375 
Q 8.59375 20.453125 8.59375 31.390625 
Q 8.59375 42.28125 12.203125 53.3125 
Q 15.828125 64.359375 23.1875 75.875 
z
" id="DejaVuSans-40"/>
       <path d="M 56.984375 67.28125 
L 56.984375 56.890625 
Q 52.546875 62.015625 48.40625 64.203125 
Q 44.28125 66.40625 39.3125 66.40625 
Q 31.640625 66.40625 26.703125 61.515625 
Q 21.78125 56.640625 20.21875 47.515625 
L 48.390625 47.515625 
L 45.703125 41.5 
L 19.4375 41.5 
Q 19.34375 40.328125 19.3125 39.203125 
Q 19.28125 38.09375 19.28125 36.375 
Q 19.28125 34.8125 19.3125 33.6875 
Q 19.34375 32.5625 19.4375 31.390625 
L 41.21875 31.390625 
L 38.484375 25.390625 
L 20.21875 25.390625 
Q 21.78125 16.265625 26.703125 11.328125 
Q 31.640625 6.390625 39.3125 6.390625 
Q 44.28125 6.390625 48.40625 8.59375 
Q 52.546875 10.796875 56.984375 15.921875 
L 56.984375 5.609375 
Q 52.640625 2.09375 48.125 0.328125 
Q 43.609375 -1.421875 38.921875 -1.421875 
Q 27.34375 -1.421875 19.796875 5.65625 
Q 12.25 12.75 10.296875 25.390625 
L 0 25.390625 
L 2.6875 31.390625 
L 9.46875 31.390625 
Q 9.46875 32.515625 9.4375 33.65625 
Q 9.421875 34.8125 9.421875 36.375 
Q 9.421875 38.09375 9.4375 39.234375 
Q 9.46875 40.375 9.46875 41.5 
L 0 41.5 
L 2.6875 47.515625 
L 10.296875 47.515625 
Q 12.25 60.0625 19.8125 67.140625 
Q 27.390625 74.21875 38.921875 74.21875 
Q 43.703125 74.21875 48.21875 72.484375 
Q 52.734375 70.75 56.984375 67.28125 
z
" id="DejaVuSans-8364"/>
       <path d="M 8.015625 75.875 
L 15.828125 75.875 
Q 23.140625 64.359375 26.78125 53.3125 
Q 30.421875 42.28125 30.421875 31.390625 
Q 30.421875 20.453125 26.78125 9.375 
Q 23.140625 -1.703125 15.828125 -13.1875 
L 8.015625 -13.1875 
Q 14.5 -2 17.703125 9.0625 
Q 20.90625 20.125 20.90625 31.390625 
Q 20.90625 42.671875 17.703125 53.65625 
Q 14.5 64.65625 8.015625 75.875 
z
" id="DejaVuSans-41"/>
      </defs>
      <use xlink:href="#DejaVuSans-100"/>
      <use x="63.476562" xlink:href="#DejaVuSans-117"/>
      <use x="126.855469" xlink:href="#DejaVuSans-114"/>
      <use x="165.71875" xlink:href="#DejaVuSans-99"/>
      <use x="220.699219" xlink:href="#DejaVuSans-104"/>
      <use x="284.078125" xlink:href="#DejaVuSans-115"/>
      <use x="336.177734" xlink:href="#DejaVuSans-99"/>
      <use x="391.158203" xlink:href="#DejaVuSans-104"/>
      <use x="454.537109" xlink:href="#DejaVuSans-110"/>
      <use x="517.916016" xlink:href="#DejaVuSans-105"/>
      <use x="545.699219" xlink:href="#DejaVuSans-116"/>
      <use x="584.908203" xlink:href="#DejaVuSans-116"/>
      <use x="624.117188" xlink:href="#DejaVuSans-108"/>
      <use x="651.900391" xlink:href="#DejaVuSans-105"/>
      <use x="679.683594" xlink:href="#DejaVuSans-99"/>
      <use x="734.664062" xlink:href="#DejaVuSans-104"/>
      <use x="798.042969" xlink:href="#DejaVuSans-101"/>
      <use x="859.566406" xlink:href="#DejaVuSans-32"/>
      <use x="891.353516" xlink:href="#DejaVuSans-80"/>
      <use x="949.90625" xlink:href="#DejaVuSans-114"/>
      <use x="988.769531" xlink:href="#DejaVuSans-111"/>
      <use x="1049.951172" xlink:href="#DejaVuSans-100"/>
      <use x="1113.427734" xlink:href="#DejaVuSans-117"/>
      <use x="1176.806641" xlink:href="#DejaVuSans-107"/>
      <use x="1234.716797" xlink:href="#DejaVuSans-116"/>
      <use x="1273.925781" xlink:href="#DejaVuSans-112"/>
      <use x="1337.402344" xlink:href="#DejaVuSans-114"/>
      <use x="1376.265625" xlink:href="#DejaVuSans-101"/>
      <use x="1437.789062" xlink:href="#DejaVuSans-105"/>
      <use x="1465.572266" xlink:href="#DejaVuSans-115"/>
      <use x="1517.671875" xlink:href="#DejaVuSans-101"/>
      <use x="1579.195312" xlink:href="#DejaVuSans-32"/>
      <use x="1610.982422" xlink:href="#DejaVuSans-40"/>
      <use x="1649.996094" xlink:href="#DejaVuSans-8364"/>
      <use x="1713.619141" xlink:href="#DejaVuSans-41"/>
     </g>
    </g>
   </g>
   <g id="line2d_29">
    <path clip-path="url(#p0008b2585e)" d="M 81.325909 369.490761 
L 83.339932 368.774638 
L 85.353954 367.320507 
L 87.367976 368.789789 
L 89.381999 366.52507 
L 91.396021 373.598182 
L 93.410044 366.25639 
L 95.424066 361.330652 
L 97.438088 361.175804 
L 99.452111 362.056582 
L 103.480156 362.219485 
L 105.494178 360.488898 
L 107.5082 357.033148 
L 109.522223 362.676146 
L 111.536245 362.161087 
L 113.550268 361.041614 
L 115.56429 359.111576 
L 117.578313 359.987552 
L 119.592335 353.027052 
L 121.606357 332.304266 
L 125.634402 235.122243 
L 127.648425 314.409315 
L 129.662447 238.522911 
L 131.676469 225.88542 
L 133.690492 204.832251 
L 135.704514 180.456791 
L 137.718537 169.62745 
L 139.732559 161.215249 
L 141.746582 163.790335 
L 143.760604 149.812961 
L 145.774626 139.633619 
L 147.788649 127.265516 
L 149.802671 123.69657 
L 151.816694 110.812315 
L 153.830716 90.533038 
L 155.844738 80.176288 
L 157.858761 68.877356 
L 159.872783 65.454451 
L 161.886806 53.369432 
L 163.900828 52.31649 
L 165.914851 48.149727 
L 167.928873 47.842705 
L 169.942895 44.761818 
L 171.956918 49.620792 
L 173.97094 58.84657 
L 175.984963 55.412537 
L 177.998985 56.688783 
L 180.013007 73.973955 
L 182.02703 76.25023 
L 184.041052 71.677319 
L 186.055075 75.624604 
L 188.069097 69.737937 
L 190.08312 137.824596 
L 192.097142 116.473554 
L 194.111164 111.295501 
L 196.125187 101.912006 
L 198.139209 101.630937 
L 200.153232 106.430017 
L 202.167254 109.839989 
L 204.181276 107.763415 
L 206.195299 105.318724 
L 208.209321 108.804173 
L 210.223344 108.74918 
L 212.237366 107.706693 
L 214.251389 104.766901 
L 216.265411 109.842554 
L 218.279433 112.305264 
L 220.293456 108.693357 
L 222.307478 103.840943 
L 224.321501 111.296751 
L 226.335523 105.167804 
L 228.349545 106.07981 
L 230.363568 107.860245 
L 232.37759 112.225128 
L 234.391613 119.334657 
L 236.405635 114.340171 
L 238.419658 112.063581 
L 240.43368 111.270469 
L 242.447702 113.351805 
L 244.461725 116.411734 
L 246.475747 122.22401 
L 248.48977 124.745231 
L 250.503792 132.074865 
L 252.517814 129.065513 
L 254.531837 128.893693 
L 256.545859 126.086708 
L 258.559882 123.755756 
L 260.573904 120.372199 
L 262.587927 129.211721 
L 264.601949 107.479388 
L 266.615971 107.346837 
L 268.629994 102.387953 
L 270.644016 106.376443 
L 272.658039 108.152633 
L 274.672061 111.316391 
L 276.686083 131.118698 
L 278.700106 131.557848 
L 280.714128 130.351954 
L 282.728151 130.794609 
L 284.742173 134.918016 
L 286.756196 138.063397 
L 288.770218 139.289927 
L 290.78424 132.823905 
L 292.798263 127.859347 
L 294.812285 131.060891 
L 296.826308 130.718324 
L 298.84033 140.30331 
L 300.854352 142.363323 
L 302.868375 135.847567 
L 304.882397 137.702038 
L 306.89642 137.765943 
L 308.910442 136.144701 
L 310.924465 134.173499 
L 312.938487 129.811473 
L 314.952509 136.613532 
L 316.966532 140.423502 
L 318.980554 140.736967 
L 320.994577 140.596321 
L 323.008599 141.218124 
L 325.022621 136.887991 
L 327.036644 142.805375 
L 329.050666 143.527396 
L 331.064689 143.764273 
L 333.078711 143.845415 
L 335.092733 145.250167 
L 339.120778 143.784772 
L 341.134801 146.234974 
L 343.148823 146.052591 
L 347.176868 153.678396 
L 349.19089 153.2922 
L 351.204913 153.934343 
L 353.218935 150.113051 
L 355.232958 150.932366 
L 357.24698 151.982603 
L 359.261002 153.165933 
L 361.275025 153.342536 
L 363.289047 153.782197 
L 365.30307 156.885414 
L 367.317092 156.341953 
L 369.331115 156.973005 
L 371.345137 159.463941 
L 373.359159 167.887448 
L 375.373182 173.960222 
L 377.387204 180.491142 
L 379.401227 184.942349 
L 381.415249 184.372724 
L 383.429271 187.491299 
L 385.443294 187.503243 
L 387.457316 195.856507 
L 389.471339 198.33237 
L 391.485361 194.625117 
L 393.499384 197.66776 
L 395.513406 197.52136 
L 397.527428 184.987048 
L 399.541451 186.931748 
L 401.555473 190.044235 
L 403.569496 189.859877 
L 405.583518 186.036664 
L 407.59754 189.402819 
L 409.611563 189.141196 
L 411.625585 190.054454 
L 413.639608 191.902924 
L 415.65363 195.909657 
L 417.667653 197.457991 
L 419.681675 196.380704 
L 421.695697 191.67732 
L 423.70972 188.330109 
L 425.723742 190.070269 
L 427.737765 192.820598 
L 429.751787 192.358769 
L 431.765809 189.575931 
L 433.779832 195.450623 
L 435.793854 205.513978 
L 437.807877 205.877227 
L 439.821899 209.908557 
L 441.835922 207.533315 
L 443.849944 208.3014 
L 445.863966 207.795793 
L 447.877989 210.108555 
L 449.892011 208.42096 
L 451.906034 205.953543 
L 453.920056 226.202149 
L 455.934078 204.010892 
L 457.948101 225.582969 
L 459.962123 232.471615 
L 461.976146 233.056132 
L 463.990168 238.604642 
L 466.004191 238.804745 
L 468.018213 239.472312 
L 470.032235 238.970923 
L 472.046258 247.912559 
L 474.06028 243.93402 
L 476.074303 243.970972 
L 478.088325 245.396718 
L 480.102347 240.234303 
L 482.11637 246.04611 
L 484.130392 246.704083 
L 486.144415 245.995667 
L 488.158437 248.941028 
L 490.17246 252.536326 
L 492.186482 252.528011 
L 494.200504 252.217317 
L 496.214527 254.560136 
L 498.228549 263.965035 
L 500.242572 264.744651 
L 502.256594 263.060281 
L 504.270616 267.571314 
L 506.284639 267.539199 
L 508.298661 266.280074 
L 510.312684 266.746571 
L 512.326706 271.267618 
L 514.340729 270.600118 
L 516.354751 274.310029 
L 518.368773 273.372102 
L 520.382796 274.040794 
L 522.396818 272.887132 
L 524.410841 268.002018 
L 526.424863 262.159969 
L 528.438885 263.406025 
L 530.452908 267.213407 
L 532.46693 267.448061 
L 534.480953 266.780831 
L 536.494975 260.693242 
L 538.508998 261.298245 
L 540.52302 263.506905 
L 542.537042 261.025761 
L 544.551065 260.466263 
L 546.565087 262.767875 
L 548.57911 258.573347 
L 550.593132 257.748571 
L 552.607154 261.679242 
L 554.621177 266.443338 
L 556.635199 268.423851 
L 558.649222 268.604732 
L 560.663244 269.912427 
L 562.677267 262.840326 
L 564.691289 261.994942 
L 566.705311 261.419513 
L 568.719334 262.034015 
L 570.733356 265.093136 
L 572.747379 259.656064 
L 574.761401 264.54885 
L 576.775423 263.413163 
L 578.789446 261.769542 
L 580.803468 263.628236 
L 582.817491 263.540897 
L 584.831513 262.170173 
L 586.845535 260.225294 
L 588.859558 258.902474 
L 590.87358 261.542414 
L 592.887603 262.159441 
L 596.915648 262.363059 
L 598.92967 259.226542 
L 600.943692 255.140042 
L 602.957715 255.300053 
L 604.971737 255.183558 
L 606.98576 254.451886 
L 608.999782 256.208287 
L 611.013804 251.168772 
L 613.027827 260.887895 
L 615.041849 261.754116 
L 617.055872 257.944896 
L 619.069894 256.189637 
L 621.083917 274.312787 
L 623.097939 287.919276 
L 625.111961 294.987897 
L 627.125984 295.789244 
L 629.140006 299.746869 
L 631.154029 295.914784 
L 635.182073 296.188415 
L 637.196096 300.7582 
L 639.210118 304.396588 
L 641.224141 304.296107 
L 643.238163 306.866533 
L 645.252186 303.33439 
L 647.266208 307.175505 
L 649.28023 306.616523 
L 651.294253 301.808089 
L 653.308275 303.115803 
L 655.322298 308.934569 
L 657.33632 306.101259 
L 659.350342 306.335099 
L 661.364365 308.792167 
L 663.378387 309.607359 
L 665.39241 312.179869 
L 667.406432 311.287869 
L 669.420455 314.247892 
L 671.434477 315.119676 
L 673.448499 315.719151 
L 675.462522 316.784357 
L 677.476544 316.464669 
L 679.490567 319.463965 
L 681.504589 321.413956 
L 683.518611 320.455663 
L 685.532634 320.101436 
L 687.546656 322.944157 
L 689.560679 322.329949 
L 691.574701 322.789306 
L 693.588724 321.645985 
L 695.602746 323.989275 
L 697.616768 324.971606 
L 699.630791 312.703998 
L 701.644813 313.065322 
L 703.658836 312.923978 
L 705.672858 311.106737 
L 707.68688 312.62746 
L 709.700903 310.026475 
L 711.714925 311.359173 
L 713.728948 314.495301 
L 717.756993 313.351464 
L 719.771015 313.15604 
L 721.785037 312.375601 
L 723.79906 312.648591 
L 725.813082 311.310588 
L 729.841127 310.727809 
L 735.883194 310.534593 
L 737.897217 313.184014 
L 741.925262 309.224349 
L 743.939284 310.658875 
L 745.953306 309.830916 
L 747.967329 308.263553 
L 749.981351 309.599459 
L 751.995374 304.235709 
L 754.009396 305.496392 
L 756.023418 303.540585 
L 758.037441 305.473498 
L 760.051463 303.934564 
L 762.065486 301.639624 
L 764.079508 302.163425 
L 766.093531 307.339334 
L 768.107553 305.894181 
L 770.121575 306.673317 
L 772.135598 306.214595 
L 774.14962 305.214546 
L 776.163643 304.944636 
L 780.191687 308.924746 
L 782.20571 314.197412 
L 784.219732 309.167289 
L 786.233755 302.968139 
L 788.247777 302.456691 
L 790.2618 301.178446 
L 792.275822 311.417713 
L 794.289844 311.652974 
L 796.303867 317.699718 
L 798.317889 313.285994 
L 800.331912 313.742959 
L 802.345934 310.71921 
L 804.359956 310.135199 
L 806.373979 318.409771 
L 808.388001 320.052357 
L 810.402024 320.422148 
L 812.416046 321.435214 
L 814.430068 319.693453 
L 816.444091 319.513826 
L 816.444091 319.513826 
" style="fill:none;stroke:#1f77b4;stroke-linecap:square;stroke-width:1.5;"/>
    <defs>
     <path d="M -3 3 
L 3 -3 
M -3 -3 
L 3 3 
" id="mea5f332ab4" style="stroke:#1f77b4;"/>
    </defs>
    <g clip-path="url(#p0008b2585e)">
     <use style="fill:#1f77b4;stroke:#1f77b4;" x="81.325909" xlink:href="#mea5f332ab4" y="369.490761"/>
     <use style="fill:#1f77b4;stroke:#1f77b4;" x="83.339932" xlink:href="#mea5f332ab4" y="368.774638"/>
     <use style="fill:#1f77b4;stroke:#1f77b4;" x="85.353954" xlink:href="#mea5f332ab4" y="367.320507"/>
     <use style="fill:#1f77b4;stroke:#1f77b4;" x="87.367976" xlink:href="#mea5f332ab4" y="368.789789"/>
     <use style="fill:#1f77b4;stroke:#1f77b4;" x="89.381999" xlink:href="#mea5f332ab4" y="366.52507"/>
     <use style="fill:#1f77b4;stroke:#1f77b4;" x="91.396021" xlink:href="#mea5f332ab4" y="373.598182"/>
     <use style="fill:#1f77b4;stroke:#1f77b4;" x="93.410044" xlink:href="#mea5f332ab4" y="366.25639"/>
     <use style="fill:#1f77b4;stroke:#1f77b4;" x="95.424066" xlink:href="#mea5f332ab4" y="361.330652"/>
     <use style="fill:#1f77b4;stroke:#1f77b4;" x="97.438088" xlink:href="#mea5f332ab4" y="361.175804"/>
     <use style="fill:#1f77b4;stroke:#1f77b4;" x="99.452111" xlink:href="#mea5f332ab4" y="362.056582"/>
     <use style="fill:#1f77b4;stroke:#1f77b4;" x="101.466133" xlink:href="#mea5f332ab4" y="362.082497"/>
     <use style="fill:#1f77b4;stroke:#1f77b4;" x="103.480156" xlink:href="#mea5f332ab4" y="362.219485"/>
     <use style="fill:#1f77b4;stroke:#1f77b4;" x="105.494178" xlink:href="#mea5f332ab4" y="360.488898"/>
     <use style="fill:#1f77b4;stroke:#1f77b4;" x="107.5082" xlink:href="#mea5f332ab4" y="357.033148"/>
     <use style="fill:#1f77b4;stroke:#1f77b4;" x="109.522223" xlink:href="#mea5f332ab4" y="362.676146"/>
     <use style="fill:#1f77b4;stroke:#1f77b4;" x="111.536245" xlink:href="#mea5f332ab4" y="362.161087"/>
     <use style="fill:#1f77b4;stroke:#1f77b4;" x="113.550268" xlink:href="#mea5f332ab4" y="361.041614"/>
     <use style="fill:#1f77b4;stroke:#1f77b4;" x="115.56429" xlink:href="#mea5f332ab4" y="359.111576"/>
     <use style="fill:#1f77b4;stroke:#1f77b4;" x="117.578313" xlink:href="#mea5f332ab4" y="359.987552"/>
     <use style="fill:#1f77b4;stroke:#1f77b4;" x="119.592335" xlink:href="#mea5f332ab4" y="353.027052"/>
     <use style="fill:#1f77b4;stroke:#1f77b4;" x="121.606357" xlink:href="#mea5f332ab4" y="332.304266"/>
     <use style="fill:#1f77b4;stroke:#1f77b4;" x="123.62038" xlink:href="#mea5f332ab4" y="285.0054"/>
     <use style="fill:#1f77b4;stroke:#1f77b4;" x="125.634402" xlink:href="#mea5f332ab4" y="235.122243"/>
     <use style="fill:#1f77b4;stroke:#1f77b4;" x="127.648425" xlink:href="#mea5f332ab4" y="314.409315"/>
     <use style="fill:#1f77b4;stroke:#1f77b4;" x="129.662447" xlink:href="#mea5f332ab4" y="238.522911"/>
     <use style="fill:#1f77b4;stroke:#1f77b4;" x="131.676469" xlink:href="#mea5f332ab4" y="225.88542"/>
     <use style="fill:#1f77b4;stroke:#1f77b4;" x="133.690492" xlink:href="#mea5f332ab4" y="204.832251"/>
     <use style="fill:#1f77b4;stroke:#1f77b4;" x="135.704514" xlink:href="#mea5f332ab4" y="180.456791"/>
     <use style="fill:#1f77b4;stroke:#1f77b4;" x="137.718537" xlink:href="#mea5f332ab4" y="169.62745"/>
     <use style="fill:#1f77b4;stroke:#1f77b4;" x="139.732559" xlink:href="#mea5f332ab4" y="161.215249"/>
     <use style="fill:#1f77b4;stroke:#1f77b4;" x="141.746582" xlink:href="#mea5f332ab4" y="163.790335"/>
     <use style="fill:#1f77b4;stroke:#1f77b4;" x="143.760604" xlink:href="#mea5f332ab4" y="149.812961"/>
     <use style="fill:#1f77b4;stroke:#1f77b4;" x="145.774626" xlink:href="#mea5f332ab4" y="139.633619"/>
     <use style="fill:#1f77b4;stroke:#1f77b4;" x="147.788649" xlink:href="#mea5f332ab4" y="127.265516"/>
     <use style="fill:#1f77b4;stroke:#1f77b4;" x="149.802671" xlink:href="#mea5f332ab4" y="123.69657"/>
     <use style="fill:#1f77b4;stroke:#1f77b4;" x="151.816694" xlink:href="#mea5f332ab4" y="110.812315"/>
     <use style="fill:#1f77b4;stroke:#1f77b4;" x="153.830716" xlink:href="#mea5f332ab4" y="90.533038"/>
     <use style="fill:#1f77b4;stroke:#1f77b4;" x="155.844738" xlink:href="#mea5f332ab4" y="80.176288"/>
     <use style="fill:#1f77b4;stroke:#1f77b4;" x="157.858761" xlink:href="#mea5f332ab4" y="68.877356"/>
     <use style="fill:#1f77b4;stroke:#1f77b4;" x="159.872783" xlink:href="#mea5f332ab4" y="65.454451"/>
     <use style="fill:#1f77b4;stroke:#1f77b4;" x="161.886806" xlink:href="#mea5f332ab4" y="53.369432"/>
     <use style="fill:#1f77b4;stroke:#1f77b4;" x="163.900828" xlink:href="#mea5f332ab4" y="52.31649"/>
     <use style="fill:#1f77b4;stroke:#1f77b4;" x="165.914851" xlink:href="#mea5f332ab4" y="48.149727"/>
     <use style="fill:#1f77b4;stroke:#1f77b4;" x="167.928873" xlink:href="#mea5f332ab4" y="47.842705"/>
     <use style="fill:#1f77b4;stroke:#1f77b4;" x="169.942895" xlink:href="#mea5f332ab4" y="44.761818"/>
     <use style="fill:#1f77b4;stroke:#1f77b4;" x="171.956918" xlink:href="#mea5f332ab4" y="49.620792"/>
     <use style="fill:#1f77b4;stroke:#1f77b4;" x="173.97094" xlink:href="#mea5f332ab4" y="58.84657"/>
     <use style="fill:#1f77b4;stroke:#1f77b4;" x="175.984963" xlink:href="#mea5f332ab4" y="55.412537"/>
     <use style="fill:#1f77b4;stroke:#1f77b4;" x="177.998985" xlink:href="#mea5f332ab4" y="56.688783"/>
     <use style="fill:#1f77b4;stroke:#1f77b4;" x="180.013007" xlink:href="#mea5f332ab4" y="73.973955"/>
     <use style="fill:#1f77b4;stroke:#1f77b4;" x="182.02703" xlink:href="#mea5f332ab4" y="76.25023"/>
     <use style="fill:#1f77b4;stroke:#1f77b4;" x="184.041052" xlink:href="#mea5f332ab4" y="71.677319"/>
     <use style="fill:#1f77b4;stroke:#1f77b4;" x="186.055075" xlink:href="#mea5f332ab4" y="75.624604"/>
     <use style="fill:#1f77b4;stroke:#1f77b4;" x="188.069097" xlink:href="#mea5f332ab4" y="69.737937"/>
     <use style="fill:#1f77b4;stroke:#1f77b4;" x="190.08312" xlink:href="#mea5f332ab4" y="137.824596"/>
     <use style="fill:#1f77b4;stroke:#1f77b4;" x="192.097142" xlink:href="#mea5f332ab4" y="116.473554"/>
     <use style="fill:#1f77b4;stroke:#1f77b4;" x="194.111164" xlink:href="#mea5f332ab4" y="111.295501"/>
     <use style="fill:#1f77b4;stroke:#1f77b4;" x="196.125187" xlink:href="#mea5f332ab4" y="101.912006"/>
     <use style="fill:#1f77b4;stroke:#1f77b4;" x="198.139209" xlink:href="#mea5f332ab4" y="101.630937"/>
     <use style="fill:#1f77b4;stroke:#1f77b4;" x="200.153232" xlink:href="#mea5f332ab4" y="106.430017"/>
     <use style="fill:#1f77b4;stroke:#1f77b4;" x="202.167254" xlink:href="#mea5f332ab4" y="109.839989"/>
     <use style="fill:#1f77b4;stroke:#1f77b4;" x="204.181276" xlink:href="#mea5f332ab4" y="107.763415"/>
     <use style="fill:#1f77b4;stroke:#1f77b4;" x="206.195299" xlink:href="#mea5f332ab4" y="105.318724"/>
     <use style="fill:#1f77b4;stroke:#1f77b4;" x="208.209321" xlink:href="#mea5f332ab4" y="108.804173"/>
     <use style="fill:#1f77b4;stroke:#1f77b4;" x="210.223344" xlink:href="#mea5f332ab4" y="108.74918"/>
     <use style="fill:#1f77b4;stroke:#1f77b4;" x="212.237366" xlink:href="#mea5f332ab4" y="107.706693"/>
     <use style="fill:#1f77b4;stroke:#1f77b4;" x="214.251389" xlink:href="#mea5f332ab4" y="104.766901"/>
     <use style="fill:#1f77b4;stroke:#1f77b4;" x="216.265411" xlink:href="#mea5f332ab4" y="109.842554"/>
     <use style="fill:#1f77b4;stroke:#1f77b4;" x="218.279433" xlink:href="#mea5f332ab4" y="112.305264"/>
     <use style="fill:#1f77b4;stroke:#1f77b4;" x="220.293456" xlink:href="#mea5f332ab4" y="108.693357"/>
     <use style="fill:#1f77b4;stroke:#1f77b4;" x="222.307478" xlink:href="#mea5f332ab4" y="103.840943"/>
     <use style="fill:#1f77b4;stroke:#1f77b4;" x="224.321501" xlink:href="#mea5f332ab4" y="111.296751"/>
     <use style="fill:#1f77b4;stroke:#1f77b4;" x="226.335523" xlink:href="#mea5f332ab4" y="105.167804"/>
     <use style="fill:#1f77b4;stroke:#1f77b4;" x="228.349545" xlink:href="#mea5f332ab4" y="106.07981"/>
     <use style="fill:#1f77b4;stroke:#1f77b4;" x="230.363568" xlink:href="#mea5f332ab4" y="107.860245"/>
     <use style="fill:#1f77b4;stroke:#1f77b4;" x="232.37759" xlink:href="#mea5f332ab4" y="112.225128"/>
     <use style="fill:#1f77b4;stroke:#1f77b4;" x="234.391613" xlink:href="#mea5f332ab4" y="119.334657"/>
     <use style="fill:#1f77b4;stroke:#1f77b4;" x="236.405635" xlink:href="#mea5f332ab4" y="114.340171"/>
     <use style="fill:#1f77b4;stroke:#1f77b4;" x="238.419658" xlink:href="#mea5f332ab4" y="112.063581"/>
     <use style="fill:#1f77b4;stroke:#1f77b4;" x="240.43368" xlink:href="#mea5f332ab4" y="111.270469"/>
     <use style="fill:#1f77b4;stroke:#1f77b4;" x="242.447702" xlink:href="#mea5f332ab4" y="113.351805"/>
     <use style="fill:#1f77b4;stroke:#1f77b4;" x="244.461725" xlink:href="#mea5f332ab4" y="116.411734"/>
     <use style="fill:#1f77b4;stroke:#1f77b4;" x="246.475747" xlink:href="#mea5f332ab4" y="122.22401"/>
     <use style="fill:#1f77b4;stroke:#1f77b4;" x="248.48977" xlink:href="#mea5f332ab4" y="124.745231"/>
     <use style="fill:#1f77b4;stroke:#1f77b4;" x="250.503792" xlink:href="#mea5f332ab4" y="132.074865"/>
     <use style="fill:#1f77b4;stroke:#1f77b4;" x="252.517814" xlink:href="#mea5f332ab4" y="129.065513"/>
     <use style="fill:#1f77b4;stroke:#1f77b4;" x="254.531837" xlink:href="#mea5f332ab4" y="128.893693"/>
     <use style="fill:#1f77b4;stroke:#1f77b4;" x="256.545859" xlink:href="#mea5f332ab4" y="126.086708"/>
     <use style="fill:#1f77b4;stroke:#1f77b4;" x="258.559882" xlink:href="#mea5f332ab4" y="123.755756"/>
     <use style="fill:#1f77b4;stroke:#1f77b4;" x="260.573904" xlink:href="#mea5f332ab4" y="120.372199"/>
     <use style="fill:#1f77b4;stroke:#1f77b4;" x="262.587927" xlink:href="#mea5f332ab4" y="129.211721"/>
     <use style="fill:#1f77b4;stroke:#1f77b4;" x="264.601949" xlink:href="#mea5f332ab4" y="107.479388"/>
     <use style="fill:#1f77b4;stroke:#1f77b4;" x="266.615971" xlink:href="#mea5f332ab4" y="107.346837"/>
     <use style="fill:#1f77b4;stroke:#1f77b4;" x="268.629994" xlink:href="#mea5f332ab4" y="102.387953"/>
     <use style="fill:#1f77b4;stroke:#1f77b4;" x="270.644016" xlink:href="#mea5f332ab4" y="106.376443"/>
     <use style="fill:#1f77b4;stroke:#1f77b4;" x="272.658039" xlink:href="#mea5f332ab4" y="108.152633"/>
     <use style="fill:#1f77b4;stroke:#1f77b4;" x="274.672061" xlink:href="#mea5f332ab4" y="111.316391"/>
     <use style="fill:#1f77b4;stroke:#1f77b4;" x="276.686083" xlink:href="#mea5f332ab4" y="131.118698"/>
     <use style="fill:#1f77b4;stroke:#1f77b4;" x="278.700106" xlink:href="#mea5f332ab4" y="131.557848"/>
     <use style="fill:#1f77b4;stroke:#1f77b4;" x="280.714128" xlink:href="#mea5f332ab4" y="130.351954"/>
     <use style="fill:#1f77b4;stroke:#1f77b4;" x="282.728151" xlink:href="#mea5f332ab4" y="130.794609"/>
     <use style="fill:#1f77b4;stroke:#1f77b4;" x="284.742173" xlink:href="#mea5f332ab4" y="134.918016"/>
     <use style="fill:#1f77b4;stroke:#1f77b4;" x="286.756196" xlink:href="#mea5f332ab4" y="138.063397"/>
     <use style="fill:#1f77b4;stroke:#1f77b4;" x="288.770218" xlink:href="#mea5f332ab4" y="139.289927"/>
     <use style="fill:#1f77b4;stroke:#1f77b4;" x="290.78424" xlink:href="#mea5f332ab4" y="132.823905"/>
     <use style="fill:#1f77b4;stroke:#1f77b4;" x="292.798263" xlink:href="#mea5f332ab4" y="127.859347"/>
     <use style="fill:#1f77b4;stroke:#1f77b4;" x="294.812285" xlink:href="#mea5f332ab4" y="131.060891"/>
     <use style="fill:#1f77b4;stroke:#1f77b4;" x="296.826308" xlink:href="#mea5f332ab4" y="130.718324"/>
     <use style="fill:#1f77b4;stroke:#1f77b4;" x="298.84033" xlink:href="#mea5f332ab4" y="140.30331"/>
     <use style="fill:#1f77b4;stroke:#1f77b4;" x="300.854352" xlink:href="#mea5f332ab4" y="142.363323"/>
     <use style="fill:#1f77b4;stroke:#1f77b4;" x="302.868375" xlink:href="#mea5f332ab4" y="135.847567"/>
     <use style="fill:#1f77b4;stroke:#1f77b4;" x="304.882397" xlink:href="#mea5f332ab4" y="137.702038"/>
     <use style="fill:#1f77b4;stroke:#1f77b4;" x="306.89642" xlink:href="#mea5f332ab4" y="137.765943"/>
     <use style="fill:#1f77b4;stroke:#1f77b4;" x="308.910442" xlink:href="#mea5f332ab4" y="136.144701"/>
     <use style="fill:#1f77b4;stroke:#1f77b4;" x="310.924465" xlink:href="#mea5f332ab4" y="134.173499"/>
     <use style="fill:#1f77b4;stroke:#1f77b4;" x="312.938487" xlink:href="#mea5f332ab4" y="129.811473"/>
     <use style="fill:#1f77b4;stroke:#1f77b4;" x="314.952509" xlink:href="#mea5f332ab4" y="136.613532"/>
     <use style="fill:#1f77b4;stroke:#1f77b4;" x="316.966532" xlink:href="#mea5f332ab4" y="140.423502"/>
     <use style="fill:#1f77b4;stroke:#1f77b4;" x="318.980554" xlink:href="#mea5f332ab4" y="140.736967"/>
     <use style="fill:#1f77b4;stroke:#1f77b4;" x="320.994577" xlink:href="#mea5f332ab4" y="140.596321"/>
     <use style="fill:#1f77b4;stroke:#1f77b4;" x="323.008599" xlink:href="#mea5f332ab4" y="141.218124"/>
     <use style="fill:#1f77b4;stroke:#1f77b4;" x="325.022621" xlink:href="#mea5f332ab4" y="136.887991"/>
     <use style="fill:#1f77b4;stroke:#1f77b4;" x="327.036644" xlink:href="#mea5f332ab4" y="142.805375"/>
     <use style="fill:#1f77b4;stroke:#1f77b4;" x="329.050666" xlink:href="#mea5f332ab4" y="143.527396"/>
     <use style="fill:#1f77b4;stroke:#1f77b4;" x="331.064689" xlink:href="#mea5f332ab4" y="143.764273"/>
     <use style="fill:#1f77b4;stroke:#1f77b4;" x="333.078711" xlink:href="#mea5f332ab4" y="143.845415"/>
     <use style="fill:#1f77b4;stroke:#1f77b4;" x="335.092733" xlink:href="#mea5f332ab4" y="145.250167"/>
     <use style="fill:#1f77b4;stroke:#1f77b4;" x="337.106756" xlink:href="#mea5f332ab4" y="144.511349"/>
     <use style="fill:#1f77b4;stroke:#1f77b4;" x="339.120778" xlink:href="#mea5f332ab4" y="143.784772"/>
     <use style="fill:#1f77b4;stroke:#1f77b4;" x="341.134801" xlink:href="#mea5f332ab4" y="146.234974"/>
     <use style="fill:#1f77b4;stroke:#1f77b4;" x="343.148823" xlink:href="#mea5f332ab4" y="146.052591"/>
     <use style="fill:#1f77b4;stroke:#1f77b4;" x="345.162846" xlink:href="#mea5f332ab4" y="149.93531"/>
     <use style="fill:#1f77b4;stroke:#1f77b4;" x="347.176868" xlink:href="#mea5f332ab4" y="153.678396"/>
     <use style="fill:#1f77b4;stroke:#1f77b4;" x="349.19089" xlink:href="#mea5f332ab4" y="153.2922"/>
     <use style="fill:#1f77b4;stroke:#1f77b4;" x="351.204913" xlink:href="#mea5f332ab4" y="153.934343"/>
     <use style="fill:#1f77b4;stroke:#1f77b4;" x="353.218935" xlink:href="#mea5f332ab4" y="150.113051"/>
     <use style="fill:#1f77b4;stroke:#1f77b4;" x="355.232958" xlink:href="#mea5f332ab4" y="150.932366"/>
     <use style="fill:#1f77b4;stroke:#1f77b4;" x="357.24698" xlink:href="#mea5f332ab4" y="151.982603"/>
     <use style="fill:#1f77b4;stroke:#1f77b4;" x="359.261002" xlink:href="#mea5f332ab4" y="153.165933"/>
     <use style="fill:#1f77b4;stroke:#1f77b4;" x="361.275025" xlink:href="#mea5f332ab4" y="153.342536"/>
     <use style="fill:#1f77b4;stroke:#1f77b4;" x="363.289047" xlink:href="#mea5f332ab4" y="153.782197"/>
     <use style="fill:#1f77b4;stroke:#1f77b4;" x="365.30307" xlink:href="#mea5f332ab4" y="156.885414"/>
     <use style="fill:#1f77b4;stroke:#1f77b4;" x="367.317092" xlink:href="#mea5f332ab4" y="156.341953"/>
     <use style="fill:#1f77b4;stroke:#1f77b4;" x="369.331115" xlink:href="#mea5f332ab4" y="156.973005"/>
     <use style="fill:#1f77b4;stroke:#1f77b4;" x="371.345137" xlink:href="#mea5f332ab4" y="159.463941"/>
     <use style="fill:#1f77b4;stroke:#1f77b4;" x="373.359159" xlink:href="#mea5f332ab4" y="167.887448"/>
     <use style="fill:#1f77b4;stroke:#1f77b4;" x="375.373182" xlink:href="#mea5f332ab4" y="173.960222"/>
     <use style="fill:#1f77b4;stroke:#1f77b4;" x="377.387204" xlink:href="#mea5f332ab4" y="180.491142"/>
     <use style="fill:#1f77b4;stroke:#1f77b4;" x="379.401227" xlink:href="#mea5f332ab4" y="184.942349"/>
     <use style="fill:#1f77b4;stroke:#1f77b4;" x="381.415249" xlink:href="#mea5f332ab4" y="184.372724"/>
     <use style="fill:#1f77b4;stroke:#1f77b4;" x="383.429271" xlink:href="#mea5f332ab4" y="187.491299"/>
     <use style="fill:#1f77b4;stroke:#1f77b4;" x="385.443294" xlink:href="#mea5f332ab4" y="187.503243"/>
     <use style="fill:#1f77b4;stroke:#1f77b4;" x="387.457316" xlink:href="#mea5f332ab4" y="195.856507"/>
     <use style="fill:#1f77b4;stroke:#1f77b4;" x="389.471339" xlink:href="#mea5f332ab4" y="198.33237"/>
     <use style="fill:#1f77b4;stroke:#1f77b4;" x="391.485361" xlink:href="#mea5f332ab4" y="194.625117"/>
     <use style="fill:#1f77b4;stroke:#1f77b4;" x="393.499384" xlink:href="#mea5f332ab4" y="197.66776"/>
     <use style="fill:#1f77b4;stroke:#1f77b4;" x="395.513406" xlink:href="#mea5f332ab4" y="197.52136"/>
     <use style="fill:#1f77b4;stroke:#1f77b4;" x="397.527428" xlink:href="#mea5f332ab4" y="184.987048"/>
     <use style="fill:#1f77b4;stroke:#1f77b4;" x="399.541451" xlink:href="#mea5f332ab4" y="186.931748"/>
     <use style="fill:#1f77b4;stroke:#1f77b4;" x="401.555473" xlink:href="#mea5f332ab4" y="190.044235"/>
     <use style="fill:#1f77b4;stroke:#1f77b4;" x="403.569496" xlink:href="#mea5f332ab4" y="189.859877"/>
     <use style="fill:#1f77b4;stroke:#1f77b4;" x="405.583518" xlink:href="#mea5f332ab4" y="186.036664"/>
     <use style="fill:#1f77b4;stroke:#1f77b4;" x="407.59754" xlink:href="#mea5f332ab4" y="189.402819"/>
     <use style="fill:#1f77b4;stroke:#1f77b4;" x="409.611563" xlink:href="#mea5f332ab4" y="189.141196"/>
     <use style="fill:#1f77b4;stroke:#1f77b4;" x="411.625585" xlink:href="#mea5f332ab4" y="190.054454"/>
     <use style="fill:#1f77b4;stroke:#1f77b4;" x="413.639608" xlink:href="#mea5f332ab4" y="191.902924"/>
     <use style="fill:#1f77b4;stroke:#1f77b4;" x="415.65363" xlink:href="#mea5f332ab4" y="195.909657"/>
     <use style="fill:#1f77b4;stroke:#1f77b4;" x="417.667653" xlink:href="#mea5f332ab4" y="197.457991"/>
     <use style="fill:#1f77b4;stroke:#1f77b4;" x="419.681675" xlink:href="#mea5f332ab4" y="196.380704"/>
     <use style="fill:#1f77b4;stroke:#1f77b4;" x="421.695697" xlink:href="#mea5f332ab4" y="191.67732"/>
     <use style="fill:#1f77b4;stroke:#1f77b4;" x="423.70972" xlink:href="#mea5f332ab4" y="188.330109"/>
     <use style="fill:#1f77b4;stroke:#1f77b4;" x="425.723742" xlink:href="#mea5f332ab4" y="190.070269"/>
     <use style="fill:#1f77b4;stroke:#1f77b4;" x="427.737765" xlink:href="#mea5f332ab4" y="192.820598"/>
     <use style="fill:#1f77b4;stroke:#1f77b4;" x="429.751787" xlink:href="#mea5f332ab4" y="192.358769"/>
     <use style="fill:#1f77b4;stroke:#1f77b4;" x="431.765809" xlink:href="#mea5f332ab4" y="189.575931"/>
     <use style="fill:#1f77b4;stroke:#1f77b4;" x="433.779832" xlink:href="#mea5f332ab4" y="195.450623"/>
     <use style="fill:#1f77b4;stroke:#1f77b4;" x="435.793854" xlink:href="#mea5f332ab4" y="205.513978"/>
     <use style="fill:#1f77b4;stroke:#1f77b4;" x="437.807877" xlink:href="#mea5f332ab4" y="205.877227"/>
     <use style="fill:#1f77b4;stroke:#1f77b4;" x="439.821899" xlink:href="#mea5f332ab4" y="209.908557"/>
     <use style="fill:#1f77b4;stroke:#1f77b4;" x="441.835922" xlink:href="#mea5f332ab4" y="207.533315"/>
     <use style="fill:#1f77b4;stroke:#1f77b4;" x="443.849944" xlink:href="#mea5f332ab4" y="208.3014"/>
     <use style="fill:#1f77b4;stroke:#1f77b4;" x="445.863966" xlink:href="#mea5f332ab4" y="207.795793"/>
     <use style="fill:#1f77b4;stroke:#1f77b4;" x="447.877989" xlink:href="#mea5f332ab4" y="210.108555"/>
     <use style="fill:#1f77b4;stroke:#1f77b4;" x="449.892011" xlink:href="#mea5f332ab4" y="208.42096"/>
     <use style="fill:#1f77b4;stroke:#1f77b4;" x="451.906034" xlink:href="#mea5f332ab4" y="205.953543"/>
     <use style="fill:#1f77b4;stroke:#1f77b4;" x="453.920056" xlink:href="#mea5f332ab4" y="226.202149"/>
     <use style="fill:#1f77b4;stroke:#1f77b4;" x="455.934078" xlink:href="#mea5f332ab4" y="204.010892"/>
     <use style="fill:#1f77b4;stroke:#1f77b4;" x="457.948101" xlink:href="#mea5f332ab4" y="225.582969"/>
     <use style="fill:#1f77b4;stroke:#1f77b4;" x="459.962123" xlink:href="#mea5f332ab4" y="232.471615"/>
     <use style="fill:#1f77b4;stroke:#1f77b4;" x="461.976146" xlink:href="#mea5f332ab4" y="233.056132"/>
     <use style="fill:#1f77b4;stroke:#1f77b4;" x="463.990168" xlink:href="#mea5f332ab4" y="238.604642"/>
     <use style="fill:#1f77b4;stroke:#1f77b4;" x="466.004191" xlink:href="#mea5f332ab4" y="238.804745"/>
     <use style="fill:#1f77b4;stroke:#1f77b4;" x="468.018213" xlink:href="#mea5f332ab4" y="239.472312"/>
     <use style="fill:#1f77b4;stroke:#1f77b4;" x="470.032235" xlink:href="#mea5f332ab4" y="238.970923"/>
     <use style="fill:#1f77b4;stroke:#1f77b4;" x="472.046258" xlink:href="#mea5f332ab4" y="247.912559"/>
     <use style="fill:#1f77b4;stroke:#1f77b4;" x="474.06028" xlink:href="#mea5f332ab4" y="243.93402"/>
     <use style="fill:#1f77b4;stroke:#1f77b4;" x="476.074303" xlink:href="#mea5f332ab4" y="243.970972"/>
     <use style="fill:#1f77b4;stroke:#1f77b4;" x="478.088325" xlink:href="#mea5f332ab4" y="245.396718"/>
     <use style="fill:#1f77b4;stroke:#1f77b4;" x="480.102347" xlink:href="#mea5f332ab4" y="240.234303"/>
     <use style="fill:#1f77b4;stroke:#1f77b4;" x="482.11637" xlink:href="#mea5f332ab4" y="246.04611"/>
     <use style="fill:#1f77b4;stroke:#1f77b4;" x="484.130392" xlink:href="#mea5f332ab4" y="246.704083"/>
     <use style="fill:#1f77b4;stroke:#1f77b4;" x="486.144415" xlink:href="#mea5f332ab4" y="245.995667"/>
     <use style="fill:#1f77b4;stroke:#1f77b4;" x="488.158437" xlink:href="#mea5f332ab4" y="248.941028"/>
     <use style="fill:#1f77b4;stroke:#1f77b4;" x="490.17246" xlink:href="#mea5f332ab4" y="252.536326"/>
     <use style="fill:#1f77b4;stroke:#1f77b4;" x="492.186482" xlink:href="#mea5f332ab4" y="252.528011"/>
     <use style="fill:#1f77b4;stroke:#1f77b4;" x="494.200504" xlink:href="#mea5f332ab4" y="252.217317"/>
     <use style="fill:#1f77b4;stroke:#1f77b4;" x="496.214527" xlink:href="#mea5f332ab4" y="254.560136"/>
     <use style="fill:#1f77b4;stroke:#1f77b4;" x="498.228549" xlink:href="#mea5f332ab4" y="263.965035"/>
     <use style="fill:#1f77b4;stroke:#1f77b4;" x="500.242572" xlink:href="#mea5f332ab4" y="264.744651"/>
     <use style="fill:#1f77b4;stroke:#1f77b4;" x="502.256594" xlink:href="#mea5f332ab4" y="263.060281"/>
     <use style="fill:#1f77b4;stroke:#1f77b4;" x="504.270616" xlink:href="#mea5f332ab4" y="267.571314"/>
     <use style="fill:#1f77b4;stroke:#1f77b4;" x="506.284639" xlink:href="#mea5f332ab4" y="267.539199"/>
     <use style="fill:#1f77b4;stroke:#1f77b4;" x="508.298661" xlink:href="#mea5f332ab4" y="266.280074"/>
     <use style="fill:#1f77b4;stroke:#1f77b4;" x="510.312684" xlink:href="#mea5f332ab4" y="266.746571"/>
     <use style="fill:#1f77b4;stroke:#1f77b4;" x="512.326706" xlink:href="#mea5f332ab4" y="271.267618"/>
     <use style="fill:#1f77b4;stroke:#1f77b4;" x="514.340729" xlink:href="#mea5f332ab4" y="270.600118"/>
     <use style="fill:#1f77b4;stroke:#1f77b4;" x="516.354751" xlink:href="#mea5f332ab4" y="274.310029"/>
     <use style="fill:#1f77b4;stroke:#1f77b4;" x="518.368773" xlink:href="#mea5f332ab4" y="273.372102"/>
     <use style="fill:#1f77b4;stroke:#1f77b4;" x="520.382796" xlink:href="#mea5f332ab4" y="274.040794"/>
     <use style="fill:#1f77b4;stroke:#1f77b4;" x="522.396818" xlink:href="#mea5f332ab4" y="272.887132"/>
     <use style="fill:#1f77b4;stroke:#1f77b4;" x="524.410841" xlink:href="#mea5f332ab4" y="268.002018"/>
     <use style="fill:#1f77b4;stroke:#1f77b4;" x="526.424863" xlink:href="#mea5f332ab4" y="262.159969"/>
     <use style="fill:#1f77b4;stroke:#1f77b4;" x="528.438885" xlink:href="#mea5f332ab4" y="263.406025"/>
     <use style="fill:#1f77b4;stroke:#1f77b4;" x="530.452908" xlink:href="#mea5f332ab4" y="267.213407"/>
     <use style="fill:#1f77b4;stroke:#1f77b4;" x="532.46693" xlink:href="#mea5f332ab4" y="267.448061"/>
     <use style="fill:#1f77b4;stroke:#1f77b4;" x="534.480953" xlink:href="#mea5f332ab4" y="266.780831"/>
     <use style="fill:#1f77b4;stroke:#1f77b4;" x="536.494975" xlink:href="#mea5f332ab4" y="260.693242"/>
     <use style="fill:#1f77b4;stroke:#1f77b4;" x="538.508998" xlink:href="#mea5f332ab4" y="261.298245"/>
     <use style="fill:#1f77b4;stroke:#1f77b4;" x="540.52302" xlink:href="#mea5f332ab4" y="263.506905"/>
     <use style="fill:#1f77b4;stroke:#1f77b4;" x="542.537042" xlink:href="#mea5f332ab4" y="261.025761"/>
     <use style="fill:#1f77b4;stroke:#1f77b4;" x="544.551065" xlink:href="#mea5f332ab4" y="260.466263"/>
     <use style="fill:#1f77b4;stroke:#1f77b4;" x="546.565087" xlink:href="#mea5f332ab4" y="262.767875"/>
     <use style="fill:#1f77b4;stroke:#1f77b4;" x="548.57911" xlink:href="#mea5f332ab4" y="258.573347"/>
     <use style="fill:#1f77b4;stroke:#1f77b4;" x="550.593132" xlink:href="#mea5f332ab4" y="257.748571"/>
     <use style="fill:#1f77b4;stroke:#1f77b4;" x="552.607154" xlink:href="#mea5f332ab4" y="261.679242"/>
     <use style="fill:#1f77b4;stroke:#1f77b4;" x="554.621177" xlink:href="#mea5f332ab4" y="266.443338"/>
     <use style="fill:#1f77b4;stroke:#1f77b4;" x="556.635199" xlink:href="#mea5f332ab4" y="268.423851"/>
     <use style="fill:#1f77b4;stroke:#1f77b4;" x="558.649222" xlink:href="#mea5f332ab4" y="268.604732"/>
     <use style="fill:#1f77b4;stroke:#1f77b4;" x="560.663244" xlink:href="#mea5f332ab4" y="269.912427"/>
     <use style="fill:#1f77b4;stroke:#1f77b4;" x="562.677267" xlink:href="#mea5f332ab4" y="262.840326"/>
     <use style="fill:#1f77b4;stroke:#1f77b4;" x="564.691289" xlink:href="#mea5f332ab4" y="261.994942"/>
     <use style="fill:#1f77b4;stroke:#1f77b4;" x="566.705311" xlink:href="#mea5f332ab4" y="261.419513"/>
     <use style="fill:#1f77b4;stroke:#1f77b4;" x="568.719334" xlink:href="#mea5f332ab4" y="262.034015"/>
     <use style="fill:#1f77b4;stroke:#1f77b4;" x="570.733356" xlink:href="#mea5f332ab4" y="265.093136"/>
     <use style="fill:#1f77b4;stroke:#1f77b4;" x="572.747379" xlink:href="#mea5f332ab4" y="259.656064"/>
     <use style="fill:#1f77b4;stroke:#1f77b4;" x="574.761401" xlink:href="#mea5f332ab4" y="264.54885"/>
     <use style="fill:#1f77b4;stroke:#1f77b4;" x="576.775423" xlink:href="#mea5f332ab4" y="263.413163"/>
     <use style="fill:#1f77b4;stroke:#1f77b4;" x="578.789446" xlink:href="#mea5f332ab4" y="261.769542"/>
     <use style="fill:#1f77b4;stroke:#1f77b4;" x="580.803468" xlink:href="#mea5f332ab4" y="263.628236"/>
     <use style="fill:#1f77b4;stroke:#1f77b4;" x="582.817491" xlink:href="#mea5f332ab4" y="263.540897"/>
     <use style="fill:#1f77b4;stroke:#1f77b4;" x="584.831513" xlink:href="#mea5f332ab4" y="262.170173"/>
     <use style="fill:#1f77b4;stroke:#1f77b4;" x="586.845535" xlink:href="#mea5f332ab4" y="260.225294"/>
     <use style="fill:#1f77b4;stroke:#1f77b4;" x="588.859558" xlink:href="#mea5f332ab4" y="258.902474"/>
     <use style="fill:#1f77b4;stroke:#1f77b4;" x="590.87358" xlink:href="#mea5f332ab4" y="261.542414"/>
     <use style="fill:#1f77b4;stroke:#1f77b4;" x="592.887603" xlink:href="#mea5f332ab4" y="262.159441"/>
     <use style="fill:#1f77b4;stroke:#1f77b4;" x="594.901625" xlink:href="#mea5f332ab4" y="262.221475"/>
     <use style="fill:#1f77b4;stroke:#1f77b4;" x="596.915648" xlink:href="#mea5f332ab4" y="262.363059"/>
     <use style="fill:#1f77b4;stroke:#1f77b4;" x="598.92967" xlink:href="#mea5f332ab4" y="259.226542"/>
     <use style="fill:#1f77b4;stroke:#1f77b4;" x="600.943692" xlink:href="#mea5f332ab4" y="255.140042"/>
     <use style="fill:#1f77b4;stroke:#1f77b4;" x="602.957715" xlink:href="#mea5f332ab4" y="255.300053"/>
     <use style="fill:#1f77b4;stroke:#1f77b4;" x="604.971737" xlink:href="#mea5f332ab4" y="255.183558"/>
     <use style="fill:#1f77b4;stroke:#1f77b4;" x="606.98576" xlink:href="#mea5f332ab4" y="254.451886"/>
     <use style="fill:#1f77b4;stroke:#1f77b4;" x="608.999782" xlink:href="#mea5f332ab4" y="256.208287"/>
     <use style="fill:#1f77b4;stroke:#1f77b4;" x="611.013804" xlink:href="#mea5f332ab4" y="251.168772"/>
     <use style="fill:#1f77b4;stroke:#1f77b4;" x="613.027827" xlink:href="#mea5f332ab4" y="260.887895"/>
     <use style="fill:#1f77b4;stroke:#1f77b4;" x="615.041849" xlink:href="#mea5f332ab4" y="261.754116"/>
     <use style="fill:#1f77b4;stroke:#1f77b4;" x="617.055872" xlink:href="#mea5f332ab4" y="257.944896"/>
     <use style="fill:#1f77b4;stroke:#1f77b4;" x="619.069894" xlink:href="#mea5f332ab4" y="256.189637"/>
     <use style="fill:#1f77b4;stroke:#1f77b4;" x="621.083917" xlink:href="#mea5f332ab4" y="274.312787"/>
     <use style="fill:#1f77b4;stroke:#1f77b4;" x="623.097939" xlink:href="#mea5f332ab4" y="287.919276"/>
     <use style="fill:#1f77b4;stroke:#1f77b4;" x="625.111961" xlink:href="#mea5f332ab4" y="294.987897"/>
     <use style="fill:#1f77b4;stroke:#1f77b4;" x="627.125984" xlink:href="#mea5f332ab4" y="295.789244"/>
     <use style="fill:#1f77b4;stroke:#1f77b4;" x="629.140006" xlink:href="#mea5f332ab4" y="299.746869"/>
     <use style="fill:#1f77b4;stroke:#1f77b4;" x="631.154029" xlink:href="#mea5f332ab4" y="295.914784"/>
     <use style="fill:#1f77b4;stroke:#1f77b4;" x="633.168051" xlink:href="#mea5f332ab4" y="296.034309"/>
     <use style="fill:#1f77b4;stroke:#1f77b4;" x="635.182073" xlink:href="#mea5f332ab4" y="296.188415"/>
     <use style="fill:#1f77b4;stroke:#1f77b4;" x="637.196096" xlink:href="#mea5f332ab4" y="300.7582"/>
     <use style="fill:#1f77b4;stroke:#1f77b4;" x="639.210118" xlink:href="#mea5f332ab4" y="304.396588"/>
     <use style="fill:#1f77b4;stroke:#1f77b4;" x="641.224141" xlink:href="#mea5f332ab4" y="304.296107"/>
     <use style="fill:#1f77b4;stroke:#1f77b4;" x="643.238163" xlink:href="#mea5f332ab4" y="306.866533"/>
     <use style="fill:#1f77b4;stroke:#1f77b4;" x="645.252186" xlink:href="#mea5f332ab4" y="303.33439"/>
     <use style="fill:#1f77b4;stroke:#1f77b4;" x="647.266208" xlink:href="#mea5f332ab4" y="307.175505"/>
     <use style="fill:#1f77b4;stroke:#1f77b4;" x="649.28023" xlink:href="#mea5f332ab4" y="306.616523"/>
     <use style="fill:#1f77b4;stroke:#1f77b4;" x="651.294253" xlink:href="#mea5f332ab4" y="301.808089"/>
     <use style="fill:#1f77b4;stroke:#1f77b4;" x="653.308275" xlink:href="#mea5f332ab4" y="303.115803"/>
     <use style="fill:#1f77b4;stroke:#1f77b4;" x="655.322298" xlink:href="#mea5f332ab4" y="308.934569"/>
     <use style="fill:#1f77b4;stroke:#1f77b4;" x="657.33632" xlink:href="#mea5f332ab4" y="306.101259"/>
     <use style="fill:#1f77b4;stroke:#1f77b4;" x="659.350342" xlink:href="#mea5f332ab4" y="306.335099"/>
     <use style="fill:#1f77b4;stroke:#1f77b4;" x="661.364365" xlink:href="#mea5f332ab4" y="308.792167"/>
     <use style="fill:#1f77b4;stroke:#1f77b4;" x="663.378387" xlink:href="#mea5f332ab4" y="309.607359"/>
     <use style="fill:#1f77b4;stroke:#1f77b4;" x="665.39241" xlink:href="#mea5f332ab4" y="312.179869"/>
     <use style="fill:#1f77b4;stroke:#1f77b4;" x="667.406432" xlink:href="#mea5f332ab4" y="311.287869"/>
     <use style="fill:#1f77b4;stroke:#1f77b4;" x="669.420455" xlink:href="#mea5f332ab4" y="314.247892"/>
     <use style="fill:#1f77b4;stroke:#1f77b4;" x="671.434477" xlink:href="#mea5f332ab4" y="315.119676"/>
     <use style="fill:#1f77b4;stroke:#1f77b4;" x="673.448499" xlink:href="#mea5f332ab4" y="315.719151"/>
     <use style="fill:#1f77b4;stroke:#1f77b4;" x="675.462522" xlink:href="#mea5f332ab4" y="316.784357"/>
     <use style="fill:#1f77b4;stroke:#1f77b4;" x="677.476544" xlink:href="#mea5f332ab4" y="316.464669"/>
     <use style="fill:#1f77b4;stroke:#1f77b4;" x="679.490567" xlink:href="#mea5f332ab4" y="319.463965"/>
     <use style="fill:#1f77b4;stroke:#1f77b4;" x="681.504589" xlink:href="#mea5f332ab4" y="321.413956"/>
     <use style="fill:#1f77b4;stroke:#1f77b4;" x="683.518611" xlink:href="#mea5f332ab4" y="320.455663"/>
     <use style="fill:#1f77b4;stroke:#1f77b4;" x="685.532634" xlink:href="#mea5f332ab4" y="320.101436"/>
     <use style="fill:#1f77b4;stroke:#1f77b4;" x="687.546656" xlink:href="#mea5f332ab4" y="322.944157"/>
     <use style="fill:#1f77b4;stroke:#1f77b4;" x="689.560679" xlink:href="#mea5f332ab4" y="322.329949"/>
     <use style="fill:#1f77b4;stroke:#1f77b4;" x="691.574701" xlink:href="#mea5f332ab4" y="322.789306"/>
     <use style="fill:#1f77b4;stroke:#1f77b4;" x="693.588724" xlink:href="#mea5f332ab4" y="321.645985"/>
     <use style="fill:#1f77b4;stroke:#1f77b4;" x="695.602746" xlink:href="#mea5f332ab4" y="323.989275"/>
     <use style="fill:#1f77b4;stroke:#1f77b4;" x="697.616768" xlink:href="#mea5f332ab4" y="324.971606"/>
     <use style="fill:#1f77b4;stroke:#1f77b4;" x="699.630791" xlink:href="#mea5f332ab4" y="312.703998"/>
     <use style="fill:#1f77b4;stroke:#1f77b4;" x="701.644813" xlink:href="#mea5f332ab4" y="313.065322"/>
     <use style="fill:#1f77b4;stroke:#1f77b4;" x="703.658836" xlink:href="#mea5f332ab4" y="312.923978"/>
     <use style="fill:#1f77b4;stroke:#1f77b4;" x="705.672858" xlink:href="#mea5f332ab4" y="311.106737"/>
     <use style="fill:#1f77b4;stroke:#1f77b4;" x="707.68688" xlink:href="#mea5f332ab4" y="312.62746"/>
     <use style="fill:#1f77b4;stroke:#1f77b4;" x="709.700903" xlink:href="#mea5f332ab4" y="310.026475"/>
     <use style="fill:#1f77b4;stroke:#1f77b4;" x="711.714925" xlink:href="#mea5f332ab4" y="311.359173"/>
     <use style="fill:#1f77b4;stroke:#1f77b4;" x="713.728948" xlink:href="#mea5f332ab4" y="314.495301"/>
     <use style="fill:#1f77b4;stroke:#1f77b4;" x="715.74297" xlink:href="#mea5f332ab4" y="313.895429"/>
     <use style="fill:#1f77b4;stroke:#1f77b4;" x="717.756993" xlink:href="#mea5f332ab4" y="313.351464"/>
     <use style="fill:#1f77b4;stroke:#1f77b4;" x="719.771015" xlink:href="#mea5f332ab4" y="313.15604"/>
     <use style="fill:#1f77b4;stroke:#1f77b4;" x="721.785037" xlink:href="#mea5f332ab4" y="312.375601"/>
     <use style="fill:#1f77b4;stroke:#1f77b4;" x="723.79906" xlink:href="#mea5f332ab4" y="312.648591"/>
     <use style="fill:#1f77b4;stroke:#1f77b4;" x="725.813082" xlink:href="#mea5f332ab4" y="311.310588"/>
     <use style="fill:#1f77b4;stroke:#1f77b4;" x="727.827105" xlink:href="#mea5f332ab4" y="310.988742"/>
     <use style="fill:#1f77b4;stroke:#1f77b4;" x="729.841127" xlink:href="#mea5f332ab4" y="310.727809"/>
     <use style="fill:#1f77b4;stroke:#1f77b4;" x="731.855149" xlink:href="#mea5f332ab4" y="310.661391"/>
     <use style="fill:#1f77b4;stroke:#1f77b4;" x="733.869172" xlink:href="#mea5f332ab4" y="310.538116"/>
     <use style="fill:#1f77b4;stroke:#1f77b4;" x="735.883194" xlink:href="#mea5f332ab4" y="310.534593"/>
     <use style="fill:#1f77b4;stroke:#1f77b4;" x="737.897217" xlink:href="#mea5f332ab4" y="313.184014"/>
     <use style="fill:#1f77b4;stroke:#1f77b4;" x="739.911239" xlink:href="#mea5f332ab4" y="311.251605"/>
     <use style="fill:#1f77b4;stroke:#1f77b4;" x="741.925262" xlink:href="#mea5f332ab4" y="309.224349"/>
     <use style="fill:#1f77b4;stroke:#1f77b4;" x="743.939284" xlink:href="#mea5f332ab4" y="310.658875"/>
     <use style="fill:#1f77b4;stroke:#1f77b4;" x="745.953306" xlink:href="#mea5f332ab4" y="309.830916"/>
     <use style="fill:#1f77b4;stroke:#1f77b4;" x="747.967329" xlink:href="#mea5f332ab4" y="308.263553"/>
     <use style="fill:#1f77b4;stroke:#1f77b4;" x="749.981351" xlink:href="#mea5f332ab4" y="309.599459"/>
     <use style="fill:#1f77b4;stroke:#1f77b4;" x="751.995374" xlink:href="#mea5f332ab4" y="304.235709"/>
     <use style="fill:#1f77b4;stroke:#1f77b4;" x="754.009396" xlink:href="#mea5f332ab4" y="305.496392"/>
     <use style="fill:#1f77b4;stroke:#1f77b4;" x="756.023418" xlink:href="#mea5f332ab4" y="303.540585"/>
     <use style="fill:#1f77b4;stroke:#1f77b4;" x="758.037441" xlink:href="#mea5f332ab4" y="305.473498"/>
     <use style="fill:#1f77b4;stroke:#1f77b4;" x="760.051463" xlink:href="#mea5f332ab4" y="303.934564"/>
     <use style="fill:#1f77b4;stroke:#1f77b4;" x="762.065486" xlink:href="#mea5f332ab4" y="301.639624"/>
     <use style="fill:#1f77b4;stroke:#1f77b4;" x="764.079508" xlink:href="#mea5f332ab4" y="302.163425"/>
     <use style="fill:#1f77b4;stroke:#1f77b4;" x="766.093531" xlink:href="#mea5f332ab4" y="307.339334"/>
     <use style="fill:#1f77b4;stroke:#1f77b4;" x="768.107553" xlink:href="#mea5f332ab4" y="305.894181"/>
     <use style="fill:#1f77b4;stroke:#1f77b4;" x="770.121575" xlink:href="#mea5f332ab4" y="306.673317"/>
     <use style="fill:#1f77b4;stroke:#1f77b4;" x="772.135598" xlink:href="#mea5f332ab4" y="306.214595"/>
     <use style="fill:#1f77b4;stroke:#1f77b4;" x="774.14962" xlink:href="#mea5f332ab4" y="305.214546"/>
     <use style="fill:#1f77b4;stroke:#1f77b4;" x="776.163643" xlink:href="#mea5f332ab4" y="304.944636"/>
     <use style="fill:#1f77b4;stroke:#1f77b4;" x="778.177665" xlink:href="#mea5f332ab4" y="306.971349"/>
     <use style="fill:#1f77b4;stroke:#1f77b4;" x="780.191687" xlink:href="#mea5f332ab4" y="308.924746"/>
     <use style="fill:#1f77b4;stroke:#1f77b4;" x="782.20571" xlink:href="#mea5f332ab4" y="314.197412"/>
     <use style="fill:#1f77b4;stroke:#1f77b4;" x="784.219732" xlink:href="#mea5f332ab4" y="309.167289"/>
     <use style="fill:#1f77b4;stroke:#1f77b4;" x="786.233755" xlink:href="#mea5f332ab4" y="302.968139"/>
     <use style="fill:#1f77b4;stroke:#1f77b4;" x="788.247777" xlink:href="#mea5f332ab4" y="302.456691"/>
     <use style="fill:#1f77b4;stroke:#1f77b4;" x="790.2618" xlink:href="#mea5f332ab4" y="301.178446"/>
     <use style="fill:#1f77b4;stroke:#1f77b4;" x="792.275822" xlink:href="#mea5f332ab4" y="311.417713"/>
     <use style="fill:#1f77b4;stroke:#1f77b4;" x="794.289844" xlink:href="#mea5f332ab4" y="311.652974"/>
     <use style="fill:#1f77b4;stroke:#1f77b4;" x="796.303867" xlink:href="#mea5f332ab4" y="317.699718"/>
     <use style="fill:#1f77b4;stroke:#1f77b4;" x="798.317889" xlink:href="#mea5f332ab4" y="313.285994"/>
     <use style="fill:#1f77b4;stroke:#1f77b4;" x="800.331912" xlink:href="#mea5f332ab4" y="313.742959"/>
     <use style="fill:#1f77b4;stroke:#1f77b4;" x="802.345934" xlink:href="#mea5f332ab4" y="310.71921"/>
     <use style="fill:#1f77b4;stroke:#1f77b4;" x="804.359956" xlink:href="#mea5f332ab4" y="310.135199"/>
     <use style="fill:#1f77b4;stroke:#1f77b4;" x="806.373979" xlink:href="#mea5f332ab4" y="318.409771"/>
     <use style="fill:#1f77b4;stroke:#1f77b4;" x="808.388001" xlink:href="#mea5f332ab4" y="320.052357"/>
     <use style="fill:#1f77b4;stroke:#1f77b4;" x="810.402024" xlink:href="#mea5f332ab4" y="320.422148"/>
     <use style="fill:#1f77b4;stroke:#1f77b4;" x="812.416046" xlink:href="#mea5f332ab4" y="321.435214"/>
     <use style="fill:#1f77b4;stroke:#1f77b4;" x="814.430068" xlink:href="#mea5f332ab4" y="319.693453"/>
     <use style="fill:#1f77b4;stroke:#1f77b4;" x="816.444091" xlink:href="#mea5f332ab4" y="319.513826"/>
    </g>
   </g>
   <g id="patch_3">
    <path d="M 44.57 390.04 
L 44.57 28.32 
" style="fill:none;stroke:#000000;stroke-linecap:square;stroke-linejoin:miter;stroke-width:0.8;"/>
   </g>
   <g id="patch_4">
    <path d="M 853.2 390.04 
L 853.2 28.32 
" style="fill:none;stroke:#000000;stroke-linecap:square;stroke-linejoin:miter;stroke-width:0.8;"/>
   </g>
   <g id="patch_5">
    <path d="M 44.57 390.04 
L 853.2 390.04 
" style="fill:none;stroke:#000000;stroke-linecap:square;stroke-linejoin:miter;stroke-width:0.8;"/>
   </g>
   <g id="patch_6">
    <path d="M 44.57 28.32 
L 853.2 28.32 
" style="fill:none;stroke:#000000;stroke-linecap:square;stroke-linejoin:miter;stroke-width:0.8;"/>
   </g>
   <g id="text_17">
    <!-- Durchschnittliche Preisentwicklung von Kategorie 'Desinfektionsmittel' -->
    <g transform="translate(165.98875 22.32)scale(0.16 -0.16)">
     <defs>
      <path d="M 4.203125 54.6875 
L 13.1875 54.6875 
L 24.421875 12.015625 
L 35.59375 54.6875 
L 46.1875 54.6875 
L 57.421875 12.015625 
L 68.609375 54.6875 
L 77.59375 54.6875 
L 63.28125 0 
L 52.6875 0 
L 40.921875 44.828125 
L 29.109375 0 
L 18.5 0 
z
" id="DejaVuSans-119"/>
      <path d="M 45.40625 27.984375 
Q 45.40625 37.75 41.375 43.109375 
Q 37.359375 48.484375 30.078125 48.484375 
Q 22.859375 48.484375 18.828125 43.109375 
Q 14.796875 37.75 14.796875 27.984375 
Q 14.796875 18.265625 18.828125 12.890625 
Q 22.859375 7.515625 30.078125 7.515625 
Q 37.359375 7.515625 41.375 12.890625 
Q 45.40625 18.265625 45.40625 27.984375 
z
M 54.390625 6.78125 
Q 54.390625 -7.171875 48.1875 -13.984375 
Q 42 -20.796875 29.203125 -20.796875 
Q 24.46875 -20.796875 20.265625 -20.09375 
Q 16.0625 -19.390625 12.109375 -17.921875 
L 12.109375 -9.1875 
Q 16.0625 -11.328125 19.921875 -12.34375 
Q 23.78125 -13.375 27.78125 -13.375 
Q 36.625 -13.375 41.015625 -8.765625 
Q 45.40625 -4.15625 45.40625 5.171875 
L 45.40625 9.625 
Q 42.625 4.78125 38.28125 2.390625 
Q 33.9375 0 27.875 0 
Q 17.828125 0 11.671875 7.65625 
Q 5.515625 15.328125 5.515625 27.984375 
Q 5.515625 40.671875 11.671875 48.328125 
Q 17.828125 56 27.875 56 
Q 33.9375 56 38.28125 53.609375 
Q 42.625 51.21875 45.40625 46.390625 
L 45.40625 54.6875 
L 54.390625 54.6875 
z
" id="DejaVuSans-103"/>
      <path d="M 2.984375 54.6875 
L 12.5 54.6875 
L 29.59375 8.796875 
L 46.6875 54.6875 
L 56.203125 54.6875 
L 35.6875 0 
L 23.484375 0 
z
" id="DejaVuSans-118"/>
      <path d="M 9.8125 72.90625 
L 19.671875 72.90625 
L 19.671875 42.09375 
L 52.390625 72.90625 
L 65.09375 72.90625 
L 28.90625 38.921875 
L 67.671875 0 
L 54.6875 0 
L 19.671875 35.109375 
L 19.671875 0 
L 9.8125 0 
z
" id="DejaVuSans-75"/>
      <path d="M 17.921875 72.90625 
L 17.921875 45.796875 
L 9.625 45.796875 
L 9.625 72.90625 
z
" id="DejaVuSans-39"/>
      <path d="M 37.109375 75.984375 
L 37.109375 68.5 
L 28.515625 68.5 
Q 23.6875 68.5 21.796875 66.546875 
Q 19.921875 64.59375 19.921875 59.515625 
L 19.921875 54.6875 
L 34.71875 54.6875 
L 34.71875 47.703125 
L 19.921875 47.703125 
L 19.921875 0 
L 10.890625 0 
L 10.890625 47.703125 
L 2.296875 47.703125 
L 2.296875 54.6875 
L 10.890625 54.6875 
L 10.890625 58.5 
Q 10.890625 67.625 15.140625 71.796875 
Q 19.390625 75.984375 28.609375 75.984375 
z
" id="DejaVuSans-102"/>
     </defs>
     <use xlink:href="#DejaVuSans-68"/>
     <use x="77.001953" xlink:href="#DejaVuSans-117"/>
     <use x="140.380859" xlink:href="#DejaVuSans-114"/>
     <use x="179.244141" xlink:href="#DejaVuSans-99"/>
     <use x="234.224609" xlink:href="#DejaVuSans-104"/>
     <use x="297.603516" xlink:href="#DejaVuSans-115"/>
     <use x="349.703125" xlink:href="#DejaVuSans-99"/>
     <use x="404.683594" xlink:href="#DejaVuSans-104"/>
     <use x="468.0625" xlink:href="#DejaVuSans-110"/>
     <use x="531.441406" xlink:href="#DejaVuSans-105"/>
     <use x="559.224609" xlink:href="#DejaVuSans-116"/>
     <use x="598.433594" xlink:href="#DejaVuSans-116"/>
     <use x="637.642578" xlink:href="#DejaVuSans-108"/>
     <use x="665.425781" xlink:href="#DejaVuSans-105"/>
     <use x="693.208984" xlink:href="#DejaVuSans-99"/>
     <use x="748.189453" xlink:href="#DejaVuSans-104"/>
     <use x="811.568359" xlink:href="#DejaVuSans-101"/>
     <use x="873.091797" xlink:href="#DejaVuSans-32"/>
     <use x="904.878906" xlink:href="#DejaVuSans-80"/>
     <use x="963.431641" xlink:href="#DejaVuSans-114"/>
     <use x="1002.294922" xlink:href="#DejaVuSans-101"/>
     <use x="1063.818359" xlink:href="#DejaVuSans-105"/>
     <use x="1091.601562" xlink:href="#DejaVuSans-115"/>
     <use x="1143.701172" xlink:href="#DejaVuSans-101"/>
     <use x="1205.224609" xlink:href="#DejaVuSans-110"/>
     <use x="1268.603516" xlink:href="#DejaVuSans-116"/>
     <use x="1307.8125" xlink:href="#DejaVuSans-119"/>
     <use x="1389.599609" xlink:href="#DejaVuSans-105"/>
     <use x="1417.382812" xlink:href="#DejaVuSans-99"/>
     <use x="1472.363281" xlink:href="#DejaVuSans-107"/>
     <use x="1530.273438" xlink:href="#DejaVuSans-108"/>
     <use x="1558.056641" xlink:href="#DejaVuSans-117"/>
     <use x="1621.435547" xlink:href="#DejaVuSans-110"/>
     <use x="1684.814453" xlink:href="#DejaVuSans-103"/>
     <use x="1748.291016" xlink:href="#DejaVuSans-32"/>
     <use x="1780.078125" xlink:href="#DejaVuSans-118"/>
     <use x="1839.257812" xlink:href="#DejaVuSans-111"/>
     <use x="1900.439453" xlink:href="#DejaVuSans-110"/>
     <use x="1963.818359" xlink:href="#DejaVuSans-32"/>
     <use x="1995.605469" xlink:href="#DejaVuSans-75"/>
     <use x="2059.431641" xlink:href="#DejaVuSans-97"/>
     <use x="2120.710938" xlink:href="#DejaVuSans-116"/>
     <use x="2159.919922" xlink:href="#DejaVuSans-101"/>
     <use x="2221.443359" xlink:href="#DejaVuSans-103"/>
     <use x="2284.919922" xlink:href="#DejaVuSans-111"/>
     <use x="2346.101562" xlink:href="#DejaVuSans-114"/>
     <use x="2387.214844" xlink:href="#DejaVuSans-105"/>
     <use x="2414.998047" xlink:href="#DejaVuSans-101"/>
     <use x="2476.521484" xlink:href="#DejaVuSans-32"/>
     <use x="2508.308594" xlink:href="#DejaVuSans-39"/>
     <use x="2535.798828" xlink:href="#DejaVuSans-68"/>
     <use x="2612.800781" xlink:href="#DejaVuSans-101"/>
     <use x="2674.324219" xlink:href="#DejaVuSans-115"/>
     <use x="2726.423828" xlink:href="#DejaVuSans-105"/>
     <use x="2754.207031" xlink:href="#DejaVuSans-110"/>
     <use x="2817.585938" xlink:href="#DejaVuSans-102"/>
     <use x="2852.791016" xlink:href="#DejaVuSans-101"/>
     <use x="2914.314453" xlink:href="#DejaVuSans-107"/>
     <use x="2972.224609" xlink:href="#DejaVuSans-116"/>
     <use x="3011.433594" xlink:href="#DejaVuSans-105"/>
     <use x="3039.216797" xlink:href="#DejaVuSans-111"/>
     <use x="3100.398438" xlink:href="#DejaVuSans-110"/>
     <use x="3163.777344" xlink:href="#DejaVuSans-115"/>
     <use x="3215.876953" xlink:href="#DejaVuSans-109"/>
     <use x="3313.289062" xlink:href="#DejaVuSans-105"/>
     <use x="3341.072266" xlink:href="#DejaVuSans-116"/>
     <use x="3380.28125" xlink:href="#DejaVuSans-116"/>
     <use x="3419.490234" xlink:href="#DejaVuSans-101"/>
     <use x="3481.013672" xlink:href="#DejaVuSans-108"/>
     <use x="3508.796875" xlink:href="#DejaVuSans-39"/>
    </g>
   </g>
  </g>
 </g>
 <defs>
  <clipPath id="p0008b2585e">
   <rect height="361.72" width="808.63" x="44.57" y="28.32"/>
  </clipPath>
 </defs>
</svg>
