<?xml version="1.0" encoding="utf-8" standalone="no"?>
<!DOCTYPE svg PUBLIC "-//W3C//DTD SVG 1.1//EN"
  "http://www.w3.org/Graphics/SVG/1.1/DTD/svg11.dtd">
<!-- Created with matplotlib (https://matplotlib.org/) -->
<svg height="432pt" version="1.1" viewBox="0 0 864 432" width="864pt" xmlns="http://www.w3.org/2000/svg" xmlns:xlink="http://www.w3.org/1999/xlink">
 <metadata>
  <rdf:RDF xmlns:cc="http://creativecommons.org/ns#" xmlns:dc="http://purl.org/dc/elements/1.1/" xmlns:rdf="http://www.w3.org/1999/02/22-rdf-syntax-ns#">
   <cc:Work>
    <dc:type rdf:resource="http://purl.org/dc/dcmitype/StillImage"/>
    <dc:date>2021-02-17T13:56:17.579587</dc:date>
    <dc:format>image/svg+xml</dc:format>
    <dc:creator>
     <cc:Agent>
      <dc:title>Matplotlib v3.3.2, https://matplotlib.org/</dc:title>
     </cc:Agent>
    </dc:creator>
   </cc:Work>
  </rdf:RDF>
 </metadata>
 <defs>
  <style type="text/css">*{stroke-linecap:butt;stroke-linejoin:round;}</style>
 </defs>
 <g id="figure_1">
  <g id="patch_1">
   <path d="M 0 432 
L 864 432 
L 864 0 
L 0 0 
z
" style="fill:#ffffff;"/>
  </g>
  <g id="axes_1">
   <g id="patch_2">
    <path d="M 57.35 390.04 
L 853.2 390.04 
L 853.2 28.32 
L 57.35 28.32 
z
" style="fill:#ffffff;"/>
   </g>
   <g id="matplotlib.axis_1">
    <g id="xtick_1">
     <g id="line2d_1">
      <path clip-path="url(#pbb19b40d0a)" d="M 118.665927 390.04 
L 118.665927 28.32 
" style="fill:none;stroke:#b0b0b0;stroke-linecap:square;stroke-width:0.8;"/>
     </g>
     <g id="line2d_2">
      <defs>
       <path d="M 0 0 
L 0 3.5 
" id="m0f450484b4" style="stroke:#000000;stroke-width:0.8;"/>
      </defs>
      <g>
       <use style="stroke:#000000;stroke-width:0.8;" x="118.665927" xlink:href="#m0f450484b4" y="390.04"/>
      </g>
     </g>
     <g id="text_1">
      <!-- 2020-06 -->
      <g transform="translate(97.77452 404.638438)scale(0.1 -0.1)">
       <defs>
        <path d="M 19.1875 8.296875 
L 53.609375 8.296875 
L 53.609375 0 
L 7.328125 0 
L 7.328125 8.296875 
Q 12.9375 14.109375 22.625 23.890625 
Q 32.328125 33.6875 34.8125 36.53125 
Q 39.546875 41.84375 41.421875 45.53125 
Q 43.3125 49.21875 43.3125 52.78125 
Q 43.3125 58.59375 39.234375 62.25 
Q 35.15625 65.921875 28.609375 65.921875 
Q 23.96875 65.921875 18.8125 64.3125 
Q 13.671875 62.703125 7.8125 59.421875 
L 7.8125 69.390625 
Q 13.765625 71.78125 18.9375 73 
Q 24.125 74.21875 28.421875 74.21875 
Q 39.75 74.21875 46.484375 68.546875 
Q 53.21875 62.890625 53.21875 53.421875 
Q 53.21875 48.921875 51.53125 44.890625 
Q 49.859375 40.875 45.40625 35.40625 
Q 44.1875 33.984375 37.640625 27.21875 
Q 31.109375 20.453125 19.1875 8.296875 
z
" id="DejaVuSans-50"/>
        <path d="M 31.78125 66.40625 
Q 24.171875 66.40625 20.328125 58.90625 
Q 16.5 51.421875 16.5 36.375 
Q 16.5 21.390625 20.328125 13.890625 
Q 24.171875 6.390625 31.78125 6.390625 
Q 39.453125 6.390625 43.28125 13.890625 
Q 47.125 21.390625 47.125 36.375 
Q 47.125 51.421875 43.28125 58.90625 
Q 39.453125 66.40625 31.78125 66.40625 
z
M 31.78125 74.21875 
Q 44.046875 74.21875 50.515625 64.515625 
Q 56.984375 54.828125 56.984375 36.375 
Q 56.984375 17.96875 50.515625 8.265625 
Q 44.046875 -1.421875 31.78125 -1.421875 
Q 19.53125 -1.421875 13.0625 8.265625 
Q 6.59375 17.96875 6.59375 36.375 
Q 6.59375 54.828125 13.0625 64.515625 
Q 19.53125 74.21875 31.78125 74.21875 
z
" id="DejaVuSans-48"/>
        <path d="M 4.890625 31.390625 
L 31.203125 31.390625 
L 31.203125 23.390625 
L 4.890625 23.390625 
z
" id="DejaVuSans-45"/>
        <path d="M 33.015625 40.375 
Q 26.375 40.375 22.484375 35.828125 
Q 18.609375 31.296875 18.609375 23.390625 
Q 18.609375 15.53125 22.484375 10.953125 
Q 26.375 6.390625 33.015625 6.390625 
Q 39.65625 6.390625 43.53125 10.953125 
Q 47.40625 15.53125 47.40625 23.390625 
Q 47.40625 31.296875 43.53125 35.828125 
Q 39.65625 40.375 33.015625 40.375 
z
M 52.59375 71.296875 
L 52.59375 62.3125 
Q 48.875 64.0625 45.09375 64.984375 
Q 41.3125 65.921875 37.59375 65.921875 
Q 27.828125 65.921875 22.671875 59.328125 
Q 17.53125 52.734375 16.796875 39.40625 
Q 19.671875 43.65625 24.015625 45.921875 
Q 28.375 48.1875 33.59375 48.1875 
Q 44.578125 48.1875 50.953125 41.515625 
Q 57.328125 34.859375 57.328125 23.390625 
Q 57.328125 12.15625 50.6875 5.359375 
Q 44.046875 -1.421875 33.015625 -1.421875 
Q 20.359375 -1.421875 13.671875 8.265625 
Q 6.984375 17.96875 6.984375 36.375 
Q 6.984375 53.65625 15.1875 63.9375 
Q 23.390625 74.21875 37.203125 74.21875 
Q 40.921875 74.21875 44.703125 73.484375 
Q 48.484375 72.75 52.59375 71.296875 
z
" id="DejaVuSans-54"/>
       </defs>
       <use xlink:href="#DejaVuSans-50"/>
       <use x="63.623047" xlink:href="#DejaVuSans-48"/>
       <use x="127.246094" xlink:href="#DejaVuSans-50"/>
       <use x="190.869141" xlink:href="#DejaVuSans-48"/>
       <use x="254.492188" xlink:href="#DejaVuSans-45"/>
       <use x="290.576172" xlink:href="#DejaVuSans-48"/>
       <use x="354.199219" xlink:href="#DejaVuSans-54"/>
      </g>
     </g>
    </g>
    <g id="xtick_2">
     <g id="line2d_3">
      <path clip-path="url(#pbb19b40d0a)" d="M 202.469015 390.04 
L 202.469015 28.32 
" style="fill:none;stroke:#b0b0b0;stroke-linecap:square;stroke-width:0.8;"/>
     </g>
     <g id="line2d_4">
      <g>
       <use style="stroke:#000000;stroke-width:0.8;" x="202.469015" xlink:href="#m0f450484b4" y="390.04"/>
      </g>
     </g>
     <g id="text_2">
      <!-- 2020-07 -->
      <g transform="translate(181.577609 404.638438)scale(0.1 -0.1)">
       <defs>
        <path d="M 8.203125 72.90625 
L 55.078125 72.90625 
L 55.078125 68.703125 
L 28.609375 0 
L 18.3125 0 
L 43.21875 64.59375 
L 8.203125 64.59375 
z
" id="DejaVuSans-55"/>
       </defs>
       <use xlink:href="#DejaVuSans-50"/>
       <use x="63.623047" xlink:href="#DejaVuSans-48"/>
       <use x="127.246094" xlink:href="#DejaVuSans-50"/>
       <use x="190.869141" xlink:href="#DejaVuSans-48"/>
       <use x="254.492188" xlink:href="#DejaVuSans-45"/>
       <use x="290.576172" xlink:href="#DejaVuSans-48"/>
       <use x="354.199219" xlink:href="#DejaVuSans-55"/>
      </g>
     </g>
    </g>
    <g id="xtick_3">
     <g id="line2d_5">
      <path clip-path="url(#pbb19b40d0a)" d="M 289.065541 390.04 
L 289.065541 28.32 
" style="fill:none;stroke:#b0b0b0;stroke-linecap:square;stroke-width:0.8;"/>
     </g>
     <g id="line2d_6">
      <g>
       <use style="stroke:#000000;stroke-width:0.8;" x="289.065541" xlink:href="#m0f450484b4" y="390.04"/>
      </g>
     </g>
     <g id="text_3">
      <!-- 2020-08 -->
      <g transform="translate(268.174134 404.638438)scale(0.1 -0.1)">
       <defs>
        <path d="M 31.78125 34.625 
Q 24.75 34.625 20.71875 30.859375 
Q 16.703125 27.09375 16.703125 20.515625 
Q 16.703125 13.921875 20.71875 10.15625 
Q 24.75 6.390625 31.78125 6.390625 
Q 38.8125 6.390625 42.859375 10.171875 
Q 46.921875 13.96875 46.921875 20.515625 
Q 46.921875 27.09375 42.890625 30.859375 
Q 38.875 34.625 31.78125 34.625 
z
M 21.921875 38.8125 
Q 15.578125 40.375 12.03125 44.71875 
Q 8.5 49.078125 8.5 55.328125 
Q 8.5 64.0625 14.71875 69.140625 
Q 20.953125 74.21875 31.78125 74.21875 
Q 42.671875 74.21875 48.875 69.140625 
Q 55.078125 64.0625 55.078125 55.328125 
Q 55.078125 49.078125 51.53125 44.71875 
Q 48 40.375 41.703125 38.8125 
Q 48.828125 37.15625 52.796875 32.3125 
Q 56.78125 27.484375 56.78125 20.515625 
Q 56.78125 9.90625 50.3125 4.234375 
Q 43.84375 -1.421875 31.78125 -1.421875 
Q 19.734375 -1.421875 13.25 4.234375 
Q 6.78125 9.90625 6.78125 20.515625 
Q 6.78125 27.484375 10.78125 32.3125 
Q 14.796875 37.15625 21.921875 38.8125 
z
M 18.3125 54.390625 
Q 18.3125 48.734375 21.84375 45.5625 
Q 25.390625 42.390625 31.78125 42.390625 
Q 38.140625 42.390625 41.71875 45.5625 
Q 45.3125 48.734375 45.3125 54.390625 
Q 45.3125 60.0625 41.71875 63.234375 
Q 38.140625 66.40625 31.78125 66.40625 
Q 25.390625 66.40625 21.84375 63.234375 
Q 18.3125 60.0625 18.3125 54.390625 
z
" id="DejaVuSans-56"/>
       </defs>
       <use xlink:href="#DejaVuSans-50"/>
       <use x="63.623047" xlink:href="#DejaVuSans-48"/>
       <use x="127.246094" xlink:href="#DejaVuSans-50"/>
       <use x="190.869141" xlink:href="#DejaVuSans-48"/>
       <use x="254.492188" xlink:href="#DejaVuSans-45"/>
       <use x="290.576172" xlink:href="#DejaVuSans-48"/>
       <use x="354.199219" xlink:href="#DejaVuSans-56"/>
      </g>
     </g>
    </g>
    <g id="xtick_4">
     <g id="line2d_7">
      <path clip-path="url(#pbb19b40d0a)" d="M 375.662066 390.04 
L 375.662066 28.32 
" style="fill:none;stroke:#b0b0b0;stroke-linecap:square;stroke-width:0.8;"/>
     </g>
     <g id="line2d_8">
      <g>
       <use style="stroke:#000000;stroke-width:0.8;" x="375.662066" xlink:href="#m0f450484b4" y="390.04"/>
      </g>
     </g>
     <g id="text_4">
      <!-- 2020-09 -->
      <g transform="translate(354.770659 404.638438)scale(0.1 -0.1)">
       <defs>
        <path d="M 10.984375 1.515625 
L 10.984375 10.5 
Q 14.703125 8.734375 18.5 7.8125 
Q 22.3125 6.890625 25.984375 6.890625 
Q 35.75 6.890625 40.890625 13.453125 
Q 46.046875 20.015625 46.78125 33.40625 
Q 43.953125 29.203125 39.59375 26.953125 
Q 35.25 24.703125 29.984375 24.703125 
Q 19.046875 24.703125 12.671875 31.3125 
Q 6.296875 37.9375 6.296875 49.421875 
Q 6.296875 60.640625 12.9375 67.421875 
Q 19.578125 74.21875 30.609375 74.21875 
Q 43.265625 74.21875 49.921875 64.515625 
Q 56.59375 54.828125 56.59375 36.375 
Q 56.59375 19.140625 48.40625 8.859375 
Q 40.234375 -1.421875 26.421875 -1.421875 
Q 22.703125 -1.421875 18.890625 -0.6875 
Q 15.09375 0.046875 10.984375 1.515625 
z
M 30.609375 32.421875 
Q 37.25 32.421875 41.125 36.953125 
Q 45.015625 41.5 45.015625 49.421875 
Q 45.015625 57.28125 41.125 61.84375 
Q 37.25 66.40625 30.609375 66.40625 
Q 23.96875 66.40625 20.09375 61.84375 
Q 16.21875 57.28125 16.21875 49.421875 
Q 16.21875 41.5 20.09375 36.953125 
Q 23.96875 32.421875 30.609375 32.421875 
z
" id="DejaVuSans-57"/>
       </defs>
       <use xlink:href="#DejaVuSans-50"/>
       <use x="63.623047" xlink:href="#DejaVuSans-48"/>
       <use x="127.246094" xlink:href="#DejaVuSans-50"/>
       <use x="190.869141" xlink:href="#DejaVuSans-48"/>
       <use x="254.492188" xlink:href="#DejaVuSans-45"/>
       <use x="290.576172" xlink:href="#DejaVuSans-48"/>
       <use x="354.199219" xlink:href="#DejaVuSans-57"/>
      </g>
     </g>
    </g>
    <g id="xtick_5">
     <g id="line2d_9">
      <path clip-path="url(#pbb19b40d0a)" d="M 459.465154 390.04 
L 459.465154 28.32 
" style="fill:none;stroke:#b0b0b0;stroke-linecap:square;stroke-width:0.8;"/>
     </g>
     <g id="line2d_10">
      <g>
       <use style="stroke:#000000;stroke-width:0.8;" x="459.465154" xlink:href="#m0f450484b4" y="390.04"/>
      </g>
     </g>
     <g id="text_5">
      <!-- 2020-10 -->
      <g transform="translate(438.573748 404.638438)scale(0.1 -0.1)">
       <defs>
        <path d="M 12.40625 8.296875 
L 28.515625 8.296875 
L 28.515625 63.921875 
L 10.984375 60.40625 
L 10.984375 69.390625 
L 28.421875 72.90625 
L 38.28125 72.90625 
L 38.28125 8.296875 
L 54.390625 8.296875 
L 54.390625 0 
L 12.40625 0 
z
" id="DejaVuSans-49"/>
       </defs>
       <use xlink:href="#DejaVuSans-50"/>
       <use x="63.623047" xlink:href="#DejaVuSans-48"/>
       <use x="127.246094" xlink:href="#DejaVuSans-50"/>
       <use x="190.869141" xlink:href="#DejaVuSans-48"/>
       <use x="254.492188" xlink:href="#DejaVuSans-45"/>
       <use x="290.576172" xlink:href="#DejaVuSans-49"/>
       <use x="354.199219" xlink:href="#DejaVuSans-48"/>
      </g>
     </g>
    </g>
    <g id="xtick_6">
     <g id="line2d_11">
      <path clip-path="url(#pbb19b40d0a)" d="M 546.06168 390.04 
L 546.06168 28.32 
" style="fill:none;stroke:#b0b0b0;stroke-linecap:square;stroke-width:0.8;"/>
     </g>
     <g id="line2d_12">
      <g>
       <use style="stroke:#000000;stroke-width:0.8;" x="546.06168" xlink:href="#m0f450484b4" y="390.04"/>
      </g>
     </g>
     <g id="text_6">
      <!-- 2020-11 -->
      <g transform="translate(525.170273 404.638438)scale(0.1 -0.1)">
       <use xlink:href="#DejaVuSans-50"/>
       <use x="63.623047" xlink:href="#DejaVuSans-48"/>
       <use x="127.246094" xlink:href="#DejaVuSans-50"/>
       <use x="190.869141" xlink:href="#DejaVuSans-48"/>
       <use x="254.492188" xlink:href="#DejaVuSans-45"/>
       <use x="290.576172" xlink:href="#DejaVuSans-49"/>
       <use x="354.199219" xlink:href="#DejaVuSans-49"/>
      </g>
     </g>
    </g>
    <g id="xtick_7">
     <g id="line2d_13">
      <path clip-path="url(#pbb19b40d0a)" d="M 629.864768 390.04 
L 629.864768 28.32 
" style="fill:none;stroke:#b0b0b0;stroke-linecap:square;stroke-width:0.8;"/>
     </g>
     <g id="line2d_14">
      <g>
       <use style="stroke:#000000;stroke-width:0.8;" x="629.864768" xlink:href="#m0f450484b4" y="390.04"/>
      </g>
     </g>
     <g id="text_7">
      <!-- 2020-12 -->
      <g transform="translate(608.973362 404.638438)scale(0.1 -0.1)">
       <use xlink:href="#DejaVuSans-50"/>
       <use x="63.623047" xlink:href="#DejaVuSans-48"/>
       <use x="127.246094" xlink:href="#DejaVuSans-50"/>
       <use x="190.869141" xlink:href="#DejaVuSans-48"/>
       <use x="254.492188" xlink:href="#DejaVuSans-45"/>
       <use x="290.576172" xlink:href="#DejaVuSans-49"/>
       <use x="354.199219" xlink:href="#DejaVuSans-50"/>
      </g>
     </g>
    </g>
    <g id="xtick_8">
     <g id="line2d_15">
      <path clip-path="url(#pbb19b40d0a)" d="M 716.461293 390.04 
L 716.461293 28.32 
" style="fill:none;stroke:#b0b0b0;stroke-linecap:square;stroke-width:0.8;"/>
     </g>
     <g id="line2d_16">
      <g>
       <use style="stroke:#000000;stroke-width:0.8;" x="716.461293" xlink:href="#m0f450484b4" y="390.04"/>
      </g>
     </g>
     <g id="text_8">
      <!-- 2021-01 -->
      <g transform="translate(695.569887 404.638438)scale(0.1 -0.1)">
       <use xlink:href="#DejaVuSans-50"/>
       <use x="63.623047" xlink:href="#DejaVuSans-48"/>
       <use x="127.246094" xlink:href="#DejaVuSans-50"/>
       <use x="190.869141" xlink:href="#DejaVuSans-49"/>
       <use x="254.492188" xlink:href="#DejaVuSans-45"/>
       <use x="290.576172" xlink:href="#DejaVuSans-48"/>
       <use x="354.199219" xlink:href="#DejaVuSans-49"/>
      </g>
     </g>
    </g>
    <g id="xtick_9">
     <g id="line2d_17">
      <path clip-path="url(#pbb19b40d0a)" d="M 803.057819 390.04 
L 803.057819 28.32 
" style="fill:none;stroke:#b0b0b0;stroke-linecap:square;stroke-width:0.8;"/>
     </g>
     <g id="line2d_18">
      <g>
       <use style="stroke:#000000;stroke-width:0.8;" x="803.057819" xlink:href="#m0f450484b4" y="390.04"/>
      </g>
     </g>
     <g id="text_9">
      <!-- 2021-02 -->
      <g transform="translate(782.166412 404.638438)scale(0.1 -0.1)">
       <use xlink:href="#DejaVuSans-50"/>
       <use x="63.623047" xlink:href="#DejaVuSans-48"/>
       <use x="127.246094" xlink:href="#DejaVuSans-50"/>
       <use x="190.869141" xlink:href="#DejaVuSans-49"/>
       <use x="254.492188" xlink:href="#DejaVuSans-45"/>
       <use x="290.576172" xlink:href="#DejaVuSans-48"/>
       <use x="354.199219" xlink:href="#DejaVuSans-50"/>
      </g>
     </g>
    </g>
    <g id="text_10">
     <!-- Datum -->
     <g transform="translate(438.361719 418.316562)scale(0.1 -0.1)">
      <defs>
       <path d="M 19.671875 64.796875 
L 19.671875 8.109375 
L 31.59375 8.109375 
Q 46.6875 8.109375 53.6875 14.9375 
Q 60.6875 21.78125 60.6875 36.53125 
Q 60.6875 51.171875 53.6875 57.984375 
Q 46.6875 64.796875 31.59375 64.796875 
z
M 9.8125 72.90625 
L 30.078125 72.90625 
Q 51.265625 72.90625 61.171875 64.09375 
Q 71.09375 55.28125 71.09375 36.53125 
Q 71.09375 17.671875 61.125 8.828125 
Q 51.171875 0 30.078125 0 
L 9.8125 0 
z
" id="DejaVuSans-68"/>
       <path d="M 34.28125 27.484375 
Q 23.390625 27.484375 19.1875 25 
Q 14.984375 22.515625 14.984375 16.5 
Q 14.984375 11.71875 18.140625 8.90625 
Q 21.296875 6.109375 26.703125 6.109375 
Q 34.1875 6.109375 38.703125 11.40625 
Q 43.21875 16.703125 43.21875 25.484375 
L 43.21875 27.484375 
z
M 52.203125 31.203125 
L 52.203125 0 
L 43.21875 0 
L 43.21875 8.296875 
Q 40.140625 3.328125 35.546875 0.953125 
Q 30.953125 -1.421875 24.3125 -1.421875 
Q 15.921875 -1.421875 10.953125 3.296875 
Q 6 8.015625 6 15.921875 
Q 6 25.140625 12.171875 29.828125 
Q 18.359375 34.515625 30.609375 34.515625 
L 43.21875 34.515625 
L 43.21875 35.40625 
Q 43.21875 41.609375 39.140625 45 
Q 35.0625 48.390625 27.6875 48.390625 
Q 23 48.390625 18.546875 47.265625 
Q 14.109375 46.140625 10.015625 43.890625 
L 10.015625 52.203125 
Q 14.9375 54.109375 19.578125 55.046875 
Q 24.21875 56 28.609375 56 
Q 40.484375 56 46.34375 49.84375 
Q 52.203125 43.703125 52.203125 31.203125 
z
" id="DejaVuSans-97"/>
       <path d="M 18.3125 70.21875 
L 18.3125 54.6875 
L 36.8125 54.6875 
L 36.8125 47.703125 
L 18.3125 47.703125 
L 18.3125 18.015625 
Q 18.3125 11.328125 20.140625 9.421875 
Q 21.96875 7.515625 27.59375 7.515625 
L 36.8125 7.515625 
L 36.8125 0 
L 27.59375 0 
Q 17.1875 0 13.234375 3.875 
Q 9.28125 7.765625 9.28125 18.015625 
L 9.28125 47.703125 
L 2.6875 47.703125 
L 2.6875 54.6875 
L 9.28125 54.6875 
L 9.28125 70.21875 
z
" id="DejaVuSans-116"/>
       <path d="M 8.5 21.578125 
L 8.5 54.6875 
L 17.484375 54.6875 
L 17.484375 21.921875 
Q 17.484375 14.15625 20.5 10.265625 
Q 23.53125 6.390625 29.59375 6.390625 
Q 36.859375 6.390625 41.078125 11.03125 
Q 45.3125 15.671875 45.3125 23.6875 
L 45.3125 54.6875 
L 54.296875 54.6875 
L 54.296875 0 
L 45.3125 0 
L 45.3125 8.40625 
Q 42.046875 3.421875 37.71875 1 
Q 33.40625 -1.421875 27.6875 -1.421875 
Q 18.265625 -1.421875 13.375 4.4375 
Q 8.5 10.296875 8.5 21.578125 
z
M 31.109375 56 
z
" id="DejaVuSans-117"/>
       <path d="M 52 44.1875 
Q 55.375 50.25 60.0625 53.125 
Q 64.75 56 71.09375 56 
Q 79.640625 56 84.28125 50.015625 
Q 88.921875 44.046875 88.921875 33.015625 
L 88.921875 0 
L 79.890625 0 
L 79.890625 32.71875 
Q 79.890625 40.578125 77.09375 44.375 
Q 74.3125 48.1875 68.609375 48.1875 
Q 61.625 48.1875 57.5625 43.546875 
Q 53.515625 38.921875 53.515625 30.90625 
L 53.515625 0 
L 44.484375 0 
L 44.484375 32.71875 
Q 44.484375 40.625 41.703125 44.40625 
Q 38.921875 48.1875 33.109375 48.1875 
Q 26.21875 48.1875 22.15625 43.53125 
Q 18.109375 38.875 18.109375 30.90625 
L 18.109375 0 
L 9.078125 0 
L 9.078125 54.6875 
L 18.109375 54.6875 
L 18.109375 46.1875 
Q 21.1875 51.21875 25.484375 53.609375 
Q 29.78125 56 35.6875 56 
Q 41.65625 56 45.828125 52.96875 
Q 50 49.953125 52 44.1875 
z
" id="DejaVuSans-109"/>
      </defs>
      <use xlink:href="#DejaVuSans-68"/>
      <use x="77.001953" xlink:href="#DejaVuSans-97"/>
      <use x="138.28125" xlink:href="#DejaVuSans-116"/>
      <use x="177.490234" xlink:href="#DejaVuSans-117"/>
      <use x="240.869141" xlink:href="#DejaVuSans-109"/>
     </g>
    </g>
   </g>
   <g id="matplotlib.axis_2">
    <g id="ytick_1">
     <g id="line2d_19">
      <path clip-path="url(#pbb19b40d0a)" d="M 57.35 384.454904 
L 853.2 384.454904 
" style="fill:none;stroke:#b0b0b0;stroke-linecap:square;stroke-width:0.8;"/>
     </g>
     <g id="line2d_20">
      <defs>
       <path d="M 0 0 
L -3.5 0 
" id="m130d73e32d" style="stroke:#000000;stroke-width:0.8;"/>
      </defs>
      <g>
       <use style="stroke:#000000;stroke-width:0.8;" x="57.35" xlink:href="#m130d73e32d" y="384.454904"/>
      </g>
     </g>
     <g id="text_11">
      <!-- 1020 -->
      <g transform="translate(24.9 388.254123)scale(0.1 -0.1)">
       <use xlink:href="#DejaVuSans-49"/>
       <use x="63.623047" xlink:href="#DejaVuSans-48"/>
       <use x="127.246094" xlink:href="#DejaVuSans-50"/>
       <use x="190.869141" xlink:href="#DejaVuSans-48"/>
      </g>
     </g>
    </g>
    <g id="ytick_2">
     <g id="line2d_21">
      <path clip-path="url(#pbb19b40d0a)" d="M 57.35 344.108783 
L 853.2 344.108783 
" style="fill:none;stroke:#b0b0b0;stroke-linecap:square;stroke-width:0.8;"/>
     </g>
     <g id="line2d_22">
      <g>
       <use style="stroke:#000000;stroke-width:0.8;" x="57.35" xlink:href="#m130d73e32d" y="344.108783"/>
      </g>
     </g>
     <g id="text_12">
      <!-- 1040 -->
      <g transform="translate(24.9 347.908002)scale(0.1 -0.1)">
       <defs>
        <path d="M 37.796875 64.3125 
L 12.890625 25.390625 
L 37.796875 25.390625 
z
M 35.203125 72.90625 
L 47.609375 72.90625 
L 47.609375 25.390625 
L 58.015625 25.390625 
L 58.015625 17.1875 
L 47.609375 17.1875 
L 47.609375 0 
L 37.796875 0 
L 37.796875 17.1875 
L 4.890625 17.1875 
L 4.890625 26.703125 
z
" id="DejaVuSans-52"/>
       </defs>
       <use xlink:href="#DejaVuSans-49"/>
       <use x="63.623047" xlink:href="#DejaVuSans-48"/>
       <use x="127.246094" xlink:href="#DejaVuSans-52"/>
       <use x="190.869141" xlink:href="#DejaVuSans-48"/>
      </g>
     </g>
    </g>
    <g id="ytick_3">
     <g id="line2d_23">
      <path clip-path="url(#pbb19b40d0a)" d="M 57.35 303.762662 
L 853.2 303.762662 
" style="fill:none;stroke:#b0b0b0;stroke-linecap:square;stroke-width:0.8;"/>
     </g>
     <g id="line2d_24">
      <g>
       <use style="stroke:#000000;stroke-width:0.8;" x="57.35" xlink:href="#m130d73e32d" y="303.762662"/>
      </g>
     </g>
     <g id="text_13">
      <!-- 1060 -->
      <g transform="translate(24.9 307.56188)scale(0.1 -0.1)">
       <use xlink:href="#DejaVuSans-49"/>
       <use x="63.623047" xlink:href="#DejaVuSans-48"/>
       <use x="127.246094" xlink:href="#DejaVuSans-54"/>
       <use x="190.869141" xlink:href="#DejaVuSans-48"/>
      </g>
     </g>
    </g>
    <g id="ytick_4">
     <g id="line2d_25">
      <path clip-path="url(#pbb19b40d0a)" d="M 57.35 263.41654 
L 853.2 263.41654 
" style="fill:none;stroke:#b0b0b0;stroke-linecap:square;stroke-width:0.8;"/>
     </g>
     <g id="line2d_26">
      <g>
       <use style="stroke:#000000;stroke-width:0.8;" x="57.35" xlink:href="#m130d73e32d" y="263.41654"/>
      </g>
     </g>
     <g id="text_14">
      <!-- 1080 -->
      <g transform="translate(24.9 267.215759)scale(0.1 -0.1)">
       <use xlink:href="#DejaVuSans-49"/>
       <use x="63.623047" xlink:href="#DejaVuSans-48"/>
       <use x="127.246094" xlink:href="#DejaVuSans-56"/>
       <use x="190.869141" xlink:href="#DejaVuSans-48"/>
      </g>
     </g>
    </g>
    <g id="ytick_5">
     <g id="line2d_27">
      <path clip-path="url(#pbb19b40d0a)" d="M 57.35 223.070419 
L 853.2 223.070419 
" style="fill:none;stroke:#b0b0b0;stroke-linecap:square;stroke-width:0.8;"/>
     </g>
     <g id="line2d_28">
      <g>
       <use style="stroke:#000000;stroke-width:0.8;" x="57.35" xlink:href="#m130d73e32d" y="223.070419"/>
      </g>
     </g>
     <g id="text_15">
      <!-- 1100 -->
      <g transform="translate(24.9 226.869638)scale(0.1 -0.1)">
       <use xlink:href="#DejaVuSans-49"/>
       <use x="63.623047" xlink:href="#DejaVuSans-49"/>
       <use x="127.246094" xlink:href="#DejaVuSans-48"/>
       <use x="190.869141" xlink:href="#DejaVuSans-48"/>
      </g>
     </g>
    </g>
    <g id="ytick_6">
     <g id="line2d_29">
      <path clip-path="url(#pbb19b40d0a)" d="M 57.35 182.724297 
L 853.2 182.724297 
" style="fill:none;stroke:#b0b0b0;stroke-linecap:square;stroke-width:0.8;"/>
     </g>
     <g id="line2d_30">
      <g>
       <use style="stroke:#000000;stroke-width:0.8;" x="57.35" xlink:href="#m130d73e32d" y="182.724297"/>
      </g>
     </g>
     <g id="text_16">
      <!-- 1120 -->
      <g transform="translate(24.9 186.523516)scale(0.1 -0.1)">
       <use xlink:href="#DejaVuSans-49"/>
       <use x="63.623047" xlink:href="#DejaVuSans-49"/>
       <use x="127.246094" xlink:href="#DejaVuSans-50"/>
       <use x="190.869141" xlink:href="#DejaVuSans-48"/>
      </g>
     </g>
    </g>
    <g id="ytick_7">
     <g id="line2d_31">
      <path clip-path="url(#pbb19b40d0a)" d="M 57.35 142.378176 
L 853.2 142.378176 
" style="fill:none;stroke:#b0b0b0;stroke-linecap:square;stroke-width:0.8;"/>
     </g>
     <g id="line2d_32">
      <g>
       <use style="stroke:#000000;stroke-width:0.8;" x="57.35" xlink:href="#m130d73e32d" y="142.378176"/>
      </g>
     </g>
     <g id="text_17">
      <!-- 1140 -->
      <g transform="translate(24.9 146.177395)scale(0.1 -0.1)">
       <use xlink:href="#DejaVuSans-49"/>
       <use x="63.623047" xlink:href="#DejaVuSans-49"/>
       <use x="127.246094" xlink:href="#DejaVuSans-52"/>
       <use x="190.869141" xlink:href="#DejaVuSans-48"/>
      </g>
     </g>
    </g>
    <g id="ytick_8">
     <g id="line2d_33">
      <path clip-path="url(#pbb19b40d0a)" d="M 57.35 102.032055 
L 853.2 102.032055 
" style="fill:none;stroke:#b0b0b0;stroke-linecap:square;stroke-width:0.8;"/>
     </g>
     <g id="line2d_34">
      <g>
       <use style="stroke:#000000;stroke-width:0.8;" x="57.35" xlink:href="#m130d73e32d" y="102.032055"/>
      </g>
     </g>
     <g id="text_18">
      <!-- 1160 -->
      <g transform="translate(24.9 105.831273)scale(0.1 -0.1)">
       <use xlink:href="#DejaVuSans-49"/>
       <use x="63.623047" xlink:href="#DejaVuSans-49"/>
       <use x="127.246094" xlink:href="#DejaVuSans-54"/>
       <use x="190.869141" xlink:href="#DejaVuSans-48"/>
      </g>
     </g>
    </g>
    <g id="ytick_9">
     <g id="line2d_35">
      <path clip-path="url(#pbb19b40d0a)" d="M 57.35 61.685933 
L 853.2 61.685933 
" style="fill:none;stroke:#b0b0b0;stroke-linecap:square;stroke-width:0.8;"/>
     </g>
     <g id="line2d_36">
      <g>
       <use style="stroke:#000000;stroke-width:0.8;" x="57.35" xlink:href="#m130d73e32d" y="61.685933"/>
      </g>
     </g>
     <g id="text_19">
      <!-- 1180 -->
      <g transform="translate(24.9 65.485152)scale(0.1 -0.1)">
       <use xlink:href="#DejaVuSans-49"/>
       <use x="63.623047" xlink:href="#DejaVuSans-49"/>
       <use x="127.246094" xlink:href="#DejaVuSans-56"/>
       <use x="190.869141" xlink:href="#DejaVuSans-48"/>
      </g>
     </g>
    </g>
    <g id="text_20">
     <!-- durchschnittliche Produktpreise (€) -->
     <g transform="translate(18.820312 296.810469)rotate(-90)scale(0.1 -0.1)">
      <defs>
       <path d="M 45.40625 46.390625 
L 45.40625 75.984375 
L 54.390625 75.984375 
L 54.390625 0 
L 45.40625 0 
L 45.40625 8.203125 
Q 42.578125 3.328125 38.25 0.953125 
Q 33.9375 -1.421875 27.875 -1.421875 
Q 17.96875 -1.421875 11.734375 6.484375 
Q 5.515625 14.40625 5.515625 27.296875 
Q 5.515625 40.1875 11.734375 48.09375 
Q 17.96875 56 27.875 56 
Q 33.9375 56 38.25 53.625 
Q 42.578125 51.265625 45.40625 46.390625 
z
M 14.796875 27.296875 
Q 14.796875 17.390625 18.875 11.75 
Q 22.953125 6.109375 30.078125 6.109375 
Q 37.203125 6.109375 41.296875 11.75 
Q 45.40625 17.390625 45.40625 27.296875 
Q 45.40625 37.203125 41.296875 42.84375 
Q 37.203125 48.484375 30.078125 48.484375 
Q 22.953125 48.484375 18.875 42.84375 
Q 14.796875 37.203125 14.796875 27.296875 
z
" id="DejaVuSans-100"/>
       <path d="M 41.109375 46.296875 
Q 39.59375 47.171875 37.8125 47.578125 
Q 36.03125 48 33.890625 48 
Q 26.265625 48 22.1875 43.046875 
Q 18.109375 38.09375 18.109375 28.8125 
L 18.109375 0 
L 9.078125 0 
L 9.078125 54.6875 
L 18.109375 54.6875 
L 18.109375 46.1875 
Q 20.953125 51.171875 25.484375 53.578125 
Q 30.03125 56 36.53125 56 
Q 37.453125 56 38.578125 55.875 
Q 39.703125 55.765625 41.0625 55.515625 
z
" id="DejaVuSans-114"/>
       <path d="M 48.78125 52.59375 
L 48.78125 44.1875 
Q 44.96875 46.296875 41.140625 47.34375 
Q 37.3125 48.390625 33.40625 48.390625 
Q 24.65625 48.390625 19.8125 42.84375 
Q 14.984375 37.3125 14.984375 27.296875 
Q 14.984375 17.28125 19.8125 11.734375 
Q 24.65625 6.203125 33.40625 6.203125 
Q 37.3125 6.203125 41.140625 7.25 
Q 44.96875 8.296875 48.78125 10.40625 
L 48.78125 2.09375 
Q 45.015625 0.34375 40.984375 -0.53125 
Q 36.96875 -1.421875 32.421875 -1.421875 
Q 20.0625 -1.421875 12.78125 6.34375 
Q 5.515625 14.109375 5.515625 27.296875 
Q 5.515625 40.671875 12.859375 48.328125 
Q 20.21875 56 33.015625 56 
Q 37.15625 56 41.109375 55.140625 
Q 45.0625 54.296875 48.78125 52.59375 
z
" id="DejaVuSans-99"/>
       <path d="M 54.890625 33.015625 
L 54.890625 0 
L 45.90625 0 
L 45.90625 32.71875 
Q 45.90625 40.484375 42.875 44.328125 
Q 39.84375 48.1875 33.796875 48.1875 
Q 26.515625 48.1875 22.3125 43.546875 
Q 18.109375 38.921875 18.109375 30.90625 
L 18.109375 0 
L 9.078125 0 
L 9.078125 75.984375 
L 18.109375 75.984375 
L 18.109375 46.1875 
Q 21.34375 51.125 25.703125 53.5625 
Q 30.078125 56 35.796875 56 
Q 45.21875 56 50.046875 50.171875 
Q 54.890625 44.34375 54.890625 33.015625 
z
" id="DejaVuSans-104"/>
       <path d="M 44.28125 53.078125 
L 44.28125 44.578125 
Q 40.484375 46.53125 36.375 47.5 
Q 32.28125 48.484375 27.875 48.484375 
Q 21.1875 48.484375 17.84375 46.4375 
Q 14.5 44.390625 14.5 40.28125 
Q 14.5 37.15625 16.890625 35.375 
Q 19.28125 33.59375 26.515625 31.984375 
L 29.59375 31.296875 
Q 39.15625 29.25 43.1875 25.515625 
Q 47.21875 21.78125 47.21875 15.09375 
Q 47.21875 7.46875 41.1875 3.015625 
Q 35.15625 -1.421875 24.609375 -1.421875 
Q 20.21875 -1.421875 15.453125 -0.5625 
Q 10.6875 0.296875 5.421875 2 
L 5.421875 11.28125 
Q 10.40625 8.6875 15.234375 7.390625 
Q 20.0625 6.109375 24.8125 6.109375 
Q 31.15625 6.109375 34.5625 8.28125 
Q 37.984375 10.453125 37.984375 14.40625 
Q 37.984375 18.0625 35.515625 20.015625 
Q 33.0625 21.96875 24.703125 23.78125 
L 21.578125 24.515625 
Q 13.234375 26.265625 9.515625 29.90625 
Q 5.8125 33.546875 5.8125 39.890625 
Q 5.8125 47.609375 11.28125 51.796875 
Q 16.75 56 26.8125 56 
Q 31.78125 56 36.171875 55.265625 
Q 40.578125 54.546875 44.28125 53.078125 
z
" id="DejaVuSans-115"/>
       <path d="M 54.890625 33.015625 
L 54.890625 0 
L 45.90625 0 
L 45.90625 32.71875 
Q 45.90625 40.484375 42.875 44.328125 
Q 39.84375 48.1875 33.796875 48.1875 
Q 26.515625 48.1875 22.3125 43.546875 
Q 18.109375 38.921875 18.109375 30.90625 
L 18.109375 0 
L 9.078125 0 
L 9.078125 54.6875 
L 18.109375 54.6875 
L 18.109375 46.1875 
Q 21.34375 51.125 25.703125 53.5625 
Q 30.078125 56 35.796875 56 
Q 45.21875 56 50.046875 50.171875 
Q 54.890625 44.34375 54.890625 33.015625 
z
" id="DejaVuSans-110"/>
       <path d="M 9.421875 54.6875 
L 18.40625 54.6875 
L 18.40625 0 
L 9.421875 0 
z
M 9.421875 75.984375 
L 18.40625 75.984375 
L 18.40625 64.59375 
L 9.421875 64.59375 
z
" id="DejaVuSans-105"/>
       <path d="M 9.421875 75.984375 
L 18.40625 75.984375 
L 18.40625 0 
L 9.421875 0 
z
" id="DejaVuSans-108"/>
       <path d="M 56.203125 29.59375 
L 56.203125 25.203125 
L 14.890625 25.203125 
Q 15.484375 15.921875 20.484375 11.0625 
Q 25.484375 6.203125 34.421875 6.203125 
Q 39.59375 6.203125 44.453125 7.46875 
Q 49.3125 8.734375 54.109375 11.28125 
L 54.109375 2.78125 
Q 49.265625 0.734375 44.1875 -0.34375 
Q 39.109375 -1.421875 33.890625 -1.421875 
Q 20.796875 -1.421875 13.15625 6.1875 
Q 5.515625 13.8125 5.515625 26.8125 
Q 5.515625 40.234375 12.765625 48.109375 
Q 20.015625 56 32.328125 56 
Q 43.359375 56 49.78125 48.890625 
Q 56.203125 41.796875 56.203125 29.59375 
z
M 47.21875 32.234375 
Q 47.125 39.59375 43.09375 43.984375 
Q 39.0625 48.390625 32.421875 48.390625 
Q 24.90625 48.390625 20.390625 44.140625 
Q 15.875 39.890625 15.1875 32.171875 
z
" id="DejaVuSans-101"/>
       <path id="DejaVuSans-32"/>
       <path d="M 19.671875 64.796875 
L 19.671875 37.40625 
L 32.078125 37.40625 
Q 38.96875 37.40625 42.71875 40.96875 
Q 46.484375 44.53125 46.484375 51.125 
Q 46.484375 57.671875 42.71875 61.234375 
Q 38.96875 64.796875 32.078125 64.796875 
z
M 9.8125 72.90625 
L 32.078125 72.90625 
Q 44.34375 72.90625 50.609375 67.359375 
Q 56.890625 61.8125 56.890625 51.125 
Q 56.890625 40.328125 50.609375 34.8125 
Q 44.34375 29.296875 32.078125 29.296875 
L 19.671875 29.296875 
L 19.671875 0 
L 9.8125 0 
z
" id="DejaVuSans-80"/>
       <path d="M 30.609375 48.390625 
Q 23.390625 48.390625 19.1875 42.75 
Q 14.984375 37.109375 14.984375 27.296875 
Q 14.984375 17.484375 19.15625 11.84375 
Q 23.34375 6.203125 30.609375 6.203125 
Q 37.796875 6.203125 41.984375 11.859375 
Q 46.1875 17.53125 46.1875 27.296875 
Q 46.1875 37.015625 41.984375 42.703125 
Q 37.796875 48.390625 30.609375 48.390625 
z
M 30.609375 56 
Q 42.328125 56 49.015625 48.375 
Q 55.71875 40.765625 55.71875 27.296875 
Q 55.71875 13.875 49.015625 6.21875 
Q 42.328125 -1.421875 30.609375 -1.421875 
Q 18.84375 -1.421875 12.171875 6.21875 
Q 5.515625 13.875 5.515625 27.296875 
Q 5.515625 40.765625 12.171875 48.375 
Q 18.84375 56 30.609375 56 
z
" id="DejaVuSans-111"/>
       <path d="M 9.078125 75.984375 
L 18.109375 75.984375 
L 18.109375 31.109375 
L 44.921875 54.6875 
L 56.390625 54.6875 
L 27.390625 29.109375 
L 57.625 0 
L 45.90625 0 
L 18.109375 26.703125 
L 18.109375 0 
L 9.078125 0 
z
" id="DejaVuSans-107"/>
       <path d="M 18.109375 8.203125 
L 18.109375 -20.796875 
L 9.078125 -20.796875 
L 9.078125 54.6875 
L 18.109375 54.6875 
L 18.109375 46.390625 
Q 20.953125 51.265625 25.265625 53.625 
Q 29.59375 56 35.59375 56 
Q 45.5625 56 51.78125 48.09375 
Q 58.015625 40.1875 58.015625 27.296875 
Q 58.015625 14.40625 51.78125 6.484375 
Q 45.5625 -1.421875 35.59375 -1.421875 
Q 29.59375 -1.421875 25.265625 0.953125 
Q 20.953125 3.328125 18.109375 8.203125 
z
M 48.6875 27.296875 
Q 48.6875 37.203125 44.609375 42.84375 
Q 40.53125 48.484375 33.40625 48.484375 
Q 26.265625 48.484375 22.1875 42.84375 
Q 18.109375 37.203125 18.109375 27.296875 
Q 18.109375 17.390625 22.1875 11.75 
Q 26.265625 6.109375 33.40625 6.109375 
Q 40.53125 6.109375 44.609375 11.75 
Q 48.6875 17.390625 48.6875 27.296875 
z
" id="DejaVuSans-112"/>
       <path d="M 31 75.875 
Q 24.46875 64.65625 21.28125 53.65625 
Q 18.109375 42.671875 18.109375 31.390625 
Q 18.109375 20.125 21.3125 9.0625 
Q 24.515625 -2 31 -13.1875 
L 23.1875 -13.1875 
Q 15.875 -1.703125 12.234375 9.375 
Q 8.59375 20.453125 8.59375 31.390625 
Q 8.59375 42.28125 12.203125 53.3125 
Q 15.828125 64.359375 23.1875 75.875 
z
" id="DejaVuSans-40"/>
       <path d="M 56.984375 67.28125 
L 56.984375 56.890625 
Q 52.546875 62.015625 48.40625 64.203125 
Q 44.28125 66.40625 39.3125 66.40625 
Q 31.640625 66.40625 26.703125 61.515625 
Q 21.78125 56.640625 20.21875 47.515625 
L 48.390625 47.515625 
L 45.703125 41.5 
L 19.4375 41.5 
Q 19.34375 40.328125 19.3125 39.203125 
Q 19.28125 38.09375 19.28125 36.375 
Q 19.28125 34.8125 19.3125 33.6875 
Q 19.34375 32.5625 19.4375 31.390625 
L 41.21875 31.390625 
L 38.484375 25.390625 
L 20.21875 25.390625 
Q 21.78125 16.265625 26.703125 11.328125 
Q 31.640625 6.390625 39.3125 6.390625 
Q 44.28125 6.390625 48.40625 8.59375 
Q 52.546875 10.796875 56.984375 15.921875 
L 56.984375 5.609375 
Q 52.640625 2.09375 48.125 0.328125 
Q 43.609375 -1.421875 38.921875 -1.421875 
Q 27.34375 -1.421875 19.796875 5.65625 
Q 12.25 12.75 10.296875 25.390625 
L 0 25.390625 
L 2.6875 31.390625 
L 9.46875 31.390625 
Q 9.46875 32.515625 9.4375 33.65625 
Q 9.421875 34.8125 9.421875 36.375 
Q 9.421875 38.09375 9.4375 39.234375 
Q 9.46875 40.375 9.46875 41.5 
L 0 41.5 
L 2.6875 47.515625 
L 10.296875 47.515625 
Q 12.25 60.0625 19.8125 67.140625 
Q 27.390625 74.21875 38.921875 74.21875 
Q 43.703125 74.21875 48.21875 72.484375 
Q 52.734375 70.75 56.984375 67.28125 
z
" id="DejaVuSans-8364"/>
       <path d="M 8.015625 75.875 
L 15.828125 75.875 
Q 23.140625 64.359375 26.78125 53.3125 
Q 30.421875 42.28125 30.421875 31.390625 
Q 30.421875 20.453125 26.78125 9.375 
Q 23.140625 -1.703125 15.828125 -13.1875 
L 8.015625 -13.1875 
Q 14.5 -2 17.703125 9.0625 
Q 20.90625 20.125 20.90625 31.390625 
Q 20.90625 42.671875 17.703125 53.65625 
Q 14.5 64.65625 8.015625 75.875 
z
" id="DejaVuSans-41"/>
      </defs>
      <use xlink:href="#DejaVuSans-100"/>
      <use x="63.476562" xlink:href="#DejaVuSans-117"/>
      <use x="126.855469" xlink:href="#DejaVuSans-114"/>
      <use x="165.71875" xlink:href="#DejaVuSans-99"/>
      <use x="220.699219" xlink:href="#DejaVuSans-104"/>
      <use x="284.078125" xlink:href="#DejaVuSans-115"/>
      <use x="336.177734" xlink:href="#DejaVuSans-99"/>
      <use x="391.158203" xlink:href="#DejaVuSans-104"/>
      <use x="454.537109" xlink:href="#DejaVuSans-110"/>
      <use x="517.916016" xlink:href="#DejaVuSans-105"/>
      <use x="545.699219" xlink:href="#DejaVuSans-116"/>
      <use x="584.908203" xlink:href="#DejaVuSans-116"/>
      <use x="624.117188" xlink:href="#DejaVuSans-108"/>
      <use x="651.900391" xlink:href="#DejaVuSans-105"/>
      <use x="679.683594" xlink:href="#DejaVuSans-99"/>
      <use x="734.664062" xlink:href="#DejaVuSans-104"/>
      <use x="798.042969" xlink:href="#DejaVuSans-101"/>
      <use x="859.566406" xlink:href="#DejaVuSans-32"/>
      <use x="891.353516" xlink:href="#DejaVuSans-80"/>
      <use x="949.90625" xlink:href="#DejaVuSans-114"/>
      <use x="988.769531" xlink:href="#DejaVuSans-111"/>
      <use x="1049.951172" xlink:href="#DejaVuSans-100"/>
      <use x="1113.427734" xlink:href="#DejaVuSans-117"/>
      <use x="1176.806641" xlink:href="#DejaVuSans-107"/>
      <use x="1234.716797" xlink:href="#DejaVuSans-116"/>
      <use x="1273.925781" xlink:href="#DejaVuSans-112"/>
      <use x="1337.402344" xlink:href="#DejaVuSans-114"/>
      <use x="1376.265625" xlink:href="#DejaVuSans-101"/>
      <use x="1437.789062" xlink:href="#DejaVuSans-105"/>
      <use x="1465.572266" xlink:href="#DejaVuSans-115"/>
      <use x="1517.671875" xlink:href="#DejaVuSans-101"/>
      <use x="1579.195312" xlink:href="#DejaVuSans-32"/>
      <use x="1610.982422" xlink:href="#DejaVuSans-40"/>
      <use x="1649.996094" xlink:href="#DejaVuSans-8364"/>
      <use x="1713.619141" xlink:href="#DejaVuSans-41"/>
     </g>
    </g>
   </g>
   <g id="line2d_37">
    <path clip-path="url(#pbb19b40d0a)" d="M 93.525 45.848988 
L 96.318436 44.761818 
L 99.111873 46.824479 
L 101.905309 52.82705 
L 104.698745 47.1037 
L 107.492181 57.777034 
L 110.285618 78.102781 
L 113.079054 78.231712 
L 115.87249 80.015838 
L 118.665927 80.967142 
L 121.459363 78.253564 
L 124.252799 77.910825 
L 127.046236 73.107789 
L 129.839672 73.998122 
L 132.633108 78.728659 
L 135.426544 75.800367 
L 138.219981 91.821859 
L 141.013417 75.00625 
L 143.806853 73.841345 
L 146.60029 72.970295 
L 149.393726 74.956075 
L 152.187162 72.883511 
L 154.980598 74.187205 
L 157.774035 78.497326 
L 160.567471 66.336352 
L 163.360907 70.436621 
L 166.154344 76.188193 
L 168.94778 101.506361 
L 171.741216 79.523272 
L 174.534653 83.562246 
L 177.328089 111.853679 
L 180.121525 89.135909 
L 182.914961 85.833553 
L 185.708398 84.286237 
L 188.501834 86.898377 
L 191.29527 90.52592 
L 194.088707 90.46365 
L 196.882143 93.012908 
L 199.675579 69.476395 
L 202.469015 129.42421 
L 205.262452 127.278753 
L 208.055888 139.970433 
L 210.849324 139.499856 
L 213.642761 135.572027 
L 216.436197 137.847217 
L 219.229633 145.042308 
L 222.023069 153.689523 
L 227.609942 152.734132 
L 230.403378 150.895774 
L 233.196815 144.840573 
L 235.990251 146.86763 
L 238.783687 149.522572 
L 241.577124 156.675977 
L 244.37056 152.257042 
L 247.163996 157.934369 
L 249.957432 155.789129 
L 252.750869 158.139607 
L 255.544305 157.360484 
L 258.337741 153.688061 
L 261.131178 154.17045 
L 263.924614 169.091459 
L 266.71805 171.851797 
L 269.511486 172.977364 
L 272.304923 171.693884 
L 275.098359 161.407073 
L 277.891795 163.66472 
L 280.685232 166.076515 
L 283.478668 168.310841 
L 286.272104 183.177023 
L 289.065541 171.569352 
L 291.858977 170.740069 
L 294.652413 176.875141 
L 297.445849 173.355978 
L 300.239286 168.30816 
L 303.032722 165.74963 
L 305.826158 171.92264 
L 308.619595 175.252263 
L 311.413031 173.195132 
L 314.206467 178.293276 
L 316.999903 164.531652 
L 319.79334 173.952978 
L 322.586776 171.183058 
L 325.380212 168.631417 
L 328.173649 172.614977 
L 330.967085 169.756022 
L 333.760521 168.554277 
L 336.553958 173.710105 
L 339.347394 176.811953 
L 342.14083 179.51968 
L 344.934266 186.083631 
L 350.521139 179.610333 
L 353.314575 182.46088 
L 356.108012 180.115474 
L 358.901448 373.598182 
L 361.694884 183.336679 
L 364.48832 174.062367 
L 367.281757 170.83639 
L 370.075193 170.8357 
L 372.868629 167.686431 
L 375.662066 178.680558 
L 378.455502 169.872462 
L 381.248938 170.832238 
L 384.042375 181.751825 
L 386.835811 176.511333 
L 389.629247 170.660976 
L 392.422683 171.867763 
L 395.21612 145.144616 
L 398.009556 145.520128 
L 400.802992 147.408546 
L 403.596429 140.421214 
L 406.389865 140.820118 
L 409.183301 140.997774 
L 411.976737 138.555481 
L 414.770174 153.506857 
L 417.56361 156.567113 
L 420.357046 149.287154 
L 423.150483 158.037264 
L 425.943919 149.324993 
L 428.737355 157.616184 
L 431.530792 147.604409 
L 434.324228 149.546156 
L 437.117664 158.101976 
L 439.9111 161.105488 
L 442.704537 146.429888 
L 445.497973 143.708085 
L 448.291409 139.307731 
L 451.084846 139.090241 
L 453.878282 141.367435 
L 456.671718 152.914808 
L 459.465154 171.549155 
L 462.258591 174.455291 
L 465.052027 167.935433 
L 467.845463 161.075205 
L 470.6389 166.040281 
L 473.432336 166.249719 
L 476.225772 186.473168 
L 479.019208 188.931012 
L 481.812645 193.631603 
L 484.606081 190.489759 
L 487.399517 190.956695 
L 490.192954 198.872787 
L 492.98639 208.073787 
L 495.779826 218.794358 
L 498.573263 225.670608 
L 501.366699 227.892943 
L 504.160135 218.613969 
L 506.953571 216.807434 
L 509.747008 223.636425 
L 512.540444 225.192171 
L 515.33388 227.491734 
L 518.127317 227.985954 
L 520.920753 222.967458 
L 523.714189 224.243535 
L 526.507625 238.967677 
L 529.301062 270.589515 
L 532.094498 259.389446 
L 534.887934 252.739462 
L 537.681371 257.946906 
L 540.474807 255.608746 
L 543.268243 252.01634 
L 546.06168 251.352975 
L 548.855116 248.189098 
L 551.648552 247.031061 
L 554.441988 241.879467 
L 557.235425 237.634528 
L 560.028861 240.812533 
L 562.822297 249.670691 
L 565.615734 255.712055 
L 568.40917 246.634459 
L 571.202606 247.855044 
L 573.996042 276.379337 
L 576.789479 269.262702 
L 579.582915 268.261282 
L 582.376351 267.424114 
L 585.169788 264.908545 
L 587.963224 269.476671 
L 590.75666 280.582245 
L 593.550097 279.179545 
L 596.343533 278.385999 
L 599.136969 282.994676 
L 601.930405 283.652703 
L 604.723842 284.996286 
L 607.517278 285.948576 
L 610.310714 284.991043 
L 613.104151 290.807124 
L 615.897587 290.694684 
L 618.691023 308.838393 
L 621.484459 284.463928 
L 624.277896 276.998692 
L 627.071332 275.695139 
L 629.864768 274.816654 
L 632.658205 274.328623 
L 638.245077 250.658619 
L 641.038514 242.379152 
L 643.83195 240.782021 
L 646.625386 250.817355 
L 649.418822 242.825063 
L 652.212259 255.286157 
L 655.005695 253.607126 
L 657.799131 265.012338 
L 660.592568 270.356494 
L 663.386004 263.586164 
L 666.17944 264.078294 
L 668.972876 256.24477 
L 671.766313 253.479421 
L 674.559749 259.553675 
L 677.353185 261.703919 
L 680.146622 259.525029 
L 682.940058 245.319825 
L 685.733494 249.781085 
L 688.526931 253.803138 
L 691.320367 258.077007 
L 694.113803 263.434674 
L 696.907239 260.085756 
L 699.700676 258.39124 
L 702.494112 262.119284 
L 705.287548 259.388313 
L 708.080985 244.176738 
L 710.874421 238.095969 
L 713.667857 235.974791 
L 716.461293 236.145963 
L 719.25473 229.309839 
L 722.048166 213.453666 
L 724.841602 214.63647 
L 727.635039 211.63018 
L 730.428475 214.096954 
L 736.015347 199.864507 
L 738.808784 197.906921 
L 741.60222 191.968006 
L 744.395656 194.370719 
L 747.189093 188.368823 
L 749.982529 229.877959 
L 752.775965 200.019279 
L 755.569402 201.053234 
L 758.362838 201.940704 
L 761.156274 194.574091 
L 763.94971 202.008392 
L 766.743147 211.430923 
L 769.536583 203.909754 
L 772.330019 209.542299 
L 775.123456 198.11868 
L 777.916892 205.205178 
L 780.710328 210.284461 
L 783.503764 222.806265 
L 786.297201 227.240508 
L 789.090637 224.112958 
L 791.884073 232.258391 
L 794.67751 237.624343 
L 797.470946 233.149826 
L 800.264382 235.960557 
L 803.057819 244.952112 
L 805.851255 244.572311 
L 808.644691 240.29183 
L 811.438127 247.286524 
L 814.231564 255.115428 
L 817.025 243.096969 
L 817.025 243.096969 
" style="fill:none;stroke:#1f77b4;stroke-linecap:square;stroke-width:1.5;"/>
    <defs>
     <path d="M -3 3 
L 3 -3 
M -3 -3 
L 3 3 
" id="m9909098002" style="stroke:#1f77b4;"/>
    </defs>
    <g clip-path="url(#pbb19b40d0a)">
     <use style="fill:#1f77b4;stroke:#1f77b4;" x="93.525" xlink:href="#m9909098002" y="45.848988"/>
     <use style="fill:#1f77b4;stroke:#1f77b4;" x="96.318436" xlink:href="#m9909098002" y="44.761818"/>
     <use style="fill:#1f77b4;stroke:#1f77b4;" x="99.111873" xlink:href="#m9909098002" y="46.824479"/>
     <use style="fill:#1f77b4;stroke:#1f77b4;" x="101.905309" xlink:href="#m9909098002" y="52.82705"/>
     <use style="fill:#1f77b4;stroke:#1f77b4;" x="104.698745" xlink:href="#m9909098002" y="47.1037"/>
     <use style="fill:#1f77b4;stroke:#1f77b4;" x="107.492181" xlink:href="#m9909098002" y="57.777034"/>
     <use style="fill:#1f77b4;stroke:#1f77b4;" x="110.285618" xlink:href="#m9909098002" y="78.102781"/>
     <use style="fill:#1f77b4;stroke:#1f77b4;" x="113.079054" xlink:href="#m9909098002" y="78.231712"/>
     <use style="fill:#1f77b4;stroke:#1f77b4;" x="115.87249" xlink:href="#m9909098002" y="80.015838"/>
     <use style="fill:#1f77b4;stroke:#1f77b4;" x="118.665927" xlink:href="#m9909098002" y="80.967142"/>
     <use style="fill:#1f77b4;stroke:#1f77b4;" x="121.459363" xlink:href="#m9909098002" y="78.253564"/>
     <use style="fill:#1f77b4;stroke:#1f77b4;" x="124.252799" xlink:href="#m9909098002" y="77.910825"/>
     <use style="fill:#1f77b4;stroke:#1f77b4;" x="127.046236" xlink:href="#m9909098002" y="73.107789"/>
     <use style="fill:#1f77b4;stroke:#1f77b4;" x="129.839672" xlink:href="#m9909098002" y="73.998122"/>
     <use style="fill:#1f77b4;stroke:#1f77b4;" x="132.633108" xlink:href="#m9909098002" y="78.728659"/>
     <use style="fill:#1f77b4;stroke:#1f77b4;" x="135.426544" xlink:href="#m9909098002" y="75.800367"/>
     <use style="fill:#1f77b4;stroke:#1f77b4;" x="138.219981" xlink:href="#m9909098002" y="91.821859"/>
     <use style="fill:#1f77b4;stroke:#1f77b4;" x="141.013417" xlink:href="#m9909098002" y="75.00625"/>
     <use style="fill:#1f77b4;stroke:#1f77b4;" x="143.806853" xlink:href="#m9909098002" y="73.841345"/>
     <use style="fill:#1f77b4;stroke:#1f77b4;" x="146.60029" xlink:href="#m9909098002" y="72.970295"/>
     <use style="fill:#1f77b4;stroke:#1f77b4;" x="149.393726" xlink:href="#m9909098002" y="74.956075"/>
     <use style="fill:#1f77b4;stroke:#1f77b4;" x="152.187162" xlink:href="#m9909098002" y="72.883511"/>
     <use style="fill:#1f77b4;stroke:#1f77b4;" x="154.980598" xlink:href="#m9909098002" y="74.187205"/>
     <use style="fill:#1f77b4;stroke:#1f77b4;" x="157.774035" xlink:href="#m9909098002" y="78.497326"/>
     <use style="fill:#1f77b4;stroke:#1f77b4;" x="160.567471" xlink:href="#m9909098002" y="66.336352"/>
     <use style="fill:#1f77b4;stroke:#1f77b4;" x="163.360907" xlink:href="#m9909098002" y="70.436621"/>
     <use style="fill:#1f77b4;stroke:#1f77b4;" x="166.154344" xlink:href="#m9909098002" y="76.188193"/>
     <use style="fill:#1f77b4;stroke:#1f77b4;" x="168.94778" xlink:href="#m9909098002" y="101.506361"/>
     <use style="fill:#1f77b4;stroke:#1f77b4;" x="171.741216" xlink:href="#m9909098002" y="79.523272"/>
     <use style="fill:#1f77b4;stroke:#1f77b4;" x="174.534653" xlink:href="#m9909098002" y="83.562246"/>
     <use style="fill:#1f77b4;stroke:#1f77b4;" x="177.328089" xlink:href="#m9909098002" y="111.853679"/>
     <use style="fill:#1f77b4;stroke:#1f77b4;" x="180.121525" xlink:href="#m9909098002" y="89.135909"/>
     <use style="fill:#1f77b4;stroke:#1f77b4;" x="182.914961" xlink:href="#m9909098002" y="85.833553"/>
     <use style="fill:#1f77b4;stroke:#1f77b4;" x="185.708398" xlink:href="#m9909098002" y="84.286237"/>
     <use style="fill:#1f77b4;stroke:#1f77b4;" x="188.501834" xlink:href="#m9909098002" y="86.898377"/>
     <use style="fill:#1f77b4;stroke:#1f77b4;" x="191.29527" xlink:href="#m9909098002" y="90.52592"/>
     <use style="fill:#1f77b4;stroke:#1f77b4;" x="194.088707" xlink:href="#m9909098002" y="90.46365"/>
     <use style="fill:#1f77b4;stroke:#1f77b4;" x="196.882143" xlink:href="#m9909098002" y="93.012908"/>
     <use style="fill:#1f77b4;stroke:#1f77b4;" x="199.675579" xlink:href="#m9909098002" y="69.476395"/>
     <use style="fill:#1f77b4;stroke:#1f77b4;" x="202.469015" xlink:href="#m9909098002" y="129.42421"/>
     <use style="fill:#1f77b4;stroke:#1f77b4;" x="205.262452" xlink:href="#m9909098002" y="127.278753"/>
     <use style="fill:#1f77b4;stroke:#1f77b4;" x="208.055888" xlink:href="#m9909098002" y="139.970433"/>
     <use style="fill:#1f77b4;stroke:#1f77b4;" x="210.849324" xlink:href="#m9909098002" y="139.499856"/>
     <use style="fill:#1f77b4;stroke:#1f77b4;" x="213.642761" xlink:href="#m9909098002" y="135.572027"/>
     <use style="fill:#1f77b4;stroke:#1f77b4;" x="216.436197" xlink:href="#m9909098002" y="137.847217"/>
     <use style="fill:#1f77b4;stroke:#1f77b4;" x="219.229633" xlink:href="#m9909098002" y="145.042308"/>
     <use style="fill:#1f77b4;stroke:#1f77b4;" x="222.023069" xlink:href="#m9909098002" y="153.689523"/>
     <use style="fill:#1f77b4;stroke:#1f77b4;" x="224.816506" xlink:href="#m9909098002" y="153.2478"/>
     <use style="fill:#1f77b4;stroke:#1f77b4;" x="227.609942" xlink:href="#m9909098002" y="152.734132"/>
     <use style="fill:#1f77b4;stroke:#1f77b4;" x="230.403378" xlink:href="#m9909098002" y="150.895774"/>
     <use style="fill:#1f77b4;stroke:#1f77b4;" x="233.196815" xlink:href="#m9909098002" y="144.840573"/>
     <use style="fill:#1f77b4;stroke:#1f77b4;" x="235.990251" xlink:href="#m9909098002" y="146.86763"/>
     <use style="fill:#1f77b4;stroke:#1f77b4;" x="238.783687" xlink:href="#m9909098002" y="149.522572"/>
     <use style="fill:#1f77b4;stroke:#1f77b4;" x="241.577124" xlink:href="#m9909098002" y="156.675977"/>
     <use style="fill:#1f77b4;stroke:#1f77b4;" x="244.37056" xlink:href="#m9909098002" y="152.257042"/>
     <use style="fill:#1f77b4;stroke:#1f77b4;" x="247.163996" xlink:href="#m9909098002" y="157.934369"/>
     <use style="fill:#1f77b4;stroke:#1f77b4;" x="249.957432" xlink:href="#m9909098002" y="155.789129"/>
     <use style="fill:#1f77b4;stroke:#1f77b4;" x="252.750869" xlink:href="#m9909098002" y="158.139607"/>
     <use style="fill:#1f77b4;stroke:#1f77b4;" x="255.544305" xlink:href="#m9909098002" y="157.360484"/>
     <use style="fill:#1f77b4;stroke:#1f77b4;" x="258.337741" xlink:href="#m9909098002" y="153.688061"/>
     <use style="fill:#1f77b4;stroke:#1f77b4;" x="261.131178" xlink:href="#m9909098002" y="154.17045"/>
     <use style="fill:#1f77b4;stroke:#1f77b4;" x="263.924614" xlink:href="#m9909098002" y="169.091459"/>
     <use style="fill:#1f77b4;stroke:#1f77b4;" x="266.71805" xlink:href="#m9909098002" y="171.851797"/>
     <use style="fill:#1f77b4;stroke:#1f77b4;" x="269.511486" xlink:href="#m9909098002" y="172.977364"/>
     <use style="fill:#1f77b4;stroke:#1f77b4;" x="272.304923" xlink:href="#m9909098002" y="171.693884"/>
     <use style="fill:#1f77b4;stroke:#1f77b4;" x="275.098359" xlink:href="#m9909098002" y="161.407073"/>
     <use style="fill:#1f77b4;stroke:#1f77b4;" x="277.891795" xlink:href="#m9909098002" y="163.66472"/>
     <use style="fill:#1f77b4;stroke:#1f77b4;" x="280.685232" xlink:href="#m9909098002" y="166.076515"/>
     <use style="fill:#1f77b4;stroke:#1f77b4;" x="283.478668" xlink:href="#m9909098002" y="168.310841"/>
     <use style="fill:#1f77b4;stroke:#1f77b4;" x="286.272104" xlink:href="#m9909098002" y="183.177023"/>
     <use style="fill:#1f77b4;stroke:#1f77b4;" x="289.065541" xlink:href="#m9909098002" y="171.569352"/>
     <use style="fill:#1f77b4;stroke:#1f77b4;" x="291.858977" xlink:href="#m9909098002" y="170.740069"/>
     <use style="fill:#1f77b4;stroke:#1f77b4;" x="294.652413" xlink:href="#m9909098002" y="176.875141"/>
     <use style="fill:#1f77b4;stroke:#1f77b4;" x="297.445849" xlink:href="#m9909098002" y="173.355978"/>
     <use style="fill:#1f77b4;stroke:#1f77b4;" x="300.239286" xlink:href="#m9909098002" y="168.30816"/>
     <use style="fill:#1f77b4;stroke:#1f77b4;" x="303.032722" xlink:href="#m9909098002" y="165.74963"/>
     <use style="fill:#1f77b4;stroke:#1f77b4;" x="305.826158" xlink:href="#m9909098002" y="171.92264"/>
     <use style="fill:#1f77b4;stroke:#1f77b4;" x="308.619595" xlink:href="#m9909098002" y="175.252263"/>
     <use style="fill:#1f77b4;stroke:#1f77b4;" x="311.413031" xlink:href="#m9909098002" y="173.195132"/>
     <use style="fill:#1f77b4;stroke:#1f77b4;" x="314.206467" xlink:href="#m9909098002" y="178.293276"/>
     <use style="fill:#1f77b4;stroke:#1f77b4;" x="316.999903" xlink:href="#m9909098002" y="164.531652"/>
     <use style="fill:#1f77b4;stroke:#1f77b4;" x="319.79334" xlink:href="#m9909098002" y="173.952978"/>
     <use style="fill:#1f77b4;stroke:#1f77b4;" x="322.586776" xlink:href="#m9909098002" y="171.183058"/>
     <use style="fill:#1f77b4;stroke:#1f77b4;" x="325.380212" xlink:href="#m9909098002" y="168.631417"/>
     <use style="fill:#1f77b4;stroke:#1f77b4;" x="328.173649" xlink:href="#m9909098002" y="172.614977"/>
     <use style="fill:#1f77b4;stroke:#1f77b4;" x="330.967085" xlink:href="#m9909098002" y="169.756022"/>
     <use style="fill:#1f77b4;stroke:#1f77b4;" x="333.760521" xlink:href="#m9909098002" y="168.554277"/>
     <use style="fill:#1f77b4;stroke:#1f77b4;" x="336.553958" xlink:href="#m9909098002" y="173.710105"/>
     <use style="fill:#1f77b4;stroke:#1f77b4;" x="339.347394" xlink:href="#m9909098002" y="176.811953"/>
     <use style="fill:#1f77b4;stroke:#1f77b4;" x="342.14083" xlink:href="#m9909098002" y="179.51968"/>
     <use style="fill:#1f77b4;stroke:#1f77b4;" x="344.934266" xlink:href="#m9909098002" y="186.083631"/>
     <use style="fill:#1f77b4;stroke:#1f77b4;" x="347.727703" xlink:href="#m9909098002" y="182.773991"/>
     <use style="fill:#1f77b4;stroke:#1f77b4;" x="350.521139" xlink:href="#m9909098002" y="179.610333"/>
     <use style="fill:#1f77b4;stroke:#1f77b4;" x="353.314575" xlink:href="#m9909098002" y="182.46088"/>
     <use style="fill:#1f77b4;stroke:#1f77b4;" x="356.108012" xlink:href="#m9909098002" y="180.115474"/>
     <use style="fill:#1f77b4;stroke:#1f77b4;" x="358.901448" xlink:href="#m9909098002" y="373.598182"/>
     <use style="fill:#1f77b4;stroke:#1f77b4;" x="361.694884" xlink:href="#m9909098002" y="183.336679"/>
     <use style="fill:#1f77b4;stroke:#1f77b4;" x="364.48832" xlink:href="#m9909098002" y="174.062367"/>
     <use style="fill:#1f77b4;stroke:#1f77b4;" x="367.281757" xlink:href="#m9909098002" y="170.83639"/>
     <use style="fill:#1f77b4;stroke:#1f77b4;" x="370.075193" xlink:href="#m9909098002" y="170.8357"/>
     <use style="fill:#1f77b4;stroke:#1f77b4;" x="372.868629" xlink:href="#m9909098002" y="167.686431"/>
     <use style="fill:#1f77b4;stroke:#1f77b4;" x="375.662066" xlink:href="#m9909098002" y="178.680558"/>
     <use style="fill:#1f77b4;stroke:#1f77b4;" x="378.455502" xlink:href="#m9909098002" y="169.872462"/>
     <use style="fill:#1f77b4;stroke:#1f77b4;" x="381.248938" xlink:href="#m9909098002" y="170.832238"/>
     <use style="fill:#1f77b4;stroke:#1f77b4;" x="384.042375" xlink:href="#m9909098002" y="181.751825"/>
     <use style="fill:#1f77b4;stroke:#1f77b4;" x="386.835811" xlink:href="#m9909098002" y="176.511333"/>
     <use style="fill:#1f77b4;stroke:#1f77b4;" x="389.629247" xlink:href="#m9909098002" y="170.660976"/>
     <use style="fill:#1f77b4;stroke:#1f77b4;" x="392.422683" xlink:href="#m9909098002" y="171.867763"/>
     <use style="fill:#1f77b4;stroke:#1f77b4;" x="395.21612" xlink:href="#m9909098002" y="145.144616"/>
     <use style="fill:#1f77b4;stroke:#1f77b4;" x="398.009556" xlink:href="#m9909098002" y="145.520128"/>
     <use style="fill:#1f77b4;stroke:#1f77b4;" x="400.802992" xlink:href="#m9909098002" y="147.408546"/>
     <use style="fill:#1f77b4;stroke:#1f77b4;" x="403.596429" xlink:href="#m9909098002" y="140.421214"/>
     <use style="fill:#1f77b4;stroke:#1f77b4;" x="406.389865" xlink:href="#m9909098002" y="140.820118"/>
     <use style="fill:#1f77b4;stroke:#1f77b4;" x="409.183301" xlink:href="#m9909098002" y="140.997774"/>
     <use style="fill:#1f77b4;stroke:#1f77b4;" x="411.976737" xlink:href="#m9909098002" y="138.555481"/>
     <use style="fill:#1f77b4;stroke:#1f77b4;" x="414.770174" xlink:href="#m9909098002" y="153.506857"/>
     <use style="fill:#1f77b4;stroke:#1f77b4;" x="417.56361" xlink:href="#m9909098002" y="156.567113"/>
     <use style="fill:#1f77b4;stroke:#1f77b4;" x="420.357046" xlink:href="#m9909098002" y="149.287154"/>
     <use style="fill:#1f77b4;stroke:#1f77b4;" x="423.150483" xlink:href="#m9909098002" y="158.037264"/>
     <use style="fill:#1f77b4;stroke:#1f77b4;" x="425.943919" xlink:href="#m9909098002" y="149.324993"/>
     <use style="fill:#1f77b4;stroke:#1f77b4;" x="428.737355" xlink:href="#m9909098002" y="157.616184"/>
     <use style="fill:#1f77b4;stroke:#1f77b4;" x="431.530792" xlink:href="#m9909098002" y="147.604409"/>
     <use style="fill:#1f77b4;stroke:#1f77b4;" x="434.324228" xlink:href="#m9909098002" y="149.546156"/>
     <use style="fill:#1f77b4;stroke:#1f77b4;" x="437.117664" xlink:href="#m9909098002" y="158.101976"/>
     <use style="fill:#1f77b4;stroke:#1f77b4;" x="439.9111" xlink:href="#m9909098002" y="161.105488"/>
     <use style="fill:#1f77b4;stroke:#1f77b4;" x="442.704537" xlink:href="#m9909098002" y="146.429888"/>
     <use style="fill:#1f77b4;stroke:#1f77b4;" x="445.497973" xlink:href="#m9909098002" y="143.708085"/>
     <use style="fill:#1f77b4;stroke:#1f77b4;" x="448.291409" xlink:href="#m9909098002" y="139.307731"/>
     <use style="fill:#1f77b4;stroke:#1f77b4;" x="451.084846" xlink:href="#m9909098002" y="139.090241"/>
     <use style="fill:#1f77b4;stroke:#1f77b4;" x="453.878282" xlink:href="#m9909098002" y="141.367435"/>
     <use style="fill:#1f77b4;stroke:#1f77b4;" x="456.671718" xlink:href="#m9909098002" y="152.914808"/>
     <use style="fill:#1f77b4;stroke:#1f77b4;" x="459.465154" xlink:href="#m9909098002" y="171.549155"/>
     <use style="fill:#1f77b4;stroke:#1f77b4;" x="462.258591" xlink:href="#m9909098002" y="174.455291"/>
     <use style="fill:#1f77b4;stroke:#1f77b4;" x="465.052027" xlink:href="#m9909098002" y="167.935433"/>
     <use style="fill:#1f77b4;stroke:#1f77b4;" x="467.845463" xlink:href="#m9909098002" y="161.075205"/>
     <use style="fill:#1f77b4;stroke:#1f77b4;" x="470.6389" xlink:href="#m9909098002" y="166.040281"/>
     <use style="fill:#1f77b4;stroke:#1f77b4;" x="473.432336" xlink:href="#m9909098002" y="166.249719"/>
     <use style="fill:#1f77b4;stroke:#1f77b4;" x="476.225772" xlink:href="#m9909098002" y="186.473168"/>
     <use style="fill:#1f77b4;stroke:#1f77b4;" x="479.019208" xlink:href="#m9909098002" y="188.931012"/>
     <use style="fill:#1f77b4;stroke:#1f77b4;" x="481.812645" xlink:href="#m9909098002" y="193.631603"/>
     <use style="fill:#1f77b4;stroke:#1f77b4;" x="484.606081" xlink:href="#m9909098002" y="190.489759"/>
     <use style="fill:#1f77b4;stroke:#1f77b4;" x="487.399517" xlink:href="#m9909098002" y="190.956695"/>
     <use style="fill:#1f77b4;stroke:#1f77b4;" x="490.192954" xlink:href="#m9909098002" y="198.872787"/>
     <use style="fill:#1f77b4;stroke:#1f77b4;" x="492.98639" xlink:href="#m9909098002" y="208.073787"/>
     <use style="fill:#1f77b4;stroke:#1f77b4;" x="495.779826" xlink:href="#m9909098002" y="218.794358"/>
     <use style="fill:#1f77b4;stroke:#1f77b4;" x="498.573263" xlink:href="#m9909098002" y="225.670608"/>
     <use style="fill:#1f77b4;stroke:#1f77b4;" x="501.366699" xlink:href="#m9909098002" y="227.892943"/>
     <use style="fill:#1f77b4;stroke:#1f77b4;" x="504.160135" xlink:href="#m9909098002" y="218.613969"/>
     <use style="fill:#1f77b4;stroke:#1f77b4;" x="506.953571" xlink:href="#m9909098002" y="216.807434"/>
     <use style="fill:#1f77b4;stroke:#1f77b4;" x="509.747008" xlink:href="#m9909098002" y="223.636425"/>
     <use style="fill:#1f77b4;stroke:#1f77b4;" x="512.540444" xlink:href="#m9909098002" y="225.192171"/>
     <use style="fill:#1f77b4;stroke:#1f77b4;" x="515.33388" xlink:href="#m9909098002" y="227.491734"/>
     <use style="fill:#1f77b4;stroke:#1f77b4;" x="518.127317" xlink:href="#m9909098002" y="227.985954"/>
     <use style="fill:#1f77b4;stroke:#1f77b4;" x="520.920753" xlink:href="#m9909098002" y="222.967458"/>
     <use style="fill:#1f77b4;stroke:#1f77b4;" x="523.714189" xlink:href="#m9909098002" y="224.243535"/>
     <use style="fill:#1f77b4;stroke:#1f77b4;" x="526.507625" xlink:href="#m9909098002" y="238.967677"/>
     <use style="fill:#1f77b4;stroke:#1f77b4;" x="529.301062" xlink:href="#m9909098002" y="270.589515"/>
     <use style="fill:#1f77b4;stroke:#1f77b4;" x="532.094498" xlink:href="#m9909098002" y="259.389446"/>
     <use style="fill:#1f77b4;stroke:#1f77b4;" x="534.887934" xlink:href="#m9909098002" y="252.739462"/>
     <use style="fill:#1f77b4;stroke:#1f77b4;" x="537.681371" xlink:href="#m9909098002" y="257.946906"/>
     <use style="fill:#1f77b4;stroke:#1f77b4;" x="540.474807" xlink:href="#m9909098002" y="255.608746"/>
     <use style="fill:#1f77b4;stroke:#1f77b4;" x="543.268243" xlink:href="#m9909098002" y="252.01634"/>
     <use style="fill:#1f77b4;stroke:#1f77b4;" x="546.06168" xlink:href="#m9909098002" y="251.352975"/>
     <use style="fill:#1f77b4;stroke:#1f77b4;" x="548.855116" xlink:href="#m9909098002" y="248.189098"/>
     <use style="fill:#1f77b4;stroke:#1f77b4;" x="551.648552" xlink:href="#m9909098002" y="247.031061"/>
     <use style="fill:#1f77b4;stroke:#1f77b4;" x="554.441988" xlink:href="#m9909098002" y="241.879467"/>
     <use style="fill:#1f77b4;stroke:#1f77b4;" x="557.235425" xlink:href="#m9909098002" y="237.634528"/>
     <use style="fill:#1f77b4;stroke:#1f77b4;" x="560.028861" xlink:href="#m9909098002" y="240.812533"/>
     <use style="fill:#1f77b4;stroke:#1f77b4;" x="562.822297" xlink:href="#m9909098002" y="249.670691"/>
     <use style="fill:#1f77b4;stroke:#1f77b4;" x="565.615734" xlink:href="#m9909098002" y="255.712055"/>
     <use style="fill:#1f77b4;stroke:#1f77b4;" x="568.40917" xlink:href="#m9909098002" y="246.634459"/>
     <use style="fill:#1f77b4;stroke:#1f77b4;" x="571.202606" xlink:href="#m9909098002" y="247.855044"/>
     <use style="fill:#1f77b4;stroke:#1f77b4;" x="573.996042" xlink:href="#m9909098002" y="276.379337"/>
     <use style="fill:#1f77b4;stroke:#1f77b4;" x="576.789479" xlink:href="#m9909098002" y="269.262702"/>
     <use style="fill:#1f77b4;stroke:#1f77b4;" x="579.582915" xlink:href="#m9909098002" y="268.261282"/>
     <use style="fill:#1f77b4;stroke:#1f77b4;" x="582.376351" xlink:href="#m9909098002" y="267.424114"/>
     <use style="fill:#1f77b4;stroke:#1f77b4;" x="585.169788" xlink:href="#m9909098002" y="264.908545"/>
     <use style="fill:#1f77b4;stroke:#1f77b4;" x="587.963224" xlink:href="#m9909098002" y="269.476671"/>
     <use style="fill:#1f77b4;stroke:#1f77b4;" x="590.75666" xlink:href="#m9909098002" y="280.582245"/>
     <use style="fill:#1f77b4;stroke:#1f77b4;" x="593.550097" xlink:href="#m9909098002" y="279.179545"/>
     <use style="fill:#1f77b4;stroke:#1f77b4;" x="596.343533" xlink:href="#m9909098002" y="278.385999"/>
     <use style="fill:#1f77b4;stroke:#1f77b4;" x="599.136969" xlink:href="#m9909098002" y="282.994676"/>
     <use style="fill:#1f77b4;stroke:#1f77b4;" x="601.930405" xlink:href="#m9909098002" y="283.652703"/>
     <use style="fill:#1f77b4;stroke:#1f77b4;" x="604.723842" xlink:href="#m9909098002" y="284.996286"/>
     <use style="fill:#1f77b4;stroke:#1f77b4;" x="607.517278" xlink:href="#m9909098002" y="285.948576"/>
     <use style="fill:#1f77b4;stroke:#1f77b4;" x="610.310714" xlink:href="#m9909098002" y="284.991043"/>
     <use style="fill:#1f77b4;stroke:#1f77b4;" x="613.104151" xlink:href="#m9909098002" y="290.807124"/>
     <use style="fill:#1f77b4;stroke:#1f77b4;" x="615.897587" xlink:href="#m9909098002" y="290.694684"/>
     <use style="fill:#1f77b4;stroke:#1f77b4;" x="618.691023" xlink:href="#m9909098002" y="308.838393"/>
     <use style="fill:#1f77b4;stroke:#1f77b4;" x="621.484459" xlink:href="#m9909098002" y="284.463928"/>
     <use style="fill:#1f77b4;stroke:#1f77b4;" x="624.277896" xlink:href="#m9909098002" y="276.998692"/>
     <use style="fill:#1f77b4;stroke:#1f77b4;" x="627.071332" xlink:href="#m9909098002" y="275.695139"/>
     <use style="fill:#1f77b4;stroke:#1f77b4;" x="629.864768" xlink:href="#m9909098002" y="274.816654"/>
     <use style="fill:#1f77b4;stroke:#1f77b4;" x="632.658205" xlink:href="#m9909098002" y="274.328623"/>
     <use style="fill:#1f77b4;stroke:#1f77b4;" x="635.451641" xlink:href="#m9909098002" y="262.702176"/>
     <use style="fill:#1f77b4;stroke:#1f77b4;" x="638.245077" xlink:href="#m9909098002" y="250.658619"/>
     <use style="fill:#1f77b4;stroke:#1f77b4;" x="641.038514" xlink:href="#m9909098002" y="242.379152"/>
     <use style="fill:#1f77b4;stroke:#1f77b4;" x="643.83195" xlink:href="#m9909098002" y="240.782021"/>
     <use style="fill:#1f77b4;stroke:#1f77b4;" x="646.625386" xlink:href="#m9909098002" y="250.817355"/>
     <use style="fill:#1f77b4;stroke:#1f77b4;" x="649.418822" xlink:href="#m9909098002" y="242.825063"/>
     <use style="fill:#1f77b4;stroke:#1f77b4;" x="652.212259" xlink:href="#m9909098002" y="255.286157"/>
     <use style="fill:#1f77b4;stroke:#1f77b4;" x="655.005695" xlink:href="#m9909098002" y="253.607126"/>
     <use style="fill:#1f77b4;stroke:#1f77b4;" x="657.799131" xlink:href="#m9909098002" y="265.012338"/>
     <use style="fill:#1f77b4;stroke:#1f77b4;" x="660.592568" xlink:href="#m9909098002" y="270.356494"/>
     <use style="fill:#1f77b4;stroke:#1f77b4;" x="663.386004" xlink:href="#m9909098002" y="263.586164"/>
     <use style="fill:#1f77b4;stroke:#1f77b4;" x="666.17944" xlink:href="#m9909098002" y="264.078294"/>
     <use style="fill:#1f77b4;stroke:#1f77b4;" x="668.972876" xlink:href="#m9909098002" y="256.24477"/>
     <use style="fill:#1f77b4;stroke:#1f77b4;" x="671.766313" xlink:href="#m9909098002" y="253.479421"/>
     <use style="fill:#1f77b4;stroke:#1f77b4;" x="674.559749" xlink:href="#m9909098002" y="259.553675"/>
     <use style="fill:#1f77b4;stroke:#1f77b4;" x="677.353185" xlink:href="#m9909098002" y="261.703919"/>
     <use style="fill:#1f77b4;stroke:#1f77b4;" x="680.146622" xlink:href="#m9909098002" y="259.525029"/>
     <use style="fill:#1f77b4;stroke:#1f77b4;" x="682.940058" xlink:href="#m9909098002" y="245.319825"/>
     <use style="fill:#1f77b4;stroke:#1f77b4;" x="685.733494" xlink:href="#m9909098002" y="249.781085"/>
     <use style="fill:#1f77b4;stroke:#1f77b4;" x="688.526931" xlink:href="#m9909098002" y="253.803138"/>
     <use style="fill:#1f77b4;stroke:#1f77b4;" x="691.320367" xlink:href="#m9909098002" y="258.077007"/>
     <use style="fill:#1f77b4;stroke:#1f77b4;" x="694.113803" xlink:href="#m9909098002" y="263.434674"/>
     <use style="fill:#1f77b4;stroke:#1f77b4;" x="696.907239" xlink:href="#m9909098002" y="260.085756"/>
     <use style="fill:#1f77b4;stroke:#1f77b4;" x="699.700676" xlink:href="#m9909098002" y="258.39124"/>
     <use style="fill:#1f77b4;stroke:#1f77b4;" x="702.494112" xlink:href="#m9909098002" y="262.119284"/>
     <use style="fill:#1f77b4;stroke:#1f77b4;" x="705.287548" xlink:href="#m9909098002" y="259.388313"/>
     <use style="fill:#1f77b4;stroke:#1f77b4;" x="708.080985" xlink:href="#m9909098002" y="244.176738"/>
     <use style="fill:#1f77b4;stroke:#1f77b4;" x="710.874421" xlink:href="#m9909098002" y="238.095969"/>
     <use style="fill:#1f77b4;stroke:#1f77b4;" x="713.667857" xlink:href="#m9909098002" y="235.974791"/>
     <use style="fill:#1f77b4;stroke:#1f77b4;" x="716.461293" xlink:href="#m9909098002" y="236.145963"/>
     <use style="fill:#1f77b4;stroke:#1f77b4;" x="719.25473" xlink:href="#m9909098002" y="229.309839"/>
     <use style="fill:#1f77b4;stroke:#1f77b4;" x="722.048166" xlink:href="#m9909098002" y="213.453666"/>
     <use style="fill:#1f77b4;stroke:#1f77b4;" x="724.841602" xlink:href="#m9909098002" y="214.63647"/>
     <use style="fill:#1f77b4;stroke:#1f77b4;" x="727.635039" xlink:href="#m9909098002" y="211.63018"/>
     <use style="fill:#1f77b4;stroke:#1f77b4;" x="730.428475" xlink:href="#m9909098002" y="214.096954"/>
     <use style="fill:#1f77b4;stroke:#1f77b4;" x="733.221911" xlink:href="#m9909098002" y="206.914384"/>
     <use style="fill:#1f77b4;stroke:#1f77b4;" x="736.015347" xlink:href="#m9909098002" y="199.864507"/>
     <use style="fill:#1f77b4;stroke:#1f77b4;" x="738.808784" xlink:href="#m9909098002" y="197.906921"/>
     <use style="fill:#1f77b4;stroke:#1f77b4;" x="741.60222" xlink:href="#m9909098002" y="191.968006"/>
     <use style="fill:#1f77b4;stroke:#1f77b4;" x="744.395656" xlink:href="#m9909098002" y="194.370719"/>
     <use style="fill:#1f77b4;stroke:#1f77b4;" x="747.189093" xlink:href="#m9909098002" y="188.368823"/>
     <use style="fill:#1f77b4;stroke:#1f77b4;" x="749.982529" xlink:href="#m9909098002" y="229.877959"/>
     <use style="fill:#1f77b4;stroke:#1f77b4;" x="752.775965" xlink:href="#m9909098002" y="200.019279"/>
     <use style="fill:#1f77b4;stroke:#1f77b4;" x="755.569402" xlink:href="#m9909098002" y="201.053234"/>
     <use style="fill:#1f77b4;stroke:#1f77b4;" x="758.362838" xlink:href="#m9909098002" y="201.940704"/>
     <use style="fill:#1f77b4;stroke:#1f77b4;" x="761.156274" xlink:href="#m9909098002" y="194.574091"/>
     <use style="fill:#1f77b4;stroke:#1f77b4;" x="763.94971" xlink:href="#m9909098002" y="202.008392"/>
     <use style="fill:#1f77b4;stroke:#1f77b4;" x="766.743147" xlink:href="#m9909098002" y="211.430923"/>
     <use style="fill:#1f77b4;stroke:#1f77b4;" x="769.536583" xlink:href="#m9909098002" y="203.909754"/>
     <use style="fill:#1f77b4;stroke:#1f77b4;" x="772.330019" xlink:href="#m9909098002" y="209.542299"/>
     <use style="fill:#1f77b4;stroke:#1f77b4;" x="775.123456" xlink:href="#m9909098002" y="198.11868"/>
     <use style="fill:#1f77b4;stroke:#1f77b4;" x="777.916892" xlink:href="#m9909098002" y="205.205178"/>
     <use style="fill:#1f77b4;stroke:#1f77b4;" x="780.710328" xlink:href="#m9909098002" y="210.284461"/>
     <use style="fill:#1f77b4;stroke:#1f77b4;" x="783.503764" xlink:href="#m9909098002" y="222.806265"/>
     <use style="fill:#1f77b4;stroke:#1f77b4;" x="786.297201" xlink:href="#m9909098002" y="227.240508"/>
     <use style="fill:#1f77b4;stroke:#1f77b4;" x="789.090637" xlink:href="#m9909098002" y="224.112958"/>
     <use style="fill:#1f77b4;stroke:#1f77b4;" x="791.884073" xlink:href="#m9909098002" y="232.258391"/>
     <use style="fill:#1f77b4;stroke:#1f77b4;" x="794.67751" xlink:href="#m9909098002" y="237.624343"/>
     <use style="fill:#1f77b4;stroke:#1f77b4;" x="797.470946" xlink:href="#m9909098002" y="233.149826"/>
     <use style="fill:#1f77b4;stroke:#1f77b4;" x="800.264382" xlink:href="#m9909098002" y="235.960557"/>
     <use style="fill:#1f77b4;stroke:#1f77b4;" x="803.057819" xlink:href="#m9909098002" y="244.952112"/>
     <use style="fill:#1f77b4;stroke:#1f77b4;" x="805.851255" xlink:href="#m9909098002" y="244.572311"/>
     <use style="fill:#1f77b4;stroke:#1f77b4;" x="808.644691" xlink:href="#m9909098002" y="240.29183"/>
     <use style="fill:#1f77b4;stroke:#1f77b4;" x="811.438127" xlink:href="#m9909098002" y="247.286524"/>
     <use style="fill:#1f77b4;stroke:#1f77b4;" x="814.231564" xlink:href="#m9909098002" y="255.115428"/>
     <use style="fill:#1f77b4;stroke:#1f77b4;" x="817.025" xlink:href="#m9909098002" y="243.096969"/>
    </g>
   </g>
   <g id="patch_3">
    <path d="M 57.35 390.04 
L 57.35 28.32 
" style="fill:none;stroke:#000000;stroke-linecap:square;stroke-linejoin:miter;stroke-width:0.8;"/>
   </g>
   <g id="patch_4">
    <path d="M 853.2 390.04 
L 853.2 28.32 
" style="fill:none;stroke:#000000;stroke-linecap:square;stroke-linejoin:miter;stroke-width:0.8;"/>
   </g>
   <g id="patch_5">
    <path d="M 57.35 390.04 
L 853.2 390.04 
" style="fill:none;stroke:#000000;stroke-linecap:square;stroke-linejoin:miter;stroke-width:0.8;"/>
   </g>
   <g id="patch_6">
    <path d="M 57.35 28.32 
L 853.2 28.32 
" style="fill:none;stroke:#000000;stroke-linecap:square;stroke-linejoin:miter;stroke-width:0.8;"/>
   </g>
   <g id="text_21">
    <!-- Durchschnittliche Preisentwicklung von Kategorie 'Fernseher' -->
    <g transform="translate(210.5425 22.32)scale(0.16 -0.16)">
     <defs>
      <path d="M 4.203125 54.6875 
L 13.1875 54.6875 
L 24.421875 12.015625 
L 35.59375 54.6875 
L 46.1875 54.6875 
L 57.421875 12.015625 
L 68.609375 54.6875 
L 77.59375 54.6875 
L 63.28125 0 
L 52.6875 0 
L 40.921875 44.828125 
L 29.109375 0 
L 18.5 0 
z
" id="DejaVuSans-119"/>
      <path d="M 45.40625 27.984375 
Q 45.40625 37.75 41.375 43.109375 
Q 37.359375 48.484375 30.078125 48.484375 
Q 22.859375 48.484375 18.828125 43.109375 
Q 14.796875 37.75 14.796875 27.984375 
Q 14.796875 18.265625 18.828125 12.890625 
Q 22.859375 7.515625 30.078125 7.515625 
Q 37.359375 7.515625 41.375 12.890625 
Q 45.40625 18.265625 45.40625 27.984375 
z
M 54.390625 6.78125 
Q 54.390625 -7.171875 48.1875 -13.984375 
Q 42 -20.796875 29.203125 -20.796875 
Q 24.46875 -20.796875 20.265625 -20.09375 
Q 16.0625 -19.390625 12.109375 -17.921875 
L 12.109375 -9.1875 
Q 16.0625 -11.328125 19.921875 -12.34375 
Q 23.78125 -13.375 27.78125 -13.375 
Q 36.625 -13.375 41.015625 -8.765625 
Q 45.40625 -4.15625 45.40625 5.171875 
L 45.40625 9.625 
Q 42.625 4.78125 38.28125 2.390625 
Q 33.9375 0 27.875 0 
Q 17.828125 0 11.671875 7.65625 
Q 5.515625 15.328125 5.515625 27.984375 
Q 5.515625 40.671875 11.671875 48.328125 
Q 17.828125 56 27.875 56 
Q 33.9375 56 38.28125 53.609375 
Q 42.625 51.21875 45.40625 46.390625 
L 45.40625 54.6875 
L 54.390625 54.6875 
z
" id="DejaVuSans-103"/>
      <path d="M 2.984375 54.6875 
L 12.5 54.6875 
L 29.59375 8.796875 
L 46.6875 54.6875 
L 56.203125 54.6875 
L 35.6875 0 
L 23.484375 0 
z
" id="DejaVuSans-118"/>
      <path d="M 9.8125 72.90625 
L 19.671875 72.90625 
L 19.671875 42.09375 
L 52.390625 72.90625 
L 65.09375 72.90625 
L 28.90625 38.921875 
L 67.671875 0 
L 54.6875 0 
L 19.671875 35.109375 
L 19.671875 0 
L 9.8125 0 
z
" id="DejaVuSans-75"/>
      <path d="M 17.921875 72.90625 
L 17.921875 45.796875 
L 9.625 45.796875 
L 9.625 72.90625 
z
" id="DejaVuSans-39"/>
      <path d="M 9.8125 72.90625 
L 51.703125 72.90625 
L 51.703125 64.59375 
L 19.671875 64.59375 
L 19.671875 43.109375 
L 48.578125 43.109375 
L 48.578125 34.8125 
L 19.671875 34.8125 
L 19.671875 0 
L 9.8125 0 
z
" id="DejaVuSans-70"/>
     </defs>
     <use xlink:href="#DejaVuSans-68"/>
     <use x="77.001953" xlink:href="#DejaVuSans-117"/>
     <use x="140.380859" xlink:href="#DejaVuSans-114"/>
     <use x="179.244141" xlink:href="#DejaVuSans-99"/>
     <use x="234.224609" xlink:href="#DejaVuSans-104"/>
     <use x="297.603516" xlink:href="#DejaVuSans-115"/>
     <use x="349.703125" xlink:href="#DejaVuSans-99"/>
     <use x="404.683594" xlink:href="#DejaVuSans-104"/>
     <use x="468.0625" xlink:href="#DejaVuSans-110"/>
     <use x="531.441406" xlink:href="#DejaVuSans-105"/>
     <use x="559.224609" xlink:href="#DejaVuSans-116"/>
     <use x="598.433594" xlink:href="#DejaVuSans-116"/>
     <use x="637.642578" xlink:href="#DejaVuSans-108"/>
     <use x="665.425781" xlink:href="#DejaVuSans-105"/>
     <use x="693.208984" xlink:href="#DejaVuSans-99"/>
     <use x="748.189453" xlink:href="#DejaVuSans-104"/>
     <use x="811.568359" xlink:href="#DejaVuSans-101"/>
     <use x="873.091797" xlink:href="#DejaVuSans-32"/>
     <use x="904.878906" xlink:href="#DejaVuSans-80"/>
     <use x="963.431641" xlink:href="#DejaVuSans-114"/>
     <use x="1002.294922" xlink:href="#DejaVuSans-101"/>
     <use x="1063.818359" xlink:href="#DejaVuSans-105"/>
     <use x="1091.601562" xlink:href="#DejaVuSans-115"/>
     <use x="1143.701172" xlink:href="#DejaVuSans-101"/>
     <use x="1205.224609" xlink:href="#DejaVuSans-110"/>
     <use x="1268.603516" xlink:href="#DejaVuSans-116"/>
     <use x="1307.8125" xlink:href="#DejaVuSans-119"/>
     <use x="1389.599609" xlink:href="#DejaVuSans-105"/>
     <use x="1417.382812" xlink:href="#DejaVuSans-99"/>
     <use x="1472.363281" xlink:href="#DejaVuSans-107"/>
     <use x="1530.273438" xlink:href="#DejaVuSans-108"/>
     <use x="1558.056641" xlink:href="#DejaVuSans-117"/>
     <use x="1621.435547" xlink:href="#DejaVuSans-110"/>
     <use x="1684.814453" xlink:href="#DejaVuSans-103"/>
     <use x="1748.291016" xlink:href="#DejaVuSans-32"/>
     <use x="1780.078125" xlink:href="#DejaVuSans-118"/>
     <use x="1839.257812" xlink:href="#DejaVuSans-111"/>
     <use x="1900.439453" xlink:href="#DejaVuSans-110"/>
     <use x="1963.818359" xlink:href="#DejaVuSans-32"/>
     <use x="1995.605469" xlink:href="#DejaVuSans-75"/>
     <use x="2059.431641" xlink:href="#DejaVuSans-97"/>
     <use x="2120.710938" xlink:href="#DejaVuSans-116"/>
     <use x="2159.919922" xlink:href="#DejaVuSans-101"/>
     <use x="2221.443359" xlink:href="#DejaVuSans-103"/>
     <use x="2284.919922" xlink:href="#DejaVuSans-111"/>
     <use x="2346.101562" xlink:href="#DejaVuSans-114"/>
     <use x="2387.214844" xlink:href="#DejaVuSans-105"/>
     <use x="2414.998047" xlink:href="#DejaVuSans-101"/>
     <use x="2476.521484" xlink:href="#DejaVuSans-32"/>
     <use x="2508.308594" xlink:href="#DejaVuSans-39"/>
     <use x="2535.798828" xlink:href="#DejaVuSans-70"/>
     <use x="2587.818359" xlink:href="#DejaVuSans-101"/>
     <use x="2649.341797" xlink:href="#DejaVuSans-114"/>
     <use x="2688.705078" xlink:href="#DejaVuSans-110"/>
     <use x="2752.083984" xlink:href="#DejaVuSans-115"/>
     <use x="2804.183594" xlink:href="#DejaVuSans-101"/>
     <use x="2865.707031" xlink:href="#DejaVuSans-104"/>
     <use x="2929.085938" xlink:href="#DejaVuSans-101"/>
     <use x="2990.609375" xlink:href="#DejaVuSans-114"/>
     <use x="3031.722656" xlink:href="#DejaVuSans-39"/>
    </g>
   </g>
  </g>
 </g>
 <defs>
  <clipPath id="pbb19b40d0a">
   <rect height="361.72" width="795.85" x="57.35" y="28.32"/>
  </clipPath>
 </defs>
</svg>
