<?xml version="1.0" encoding="utf-8" standalone="no"?>
<!DOCTYPE svg PUBLIC "-//W3C//DTD SVG 1.1//EN"
  "http://www.w3.org/Graphics/SVG/1.1/DTD/svg11.dtd">
<!-- Created with matplotlib (https://matplotlib.org/) -->
<svg height="432pt" version="1.1" viewBox="0 0 864 432" width="864pt" xmlns="http://www.w3.org/2000/svg" xmlns:xlink="http://www.w3.org/1999/xlink">
 <metadata>
  <rdf:RDF xmlns:cc="http://creativecommons.org/ns#" xmlns:dc="http://purl.org/dc/elements/1.1/" xmlns:rdf="http://www.w3.org/1999/02/22-rdf-syntax-ns#">
   <cc:Work>
    <dc:type rdf:resource="http://purl.org/dc/dcmitype/StillImage"/>
    <dc:date>2020-09-22T04:27:01.687822</dc:date>
    <dc:format>image/svg+xml</dc:format>
    <dc:creator>
     <cc:Agent>
      <dc:title>Matplotlib v3.3.2, https://matplotlib.org/</dc:title>
     </cc:Agent>
    </dc:creator>
   </cc:Work>
  </rdf:RDF>
 </metadata>
 <defs>
  <style type="text/css">*{stroke-linecap:butt;stroke-linejoin:round;}</style>
 </defs>
 <g id="figure_1">
  <g id="patch_1">
   <path d="M 0 432 
L 864 432 
L 864 0 
L 0 0 
z
" style="fill:#ffffff;"/>
  </g>
  <g id="axes_1">
   <g id="patch_2">
    <path d="M 50.96 390.04 
L 853.2 390.04 
L 853.2 28.32 
L 50.96 28.32 
z
" style="fill:#ffffff;"/>
   </g>
   <g id="matplotlib.axis_1">
    <g id="xtick_1">
     <g id="line2d_1">
      <path clip-path="url(#pc7b0d3ed44)" d="M 65.506329 390.04 
L 65.506329 28.32 
" style="fill:none;stroke:#b0b0b0;stroke-linecap:square;stroke-width:0.8;"/>
     </g>
     <g id="line2d_2">
      <defs>
       <path d="M 0 0 
L 0 3.5 
" id="mb3db642a9c" style="stroke:#000000;stroke-width:0.8;"/>
      </defs>
      <g>
       <use style="stroke:#000000;stroke-width:0.8;" x="65.506329" xlink:href="#mb3db642a9c" y="390.04"/>
      </g>
     </g>
     <g id="text_1">
      <!-- 2019-09 -->
      <g transform="translate(44.614923 404.638438)scale(0.1 -0.1)">
       <defs>
        <path d="M 19.1875 8.296875 
L 53.609375 8.296875 
L 53.609375 0 
L 7.328125 0 
L 7.328125 8.296875 
Q 12.9375 14.109375 22.625 23.890625 
Q 32.328125 33.6875 34.8125 36.53125 
Q 39.546875 41.84375 41.421875 45.53125 
Q 43.3125 49.21875 43.3125 52.78125 
Q 43.3125 58.59375 39.234375 62.25 
Q 35.15625 65.921875 28.609375 65.921875 
Q 23.96875 65.921875 18.8125 64.3125 
Q 13.671875 62.703125 7.8125 59.421875 
L 7.8125 69.390625 
Q 13.765625 71.78125 18.9375 73 
Q 24.125 74.21875 28.421875 74.21875 
Q 39.75 74.21875 46.484375 68.546875 
Q 53.21875 62.890625 53.21875 53.421875 
Q 53.21875 48.921875 51.53125 44.890625 
Q 49.859375 40.875 45.40625 35.40625 
Q 44.1875 33.984375 37.640625 27.21875 
Q 31.109375 20.453125 19.1875 8.296875 
z
" id="DejaVuSans-50"/>
        <path d="M 31.78125 66.40625 
Q 24.171875 66.40625 20.328125 58.90625 
Q 16.5 51.421875 16.5 36.375 
Q 16.5 21.390625 20.328125 13.890625 
Q 24.171875 6.390625 31.78125 6.390625 
Q 39.453125 6.390625 43.28125 13.890625 
Q 47.125 21.390625 47.125 36.375 
Q 47.125 51.421875 43.28125 58.90625 
Q 39.453125 66.40625 31.78125 66.40625 
z
M 31.78125 74.21875 
Q 44.046875 74.21875 50.515625 64.515625 
Q 56.984375 54.828125 56.984375 36.375 
Q 56.984375 17.96875 50.515625 8.265625 
Q 44.046875 -1.421875 31.78125 -1.421875 
Q 19.53125 -1.421875 13.0625 8.265625 
Q 6.59375 17.96875 6.59375 36.375 
Q 6.59375 54.828125 13.0625 64.515625 
Q 19.53125 74.21875 31.78125 74.21875 
z
" id="DejaVuSans-48"/>
        <path d="M 12.40625 8.296875 
L 28.515625 8.296875 
L 28.515625 63.921875 
L 10.984375 60.40625 
L 10.984375 69.390625 
L 28.421875 72.90625 
L 38.28125 72.90625 
L 38.28125 8.296875 
L 54.390625 8.296875 
L 54.390625 0 
L 12.40625 0 
z
" id="DejaVuSans-49"/>
        <path d="M 10.984375 1.515625 
L 10.984375 10.5 
Q 14.703125 8.734375 18.5 7.8125 
Q 22.3125 6.890625 25.984375 6.890625 
Q 35.75 6.890625 40.890625 13.453125 
Q 46.046875 20.015625 46.78125 33.40625 
Q 43.953125 29.203125 39.59375 26.953125 
Q 35.25 24.703125 29.984375 24.703125 
Q 19.046875 24.703125 12.671875 31.3125 
Q 6.296875 37.9375 6.296875 49.421875 
Q 6.296875 60.640625 12.9375 67.421875 
Q 19.578125 74.21875 30.609375 74.21875 
Q 43.265625 74.21875 49.921875 64.515625 
Q 56.59375 54.828125 56.59375 36.375 
Q 56.59375 19.140625 48.40625 8.859375 
Q 40.234375 -1.421875 26.421875 -1.421875 
Q 22.703125 -1.421875 18.890625 -0.6875 
Q 15.09375 0.046875 10.984375 1.515625 
z
M 30.609375 32.421875 
Q 37.25 32.421875 41.125 36.953125 
Q 45.015625 41.5 45.015625 49.421875 
Q 45.015625 57.28125 41.125 61.84375 
Q 37.25 66.40625 30.609375 66.40625 
Q 23.96875 66.40625 20.09375 61.84375 
Q 16.21875 57.28125 16.21875 49.421875 
Q 16.21875 41.5 20.09375 36.953125 
Q 23.96875 32.421875 30.609375 32.421875 
z
" id="DejaVuSans-57"/>
        <path d="M 4.890625 31.390625 
L 31.203125 31.390625 
L 31.203125 23.390625 
L 4.890625 23.390625 
z
" id="DejaVuSans-45"/>
       </defs>
       <use xlink:href="#DejaVuSans-50"/>
       <use x="63.623047" xlink:href="#DejaVuSans-48"/>
       <use x="127.246094" xlink:href="#DejaVuSans-49"/>
       <use x="190.869141" xlink:href="#DejaVuSans-57"/>
       <use x="254.492188" xlink:href="#DejaVuSans-45"/>
       <use x="290.576172" xlink:href="#DejaVuSans-48"/>
       <use x="354.199219" xlink:href="#DejaVuSans-57"/>
      </g>
     </g>
    </g>
    <g id="xtick_2">
     <g id="line2d_3">
      <path clip-path="url(#pc7b0d3ed44)" d="M 187.057844 390.04 
L 187.057844 28.32 
" style="fill:none;stroke:#b0b0b0;stroke-linecap:square;stroke-width:0.8;"/>
     </g>
     <g id="line2d_4">
      <g>
       <use style="stroke:#000000;stroke-width:0.8;" x="187.057844" xlink:href="#mb3db642a9c" y="390.04"/>
      </g>
     </g>
     <g id="text_2">
      <!-- 2019-11 -->
      <g transform="translate(166.166438 404.638438)scale(0.1 -0.1)">
       <use xlink:href="#DejaVuSans-50"/>
       <use x="63.623047" xlink:href="#DejaVuSans-48"/>
       <use x="127.246094" xlink:href="#DejaVuSans-49"/>
       <use x="190.869141" xlink:href="#DejaVuSans-57"/>
       <use x="254.492188" xlink:href="#DejaVuSans-45"/>
       <use x="290.576172" xlink:href="#DejaVuSans-49"/>
       <use x="354.199219" xlink:href="#DejaVuSans-49"/>
      </g>
     </g>
    </g>
    <g id="xtick_3">
     <g id="line2d_5">
      <path clip-path="url(#pc7b0d3ed44)" d="M 308.609359 390.04 
L 308.609359 28.32 
" style="fill:none;stroke:#b0b0b0;stroke-linecap:square;stroke-width:0.8;"/>
     </g>
     <g id="line2d_6">
      <g>
       <use style="stroke:#000000;stroke-width:0.8;" x="308.609359" xlink:href="#mb3db642a9c" y="390.04"/>
      </g>
     </g>
     <g id="text_3">
      <!-- 2020-01 -->
      <g transform="translate(287.717953 404.638438)scale(0.1 -0.1)">
       <use xlink:href="#DejaVuSans-50"/>
       <use x="63.623047" xlink:href="#DejaVuSans-48"/>
       <use x="127.246094" xlink:href="#DejaVuSans-50"/>
       <use x="190.869141" xlink:href="#DejaVuSans-48"/>
       <use x="254.492188" xlink:href="#DejaVuSans-45"/>
       <use x="290.576172" xlink:href="#DejaVuSans-48"/>
       <use x="354.199219" xlink:href="#DejaVuSans-49"/>
      </g>
     </g>
    </g>
    <g id="xtick_4">
     <g id="line2d_7">
      <path clip-path="url(#pc7b0d3ed44)" d="M 428.168227 390.04 
L 428.168227 28.32 
" style="fill:none;stroke:#b0b0b0;stroke-linecap:square;stroke-width:0.8;"/>
     </g>
     <g id="line2d_8">
      <g>
       <use style="stroke:#000000;stroke-width:0.8;" x="428.168227" xlink:href="#mb3db642a9c" y="390.04"/>
      </g>
     </g>
     <g id="text_4">
      <!-- 2020-03 -->
      <g transform="translate(407.27682 404.638438)scale(0.1 -0.1)">
       <defs>
        <path d="M 40.578125 39.3125 
Q 47.65625 37.796875 51.625 33 
Q 55.609375 28.21875 55.609375 21.1875 
Q 55.609375 10.40625 48.1875 4.484375 
Q 40.765625 -1.421875 27.09375 -1.421875 
Q 22.515625 -1.421875 17.65625 -0.515625 
Q 12.796875 0.390625 7.625 2.203125 
L 7.625 11.71875 
Q 11.71875 9.328125 16.59375 8.109375 
Q 21.484375 6.890625 26.8125 6.890625 
Q 36.078125 6.890625 40.9375 10.546875 
Q 45.796875 14.203125 45.796875 21.1875 
Q 45.796875 27.640625 41.28125 31.265625 
Q 36.765625 34.90625 28.71875 34.90625 
L 20.21875 34.90625 
L 20.21875 43.015625 
L 29.109375 43.015625 
Q 36.375 43.015625 40.234375 45.921875 
Q 44.09375 48.828125 44.09375 54.296875 
Q 44.09375 59.90625 40.109375 62.90625 
Q 36.140625 65.921875 28.71875 65.921875 
Q 24.65625 65.921875 20.015625 65.03125 
Q 15.375 64.15625 9.8125 62.3125 
L 9.8125 71.09375 
Q 15.4375 72.65625 20.34375 73.4375 
Q 25.25 74.21875 29.59375 74.21875 
Q 40.828125 74.21875 47.359375 69.109375 
Q 53.90625 64.015625 53.90625 55.328125 
Q 53.90625 49.265625 50.4375 45.09375 
Q 46.96875 40.921875 40.578125 39.3125 
z
" id="DejaVuSans-51"/>
       </defs>
       <use xlink:href="#DejaVuSans-50"/>
       <use x="63.623047" xlink:href="#DejaVuSans-48"/>
       <use x="127.246094" xlink:href="#DejaVuSans-50"/>
       <use x="190.869141" xlink:href="#DejaVuSans-48"/>
       <use x="254.492188" xlink:href="#DejaVuSans-45"/>
       <use x="290.576172" xlink:href="#DejaVuSans-48"/>
       <use x="354.199219" xlink:href="#DejaVuSans-51"/>
      </g>
     </g>
    </g>
    <g id="xtick_5">
     <g id="line2d_9">
      <path clip-path="url(#pc7b0d3ed44)" d="M 549.719742 390.04 
L 549.719742 28.32 
" style="fill:none;stroke:#b0b0b0;stroke-linecap:square;stroke-width:0.8;"/>
     </g>
     <g id="line2d_10">
      <g>
       <use style="stroke:#000000;stroke-width:0.8;" x="549.719742" xlink:href="#mb3db642a9c" y="390.04"/>
      </g>
     </g>
     <g id="text_5">
      <!-- 2020-05 -->
      <g transform="translate(528.828335 404.638438)scale(0.1 -0.1)">
       <defs>
        <path d="M 10.796875 72.90625 
L 49.515625 72.90625 
L 49.515625 64.59375 
L 19.828125 64.59375 
L 19.828125 46.734375 
Q 21.96875 47.46875 24.109375 47.828125 
Q 26.265625 48.1875 28.421875 48.1875 
Q 40.625 48.1875 47.75 41.5 
Q 54.890625 34.8125 54.890625 23.390625 
Q 54.890625 11.625 47.5625 5.09375 
Q 40.234375 -1.421875 26.90625 -1.421875 
Q 22.3125 -1.421875 17.546875 -0.640625 
Q 12.796875 0.140625 7.71875 1.703125 
L 7.71875 11.625 
Q 12.109375 9.234375 16.796875 8.0625 
Q 21.484375 6.890625 26.703125 6.890625 
Q 35.15625 6.890625 40.078125 11.328125 
Q 45.015625 15.765625 45.015625 23.390625 
Q 45.015625 31 40.078125 35.4375 
Q 35.15625 39.890625 26.703125 39.890625 
Q 22.75 39.890625 18.8125 39.015625 
Q 14.890625 38.140625 10.796875 36.28125 
z
" id="DejaVuSans-53"/>
       </defs>
       <use xlink:href="#DejaVuSans-50"/>
       <use x="63.623047" xlink:href="#DejaVuSans-48"/>
       <use x="127.246094" xlink:href="#DejaVuSans-50"/>
       <use x="190.869141" xlink:href="#DejaVuSans-48"/>
       <use x="254.492188" xlink:href="#DejaVuSans-45"/>
       <use x="290.576172" xlink:href="#DejaVuSans-48"/>
       <use x="354.199219" xlink:href="#DejaVuSans-53"/>
      </g>
     </g>
    </g>
    <g id="xtick_6">
     <g id="line2d_11">
      <path clip-path="url(#pc7b0d3ed44)" d="M 671.271257 390.04 
L 671.271257 28.32 
" style="fill:none;stroke:#b0b0b0;stroke-linecap:square;stroke-width:0.8;"/>
     </g>
     <g id="line2d_12">
      <g>
       <use style="stroke:#000000;stroke-width:0.8;" x="671.271257" xlink:href="#mb3db642a9c" y="390.04"/>
      </g>
     </g>
     <g id="text_6">
      <!-- 2020-07 -->
      <g transform="translate(650.379851 404.638438)scale(0.1 -0.1)">
       <defs>
        <path d="M 8.203125 72.90625 
L 55.078125 72.90625 
L 55.078125 68.703125 
L 28.609375 0 
L 18.3125 0 
L 43.21875 64.59375 
L 8.203125 64.59375 
z
" id="DejaVuSans-55"/>
       </defs>
       <use xlink:href="#DejaVuSans-50"/>
       <use x="63.623047" xlink:href="#DejaVuSans-48"/>
       <use x="127.246094" xlink:href="#DejaVuSans-50"/>
       <use x="190.869141" xlink:href="#DejaVuSans-48"/>
       <use x="254.492188" xlink:href="#DejaVuSans-45"/>
       <use x="290.576172" xlink:href="#DejaVuSans-48"/>
       <use x="354.199219" xlink:href="#DejaVuSans-55"/>
      </g>
     </g>
    </g>
    <g id="xtick_7">
     <g id="line2d_13">
      <path clip-path="url(#pc7b0d3ed44)" d="M 794.81542 390.04 
L 794.81542 28.32 
" style="fill:none;stroke:#b0b0b0;stroke-linecap:square;stroke-width:0.8;"/>
     </g>
     <g id="line2d_14">
      <g>
       <use style="stroke:#000000;stroke-width:0.8;" x="794.81542" xlink:href="#mb3db642a9c" y="390.04"/>
      </g>
     </g>
     <g id="text_7">
      <!-- 2020-09 -->
      <g transform="translate(773.924014 404.638438)scale(0.1 -0.1)">
       <use xlink:href="#DejaVuSans-50"/>
       <use x="63.623047" xlink:href="#DejaVuSans-48"/>
       <use x="127.246094" xlink:href="#DejaVuSans-50"/>
       <use x="190.869141" xlink:href="#DejaVuSans-48"/>
       <use x="254.492188" xlink:href="#DejaVuSans-45"/>
       <use x="290.576172" xlink:href="#DejaVuSans-48"/>
       <use x="354.199219" xlink:href="#DejaVuSans-57"/>
      </g>
     </g>
    </g>
    <g id="text_8">
     <!-- Datum -->
     <g transform="translate(435.166719 418.316562)scale(0.1 -0.1)">
      <defs>
       <path d="M 19.671875 64.796875 
L 19.671875 8.109375 
L 31.59375 8.109375 
Q 46.6875 8.109375 53.6875 14.9375 
Q 60.6875 21.78125 60.6875 36.53125 
Q 60.6875 51.171875 53.6875 57.984375 
Q 46.6875 64.796875 31.59375 64.796875 
z
M 9.8125 72.90625 
L 30.078125 72.90625 
Q 51.265625 72.90625 61.171875 64.09375 
Q 71.09375 55.28125 71.09375 36.53125 
Q 71.09375 17.671875 61.125 8.828125 
Q 51.171875 0 30.078125 0 
L 9.8125 0 
z
" id="DejaVuSans-68"/>
       <path d="M 34.28125 27.484375 
Q 23.390625 27.484375 19.1875 25 
Q 14.984375 22.515625 14.984375 16.5 
Q 14.984375 11.71875 18.140625 8.90625 
Q 21.296875 6.109375 26.703125 6.109375 
Q 34.1875 6.109375 38.703125 11.40625 
Q 43.21875 16.703125 43.21875 25.484375 
L 43.21875 27.484375 
z
M 52.203125 31.203125 
L 52.203125 0 
L 43.21875 0 
L 43.21875 8.296875 
Q 40.140625 3.328125 35.546875 0.953125 
Q 30.953125 -1.421875 24.3125 -1.421875 
Q 15.921875 -1.421875 10.953125 3.296875 
Q 6 8.015625 6 15.921875 
Q 6 25.140625 12.171875 29.828125 
Q 18.359375 34.515625 30.609375 34.515625 
L 43.21875 34.515625 
L 43.21875 35.40625 
Q 43.21875 41.609375 39.140625 45 
Q 35.0625 48.390625 27.6875 48.390625 
Q 23 48.390625 18.546875 47.265625 
Q 14.109375 46.140625 10.015625 43.890625 
L 10.015625 52.203125 
Q 14.9375 54.109375 19.578125 55.046875 
Q 24.21875 56 28.609375 56 
Q 40.484375 56 46.34375 49.84375 
Q 52.203125 43.703125 52.203125 31.203125 
z
" id="DejaVuSans-97"/>
       <path d="M 18.3125 70.21875 
L 18.3125 54.6875 
L 36.8125 54.6875 
L 36.8125 47.703125 
L 18.3125 47.703125 
L 18.3125 18.015625 
Q 18.3125 11.328125 20.140625 9.421875 
Q 21.96875 7.515625 27.59375 7.515625 
L 36.8125 7.515625 
L 36.8125 0 
L 27.59375 0 
Q 17.1875 0 13.234375 3.875 
Q 9.28125 7.765625 9.28125 18.015625 
L 9.28125 47.703125 
L 2.6875 47.703125 
L 2.6875 54.6875 
L 9.28125 54.6875 
L 9.28125 70.21875 
z
" id="DejaVuSans-116"/>
       <path d="M 8.5 21.578125 
L 8.5 54.6875 
L 17.484375 54.6875 
L 17.484375 21.921875 
Q 17.484375 14.15625 20.5 10.265625 
Q 23.53125 6.390625 29.59375 6.390625 
Q 36.859375 6.390625 41.078125 11.03125 
Q 45.3125 15.671875 45.3125 23.6875 
L 45.3125 54.6875 
L 54.296875 54.6875 
L 54.296875 0 
L 45.3125 0 
L 45.3125 8.40625 
Q 42.046875 3.421875 37.71875 1 
Q 33.40625 -1.421875 27.6875 -1.421875 
Q 18.265625 -1.421875 13.375 4.4375 
Q 8.5 10.296875 8.5 21.578125 
z
M 31.109375 56 
z
" id="DejaVuSans-117"/>
       <path d="M 52 44.1875 
Q 55.375 50.25 60.0625 53.125 
Q 64.75 56 71.09375 56 
Q 79.640625 56 84.28125 50.015625 
Q 88.921875 44.046875 88.921875 33.015625 
L 88.921875 0 
L 79.890625 0 
L 79.890625 32.71875 
Q 79.890625 40.578125 77.09375 44.375 
Q 74.3125 48.1875 68.609375 48.1875 
Q 61.625 48.1875 57.5625 43.546875 
Q 53.515625 38.921875 53.515625 30.90625 
L 53.515625 0 
L 44.484375 0 
L 44.484375 32.71875 
Q 44.484375 40.625 41.703125 44.40625 
Q 38.921875 48.1875 33.109375 48.1875 
Q 26.21875 48.1875 22.15625 43.53125 
Q 18.109375 38.875 18.109375 30.90625 
L 18.109375 0 
L 9.078125 0 
L 9.078125 54.6875 
L 18.109375 54.6875 
L 18.109375 46.1875 
Q 21.1875 51.21875 25.484375 53.609375 
Q 29.78125 56 35.6875 56 
Q 41.65625 56 45.828125 52.96875 
Q 50 49.953125 52 44.1875 
z
" id="DejaVuSans-109"/>
      </defs>
      <use xlink:href="#DejaVuSans-68"/>
      <use x="77.001953" xlink:href="#DejaVuSans-97"/>
      <use x="138.28125" xlink:href="#DejaVuSans-116"/>
      <use x="177.490234" xlink:href="#DejaVuSans-117"/>
      <use x="240.869141" xlink:href="#DejaVuSans-109"/>
     </g>
    </g>
   </g>
   <g id="matplotlib.axis_2">
    <g id="ytick_1">
     <g id="line2d_15">
      <path clip-path="url(#pc7b0d3ed44)" d="M 50.96 353.786383 
L 853.2 353.786383 
" style="fill:none;stroke:#b0b0b0;stroke-linecap:square;stroke-width:0.8;"/>
     </g>
     <g id="line2d_16">
      <defs>
       <path d="M 0 0 
L -3.5 0 
" id="mfd4d27f934" style="stroke:#000000;stroke-width:0.8;"/>
      </defs>
      <g>
       <use style="stroke:#000000;stroke-width:0.8;" x="50.96" xlink:href="#mfd4d27f934" y="353.786383"/>
      </g>
     </g>
     <g id="text_9">
      <!-- 100 -->
      <g transform="translate(24.8725 357.585602)scale(0.1 -0.1)">
       <use xlink:href="#DejaVuSans-49"/>
       <use x="63.623047" xlink:href="#DejaVuSans-48"/>
       <use x="127.246094" xlink:href="#DejaVuSans-48"/>
      </g>
     </g>
    </g>
    <g id="ytick_2">
     <g id="line2d_17">
      <path clip-path="url(#pc7b0d3ed44)" d="M 50.96 287.966455 
L 853.2 287.966455 
" style="fill:none;stroke:#b0b0b0;stroke-linecap:square;stroke-width:0.8;"/>
     </g>
     <g id="line2d_18">
      <g>
       <use style="stroke:#000000;stroke-width:0.8;" x="50.96" xlink:href="#mfd4d27f934" y="287.966455"/>
      </g>
     </g>
     <g id="text_10">
      <!-- 110 -->
      <g transform="translate(24.8725 291.765673)scale(0.1 -0.1)">
       <use xlink:href="#DejaVuSans-49"/>
       <use x="63.623047" xlink:href="#DejaVuSans-49"/>
       <use x="127.246094" xlink:href="#DejaVuSans-48"/>
      </g>
     </g>
    </g>
    <g id="ytick_3">
     <g id="line2d_19">
      <path clip-path="url(#pc7b0d3ed44)" d="M 50.96 222.146526 
L 853.2 222.146526 
" style="fill:none;stroke:#b0b0b0;stroke-linecap:square;stroke-width:0.8;"/>
     </g>
     <g id="line2d_20">
      <g>
       <use style="stroke:#000000;stroke-width:0.8;" x="50.96" xlink:href="#mfd4d27f934" y="222.146526"/>
      </g>
     </g>
     <g id="text_11">
      <!-- 120 -->
      <g transform="translate(24.8725 225.945745)scale(0.1 -0.1)">
       <use xlink:href="#DejaVuSans-49"/>
       <use x="63.623047" xlink:href="#DejaVuSans-50"/>
       <use x="127.246094" xlink:href="#DejaVuSans-48"/>
      </g>
     </g>
    </g>
    <g id="ytick_4">
     <g id="line2d_21">
      <path clip-path="url(#pc7b0d3ed44)" d="M 50.96 156.326597 
L 853.2 156.326597 
" style="fill:none;stroke:#b0b0b0;stroke-linecap:square;stroke-width:0.8;"/>
     </g>
     <g id="line2d_22">
      <g>
       <use style="stroke:#000000;stroke-width:0.8;" x="50.96" xlink:href="#mfd4d27f934" y="156.326597"/>
      </g>
     </g>
     <g id="text_12">
      <!-- 130 -->
      <g transform="translate(24.8725 160.125816)scale(0.1 -0.1)">
       <use xlink:href="#DejaVuSans-49"/>
       <use x="63.623047" xlink:href="#DejaVuSans-51"/>
       <use x="127.246094" xlink:href="#DejaVuSans-48"/>
      </g>
     </g>
    </g>
    <g id="ytick_5">
     <g id="line2d_23">
      <path clip-path="url(#pc7b0d3ed44)" d="M 50.96 90.506669 
L 853.2 90.506669 
" style="fill:none;stroke:#b0b0b0;stroke-linecap:square;stroke-width:0.8;"/>
     </g>
     <g id="line2d_24">
      <g>
       <use style="stroke:#000000;stroke-width:0.8;" x="50.96" xlink:href="#mfd4d27f934" y="90.506669"/>
      </g>
     </g>
     <g id="text_13">
      <!-- 140 -->
      <g transform="translate(24.8725 94.305887)scale(0.1 -0.1)">
       <defs>
        <path d="M 37.796875 64.3125 
L 12.890625 25.390625 
L 37.796875 25.390625 
z
M 35.203125 72.90625 
L 47.609375 72.90625 
L 47.609375 25.390625 
L 58.015625 25.390625 
L 58.015625 17.1875 
L 47.609375 17.1875 
L 47.609375 0 
L 37.796875 0 
L 37.796875 17.1875 
L 4.890625 17.1875 
L 4.890625 26.703125 
z
" id="DejaVuSans-52"/>
       </defs>
       <use xlink:href="#DejaVuSans-49"/>
       <use x="63.623047" xlink:href="#DejaVuSans-52"/>
       <use x="127.246094" xlink:href="#DejaVuSans-48"/>
      </g>
     </g>
    </g>
    <g id="text_14">
     <!-- durchschnittliche Produktpreise (€) -->
     <g transform="translate(18.792813 296.810469)rotate(-90)scale(0.1 -0.1)">
      <defs>
       <path d="M 45.40625 46.390625 
L 45.40625 75.984375 
L 54.390625 75.984375 
L 54.390625 0 
L 45.40625 0 
L 45.40625 8.203125 
Q 42.578125 3.328125 38.25 0.953125 
Q 33.9375 -1.421875 27.875 -1.421875 
Q 17.96875 -1.421875 11.734375 6.484375 
Q 5.515625 14.40625 5.515625 27.296875 
Q 5.515625 40.1875 11.734375 48.09375 
Q 17.96875 56 27.875 56 
Q 33.9375 56 38.25 53.625 
Q 42.578125 51.265625 45.40625 46.390625 
z
M 14.796875 27.296875 
Q 14.796875 17.390625 18.875 11.75 
Q 22.953125 6.109375 30.078125 6.109375 
Q 37.203125 6.109375 41.296875 11.75 
Q 45.40625 17.390625 45.40625 27.296875 
Q 45.40625 37.203125 41.296875 42.84375 
Q 37.203125 48.484375 30.078125 48.484375 
Q 22.953125 48.484375 18.875 42.84375 
Q 14.796875 37.203125 14.796875 27.296875 
z
" id="DejaVuSans-100"/>
       <path d="M 41.109375 46.296875 
Q 39.59375 47.171875 37.8125 47.578125 
Q 36.03125 48 33.890625 48 
Q 26.265625 48 22.1875 43.046875 
Q 18.109375 38.09375 18.109375 28.8125 
L 18.109375 0 
L 9.078125 0 
L 9.078125 54.6875 
L 18.109375 54.6875 
L 18.109375 46.1875 
Q 20.953125 51.171875 25.484375 53.578125 
Q 30.03125 56 36.53125 56 
Q 37.453125 56 38.578125 55.875 
Q 39.703125 55.765625 41.0625 55.515625 
z
" id="DejaVuSans-114"/>
       <path d="M 48.78125 52.59375 
L 48.78125 44.1875 
Q 44.96875 46.296875 41.140625 47.34375 
Q 37.3125 48.390625 33.40625 48.390625 
Q 24.65625 48.390625 19.8125 42.84375 
Q 14.984375 37.3125 14.984375 27.296875 
Q 14.984375 17.28125 19.8125 11.734375 
Q 24.65625 6.203125 33.40625 6.203125 
Q 37.3125 6.203125 41.140625 7.25 
Q 44.96875 8.296875 48.78125 10.40625 
L 48.78125 2.09375 
Q 45.015625 0.34375 40.984375 -0.53125 
Q 36.96875 -1.421875 32.421875 -1.421875 
Q 20.0625 -1.421875 12.78125 6.34375 
Q 5.515625 14.109375 5.515625 27.296875 
Q 5.515625 40.671875 12.859375 48.328125 
Q 20.21875 56 33.015625 56 
Q 37.15625 56 41.109375 55.140625 
Q 45.0625 54.296875 48.78125 52.59375 
z
" id="DejaVuSans-99"/>
       <path d="M 54.890625 33.015625 
L 54.890625 0 
L 45.90625 0 
L 45.90625 32.71875 
Q 45.90625 40.484375 42.875 44.328125 
Q 39.84375 48.1875 33.796875 48.1875 
Q 26.515625 48.1875 22.3125 43.546875 
Q 18.109375 38.921875 18.109375 30.90625 
L 18.109375 0 
L 9.078125 0 
L 9.078125 75.984375 
L 18.109375 75.984375 
L 18.109375 46.1875 
Q 21.34375 51.125 25.703125 53.5625 
Q 30.078125 56 35.796875 56 
Q 45.21875 56 50.046875 50.171875 
Q 54.890625 44.34375 54.890625 33.015625 
z
" id="DejaVuSans-104"/>
       <path d="M 44.28125 53.078125 
L 44.28125 44.578125 
Q 40.484375 46.53125 36.375 47.5 
Q 32.28125 48.484375 27.875 48.484375 
Q 21.1875 48.484375 17.84375 46.4375 
Q 14.5 44.390625 14.5 40.28125 
Q 14.5 37.15625 16.890625 35.375 
Q 19.28125 33.59375 26.515625 31.984375 
L 29.59375 31.296875 
Q 39.15625 29.25 43.1875 25.515625 
Q 47.21875 21.78125 47.21875 15.09375 
Q 47.21875 7.46875 41.1875 3.015625 
Q 35.15625 -1.421875 24.609375 -1.421875 
Q 20.21875 -1.421875 15.453125 -0.5625 
Q 10.6875 0.296875 5.421875 2 
L 5.421875 11.28125 
Q 10.40625 8.6875 15.234375 7.390625 
Q 20.0625 6.109375 24.8125 6.109375 
Q 31.15625 6.109375 34.5625 8.28125 
Q 37.984375 10.453125 37.984375 14.40625 
Q 37.984375 18.0625 35.515625 20.015625 
Q 33.0625 21.96875 24.703125 23.78125 
L 21.578125 24.515625 
Q 13.234375 26.265625 9.515625 29.90625 
Q 5.8125 33.546875 5.8125 39.890625 
Q 5.8125 47.609375 11.28125 51.796875 
Q 16.75 56 26.8125 56 
Q 31.78125 56 36.171875 55.265625 
Q 40.578125 54.546875 44.28125 53.078125 
z
" id="DejaVuSans-115"/>
       <path d="M 54.890625 33.015625 
L 54.890625 0 
L 45.90625 0 
L 45.90625 32.71875 
Q 45.90625 40.484375 42.875 44.328125 
Q 39.84375 48.1875 33.796875 48.1875 
Q 26.515625 48.1875 22.3125 43.546875 
Q 18.109375 38.921875 18.109375 30.90625 
L 18.109375 0 
L 9.078125 0 
L 9.078125 54.6875 
L 18.109375 54.6875 
L 18.109375 46.1875 
Q 21.34375 51.125 25.703125 53.5625 
Q 30.078125 56 35.796875 56 
Q 45.21875 56 50.046875 50.171875 
Q 54.890625 44.34375 54.890625 33.015625 
z
" id="DejaVuSans-110"/>
       <path d="M 9.421875 54.6875 
L 18.40625 54.6875 
L 18.40625 0 
L 9.421875 0 
z
M 9.421875 75.984375 
L 18.40625 75.984375 
L 18.40625 64.59375 
L 9.421875 64.59375 
z
" id="DejaVuSans-105"/>
       <path d="M 9.421875 75.984375 
L 18.40625 75.984375 
L 18.40625 0 
L 9.421875 0 
z
" id="DejaVuSans-108"/>
       <path d="M 56.203125 29.59375 
L 56.203125 25.203125 
L 14.890625 25.203125 
Q 15.484375 15.921875 20.484375 11.0625 
Q 25.484375 6.203125 34.421875 6.203125 
Q 39.59375 6.203125 44.453125 7.46875 
Q 49.3125 8.734375 54.109375 11.28125 
L 54.109375 2.78125 
Q 49.265625 0.734375 44.1875 -0.34375 
Q 39.109375 -1.421875 33.890625 -1.421875 
Q 20.796875 -1.421875 13.15625 6.1875 
Q 5.515625 13.8125 5.515625 26.8125 
Q 5.515625 40.234375 12.765625 48.109375 
Q 20.015625 56 32.328125 56 
Q 43.359375 56 49.78125 48.890625 
Q 56.203125 41.796875 56.203125 29.59375 
z
M 47.21875 32.234375 
Q 47.125 39.59375 43.09375 43.984375 
Q 39.0625 48.390625 32.421875 48.390625 
Q 24.90625 48.390625 20.390625 44.140625 
Q 15.875 39.890625 15.1875 32.171875 
z
" id="DejaVuSans-101"/>
       <path id="DejaVuSans-32"/>
       <path d="M 19.671875 64.796875 
L 19.671875 37.40625 
L 32.078125 37.40625 
Q 38.96875 37.40625 42.71875 40.96875 
Q 46.484375 44.53125 46.484375 51.125 
Q 46.484375 57.671875 42.71875 61.234375 
Q 38.96875 64.796875 32.078125 64.796875 
z
M 9.8125 72.90625 
L 32.078125 72.90625 
Q 44.34375 72.90625 50.609375 67.359375 
Q 56.890625 61.8125 56.890625 51.125 
Q 56.890625 40.328125 50.609375 34.8125 
Q 44.34375 29.296875 32.078125 29.296875 
L 19.671875 29.296875 
L 19.671875 0 
L 9.8125 0 
z
" id="DejaVuSans-80"/>
       <path d="M 30.609375 48.390625 
Q 23.390625 48.390625 19.1875 42.75 
Q 14.984375 37.109375 14.984375 27.296875 
Q 14.984375 17.484375 19.15625 11.84375 
Q 23.34375 6.203125 30.609375 6.203125 
Q 37.796875 6.203125 41.984375 11.859375 
Q 46.1875 17.53125 46.1875 27.296875 
Q 46.1875 37.015625 41.984375 42.703125 
Q 37.796875 48.390625 30.609375 48.390625 
z
M 30.609375 56 
Q 42.328125 56 49.015625 48.375 
Q 55.71875 40.765625 55.71875 27.296875 
Q 55.71875 13.875 49.015625 6.21875 
Q 42.328125 -1.421875 30.609375 -1.421875 
Q 18.84375 -1.421875 12.171875 6.21875 
Q 5.515625 13.875 5.515625 27.296875 
Q 5.515625 40.765625 12.171875 48.375 
Q 18.84375 56 30.609375 56 
z
" id="DejaVuSans-111"/>
       <path d="M 9.078125 75.984375 
L 18.109375 75.984375 
L 18.109375 31.109375 
L 44.921875 54.6875 
L 56.390625 54.6875 
L 27.390625 29.109375 
L 57.625 0 
L 45.90625 0 
L 18.109375 26.703125 
L 18.109375 0 
L 9.078125 0 
z
" id="DejaVuSans-107"/>
       <path d="M 18.109375 8.203125 
L 18.109375 -20.796875 
L 9.078125 -20.796875 
L 9.078125 54.6875 
L 18.109375 54.6875 
L 18.109375 46.390625 
Q 20.953125 51.265625 25.265625 53.625 
Q 29.59375 56 35.59375 56 
Q 45.5625 56 51.78125 48.09375 
Q 58.015625 40.1875 58.015625 27.296875 
Q 58.015625 14.40625 51.78125 6.484375 
Q 45.5625 -1.421875 35.59375 -1.421875 
Q 29.59375 -1.421875 25.265625 0.953125 
Q 20.953125 3.328125 18.109375 8.203125 
z
M 48.6875 27.296875 
Q 48.6875 37.203125 44.609375 42.84375 
Q 40.53125 48.484375 33.40625 48.484375 
Q 26.265625 48.484375 22.1875 42.84375 
Q 18.109375 37.203125 18.109375 27.296875 
Q 18.109375 17.390625 22.1875 11.75 
Q 26.265625 6.109375 33.40625 6.109375 
Q 40.53125 6.109375 44.609375 11.75 
Q 48.6875 17.390625 48.6875 27.296875 
z
" id="DejaVuSans-112"/>
       <path d="M 31 75.875 
Q 24.46875 64.65625 21.28125 53.65625 
Q 18.109375 42.671875 18.109375 31.390625 
Q 18.109375 20.125 21.3125 9.0625 
Q 24.515625 -2 31 -13.1875 
L 23.1875 -13.1875 
Q 15.875 -1.703125 12.234375 9.375 
Q 8.59375 20.453125 8.59375 31.390625 
Q 8.59375 42.28125 12.203125 53.3125 
Q 15.828125 64.359375 23.1875 75.875 
z
" id="DejaVuSans-40"/>
       <path d="M 56.984375 67.28125 
L 56.984375 56.890625 
Q 52.546875 62.015625 48.40625 64.203125 
Q 44.28125 66.40625 39.3125 66.40625 
Q 31.640625 66.40625 26.703125 61.515625 
Q 21.78125 56.640625 20.21875 47.515625 
L 48.390625 47.515625 
L 45.703125 41.5 
L 19.4375 41.5 
Q 19.34375 40.328125 19.3125 39.203125 
Q 19.28125 38.09375 19.28125 36.375 
Q 19.28125 34.8125 19.3125 33.6875 
Q 19.34375 32.5625 19.4375 31.390625 
L 41.21875 31.390625 
L 38.484375 25.390625 
L 20.21875 25.390625 
Q 21.78125 16.265625 26.703125 11.328125 
Q 31.640625 6.390625 39.3125 6.390625 
Q 44.28125 6.390625 48.40625 8.59375 
Q 52.546875 10.796875 56.984375 15.921875 
L 56.984375 5.609375 
Q 52.640625 2.09375 48.125 0.328125 
Q 43.609375 -1.421875 38.921875 -1.421875 
Q 27.34375 -1.421875 19.796875 5.65625 
Q 12.25 12.75 10.296875 25.390625 
L 0 25.390625 
L 2.6875 31.390625 
L 9.46875 31.390625 
Q 9.46875 32.515625 9.4375 33.65625 
Q 9.421875 34.8125 9.421875 36.375 
Q 9.421875 38.09375 9.4375 39.234375 
Q 9.46875 40.375 9.46875 41.5 
L 0 41.5 
L 2.6875 47.515625 
L 10.296875 47.515625 
Q 12.25 60.0625 19.8125 67.140625 
Q 27.390625 74.21875 38.921875 74.21875 
Q 43.703125 74.21875 48.21875 72.484375 
Q 52.734375 70.75 56.984375 67.28125 
z
" id="DejaVuSans-8364"/>
       <path d="M 8.015625 75.875 
L 15.828125 75.875 
Q 23.140625 64.359375 26.78125 53.3125 
Q 30.421875 42.28125 30.421875 31.390625 
Q 30.421875 20.453125 26.78125 9.375 
Q 23.140625 -1.703125 15.828125 -13.1875 
L 8.015625 -13.1875 
Q 14.5 -2 17.703125 9.0625 
Q 20.90625 20.125 20.90625 31.390625 
Q 20.90625 42.671875 17.703125 53.65625 
Q 14.5 64.65625 8.015625 75.875 
z
" id="DejaVuSans-41"/>
      </defs>
      <use xlink:href="#DejaVuSans-100"/>
      <use x="63.476562" xlink:href="#DejaVuSans-117"/>
      <use x="126.855469" xlink:href="#DejaVuSans-114"/>
      <use x="165.71875" xlink:href="#DejaVuSans-99"/>
      <use x="220.699219" xlink:href="#DejaVuSans-104"/>
      <use x="284.078125" xlink:href="#DejaVuSans-115"/>
      <use x="336.177734" xlink:href="#DejaVuSans-99"/>
      <use x="391.158203" xlink:href="#DejaVuSans-104"/>
      <use x="454.537109" xlink:href="#DejaVuSans-110"/>
      <use x="517.916016" xlink:href="#DejaVuSans-105"/>
      <use x="545.699219" xlink:href="#DejaVuSans-116"/>
      <use x="584.908203" xlink:href="#DejaVuSans-116"/>
      <use x="624.117188" xlink:href="#DejaVuSans-108"/>
      <use x="651.900391" xlink:href="#DejaVuSans-105"/>
      <use x="679.683594" xlink:href="#DejaVuSans-99"/>
      <use x="734.664062" xlink:href="#DejaVuSans-104"/>
      <use x="798.042969" xlink:href="#DejaVuSans-101"/>
      <use x="859.566406" xlink:href="#DejaVuSans-32"/>
      <use x="891.353516" xlink:href="#DejaVuSans-80"/>
      <use x="949.90625" xlink:href="#DejaVuSans-114"/>
      <use x="988.769531" xlink:href="#DejaVuSans-111"/>
      <use x="1049.951172" xlink:href="#DejaVuSans-100"/>
      <use x="1113.427734" xlink:href="#DejaVuSans-117"/>
      <use x="1176.806641" xlink:href="#DejaVuSans-107"/>
      <use x="1234.716797" xlink:href="#DejaVuSans-116"/>
      <use x="1273.925781" xlink:href="#DejaVuSans-112"/>
      <use x="1337.402344" xlink:href="#DejaVuSans-114"/>
      <use x="1376.265625" xlink:href="#DejaVuSans-101"/>
      <use x="1437.789062" xlink:href="#DejaVuSans-105"/>
      <use x="1465.572266" xlink:href="#DejaVuSans-115"/>
      <use x="1517.671875" xlink:href="#DejaVuSans-101"/>
      <use x="1579.195312" xlink:href="#DejaVuSans-32"/>
      <use x="1610.982422" xlink:href="#DejaVuSans-40"/>
      <use x="1649.996094" xlink:href="#DejaVuSans-8364"/>
      <use x="1713.619141" xlink:href="#DejaVuSans-41"/>
     </g>
    </g>
   </g>
   <g id="LineCollection_1">
    <path clip-path="url(#pc7b0d3ed44)" d="M 360.418202 373.598182 
L 360.418202 44.761818 
" style="fill:none;stroke:#ff0000;stroke-dasharray:19.2,4.8,3,4.8;stroke-dashoffset:0;stroke-width:3;"/>
   </g>
   <g id="LineCollection_2">
    <path clip-path="url(#pc7b0d3ed44)" d="M 470.01383 373.598182 
L 470.01383 44.761818 
" style="fill:none;stroke:#008000;stroke-dasharray:19.2,4.8,3,4.8;stroke-dashoffset:0;stroke-width:3;"/>
   </g>
   <g id="LineCollection_3">
    <path clip-path="url(#pc7b0d3ed44)" d="M 527.800616 373.598182 
L 527.800616 44.761818 
" style="fill:none;stroke:#0000ff;stroke-dasharray:19.2,4.8,3,4.8;stroke-dashoffset:0;stroke-width:3;"/>
   </g>
   <g id="line2d_25">
    <path clip-path="url(#pc7b0d3ed44)" d="M 87.425455 320.942239 
L 89.418102 263.678901 
L 91.41075 263.678901 
L 93.403398 263.020702 
L 95.396046 271.577292 
L 97.388693 271.577292 
L 99.381341 263.020702 
L 101.373989 263.020702 
L 103.366637 263.349801 
L 107.351932 263.349801 
L 109.34458 271.577292 
L 111.337228 271.577292 
L 113.329876 263.020702 
L 115.322524 263.020702 
L 117.315171 263.349801 
L 121.300467 263.349801 
L 123.293115 271.577292 
L 125.285763 271.577292 
L 127.27841 263.020702 
L 129.271058 263.020702 
L 131.263706 320.942239 
L 135.249001 320.942239 
L 137.241649 263.020702 
L 139.234297 301.19626 
L 141.226945 263.020702 
L 143.219593 263.020702 
L 145.21224 263.349801 
L 147.204888 263.349801 
L 149.197536 295.864846 
L 151.190184 271.577292 
L 155.175479 271.511472 
L 157.168127 271.511472 
L 159.160775 263.020702 
L 185.065196 262.954882 
L 187.057844 263.349801 
L 191.04314 263.349801 
L 193.035787 271.577292 
L 197.021083 271.511472 
L 199.013731 262.296682 
L 201.006379 271.511472 
L 208.97697 271.577292 
L 210.969617 283.556519 
L 212.962265 291.389091 
L 214.954913 262.296682 
L 216.947561 262.296682 
L 218.940209 291.389091 
L 220.932856 291.389091 
L 222.925504 262.296682 
L 224.918152 262.296682 
L 226.9108 271.511472 
L 228.903448 274.868289 
L 246.837278 274.868289 
L 248.829925 262.362502 
L 268.756403 262.362502 
L 270.749051 274.868289 
L 272.741699 274.868289 
L 274.734347 262.362502 
L 276.726995 262.362502 
L 278.719642 274.868289 
L 280.71229 274.868289 
L 282.704938 262.362502 
L 338.499076 262.362502 
L 340.491724 263.349801 
L 344.477019 263.349801 
L 346.469667 262.362502 
L 348.462315 262.362502 
L 350.454963 263.349801 
L 352.447611 263.349801 
L 354.440258 268.878675 
L 358.425554 268.878675 
L 360.418202 301.72282 
L 368.388793 301.72282 
L 370.381441 262.362502 
L 372.374088 262.362502 
L 374.366736 301.72282 
L 376.359384 301.72282 
L 378.352032 263.349801 
L 388.315271 263.349801 
L 390.307919 262.362502 
L 394.293214 262.362502 
L 396.285862 274.868289 
L 398.27851 262.362502 
L 400.271157 262.362502 
L 402.263805 263.349801 
L 406.249101 263.349801 
L 408.241749 373.598182 
L 410.234396 262.362502 
L 428.168227 262.362502 
L 430.160874 263.613081 
L 434.14617 263.613081 
L 436.138818 262.362502 
L 473.999126 262.362502 
L 475.991773 264.92948 
L 477.984421 264.92948 
L 479.977069 262.362502 
L 491.932956 262.362502 
L 493.925604 286.781696 
L 495.918251 286.781696 
L 497.910899 262.362502 
L 521.822673 262.362502 
L 523.81532 263.020702 
L 525.807968 262.362502 
L 555.697685 262.362502 
L 557.690333 162.90859 
L 561.675628 162.90859 
L 563.668276 90.572489 
L 569.64622 90.572489 
L 571.638867 122.824254 
L 573.631515 159.617594 
L 575.624163 191.935179 
L 581.602106 191.935179 
L 583.594754 44.761818 
L 585.587402 191.935179 
L 587.58005 191.935179 
L 589.572697 121.376215 
L 591.565345 121.047116 
L 593.557993 189.565661 
L 595.550641 189.565661 
L 597.543289 156.655697 
L 599.535936 162.90859 
L 601.528584 162.90859 
L 603.521232 191.935179 
L 605.51388 123.482453 
L 609.499175 123.482453 
L 611.491823 162.90859 
L 615.477119 162.90859 
L 617.469767 124.469752 
L 619.462414 124.601392 
L 623.44771 124.601392 
L 625.440358 128.221488 
L 627.433005 128.221488 
L 629.425653 135.39586 
L 631.418301 93.402745 
L 633.410949 136.646439 
L 635.403597 156.392417 
L 639.388892 156.392417 
L 641.38154 161.131452 
L 643.374188 162.84277 
L 645.366836 156.392417 
L 647.359483 162.84277 
L 649.352131 162.90859 
L 651.344779 93.336926 
L 653.337427 228.794339 
L 655.330075 93.336926 
L 657.322722 228.794339 
L 669.278609 228.794339 
L 671.271257 123.482453 
L 673.263905 92.678726 
L 675.256552 263.020702 
L 677.2492 164.290809 
L 679.241848 164.290809 
L 681.234496 157.906276 
L 683.227144 263.020702 
L 685.219791 182.983668 
L 687.212439 189.565661 
L 689.205087 228.794339 
L 691.197735 222.212346 
L 695.18303 222.212346 
L 697.175678 189.565661 
L 699.168326 189.565661 
L 701.160974 189.894761 
L 703.153621 197.464053 
L 705.146269 262.296682 
L 717.102156 262.230863 
L 723.080099 262.099223 
L 727.065395 262.033403 
L 735.035986 261.835943 
L 737.028634 228.728519 
L 741.013929 228.662699 
L 746.991873 228.531059 
L 752.969816 228.531059 
L 754.962464 222.804725 
L 756.955112 261.835943 
L 766.918351 261.770123 
L 774.888942 261.506843 
L 776.88159 261.704303 
L 782.859533 261.704303 
L 784.852181 261.309384 
L 786.844829 264.92948 
L 788.837476 195.884374 
L 790.830124 261.177744 
L 796.808068 261.111924 
L 798.800715 260.980284 
L 802.786011 260.914464 
L 804.778659 191.935179 
L 806.771307 202.795467 
L 810.756602 202.795467 
L 812.74925 192.527558 
L 816.734545 192.527558 
L 816.734545 192.527558 
" style="fill:none;stroke:#1f77b4;stroke-linecap:square;stroke-width:1.5;"/>
   </g>
   <g id="patch_3">
    <path d="M 50.96 390.04 
L 50.96 28.32 
" style="fill:none;stroke:#000000;stroke-linecap:square;stroke-linejoin:miter;stroke-width:0.8;"/>
   </g>
   <g id="patch_4">
    <path d="M 853.2 390.04 
L 853.2 28.32 
" style="fill:none;stroke:#000000;stroke-linecap:square;stroke-linejoin:miter;stroke-width:0.8;"/>
   </g>
   <g id="patch_5">
    <path d="M 50.96 390.04 
L 853.2 390.04 
" style="fill:none;stroke:#000000;stroke-linecap:square;stroke-linejoin:miter;stroke-width:0.8;"/>
   </g>
   <g id="patch_6">
    <path d="M 50.96 28.32 
L 853.2 28.32 
" style="fill:none;stroke:#000000;stroke-linecap:square;stroke-linejoin:miter;stroke-width:0.8;"/>
   </g>
   <g id="text_15">
    <!-- Gaming&amp;Spielen(von Sep. 2019 bis Sep. 2020) -->
    <g transform="translate(275.726875 22.32)scale(0.15 -0.15)">
     <defs>
      <path d="M 59.515625 10.40625 
L 59.515625 29.984375 
L 43.40625 29.984375 
L 43.40625 38.09375 
L 69.28125 38.09375 
L 69.28125 6.78125 
Q 63.578125 2.734375 56.6875 0.65625 
Q 49.8125 -1.421875 42 -1.421875 
Q 24.90625 -1.421875 15.25 8.5625 
Q 5.609375 18.5625 5.609375 36.375 
Q 5.609375 54.25 15.25 64.234375 
Q 24.90625 74.21875 42 74.21875 
Q 49.125 74.21875 55.546875 72.453125 
Q 61.96875 70.703125 67.390625 67.28125 
L 67.390625 56.78125 
Q 61.921875 61.421875 55.765625 63.765625 
Q 49.609375 66.109375 42.828125 66.109375 
Q 29.4375 66.109375 22.71875 58.640625 
Q 16.015625 51.171875 16.015625 36.375 
Q 16.015625 21.625 22.71875 14.15625 
Q 29.4375 6.6875 42.828125 6.6875 
Q 48.046875 6.6875 52.140625 7.59375 
Q 56.25 8.5 59.515625 10.40625 
z
" id="DejaVuSans-71"/>
      <path d="M 45.40625 27.984375 
Q 45.40625 37.75 41.375 43.109375 
Q 37.359375 48.484375 30.078125 48.484375 
Q 22.859375 48.484375 18.828125 43.109375 
Q 14.796875 37.75 14.796875 27.984375 
Q 14.796875 18.265625 18.828125 12.890625 
Q 22.859375 7.515625 30.078125 7.515625 
Q 37.359375 7.515625 41.375 12.890625 
Q 45.40625 18.265625 45.40625 27.984375 
z
M 54.390625 6.78125 
Q 54.390625 -7.171875 48.1875 -13.984375 
Q 42 -20.796875 29.203125 -20.796875 
Q 24.46875 -20.796875 20.265625 -20.09375 
Q 16.0625 -19.390625 12.109375 -17.921875 
L 12.109375 -9.1875 
Q 16.0625 -11.328125 19.921875 -12.34375 
Q 23.78125 -13.375 27.78125 -13.375 
Q 36.625 -13.375 41.015625 -8.765625 
Q 45.40625 -4.15625 45.40625 5.171875 
L 45.40625 9.625 
Q 42.625 4.78125 38.28125 2.390625 
Q 33.9375 0 27.875 0 
Q 17.828125 0 11.671875 7.65625 
Q 5.515625 15.328125 5.515625 27.984375 
Q 5.515625 40.671875 11.671875 48.328125 
Q 17.828125 56 27.875 56 
Q 33.9375 56 38.28125 53.609375 
Q 42.625 51.21875 45.40625 46.390625 
L 45.40625 54.6875 
L 54.390625 54.6875 
z
" id="DejaVuSans-103"/>
      <path d="M 24.3125 39.203125 
Q 19.875 35.25 17.796875 31.3125 
Q 15.71875 27.390625 15.71875 23.09375 
Q 15.71875 15.96875 20.890625 11.234375 
Q 26.078125 6.5 33.890625 6.5 
Q 38.53125 6.5 42.578125 8.03125 
Q 46.625 9.578125 50.203125 12.703125 
z
M 31.203125 44.671875 
L 56 19.28125 
Q 58.890625 23.640625 60.5 28.59375 
Q 62.109375 33.546875 62.40625 39.109375 
L 71.484375 39.109375 
Q 70.90625 32.671875 68.359375 26.359375 
Q 65.828125 20.0625 61.28125 13.921875 
L 74.90625 0 
L 62.59375 0 
L 55.609375 7.171875 
Q 50.53125 2.828125 44.96875 0.703125 
Q 39.40625 -1.421875 33.015625 -1.421875 
Q 21.234375 -1.421875 13.765625 5.296875 
Q 6.296875 12.015625 6.296875 22.515625 
Q 6.296875 28.765625 9.5625 34.25 
Q 12.84375 39.75 19.390625 44.578125 
Q 17.046875 47.65625 15.8125 50.703125 
Q 14.59375 53.765625 14.59375 56.6875 
Q 14.59375 64.59375 20.015625 69.40625 
Q 25.4375 74.21875 34.421875 74.21875 
Q 38.484375 74.21875 42.5 73.34375 
Q 46.53125 72.46875 50.6875 70.703125 
L 50.6875 61.8125 
Q 46.4375 64.109375 42.578125 65.296875 
Q 38.71875 66.5 35.40625 66.5 
Q 30.28125 66.5 27.078125 63.78125 
Q 23.875 61.078125 23.875 56.78125 
Q 23.875 54.296875 25.3125 51.78125 
Q 26.765625 49.265625 31.203125 44.671875 
z
" id="DejaVuSans-38"/>
      <path d="M 53.515625 70.515625 
L 53.515625 60.890625 
Q 47.90625 63.578125 42.921875 64.890625 
Q 37.9375 66.21875 33.296875 66.21875 
Q 25.25 66.21875 20.875 63.09375 
Q 16.5 59.96875 16.5 54.203125 
Q 16.5 49.359375 19.40625 46.890625 
Q 22.3125 44.4375 30.421875 42.921875 
L 36.375 41.703125 
Q 47.40625 39.59375 52.65625 34.296875 
Q 57.90625 29 57.90625 20.125 
Q 57.90625 9.515625 50.796875 4.046875 
Q 43.703125 -1.421875 29.984375 -1.421875 
Q 24.8125 -1.421875 18.96875 -0.25 
Q 13.140625 0.921875 6.890625 3.21875 
L 6.890625 13.375 
Q 12.890625 10.015625 18.65625 8.296875 
Q 24.421875 6.59375 29.984375 6.59375 
Q 38.421875 6.59375 43.015625 9.90625 
Q 47.609375 13.234375 47.609375 19.390625 
Q 47.609375 24.75 44.3125 27.78125 
Q 41.015625 30.8125 33.5 32.328125 
L 27.484375 33.5 
Q 16.453125 35.6875 11.515625 40.375 
Q 6.59375 45.0625 6.59375 53.421875 
Q 6.59375 63.09375 13.40625 68.65625 
Q 20.21875 74.21875 32.171875 74.21875 
Q 37.3125 74.21875 42.625 73.28125 
Q 47.953125 72.359375 53.515625 70.515625 
z
" id="DejaVuSans-83"/>
      <path d="M 2.984375 54.6875 
L 12.5 54.6875 
L 29.59375 8.796875 
L 46.6875 54.6875 
L 56.203125 54.6875 
L 35.6875 0 
L 23.484375 0 
z
" id="DejaVuSans-118"/>
      <path d="M 10.6875 12.40625 
L 21 12.40625 
L 21 0 
L 10.6875 0 
z
" id="DejaVuSans-46"/>
      <path d="M 48.6875 27.296875 
Q 48.6875 37.203125 44.609375 42.84375 
Q 40.53125 48.484375 33.40625 48.484375 
Q 26.265625 48.484375 22.1875 42.84375 
Q 18.109375 37.203125 18.109375 27.296875 
Q 18.109375 17.390625 22.1875 11.75 
Q 26.265625 6.109375 33.40625 6.109375 
Q 40.53125 6.109375 44.609375 11.75 
Q 48.6875 17.390625 48.6875 27.296875 
z
M 18.109375 46.390625 
Q 20.953125 51.265625 25.265625 53.625 
Q 29.59375 56 35.59375 56 
Q 45.5625 56 51.78125 48.09375 
Q 58.015625 40.1875 58.015625 27.296875 
Q 58.015625 14.40625 51.78125 6.484375 
Q 45.5625 -1.421875 35.59375 -1.421875 
Q 29.59375 -1.421875 25.265625 0.953125 
Q 20.953125 3.328125 18.109375 8.203125 
L 18.109375 0 
L 9.078125 0 
L 9.078125 75.984375 
L 18.109375 75.984375 
z
" id="DejaVuSans-98"/>
     </defs>
     <use xlink:href="#DejaVuSans-71"/>
     <use x="77.490234" xlink:href="#DejaVuSans-97"/>
     <use x="138.769531" xlink:href="#DejaVuSans-109"/>
     <use x="236.181641" xlink:href="#DejaVuSans-105"/>
     <use x="263.964844" xlink:href="#DejaVuSans-110"/>
     <use x="327.34375" xlink:href="#DejaVuSans-103"/>
     <use x="390.820312" xlink:href="#DejaVuSans-38"/>
     <use x="468.798828" xlink:href="#DejaVuSans-83"/>
     <use x="532.275391" xlink:href="#DejaVuSans-112"/>
     <use x="595.751953" xlink:href="#DejaVuSans-105"/>
     <use x="623.535156" xlink:href="#DejaVuSans-101"/>
     <use x="685.058594" xlink:href="#DejaVuSans-108"/>
     <use x="712.841797" xlink:href="#DejaVuSans-101"/>
     <use x="774.365234" xlink:href="#DejaVuSans-110"/>
     <use x="837.744141" xlink:href="#DejaVuSans-40"/>
     <use x="876.757812" xlink:href="#DejaVuSans-118"/>
     <use x="935.9375" xlink:href="#DejaVuSans-111"/>
     <use x="997.119141" xlink:href="#DejaVuSans-110"/>
     <use x="1060.498047" xlink:href="#DejaVuSans-32"/>
     <use x="1092.285156" xlink:href="#DejaVuSans-83"/>
     <use x="1155.761719" xlink:href="#DejaVuSans-101"/>
     <use x="1217.285156" xlink:href="#DejaVuSans-112"/>
     <use x="1280.761719" xlink:href="#DejaVuSans-46"/>
     <use x="1312.548828" xlink:href="#DejaVuSans-32"/>
     <use x="1344.335938" xlink:href="#DejaVuSans-50"/>
     <use x="1407.958984" xlink:href="#DejaVuSans-48"/>
     <use x="1471.582031" xlink:href="#DejaVuSans-49"/>
     <use x="1535.205078" xlink:href="#DejaVuSans-57"/>
     <use x="1598.828125" xlink:href="#DejaVuSans-32"/>
     <use x="1630.615234" xlink:href="#DejaVuSans-98"/>
     <use x="1694.091797" xlink:href="#DejaVuSans-105"/>
     <use x="1721.875" xlink:href="#DejaVuSans-115"/>
     <use x="1773.974609" xlink:href="#DejaVuSans-32"/>
     <use x="1805.761719" xlink:href="#DejaVuSans-83"/>
     <use x="1869.238281" xlink:href="#DejaVuSans-101"/>
     <use x="1930.761719" xlink:href="#DejaVuSans-112"/>
     <use x="1994.238281" xlink:href="#DejaVuSans-46"/>
     <use x="2026.025391" xlink:href="#DejaVuSans-32"/>
     <use x="2057.8125" xlink:href="#DejaVuSans-50"/>
     <use x="2121.435547" xlink:href="#DejaVuSans-48"/>
     <use x="2185.058594" xlink:href="#DejaVuSans-50"/>
     <use x="2248.681641" xlink:href="#DejaVuSans-48"/>
     <use x="2312.304688" xlink:href="#DejaVuSans-41"/>
    </g>
   </g>
   <g id="legend_1">
    <g id="patch_7">
     <path d="M 597.45625 80.354375 
L 846.2 80.354375 
Q 848.2 80.354375 848.2 78.354375 
L 848.2 35.32 
Q 848.2 33.32 846.2 33.32 
L 597.45625 33.32 
Q 595.45625 33.32 595.45625 35.32 
L 595.45625 78.354375 
Q 595.45625 80.354375 597.45625 80.354375 
z
" style="fill:#ffffff;opacity:0.8;stroke:#cccccc;stroke-linejoin:miter;"/>
    </g>
    <g id="line2d_26">
     <path d="M 599.45625 41.418437 
L 619.45625 41.418437 
" style="fill:none;stroke:#ff0000;stroke-dasharray:19.2,4.8,3,4.8;stroke-dashoffset:0;stroke-width:3;"/>
    </g>
    <g id="text_16">
     <!-- Erste Erkrankung in Deutschland(27.01.20) -->
     <g transform="translate(627.45625 44.918437)scale(0.1 -0.1)">
      <defs>
       <path d="M 9.8125 72.90625 
L 55.90625 72.90625 
L 55.90625 64.59375 
L 19.671875 64.59375 
L 19.671875 43.015625 
L 54.390625 43.015625 
L 54.390625 34.71875 
L 19.671875 34.71875 
L 19.671875 8.296875 
L 56.78125 8.296875 
L 56.78125 0 
L 9.8125 0 
z
" id="DejaVuSans-69"/>
      </defs>
      <use xlink:href="#DejaVuSans-69"/>
      <use x="63.183594" xlink:href="#DejaVuSans-114"/>
      <use x="104.296875" xlink:href="#DejaVuSans-115"/>
      <use x="156.396484" xlink:href="#DejaVuSans-116"/>
      <use x="195.605469" xlink:href="#DejaVuSans-101"/>
      <use x="257.128906" xlink:href="#DejaVuSans-32"/>
      <use x="288.916016" xlink:href="#DejaVuSans-69"/>
      <use x="352.099609" xlink:href="#DejaVuSans-114"/>
      <use x="393.212891" xlink:href="#DejaVuSans-107"/>
      <use x="451.123047" xlink:href="#DejaVuSans-114"/>
      <use x="492.236328" xlink:href="#DejaVuSans-97"/>
      <use x="553.515625" xlink:href="#DejaVuSans-110"/>
      <use x="616.894531" xlink:href="#DejaVuSans-107"/>
      <use x="671.679688" xlink:href="#DejaVuSans-117"/>
      <use x="735.058594" xlink:href="#DejaVuSans-110"/>
      <use x="798.4375" xlink:href="#DejaVuSans-103"/>
      <use x="861.914062" xlink:href="#DejaVuSans-32"/>
      <use x="893.701172" xlink:href="#DejaVuSans-105"/>
      <use x="921.484375" xlink:href="#DejaVuSans-110"/>
      <use x="984.863281" xlink:href="#DejaVuSans-32"/>
      <use x="1016.650391" xlink:href="#DejaVuSans-68"/>
      <use x="1093.652344" xlink:href="#DejaVuSans-101"/>
      <use x="1155.175781" xlink:href="#DejaVuSans-117"/>
      <use x="1218.554688" xlink:href="#DejaVuSans-116"/>
      <use x="1257.763672" xlink:href="#DejaVuSans-115"/>
      <use x="1309.863281" xlink:href="#DejaVuSans-99"/>
      <use x="1364.84375" xlink:href="#DejaVuSans-104"/>
      <use x="1428.222656" xlink:href="#DejaVuSans-108"/>
      <use x="1456.005859" xlink:href="#DejaVuSans-97"/>
      <use x="1517.285156" xlink:href="#DejaVuSans-110"/>
      <use x="1580.664062" xlink:href="#DejaVuSans-100"/>
      <use x="1644.140625" xlink:href="#DejaVuSans-40"/>
      <use x="1683.154297" xlink:href="#DejaVuSans-50"/>
      <use x="1746.777344" xlink:href="#DejaVuSans-55"/>
      <use x="1810.400391" xlink:href="#DejaVuSans-46"/>
      <use x="1842.1875" xlink:href="#DejaVuSans-48"/>
      <use x="1905.810547" xlink:href="#DejaVuSans-49"/>
      <use x="1969.433594" xlink:href="#DejaVuSans-46"/>
      <use x="2001.220703" xlink:href="#DejaVuSans-50"/>
      <use x="2064.84375" xlink:href="#DejaVuSans-48"/>
      <use x="2128.466797" xlink:href="#DejaVuSans-41"/>
     </g>
    </g>
    <g id="line2d_27">
     <path d="M 599.45625 56.096563 
L 619.45625 56.096563 
" style="fill:none;stroke:#008000;stroke-dasharray:19.2,4.8,3,4.8;stroke-dashoffset:0;stroke-width:3;"/>
    </g>
    <g id="text_17">
     <!-- Lock Down(22.03.20) -->
     <g transform="translate(627.45625 59.596563)scale(0.1 -0.1)">
      <defs>
       <path d="M 9.8125 72.90625 
L 19.671875 72.90625 
L 19.671875 8.296875 
L 55.171875 8.296875 
L 55.171875 0 
L 9.8125 0 
z
" id="DejaVuSans-76"/>
       <path d="M 4.203125 54.6875 
L 13.1875 54.6875 
L 24.421875 12.015625 
L 35.59375 54.6875 
L 46.1875 54.6875 
L 57.421875 12.015625 
L 68.609375 54.6875 
L 77.59375 54.6875 
L 63.28125 0 
L 52.6875 0 
L 40.921875 44.828125 
L 29.109375 0 
L 18.5 0 
z
" id="DejaVuSans-119"/>
      </defs>
      <use xlink:href="#DejaVuSans-76"/>
      <use x="53.962891" xlink:href="#DejaVuSans-111"/>
      <use x="115.144531" xlink:href="#DejaVuSans-99"/>
      <use x="170.125" xlink:href="#DejaVuSans-107"/>
      <use x="228.035156" xlink:href="#DejaVuSans-32"/>
      <use x="259.822266" xlink:href="#DejaVuSans-68"/>
      <use x="336.824219" xlink:href="#DejaVuSans-111"/>
      <use x="398.005859" xlink:href="#DejaVuSans-119"/>
      <use x="479.792969" xlink:href="#DejaVuSans-110"/>
      <use x="543.171875" xlink:href="#DejaVuSans-40"/>
      <use x="582.185547" xlink:href="#DejaVuSans-50"/>
      <use x="645.808594" xlink:href="#DejaVuSans-50"/>
      <use x="709.431641" xlink:href="#DejaVuSans-46"/>
      <use x="741.21875" xlink:href="#DejaVuSans-48"/>
      <use x="804.841797" xlink:href="#DejaVuSans-51"/>
      <use x="868.464844" xlink:href="#DejaVuSans-46"/>
      <use x="900.251953" xlink:href="#DejaVuSans-50"/>
      <use x="963.875" xlink:href="#DejaVuSans-48"/>
      <use x="1027.498047" xlink:href="#DejaVuSans-41"/>
     </g>
    </g>
    <g id="line2d_28">
     <path d="M 599.45625 70.774687 
L 619.45625 70.774687 
" style="fill:none;stroke:#0000ff;stroke-dasharray:19.2,4.8,3,4.8;stroke-dashoffset:0;stroke-width:3;"/>
    </g>
    <g id="text_18">
     <!-- Erste Lockerung(20.04.20) -->
     <g transform="translate(627.45625 74.274687)scale(0.1 -0.1)">
      <use xlink:href="#DejaVuSans-69"/>
      <use x="63.183594" xlink:href="#DejaVuSans-114"/>
      <use x="104.296875" xlink:href="#DejaVuSans-115"/>
      <use x="156.396484" xlink:href="#DejaVuSans-116"/>
      <use x="195.605469" xlink:href="#DejaVuSans-101"/>
      <use x="257.128906" xlink:href="#DejaVuSans-32"/>
      <use x="288.916016" xlink:href="#DejaVuSans-76"/>
      <use x="342.878906" xlink:href="#DejaVuSans-111"/>
      <use x="404.060547" xlink:href="#DejaVuSans-99"/>
      <use x="459.041016" xlink:href="#DejaVuSans-107"/>
      <use x="513.326172" xlink:href="#DejaVuSans-101"/>
      <use x="574.849609" xlink:href="#DejaVuSans-114"/>
      <use x="615.962891" xlink:href="#DejaVuSans-117"/>
      <use x="679.341797" xlink:href="#DejaVuSans-110"/>
      <use x="742.720703" xlink:href="#DejaVuSans-103"/>
      <use x="806.197266" xlink:href="#DejaVuSans-40"/>
      <use x="845.210938" xlink:href="#DejaVuSans-50"/>
      <use x="908.833984" xlink:href="#DejaVuSans-48"/>
      <use x="972.457031" xlink:href="#DejaVuSans-46"/>
      <use x="1004.244141" xlink:href="#DejaVuSans-48"/>
      <use x="1067.867188" xlink:href="#DejaVuSans-52"/>
      <use x="1131.490234" xlink:href="#DejaVuSans-46"/>
      <use x="1163.277344" xlink:href="#DejaVuSans-50"/>
      <use x="1226.900391" xlink:href="#DejaVuSans-48"/>
      <use x="1290.523438" xlink:href="#DejaVuSans-41"/>
     </g>
    </g>
   </g>
  </g>
 </g>
 <defs>
  <clipPath id="pc7b0d3ed44">
   <rect height="361.72" width="802.24" x="50.96" y="28.32"/>
  </clipPath>
 </defs>
</svg>
