<?xml version="1.0" encoding="utf-8" standalone="no"?>
<!DOCTYPE svg PUBLIC "-//W3C//DTD SVG 1.1//EN"
  "http://www.w3.org/Graphics/SVG/1.1/DTD/svg11.dtd">
<!-- Created with matplotlib (https://matplotlib.org/) -->
<svg height="432pt" version="1.1" viewBox="0 0 720 432" width="720pt" xmlns="http://www.w3.org/2000/svg" xmlns:xlink="http://www.w3.org/1999/xlink">
 <metadata>
  <rdf:RDF xmlns:cc="http://creativecommons.org/ns#" xmlns:dc="http://purl.org/dc/elements/1.1/" xmlns:rdf="http://www.w3.org/1999/02/22-rdf-syntax-ns#">
   <cc:Work>
    <dc:type rdf:resource="http://purl.org/dc/dcmitype/StillImage"/>
    <dc:date>2021-02-17T13:43:53.278538</dc:date>
    <dc:format>image/svg+xml</dc:format>
    <dc:creator>
     <cc:Agent>
      <dc:title>Matplotlib v3.3.2, https://matplotlib.org/</dc:title>
     </cc:Agent>
    </dc:creator>
   </cc:Work>
  </rdf:RDF>
 </metadata>
 <defs>
  <style type="text/css">*{stroke-linecap:butt;stroke-linejoin:round;}</style>
 </defs>
 <g id="figure_1">
  <g id="patch_1">
   <path d="M 0 432 
L 720 432 
L 720 0 
L 0 0 
z
" style="fill:#ffffff;"/>
  </g>
  <g id="axes_1">
   <g id="patch_2">
    <path d="M 90 384.48 
L 648 384.48 
L 648 51.84 
L 90 51.84 
z
" style="fill:#ffffff;"/>
   </g>
   <g id="PolyCollection_1">
    <defs>
     <path d="M 115.363636 -352.755768 
L 115.363636 -352.755768 
L 116.768824 -352.755768 
L 118.174012 -352.755768 
L 119.579199 -352.755768 
L 120.984387 -352.755768 
L 122.389574 -352.755768 
L 123.794762 -352.755768 
L 125.19995 -352.755768 
L 126.605137 -352.755768 
L 128.010325 -352.755768 
L 129.415512 -352.755768 
L 130.8207 -352.755768 
L 132.225888 -352.755768 
L 133.631075 -352.755768 
L 135.036263 -352.755768 
L 136.441451 -352.755768 
L 137.846638 -352.755768 
L 139.251826 -352.755768 
L 140.657013 -352.755768 
L 142.062201 -352.755768 
L 143.467389 -352.755768 
L 144.872576 -352.755768 
L 146.277764 -352.755768 
L 147.682951 -352.755768 
L 149.088139 -352.755768 
L 150.493327 -352.755768 
L 151.898514 -352.755768 
L 153.303702 -352.755768 
L 154.708889 -352.755768 
L 156.114077 -352.755768 
L 157.519265 -352.755768 
L 158.924452 -352.755768 
L 160.32964 -352.755768 
L 161.734827 -352.755768 
L 163.140015 -352.755768 
L 164.545203 -352.755768 
L 165.95039 -352.755768 
L 167.355578 -352.755768 
L 168.760766 -352.755768 
L 170.165953 -352.755768 
L 171.571141 -352.755768 
L 172.976328 -352.755768 
L 174.381516 -352.755768 
L 175.786704 -352.755768 
L 177.191891 -352.755768 
L 178.597079 -352.755768 
L 180.002266 -352.755768 
L 181.407454 -352.755768 
L 182.812642 -352.755768 
L 184.217829 -352.755768 
L 185.623017 -352.755768 
L 187.028204 -352.755768 
L 188.433392 -352.755768 
L 189.83858 -352.755768 
L 191.243767 -352.755768 
L 192.648955 -352.755768 
L 194.054143 -352.755768 
L 195.45933 -352.755768 
L 196.864518 -352.755768 
L 198.269705 -352.755768 
L 199.674893 -352.755768 
L 201.080081 -352.755768 
L 202.485268 -352.755768 
L 203.890456 -352.755768 
L 205.295643 -352.755768 
L 206.700831 -352.755768 
L 208.106019 -352.755768 
L 209.511206 -352.755768 
L 210.916394 -352.755768 
L 212.321581 -352.755768 
L 213.726769 -352.755768 
L 215.131957 -352.755768 
L 216.537144 -352.755768 
L 217.942332 -352.755768 
L 219.34752 -352.755768 
L 220.752707 -352.755768 
L 222.157895 -352.755768 
L 223.563082 -352.755768 
L 224.96827 -352.755768 
L 226.373458 -352.755768 
L 227.778645 -352.755768 
L 229.183833 -352.755768 
L 230.58902 -352.755768 
L 231.994208 -352.755768 
L 233.399396 -352.755768 
L 234.804583 -352.755768 
L 236.209771 -352.755768 
L 237.614958 -352.755768 
L 239.020146 -352.755768 
L 240.425334 -352.755768 
L 241.830521 -352.755768 
L 243.235709 -352.755768 
L 244.640896 -352.755768 
L 246.046084 -352.755768 
L 247.451272 -352.755768 
L 248.856459 -352.755768 
L 250.261647 -352.755768 
L 251.666835 -352.755768 
L 253.072022 -352.755768 
L 254.47721 -352.755768 
L 255.882397 -352.755768 
L 257.287585 -352.755768 
L 258.692773 -352.755768 
L 260.09796 -352.755768 
L 261.503148 -352.755768 
L 262.908335 -352.755768 
L 264.313523 -352.755768 
L 265.718711 -352.755768 
L 267.123898 -352.755768 
L 268.529086 -352.755768 
L 269.934273 -352.755768 
L 271.339461 -352.755768 
L 272.744649 -352.755768 
L 274.149836 -352.755768 
L 275.555024 -352.755768 
L 276.960212 -352.755768 
L 278.365399 -352.755768 
L 279.770587 -352.755768 
L 281.175774 -352.755768 
L 282.580962 -352.755768 
L 283.98615 -352.755768 
L 285.391337 -352.755768 
L 286.796525 -352.755768 
L 288.201712 -352.755768 
L 289.6069 -352.755768 
L 291.012088 -352.755768 
L 292.417275 -352.755768 
L 293.822463 -352.755768 
L 295.22765 -352.755768 
L 296.632838 -352.755768 
L 298.038026 -352.755768 
L 299.443213 -352.755768 
L 300.848401 -352.755768 
L 302.253589 -352.755768 
L 303.658776 -352.755768 
L 305.063964 -352.755768 
L 306.469151 -352.755768 
L 307.874339 -352.755768 
L 309.279527 -352.755768 
L 310.684714 -352.755768 
L 312.089902 -352.755768 
L 313.495089 -352.755768 
L 314.900277 -352.755768 
L 316.305465 -352.755768 
L 317.710652 -352.755768 
L 319.11584 -352.755768 
L 320.521027 -352.755768 
L 321.926215 -352.755768 
L 323.331403 -352.755768 
L 324.73659 -352.755768 
L 326.141778 -352.755768 
L 327.546965 -352.755768 
L 328.952153 -352.755768 
L 330.357341 -352.755768 
L 331.762528 -352.755768 
L 333.167716 -352.755768 
L 334.572904 -352.755768 
L 335.978091 -352.755768 
L 337.383279 -352.755768 
L 338.788466 -352.755768 
L 340.193654 -352.755768 
L 341.598842 -352.755768 
L 343.004029 -352.755768 
L 344.409217 -352.755768 
L 345.814404 -352.755768 
L 347.219592 -352.755768 
L 348.62478 -352.755768 
L 350.029967 -352.755768 
L 351.435155 -352.755768 
L 352.840342 -352.755768 
L 354.24553 -352.755768 
L 355.650718 -352.755768 
L 357.055905 -352.755768 
L 358.461093 -352.755768 
L 359.866281 -352.755768 
L 361.271468 -352.755768 
L 362.676656 -352.755768 
L 364.081843 -352.755768 
L 365.487031 -352.755768 
L 366.892219 -352.755768 
L 368.297406 -352.755768 
L 369.702594 -352.755768 
L 371.107781 -352.755768 
L 372.512969 -352.755768 
L 373.918157 -352.755768 
L 375.323344 -352.755768 
L 376.728532 -352.755768 
L 378.133719 -352.755768 
L 379.538907 -352.755768 
L 380.944095 -352.755768 
L 382.349282 -352.755768 
L 383.75447 -352.755768 
L 385.159658 -352.755768 
L 386.564845 -352.755768 
L 387.970033 -352.755768 
L 389.37522 -352.755768 
L 390.780408 -352.755768 
L 392.185596 -352.755768 
L 393.590783 -352.755768 
L 394.995971 -352.755768 
L 396.401158 -352.755768 
L 397.806346 -352.755768 
L 399.211534 -352.755768 
L 400.616721 -352.755768 
L 402.021909 -352.755768 
L 403.427096 -352.755768 
L 404.832284 -352.755768 
L 406.237472 -352.755768 
L 407.642659 -352.755768 
L 409.047847 -352.755768 
L 410.453035 -352.755768 
L 411.858222 -352.755768 
L 413.26341 -352.755768 
L 414.668597 -352.755768 
L 416.073785 -352.755768 
L 417.478973 -352.755768 
L 418.88416 -352.755768 
L 420.289348 -352.755768 
L 421.694535 -352.755768 
L 423.099723 -352.755768 
L 424.504911 -352.755768 
L 425.910098 -352.755768 
L 427.315286 -352.755768 
L 428.720473 -352.755768 
L 430.125661 -352.755768 
L 431.530849 -352.755768 
L 432.936036 -352.755768 
L 434.341224 -352.755768 
L 435.746411 -352.755768 
L 437.151599 -352.755768 
L 438.556787 -352.755768 
L 439.961974 -352.755768 
L 441.367162 -352.755768 
L 442.77235 -352.755768 
L 444.177537 -352.755768 
L 445.582725 -352.755768 
L 446.987912 -352.755768 
L 448.3931 -352.755768 
L 449.798288 -352.755768 
L 451.203475 -352.755768 
L 452.608663 -352.755768 
L 454.01385 -352.755768 
L 455.419038 -352.755768 
L 456.824226 -352.755768 
L 458.229413 -352.755768 
L 459.634601 -352.755768 
L 461.039788 -352.755768 
L 462.444976 -352.755768 
L 463.850164 -352.755768 
L 465.255351 -352.755768 
L 466.660539 -352.755768 
L 468.065727 -352.755768 
L 469.470914 -352.755768 
L 470.876102 -352.755768 
L 472.281289 -352.755768 
L 473.686477 -352.755768 
L 475.091665 -352.755768 
L 476.496852 -352.755768 
L 477.90204 -352.755768 
L 479.307227 -352.755768 
L 480.712415 -352.755768 
L 482.117603 -352.755768 
L 483.52279 -352.755768 
L 484.927978 -352.755768 
L 486.333165 -352.755768 
L 487.738353 -352.755768 
L 489.143541 -352.755768 
L 490.548728 -352.755768 
L 491.953916 -352.755768 
L 493.359104 -352.755768 
L 494.764291 -352.755768 
L 496.169479 -352.755768 
L 497.574666 -352.755768 
L 498.979854 -352.755768 
L 500.385042 -352.755768 
L 501.790229 -352.755768 
L 503.195417 -352.755768 
L 504.600604 -352.755768 
L 506.005792 -352.755768 
L 507.41098 -352.755768 
L 508.816167 -352.755768 
L 510.221355 -352.755768 
L 511.626542 -352.755768 
L 513.03173 -352.755768 
L 514.436918 -352.755768 
L 515.842105 -352.755768 
L 517.247293 -352.755768 
L 518.65248 -283.930305 
L 520.057668 -308.631832 
L 521.462856 -234.797556 
L 522.868043 -62.64 
L 524.273231 -270.916139 
L 525.678419 -275.859279 
L 527.083606 -300.784807 
L 528.488794 -365.04 
L 529.893981 -352.755768 
L 531.299169 -352.755768 
L 532.704357 -352.755768 
L 534.109544 -352.755768 
L 535.514732 -352.755768 
L 536.919919 -352.755768 
L 538.325107 -352.755768 
L 539.730295 -352.755768 
L 541.135482 -352.755768 
L 542.54067 -352.755768 
L 543.945857 -352.755768 
L 545.351045 -352.755768 
L 546.756233 -352.755768 
L 548.16142 -352.755768 
L 549.566608 -352.755768 
L 550.971796 -352.755768 
L 552.376983 -352.755768 
L 553.782171 -352.755768 
L 555.187358 -352.755768 
L 556.592546 -352.755768 
L 557.997734 -352.755768 
L 559.402921 -352.755768 
L 560.808109 -352.755768 
L 562.213296 -352.755768 
L 563.618484 -352.755768 
L 565.023672 -352.755768 
L 566.428859 -352.755768 
L 567.834047 -352.755768 
L 569.239234 -352.755768 
L 570.644422 -352.755768 
L 572.04961 -352.755768 
L 573.454797 -352.755768 
L 574.859985 -352.755768 
L 576.265173 -352.755768 
L 577.67036 -352.755768 
L 579.075548 -352.755768 
L 580.480735 -352.755768 
L 581.885923 -352.755768 
L 583.291111 -352.755768 
L 584.696298 -352.755768 
L 586.101486 -352.755768 
L 587.506673 -352.755768 
L 588.911861 -352.755768 
L 590.317049 -352.755768 
L 591.722236 -352.755768 
L 593.127424 -352.755768 
L 594.532611 -352.755768 
L 595.937799 -352.755768 
L 597.342987 -352.755768 
L 598.748174 -352.755768 
L 600.153362 -352.755768 
L 601.558549 -352.755768 
L 602.963737 -352.755768 
L 604.368925 -352.755768 
L 605.774112 -352.755768 
L 607.1793 -352.755768 
L 608.584488 -352.755768 
L 609.989675 -352.755768 
L 611.394863 -352.755768 
L 612.80005 -352.755768 
L 614.205238 -352.755768 
L 615.610426 -352.755768 
L 617.015613 -352.755768 
L 618.420801 -352.755768 
L 619.825988 -352.755768 
L 621.231176 -352.755768 
L 622.636364 -352.755768 
L 622.636364 -352.755768 
L 622.636364 -352.755768 
L 621.231176 -352.755768 
L 619.825988 -352.755768 
L 618.420801 -352.755768 
L 617.015613 -352.755768 
L 615.610426 -352.755768 
L 614.205238 -352.755768 
L 612.80005 -352.755768 
L 611.394863 -352.755768 
L 609.989675 -352.755768 
L 608.584488 -352.755768 
L 607.1793 -352.755768 
L 605.774112 -352.755768 
L 604.368925 -352.755768 
L 602.963737 -352.755768 
L 601.558549 -352.755768 
L 600.153362 -352.755768 
L 598.748174 -352.755768 
L 597.342987 -352.755768 
L 595.937799 -352.755768 
L 594.532611 -352.755768 
L 593.127424 -352.755768 
L 591.722236 -352.755768 
L 590.317049 -352.755768 
L 588.911861 -352.755768 
L 587.506673 -352.755768 
L 586.101486 -352.755768 
L 584.696298 -352.755768 
L 583.291111 -352.755768 
L 581.885923 -352.755768 
L 580.480735 -352.755768 
L 579.075548 -352.755768 
L 577.67036 -352.755768 
L 576.265173 -352.755768 
L 574.859985 -352.755768 
L 573.454797 -352.755768 
L 572.04961 -352.755768 
L 570.644422 -352.755768 
L 569.239234 -352.755768 
L 567.834047 -352.755768 
L 566.428859 -352.755768 
L 565.023672 -352.755768 
L 563.618484 -352.755768 
L 562.213296 -352.755768 
L 560.808109 -352.755768 
L 559.402921 -352.755768 
L 557.997734 -352.755768 
L 556.592546 -352.755768 
L 555.187358 -352.755768 
L 553.782171 -352.755768 
L 552.376983 -352.755768 
L 550.971796 -352.755768 
L 549.566608 -352.755768 
L 548.16142 -352.755768 
L 546.756233 -352.755768 
L 545.351045 -352.755768 
L 543.945857 -352.755768 
L 542.54067 -352.755768 
L 541.135482 -352.755768 
L 539.730295 -352.755768 
L 538.325107 -352.755768 
L 536.919919 -352.755768 
L 535.514732 -352.755768 
L 534.109544 -352.755768 
L 532.704357 -352.755768 
L 531.299169 -352.755768 
L 529.893981 -352.755768 
L 528.488794 -365.04 
L 527.083606 -300.784807 
L 525.678419 -275.859279 
L 524.273231 -270.916139 
L 522.868043 -62.64 
L 521.462856 -234.797556 
L 520.057668 -308.631832 
L 518.65248 -283.930305 
L 517.247293 -352.755768 
L 515.842105 -352.755768 
L 514.436918 -352.755768 
L 513.03173 -352.755768 
L 511.626542 -352.755768 
L 510.221355 -352.755768 
L 508.816167 -352.755768 
L 507.41098 -352.755768 
L 506.005792 -352.755768 
L 504.600604 -352.755768 
L 503.195417 -352.755768 
L 501.790229 -352.755768 
L 500.385042 -352.755768 
L 498.979854 -352.755768 
L 497.574666 -352.755768 
L 496.169479 -352.755768 
L 494.764291 -352.755768 
L 493.359104 -352.755768 
L 491.953916 -352.755768 
L 490.548728 -352.755768 
L 489.143541 -352.755768 
L 487.738353 -352.755768 
L 486.333165 -352.755768 
L 484.927978 -352.755768 
L 483.52279 -352.755768 
L 482.117603 -352.755768 
L 480.712415 -352.755768 
L 479.307227 -352.755768 
L 477.90204 -352.755768 
L 476.496852 -352.755768 
L 475.091665 -352.755768 
L 473.686477 -352.755768 
L 472.281289 -352.755768 
L 470.876102 -352.755768 
L 469.470914 -352.755768 
L 468.065727 -352.755768 
L 466.660539 -352.755768 
L 465.255351 -352.755768 
L 463.850164 -352.755768 
L 462.444976 -352.755768 
L 461.039788 -352.755768 
L 459.634601 -352.755768 
L 458.229413 -352.755768 
L 456.824226 -352.755768 
L 455.419038 -352.755768 
L 454.01385 -352.755768 
L 452.608663 -352.755768 
L 451.203475 -352.755768 
L 449.798288 -352.755768 
L 448.3931 -352.755768 
L 446.987912 -352.755768 
L 445.582725 -352.755768 
L 444.177537 -352.755768 
L 442.77235 -352.755768 
L 441.367162 -352.755768 
L 439.961974 -352.755768 
L 438.556787 -352.755768 
L 437.151599 -352.755768 
L 435.746411 -352.755768 
L 434.341224 -352.755768 
L 432.936036 -352.755768 
L 431.530849 -352.755768 
L 430.125661 -352.755768 
L 428.720473 -352.755768 
L 427.315286 -352.755768 
L 425.910098 -352.755768 
L 424.504911 -352.755768 
L 423.099723 -352.755768 
L 421.694535 -352.755768 
L 420.289348 -352.755768 
L 418.88416 -352.755768 
L 417.478973 -352.755768 
L 416.073785 -352.755768 
L 414.668597 -352.755768 
L 413.26341 -352.755768 
L 411.858222 -352.755768 
L 410.453035 -352.755768 
L 409.047847 -352.755768 
L 407.642659 -352.755768 
L 406.237472 -352.755768 
L 404.832284 -352.755768 
L 403.427096 -352.755768 
L 402.021909 -352.755768 
L 400.616721 -352.755768 
L 399.211534 -352.755768 
L 397.806346 -352.755768 
L 396.401158 -352.755768 
L 394.995971 -352.755768 
L 393.590783 -352.755768 
L 392.185596 -352.755768 
L 390.780408 -352.755768 
L 389.37522 -352.755768 
L 387.970033 -352.755768 
L 386.564845 -352.755768 
L 385.159658 -352.755768 
L 383.75447 -352.755768 
L 382.349282 -352.755768 
L 380.944095 -352.755768 
L 379.538907 -352.755768 
L 378.133719 -352.755768 
L 376.728532 -352.755768 
L 375.323344 -352.755768 
L 373.918157 -352.755768 
L 372.512969 -352.755768 
L 371.107781 -352.755768 
L 369.702594 -352.755768 
L 368.297406 -352.755768 
L 366.892219 -352.755768 
L 365.487031 -352.755768 
L 364.081843 -352.755768 
L 362.676656 -352.755768 
L 361.271468 -352.755768 
L 359.866281 -352.755768 
L 358.461093 -352.755768 
L 357.055905 -352.755768 
L 355.650718 -352.755768 
L 354.24553 -352.755768 
L 352.840342 -352.755768 
L 351.435155 -352.755768 
L 350.029967 -352.755768 
L 348.62478 -352.755768 
L 347.219592 -352.755768 
L 345.814404 -352.755768 
L 344.409217 -352.755768 
L 343.004029 -352.755768 
L 341.598842 -352.755768 
L 340.193654 -352.755768 
L 338.788466 -352.755768 
L 337.383279 -352.755768 
L 335.978091 -352.755768 
L 334.572904 -352.755768 
L 333.167716 -352.755768 
L 331.762528 -352.755768 
L 330.357341 -352.755768 
L 328.952153 -352.755768 
L 327.546965 -352.755768 
L 326.141778 -352.755768 
L 324.73659 -352.755768 
L 323.331403 -352.755768 
L 321.926215 -352.755768 
L 320.521027 -352.755768 
L 319.11584 -352.755768 
L 317.710652 -352.755768 
L 316.305465 -352.755768 
L 314.900277 -352.755768 
L 313.495089 -352.755768 
L 312.089902 -352.755768 
L 310.684714 -352.755768 
L 309.279527 -352.755768 
L 307.874339 -352.755768 
L 306.469151 -352.755768 
L 305.063964 -352.755768 
L 303.658776 -352.755768 
L 302.253589 -352.755768 
L 300.848401 -352.755768 
L 299.443213 -352.755768 
L 298.038026 -352.755768 
L 296.632838 -352.755768 
L 295.22765 -352.755768 
L 293.822463 -352.755768 
L 292.417275 -352.755768 
L 291.012088 -352.755768 
L 289.6069 -352.755768 
L 288.201712 -352.755768 
L 286.796525 -352.755768 
L 285.391337 -352.755768 
L 283.98615 -352.755768 
L 282.580962 -352.755768 
L 281.175774 -352.755768 
L 279.770587 -352.755768 
L 278.365399 -352.755768 
L 276.960212 -352.755768 
L 275.555024 -352.755768 
L 274.149836 -352.755768 
L 272.744649 -352.755768 
L 271.339461 -352.755768 
L 269.934273 -352.755768 
L 268.529086 -352.755768 
L 267.123898 -352.755768 
L 265.718711 -352.755768 
L 264.313523 -352.755768 
L 262.908335 -352.755768 
L 261.503148 -352.755768 
L 260.09796 -352.755768 
L 258.692773 -352.755768 
L 257.287585 -352.755768 
L 255.882397 -352.755768 
L 254.47721 -352.755768 
L 253.072022 -352.755768 
L 251.666835 -352.755768 
L 250.261647 -352.755768 
L 248.856459 -352.755768 
L 247.451272 -352.755768 
L 246.046084 -352.755768 
L 244.640896 -352.755768 
L 243.235709 -352.755768 
L 241.830521 -352.755768 
L 240.425334 -352.755768 
L 239.020146 -352.755768 
L 237.614958 -352.755768 
L 236.209771 -352.755768 
L 234.804583 -352.755768 
L 233.399396 -352.755768 
L 231.994208 -352.755768 
L 230.58902 -352.755768 
L 229.183833 -352.755768 
L 227.778645 -352.755768 
L 226.373458 -352.755768 
L 224.96827 -352.755768 
L 223.563082 -352.755768 
L 222.157895 -352.755768 
L 220.752707 -352.755768 
L 219.34752 -352.755768 
L 217.942332 -352.755768 
L 216.537144 -352.755768 
L 215.131957 -352.755768 
L 213.726769 -352.755768 
L 212.321581 -352.755768 
L 210.916394 -352.755768 
L 209.511206 -352.755768 
L 208.106019 -352.755768 
L 206.700831 -352.755768 
L 205.295643 -352.755768 
L 203.890456 -352.755768 
L 202.485268 -352.755768 
L 201.080081 -352.755768 
L 199.674893 -352.755768 
L 198.269705 -352.755768 
L 196.864518 -352.755768 
L 195.45933 -352.755768 
L 194.054143 -352.755768 
L 192.648955 -352.755768 
L 191.243767 -352.755768 
L 189.83858 -352.755768 
L 188.433392 -352.755768 
L 187.028204 -352.755768 
L 185.623017 -352.755768 
L 184.217829 -352.755768 
L 182.812642 -352.755768 
L 181.407454 -352.755768 
L 180.002266 -352.755768 
L 178.597079 -352.755768 
L 177.191891 -352.755768 
L 175.786704 -352.755768 
L 174.381516 -352.755768 
L 172.976328 -352.755768 
L 171.571141 -352.755768 
L 170.165953 -352.755768 
L 168.760766 -352.755768 
L 167.355578 -352.755768 
L 165.95039 -352.755768 
L 164.545203 -352.755768 
L 163.140015 -352.755768 
L 161.734827 -352.755768 
L 160.32964 -352.755768 
L 158.924452 -352.755768 
L 157.519265 -352.755768 
L 156.114077 -352.755768 
L 154.708889 -352.755768 
L 153.303702 -352.755768 
L 151.898514 -352.755768 
L 150.493327 -352.755768 
L 149.088139 -352.755768 
L 147.682951 -352.755768 
L 146.277764 -352.755768 
L 144.872576 -352.755768 
L 143.467389 -352.755768 
L 142.062201 -352.755768 
L 140.657013 -352.755768 
L 139.251826 -352.755768 
L 137.846638 -352.755768 
L 136.441451 -352.755768 
L 135.036263 -352.755768 
L 133.631075 -352.755768 
L 132.225888 -352.755768 
L 130.8207 -352.755768 
L 129.415512 -352.755768 
L 128.010325 -352.755768 
L 126.605137 -352.755768 
L 125.19995 -352.755768 
L 123.794762 -352.755768 
L 122.389574 -352.755768 
L 120.984387 -352.755768 
L 119.579199 -352.755768 
L 118.174012 -352.755768 
L 116.768824 -352.755768 
L 115.363636 -352.755768 
z
" id="m5e1628fd05" style="stroke:#0072b2;stroke-opacity:0.2;"/>
    </defs>
    <g clip-path="url(#p3cce61a2f7)">
     <use style="fill:#0072b2;fill-opacity:0.2;stroke:#0072b2;stroke-opacity:0.2;" x="0" xlink:href="#m5e1628fd05" y="432"/>
    </g>
   </g>
   <g id="matplotlib.axis_1">
    <g id="xtick_1">
     <g id="line2d_1">
      <path clip-path="url(#p3cce61a2f7)" d="M 101.31176 384.48 
L 101.31176 51.84 
" style="fill:none;stroke:#808080;stroke-linecap:square;stroke-opacity:0.2;"/>
     </g>
     <g id="line2d_2">
      <defs>
       <path d="M 0 0 
L 0 3.5 
" id="m4449a72d63" style="stroke:#000000;stroke-width:0.8;"/>
      </defs>
      <g>
       <use style="stroke:#000000;stroke-width:0.8;" x="101.31176" xlink:href="#m4449a72d63" y="384.48"/>
      </g>
     </g>
     <g id="text_1">
      <!-- 2020-02 -->
      <g transform="translate(80.420354 399.078438)scale(0.1 -0.1)">
       <defs>
        <path d="M 19.1875 8.296875 
L 53.609375 8.296875 
L 53.609375 0 
L 7.328125 0 
L 7.328125 8.296875 
Q 12.9375 14.109375 22.625 23.890625 
Q 32.328125 33.6875 34.8125 36.53125 
Q 39.546875 41.84375 41.421875 45.53125 
Q 43.3125 49.21875 43.3125 52.78125 
Q 43.3125 58.59375 39.234375 62.25 
Q 35.15625 65.921875 28.609375 65.921875 
Q 23.96875 65.921875 18.8125 64.3125 
Q 13.671875 62.703125 7.8125 59.421875 
L 7.8125 69.390625 
Q 13.765625 71.78125 18.9375 73 
Q 24.125 74.21875 28.421875 74.21875 
Q 39.75 74.21875 46.484375 68.546875 
Q 53.21875 62.890625 53.21875 53.421875 
Q 53.21875 48.921875 51.53125 44.890625 
Q 49.859375 40.875 45.40625 35.40625 
Q 44.1875 33.984375 37.640625 27.21875 
Q 31.109375 20.453125 19.1875 8.296875 
z
" id="DejaVuSans-50"/>
        <path d="M 31.78125 66.40625 
Q 24.171875 66.40625 20.328125 58.90625 
Q 16.5 51.421875 16.5 36.375 
Q 16.5 21.390625 20.328125 13.890625 
Q 24.171875 6.390625 31.78125 6.390625 
Q 39.453125 6.390625 43.28125 13.890625 
Q 47.125 21.390625 47.125 36.375 
Q 47.125 51.421875 43.28125 58.90625 
Q 39.453125 66.40625 31.78125 66.40625 
z
M 31.78125 74.21875 
Q 44.046875 74.21875 50.515625 64.515625 
Q 56.984375 54.828125 56.984375 36.375 
Q 56.984375 17.96875 50.515625 8.265625 
Q 44.046875 -1.421875 31.78125 -1.421875 
Q 19.53125 -1.421875 13.0625 8.265625 
Q 6.59375 17.96875 6.59375 36.375 
Q 6.59375 54.828125 13.0625 64.515625 
Q 19.53125 74.21875 31.78125 74.21875 
z
" id="DejaVuSans-48"/>
        <path d="M 4.890625 31.390625 
L 31.203125 31.390625 
L 31.203125 23.390625 
L 4.890625 23.390625 
z
" id="DejaVuSans-45"/>
       </defs>
       <use xlink:href="#DejaVuSans-50"/>
       <use x="63.623047" xlink:href="#DejaVuSans-48"/>
       <use x="127.246094" xlink:href="#DejaVuSans-50"/>
       <use x="190.869141" xlink:href="#DejaVuSans-48"/>
       <use x="254.492188" xlink:href="#DejaVuSans-45"/>
       <use x="290.576172" xlink:href="#DejaVuSans-48"/>
       <use x="354.199219" xlink:href="#DejaVuSans-50"/>
      </g>
     </g>
    </g>
    <g id="xtick_2">
     <g id="line2d_3">
      <path clip-path="url(#p3cce61a2f7)" d="M 185.623017 384.48 
L 185.623017 51.84 
" style="fill:none;stroke:#808080;stroke-linecap:square;stroke-opacity:0.2;"/>
     </g>
     <g id="line2d_4">
      <g>
       <use style="stroke:#000000;stroke-width:0.8;" x="185.623017" xlink:href="#m4449a72d63" y="384.48"/>
      </g>
     </g>
     <g id="text_2">
      <!-- 2020-04 -->
      <g transform="translate(164.731611 399.078438)scale(0.1 -0.1)">
       <defs>
        <path d="M 37.796875 64.3125 
L 12.890625 25.390625 
L 37.796875 25.390625 
z
M 35.203125 72.90625 
L 47.609375 72.90625 
L 47.609375 25.390625 
L 58.015625 25.390625 
L 58.015625 17.1875 
L 47.609375 17.1875 
L 47.609375 0 
L 37.796875 0 
L 37.796875 17.1875 
L 4.890625 17.1875 
L 4.890625 26.703125 
z
" id="DejaVuSans-52"/>
       </defs>
       <use xlink:href="#DejaVuSans-50"/>
       <use x="63.623047" xlink:href="#DejaVuSans-48"/>
       <use x="127.246094" xlink:href="#DejaVuSans-50"/>
       <use x="190.869141" xlink:href="#DejaVuSans-48"/>
       <use x="254.492188" xlink:href="#DejaVuSans-45"/>
       <use x="290.576172" xlink:href="#DejaVuSans-48"/>
       <use x="354.199219" xlink:href="#DejaVuSans-52"/>
      </g>
     </g>
    </g>
    <g id="xtick_3">
     <g id="line2d_5">
      <path clip-path="url(#p3cce61a2f7)" d="M 271.339461 384.48 
L 271.339461 51.84 
" style="fill:none;stroke:#808080;stroke-linecap:square;stroke-opacity:0.2;"/>
     </g>
     <g id="line2d_6">
      <g>
       <use style="stroke:#000000;stroke-width:0.8;" x="271.339461" xlink:href="#m4449a72d63" y="384.48"/>
      </g>
     </g>
     <g id="text_3">
      <!-- 2020-06 -->
      <g transform="translate(250.448055 399.078438)scale(0.1 -0.1)">
       <defs>
        <path d="M 33.015625 40.375 
Q 26.375 40.375 22.484375 35.828125 
Q 18.609375 31.296875 18.609375 23.390625 
Q 18.609375 15.53125 22.484375 10.953125 
Q 26.375 6.390625 33.015625 6.390625 
Q 39.65625 6.390625 43.53125 10.953125 
Q 47.40625 15.53125 47.40625 23.390625 
Q 47.40625 31.296875 43.53125 35.828125 
Q 39.65625 40.375 33.015625 40.375 
z
M 52.59375 71.296875 
L 52.59375 62.3125 
Q 48.875 64.0625 45.09375 64.984375 
Q 41.3125 65.921875 37.59375 65.921875 
Q 27.828125 65.921875 22.671875 59.328125 
Q 17.53125 52.734375 16.796875 39.40625 
Q 19.671875 43.65625 24.015625 45.921875 
Q 28.375 48.1875 33.59375 48.1875 
Q 44.578125 48.1875 50.953125 41.515625 
Q 57.328125 34.859375 57.328125 23.390625 
Q 57.328125 12.15625 50.6875 5.359375 
Q 44.046875 -1.421875 33.015625 -1.421875 
Q 20.359375 -1.421875 13.671875 8.265625 
Q 6.984375 17.96875 6.984375 36.375 
Q 6.984375 53.65625 15.1875 63.9375 
Q 23.390625 74.21875 37.203125 74.21875 
Q 40.921875 74.21875 44.703125 73.484375 
Q 48.484375 72.75 52.59375 71.296875 
z
" id="DejaVuSans-54"/>
       </defs>
       <use xlink:href="#DejaVuSans-50"/>
       <use x="63.623047" xlink:href="#DejaVuSans-48"/>
       <use x="127.246094" xlink:href="#DejaVuSans-50"/>
       <use x="190.869141" xlink:href="#DejaVuSans-48"/>
       <use x="254.492188" xlink:href="#DejaVuSans-45"/>
       <use x="290.576172" xlink:href="#DejaVuSans-48"/>
       <use x="354.199219" xlink:href="#DejaVuSans-54"/>
      </g>
     </g>
    </g>
    <g id="xtick_4">
     <g id="line2d_7">
      <path clip-path="url(#p3cce61a2f7)" d="M 357.055905 384.48 
L 357.055905 51.84 
" style="fill:none;stroke:#808080;stroke-linecap:square;stroke-opacity:0.2;"/>
     </g>
     <g id="line2d_8">
      <g>
       <use style="stroke:#000000;stroke-width:0.8;" x="357.055905" xlink:href="#m4449a72d63" y="384.48"/>
      </g>
     </g>
     <g id="text_4">
      <!-- 2020-08 -->
      <g transform="translate(336.164499 399.078438)scale(0.1 -0.1)">
       <defs>
        <path d="M 31.78125 34.625 
Q 24.75 34.625 20.71875 30.859375 
Q 16.703125 27.09375 16.703125 20.515625 
Q 16.703125 13.921875 20.71875 10.15625 
Q 24.75 6.390625 31.78125 6.390625 
Q 38.8125 6.390625 42.859375 10.171875 
Q 46.921875 13.96875 46.921875 20.515625 
Q 46.921875 27.09375 42.890625 30.859375 
Q 38.875 34.625 31.78125 34.625 
z
M 21.921875 38.8125 
Q 15.578125 40.375 12.03125 44.71875 
Q 8.5 49.078125 8.5 55.328125 
Q 8.5 64.0625 14.71875 69.140625 
Q 20.953125 74.21875 31.78125 74.21875 
Q 42.671875 74.21875 48.875 69.140625 
Q 55.078125 64.0625 55.078125 55.328125 
Q 55.078125 49.078125 51.53125 44.71875 
Q 48 40.375 41.703125 38.8125 
Q 48.828125 37.15625 52.796875 32.3125 
Q 56.78125 27.484375 56.78125 20.515625 
Q 56.78125 9.90625 50.3125 4.234375 
Q 43.84375 -1.421875 31.78125 -1.421875 
Q 19.734375 -1.421875 13.25 4.234375 
Q 6.78125 9.90625 6.78125 20.515625 
Q 6.78125 27.484375 10.78125 32.3125 
Q 14.796875 37.15625 21.921875 38.8125 
z
M 18.3125 54.390625 
Q 18.3125 48.734375 21.84375 45.5625 
Q 25.390625 42.390625 31.78125 42.390625 
Q 38.140625 42.390625 41.71875 45.5625 
Q 45.3125 48.734375 45.3125 54.390625 
Q 45.3125 60.0625 41.71875 63.234375 
Q 38.140625 66.40625 31.78125 66.40625 
Q 25.390625 66.40625 21.84375 63.234375 
Q 18.3125 60.0625 18.3125 54.390625 
z
" id="DejaVuSans-56"/>
       </defs>
       <use xlink:href="#DejaVuSans-50"/>
       <use x="63.623047" xlink:href="#DejaVuSans-48"/>
       <use x="127.246094" xlink:href="#DejaVuSans-50"/>
       <use x="190.869141" xlink:href="#DejaVuSans-48"/>
       <use x="254.492188" xlink:href="#DejaVuSans-45"/>
       <use x="290.576172" xlink:href="#DejaVuSans-48"/>
       <use x="354.199219" xlink:href="#DejaVuSans-56"/>
      </g>
     </g>
    </g>
    <g id="xtick_5">
     <g id="line2d_9">
      <path clip-path="url(#p3cce61a2f7)" d="M 442.77235 384.48 
L 442.77235 51.84 
" style="fill:none;stroke:#808080;stroke-linecap:square;stroke-opacity:0.2;"/>
     </g>
     <g id="line2d_10">
      <g>
       <use style="stroke:#000000;stroke-width:0.8;" x="442.77235" xlink:href="#m4449a72d63" y="384.48"/>
      </g>
     </g>
     <g id="text_5">
      <!-- 2020-10 -->
      <g transform="translate(421.880943 399.078438)scale(0.1 -0.1)">
       <defs>
        <path d="M 12.40625 8.296875 
L 28.515625 8.296875 
L 28.515625 63.921875 
L 10.984375 60.40625 
L 10.984375 69.390625 
L 28.421875 72.90625 
L 38.28125 72.90625 
L 38.28125 8.296875 
L 54.390625 8.296875 
L 54.390625 0 
L 12.40625 0 
z
" id="DejaVuSans-49"/>
       </defs>
       <use xlink:href="#DejaVuSans-50"/>
       <use x="63.623047" xlink:href="#DejaVuSans-48"/>
       <use x="127.246094" xlink:href="#DejaVuSans-50"/>
       <use x="190.869141" xlink:href="#DejaVuSans-48"/>
       <use x="254.492188" xlink:href="#DejaVuSans-45"/>
       <use x="290.576172" xlink:href="#DejaVuSans-49"/>
       <use x="354.199219" xlink:href="#DejaVuSans-48"/>
      </g>
     </g>
    </g>
    <g id="xtick_6">
     <g id="line2d_11">
      <path clip-path="url(#p3cce61a2f7)" d="M 528.488794 384.48 
L 528.488794 51.84 
" style="fill:none;stroke:#808080;stroke-linecap:square;stroke-opacity:0.2;"/>
     </g>
     <g id="line2d_12">
      <g>
       <use style="stroke:#000000;stroke-width:0.8;" x="528.488794" xlink:href="#m4449a72d63" y="384.48"/>
      </g>
     </g>
     <g id="text_6">
      <!-- 2020-12 -->
      <g transform="translate(507.597388 399.078438)scale(0.1 -0.1)">
       <use xlink:href="#DejaVuSans-50"/>
       <use x="63.623047" xlink:href="#DejaVuSans-48"/>
       <use x="127.246094" xlink:href="#DejaVuSans-50"/>
       <use x="190.869141" xlink:href="#DejaVuSans-48"/>
       <use x="254.492188" xlink:href="#DejaVuSans-45"/>
       <use x="290.576172" xlink:href="#DejaVuSans-49"/>
       <use x="354.199219" xlink:href="#DejaVuSans-50"/>
      </g>
     </g>
    </g>
    <g id="xtick_7">
     <g id="line2d_13">
      <path clip-path="url(#p3cce61a2f7)" d="M 615.610426 384.48 
L 615.610426 51.84 
" style="fill:none;stroke:#808080;stroke-linecap:square;stroke-opacity:0.2;"/>
     </g>
     <g id="line2d_14">
      <g>
       <use style="stroke:#000000;stroke-width:0.8;" x="615.610426" xlink:href="#m4449a72d63" y="384.48"/>
      </g>
     </g>
     <g id="text_7">
      <!-- 2021-02 -->
      <g transform="translate(594.719019 399.078438)scale(0.1 -0.1)">
       <use xlink:href="#DejaVuSans-50"/>
       <use x="63.623047" xlink:href="#DejaVuSans-48"/>
       <use x="127.246094" xlink:href="#DejaVuSans-50"/>
       <use x="190.869141" xlink:href="#DejaVuSans-49"/>
       <use x="254.492188" xlink:href="#DejaVuSans-45"/>
       <use x="290.576172" xlink:href="#DejaVuSans-48"/>
       <use x="354.199219" xlink:href="#DejaVuSans-50"/>
      </g>
     </g>
    </g>
    <g id="text_8">
     <!-- ds -->
     <g transform="translate(363.221094 412.756563)scale(0.1 -0.1)">
      <defs>
       <path d="M 45.40625 46.390625 
L 45.40625 75.984375 
L 54.390625 75.984375 
L 54.390625 0 
L 45.40625 0 
L 45.40625 8.203125 
Q 42.578125 3.328125 38.25 0.953125 
Q 33.9375 -1.421875 27.875 -1.421875 
Q 17.96875 -1.421875 11.734375 6.484375 
Q 5.515625 14.40625 5.515625 27.296875 
Q 5.515625 40.1875 11.734375 48.09375 
Q 17.96875 56 27.875 56 
Q 33.9375 56 38.25 53.625 
Q 42.578125 51.265625 45.40625 46.390625 
z
M 14.796875 27.296875 
Q 14.796875 17.390625 18.875 11.75 
Q 22.953125 6.109375 30.078125 6.109375 
Q 37.203125 6.109375 41.296875 11.75 
Q 45.40625 17.390625 45.40625 27.296875 
Q 45.40625 37.203125 41.296875 42.84375 
Q 37.203125 48.484375 30.078125 48.484375 
Q 22.953125 48.484375 18.875 42.84375 
Q 14.796875 37.203125 14.796875 27.296875 
z
" id="DejaVuSans-100"/>
       <path d="M 44.28125 53.078125 
L 44.28125 44.578125 
Q 40.484375 46.53125 36.375 47.5 
Q 32.28125 48.484375 27.875 48.484375 
Q 21.1875 48.484375 17.84375 46.4375 
Q 14.5 44.390625 14.5 40.28125 
Q 14.5 37.15625 16.890625 35.375 
Q 19.28125 33.59375 26.515625 31.984375 
L 29.59375 31.296875 
Q 39.15625 29.25 43.1875 25.515625 
Q 47.21875 21.78125 47.21875 15.09375 
Q 47.21875 7.46875 41.1875 3.015625 
Q 35.15625 -1.421875 24.609375 -1.421875 
Q 20.21875 -1.421875 15.453125 -0.5625 
Q 10.6875 0.296875 5.421875 2 
L 5.421875 11.28125 
Q 10.40625 8.6875 15.234375 7.390625 
Q 20.0625 6.109375 24.8125 6.109375 
Q 31.15625 6.109375 34.5625 8.28125 
Q 37.984375 10.453125 37.984375 14.40625 
Q 37.984375 18.0625 35.515625 20.015625 
Q 33.0625 21.96875 24.703125 23.78125 
L 21.578125 24.515625 
Q 13.234375 26.265625 9.515625 29.90625 
Q 5.8125 33.546875 5.8125 39.890625 
Q 5.8125 47.609375 11.28125 51.796875 
Q 16.75 56 26.8125 56 
Q 31.78125 56 36.171875 55.265625 
Q 40.578125 54.546875 44.28125 53.078125 
z
" id="DejaVuSans-115"/>
      </defs>
      <use xlink:href="#DejaVuSans-100"/>
      <use x="63.476562" xlink:href="#DejaVuSans-115"/>
     </g>
    </g>
   </g>
   <g id="matplotlib.axis_2">
    <g id="ytick_1">
     <g id="line2d_15">
      <path clip-path="url(#p3cce61a2f7)" d="M 90 369.297801 
L 648 369.297801 
" style="fill:none;stroke:#808080;stroke-linecap:square;stroke-opacity:0.2;"/>
     </g>
     <g id="line2d_16">
      <defs>
       <path d="M 0 0 
L -3.5 0 
" id="m6a423fd695" style="stroke:#000000;stroke-width:0.8;"/>
      </defs>
      <g>
       <use style="stroke:#000000;stroke-width:0.8;" x="90" xlink:href="#m6a423fd695" y="369.297801"/>
      </g>
     </g>
     <g id="text_9">
      <!-- −17.5 -->
      <g transform="translate(52.354687 373.09702)scale(0.1 -0.1)">
       <defs>
        <path d="M 10.59375 35.5 
L 73.1875 35.5 
L 73.1875 27.203125 
L 10.59375 27.203125 
z
" id="DejaVuSans-8722"/>
        <path d="M 8.203125 72.90625 
L 55.078125 72.90625 
L 55.078125 68.703125 
L 28.609375 0 
L 18.3125 0 
L 43.21875 64.59375 
L 8.203125 64.59375 
z
" id="DejaVuSans-55"/>
        <path d="M 10.6875 12.40625 
L 21 12.40625 
L 21 0 
L 10.6875 0 
z
" id="DejaVuSans-46"/>
        <path d="M 10.796875 72.90625 
L 49.515625 72.90625 
L 49.515625 64.59375 
L 19.828125 64.59375 
L 19.828125 46.734375 
Q 21.96875 47.46875 24.109375 47.828125 
Q 26.265625 48.1875 28.421875 48.1875 
Q 40.625 48.1875 47.75 41.5 
Q 54.890625 34.8125 54.890625 23.390625 
Q 54.890625 11.625 47.5625 5.09375 
Q 40.234375 -1.421875 26.90625 -1.421875 
Q 22.3125 -1.421875 17.546875 -0.640625 
Q 12.796875 0.140625 7.71875 1.703125 
L 7.71875 11.625 
Q 12.109375 9.234375 16.796875 8.0625 
Q 21.484375 6.890625 26.703125 6.890625 
Q 35.15625 6.890625 40.078125 11.328125 
Q 45.015625 15.765625 45.015625 23.390625 
Q 45.015625 31 40.078125 35.4375 
Q 35.15625 39.890625 26.703125 39.890625 
Q 22.75 39.890625 18.8125 39.015625 
Q 14.890625 38.140625 10.796875 36.28125 
z
" id="DejaVuSans-53"/>
       </defs>
       <use xlink:href="#DejaVuSans-8722"/>
       <use x="83.789062" xlink:href="#DejaVuSans-49"/>
       <use x="147.412109" xlink:href="#DejaVuSans-55"/>
       <use x="211.035156" xlink:href="#DejaVuSans-46"/>
       <use x="242.822266" xlink:href="#DejaVuSans-53"/>
      </g>
     </g>
    </g>
    <g id="ytick_2">
     <g id="line2d_17">
      <path clip-path="url(#p3cce61a2f7)" d="M 90 327.861577 
L 648 327.861577 
" style="fill:none;stroke:#808080;stroke-linecap:square;stroke-opacity:0.2;"/>
     </g>
     <g id="line2d_18">
      <g>
       <use style="stroke:#000000;stroke-width:0.8;" x="90" xlink:href="#m6a423fd695" y="327.861577"/>
      </g>
     </g>
     <g id="text_10">
      <!-- −15.0 -->
      <g transform="translate(52.354687 331.660796)scale(0.1 -0.1)">
       <use xlink:href="#DejaVuSans-8722"/>
       <use x="83.789062" xlink:href="#DejaVuSans-49"/>
       <use x="147.412109" xlink:href="#DejaVuSans-53"/>
       <use x="211.035156" xlink:href="#DejaVuSans-46"/>
       <use x="242.822266" xlink:href="#DejaVuSans-48"/>
      </g>
     </g>
    </g>
    <g id="ytick_3">
     <g id="line2d_19">
      <path clip-path="url(#p3cce61a2f7)" d="M 90 286.425353 
L 648 286.425353 
" style="fill:none;stroke:#808080;stroke-linecap:square;stroke-opacity:0.2;"/>
     </g>
     <g id="line2d_20">
      <g>
       <use style="stroke:#000000;stroke-width:0.8;" x="90" xlink:href="#m6a423fd695" y="286.425353"/>
      </g>
     </g>
     <g id="text_11">
      <!-- −12.5 -->
      <g transform="translate(52.354687 290.224572)scale(0.1 -0.1)">
       <use xlink:href="#DejaVuSans-8722"/>
       <use x="83.789062" xlink:href="#DejaVuSans-49"/>
       <use x="147.412109" xlink:href="#DejaVuSans-50"/>
       <use x="211.035156" xlink:href="#DejaVuSans-46"/>
       <use x="242.822266" xlink:href="#DejaVuSans-53"/>
      </g>
     </g>
    </g>
    <g id="ytick_4">
     <g id="line2d_21">
      <path clip-path="url(#p3cce61a2f7)" d="M 90 244.989129 
L 648 244.989129 
" style="fill:none;stroke:#808080;stroke-linecap:square;stroke-opacity:0.2;"/>
     </g>
     <g id="line2d_22">
      <g>
       <use style="stroke:#000000;stroke-width:0.8;" x="90" xlink:href="#m6a423fd695" y="244.989129"/>
      </g>
     </g>
     <g id="text_12">
      <!-- −10.0 -->
      <g transform="translate(52.354687 248.788347)scale(0.1 -0.1)">
       <use xlink:href="#DejaVuSans-8722"/>
       <use x="83.789062" xlink:href="#DejaVuSans-49"/>
       <use x="147.412109" xlink:href="#DejaVuSans-48"/>
       <use x="211.035156" xlink:href="#DejaVuSans-46"/>
       <use x="242.822266" xlink:href="#DejaVuSans-48"/>
      </g>
     </g>
    </g>
    <g id="ytick_5">
     <g id="line2d_23">
      <path clip-path="url(#p3cce61a2f7)" d="M 90 203.552904 
L 648 203.552904 
" style="fill:none;stroke:#808080;stroke-linecap:square;stroke-opacity:0.2;"/>
     </g>
     <g id="line2d_24">
      <g>
       <use style="stroke:#000000;stroke-width:0.8;" x="90" xlink:href="#m6a423fd695" y="203.552904"/>
      </g>
     </g>
     <g id="text_13">
      <!-- −7.5 -->
      <g transform="translate(58.717187 207.352123)scale(0.1 -0.1)">
       <use xlink:href="#DejaVuSans-8722"/>
       <use x="83.789062" xlink:href="#DejaVuSans-55"/>
       <use x="147.412109" xlink:href="#DejaVuSans-46"/>
       <use x="179.199219" xlink:href="#DejaVuSans-53"/>
      </g>
     </g>
    </g>
    <g id="ytick_6">
     <g id="line2d_25">
      <path clip-path="url(#p3cce61a2f7)" d="M 90 162.11668 
L 648 162.11668 
" style="fill:none;stroke:#808080;stroke-linecap:square;stroke-opacity:0.2;"/>
     </g>
     <g id="line2d_26">
      <g>
       <use style="stroke:#000000;stroke-width:0.8;" x="90" xlink:href="#m6a423fd695" y="162.11668"/>
      </g>
     </g>
     <g id="text_14">
      <!-- −5.0 -->
      <g transform="translate(58.717187 165.915899)scale(0.1 -0.1)">
       <use xlink:href="#DejaVuSans-8722"/>
       <use x="83.789062" xlink:href="#DejaVuSans-53"/>
       <use x="147.412109" xlink:href="#DejaVuSans-46"/>
       <use x="179.199219" xlink:href="#DejaVuSans-48"/>
      </g>
     </g>
    </g>
    <g id="ytick_7">
     <g id="line2d_27">
      <path clip-path="url(#p3cce61a2f7)" d="M 90 120.680456 
L 648 120.680456 
" style="fill:none;stroke:#808080;stroke-linecap:square;stroke-opacity:0.2;"/>
     </g>
     <g id="line2d_28">
      <g>
       <use style="stroke:#000000;stroke-width:0.8;" x="90" xlink:href="#m6a423fd695" y="120.680456"/>
      </g>
     </g>
     <g id="text_15">
      <!-- −2.5 -->
      <g transform="translate(58.717187 124.479675)scale(0.1 -0.1)">
       <use xlink:href="#DejaVuSans-8722"/>
       <use x="83.789062" xlink:href="#DejaVuSans-50"/>
       <use x="147.412109" xlink:href="#DejaVuSans-46"/>
       <use x="179.199219" xlink:href="#DejaVuSans-53"/>
      </g>
     </g>
    </g>
    <g id="ytick_8">
     <g id="line2d_29">
      <path clip-path="url(#p3cce61a2f7)" d="M 90 79.244232 
L 648 79.244232 
" style="fill:none;stroke:#808080;stroke-linecap:square;stroke-opacity:0.2;"/>
     </g>
     <g id="line2d_30">
      <g>
       <use style="stroke:#000000;stroke-width:0.8;" x="90" xlink:href="#m6a423fd695" y="79.244232"/>
      </g>
     </g>
     <g id="text_16">
      <!-- 0.0 -->
      <g transform="translate(67.096875 83.043451)scale(0.1 -0.1)">
       <use xlink:href="#DejaVuSans-48"/>
       <use x="63.623047" xlink:href="#DejaVuSans-46"/>
       <use x="95.410156" xlink:href="#DejaVuSans-48"/>
      </g>
     </g>
    </g>
    <g id="text_17">
     <!-- Preisänderung_in_black_friday -->
     <g transform="translate(45.996875 293.883437)rotate(-90)scale(0.1 -0.1)">
      <defs>
       <path d="M 19.671875 64.796875 
L 19.671875 37.40625 
L 32.078125 37.40625 
Q 38.96875 37.40625 42.71875 40.96875 
Q 46.484375 44.53125 46.484375 51.125 
Q 46.484375 57.671875 42.71875 61.234375 
Q 38.96875 64.796875 32.078125 64.796875 
z
M 9.8125 72.90625 
L 32.078125 72.90625 
Q 44.34375 72.90625 50.609375 67.359375 
Q 56.890625 61.8125 56.890625 51.125 
Q 56.890625 40.328125 50.609375 34.8125 
Q 44.34375 29.296875 32.078125 29.296875 
L 19.671875 29.296875 
L 19.671875 0 
L 9.8125 0 
z
" id="DejaVuSans-80"/>
       <path d="M 41.109375 46.296875 
Q 39.59375 47.171875 37.8125 47.578125 
Q 36.03125 48 33.890625 48 
Q 26.265625 48 22.1875 43.046875 
Q 18.109375 38.09375 18.109375 28.8125 
L 18.109375 0 
L 9.078125 0 
L 9.078125 54.6875 
L 18.109375 54.6875 
L 18.109375 46.1875 
Q 20.953125 51.171875 25.484375 53.578125 
Q 30.03125 56 36.53125 56 
Q 37.453125 56 38.578125 55.875 
Q 39.703125 55.765625 41.0625 55.515625 
z
" id="DejaVuSans-114"/>
       <path d="M 56.203125 29.59375 
L 56.203125 25.203125 
L 14.890625 25.203125 
Q 15.484375 15.921875 20.484375 11.0625 
Q 25.484375 6.203125 34.421875 6.203125 
Q 39.59375 6.203125 44.453125 7.46875 
Q 49.3125 8.734375 54.109375 11.28125 
L 54.109375 2.78125 
Q 49.265625 0.734375 44.1875 -0.34375 
Q 39.109375 -1.421875 33.890625 -1.421875 
Q 20.796875 -1.421875 13.15625 6.1875 
Q 5.515625 13.8125 5.515625 26.8125 
Q 5.515625 40.234375 12.765625 48.109375 
Q 20.015625 56 32.328125 56 
Q 43.359375 56 49.78125 48.890625 
Q 56.203125 41.796875 56.203125 29.59375 
z
M 47.21875 32.234375 
Q 47.125 39.59375 43.09375 43.984375 
Q 39.0625 48.390625 32.421875 48.390625 
Q 24.90625 48.390625 20.390625 44.140625 
Q 15.875 39.890625 15.1875 32.171875 
z
" id="DejaVuSans-101"/>
       <path d="M 9.421875 54.6875 
L 18.40625 54.6875 
L 18.40625 0 
L 9.421875 0 
z
M 9.421875 75.984375 
L 18.40625 75.984375 
L 18.40625 64.59375 
L 9.421875 64.59375 
z
" id="DejaVuSans-105"/>
       <path d="M 34.28125 27.484375 
Q 23.390625 27.484375 19.1875 25 
Q 14.984375 22.515625 14.984375 16.5 
Q 14.984375 11.71875 18.140625 8.90625 
Q 21.296875 6.109375 26.703125 6.109375 
Q 34.1875 6.109375 38.703125 11.40625 
Q 43.21875 16.703125 43.21875 25.484375 
L 43.21875 27.484375 
z
M 52.203125 31.203125 
L 52.203125 0 
L 43.21875 0 
L 43.21875 8.296875 
Q 40.140625 3.328125 35.546875 0.953125 
Q 30.953125 -1.421875 24.3125 -1.421875 
Q 15.921875 -1.421875 10.953125 3.296875 
Q 6 8.015625 6 15.921875 
Q 6 25.140625 12.171875 29.828125 
Q 18.359375 34.515625 30.609375 34.515625 
L 43.21875 34.515625 
L 43.21875 35.40625 
Q 43.21875 41.609375 39.140625 45 
Q 35.0625 48.390625 27.6875 48.390625 
Q 23 48.390625 18.546875 47.265625 
Q 14.109375 46.140625 10.015625 43.890625 
L 10.015625 52.203125 
Q 14.9375 54.109375 19.578125 55.046875 
Q 24.21875 56 28.609375 56 
Q 40.484375 56 46.34375 49.84375 
Q 52.203125 43.703125 52.203125 31.203125 
z
M 33.59375 75.78125 
L 43.5 75.78125 
L 43.5 65.921875 
L 33.59375 65.921875 
z
M 14.5 75.78125 
L 24.40625 75.78125 
L 24.40625 65.921875 
L 14.5 65.921875 
z
" id="DejaVuSans-228"/>
       <path d="M 54.890625 33.015625 
L 54.890625 0 
L 45.90625 0 
L 45.90625 32.71875 
Q 45.90625 40.484375 42.875 44.328125 
Q 39.84375 48.1875 33.796875 48.1875 
Q 26.515625 48.1875 22.3125 43.546875 
Q 18.109375 38.921875 18.109375 30.90625 
L 18.109375 0 
L 9.078125 0 
L 9.078125 54.6875 
L 18.109375 54.6875 
L 18.109375 46.1875 
Q 21.34375 51.125 25.703125 53.5625 
Q 30.078125 56 35.796875 56 
Q 45.21875 56 50.046875 50.171875 
Q 54.890625 44.34375 54.890625 33.015625 
z
" id="DejaVuSans-110"/>
       <path d="M 8.5 21.578125 
L 8.5 54.6875 
L 17.484375 54.6875 
L 17.484375 21.921875 
Q 17.484375 14.15625 20.5 10.265625 
Q 23.53125 6.390625 29.59375 6.390625 
Q 36.859375 6.390625 41.078125 11.03125 
Q 45.3125 15.671875 45.3125 23.6875 
L 45.3125 54.6875 
L 54.296875 54.6875 
L 54.296875 0 
L 45.3125 0 
L 45.3125 8.40625 
Q 42.046875 3.421875 37.71875 1 
Q 33.40625 -1.421875 27.6875 -1.421875 
Q 18.265625 -1.421875 13.375 4.4375 
Q 8.5 10.296875 8.5 21.578125 
z
M 31.109375 56 
z
" id="DejaVuSans-117"/>
       <path d="M 45.40625 27.984375 
Q 45.40625 37.75 41.375 43.109375 
Q 37.359375 48.484375 30.078125 48.484375 
Q 22.859375 48.484375 18.828125 43.109375 
Q 14.796875 37.75 14.796875 27.984375 
Q 14.796875 18.265625 18.828125 12.890625 
Q 22.859375 7.515625 30.078125 7.515625 
Q 37.359375 7.515625 41.375 12.890625 
Q 45.40625 18.265625 45.40625 27.984375 
z
M 54.390625 6.78125 
Q 54.390625 -7.171875 48.1875 -13.984375 
Q 42 -20.796875 29.203125 -20.796875 
Q 24.46875 -20.796875 20.265625 -20.09375 
Q 16.0625 -19.390625 12.109375 -17.921875 
L 12.109375 -9.1875 
Q 16.0625 -11.328125 19.921875 -12.34375 
Q 23.78125 -13.375 27.78125 -13.375 
Q 36.625 -13.375 41.015625 -8.765625 
Q 45.40625 -4.15625 45.40625 5.171875 
L 45.40625 9.625 
Q 42.625 4.78125 38.28125 2.390625 
Q 33.9375 0 27.875 0 
Q 17.828125 0 11.671875 7.65625 
Q 5.515625 15.328125 5.515625 27.984375 
Q 5.515625 40.671875 11.671875 48.328125 
Q 17.828125 56 27.875 56 
Q 33.9375 56 38.28125 53.609375 
Q 42.625 51.21875 45.40625 46.390625 
L 45.40625 54.6875 
L 54.390625 54.6875 
z
" id="DejaVuSans-103"/>
       <path d="M 50.984375 -16.609375 
L 50.984375 -23.578125 
L -0.984375 -23.578125 
L -0.984375 -16.609375 
z
" id="DejaVuSans-95"/>
       <path d="M 48.6875 27.296875 
Q 48.6875 37.203125 44.609375 42.84375 
Q 40.53125 48.484375 33.40625 48.484375 
Q 26.265625 48.484375 22.1875 42.84375 
Q 18.109375 37.203125 18.109375 27.296875 
Q 18.109375 17.390625 22.1875 11.75 
Q 26.265625 6.109375 33.40625 6.109375 
Q 40.53125 6.109375 44.609375 11.75 
Q 48.6875 17.390625 48.6875 27.296875 
z
M 18.109375 46.390625 
Q 20.953125 51.265625 25.265625 53.625 
Q 29.59375 56 35.59375 56 
Q 45.5625 56 51.78125 48.09375 
Q 58.015625 40.1875 58.015625 27.296875 
Q 58.015625 14.40625 51.78125 6.484375 
Q 45.5625 -1.421875 35.59375 -1.421875 
Q 29.59375 -1.421875 25.265625 0.953125 
Q 20.953125 3.328125 18.109375 8.203125 
L 18.109375 0 
L 9.078125 0 
L 9.078125 75.984375 
L 18.109375 75.984375 
z
" id="DejaVuSans-98"/>
       <path d="M 9.421875 75.984375 
L 18.40625 75.984375 
L 18.40625 0 
L 9.421875 0 
z
" id="DejaVuSans-108"/>
       <path d="M 34.28125 27.484375 
Q 23.390625 27.484375 19.1875 25 
Q 14.984375 22.515625 14.984375 16.5 
Q 14.984375 11.71875 18.140625 8.90625 
Q 21.296875 6.109375 26.703125 6.109375 
Q 34.1875 6.109375 38.703125 11.40625 
Q 43.21875 16.703125 43.21875 25.484375 
L 43.21875 27.484375 
z
M 52.203125 31.203125 
L 52.203125 0 
L 43.21875 0 
L 43.21875 8.296875 
Q 40.140625 3.328125 35.546875 0.953125 
Q 30.953125 -1.421875 24.3125 -1.421875 
Q 15.921875 -1.421875 10.953125 3.296875 
Q 6 8.015625 6 15.921875 
Q 6 25.140625 12.171875 29.828125 
Q 18.359375 34.515625 30.609375 34.515625 
L 43.21875 34.515625 
L 43.21875 35.40625 
Q 43.21875 41.609375 39.140625 45 
Q 35.0625 48.390625 27.6875 48.390625 
Q 23 48.390625 18.546875 47.265625 
Q 14.109375 46.140625 10.015625 43.890625 
L 10.015625 52.203125 
Q 14.9375 54.109375 19.578125 55.046875 
Q 24.21875 56 28.609375 56 
Q 40.484375 56 46.34375 49.84375 
Q 52.203125 43.703125 52.203125 31.203125 
z
" id="DejaVuSans-97"/>
       <path d="M 48.78125 52.59375 
L 48.78125 44.1875 
Q 44.96875 46.296875 41.140625 47.34375 
Q 37.3125 48.390625 33.40625 48.390625 
Q 24.65625 48.390625 19.8125 42.84375 
Q 14.984375 37.3125 14.984375 27.296875 
Q 14.984375 17.28125 19.8125 11.734375 
Q 24.65625 6.203125 33.40625 6.203125 
Q 37.3125 6.203125 41.140625 7.25 
Q 44.96875 8.296875 48.78125 10.40625 
L 48.78125 2.09375 
Q 45.015625 0.34375 40.984375 -0.53125 
Q 36.96875 -1.421875 32.421875 -1.421875 
Q 20.0625 -1.421875 12.78125 6.34375 
Q 5.515625 14.109375 5.515625 27.296875 
Q 5.515625 40.671875 12.859375 48.328125 
Q 20.21875 56 33.015625 56 
Q 37.15625 56 41.109375 55.140625 
Q 45.0625 54.296875 48.78125 52.59375 
z
" id="DejaVuSans-99"/>
       <path d="M 9.078125 75.984375 
L 18.109375 75.984375 
L 18.109375 31.109375 
L 44.921875 54.6875 
L 56.390625 54.6875 
L 27.390625 29.109375 
L 57.625 0 
L 45.90625 0 
L 18.109375 26.703125 
L 18.109375 0 
L 9.078125 0 
z
" id="DejaVuSans-107"/>
       <path d="M 37.109375 75.984375 
L 37.109375 68.5 
L 28.515625 68.5 
Q 23.6875 68.5 21.796875 66.546875 
Q 19.921875 64.59375 19.921875 59.515625 
L 19.921875 54.6875 
L 34.71875 54.6875 
L 34.71875 47.703125 
L 19.921875 47.703125 
L 19.921875 0 
L 10.890625 0 
L 10.890625 47.703125 
L 2.296875 47.703125 
L 2.296875 54.6875 
L 10.890625 54.6875 
L 10.890625 58.5 
Q 10.890625 67.625 15.140625 71.796875 
Q 19.390625 75.984375 28.609375 75.984375 
z
" id="DejaVuSans-102"/>
       <path d="M 32.171875 -5.078125 
Q 28.375 -14.84375 24.75 -17.8125 
Q 21.140625 -20.796875 15.09375 -20.796875 
L 7.90625 -20.796875 
L 7.90625 -13.28125 
L 13.1875 -13.28125 
Q 16.890625 -13.28125 18.9375 -11.515625 
Q 21 -9.765625 23.484375 -3.21875 
L 25.09375 0.875 
L 2.984375 54.6875 
L 12.5 54.6875 
L 29.59375 11.921875 
L 46.6875 54.6875 
L 56.203125 54.6875 
z
" id="DejaVuSans-121"/>
      </defs>
      <use xlink:href="#DejaVuSans-80"/>
      <use x="58.552734" xlink:href="#DejaVuSans-114"/>
      <use x="97.416016" xlink:href="#DejaVuSans-101"/>
      <use x="158.939453" xlink:href="#DejaVuSans-105"/>
      <use x="186.722656" xlink:href="#DejaVuSans-115"/>
      <use x="238.822266" xlink:href="#DejaVuSans-228"/>
      <use x="300.101562" xlink:href="#DejaVuSans-110"/>
      <use x="363.480469" xlink:href="#DejaVuSans-100"/>
      <use x="426.957031" xlink:href="#DejaVuSans-101"/>
      <use x="488.480469" xlink:href="#DejaVuSans-114"/>
      <use x="529.59375" xlink:href="#DejaVuSans-117"/>
      <use x="592.972656" xlink:href="#DejaVuSans-110"/>
      <use x="656.351562" xlink:href="#DejaVuSans-103"/>
      <use x="719.828125" xlink:href="#DejaVuSans-95"/>
      <use x="769.828125" xlink:href="#DejaVuSans-105"/>
      <use x="797.611328" xlink:href="#DejaVuSans-110"/>
      <use x="860.990234" xlink:href="#DejaVuSans-95"/>
      <use x="910.990234" xlink:href="#DejaVuSans-98"/>
      <use x="974.466797" xlink:href="#DejaVuSans-108"/>
      <use x="1002.25" xlink:href="#DejaVuSans-97"/>
      <use x="1063.529297" xlink:href="#DejaVuSans-99"/>
      <use x="1118.509766" xlink:href="#DejaVuSans-107"/>
      <use x="1176.419922" xlink:href="#DejaVuSans-95"/>
      <use x="1226.419922" xlink:href="#DejaVuSans-102"/>
      <use x="1261.625" xlink:href="#DejaVuSans-114"/>
      <use x="1302.738281" xlink:href="#DejaVuSans-105"/>
      <use x="1330.521484" xlink:href="#DejaVuSans-100"/>
      <use x="1393.998047" xlink:href="#DejaVuSans-97"/>
      <use x="1455.277344" xlink:href="#DejaVuSans-121"/>
     </g>
    </g>
   </g>
   <g id="line2d_31">
    <path clip-path="url(#p3cce61a2f7)" d="M 115.363636 79.244232 
L 517.247293 79.244232 
L 518.65248 148.069695 
L 520.057668 123.368168 
L 521.462856 197.202444 
L 522.868043 369.36 
L 524.273231 161.083861 
L 525.678419 156.140721 
L 527.083606 131.215193 
L 528.488794 66.96 
L 529.893981 79.244232 
L 622.636364 79.244232 
L 622.636364 79.244232 
" style="fill:none;stroke:#0072b2;stroke-linecap:square;stroke-width:1.5;"/>
   </g>
   <g id="patch_3">
    <path d="M 90 384.48 
L 90 51.84 
" style="fill:none;stroke:#000000;stroke-linecap:square;stroke-linejoin:miter;stroke-width:0.8;"/>
   </g>
   <g id="patch_4">
    <path d="M 648 384.48 
L 648 51.84 
" style="fill:none;stroke:#000000;stroke-linecap:square;stroke-linejoin:miter;stroke-width:0.8;"/>
   </g>
   <g id="patch_5">
    <path d="M 90 384.48 
L 648 384.48 
" style="fill:none;stroke:#000000;stroke-linecap:square;stroke-linejoin:miter;stroke-width:0.8;"/>
   </g>
   <g id="patch_6">
    <path d="M 90 51.84 
L 648 51.84 
" style="fill:none;stroke:#000000;stroke-linecap:square;stroke-linejoin:miter;stroke-width:0.8;"/>
   </g>
  </g>
 </g>
 <defs>
  <clipPath id="p3cce61a2f7">
   <rect height="332.64" width="558" x="90" y="51.84"/>
  </clipPath>
 </defs>
</svg>
