<?xml version="1.0" encoding="utf-8" standalone="no"?>
<!DOCTYPE svg PUBLIC "-//W3C//DTD SVG 1.1//EN"
  "http://www.w3.org/Graphics/SVG/1.1/DTD/svg11.dtd">
<!-- Created with matplotlib (https://matplotlib.org/) -->
<svg height="432pt" version="1.1" viewBox="0 0 720 432" width="720pt" xmlns="http://www.w3.org/2000/svg" xmlns:xlink="http://www.w3.org/1999/xlink">
 <metadata>
  <rdf:RDF xmlns:cc="http://creativecommons.org/ns#" xmlns:dc="http://purl.org/dc/elements/1.1/" xmlns:rdf="http://www.w3.org/1999/02/22-rdf-syntax-ns#">
   <cc:Work>
    <dc:type rdf:resource="http://purl.org/dc/dcmitype/StillImage"/>
    <dc:date>2021-02-17T13:43:53.403506</dc:date>
    <dc:format>image/svg+xml</dc:format>
    <dc:creator>
     <cc:Agent>
      <dc:title>Matplotlib v3.3.2, https://matplotlib.org/</dc:title>
     </cc:Agent>
    </dc:creator>
   </cc:Work>
  </rdf:RDF>
 </metadata>
 <defs>
  <style type="text/css">*{stroke-linecap:butt;stroke-linejoin:round;}</style>
 </defs>
 <g id="figure_1">
  <g id="patch_1">
   <path d="M 0 432 
L 720 432 
L 720 0 
L 0 0 
z
" style="fill:#ffffff;"/>
  </g>
  <g id="axes_1">
   <g id="patch_2">
    <path d="M 90 384.48 
L 648 384.48 
L 648 51.84 
L 90 51.84 
z
" style="fill:#ffffff;"/>
   </g>
   <g id="PolyCollection_1">
    <defs>
     <path d="M 115.363636 -214.519713 
L 115.363636 -214.519713 
L 116.768824 -214.519713 
L 118.174012 -214.519713 
L 119.579199 -214.519713 
L 120.984387 -214.519713 
L 122.389574 -214.519713 
L 123.794762 -214.519713 
L 125.19995 -214.519713 
L 126.605137 -214.519713 
L 128.010325 -214.519713 
L 129.415512 -214.519713 
L 130.8207 -214.519713 
L 132.225888 -214.519713 
L 133.631075 -214.519713 
L 135.036263 -214.519713 
L 136.441451 -214.519713 
L 137.846638 -214.519713 
L 139.251826 -214.519713 
L 140.657013 -214.519713 
L 142.062201 -214.519713 
L 143.467389 -214.519713 
L 144.872576 -214.519713 
L 146.277764 -214.519713 
L 147.682951 -214.519713 
L 149.088139 -214.519713 
L 150.493327 -214.519713 
L 151.898514 -214.519713 
L 153.303702 -214.519713 
L 154.708889 -214.519713 
L 156.114077 -214.519713 
L 157.519265 -214.519713 
L 158.924452 -214.519713 
L 160.32964 -214.519713 
L 161.734827 -214.519713 
L 163.140015 -214.519713 
L 164.545203 -214.519713 
L 165.95039 -214.519713 
L 167.355578 -214.519713 
L 168.760766 -214.519713 
L 170.165953 -214.519713 
L 171.571141 -214.519713 
L 172.976328 -214.519713 
L 174.381516 -214.519713 
L 175.786704 -214.519713 
L 177.191891 -214.519713 
L 178.597079 -214.519713 
L 180.002266 -214.519713 
L 181.407454 -214.519713 
L 182.812642 -214.519713 
L 184.217829 -214.519713 
L 185.623017 -214.519713 
L 187.028204 -214.519713 
L 188.433392 -214.519713 
L 189.83858 -214.519713 
L 191.243767 -214.519713 
L 192.648955 -214.519713 
L 194.054143 -214.519713 
L 195.45933 -214.519713 
L 196.864518 -214.519713 
L 198.269705 -214.519713 
L 199.674893 -214.519713 
L 201.080081 -214.519713 
L 202.485268 -214.519713 
L 203.890456 -214.519713 
L 205.295643 -214.519713 
L 206.700831 -214.519713 
L 208.106019 -214.519713 
L 209.511206 -214.519713 
L 210.916394 -214.519713 
L 212.321581 -214.519713 
L 213.726769 -214.519713 
L 215.131957 -214.519713 
L 216.537144 -214.519713 
L 217.942332 -214.519713 
L 219.34752 -214.519713 
L 220.752707 -214.519713 
L 222.157895 -214.519713 
L 223.563082 -214.519713 
L 224.96827 -214.519713 
L 226.373458 -214.519713 
L 227.778645 -214.519713 
L 229.183833 -214.519713 
L 230.58902 -214.519713 
L 231.994208 -214.519713 
L 233.399396 -214.519713 
L 234.804583 -214.519713 
L 236.209771 -214.519713 
L 237.614958 -214.519713 
L 239.020146 -214.519713 
L 240.425334 -214.519713 
L 241.830521 -214.519713 
L 243.235709 -214.519713 
L 244.640896 -214.519713 
L 246.046084 -214.519713 
L 247.451272 -214.519713 
L 248.856459 -214.519713 
L 250.261647 -214.519713 
L 251.666835 -214.519713 
L 253.072022 -214.519713 
L 254.47721 -214.519713 
L 255.882397 -214.519713 
L 257.287585 -214.519713 
L 258.692773 -214.519713 
L 260.09796 -214.519713 
L 261.503148 -214.519713 
L 262.908335 -214.519713 
L 264.313523 -214.519713 
L 265.718711 -214.519713 
L 267.123898 -214.519713 
L 268.529086 -214.519713 
L 269.934273 -214.519713 
L 271.339461 -214.519713 
L 272.744649 -214.519713 
L 274.149836 -214.519713 
L 275.555024 -214.519713 
L 276.960212 -214.519713 
L 278.365399 -214.519713 
L 279.770587 -214.519713 
L 281.175774 -214.519713 
L 282.580962 -214.519713 
L 283.98615 -214.519713 
L 285.391337 -214.519713 
L 286.796525 -214.519713 
L 288.201712 -214.519713 
L 289.6069 -214.519713 
L 291.012088 -214.519713 
L 292.417275 -214.519713 
L 293.822463 -214.519713 
L 295.22765 -214.519713 
L 296.632838 -214.519713 
L 298.038026 -214.519713 
L 299.443213 -214.519713 
L 300.848401 -214.519713 
L 302.253589 -214.519713 
L 303.658776 -214.519713 
L 305.063964 -214.519713 
L 306.469151 -214.519713 
L 307.874339 -214.519713 
L 309.279527 -214.519713 
L 310.684714 -214.519713 
L 312.089902 -214.519713 
L 313.495089 -214.519713 
L 314.900277 -214.519713 
L 316.305465 -214.519713 
L 317.710652 -214.519713 
L 319.11584 -214.519713 
L 320.521027 -214.519713 
L 321.926215 -214.519713 
L 323.331403 -214.519713 
L 324.73659 -214.519713 
L 326.141778 -214.519713 
L 327.546965 -214.519713 
L 328.952153 -214.519713 
L 330.357341 -214.519713 
L 331.762528 -214.519713 
L 333.167716 -214.519713 
L 334.572904 -214.519713 
L 335.978091 -214.519713 
L 337.383279 -214.519713 
L 338.788466 -214.519713 
L 340.193654 -214.519713 
L 341.598842 -214.519713 
L 343.004029 -214.519713 
L 344.409217 -214.519713 
L 345.814404 -214.519713 
L 347.219592 -214.519713 
L 348.62478 -214.519713 
L 350.029967 -214.519713 
L 351.435155 -214.519713 
L 352.840342 -214.519713 
L 354.24553 -214.519713 
L 355.650718 -214.519713 
L 357.055905 -214.519713 
L 358.461093 -214.519713 
L 359.866281 -214.519713 
L 361.271468 -214.519713 
L 362.676656 -214.519713 
L 364.081843 -214.519713 
L 365.487031 -214.519713 
L 366.892219 -214.519713 
L 368.297406 -214.519713 
L 369.702594 -214.519713 
L 371.107781 -214.519713 
L 372.512969 -214.519713 
L 373.918157 -214.519713 
L 375.323344 -214.519713 
L 376.728532 -214.519713 
L 378.133719 -214.519713 
L 379.538907 -214.519713 
L 380.944095 -214.519713 
L 382.349282 -214.519713 
L 383.75447 -214.519713 
L 385.159658 -214.519713 
L 386.564845 -214.519713 
L 387.970033 -214.519713 
L 389.37522 -214.519713 
L 390.780408 -214.519713 
L 392.185596 -214.519713 
L 393.590783 -214.519713 
L 394.995971 -214.519713 
L 396.401158 -214.519713 
L 397.806346 -214.519713 
L 399.211534 -214.519713 
L 400.616721 -214.519713 
L 402.021909 -214.519713 
L 403.427096 -214.519713 
L 404.832284 -214.519713 
L 406.237472 -214.519713 
L 407.642659 -214.519713 
L 409.047847 -214.519713 
L 410.453035 -214.519713 
L 411.858222 -214.519713 
L 413.26341 -214.519713 
L 414.668597 -214.519713 
L 416.073785 -214.519713 
L 417.478973 -214.519713 
L 418.88416 -214.519713 
L 420.289348 -214.519713 
L 421.694535 -214.519713 
L 423.099723 -214.519713 
L 424.504911 -214.519713 
L 425.910098 -214.519713 
L 427.315286 -214.519713 
L 428.720473 -214.519713 
L 430.125661 -214.519713 
L 431.530849 -214.519713 
L 432.936036 -214.519713 
L 434.341224 -214.519713 
L 435.746411 -214.519713 
L 437.151599 -214.519713 
L 438.556787 -214.519713 
L 439.961974 -214.519713 
L 441.367162 -214.519713 
L 442.77235 -214.519713 
L 444.177537 -214.519713 
L 445.582725 -214.519713 
L 446.987912 -214.519713 
L 448.3931 -214.519713 
L 449.798288 -214.519713 
L 451.203475 -214.519713 
L 452.608663 -214.519713 
L 454.01385 -214.519713 
L 455.419038 -117.814738 
L 456.824226 -111.351945 
L 458.229413 -73.056025 
L 459.634601 -62.64 
L 461.039788 -355.81208 
L 462.444976 -365.04 
L 463.850164 -321.011786 
L 465.255351 -328.662684 
L 466.660539 -214.519713 
L 468.065727 -214.519713 
L 469.470914 -214.519713 
L 470.876102 -214.519713 
L 472.281289 -214.519713 
L 473.686477 -214.519713 
L 475.091665 -214.519713 
L 476.496852 -214.519713 
L 477.90204 -214.519713 
L 479.307227 -214.519713 
L 480.712415 -214.519713 
L 482.117603 -214.519713 
L 483.52279 -214.519713 
L 484.927978 -214.519713 
L 486.333165 -214.519713 
L 487.738353 -214.519713 
L 489.143541 -214.519713 
L 490.548728 -214.519713 
L 491.953916 -214.519713 
L 493.359104 -214.519713 
L 494.764291 -214.519713 
L 496.169479 -214.519713 
L 497.574666 -214.519713 
L 498.979854 -214.519713 
L 500.385042 -214.519713 
L 501.790229 -214.519713 
L 503.195417 -214.519713 
L 504.600604 -214.519713 
L 506.005792 -214.519713 
L 507.41098 -214.519713 
L 508.816167 -214.519713 
L 510.221355 -214.519713 
L 511.626542 -214.519713 
L 513.03173 -214.519713 
L 514.436918 -214.519713 
L 515.842105 -214.519713 
L 517.247293 -214.519713 
L 518.65248 -214.519713 
L 520.057668 -214.519713 
L 521.462856 -214.519713 
L 522.868043 -214.519713 
L 524.273231 -214.519713 
L 525.678419 -214.519713 
L 527.083606 -214.519713 
L 528.488794 -214.519713 
L 529.893981 -214.519713 
L 531.299169 -214.519713 
L 532.704357 -214.519713 
L 534.109544 -214.519713 
L 535.514732 -214.519713 
L 536.919919 -214.519713 
L 538.325107 -214.519713 
L 539.730295 -214.519713 
L 541.135482 -214.519713 
L 542.54067 -214.519713 
L 543.945857 -214.519713 
L 545.351045 -214.519713 
L 546.756233 -214.519713 
L 548.16142 -214.519713 
L 549.566608 -214.519713 
L 550.971796 -214.519713 
L 552.376983 -214.519713 
L 553.782171 -214.519713 
L 555.187358 -214.519713 
L 556.592546 -214.519713 
L 557.997734 -214.519713 
L 559.402921 -214.519713 
L 560.808109 -214.519713 
L 562.213296 -214.519713 
L 563.618484 -214.519713 
L 565.023672 -214.519713 
L 566.428859 -214.519713 
L 567.834047 -214.519713 
L 569.239234 -214.519713 
L 570.644422 -214.519713 
L 572.04961 -214.519713 
L 573.454797 -214.519713 
L 574.859985 -214.519713 
L 576.265173 -214.519713 
L 577.67036 -214.519713 
L 579.075548 -214.519713 
L 580.480735 -214.519713 
L 581.885923 -214.519713 
L 583.291111 -214.519713 
L 584.696298 -214.519713 
L 586.101486 -214.519713 
L 587.506673 -214.519713 
L 588.911861 -214.519713 
L 590.317049 -214.519713 
L 591.722236 -214.519713 
L 593.127424 -214.519713 
L 594.532611 -214.519713 
L 595.937799 -214.519713 
L 597.342987 -214.519713 
L 598.748174 -214.519713 
L 600.153362 -214.519713 
L 601.558549 -214.519713 
L 602.963737 -214.519713 
L 604.368925 -214.519713 
L 605.774112 -214.519713 
L 607.1793 -214.519713 
L 608.584488 -214.519713 
L 609.989675 -214.519713 
L 611.394863 -214.519713 
L 612.80005 -214.519713 
L 614.205238 -214.519713 
L 615.610426 -214.519713 
L 617.015613 -214.519713 
L 618.420801 -214.519713 
L 619.825988 -214.519713 
L 621.231176 -214.519713 
L 622.636364 -214.519713 
L 622.636364 -214.519713 
L 622.636364 -214.519713 
L 621.231176 -214.519713 
L 619.825988 -214.519713 
L 618.420801 -214.519713 
L 617.015613 -214.519713 
L 615.610426 -214.519713 
L 614.205238 -214.519713 
L 612.80005 -214.519713 
L 611.394863 -214.519713 
L 609.989675 -214.519713 
L 608.584488 -214.519713 
L 607.1793 -214.519713 
L 605.774112 -214.519713 
L 604.368925 -214.519713 
L 602.963737 -214.519713 
L 601.558549 -214.519713 
L 600.153362 -214.519713 
L 598.748174 -214.519713 
L 597.342987 -214.519713 
L 595.937799 -214.519713 
L 594.532611 -214.519713 
L 593.127424 -214.519713 
L 591.722236 -214.519713 
L 590.317049 -214.519713 
L 588.911861 -214.519713 
L 587.506673 -214.519713 
L 586.101486 -214.519713 
L 584.696298 -214.519713 
L 583.291111 -214.519713 
L 581.885923 -214.519713 
L 580.480735 -214.519713 
L 579.075548 -214.519713 
L 577.67036 -214.519713 
L 576.265173 -214.519713 
L 574.859985 -214.519713 
L 573.454797 -214.519713 
L 572.04961 -214.519713 
L 570.644422 -214.519713 
L 569.239234 -214.519713 
L 567.834047 -214.519713 
L 566.428859 -214.519713 
L 565.023672 -214.519713 
L 563.618484 -214.519713 
L 562.213296 -214.519713 
L 560.808109 -214.519713 
L 559.402921 -214.519713 
L 557.997734 -214.519713 
L 556.592546 -214.519713 
L 555.187358 -214.519713 
L 553.782171 -214.519713 
L 552.376983 -214.519713 
L 550.971796 -214.519713 
L 549.566608 -214.519713 
L 548.16142 -214.519713 
L 546.756233 -214.519713 
L 545.351045 -214.519713 
L 543.945857 -214.519713 
L 542.54067 -214.519713 
L 541.135482 -214.519713 
L 539.730295 -214.519713 
L 538.325107 -214.519713 
L 536.919919 -214.519713 
L 535.514732 -214.519713 
L 534.109544 -214.519713 
L 532.704357 -214.519713 
L 531.299169 -214.519713 
L 529.893981 -214.519713 
L 528.488794 -214.519713 
L 527.083606 -214.519713 
L 525.678419 -214.519713 
L 524.273231 -214.519713 
L 522.868043 -214.519713 
L 521.462856 -214.519713 
L 520.057668 -214.519713 
L 518.65248 -214.519713 
L 517.247293 -214.519713 
L 515.842105 -214.519713 
L 514.436918 -214.519713 
L 513.03173 -214.519713 
L 511.626542 -214.519713 
L 510.221355 -214.519713 
L 508.816167 -214.519713 
L 507.41098 -214.519713 
L 506.005792 -214.519713 
L 504.600604 -214.519713 
L 503.195417 -214.519713 
L 501.790229 -214.519713 
L 500.385042 -214.519713 
L 498.979854 -214.519713 
L 497.574666 -214.519713 
L 496.169479 -214.519713 
L 494.764291 -214.519713 
L 493.359104 -214.519713 
L 491.953916 -214.519713 
L 490.548728 -214.519713 
L 489.143541 -214.519713 
L 487.738353 -214.519713 
L 486.333165 -214.519713 
L 484.927978 -214.519713 
L 483.52279 -214.519713 
L 482.117603 -214.519713 
L 480.712415 -214.519713 
L 479.307227 -214.519713 
L 477.90204 -214.519713 
L 476.496852 -214.519713 
L 475.091665 -214.519713 
L 473.686477 -214.519713 
L 472.281289 -214.519713 
L 470.876102 -214.519713 
L 469.470914 -214.519713 
L 468.065727 -214.519713 
L 466.660539 -214.519713 
L 465.255351 -328.662684 
L 463.850164 -321.011786 
L 462.444976 -365.04 
L 461.039788 -355.81208 
L 459.634601 -62.64 
L 458.229413 -73.056025 
L 456.824226 -111.351945 
L 455.419038 -117.814738 
L 454.01385 -214.519713 
L 452.608663 -214.519713 
L 451.203475 -214.519713 
L 449.798288 -214.519713 
L 448.3931 -214.519713 
L 446.987912 -214.519713 
L 445.582725 -214.519713 
L 444.177537 -214.519713 
L 442.77235 -214.519713 
L 441.367162 -214.519713 
L 439.961974 -214.519713 
L 438.556787 -214.519713 
L 437.151599 -214.519713 
L 435.746411 -214.519713 
L 434.341224 -214.519713 
L 432.936036 -214.519713 
L 431.530849 -214.519713 
L 430.125661 -214.519713 
L 428.720473 -214.519713 
L 427.315286 -214.519713 
L 425.910098 -214.519713 
L 424.504911 -214.519713 
L 423.099723 -214.519713 
L 421.694535 -214.519713 
L 420.289348 -214.519713 
L 418.88416 -214.519713 
L 417.478973 -214.519713 
L 416.073785 -214.519713 
L 414.668597 -214.519713 
L 413.26341 -214.519713 
L 411.858222 -214.519713 
L 410.453035 -214.519713 
L 409.047847 -214.519713 
L 407.642659 -214.519713 
L 406.237472 -214.519713 
L 404.832284 -214.519713 
L 403.427096 -214.519713 
L 402.021909 -214.519713 
L 400.616721 -214.519713 
L 399.211534 -214.519713 
L 397.806346 -214.519713 
L 396.401158 -214.519713 
L 394.995971 -214.519713 
L 393.590783 -214.519713 
L 392.185596 -214.519713 
L 390.780408 -214.519713 
L 389.37522 -214.519713 
L 387.970033 -214.519713 
L 386.564845 -214.519713 
L 385.159658 -214.519713 
L 383.75447 -214.519713 
L 382.349282 -214.519713 
L 380.944095 -214.519713 
L 379.538907 -214.519713 
L 378.133719 -214.519713 
L 376.728532 -214.519713 
L 375.323344 -214.519713 
L 373.918157 -214.519713 
L 372.512969 -214.519713 
L 371.107781 -214.519713 
L 369.702594 -214.519713 
L 368.297406 -214.519713 
L 366.892219 -214.519713 
L 365.487031 -214.519713 
L 364.081843 -214.519713 
L 362.676656 -214.519713 
L 361.271468 -214.519713 
L 359.866281 -214.519713 
L 358.461093 -214.519713 
L 357.055905 -214.519713 
L 355.650718 -214.519713 
L 354.24553 -214.519713 
L 352.840342 -214.519713 
L 351.435155 -214.519713 
L 350.029967 -214.519713 
L 348.62478 -214.519713 
L 347.219592 -214.519713 
L 345.814404 -214.519713 
L 344.409217 -214.519713 
L 343.004029 -214.519713 
L 341.598842 -214.519713 
L 340.193654 -214.519713 
L 338.788466 -214.519713 
L 337.383279 -214.519713 
L 335.978091 -214.519713 
L 334.572904 -214.519713 
L 333.167716 -214.519713 
L 331.762528 -214.519713 
L 330.357341 -214.519713 
L 328.952153 -214.519713 
L 327.546965 -214.519713 
L 326.141778 -214.519713 
L 324.73659 -214.519713 
L 323.331403 -214.519713 
L 321.926215 -214.519713 
L 320.521027 -214.519713 
L 319.11584 -214.519713 
L 317.710652 -214.519713 
L 316.305465 -214.519713 
L 314.900277 -214.519713 
L 313.495089 -214.519713 
L 312.089902 -214.519713 
L 310.684714 -214.519713 
L 309.279527 -214.519713 
L 307.874339 -214.519713 
L 306.469151 -214.519713 
L 305.063964 -214.519713 
L 303.658776 -214.519713 
L 302.253589 -214.519713 
L 300.848401 -214.519713 
L 299.443213 -214.519713 
L 298.038026 -214.519713 
L 296.632838 -214.519713 
L 295.22765 -214.519713 
L 293.822463 -214.519713 
L 292.417275 -214.519713 
L 291.012088 -214.519713 
L 289.6069 -214.519713 
L 288.201712 -214.519713 
L 286.796525 -214.519713 
L 285.391337 -214.519713 
L 283.98615 -214.519713 
L 282.580962 -214.519713 
L 281.175774 -214.519713 
L 279.770587 -214.519713 
L 278.365399 -214.519713 
L 276.960212 -214.519713 
L 275.555024 -214.519713 
L 274.149836 -214.519713 
L 272.744649 -214.519713 
L 271.339461 -214.519713 
L 269.934273 -214.519713 
L 268.529086 -214.519713 
L 267.123898 -214.519713 
L 265.718711 -214.519713 
L 264.313523 -214.519713 
L 262.908335 -214.519713 
L 261.503148 -214.519713 
L 260.09796 -214.519713 
L 258.692773 -214.519713 
L 257.287585 -214.519713 
L 255.882397 -214.519713 
L 254.47721 -214.519713 
L 253.072022 -214.519713 
L 251.666835 -214.519713 
L 250.261647 -214.519713 
L 248.856459 -214.519713 
L 247.451272 -214.519713 
L 246.046084 -214.519713 
L 244.640896 -214.519713 
L 243.235709 -214.519713 
L 241.830521 -214.519713 
L 240.425334 -214.519713 
L 239.020146 -214.519713 
L 237.614958 -214.519713 
L 236.209771 -214.519713 
L 234.804583 -214.519713 
L 233.399396 -214.519713 
L 231.994208 -214.519713 
L 230.58902 -214.519713 
L 229.183833 -214.519713 
L 227.778645 -214.519713 
L 226.373458 -214.519713 
L 224.96827 -214.519713 
L 223.563082 -214.519713 
L 222.157895 -214.519713 
L 220.752707 -214.519713 
L 219.34752 -214.519713 
L 217.942332 -214.519713 
L 216.537144 -214.519713 
L 215.131957 -214.519713 
L 213.726769 -214.519713 
L 212.321581 -214.519713 
L 210.916394 -214.519713 
L 209.511206 -214.519713 
L 208.106019 -214.519713 
L 206.700831 -214.519713 
L 205.295643 -214.519713 
L 203.890456 -214.519713 
L 202.485268 -214.519713 
L 201.080081 -214.519713 
L 199.674893 -214.519713 
L 198.269705 -214.519713 
L 196.864518 -214.519713 
L 195.45933 -214.519713 
L 194.054143 -214.519713 
L 192.648955 -214.519713 
L 191.243767 -214.519713 
L 189.83858 -214.519713 
L 188.433392 -214.519713 
L 187.028204 -214.519713 
L 185.623017 -214.519713 
L 184.217829 -214.519713 
L 182.812642 -214.519713 
L 181.407454 -214.519713 
L 180.002266 -214.519713 
L 178.597079 -214.519713 
L 177.191891 -214.519713 
L 175.786704 -214.519713 
L 174.381516 -214.519713 
L 172.976328 -214.519713 
L 171.571141 -214.519713 
L 170.165953 -214.519713 
L 168.760766 -214.519713 
L 167.355578 -214.519713 
L 165.95039 -214.519713 
L 164.545203 -214.519713 
L 163.140015 -214.519713 
L 161.734827 -214.519713 
L 160.32964 -214.519713 
L 158.924452 -214.519713 
L 157.519265 -214.519713 
L 156.114077 -214.519713 
L 154.708889 -214.519713 
L 153.303702 -214.519713 
L 151.898514 -214.519713 
L 150.493327 -214.519713 
L 149.088139 -214.519713 
L 147.682951 -214.519713 
L 146.277764 -214.519713 
L 144.872576 -214.519713 
L 143.467389 -214.519713 
L 142.062201 -214.519713 
L 140.657013 -214.519713 
L 139.251826 -214.519713 
L 137.846638 -214.519713 
L 136.441451 -214.519713 
L 135.036263 -214.519713 
L 133.631075 -214.519713 
L 132.225888 -214.519713 
L 130.8207 -214.519713 
L 129.415512 -214.519713 
L 128.010325 -214.519713 
L 126.605137 -214.519713 
L 125.19995 -214.519713 
L 123.794762 -214.519713 
L 122.389574 -214.519713 
L 120.984387 -214.519713 
L 119.579199 -214.519713 
L 118.174012 -214.519713 
L 116.768824 -214.519713 
L 115.363636 -214.519713 
z
" id="me7aca4178a" style="stroke:#0072b2;stroke-opacity:0.2;"/>
    </defs>
    <g clip-path="url(#p8984121e00)">
     <use style="fill:#0072b2;fill-opacity:0.2;stroke:#0072b2;stroke-opacity:0.2;" x="0" xlink:href="#me7aca4178a" y="432"/>
    </g>
   </g>
   <g id="matplotlib.axis_1">
    <g id="xtick_1">
     <g id="line2d_1">
      <path clip-path="url(#p8984121e00)" d="M 101.31176 384.48 
L 101.31176 51.84 
" style="fill:none;stroke:#808080;stroke-linecap:square;stroke-opacity:0.2;"/>
     </g>
     <g id="line2d_2">
      <defs>
       <path d="M 0 0 
L 0 3.5 
" id="md8888f64f3" style="stroke:#000000;stroke-width:0.8;"/>
      </defs>
      <g>
       <use style="stroke:#000000;stroke-width:0.8;" x="101.31176" xlink:href="#md8888f64f3" y="384.48"/>
      </g>
     </g>
     <g id="text_1">
      <!-- 2020-02 -->
      <g transform="translate(80.420354 399.078438)scale(0.1 -0.1)">
       <defs>
        <path d="M 19.1875 8.296875 
L 53.609375 8.296875 
L 53.609375 0 
L 7.328125 0 
L 7.328125 8.296875 
Q 12.9375 14.109375 22.625 23.890625 
Q 32.328125 33.6875 34.8125 36.53125 
Q 39.546875 41.84375 41.421875 45.53125 
Q 43.3125 49.21875 43.3125 52.78125 
Q 43.3125 58.59375 39.234375 62.25 
Q 35.15625 65.921875 28.609375 65.921875 
Q 23.96875 65.921875 18.8125 64.3125 
Q 13.671875 62.703125 7.8125 59.421875 
L 7.8125 69.390625 
Q 13.765625 71.78125 18.9375 73 
Q 24.125 74.21875 28.421875 74.21875 
Q 39.75 74.21875 46.484375 68.546875 
Q 53.21875 62.890625 53.21875 53.421875 
Q 53.21875 48.921875 51.53125 44.890625 
Q 49.859375 40.875 45.40625 35.40625 
Q 44.1875 33.984375 37.640625 27.21875 
Q 31.109375 20.453125 19.1875 8.296875 
z
" id="DejaVuSans-50"/>
        <path d="M 31.78125 66.40625 
Q 24.171875 66.40625 20.328125 58.90625 
Q 16.5 51.421875 16.5 36.375 
Q 16.5 21.390625 20.328125 13.890625 
Q 24.171875 6.390625 31.78125 6.390625 
Q 39.453125 6.390625 43.28125 13.890625 
Q 47.125 21.390625 47.125 36.375 
Q 47.125 51.421875 43.28125 58.90625 
Q 39.453125 66.40625 31.78125 66.40625 
z
M 31.78125 74.21875 
Q 44.046875 74.21875 50.515625 64.515625 
Q 56.984375 54.828125 56.984375 36.375 
Q 56.984375 17.96875 50.515625 8.265625 
Q 44.046875 -1.421875 31.78125 -1.421875 
Q 19.53125 -1.421875 13.0625 8.265625 
Q 6.59375 17.96875 6.59375 36.375 
Q 6.59375 54.828125 13.0625 64.515625 
Q 19.53125 74.21875 31.78125 74.21875 
z
" id="DejaVuSans-48"/>
        <path d="M 4.890625 31.390625 
L 31.203125 31.390625 
L 31.203125 23.390625 
L 4.890625 23.390625 
z
" id="DejaVuSans-45"/>
       </defs>
       <use xlink:href="#DejaVuSans-50"/>
       <use x="63.623047" xlink:href="#DejaVuSans-48"/>
       <use x="127.246094" xlink:href="#DejaVuSans-50"/>
       <use x="190.869141" xlink:href="#DejaVuSans-48"/>
       <use x="254.492188" xlink:href="#DejaVuSans-45"/>
       <use x="290.576172" xlink:href="#DejaVuSans-48"/>
       <use x="354.199219" xlink:href="#DejaVuSans-50"/>
      </g>
     </g>
    </g>
    <g id="xtick_2">
     <g id="line2d_3">
      <path clip-path="url(#p8984121e00)" d="M 185.623017 384.48 
L 185.623017 51.84 
" style="fill:none;stroke:#808080;stroke-linecap:square;stroke-opacity:0.2;"/>
     </g>
     <g id="line2d_4">
      <g>
       <use style="stroke:#000000;stroke-width:0.8;" x="185.623017" xlink:href="#md8888f64f3" y="384.48"/>
      </g>
     </g>
     <g id="text_2">
      <!-- 2020-04 -->
      <g transform="translate(164.731611 399.078438)scale(0.1 -0.1)">
       <defs>
        <path d="M 37.796875 64.3125 
L 12.890625 25.390625 
L 37.796875 25.390625 
z
M 35.203125 72.90625 
L 47.609375 72.90625 
L 47.609375 25.390625 
L 58.015625 25.390625 
L 58.015625 17.1875 
L 47.609375 17.1875 
L 47.609375 0 
L 37.796875 0 
L 37.796875 17.1875 
L 4.890625 17.1875 
L 4.890625 26.703125 
z
" id="DejaVuSans-52"/>
       </defs>
       <use xlink:href="#DejaVuSans-50"/>
       <use x="63.623047" xlink:href="#DejaVuSans-48"/>
       <use x="127.246094" xlink:href="#DejaVuSans-50"/>
       <use x="190.869141" xlink:href="#DejaVuSans-48"/>
       <use x="254.492188" xlink:href="#DejaVuSans-45"/>
       <use x="290.576172" xlink:href="#DejaVuSans-48"/>
       <use x="354.199219" xlink:href="#DejaVuSans-52"/>
      </g>
     </g>
    </g>
    <g id="xtick_3">
     <g id="line2d_5">
      <path clip-path="url(#p8984121e00)" d="M 271.339461 384.48 
L 271.339461 51.84 
" style="fill:none;stroke:#808080;stroke-linecap:square;stroke-opacity:0.2;"/>
     </g>
     <g id="line2d_6">
      <g>
       <use style="stroke:#000000;stroke-width:0.8;" x="271.339461" xlink:href="#md8888f64f3" y="384.48"/>
      </g>
     </g>
     <g id="text_3">
      <!-- 2020-06 -->
      <g transform="translate(250.448055 399.078438)scale(0.1 -0.1)">
       <defs>
        <path d="M 33.015625 40.375 
Q 26.375 40.375 22.484375 35.828125 
Q 18.609375 31.296875 18.609375 23.390625 
Q 18.609375 15.53125 22.484375 10.953125 
Q 26.375 6.390625 33.015625 6.390625 
Q 39.65625 6.390625 43.53125 10.953125 
Q 47.40625 15.53125 47.40625 23.390625 
Q 47.40625 31.296875 43.53125 35.828125 
Q 39.65625 40.375 33.015625 40.375 
z
M 52.59375 71.296875 
L 52.59375 62.3125 
Q 48.875 64.0625 45.09375 64.984375 
Q 41.3125 65.921875 37.59375 65.921875 
Q 27.828125 65.921875 22.671875 59.328125 
Q 17.53125 52.734375 16.796875 39.40625 
Q 19.671875 43.65625 24.015625 45.921875 
Q 28.375 48.1875 33.59375 48.1875 
Q 44.578125 48.1875 50.953125 41.515625 
Q 57.328125 34.859375 57.328125 23.390625 
Q 57.328125 12.15625 50.6875 5.359375 
Q 44.046875 -1.421875 33.015625 -1.421875 
Q 20.359375 -1.421875 13.671875 8.265625 
Q 6.984375 17.96875 6.984375 36.375 
Q 6.984375 53.65625 15.1875 63.9375 
Q 23.390625 74.21875 37.203125 74.21875 
Q 40.921875 74.21875 44.703125 73.484375 
Q 48.484375 72.75 52.59375 71.296875 
z
" id="DejaVuSans-54"/>
       </defs>
       <use xlink:href="#DejaVuSans-50"/>
       <use x="63.623047" xlink:href="#DejaVuSans-48"/>
       <use x="127.246094" xlink:href="#DejaVuSans-50"/>
       <use x="190.869141" xlink:href="#DejaVuSans-48"/>
       <use x="254.492188" xlink:href="#DejaVuSans-45"/>
       <use x="290.576172" xlink:href="#DejaVuSans-48"/>
       <use x="354.199219" xlink:href="#DejaVuSans-54"/>
      </g>
     </g>
    </g>
    <g id="xtick_4">
     <g id="line2d_7">
      <path clip-path="url(#p8984121e00)" d="M 357.055905 384.48 
L 357.055905 51.84 
" style="fill:none;stroke:#808080;stroke-linecap:square;stroke-opacity:0.2;"/>
     </g>
     <g id="line2d_8">
      <g>
       <use style="stroke:#000000;stroke-width:0.8;" x="357.055905" xlink:href="#md8888f64f3" y="384.48"/>
      </g>
     </g>
     <g id="text_4">
      <!-- 2020-08 -->
      <g transform="translate(336.164499 399.078438)scale(0.1 -0.1)">
       <defs>
        <path d="M 31.78125 34.625 
Q 24.75 34.625 20.71875 30.859375 
Q 16.703125 27.09375 16.703125 20.515625 
Q 16.703125 13.921875 20.71875 10.15625 
Q 24.75 6.390625 31.78125 6.390625 
Q 38.8125 6.390625 42.859375 10.171875 
Q 46.921875 13.96875 46.921875 20.515625 
Q 46.921875 27.09375 42.890625 30.859375 
Q 38.875 34.625 31.78125 34.625 
z
M 21.921875 38.8125 
Q 15.578125 40.375 12.03125 44.71875 
Q 8.5 49.078125 8.5 55.328125 
Q 8.5 64.0625 14.71875 69.140625 
Q 20.953125 74.21875 31.78125 74.21875 
Q 42.671875 74.21875 48.875 69.140625 
Q 55.078125 64.0625 55.078125 55.328125 
Q 55.078125 49.078125 51.53125 44.71875 
Q 48 40.375 41.703125 38.8125 
Q 48.828125 37.15625 52.796875 32.3125 
Q 56.78125 27.484375 56.78125 20.515625 
Q 56.78125 9.90625 50.3125 4.234375 
Q 43.84375 -1.421875 31.78125 -1.421875 
Q 19.734375 -1.421875 13.25 4.234375 
Q 6.78125 9.90625 6.78125 20.515625 
Q 6.78125 27.484375 10.78125 32.3125 
Q 14.796875 37.15625 21.921875 38.8125 
z
M 18.3125 54.390625 
Q 18.3125 48.734375 21.84375 45.5625 
Q 25.390625 42.390625 31.78125 42.390625 
Q 38.140625 42.390625 41.71875 45.5625 
Q 45.3125 48.734375 45.3125 54.390625 
Q 45.3125 60.0625 41.71875 63.234375 
Q 38.140625 66.40625 31.78125 66.40625 
Q 25.390625 66.40625 21.84375 63.234375 
Q 18.3125 60.0625 18.3125 54.390625 
z
" id="DejaVuSans-56"/>
       </defs>
       <use xlink:href="#DejaVuSans-50"/>
       <use x="63.623047" xlink:href="#DejaVuSans-48"/>
       <use x="127.246094" xlink:href="#DejaVuSans-50"/>
       <use x="190.869141" xlink:href="#DejaVuSans-48"/>
       <use x="254.492188" xlink:href="#DejaVuSans-45"/>
       <use x="290.576172" xlink:href="#DejaVuSans-48"/>
       <use x="354.199219" xlink:href="#DejaVuSans-56"/>
      </g>
     </g>
    </g>
    <g id="xtick_5">
     <g id="line2d_9">
      <path clip-path="url(#p8984121e00)" d="M 442.77235 384.48 
L 442.77235 51.84 
" style="fill:none;stroke:#808080;stroke-linecap:square;stroke-opacity:0.2;"/>
     </g>
     <g id="line2d_10">
      <g>
       <use style="stroke:#000000;stroke-width:0.8;" x="442.77235" xlink:href="#md8888f64f3" y="384.48"/>
      </g>
     </g>
     <g id="text_5">
      <!-- 2020-10 -->
      <g transform="translate(421.880943 399.078438)scale(0.1 -0.1)">
       <defs>
        <path d="M 12.40625 8.296875 
L 28.515625 8.296875 
L 28.515625 63.921875 
L 10.984375 60.40625 
L 10.984375 69.390625 
L 28.421875 72.90625 
L 38.28125 72.90625 
L 38.28125 8.296875 
L 54.390625 8.296875 
L 54.390625 0 
L 12.40625 0 
z
" id="DejaVuSans-49"/>
       </defs>
       <use xlink:href="#DejaVuSans-50"/>
       <use x="63.623047" xlink:href="#DejaVuSans-48"/>
       <use x="127.246094" xlink:href="#DejaVuSans-50"/>
       <use x="190.869141" xlink:href="#DejaVuSans-48"/>
       <use x="254.492188" xlink:href="#DejaVuSans-45"/>
       <use x="290.576172" xlink:href="#DejaVuSans-49"/>
       <use x="354.199219" xlink:href="#DejaVuSans-48"/>
      </g>
     </g>
    </g>
    <g id="xtick_6">
     <g id="line2d_11">
      <path clip-path="url(#p8984121e00)" d="M 528.488794 384.48 
L 528.488794 51.84 
" style="fill:none;stroke:#808080;stroke-linecap:square;stroke-opacity:0.2;"/>
     </g>
     <g id="line2d_12">
      <g>
       <use style="stroke:#000000;stroke-width:0.8;" x="528.488794" xlink:href="#md8888f64f3" y="384.48"/>
      </g>
     </g>
     <g id="text_6">
      <!-- 2020-12 -->
      <g transform="translate(507.597388 399.078438)scale(0.1 -0.1)">
       <use xlink:href="#DejaVuSans-50"/>
       <use x="63.623047" xlink:href="#DejaVuSans-48"/>
       <use x="127.246094" xlink:href="#DejaVuSans-50"/>
       <use x="190.869141" xlink:href="#DejaVuSans-48"/>
       <use x="254.492188" xlink:href="#DejaVuSans-45"/>
       <use x="290.576172" xlink:href="#DejaVuSans-49"/>
       <use x="354.199219" xlink:href="#DejaVuSans-50"/>
      </g>
     </g>
    </g>
    <g id="xtick_7">
     <g id="line2d_13">
      <path clip-path="url(#p8984121e00)" d="M 615.610426 384.48 
L 615.610426 51.84 
" style="fill:none;stroke:#808080;stroke-linecap:square;stroke-opacity:0.2;"/>
     </g>
     <g id="line2d_14">
      <g>
       <use style="stroke:#000000;stroke-width:0.8;" x="615.610426" xlink:href="#md8888f64f3" y="384.48"/>
      </g>
     </g>
     <g id="text_7">
      <!-- 2021-02 -->
      <g transform="translate(594.719019 399.078438)scale(0.1 -0.1)">
       <use xlink:href="#DejaVuSans-50"/>
       <use x="63.623047" xlink:href="#DejaVuSans-48"/>
       <use x="127.246094" xlink:href="#DejaVuSans-50"/>
       <use x="190.869141" xlink:href="#DejaVuSans-49"/>
       <use x="254.492188" xlink:href="#DejaVuSans-45"/>
       <use x="290.576172" xlink:href="#DejaVuSans-48"/>
       <use x="354.199219" xlink:href="#DejaVuSans-50"/>
      </g>
     </g>
    </g>
    <g id="text_8">
     <!-- ds -->
     <g transform="translate(363.221094 412.756563)scale(0.1 -0.1)">
      <defs>
       <path d="M 45.40625 46.390625 
L 45.40625 75.984375 
L 54.390625 75.984375 
L 54.390625 0 
L 45.40625 0 
L 45.40625 8.203125 
Q 42.578125 3.328125 38.25 0.953125 
Q 33.9375 -1.421875 27.875 -1.421875 
Q 17.96875 -1.421875 11.734375 6.484375 
Q 5.515625 14.40625 5.515625 27.296875 
Q 5.515625 40.1875 11.734375 48.09375 
Q 17.96875 56 27.875 56 
Q 33.9375 56 38.25 53.625 
Q 42.578125 51.265625 45.40625 46.390625 
z
M 14.796875 27.296875 
Q 14.796875 17.390625 18.875 11.75 
Q 22.953125 6.109375 30.078125 6.109375 
Q 37.203125 6.109375 41.296875 11.75 
Q 45.40625 17.390625 45.40625 27.296875 
Q 45.40625 37.203125 41.296875 42.84375 
Q 37.203125 48.484375 30.078125 48.484375 
Q 22.953125 48.484375 18.875 42.84375 
Q 14.796875 37.203125 14.796875 27.296875 
z
" id="DejaVuSans-100"/>
       <path d="M 44.28125 53.078125 
L 44.28125 44.578125 
Q 40.484375 46.53125 36.375 47.5 
Q 32.28125 48.484375 27.875 48.484375 
Q 21.1875 48.484375 17.84375 46.4375 
Q 14.5 44.390625 14.5 40.28125 
Q 14.5 37.15625 16.890625 35.375 
Q 19.28125 33.59375 26.515625 31.984375 
L 29.59375 31.296875 
Q 39.15625 29.25 43.1875 25.515625 
Q 47.21875 21.78125 47.21875 15.09375 
Q 47.21875 7.46875 41.1875 3.015625 
Q 35.15625 -1.421875 24.609375 -1.421875 
Q 20.21875 -1.421875 15.453125 -0.5625 
Q 10.6875 0.296875 5.421875 2 
L 5.421875 11.28125 
Q 10.40625 8.6875 15.234375 7.390625 
Q 20.0625 6.109375 24.8125 6.109375 
Q 31.15625 6.109375 34.5625 8.28125 
Q 37.984375 10.453125 37.984375 14.40625 
Q 37.984375 18.0625 35.515625 20.015625 
Q 33.0625 21.96875 24.703125 23.78125 
L 21.578125 24.515625 
Q 13.234375 26.265625 9.515625 29.90625 
Q 5.8125 33.546875 5.8125 39.890625 
Q 5.8125 47.609375 11.28125 51.796875 
Q 16.75 56 26.8125 56 
Q 31.78125 56 36.171875 55.265625 
Q 40.578125 54.546875 44.28125 53.078125 
z
" id="DejaVuSans-115"/>
      </defs>
      <use xlink:href="#DejaVuSans-100"/>
      <use x="63.476562" xlink:href="#DejaVuSans-115"/>
     </g>
    </g>
   </g>
   <g id="matplotlib.axis_2">
    <g id="ytick_1">
     <g id="line2d_15">
      <path clip-path="url(#p8984121e00)" d="M 90 349.283235 
L 648 349.283235 
" style="fill:none;stroke:#808080;stroke-linecap:square;stroke-opacity:0.2;"/>
     </g>
     <g id="line2d_16">
      <defs>
       <path d="M 0 0 
L -3.5 0 
" id="m3dc65e1c26" style="stroke:#000000;stroke-width:0.8;"/>
      </defs>
      <g>
       <use style="stroke:#000000;stroke-width:0.8;" x="90" xlink:href="#m3dc65e1c26" y="349.283235"/>
      </g>
     </g>
     <g id="text_9">
      <!-- −20 -->
      <g transform="translate(61.895313 353.082454)scale(0.1 -0.1)">
       <defs>
        <path d="M 10.59375 35.5 
L 73.1875 35.5 
L 73.1875 27.203125 
L 10.59375 27.203125 
z
" id="DejaVuSans-8722"/>
       </defs>
       <use xlink:href="#DejaVuSans-8722"/>
       <use x="83.789062" xlink:href="#DejaVuSans-50"/>
       <use x="147.412109" xlink:href="#DejaVuSans-48"/>
      </g>
     </g>
    </g>
    <g id="ytick_2">
     <g id="line2d_17">
      <path clip-path="url(#p8984121e00)" d="M 90 283.381761 
L 648 283.381761 
" style="fill:none;stroke:#808080;stroke-linecap:square;stroke-opacity:0.2;"/>
     </g>
     <g id="line2d_18">
      <g>
       <use style="stroke:#000000;stroke-width:0.8;" x="90" xlink:href="#m3dc65e1c26" y="283.381761"/>
      </g>
     </g>
     <g id="text_10">
      <!-- −10 -->
      <g transform="translate(61.895313 287.18098)scale(0.1 -0.1)">
       <use xlink:href="#DejaVuSans-8722"/>
       <use x="83.789062" xlink:href="#DejaVuSans-49"/>
       <use x="147.412109" xlink:href="#DejaVuSans-48"/>
      </g>
     </g>
    </g>
    <g id="ytick_3">
     <g id="line2d_19">
      <path clip-path="url(#p8984121e00)" d="M 90 217.480287 
L 648 217.480287 
" style="fill:none;stroke:#808080;stroke-linecap:square;stroke-opacity:0.2;"/>
     </g>
     <g id="line2d_20">
      <g>
       <use style="stroke:#000000;stroke-width:0.8;" x="90" xlink:href="#m3dc65e1c26" y="217.480287"/>
      </g>
     </g>
     <g id="text_11">
      <!-- 0 -->
      <g transform="translate(76.6375 221.279506)scale(0.1 -0.1)">
       <use xlink:href="#DejaVuSans-48"/>
      </g>
     </g>
    </g>
    <g id="ytick_4">
     <g id="line2d_21">
      <path clip-path="url(#p8984121e00)" d="M 90 151.578813 
L 648 151.578813 
" style="fill:none;stroke:#808080;stroke-linecap:square;stroke-opacity:0.2;"/>
     </g>
     <g id="line2d_22">
      <g>
       <use style="stroke:#000000;stroke-width:0.8;" x="90" xlink:href="#m3dc65e1c26" y="151.578813"/>
      </g>
     </g>
     <g id="text_12">
      <!-- 10 -->
      <g transform="translate(70.275 155.378032)scale(0.1 -0.1)">
       <use xlink:href="#DejaVuSans-49"/>
       <use x="63.623047" xlink:href="#DejaVuSans-48"/>
      </g>
     </g>
    </g>
    <g id="ytick_5">
     <g id="line2d_23">
      <path clip-path="url(#p8984121e00)" d="M 90 85.677339 
L 648 85.677339 
" style="fill:none;stroke:#808080;stroke-linecap:square;stroke-opacity:0.2;"/>
     </g>
     <g id="line2d_24">
      <g>
       <use style="stroke:#000000;stroke-width:0.8;" x="90" xlink:href="#m3dc65e1c26" y="85.677339"/>
      </g>
     </g>
     <g id="text_13">
      <!-- 20 -->
      <g transform="translate(70.275 89.476558)scale(0.1 -0.1)">
       <use xlink:href="#DejaVuSans-50"/>
       <use x="63.623047" xlink:href="#DejaVuSans-48"/>
      </g>
     </g>
    </g>
    <g id="text_14">
     <!-- Preisänderung_in_amazon_prime_day -->
     <g transform="translate(55.5375 312.323281)rotate(-90)scale(0.1 -0.1)">
      <defs>
       <path d="M 19.671875 64.796875 
L 19.671875 37.40625 
L 32.078125 37.40625 
Q 38.96875 37.40625 42.71875 40.96875 
Q 46.484375 44.53125 46.484375 51.125 
Q 46.484375 57.671875 42.71875 61.234375 
Q 38.96875 64.796875 32.078125 64.796875 
z
M 9.8125 72.90625 
L 32.078125 72.90625 
Q 44.34375 72.90625 50.609375 67.359375 
Q 56.890625 61.8125 56.890625 51.125 
Q 56.890625 40.328125 50.609375 34.8125 
Q 44.34375 29.296875 32.078125 29.296875 
L 19.671875 29.296875 
L 19.671875 0 
L 9.8125 0 
z
" id="DejaVuSans-80"/>
       <path d="M 41.109375 46.296875 
Q 39.59375 47.171875 37.8125 47.578125 
Q 36.03125 48 33.890625 48 
Q 26.265625 48 22.1875 43.046875 
Q 18.109375 38.09375 18.109375 28.8125 
L 18.109375 0 
L 9.078125 0 
L 9.078125 54.6875 
L 18.109375 54.6875 
L 18.109375 46.1875 
Q 20.953125 51.171875 25.484375 53.578125 
Q 30.03125 56 36.53125 56 
Q 37.453125 56 38.578125 55.875 
Q 39.703125 55.765625 41.0625 55.515625 
z
" id="DejaVuSans-114"/>
       <path d="M 56.203125 29.59375 
L 56.203125 25.203125 
L 14.890625 25.203125 
Q 15.484375 15.921875 20.484375 11.0625 
Q 25.484375 6.203125 34.421875 6.203125 
Q 39.59375 6.203125 44.453125 7.46875 
Q 49.3125 8.734375 54.109375 11.28125 
L 54.109375 2.78125 
Q 49.265625 0.734375 44.1875 -0.34375 
Q 39.109375 -1.421875 33.890625 -1.421875 
Q 20.796875 -1.421875 13.15625 6.1875 
Q 5.515625 13.8125 5.515625 26.8125 
Q 5.515625 40.234375 12.765625 48.109375 
Q 20.015625 56 32.328125 56 
Q 43.359375 56 49.78125 48.890625 
Q 56.203125 41.796875 56.203125 29.59375 
z
M 47.21875 32.234375 
Q 47.125 39.59375 43.09375 43.984375 
Q 39.0625 48.390625 32.421875 48.390625 
Q 24.90625 48.390625 20.390625 44.140625 
Q 15.875 39.890625 15.1875 32.171875 
z
" id="DejaVuSans-101"/>
       <path d="M 9.421875 54.6875 
L 18.40625 54.6875 
L 18.40625 0 
L 9.421875 0 
z
M 9.421875 75.984375 
L 18.40625 75.984375 
L 18.40625 64.59375 
L 9.421875 64.59375 
z
" id="DejaVuSans-105"/>
       <path d="M 34.28125 27.484375 
Q 23.390625 27.484375 19.1875 25 
Q 14.984375 22.515625 14.984375 16.5 
Q 14.984375 11.71875 18.140625 8.90625 
Q 21.296875 6.109375 26.703125 6.109375 
Q 34.1875 6.109375 38.703125 11.40625 
Q 43.21875 16.703125 43.21875 25.484375 
L 43.21875 27.484375 
z
M 52.203125 31.203125 
L 52.203125 0 
L 43.21875 0 
L 43.21875 8.296875 
Q 40.140625 3.328125 35.546875 0.953125 
Q 30.953125 -1.421875 24.3125 -1.421875 
Q 15.921875 -1.421875 10.953125 3.296875 
Q 6 8.015625 6 15.921875 
Q 6 25.140625 12.171875 29.828125 
Q 18.359375 34.515625 30.609375 34.515625 
L 43.21875 34.515625 
L 43.21875 35.40625 
Q 43.21875 41.609375 39.140625 45 
Q 35.0625 48.390625 27.6875 48.390625 
Q 23 48.390625 18.546875 47.265625 
Q 14.109375 46.140625 10.015625 43.890625 
L 10.015625 52.203125 
Q 14.9375 54.109375 19.578125 55.046875 
Q 24.21875 56 28.609375 56 
Q 40.484375 56 46.34375 49.84375 
Q 52.203125 43.703125 52.203125 31.203125 
z
M 33.59375 75.78125 
L 43.5 75.78125 
L 43.5 65.921875 
L 33.59375 65.921875 
z
M 14.5 75.78125 
L 24.40625 75.78125 
L 24.40625 65.921875 
L 14.5 65.921875 
z
" id="DejaVuSans-228"/>
       <path d="M 54.890625 33.015625 
L 54.890625 0 
L 45.90625 0 
L 45.90625 32.71875 
Q 45.90625 40.484375 42.875 44.328125 
Q 39.84375 48.1875 33.796875 48.1875 
Q 26.515625 48.1875 22.3125 43.546875 
Q 18.109375 38.921875 18.109375 30.90625 
L 18.109375 0 
L 9.078125 0 
L 9.078125 54.6875 
L 18.109375 54.6875 
L 18.109375 46.1875 
Q 21.34375 51.125 25.703125 53.5625 
Q 30.078125 56 35.796875 56 
Q 45.21875 56 50.046875 50.171875 
Q 54.890625 44.34375 54.890625 33.015625 
z
" id="DejaVuSans-110"/>
       <path d="M 8.5 21.578125 
L 8.5 54.6875 
L 17.484375 54.6875 
L 17.484375 21.921875 
Q 17.484375 14.15625 20.5 10.265625 
Q 23.53125 6.390625 29.59375 6.390625 
Q 36.859375 6.390625 41.078125 11.03125 
Q 45.3125 15.671875 45.3125 23.6875 
L 45.3125 54.6875 
L 54.296875 54.6875 
L 54.296875 0 
L 45.3125 0 
L 45.3125 8.40625 
Q 42.046875 3.421875 37.71875 1 
Q 33.40625 -1.421875 27.6875 -1.421875 
Q 18.265625 -1.421875 13.375 4.4375 
Q 8.5 10.296875 8.5 21.578125 
z
M 31.109375 56 
z
" id="DejaVuSans-117"/>
       <path d="M 45.40625 27.984375 
Q 45.40625 37.75 41.375 43.109375 
Q 37.359375 48.484375 30.078125 48.484375 
Q 22.859375 48.484375 18.828125 43.109375 
Q 14.796875 37.75 14.796875 27.984375 
Q 14.796875 18.265625 18.828125 12.890625 
Q 22.859375 7.515625 30.078125 7.515625 
Q 37.359375 7.515625 41.375 12.890625 
Q 45.40625 18.265625 45.40625 27.984375 
z
M 54.390625 6.78125 
Q 54.390625 -7.171875 48.1875 -13.984375 
Q 42 -20.796875 29.203125 -20.796875 
Q 24.46875 -20.796875 20.265625 -20.09375 
Q 16.0625 -19.390625 12.109375 -17.921875 
L 12.109375 -9.1875 
Q 16.0625 -11.328125 19.921875 -12.34375 
Q 23.78125 -13.375 27.78125 -13.375 
Q 36.625 -13.375 41.015625 -8.765625 
Q 45.40625 -4.15625 45.40625 5.171875 
L 45.40625 9.625 
Q 42.625 4.78125 38.28125 2.390625 
Q 33.9375 0 27.875 0 
Q 17.828125 0 11.671875 7.65625 
Q 5.515625 15.328125 5.515625 27.984375 
Q 5.515625 40.671875 11.671875 48.328125 
Q 17.828125 56 27.875 56 
Q 33.9375 56 38.28125 53.609375 
Q 42.625 51.21875 45.40625 46.390625 
L 45.40625 54.6875 
L 54.390625 54.6875 
z
" id="DejaVuSans-103"/>
       <path d="M 50.984375 -16.609375 
L 50.984375 -23.578125 
L -0.984375 -23.578125 
L -0.984375 -16.609375 
z
" id="DejaVuSans-95"/>
       <path d="M 34.28125 27.484375 
Q 23.390625 27.484375 19.1875 25 
Q 14.984375 22.515625 14.984375 16.5 
Q 14.984375 11.71875 18.140625 8.90625 
Q 21.296875 6.109375 26.703125 6.109375 
Q 34.1875 6.109375 38.703125 11.40625 
Q 43.21875 16.703125 43.21875 25.484375 
L 43.21875 27.484375 
z
M 52.203125 31.203125 
L 52.203125 0 
L 43.21875 0 
L 43.21875 8.296875 
Q 40.140625 3.328125 35.546875 0.953125 
Q 30.953125 -1.421875 24.3125 -1.421875 
Q 15.921875 -1.421875 10.953125 3.296875 
Q 6 8.015625 6 15.921875 
Q 6 25.140625 12.171875 29.828125 
Q 18.359375 34.515625 30.609375 34.515625 
L 43.21875 34.515625 
L 43.21875 35.40625 
Q 43.21875 41.609375 39.140625 45 
Q 35.0625 48.390625 27.6875 48.390625 
Q 23 48.390625 18.546875 47.265625 
Q 14.109375 46.140625 10.015625 43.890625 
L 10.015625 52.203125 
Q 14.9375 54.109375 19.578125 55.046875 
Q 24.21875 56 28.609375 56 
Q 40.484375 56 46.34375 49.84375 
Q 52.203125 43.703125 52.203125 31.203125 
z
" id="DejaVuSans-97"/>
       <path d="M 52 44.1875 
Q 55.375 50.25 60.0625 53.125 
Q 64.75 56 71.09375 56 
Q 79.640625 56 84.28125 50.015625 
Q 88.921875 44.046875 88.921875 33.015625 
L 88.921875 0 
L 79.890625 0 
L 79.890625 32.71875 
Q 79.890625 40.578125 77.09375 44.375 
Q 74.3125 48.1875 68.609375 48.1875 
Q 61.625 48.1875 57.5625 43.546875 
Q 53.515625 38.921875 53.515625 30.90625 
L 53.515625 0 
L 44.484375 0 
L 44.484375 32.71875 
Q 44.484375 40.625 41.703125 44.40625 
Q 38.921875 48.1875 33.109375 48.1875 
Q 26.21875 48.1875 22.15625 43.53125 
Q 18.109375 38.875 18.109375 30.90625 
L 18.109375 0 
L 9.078125 0 
L 9.078125 54.6875 
L 18.109375 54.6875 
L 18.109375 46.1875 
Q 21.1875 51.21875 25.484375 53.609375 
Q 29.78125 56 35.6875 56 
Q 41.65625 56 45.828125 52.96875 
Q 50 49.953125 52 44.1875 
z
" id="DejaVuSans-109"/>
       <path d="M 5.515625 54.6875 
L 48.1875 54.6875 
L 48.1875 46.484375 
L 14.40625 7.171875 
L 48.1875 7.171875 
L 48.1875 0 
L 4.296875 0 
L 4.296875 8.203125 
L 38.09375 47.515625 
L 5.515625 47.515625 
z
" id="DejaVuSans-122"/>
       <path d="M 30.609375 48.390625 
Q 23.390625 48.390625 19.1875 42.75 
Q 14.984375 37.109375 14.984375 27.296875 
Q 14.984375 17.484375 19.15625 11.84375 
Q 23.34375 6.203125 30.609375 6.203125 
Q 37.796875 6.203125 41.984375 11.859375 
Q 46.1875 17.53125 46.1875 27.296875 
Q 46.1875 37.015625 41.984375 42.703125 
Q 37.796875 48.390625 30.609375 48.390625 
z
M 30.609375 56 
Q 42.328125 56 49.015625 48.375 
Q 55.71875 40.765625 55.71875 27.296875 
Q 55.71875 13.875 49.015625 6.21875 
Q 42.328125 -1.421875 30.609375 -1.421875 
Q 18.84375 -1.421875 12.171875 6.21875 
Q 5.515625 13.875 5.515625 27.296875 
Q 5.515625 40.765625 12.171875 48.375 
Q 18.84375 56 30.609375 56 
z
" id="DejaVuSans-111"/>
       <path d="M 18.109375 8.203125 
L 18.109375 -20.796875 
L 9.078125 -20.796875 
L 9.078125 54.6875 
L 18.109375 54.6875 
L 18.109375 46.390625 
Q 20.953125 51.265625 25.265625 53.625 
Q 29.59375 56 35.59375 56 
Q 45.5625 56 51.78125 48.09375 
Q 58.015625 40.1875 58.015625 27.296875 
Q 58.015625 14.40625 51.78125 6.484375 
Q 45.5625 -1.421875 35.59375 -1.421875 
Q 29.59375 -1.421875 25.265625 0.953125 
Q 20.953125 3.328125 18.109375 8.203125 
z
M 48.6875 27.296875 
Q 48.6875 37.203125 44.609375 42.84375 
Q 40.53125 48.484375 33.40625 48.484375 
Q 26.265625 48.484375 22.1875 42.84375 
Q 18.109375 37.203125 18.109375 27.296875 
Q 18.109375 17.390625 22.1875 11.75 
Q 26.265625 6.109375 33.40625 6.109375 
Q 40.53125 6.109375 44.609375 11.75 
Q 48.6875 17.390625 48.6875 27.296875 
z
" id="DejaVuSans-112"/>
       <path d="M 32.171875 -5.078125 
Q 28.375 -14.84375 24.75 -17.8125 
Q 21.140625 -20.796875 15.09375 -20.796875 
L 7.90625 -20.796875 
L 7.90625 -13.28125 
L 13.1875 -13.28125 
Q 16.890625 -13.28125 18.9375 -11.515625 
Q 21 -9.765625 23.484375 -3.21875 
L 25.09375 0.875 
L 2.984375 54.6875 
L 12.5 54.6875 
L 29.59375 11.921875 
L 46.6875 54.6875 
L 56.203125 54.6875 
z
" id="DejaVuSans-121"/>
      </defs>
      <use xlink:href="#DejaVuSans-80"/>
      <use x="58.552734" xlink:href="#DejaVuSans-114"/>
      <use x="97.416016" xlink:href="#DejaVuSans-101"/>
      <use x="158.939453" xlink:href="#DejaVuSans-105"/>
      <use x="186.722656" xlink:href="#DejaVuSans-115"/>
      <use x="238.822266" xlink:href="#DejaVuSans-228"/>
      <use x="300.101562" xlink:href="#DejaVuSans-110"/>
      <use x="363.480469" xlink:href="#DejaVuSans-100"/>
      <use x="426.957031" xlink:href="#DejaVuSans-101"/>
      <use x="488.480469" xlink:href="#DejaVuSans-114"/>
      <use x="529.59375" xlink:href="#DejaVuSans-117"/>
      <use x="592.972656" xlink:href="#DejaVuSans-110"/>
      <use x="656.351562" xlink:href="#DejaVuSans-103"/>
      <use x="719.828125" xlink:href="#DejaVuSans-95"/>
      <use x="769.828125" xlink:href="#DejaVuSans-105"/>
      <use x="797.611328" xlink:href="#DejaVuSans-110"/>
      <use x="860.990234" xlink:href="#DejaVuSans-95"/>
      <use x="910.990234" xlink:href="#DejaVuSans-97"/>
      <use x="972.269531" xlink:href="#DejaVuSans-109"/>
      <use x="1069.681641" xlink:href="#DejaVuSans-97"/>
      <use x="1130.960938" xlink:href="#DejaVuSans-122"/>
      <use x="1183.451172" xlink:href="#DejaVuSans-111"/>
      <use x="1244.632812" xlink:href="#DejaVuSans-110"/>
      <use x="1308.011719" xlink:href="#DejaVuSans-95"/>
      <use x="1358.011719" xlink:href="#DejaVuSans-112"/>
      <use x="1421.488281" xlink:href="#DejaVuSans-114"/>
      <use x="1462.601562" xlink:href="#DejaVuSans-105"/>
      <use x="1490.384766" xlink:href="#DejaVuSans-109"/>
      <use x="1587.796875" xlink:href="#DejaVuSans-101"/>
      <use x="1649.320312" xlink:href="#DejaVuSans-95"/>
      <use x="1699.320312" xlink:href="#DejaVuSans-100"/>
      <use x="1762.796875" xlink:href="#DejaVuSans-97"/>
      <use x="1824.076172" xlink:href="#DejaVuSans-121"/>
     </g>
    </g>
   </g>
   <g id="line2d_25">
    <path clip-path="url(#p8984121e00)" d="M 115.363636 217.480287 
L 454.01385 217.480287 
L 455.419038 314.185262 
L 456.824226 320.648055 
L 458.229413 358.943975 
L 459.634601 369.36 
L 461.039788 76.18792 
L 462.444976 66.96 
L 463.850164 110.988214 
L 465.255351 103.337316 
L 466.660539 217.480287 
L 622.636364 217.480287 
L 622.636364 217.480287 
" style="fill:none;stroke:#0072b2;stroke-linecap:square;stroke-width:1.5;"/>
   </g>
   <g id="patch_3">
    <path d="M 90 384.48 
L 90 51.84 
" style="fill:none;stroke:#000000;stroke-linecap:square;stroke-linejoin:miter;stroke-width:0.8;"/>
   </g>
   <g id="patch_4">
    <path d="M 648 384.48 
L 648 51.84 
" style="fill:none;stroke:#000000;stroke-linecap:square;stroke-linejoin:miter;stroke-width:0.8;"/>
   </g>
   <g id="patch_5">
    <path d="M 90 384.48 
L 648 384.48 
" style="fill:none;stroke:#000000;stroke-linecap:square;stroke-linejoin:miter;stroke-width:0.8;"/>
   </g>
   <g id="patch_6">
    <path d="M 90 51.84 
L 648 51.84 
" style="fill:none;stroke:#000000;stroke-linecap:square;stroke-linejoin:miter;stroke-width:0.8;"/>
   </g>
  </g>
 </g>
 <defs>
  <clipPath id="p8984121e00">
   <rect height="332.64" width="558" x="90" y="51.84"/>
  </clipPath>
 </defs>
</svg>
