<?xml version="1.0" encoding="utf-8" standalone="no"?>
<!DOCTYPE svg PUBLIC "-//W3C//DTD SVG 1.1//EN"
  "http://www.w3.org/Graphics/SVG/1.1/DTD/svg11.dtd">
<!-- Created with matplotlib (https://matplotlib.org/) -->
<svg height="432pt" version="1.1" viewBox="0 0 864 432" width="864pt" xmlns="http://www.w3.org/2000/svg" xmlns:xlink="http://www.w3.org/1999/xlink">
 <metadata>
  <rdf:RDF xmlns:cc="http://creativecommons.org/ns#" xmlns:dc="http://purl.org/dc/elements/1.1/" xmlns:rdf="http://www.w3.org/1999/02/22-rdf-syntax-ns#">
   <cc:Work>
    <dc:type rdf:resource="http://purl.org/dc/dcmitype/StillImage"/>
    <dc:date>2021-02-19T21:18:01.397676</dc:date>
    <dc:format>image/svg+xml</dc:format>
    <dc:creator>
     <cc:Agent>
      <dc:title>Matplotlib v3.3.2, https://matplotlib.org/</dc:title>
     </cc:Agent>
    </dc:creator>
   </cc:Work>
  </rdf:RDF>
 </metadata>
 <defs>
  <style type="text/css">*{stroke-linecap:butt;stroke-linejoin:round;}</style>
 </defs>
 <g id="figure_1">
  <g id="patch_1">
   <path d="M 0 432 
L 864 432 
L 864 0 
L 0 0 
z
" style="fill:#ffffff;"/>
  </g>
  <g id="axes_1">
   <g id="patch_2">
    <path d="M 50.87 390.04 
L 853.2 390.04 
L 853.2 28.32 
L 50.87 28.32 
z
" style="fill:#ffffff;"/>
   </g>
   <g id="matplotlib.axis_1">
    <g id="xtick_1">
     <g id="line2d_1">
      <path clip-path="url(#p7244748794)" d="M 125.728541 390.04 
L 125.728541 28.32 
" style="fill:none;stroke:#b0b0b0;stroke-linecap:square;stroke-width:0.8;"/>
     </g>
     <g id="line2d_2">
      <defs>
       <path d="M 0 0 
L 0 3.5 
" id="mfb44897463" style="stroke:#000000;stroke-width:0.8;"/>
      </defs>
      <g>
       <use style="stroke:#000000;stroke-width:0.8;" x="125.728541" xlink:href="#mfb44897463" y="390.04"/>
      </g>
     </g>
     <g id="text_1">
      <!-- 2020-03 -->
      <g transform="translate(104.837134 404.638438)scale(0.1 -0.1)">
       <defs>
        <path d="M 19.1875 8.296875 
L 53.609375 8.296875 
L 53.609375 0 
L 7.328125 0 
L 7.328125 8.296875 
Q 12.9375 14.109375 22.625 23.890625 
Q 32.328125 33.6875 34.8125 36.53125 
Q 39.546875 41.84375 41.421875 45.53125 
Q 43.3125 49.21875 43.3125 52.78125 
Q 43.3125 58.59375 39.234375 62.25 
Q 35.15625 65.921875 28.609375 65.921875 
Q 23.96875 65.921875 18.8125 64.3125 
Q 13.671875 62.703125 7.8125 59.421875 
L 7.8125 69.390625 
Q 13.765625 71.78125 18.9375 73 
Q 24.125 74.21875 28.421875 74.21875 
Q 39.75 74.21875 46.484375 68.546875 
Q 53.21875 62.890625 53.21875 53.421875 
Q 53.21875 48.921875 51.53125 44.890625 
Q 49.859375 40.875 45.40625 35.40625 
Q 44.1875 33.984375 37.640625 27.21875 
Q 31.109375 20.453125 19.1875 8.296875 
z
" id="DejaVuSans-50"/>
        <path d="M 31.78125 66.40625 
Q 24.171875 66.40625 20.328125 58.90625 
Q 16.5 51.421875 16.5 36.375 
Q 16.5 21.390625 20.328125 13.890625 
Q 24.171875 6.390625 31.78125 6.390625 
Q 39.453125 6.390625 43.28125 13.890625 
Q 47.125 21.390625 47.125 36.375 
Q 47.125 51.421875 43.28125 58.90625 
Q 39.453125 66.40625 31.78125 66.40625 
z
M 31.78125 74.21875 
Q 44.046875 74.21875 50.515625 64.515625 
Q 56.984375 54.828125 56.984375 36.375 
Q 56.984375 17.96875 50.515625 8.265625 
Q 44.046875 -1.421875 31.78125 -1.421875 
Q 19.53125 -1.421875 13.0625 8.265625 
Q 6.59375 17.96875 6.59375 36.375 
Q 6.59375 54.828125 13.0625 64.515625 
Q 19.53125 74.21875 31.78125 74.21875 
z
" id="DejaVuSans-48"/>
        <path d="M 4.890625 31.390625 
L 31.203125 31.390625 
L 31.203125 23.390625 
L 4.890625 23.390625 
z
" id="DejaVuSans-45"/>
        <path d="M 40.578125 39.3125 
Q 47.65625 37.796875 51.625 33 
Q 55.609375 28.21875 55.609375 21.1875 
Q 55.609375 10.40625 48.1875 4.484375 
Q 40.765625 -1.421875 27.09375 -1.421875 
Q 22.515625 -1.421875 17.65625 -0.515625 
Q 12.796875 0.390625 7.625 2.203125 
L 7.625 11.71875 
Q 11.71875 9.328125 16.59375 8.109375 
Q 21.484375 6.890625 26.8125 6.890625 
Q 36.078125 6.890625 40.9375 10.546875 
Q 45.796875 14.203125 45.796875 21.1875 
Q 45.796875 27.640625 41.28125 31.265625 
Q 36.765625 34.90625 28.71875 34.90625 
L 20.21875 34.90625 
L 20.21875 43.015625 
L 29.109375 43.015625 
Q 36.375 43.015625 40.234375 45.921875 
Q 44.09375 48.828125 44.09375 54.296875 
Q 44.09375 59.90625 40.109375 62.90625 
Q 36.140625 65.921875 28.71875 65.921875 
Q 24.65625 65.921875 20.015625 65.03125 
Q 15.375 64.15625 9.8125 62.3125 
L 9.8125 71.09375 
Q 15.4375 72.65625 20.34375 73.4375 
Q 25.25 74.21875 29.59375 74.21875 
Q 40.828125 74.21875 47.359375 69.109375 
Q 53.90625 64.015625 53.90625 55.328125 
Q 53.90625 49.265625 50.4375 45.09375 
Q 46.96875 40.921875 40.578125 39.3125 
z
" id="DejaVuSans-51"/>
       </defs>
       <use xlink:href="#DejaVuSans-50"/>
       <use x="63.623047" xlink:href="#DejaVuSans-48"/>
       <use x="127.246094" xlink:href="#DejaVuSans-50"/>
       <use x="190.869141" xlink:href="#DejaVuSans-48"/>
       <use x="254.492188" xlink:href="#DejaVuSans-45"/>
       <use x="290.576172" xlink:href="#DejaVuSans-48"/>
       <use x="354.199219" xlink:href="#DejaVuSans-51"/>
      </g>
     </g>
    </g>
    <g id="xtick_2">
     <g id="line2d_3">
      <path clip-path="url(#p7244748794)" d="M 248.97742 390.04 
L 248.97742 28.32 
" style="fill:none;stroke:#b0b0b0;stroke-linecap:square;stroke-width:0.8;"/>
     </g>
     <g id="line2d_4">
      <g>
       <use style="stroke:#000000;stroke-width:0.8;" x="248.97742" xlink:href="#mfb44897463" y="390.04"/>
      </g>
     </g>
     <g id="text_2">
      <!-- 2020-05 -->
      <g transform="translate(228.086014 404.638438)scale(0.1 -0.1)">
       <defs>
        <path d="M 10.796875 72.90625 
L 49.515625 72.90625 
L 49.515625 64.59375 
L 19.828125 64.59375 
L 19.828125 46.734375 
Q 21.96875 47.46875 24.109375 47.828125 
Q 26.265625 48.1875 28.421875 48.1875 
Q 40.625 48.1875 47.75 41.5 
Q 54.890625 34.8125 54.890625 23.390625 
Q 54.890625 11.625 47.5625 5.09375 
Q 40.234375 -1.421875 26.90625 -1.421875 
Q 22.3125 -1.421875 17.546875 -0.640625 
Q 12.796875 0.140625 7.71875 1.703125 
L 7.71875 11.625 
Q 12.109375 9.234375 16.796875 8.0625 
Q 21.484375 6.890625 26.703125 6.890625 
Q 35.15625 6.890625 40.078125 11.328125 
Q 45.015625 15.765625 45.015625 23.390625 
Q 45.015625 31 40.078125 35.4375 
Q 35.15625 39.890625 26.703125 39.890625 
Q 22.75 39.890625 18.8125 39.015625 
Q 14.890625 38.140625 10.796875 36.28125 
z
" id="DejaVuSans-53"/>
       </defs>
       <use xlink:href="#DejaVuSans-50"/>
       <use x="63.623047" xlink:href="#DejaVuSans-48"/>
       <use x="127.246094" xlink:href="#DejaVuSans-50"/>
       <use x="190.869141" xlink:href="#DejaVuSans-48"/>
       <use x="254.492188" xlink:href="#DejaVuSans-45"/>
       <use x="290.576172" xlink:href="#DejaVuSans-48"/>
       <use x="354.199219" xlink:href="#DejaVuSans-53"/>
      </g>
     </g>
    </g>
    <g id="xtick_3">
     <g id="line2d_5">
      <path clip-path="url(#p7244748794)" d="M 372.226299 390.04 
L 372.226299 28.32 
" style="fill:none;stroke:#b0b0b0;stroke-linecap:square;stroke-width:0.8;"/>
     </g>
     <g id="line2d_6">
      <g>
       <use style="stroke:#000000;stroke-width:0.8;" x="372.226299" xlink:href="#mfb44897463" y="390.04"/>
      </g>
     </g>
     <g id="text_3">
      <!-- 2020-07 -->
      <g transform="translate(351.334893 404.638438)scale(0.1 -0.1)">
       <defs>
        <path d="M 8.203125 72.90625 
L 55.078125 72.90625 
L 55.078125 68.703125 
L 28.609375 0 
L 18.3125 0 
L 43.21875 64.59375 
L 8.203125 64.59375 
z
" id="DejaVuSans-55"/>
       </defs>
       <use xlink:href="#DejaVuSans-50"/>
       <use x="63.623047" xlink:href="#DejaVuSans-48"/>
       <use x="127.246094" xlink:href="#DejaVuSans-50"/>
       <use x="190.869141" xlink:href="#DejaVuSans-48"/>
       <use x="254.492188" xlink:href="#DejaVuSans-45"/>
       <use x="290.576172" xlink:href="#DejaVuSans-48"/>
       <use x="354.199219" xlink:href="#DejaVuSans-55"/>
      </g>
     </g>
    </g>
    <g id="xtick_4">
     <g id="line2d_7">
      <path clip-path="url(#p7244748794)" d="M 497.495652 390.04 
L 497.495652 28.32 
" style="fill:none;stroke:#b0b0b0;stroke-linecap:square;stroke-width:0.8;"/>
     </g>
     <g id="line2d_8">
      <g>
       <use style="stroke:#000000;stroke-width:0.8;" x="497.495652" xlink:href="#mfb44897463" y="390.04"/>
      </g>
     </g>
     <g id="text_4">
      <!-- 2020-09 -->
      <g transform="translate(476.604246 404.638438)scale(0.1 -0.1)">
       <defs>
        <path d="M 10.984375 1.515625 
L 10.984375 10.5 
Q 14.703125 8.734375 18.5 7.8125 
Q 22.3125 6.890625 25.984375 6.890625 
Q 35.75 6.890625 40.890625 13.453125 
Q 46.046875 20.015625 46.78125 33.40625 
Q 43.953125 29.203125 39.59375 26.953125 
Q 35.25 24.703125 29.984375 24.703125 
Q 19.046875 24.703125 12.671875 31.3125 
Q 6.296875 37.9375 6.296875 49.421875 
Q 6.296875 60.640625 12.9375 67.421875 
Q 19.578125 74.21875 30.609375 74.21875 
Q 43.265625 74.21875 49.921875 64.515625 
Q 56.59375 54.828125 56.59375 36.375 
Q 56.59375 19.140625 48.40625 8.859375 
Q 40.234375 -1.421875 26.421875 -1.421875 
Q 22.703125 -1.421875 18.890625 -0.6875 
Q 15.09375 0.046875 10.984375 1.515625 
z
M 30.609375 32.421875 
Q 37.25 32.421875 41.125 36.953125 
Q 45.015625 41.5 45.015625 49.421875 
Q 45.015625 57.28125 41.125 61.84375 
Q 37.25 66.40625 30.609375 66.40625 
Q 23.96875 66.40625 20.09375 61.84375 
Q 16.21875 57.28125 16.21875 49.421875 
Q 16.21875 41.5 20.09375 36.953125 
Q 23.96875 32.421875 30.609375 32.421875 
z
" id="DejaVuSans-57"/>
       </defs>
       <use xlink:href="#DejaVuSans-50"/>
       <use x="63.623047" xlink:href="#DejaVuSans-48"/>
       <use x="127.246094" xlink:href="#DejaVuSans-50"/>
       <use x="190.869141" xlink:href="#DejaVuSans-48"/>
       <use x="254.492188" xlink:href="#DejaVuSans-45"/>
       <use x="290.576172" xlink:href="#DejaVuSans-48"/>
       <use x="354.199219" xlink:href="#DejaVuSans-57"/>
      </g>
     </g>
    </g>
    <g id="xtick_5">
     <g id="line2d_9">
      <path clip-path="url(#p7244748794)" d="M 620.744532 390.04 
L 620.744532 28.32 
" style="fill:none;stroke:#b0b0b0;stroke-linecap:square;stroke-width:0.8;"/>
     </g>
     <g id="line2d_10">
      <g>
       <use style="stroke:#000000;stroke-width:0.8;" x="620.744532" xlink:href="#mfb44897463" y="390.04"/>
      </g>
     </g>
     <g id="text_5">
      <!-- 2020-11 -->
      <g transform="translate(599.853125 404.638438)scale(0.1 -0.1)">
       <defs>
        <path d="M 12.40625 8.296875 
L 28.515625 8.296875 
L 28.515625 63.921875 
L 10.984375 60.40625 
L 10.984375 69.390625 
L 28.421875 72.90625 
L 38.28125 72.90625 
L 38.28125 8.296875 
L 54.390625 8.296875 
L 54.390625 0 
L 12.40625 0 
z
" id="DejaVuSans-49"/>
       </defs>
       <use xlink:href="#DejaVuSans-50"/>
       <use x="63.623047" xlink:href="#DejaVuSans-48"/>
       <use x="127.246094" xlink:href="#DejaVuSans-50"/>
       <use x="190.869141" xlink:href="#DejaVuSans-48"/>
       <use x="254.492188" xlink:href="#DejaVuSans-45"/>
       <use x="290.576172" xlink:href="#DejaVuSans-49"/>
       <use x="354.199219" xlink:href="#DejaVuSans-49"/>
      </g>
     </g>
    </g>
    <g id="xtick_6">
     <g id="line2d_11">
      <path clip-path="url(#p7244748794)" d="M 743.993411 390.04 
L 743.993411 28.32 
" style="fill:none;stroke:#b0b0b0;stroke-linecap:square;stroke-width:0.8;"/>
     </g>
     <g id="line2d_12">
      <g>
       <use style="stroke:#000000;stroke-width:0.8;" x="743.993411" xlink:href="#mfb44897463" y="390.04"/>
      </g>
     </g>
     <g id="text_6">
      <!-- 2021-01 -->
      <g transform="translate(723.102005 404.638438)scale(0.1 -0.1)">
       <use xlink:href="#DejaVuSans-50"/>
       <use x="63.623047" xlink:href="#DejaVuSans-48"/>
       <use x="127.246094" xlink:href="#DejaVuSans-50"/>
       <use x="190.869141" xlink:href="#DejaVuSans-49"/>
       <use x="254.492188" xlink:href="#DejaVuSans-45"/>
       <use x="290.576172" xlink:href="#DejaVuSans-48"/>
       <use x="354.199219" xlink:href="#DejaVuSans-49"/>
      </g>
     </g>
    </g>
    <g id="text_7">
     <!-- Datum -->
     <g transform="translate(435.121719 418.316562)scale(0.1 -0.1)">
      <defs>
       <path d="M 19.671875 64.796875 
L 19.671875 8.109375 
L 31.59375 8.109375 
Q 46.6875 8.109375 53.6875 14.9375 
Q 60.6875 21.78125 60.6875 36.53125 
Q 60.6875 51.171875 53.6875 57.984375 
Q 46.6875 64.796875 31.59375 64.796875 
z
M 9.8125 72.90625 
L 30.078125 72.90625 
Q 51.265625 72.90625 61.171875 64.09375 
Q 71.09375 55.28125 71.09375 36.53125 
Q 71.09375 17.671875 61.125 8.828125 
Q 51.171875 0 30.078125 0 
L 9.8125 0 
z
" id="DejaVuSans-68"/>
       <path d="M 34.28125 27.484375 
Q 23.390625 27.484375 19.1875 25 
Q 14.984375 22.515625 14.984375 16.5 
Q 14.984375 11.71875 18.140625 8.90625 
Q 21.296875 6.109375 26.703125 6.109375 
Q 34.1875 6.109375 38.703125 11.40625 
Q 43.21875 16.703125 43.21875 25.484375 
L 43.21875 27.484375 
z
M 52.203125 31.203125 
L 52.203125 0 
L 43.21875 0 
L 43.21875 8.296875 
Q 40.140625 3.328125 35.546875 0.953125 
Q 30.953125 -1.421875 24.3125 -1.421875 
Q 15.921875 -1.421875 10.953125 3.296875 
Q 6 8.015625 6 15.921875 
Q 6 25.140625 12.171875 29.828125 
Q 18.359375 34.515625 30.609375 34.515625 
L 43.21875 34.515625 
L 43.21875 35.40625 
Q 43.21875 41.609375 39.140625 45 
Q 35.0625 48.390625 27.6875 48.390625 
Q 23 48.390625 18.546875 47.265625 
Q 14.109375 46.140625 10.015625 43.890625 
L 10.015625 52.203125 
Q 14.9375 54.109375 19.578125 55.046875 
Q 24.21875 56 28.609375 56 
Q 40.484375 56 46.34375 49.84375 
Q 52.203125 43.703125 52.203125 31.203125 
z
" id="DejaVuSans-97"/>
       <path d="M 18.3125 70.21875 
L 18.3125 54.6875 
L 36.8125 54.6875 
L 36.8125 47.703125 
L 18.3125 47.703125 
L 18.3125 18.015625 
Q 18.3125 11.328125 20.140625 9.421875 
Q 21.96875 7.515625 27.59375 7.515625 
L 36.8125 7.515625 
L 36.8125 0 
L 27.59375 0 
Q 17.1875 0 13.234375 3.875 
Q 9.28125 7.765625 9.28125 18.015625 
L 9.28125 47.703125 
L 2.6875 47.703125 
L 2.6875 54.6875 
L 9.28125 54.6875 
L 9.28125 70.21875 
z
" id="DejaVuSans-116"/>
       <path d="M 8.5 21.578125 
L 8.5 54.6875 
L 17.484375 54.6875 
L 17.484375 21.921875 
Q 17.484375 14.15625 20.5 10.265625 
Q 23.53125 6.390625 29.59375 6.390625 
Q 36.859375 6.390625 41.078125 11.03125 
Q 45.3125 15.671875 45.3125 23.6875 
L 45.3125 54.6875 
L 54.296875 54.6875 
L 54.296875 0 
L 45.3125 0 
L 45.3125 8.40625 
Q 42.046875 3.421875 37.71875 1 
Q 33.40625 -1.421875 27.6875 -1.421875 
Q 18.265625 -1.421875 13.375 4.4375 
Q 8.5 10.296875 8.5 21.578125 
z
M 31.109375 56 
z
" id="DejaVuSans-117"/>
       <path d="M 52 44.1875 
Q 55.375 50.25 60.0625 53.125 
Q 64.75 56 71.09375 56 
Q 79.640625 56 84.28125 50.015625 
Q 88.921875 44.046875 88.921875 33.015625 
L 88.921875 0 
L 79.890625 0 
L 79.890625 32.71875 
Q 79.890625 40.578125 77.09375 44.375 
Q 74.3125 48.1875 68.609375 48.1875 
Q 61.625 48.1875 57.5625 43.546875 
Q 53.515625 38.921875 53.515625 30.90625 
L 53.515625 0 
L 44.484375 0 
L 44.484375 32.71875 
Q 44.484375 40.625 41.703125 44.40625 
Q 38.921875 48.1875 33.109375 48.1875 
Q 26.21875 48.1875 22.15625 43.53125 
Q 18.109375 38.875 18.109375 30.90625 
L 18.109375 0 
L 9.078125 0 
L 9.078125 54.6875 
L 18.109375 54.6875 
L 18.109375 46.1875 
Q 21.1875 51.21875 25.484375 53.609375 
Q 29.78125 56 35.6875 56 
Q 41.65625 56 45.828125 52.96875 
Q 50 49.953125 52 44.1875 
z
" id="DejaVuSans-109"/>
      </defs>
      <use xlink:href="#DejaVuSans-68"/>
      <use x="77.001953" xlink:href="#DejaVuSans-97"/>
      <use x="138.28125" xlink:href="#DejaVuSans-116"/>
      <use x="177.490234" xlink:href="#DejaVuSans-117"/>
      <use x="240.869141" xlink:href="#DejaVuSans-109"/>
     </g>
    </g>
   </g>
   <g id="matplotlib.axis_2">
    <g id="ytick_1">
     <g id="line2d_13">
      <path clip-path="url(#p7244748794)" d="M 50.87 384.719852 
L 853.2 384.719852 
" style="fill:none;stroke:#b0b0b0;stroke-linecap:square;stroke-width:0.8;"/>
     </g>
     <g id="line2d_14">
      <defs>
       <path d="M 0 0 
L -3.5 0 
" id="ma9908bb5e2" style="stroke:#000000;stroke-width:0.8;"/>
      </defs>
      <g>
       <use style="stroke:#000000;stroke-width:0.8;" x="50.87" xlink:href="#ma9908bb5e2" y="384.719852"/>
      </g>
     </g>
     <g id="text_8">
      <!-- 420 -->
      <g transform="translate(24.7825 388.519071)scale(0.1 -0.1)">
       <defs>
        <path d="M 37.796875 64.3125 
L 12.890625 25.390625 
L 37.796875 25.390625 
z
M 35.203125 72.90625 
L 47.609375 72.90625 
L 47.609375 25.390625 
L 58.015625 25.390625 
L 58.015625 17.1875 
L 47.609375 17.1875 
L 47.609375 0 
L 37.796875 0 
L 37.796875 17.1875 
L 4.890625 17.1875 
L 4.890625 26.703125 
z
" id="DejaVuSans-52"/>
       </defs>
       <use xlink:href="#DejaVuSans-52"/>
       <use x="63.623047" xlink:href="#DejaVuSans-50"/>
       <use x="127.246094" xlink:href="#DejaVuSans-48"/>
      </g>
     </g>
    </g>
    <g id="ytick_2">
     <g id="line2d_15">
      <path clip-path="url(#p7244748794)" d="M 50.87 343.098026 
L 853.2 343.098026 
" style="fill:none;stroke:#b0b0b0;stroke-linecap:square;stroke-width:0.8;"/>
     </g>
     <g id="line2d_16">
      <g>
       <use style="stroke:#000000;stroke-width:0.8;" x="50.87" xlink:href="#ma9908bb5e2" y="343.098026"/>
      </g>
     </g>
     <g id="text_9">
      <!-- 430 -->
      <g transform="translate(24.7825 346.897245)scale(0.1 -0.1)">
       <use xlink:href="#DejaVuSans-52"/>
       <use x="63.623047" xlink:href="#DejaVuSans-51"/>
       <use x="127.246094" xlink:href="#DejaVuSans-48"/>
      </g>
     </g>
    </g>
    <g id="ytick_3">
     <g id="line2d_17">
      <path clip-path="url(#p7244748794)" d="M 50.87 301.476201 
L 853.2 301.476201 
" style="fill:none;stroke:#b0b0b0;stroke-linecap:square;stroke-width:0.8;"/>
     </g>
     <g id="line2d_18">
      <g>
       <use style="stroke:#000000;stroke-width:0.8;" x="50.87" xlink:href="#ma9908bb5e2" y="301.476201"/>
      </g>
     </g>
     <g id="text_10">
      <!-- 440 -->
      <g transform="translate(24.7825 305.27542)scale(0.1 -0.1)">
       <use xlink:href="#DejaVuSans-52"/>
       <use x="63.623047" xlink:href="#DejaVuSans-52"/>
       <use x="127.246094" xlink:href="#DejaVuSans-48"/>
      </g>
     </g>
    </g>
    <g id="ytick_4">
     <g id="line2d_19">
      <path clip-path="url(#p7244748794)" d="M 50.87 259.854375 
L 853.2 259.854375 
" style="fill:none;stroke:#b0b0b0;stroke-linecap:square;stroke-width:0.8;"/>
     </g>
     <g id="line2d_20">
      <g>
       <use style="stroke:#000000;stroke-width:0.8;" x="50.87" xlink:href="#ma9908bb5e2" y="259.854375"/>
      </g>
     </g>
     <g id="text_11">
      <!-- 450 -->
      <g transform="translate(24.7825 263.653594)scale(0.1 -0.1)">
       <use xlink:href="#DejaVuSans-52"/>
       <use x="63.623047" xlink:href="#DejaVuSans-53"/>
       <use x="127.246094" xlink:href="#DejaVuSans-48"/>
      </g>
     </g>
    </g>
    <g id="ytick_5">
     <g id="line2d_21">
      <path clip-path="url(#p7244748794)" d="M 50.87 218.23255 
L 853.2 218.23255 
" style="fill:none;stroke:#b0b0b0;stroke-linecap:square;stroke-width:0.8;"/>
     </g>
     <g id="line2d_22">
      <g>
       <use style="stroke:#000000;stroke-width:0.8;" x="50.87" xlink:href="#ma9908bb5e2" y="218.23255"/>
      </g>
     </g>
     <g id="text_12">
      <!-- 460 -->
      <g transform="translate(24.7825 222.031769)scale(0.1 -0.1)">
       <defs>
        <path d="M 33.015625 40.375 
Q 26.375 40.375 22.484375 35.828125 
Q 18.609375 31.296875 18.609375 23.390625 
Q 18.609375 15.53125 22.484375 10.953125 
Q 26.375 6.390625 33.015625 6.390625 
Q 39.65625 6.390625 43.53125 10.953125 
Q 47.40625 15.53125 47.40625 23.390625 
Q 47.40625 31.296875 43.53125 35.828125 
Q 39.65625 40.375 33.015625 40.375 
z
M 52.59375 71.296875 
L 52.59375 62.3125 
Q 48.875 64.0625 45.09375 64.984375 
Q 41.3125 65.921875 37.59375 65.921875 
Q 27.828125 65.921875 22.671875 59.328125 
Q 17.53125 52.734375 16.796875 39.40625 
Q 19.671875 43.65625 24.015625 45.921875 
Q 28.375 48.1875 33.59375 48.1875 
Q 44.578125 48.1875 50.953125 41.515625 
Q 57.328125 34.859375 57.328125 23.390625 
Q 57.328125 12.15625 50.6875 5.359375 
Q 44.046875 -1.421875 33.015625 -1.421875 
Q 20.359375 -1.421875 13.671875 8.265625 
Q 6.984375 17.96875 6.984375 36.375 
Q 6.984375 53.65625 15.1875 63.9375 
Q 23.390625 74.21875 37.203125 74.21875 
Q 40.921875 74.21875 44.703125 73.484375 
Q 48.484375 72.75 52.59375 71.296875 
z
" id="DejaVuSans-54"/>
       </defs>
       <use xlink:href="#DejaVuSans-52"/>
       <use x="63.623047" xlink:href="#DejaVuSans-54"/>
       <use x="127.246094" xlink:href="#DejaVuSans-48"/>
      </g>
     </g>
    </g>
    <g id="ytick_6">
     <g id="line2d_23">
      <path clip-path="url(#p7244748794)" d="M 50.87 176.610724 
L 853.2 176.610724 
" style="fill:none;stroke:#b0b0b0;stroke-linecap:square;stroke-width:0.8;"/>
     </g>
     <g id="line2d_24">
      <g>
       <use style="stroke:#000000;stroke-width:0.8;" x="50.87" xlink:href="#ma9908bb5e2" y="176.610724"/>
      </g>
     </g>
     <g id="text_13">
      <!-- 470 -->
      <g transform="translate(24.7825 180.409943)scale(0.1 -0.1)">
       <use xlink:href="#DejaVuSans-52"/>
       <use x="63.623047" xlink:href="#DejaVuSans-55"/>
       <use x="127.246094" xlink:href="#DejaVuSans-48"/>
      </g>
     </g>
    </g>
    <g id="ytick_7">
     <g id="line2d_25">
      <path clip-path="url(#p7244748794)" d="M 50.87 134.988899 
L 853.2 134.988899 
" style="fill:none;stroke:#b0b0b0;stroke-linecap:square;stroke-width:0.8;"/>
     </g>
     <g id="line2d_26">
      <g>
       <use style="stroke:#000000;stroke-width:0.8;" x="50.87" xlink:href="#ma9908bb5e2" y="134.988899"/>
      </g>
     </g>
     <g id="text_14">
      <!-- 480 -->
      <g transform="translate(24.7825 138.788118)scale(0.1 -0.1)">
       <defs>
        <path d="M 31.78125 34.625 
Q 24.75 34.625 20.71875 30.859375 
Q 16.703125 27.09375 16.703125 20.515625 
Q 16.703125 13.921875 20.71875 10.15625 
Q 24.75 6.390625 31.78125 6.390625 
Q 38.8125 6.390625 42.859375 10.171875 
Q 46.921875 13.96875 46.921875 20.515625 
Q 46.921875 27.09375 42.890625 30.859375 
Q 38.875 34.625 31.78125 34.625 
z
M 21.921875 38.8125 
Q 15.578125 40.375 12.03125 44.71875 
Q 8.5 49.078125 8.5 55.328125 
Q 8.5 64.0625 14.71875 69.140625 
Q 20.953125 74.21875 31.78125 74.21875 
Q 42.671875 74.21875 48.875 69.140625 
Q 55.078125 64.0625 55.078125 55.328125 
Q 55.078125 49.078125 51.53125 44.71875 
Q 48 40.375 41.703125 38.8125 
Q 48.828125 37.15625 52.796875 32.3125 
Q 56.78125 27.484375 56.78125 20.515625 
Q 56.78125 9.90625 50.3125 4.234375 
Q 43.84375 -1.421875 31.78125 -1.421875 
Q 19.734375 -1.421875 13.25 4.234375 
Q 6.78125 9.90625 6.78125 20.515625 
Q 6.78125 27.484375 10.78125 32.3125 
Q 14.796875 37.15625 21.921875 38.8125 
z
M 18.3125 54.390625 
Q 18.3125 48.734375 21.84375 45.5625 
Q 25.390625 42.390625 31.78125 42.390625 
Q 38.140625 42.390625 41.71875 45.5625 
Q 45.3125 48.734375 45.3125 54.390625 
Q 45.3125 60.0625 41.71875 63.234375 
Q 38.140625 66.40625 31.78125 66.40625 
Q 25.390625 66.40625 21.84375 63.234375 
Q 18.3125 60.0625 18.3125 54.390625 
z
" id="DejaVuSans-56"/>
       </defs>
       <use xlink:href="#DejaVuSans-52"/>
       <use x="63.623047" xlink:href="#DejaVuSans-56"/>
       <use x="127.246094" xlink:href="#DejaVuSans-48"/>
      </g>
     </g>
    </g>
    <g id="ytick_8">
     <g id="line2d_27">
      <path clip-path="url(#p7244748794)" d="M 50.87 93.367073 
L 853.2 93.367073 
" style="fill:none;stroke:#b0b0b0;stroke-linecap:square;stroke-width:0.8;"/>
     </g>
     <g id="line2d_28">
      <g>
       <use style="stroke:#000000;stroke-width:0.8;" x="50.87" xlink:href="#ma9908bb5e2" y="93.367073"/>
      </g>
     </g>
     <g id="text_15">
      <!-- 490 -->
      <g transform="translate(24.7825 97.166292)scale(0.1 -0.1)">
       <use xlink:href="#DejaVuSans-52"/>
       <use x="63.623047" xlink:href="#DejaVuSans-57"/>
       <use x="127.246094" xlink:href="#DejaVuSans-48"/>
      </g>
     </g>
    </g>
    <g id="ytick_9">
     <g id="line2d_29">
      <path clip-path="url(#p7244748794)" d="M 50.87 51.745248 
L 853.2 51.745248 
" style="fill:none;stroke:#b0b0b0;stroke-linecap:square;stroke-width:0.8;"/>
     </g>
     <g id="line2d_30">
      <g>
       <use style="stroke:#000000;stroke-width:0.8;" x="50.87" xlink:href="#ma9908bb5e2" y="51.745248"/>
      </g>
     </g>
     <g id="text_16">
      <!-- 500 -->
      <g transform="translate(24.7825 55.544466)scale(0.1 -0.1)">
       <use xlink:href="#DejaVuSans-53"/>
       <use x="63.623047" xlink:href="#DejaVuSans-48"/>
       <use x="127.246094" xlink:href="#DejaVuSans-48"/>
      </g>
     </g>
    </g>
    <g id="text_17">
     <!-- durchschnittliche Produktpreise (€) -->
     <g transform="translate(18.702813 296.810469)rotate(-90)scale(0.1 -0.1)">
      <defs>
       <path d="M 45.40625 46.390625 
L 45.40625 75.984375 
L 54.390625 75.984375 
L 54.390625 0 
L 45.40625 0 
L 45.40625 8.203125 
Q 42.578125 3.328125 38.25 0.953125 
Q 33.9375 -1.421875 27.875 -1.421875 
Q 17.96875 -1.421875 11.734375 6.484375 
Q 5.515625 14.40625 5.515625 27.296875 
Q 5.515625 40.1875 11.734375 48.09375 
Q 17.96875 56 27.875 56 
Q 33.9375 56 38.25 53.625 
Q 42.578125 51.265625 45.40625 46.390625 
z
M 14.796875 27.296875 
Q 14.796875 17.390625 18.875 11.75 
Q 22.953125 6.109375 30.078125 6.109375 
Q 37.203125 6.109375 41.296875 11.75 
Q 45.40625 17.390625 45.40625 27.296875 
Q 45.40625 37.203125 41.296875 42.84375 
Q 37.203125 48.484375 30.078125 48.484375 
Q 22.953125 48.484375 18.875 42.84375 
Q 14.796875 37.203125 14.796875 27.296875 
z
" id="DejaVuSans-100"/>
       <path d="M 41.109375 46.296875 
Q 39.59375 47.171875 37.8125 47.578125 
Q 36.03125 48 33.890625 48 
Q 26.265625 48 22.1875 43.046875 
Q 18.109375 38.09375 18.109375 28.8125 
L 18.109375 0 
L 9.078125 0 
L 9.078125 54.6875 
L 18.109375 54.6875 
L 18.109375 46.1875 
Q 20.953125 51.171875 25.484375 53.578125 
Q 30.03125 56 36.53125 56 
Q 37.453125 56 38.578125 55.875 
Q 39.703125 55.765625 41.0625 55.515625 
z
" id="DejaVuSans-114"/>
       <path d="M 48.78125 52.59375 
L 48.78125 44.1875 
Q 44.96875 46.296875 41.140625 47.34375 
Q 37.3125 48.390625 33.40625 48.390625 
Q 24.65625 48.390625 19.8125 42.84375 
Q 14.984375 37.3125 14.984375 27.296875 
Q 14.984375 17.28125 19.8125 11.734375 
Q 24.65625 6.203125 33.40625 6.203125 
Q 37.3125 6.203125 41.140625 7.25 
Q 44.96875 8.296875 48.78125 10.40625 
L 48.78125 2.09375 
Q 45.015625 0.34375 40.984375 -0.53125 
Q 36.96875 -1.421875 32.421875 -1.421875 
Q 20.0625 -1.421875 12.78125 6.34375 
Q 5.515625 14.109375 5.515625 27.296875 
Q 5.515625 40.671875 12.859375 48.328125 
Q 20.21875 56 33.015625 56 
Q 37.15625 56 41.109375 55.140625 
Q 45.0625 54.296875 48.78125 52.59375 
z
" id="DejaVuSans-99"/>
       <path d="M 54.890625 33.015625 
L 54.890625 0 
L 45.90625 0 
L 45.90625 32.71875 
Q 45.90625 40.484375 42.875 44.328125 
Q 39.84375 48.1875 33.796875 48.1875 
Q 26.515625 48.1875 22.3125 43.546875 
Q 18.109375 38.921875 18.109375 30.90625 
L 18.109375 0 
L 9.078125 0 
L 9.078125 75.984375 
L 18.109375 75.984375 
L 18.109375 46.1875 
Q 21.34375 51.125 25.703125 53.5625 
Q 30.078125 56 35.796875 56 
Q 45.21875 56 50.046875 50.171875 
Q 54.890625 44.34375 54.890625 33.015625 
z
" id="DejaVuSans-104"/>
       <path d="M 44.28125 53.078125 
L 44.28125 44.578125 
Q 40.484375 46.53125 36.375 47.5 
Q 32.28125 48.484375 27.875 48.484375 
Q 21.1875 48.484375 17.84375 46.4375 
Q 14.5 44.390625 14.5 40.28125 
Q 14.5 37.15625 16.890625 35.375 
Q 19.28125 33.59375 26.515625 31.984375 
L 29.59375 31.296875 
Q 39.15625 29.25 43.1875 25.515625 
Q 47.21875 21.78125 47.21875 15.09375 
Q 47.21875 7.46875 41.1875 3.015625 
Q 35.15625 -1.421875 24.609375 -1.421875 
Q 20.21875 -1.421875 15.453125 -0.5625 
Q 10.6875 0.296875 5.421875 2 
L 5.421875 11.28125 
Q 10.40625 8.6875 15.234375 7.390625 
Q 20.0625 6.109375 24.8125 6.109375 
Q 31.15625 6.109375 34.5625 8.28125 
Q 37.984375 10.453125 37.984375 14.40625 
Q 37.984375 18.0625 35.515625 20.015625 
Q 33.0625 21.96875 24.703125 23.78125 
L 21.578125 24.515625 
Q 13.234375 26.265625 9.515625 29.90625 
Q 5.8125 33.546875 5.8125 39.890625 
Q 5.8125 47.609375 11.28125 51.796875 
Q 16.75 56 26.8125 56 
Q 31.78125 56 36.171875 55.265625 
Q 40.578125 54.546875 44.28125 53.078125 
z
" id="DejaVuSans-115"/>
       <path d="M 54.890625 33.015625 
L 54.890625 0 
L 45.90625 0 
L 45.90625 32.71875 
Q 45.90625 40.484375 42.875 44.328125 
Q 39.84375 48.1875 33.796875 48.1875 
Q 26.515625 48.1875 22.3125 43.546875 
Q 18.109375 38.921875 18.109375 30.90625 
L 18.109375 0 
L 9.078125 0 
L 9.078125 54.6875 
L 18.109375 54.6875 
L 18.109375 46.1875 
Q 21.34375 51.125 25.703125 53.5625 
Q 30.078125 56 35.796875 56 
Q 45.21875 56 50.046875 50.171875 
Q 54.890625 44.34375 54.890625 33.015625 
z
" id="DejaVuSans-110"/>
       <path d="M 9.421875 54.6875 
L 18.40625 54.6875 
L 18.40625 0 
L 9.421875 0 
z
M 9.421875 75.984375 
L 18.40625 75.984375 
L 18.40625 64.59375 
L 9.421875 64.59375 
z
" id="DejaVuSans-105"/>
       <path d="M 9.421875 75.984375 
L 18.40625 75.984375 
L 18.40625 0 
L 9.421875 0 
z
" id="DejaVuSans-108"/>
       <path d="M 56.203125 29.59375 
L 56.203125 25.203125 
L 14.890625 25.203125 
Q 15.484375 15.921875 20.484375 11.0625 
Q 25.484375 6.203125 34.421875 6.203125 
Q 39.59375 6.203125 44.453125 7.46875 
Q 49.3125 8.734375 54.109375 11.28125 
L 54.109375 2.78125 
Q 49.265625 0.734375 44.1875 -0.34375 
Q 39.109375 -1.421875 33.890625 -1.421875 
Q 20.796875 -1.421875 13.15625 6.1875 
Q 5.515625 13.8125 5.515625 26.8125 
Q 5.515625 40.234375 12.765625 48.109375 
Q 20.015625 56 32.328125 56 
Q 43.359375 56 49.78125 48.890625 
Q 56.203125 41.796875 56.203125 29.59375 
z
M 47.21875 32.234375 
Q 47.125 39.59375 43.09375 43.984375 
Q 39.0625 48.390625 32.421875 48.390625 
Q 24.90625 48.390625 20.390625 44.140625 
Q 15.875 39.890625 15.1875 32.171875 
z
" id="DejaVuSans-101"/>
       <path id="DejaVuSans-32"/>
       <path d="M 19.671875 64.796875 
L 19.671875 37.40625 
L 32.078125 37.40625 
Q 38.96875 37.40625 42.71875 40.96875 
Q 46.484375 44.53125 46.484375 51.125 
Q 46.484375 57.671875 42.71875 61.234375 
Q 38.96875 64.796875 32.078125 64.796875 
z
M 9.8125 72.90625 
L 32.078125 72.90625 
Q 44.34375 72.90625 50.609375 67.359375 
Q 56.890625 61.8125 56.890625 51.125 
Q 56.890625 40.328125 50.609375 34.8125 
Q 44.34375 29.296875 32.078125 29.296875 
L 19.671875 29.296875 
L 19.671875 0 
L 9.8125 0 
z
" id="DejaVuSans-80"/>
       <path d="M 30.609375 48.390625 
Q 23.390625 48.390625 19.1875 42.75 
Q 14.984375 37.109375 14.984375 27.296875 
Q 14.984375 17.484375 19.15625 11.84375 
Q 23.34375 6.203125 30.609375 6.203125 
Q 37.796875 6.203125 41.984375 11.859375 
Q 46.1875 17.53125 46.1875 27.296875 
Q 46.1875 37.015625 41.984375 42.703125 
Q 37.796875 48.390625 30.609375 48.390625 
z
M 30.609375 56 
Q 42.328125 56 49.015625 48.375 
Q 55.71875 40.765625 55.71875 27.296875 
Q 55.71875 13.875 49.015625 6.21875 
Q 42.328125 -1.421875 30.609375 -1.421875 
Q 18.84375 -1.421875 12.171875 6.21875 
Q 5.515625 13.875 5.515625 27.296875 
Q 5.515625 40.765625 12.171875 48.375 
Q 18.84375 56 30.609375 56 
z
" id="DejaVuSans-111"/>
       <path d="M 9.078125 75.984375 
L 18.109375 75.984375 
L 18.109375 31.109375 
L 44.921875 54.6875 
L 56.390625 54.6875 
L 27.390625 29.109375 
L 57.625 0 
L 45.90625 0 
L 18.109375 26.703125 
L 18.109375 0 
L 9.078125 0 
z
" id="DejaVuSans-107"/>
       <path d="M 18.109375 8.203125 
L 18.109375 -20.796875 
L 9.078125 -20.796875 
L 9.078125 54.6875 
L 18.109375 54.6875 
L 18.109375 46.390625 
Q 20.953125 51.265625 25.265625 53.625 
Q 29.59375 56 35.59375 56 
Q 45.5625 56 51.78125 48.09375 
Q 58.015625 40.1875 58.015625 27.296875 
Q 58.015625 14.40625 51.78125 6.484375 
Q 45.5625 -1.421875 35.59375 -1.421875 
Q 29.59375 -1.421875 25.265625 0.953125 
Q 20.953125 3.328125 18.109375 8.203125 
z
M 48.6875 27.296875 
Q 48.6875 37.203125 44.609375 42.84375 
Q 40.53125 48.484375 33.40625 48.484375 
Q 26.265625 48.484375 22.1875 42.84375 
Q 18.109375 37.203125 18.109375 27.296875 
Q 18.109375 17.390625 22.1875 11.75 
Q 26.265625 6.109375 33.40625 6.109375 
Q 40.53125 6.109375 44.609375 11.75 
Q 48.6875 17.390625 48.6875 27.296875 
z
" id="DejaVuSans-112"/>
       <path d="M 31 75.875 
Q 24.46875 64.65625 21.28125 53.65625 
Q 18.109375 42.671875 18.109375 31.390625 
Q 18.109375 20.125 21.3125 9.0625 
Q 24.515625 -2 31 -13.1875 
L 23.1875 -13.1875 
Q 15.875 -1.703125 12.234375 9.375 
Q 8.59375 20.453125 8.59375 31.390625 
Q 8.59375 42.28125 12.203125 53.3125 
Q 15.828125 64.359375 23.1875 75.875 
z
" id="DejaVuSans-40"/>
       <path d="M 56.984375 67.28125 
L 56.984375 56.890625 
Q 52.546875 62.015625 48.40625 64.203125 
Q 44.28125 66.40625 39.3125 66.40625 
Q 31.640625 66.40625 26.703125 61.515625 
Q 21.78125 56.640625 20.21875 47.515625 
L 48.390625 47.515625 
L 45.703125 41.5 
L 19.4375 41.5 
Q 19.34375 40.328125 19.3125 39.203125 
Q 19.28125 38.09375 19.28125 36.375 
Q 19.28125 34.8125 19.3125 33.6875 
Q 19.34375 32.5625 19.4375 31.390625 
L 41.21875 31.390625 
L 38.484375 25.390625 
L 20.21875 25.390625 
Q 21.78125 16.265625 26.703125 11.328125 
Q 31.640625 6.390625 39.3125 6.390625 
Q 44.28125 6.390625 48.40625 8.59375 
Q 52.546875 10.796875 56.984375 15.921875 
L 56.984375 5.609375 
Q 52.640625 2.09375 48.125 0.328125 
Q 43.609375 -1.421875 38.921875 -1.421875 
Q 27.34375 -1.421875 19.796875 5.65625 
Q 12.25 12.75 10.296875 25.390625 
L 0 25.390625 
L 2.6875 31.390625 
L 9.46875 31.390625 
Q 9.46875 32.515625 9.4375 33.65625 
Q 9.421875 34.8125 9.421875 36.375 
Q 9.421875 38.09375 9.4375 39.234375 
Q 9.46875 40.375 9.46875 41.5 
L 0 41.5 
L 2.6875 47.515625 
L 10.296875 47.515625 
Q 12.25 60.0625 19.8125 67.140625 
Q 27.390625 74.21875 38.921875 74.21875 
Q 43.703125 74.21875 48.21875 72.484375 
Q 52.734375 70.75 56.984375 67.28125 
z
" id="DejaVuSans-8364"/>
       <path d="M 8.015625 75.875 
L 15.828125 75.875 
Q 23.140625 64.359375 26.78125 53.3125 
Q 30.421875 42.28125 30.421875 31.390625 
Q 30.421875 20.453125 26.78125 9.375 
Q 23.140625 -1.703125 15.828125 -13.1875 
L 8.015625 -13.1875 
Q 14.5 -2 17.703125 9.0625 
Q 20.90625 20.125 20.90625 31.390625 
Q 20.90625 42.671875 17.703125 53.65625 
Q 14.5 64.65625 8.015625 75.875 
z
" id="DejaVuSans-41"/>
      </defs>
      <use xlink:href="#DejaVuSans-100"/>
      <use x="63.476562" xlink:href="#DejaVuSans-117"/>
      <use x="126.855469" xlink:href="#DejaVuSans-114"/>
      <use x="165.71875" xlink:href="#DejaVuSans-99"/>
      <use x="220.699219" xlink:href="#DejaVuSans-104"/>
      <use x="284.078125" xlink:href="#DejaVuSans-115"/>
      <use x="336.177734" xlink:href="#DejaVuSans-99"/>
      <use x="391.158203" xlink:href="#DejaVuSans-104"/>
      <use x="454.537109" xlink:href="#DejaVuSans-110"/>
      <use x="517.916016" xlink:href="#DejaVuSans-105"/>
      <use x="545.699219" xlink:href="#DejaVuSans-116"/>
      <use x="584.908203" xlink:href="#DejaVuSans-116"/>
      <use x="624.117188" xlink:href="#DejaVuSans-108"/>
      <use x="651.900391" xlink:href="#DejaVuSans-105"/>
      <use x="679.683594" xlink:href="#DejaVuSans-99"/>
      <use x="734.664062" xlink:href="#DejaVuSans-104"/>
      <use x="798.042969" xlink:href="#DejaVuSans-101"/>
      <use x="859.566406" xlink:href="#DejaVuSans-32"/>
      <use x="891.353516" xlink:href="#DejaVuSans-80"/>
      <use x="949.90625" xlink:href="#DejaVuSans-114"/>
      <use x="988.769531" xlink:href="#DejaVuSans-111"/>
      <use x="1049.951172" xlink:href="#DejaVuSans-100"/>
      <use x="1113.427734" xlink:href="#DejaVuSans-117"/>
      <use x="1176.806641" xlink:href="#DejaVuSans-107"/>
      <use x="1234.716797" xlink:href="#DejaVuSans-116"/>
      <use x="1273.925781" xlink:href="#DejaVuSans-112"/>
      <use x="1337.402344" xlink:href="#DejaVuSans-114"/>
      <use x="1376.265625" xlink:href="#DejaVuSans-101"/>
      <use x="1437.789062" xlink:href="#DejaVuSans-105"/>
      <use x="1465.572266" xlink:href="#DejaVuSans-115"/>
      <use x="1517.671875" xlink:href="#DejaVuSans-101"/>
      <use x="1579.195312" xlink:href="#DejaVuSans-32"/>
      <use x="1610.982422" xlink:href="#DejaVuSans-40"/>
      <use x="1649.996094" xlink:href="#DejaVuSans-8364"/>
      <use x="1713.619141" xlink:href="#DejaVuSans-41"/>
     </g>
    </g>
   </g>
   <g id="line2d_31">
    <path clip-path="url(#p7244748794)" d="M 87.339545 46.934607 
L 89.360019 54.891653 
L 91.380492 68.61179 
L 93.400966 72.026312 
L 95.421439 63.274621 
L 97.441913 56.461154 
L 99.462386 57.094035 
L 101.482859 61.365635 
L 103.503333 62.327501 
L 105.523806 66.66699 
L 107.54428 61.196457 
L 109.564753 58.4666 
L 111.585227 44.761818 
L 113.6057 52.407633 
L 115.626174 48.012776 
L 117.646647 65.615942 
L 119.66712 85.810245 
L 121.687594 72.986042 
L 123.708067 68.411816 
L 125.728541 70.357794 
L 127.749014 65.598358 
L 129.769488 59.851889 
L 131.789961 55.434662 
L 133.810434 64.088206 
L 135.830908 95.723538 
L 137.851381 103.959208 
L 139.871855 92.350931 
L 141.892328 115.9759 
L 143.912802 124.482237 
L 145.933275 130.071825 
L 147.953748 126.613869 
L 149.974222 126.53397 
L 151.994695 151.255352 
L 154.015169 145.27333 
L 156.035642 170.957836 
L 158.056116 154.944706 
L 160.076589 170.978647 
L 164.117536 181.516525 
L 166.138009 176.946053 
L 168.158483 166.779178 
L 170.178956 177.823084 
L 172.19943 186.793083 
L 174.219903 193.544966 
L 176.240376 150.675437 
L 178.26085 164.080408 
L 180.281323 148.348789 
L 182.301797 139.563364 
L 184.32227 129.00194 
L 186.342744 124.605133 
L 188.363217 144.534132 
L 190.383691 124.812069 
L 192.404164 141.7231 
L 194.424637 136.575205 
L 196.445111 120.908446 
L 198.465584 145.643277 
L 200.486058 141.158294 
L 202.506531 239.267989 
L 204.527005 174.551138 
L 206.547478 160.645517 
L 208.567951 139.617361 
L 210.588425 139.790901 
L 212.608898 136.213621 
L 214.629372 115.887203 
L 218.670319 117.664719 
L 220.690792 118.480532 
L 222.711265 111.785617 
L 224.731739 100.234121 
L 226.752212 107.783058 
L 228.772686 114.19935 
L 230.793159 128.901872 
L 232.813633 121.175958 
L 234.834106 138.709956 
L 236.854579 97.470483 
L 238.875053 92.855158 
L 240.895526 128.573036 
L 242.916 105.363529 
L 244.936473 118.872645 
L 246.956947 118.862561 
L 248.97742 111.503757 
L 250.997893 91.617326 
L 253.018367 75.527502 
L 255.03884 96.603814 
L 257.059314 109.174425 
L 259.079787 122.559195 
L 261.100261 143.237646 
L 263.120734 135.561225 
L 265.141208 120.914473 
L 269.182154 123.763093 
L 271.202628 151.349985 
L 273.223101 168.544229 
L 275.243575 158.897723 
L 277.264048 161.24644 
L 279.284522 142.055963 
L 281.304995 132.945911 
L 283.325468 172.035917 
L 285.345942 160.138252 
L 287.366415 166.84982 
L 289.386889 163.2211 
L 291.407362 159.189548 
L 293.427836 152.945492 
L 295.448309 155.815933 
L 297.468782 183.520333 
L 299.489256 307.035729 
L 301.509729 269.739607 
L 303.530203 223.445967 
L 305.550676 232.279682 
L 307.57115 220.496403 
L 309.591623 214.61725 
L 311.612096 214.703674 
L 313.63257 221.944451 
L 315.653043 243.904257 
L 317.673517 233.518189 
L 319.69399 234.687231 
L 321.714464 234.576333 
L 323.734937 222.119209 
L 325.75541 237.523661 
L 327.775884 239.231366 
L 329.796357 234.546257 
L 331.816831 234.258253 
L 333.837304 238.733157 
L 335.857778 230.103875 
L 337.878251 226.498459 
L 339.898725 246.250868 
L 341.919198 242.016608 
L 343.939671 245.443463 
L 345.960145 230.068825 
L 347.980618 239.781929 
L 350.001092 246.461774 
L 352.021565 243.679987 
L 354.042039 259.594878 
L 356.062512 251.902876 
L 358.082985 256.828915 
L 360.103459 247.89015 
L 362.123932 252.928558 
L 364.144406 252.947057 
L 366.164879 254.247127 
L 368.185353 263.156102 
L 370.205826 259.937166 
L 372.226299 273.411212 
L 374.246773 279.726847 
L 376.267246 293.153015 
L 378.28772 300.244466 
L 380.308193 296.920873 
L 382.328667 308.019098 
L 384.34914 303.99158 
L 386.369613 305.404834 
L 388.390087 306.599274 
L 390.41056 312.872149 
L 392.431034 308.669242 
L 394.451507 305.641882 
L 396.471981 306.4318 
L 398.492454 308.123494 
L 400.512927 318.379396 
L 402.533401 331.097483 
L 404.553874 322.360197 
L 406.574348 314.692423 
L 408.594821 314.061589 
L 410.615295 321.846118 
L 412.635768 312.833227 
L 414.656242 319.168106 
L 416.676715 324.761466 
L 418.697188 338.584769 
L 420.717662 327.504357 
L 422.738135 329.200534 
L 424.758609 340.999571 
L 426.779082 309.95553 
L 428.799556 302.260996 
L 430.820029 316.037304 
L 432.840502 317.27177 
L 434.860976 308.35352 
L 436.881449 306.324026 
L 438.901923 316.721312 
L 440.922396 309.366633 
L 442.94287 243.357644 
L 444.963343 248.793083 
L 446.983816 256.889781 
L 449.00429 244.415436 
L 451.024763 238.082149 
L 453.045237 294.643452 
L 455.06571 282.93234 
L 457.086184 250.892227 
L 459.106657 268.591281 
L 461.12713 274.84966 
L 463.147604 266.706796 
L 465.168077 256.623471 
L 467.188551 272.533601 
L 471.229498 277.384254 
L 473.249971 273.250931 
L 475.270444 287.860109 
L 477.290918 265.781524 
L 479.311391 268.680621 
L 481.331865 280.93412 
L 483.352338 282.503655 
L 485.372812 305.343458 
L 487.393285 295.929554 
L 489.413758 307.230128 
L 491.434232 296.139984 
L 493.454705 290.629072 
L 495.475179 310.126991 
L 497.495652 307.078631 
L 499.516126 275.302752 
L 501.536599 283.013378 
L 503.557073 301.464447 
L 505.577546 310.974752 
L 507.598019 297.221436 
L 509.618493 300.064038 
L 511.638966 289.958606 
L 513.65944 293.621086 
L 515.679913 301.809497 
L 517.700387 304.815374 
L 519.72086 303.424358 
L 521.741333 295.478584 
L 523.761807 303.053996 
L 525.78228 298.916935 
L 527.802754 307.197375 
L 529.823227 330.813586 
L 531.843701 333.505142 
L 533.864174 326.290377 
L 535.884647 311.942513 
L 537.905121 326.280134 
L 539.925594 319.164061 
L 541.946068 296.164263 
L 543.966541 373.598182 
L 545.987015 309.275555 
L 548.007488 278.882145 
L 550.027961 273.276846 
L 552.048435 282.163901 
L 556.089382 304.069106 
L 558.109855 294.175806 
L 560.130329 306.033863 
L 562.150802 303.773305 
L 564.171275 299.977235 
L 566.191749 310.341793 
L 568.212222 297.528399 
L 570.232696 317.140735 
L 572.253169 309.515655 
L 574.273643 299.882821 
L 576.294116 291.101112 
L 578.31459 297.54216 
L 580.335063 315.077453 
L 582.355536 330.326422 
L 584.37601 128.289535 
L 586.396483 131.281863 
L 588.416957 142.903844 
L 590.43743 137.554445 
L 592.457904 129.606023 
L 594.478377 142.395727 
L 596.49885 151.334814 
L 598.519324 162.617671 
L 600.539797 148.243952 
L 602.560271 166.133699 
L 604.580744 148.266198 
L 606.601218 145.508688 
L 608.621691 155.392843 
L 610.642164 160.354899 
L 612.662638 164.408751 
L 614.683111 193.928946 
L 616.703585 199.4909 
L 618.724058 189.549609 
L 620.744532 203.856827 
L 622.765005 203.063476 
L 624.785478 204.248058 
L 626.805952 210.107114 
L 628.826425 202.92745 
L 630.846899 205.715675 
L 632.867372 197.643412 
L 634.887846 198.779432 
L 636.908319 202.543805 
L 638.928792 200.304963 
L 640.949266 311.97345 
L 642.969739 220.751916 
L 644.990213 225.087378 
L 647.010686 219.720717 
L 649.03116 213.616141 
L 651.051633 217.524231 
L 653.072107 218.297537 
L 655.09258 230.674547 
L 657.113053 222.507884 
L 659.133527 233.918246 
L 661.154 228.143903 
L 663.174474 230.699969 
L 665.194947 311.996273 
L 667.215421 243.904457 
L 669.235894 242.977905 
L 671.256367 259.370133 
L 673.276841 306.499621 
L 675.297314 243.706839 
L 677.317788 234.907317 
L 679.338261 242.464863 
L 681.358735 225.231377 
L 683.379208 214.531727 
L 685.399681 227.611109 
L 687.420155 227.036334 
L 691.461102 204.843971 
L 693.481575 208.061762 
L 695.502049 218.046909 
L 697.522522 232.894544 
L 699.542995 223.513918 
L 701.563469 237.151082 
L 703.583942 224.240458 
L 705.604416 208.733074 
L 707.624889 218.143904 
L 709.645363 215.857773 
L 711.665836 223.304888 
L 713.686309 224.852569 
L 715.706783 236.976 
L 717.727256 228.731134 
L 719.74773 224.507623 
L 721.768203 238.903434 
L 723.788677 242.021326 
L 725.80915 247.529649 
L 727.829624 250.088716 
L 731.87057 246.226236 
L 733.891044 244.037161 
L 735.911517 252.864426 
L 737.931991 259.653756 
L 739.952464 262.417678 
L 741.972938 247.774899 
L 743.993411 241.6304 
L 746.013884 227.959595 
L 748.034358 219.592073 
L 750.054831 239.513777 
L 752.075305 239.650995 
L 754.095778 247.600581 
L 756.116252 246.369634 
L 758.136725 260.973418 
L 760.157198 251.163568 
L 762.177672 243.626184 
L 764.198145 257.90533 
L 766.218619 256.435179 
L 768.239092 253.650472 
L 770.259566 184.447054 
L 772.280039 203.700553 
L 774.300512 183.788802 
L 776.320986 180.710089 
L 778.341459 205.871634 
L 780.361933 202.572794 
L 782.382406 214.044361 
L 784.40288 210.803847 
L 786.423353 229.56032 
L 788.443826 206.208304 
L 790.4643 197.925326 
L 792.484773 219.585406 
L 794.505247 226.077413 
L 796.52572 223.119563 
L 798.546194 238.246033 
L 800.566667 246.214593 
L 802.587141 231.402375 
L 804.607614 218.00401 
L 806.628087 250.427061 
L 808.648561 238.805323 
L 810.669034 233.194836 
L 812.689508 229.817096 
L 814.709981 244.299855 
L 816.730455 235.55325 
L 816.730455 235.55325 
" style="fill:none;stroke:#1f77b4;stroke-linecap:square;stroke-width:1.5;"/>
    <defs>
     <path d="M -3 3 
L 3 -3 
M -3 -3 
L 3 3 
" id="mfcb2f569ef" style="stroke:#1f77b4;"/>
    </defs>
    <g clip-path="url(#p7244748794)">
     <use style="fill:#1f77b4;stroke:#1f77b4;" x="87.339545" xlink:href="#mfcb2f569ef" y="46.934607"/>
     <use style="fill:#1f77b4;stroke:#1f77b4;" x="89.360019" xlink:href="#mfcb2f569ef" y="54.891653"/>
     <use style="fill:#1f77b4;stroke:#1f77b4;" x="91.380492" xlink:href="#mfcb2f569ef" y="68.61179"/>
     <use style="fill:#1f77b4;stroke:#1f77b4;" x="93.400966" xlink:href="#mfcb2f569ef" y="72.026312"/>
     <use style="fill:#1f77b4;stroke:#1f77b4;" x="95.421439" xlink:href="#mfcb2f569ef" y="63.274621"/>
     <use style="fill:#1f77b4;stroke:#1f77b4;" x="97.441913" xlink:href="#mfcb2f569ef" y="56.461154"/>
     <use style="fill:#1f77b4;stroke:#1f77b4;" x="99.462386" xlink:href="#mfcb2f569ef" y="57.094035"/>
     <use style="fill:#1f77b4;stroke:#1f77b4;" x="101.482859" xlink:href="#mfcb2f569ef" y="61.365635"/>
     <use style="fill:#1f77b4;stroke:#1f77b4;" x="103.503333" xlink:href="#mfcb2f569ef" y="62.327501"/>
     <use style="fill:#1f77b4;stroke:#1f77b4;" x="105.523806" xlink:href="#mfcb2f569ef" y="66.66699"/>
     <use style="fill:#1f77b4;stroke:#1f77b4;" x="107.54428" xlink:href="#mfcb2f569ef" y="61.196457"/>
     <use style="fill:#1f77b4;stroke:#1f77b4;" x="109.564753" xlink:href="#mfcb2f569ef" y="58.4666"/>
     <use style="fill:#1f77b4;stroke:#1f77b4;" x="111.585227" xlink:href="#mfcb2f569ef" y="44.761818"/>
     <use style="fill:#1f77b4;stroke:#1f77b4;" x="113.6057" xlink:href="#mfcb2f569ef" y="52.407633"/>
     <use style="fill:#1f77b4;stroke:#1f77b4;" x="115.626174" xlink:href="#mfcb2f569ef" y="48.012776"/>
     <use style="fill:#1f77b4;stroke:#1f77b4;" x="117.646647" xlink:href="#mfcb2f569ef" y="65.615942"/>
     <use style="fill:#1f77b4;stroke:#1f77b4;" x="119.66712" xlink:href="#mfcb2f569ef" y="85.810245"/>
     <use style="fill:#1f77b4;stroke:#1f77b4;" x="121.687594" xlink:href="#mfcb2f569ef" y="72.986042"/>
     <use style="fill:#1f77b4;stroke:#1f77b4;" x="123.708067" xlink:href="#mfcb2f569ef" y="68.411816"/>
     <use style="fill:#1f77b4;stroke:#1f77b4;" x="125.728541" xlink:href="#mfcb2f569ef" y="70.357794"/>
     <use style="fill:#1f77b4;stroke:#1f77b4;" x="127.749014" xlink:href="#mfcb2f569ef" y="65.598358"/>
     <use style="fill:#1f77b4;stroke:#1f77b4;" x="129.769488" xlink:href="#mfcb2f569ef" y="59.851889"/>
     <use style="fill:#1f77b4;stroke:#1f77b4;" x="131.789961" xlink:href="#mfcb2f569ef" y="55.434662"/>
     <use style="fill:#1f77b4;stroke:#1f77b4;" x="133.810434" xlink:href="#mfcb2f569ef" y="64.088206"/>
     <use style="fill:#1f77b4;stroke:#1f77b4;" x="135.830908" xlink:href="#mfcb2f569ef" y="95.723538"/>
     <use style="fill:#1f77b4;stroke:#1f77b4;" x="137.851381" xlink:href="#mfcb2f569ef" y="103.959208"/>
     <use style="fill:#1f77b4;stroke:#1f77b4;" x="139.871855" xlink:href="#mfcb2f569ef" y="92.350931"/>
     <use style="fill:#1f77b4;stroke:#1f77b4;" x="141.892328" xlink:href="#mfcb2f569ef" y="115.9759"/>
     <use style="fill:#1f77b4;stroke:#1f77b4;" x="143.912802" xlink:href="#mfcb2f569ef" y="124.482237"/>
     <use style="fill:#1f77b4;stroke:#1f77b4;" x="145.933275" xlink:href="#mfcb2f569ef" y="130.071825"/>
     <use style="fill:#1f77b4;stroke:#1f77b4;" x="147.953748" xlink:href="#mfcb2f569ef" y="126.613869"/>
     <use style="fill:#1f77b4;stroke:#1f77b4;" x="149.974222" xlink:href="#mfcb2f569ef" y="126.53397"/>
     <use style="fill:#1f77b4;stroke:#1f77b4;" x="151.994695" xlink:href="#mfcb2f569ef" y="151.255352"/>
     <use style="fill:#1f77b4;stroke:#1f77b4;" x="154.015169" xlink:href="#mfcb2f569ef" y="145.27333"/>
     <use style="fill:#1f77b4;stroke:#1f77b4;" x="156.035642" xlink:href="#mfcb2f569ef" y="170.957836"/>
     <use style="fill:#1f77b4;stroke:#1f77b4;" x="158.056116" xlink:href="#mfcb2f569ef" y="154.944706"/>
     <use style="fill:#1f77b4;stroke:#1f77b4;" x="160.076589" xlink:href="#mfcb2f569ef" y="170.978647"/>
     <use style="fill:#1f77b4;stroke:#1f77b4;" x="162.097062" xlink:href="#mfcb2f569ef" y="176.366444"/>
     <use style="fill:#1f77b4;stroke:#1f77b4;" x="164.117536" xlink:href="#mfcb2f569ef" y="181.516525"/>
     <use style="fill:#1f77b4;stroke:#1f77b4;" x="166.138009" xlink:href="#mfcb2f569ef" y="176.946053"/>
     <use style="fill:#1f77b4;stroke:#1f77b4;" x="168.158483" xlink:href="#mfcb2f569ef" y="166.779178"/>
     <use style="fill:#1f77b4;stroke:#1f77b4;" x="170.178956" xlink:href="#mfcb2f569ef" y="177.823084"/>
     <use style="fill:#1f77b4;stroke:#1f77b4;" x="172.19943" xlink:href="#mfcb2f569ef" y="186.793083"/>
     <use style="fill:#1f77b4;stroke:#1f77b4;" x="174.219903" xlink:href="#mfcb2f569ef" y="193.544966"/>
     <use style="fill:#1f77b4;stroke:#1f77b4;" x="176.240376" xlink:href="#mfcb2f569ef" y="150.675437"/>
     <use style="fill:#1f77b4;stroke:#1f77b4;" x="178.26085" xlink:href="#mfcb2f569ef" y="164.080408"/>
     <use style="fill:#1f77b4;stroke:#1f77b4;" x="180.281323" xlink:href="#mfcb2f569ef" y="148.348789"/>
     <use style="fill:#1f77b4;stroke:#1f77b4;" x="182.301797" xlink:href="#mfcb2f569ef" y="139.563364"/>
     <use style="fill:#1f77b4;stroke:#1f77b4;" x="184.32227" xlink:href="#mfcb2f569ef" y="129.00194"/>
     <use style="fill:#1f77b4;stroke:#1f77b4;" x="186.342744" xlink:href="#mfcb2f569ef" y="124.605133"/>
     <use style="fill:#1f77b4;stroke:#1f77b4;" x="188.363217" xlink:href="#mfcb2f569ef" y="144.534132"/>
     <use style="fill:#1f77b4;stroke:#1f77b4;" x="190.383691" xlink:href="#mfcb2f569ef" y="124.812069"/>
     <use style="fill:#1f77b4;stroke:#1f77b4;" x="192.404164" xlink:href="#mfcb2f569ef" y="141.7231"/>
     <use style="fill:#1f77b4;stroke:#1f77b4;" x="194.424637" xlink:href="#mfcb2f569ef" y="136.575205"/>
     <use style="fill:#1f77b4;stroke:#1f77b4;" x="196.445111" xlink:href="#mfcb2f569ef" y="120.908446"/>
     <use style="fill:#1f77b4;stroke:#1f77b4;" x="198.465584" xlink:href="#mfcb2f569ef" y="145.643277"/>
     <use style="fill:#1f77b4;stroke:#1f77b4;" x="200.486058" xlink:href="#mfcb2f569ef" y="141.158294"/>
     <use style="fill:#1f77b4;stroke:#1f77b4;" x="202.506531" xlink:href="#mfcb2f569ef" y="239.267989"/>
     <use style="fill:#1f77b4;stroke:#1f77b4;" x="204.527005" xlink:href="#mfcb2f569ef" y="174.551138"/>
     <use style="fill:#1f77b4;stroke:#1f77b4;" x="206.547478" xlink:href="#mfcb2f569ef" y="160.645517"/>
     <use style="fill:#1f77b4;stroke:#1f77b4;" x="208.567951" xlink:href="#mfcb2f569ef" y="139.617361"/>
     <use style="fill:#1f77b4;stroke:#1f77b4;" x="210.588425" xlink:href="#mfcb2f569ef" y="139.790901"/>
     <use style="fill:#1f77b4;stroke:#1f77b4;" x="212.608898" xlink:href="#mfcb2f569ef" y="136.213621"/>
     <use style="fill:#1f77b4;stroke:#1f77b4;" x="214.629372" xlink:href="#mfcb2f569ef" y="115.887203"/>
     <use style="fill:#1f77b4;stroke:#1f77b4;" x="216.649845" xlink:href="#mfcb2f569ef" y="116.822555"/>
     <use style="fill:#1f77b4;stroke:#1f77b4;" x="218.670319" xlink:href="#mfcb2f569ef" y="117.664719"/>
     <use style="fill:#1f77b4;stroke:#1f77b4;" x="220.690792" xlink:href="#mfcb2f569ef" y="118.480532"/>
     <use style="fill:#1f77b4;stroke:#1f77b4;" x="222.711265" xlink:href="#mfcb2f569ef" y="111.785617"/>
     <use style="fill:#1f77b4;stroke:#1f77b4;" x="224.731739" xlink:href="#mfcb2f569ef" y="100.234121"/>
     <use style="fill:#1f77b4;stroke:#1f77b4;" x="226.752212" xlink:href="#mfcb2f569ef" y="107.783058"/>
     <use style="fill:#1f77b4;stroke:#1f77b4;" x="228.772686" xlink:href="#mfcb2f569ef" y="114.19935"/>
     <use style="fill:#1f77b4;stroke:#1f77b4;" x="230.793159" xlink:href="#mfcb2f569ef" y="128.901872"/>
     <use style="fill:#1f77b4;stroke:#1f77b4;" x="232.813633" xlink:href="#mfcb2f569ef" y="121.175958"/>
     <use style="fill:#1f77b4;stroke:#1f77b4;" x="234.834106" xlink:href="#mfcb2f569ef" y="138.709956"/>
     <use style="fill:#1f77b4;stroke:#1f77b4;" x="236.854579" xlink:href="#mfcb2f569ef" y="97.470483"/>
     <use style="fill:#1f77b4;stroke:#1f77b4;" x="238.875053" xlink:href="#mfcb2f569ef" y="92.855158"/>
     <use style="fill:#1f77b4;stroke:#1f77b4;" x="240.895526" xlink:href="#mfcb2f569ef" y="128.573036"/>
     <use style="fill:#1f77b4;stroke:#1f77b4;" x="242.916" xlink:href="#mfcb2f569ef" y="105.363529"/>
     <use style="fill:#1f77b4;stroke:#1f77b4;" x="244.936473" xlink:href="#mfcb2f569ef" y="118.872645"/>
     <use style="fill:#1f77b4;stroke:#1f77b4;" x="246.956947" xlink:href="#mfcb2f569ef" y="118.862561"/>
     <use style="fill:#1f77b4;stroke:#1f77b4;" x="248.97742" xlink:href="#mfcb2f569ef" y="111.503757"/>
     <use style="fill:#1f77b4;stroke:#1f77b4;" x="250.997893" xlink:href="#mfcb2f569ef" y="91.617326"/>
     <use style="fill:#1f77b4;stroke:#1f77b4;" x="253.018367" xlink:href="#mfcb2f569ef" y="75.527502"/>
     <use style="fill:#1f77b4;stroke:#1f77b4;" x="255.03884" xlink:href="#mfcb2f569ef" y="96.603814"/>
     <use style="fill:#1f77b4;stroke:#1f77b4;" x="257.059314" xlink:href="#mfcb2f569ef" y="109.174425"/>
     <use style="fill:#1f77b4;stroke:#1f77b4;" x="259.079787" xlink:href="#mfcb2f569ef" y="122.559195"/>
     <use style="fill:#1f77b4;stroke:#1f77b4;" x="261.100261" xlink:href="#mfcb2f569ef" y="143.237646"/>
     <use style="fill:#1f77b4;stroke:#1f77b4;" x="263.120734" xlink:href="#mfcb2f569ef" y="135.561225"/>
     <use style="fill:#1f77b4;stroke:#1f77b4;" x="265.141208" xlink:href="#mfcb2f569ef" y="120.914473"/>
     <use style="fill:#1f77b4;stroke:#1f77b4;" x="267.161681" xlink:href="#mfcb2f569ef" y="122.362129"/>
     <use style="fill:#1f77b4;stroke:#1f77b4;" x="269.182154" xlink:href="#mfcb2f569ef" y="123.763093"/>
     <use style="fill:#1f77b4;stroke:#1f77b4;" x="271.202628" xlink:href="#mfcb2f569ef" y="151.349985"/>
     <use style="fill:#1f77b4;stroke:#1f77b4;" x="273.223101" xlink:href="#mfcb2f569ef" y="168.544229"/>
     <use style="fill:#1f77b4;stroke:#1f77b4;" x="275.243575" xlink:href="#mfcb2f569ef" y="158.897723"/>
     <use style="fill:#1f77b4;stroke:#1f77b4;" x="277.264048" xlink:href="#mfcb2f569ef" y="161.24644"/>
     <use style="fill:#1f77b4;stroke:#1f77b4;" x="279.284522" xlink:href="#mfcb2f569ef" y="142.055963"/>
     <use style="fill:#1f77b4;stroke:#1f77b4;" x="281.304995" xlink:href="#mfcb2f569ef" y="132.945911"/>
     <use style="fill:#1f77b4;stroke:#1f77b4;" x="283.325468" xlink:href="#mfcb2f569ef" y="172.035917"/>
     <use style="fill:#1f77b4;stroke:#1f77b4;" x="285.345942" xlink:href="#mfcb2f569ef" y="160.138252"/>
     <use style="fill:#1f77b4;stroke:#1f77b4;" x="287.366415" xlink:href="#mfcb2f569ef" y="166.84982"/>
     <use style="fill:#1f77b4;stroke:#1f77b4;" x="289.386889" xlink:href="#mfcb2f569ef" y="163.2211"/>
     <use style="fill:#1f77b4;stroke:#1f77b4;" x="291.407362" xlink:href="#mfcb2f569ef" y="159.189548"/>
     <use style="fill:#1f77b4;stroke:#1f77b4;" x="293.427836" xlink:href="#mfcb2f569ef" y="152.945492"/>
     <use style="fill:#1f77b4;stroke:#1f77b4;" x="295.448309" xlink:href="#mfcb2f569ef" y="155.815933"/>
     <use style="fill:#1f77b4;stroke:#1f77b4;" x="297.468782" xlink:href="#mfcb2f569ef" y="183.520333"/>
     <use style="fill:#1f77b4;stroke:#1f77b4;" x="299.489256" xlink:href="#mfcb2f569ef" y="307.035729"/>
     <use style="fill:#1f77b4;stroke:#1f77b4;" x="301.509729" xlink:href="#mfcb2f569ef" y="269.739607"/>
     <use style="fill:#1f77b4;stroke:#1f77b4;" x="303.530203" xlink:href="#mfcb2f569ef" y="223.445967"/>
     <use style="fill:#1f77b4;stroke:#1f77b4;" x="305.550676" xlink:href="#mfcb2f569ef" y="232.279682"/>
     <use style="fill:#1f77b4;stroke:#1f77b4;" x="307.57115" xlink:href="#mfcb2f569ef" y="220.496403"/>
     <use style="fill:#1f77b4;stroke:#1f77b4;" x="309.591623" xlink:href="#mfcb2f569ef" y="214.61725"/>
     <use style="fill:#1f77b4;stroke:#1f77b4;" x="311.612096" xlink:href="#mfcb2f569ef" y="214.703674"/>
     <use style="fill:#1f77b4;stroke:#1f77b4;" x="313.63257" xlink:href="#mfcb2f569ef" y="221.944451"/>
     <use style="fill:#1f77b4;stroke:#1f77b4;" x="315.653043" xlink:href="#mfcb2f569ef" y="243.904257"/>
     <use style="fill:#1f77b4;stroke:#1f77b4;" x="317.673517" xlink:href="#mfcb2f569ef" y="233.518189"/>
     <use style="fill:#1f77b4;stroke:#1f77b4;" x="319.69399" xlink:href="#mfcb2f569ef" y="234.687231"/>
     <use style="fill:#1f77b4;stroke:#1f77b4;" x="321.714464" xlink:href="#mfcb2f569ef" y="234.576333"/>
     <use style="fill:#1f77b4;stroke:#1f77b4;" x="323.734937" xlink:href="#mfcb2f569ef" y="222.119209"/>
     <use style="fill:#1f77b4;stroke:#1f77b4;" x="325.75541" xlink:href="#mfcb2f569ef" y="237.523661"/>
     <use style="fill:#1f77b4;stroke:#1f77b4;" x="327.775884" xlink:href="#mfcb2f569ef" y="239.231366"/>
     <use style="fill:#1f77b4;stroke:#1f77b4;" x="329.796357" xlink:href="#mfcb2f569ef" y="234.546257"/>
     <use style="fill:#1f77b4;stroke:#1f77b4;" x="331.816831" xlink:href="#mfcb2f569ef" y="234.258253"/>
     <use style="fill:#1f77b4;stroke:#1f77b4;" x="333.837304" xlink:href="#mfcb2f569ef" y="238.733157"/>
     <use style="fill:#1f77b4;stroke:#1f77b4;" x="335.857778" xlink:href="#mfcb2f569ef" y="230.103875"/>
     <use style="fill:#1f77b4;stroke:#1f77b4;" x="337.878251" xlink:href="#mfcb2f569ef" y="226.498459"/>
     <use style="fill:#1f77b4;stroke:#1f77b4;" x="339.898725" xlink:href="#mfcb2f569ef" y="246.250868"/>
     <use style="fill:#1f77b4;stroke:#1f77b4;" x="341.919198" xlink:href="#mfcb2f569ef" y="242.016608"/>
     <use style="fill:#1f77b4;stroke:#1f77b4;" x="343.939671" xlink:href="#mfcb2f569ef" y="245.443463"/>
     <use style="fill:#1f77b4;stroke:#1f77b4;" x="345.960145" xlink:href="#mfcb2f569ef" y="230.068825"/>
     <use style="fill:#1f77b4;stroke:#1f77b4;" x="347.980618" xlink:href="#mfcb2f569ef" y="239.781929"/>
     <use style="fill:#1f77b4;stroke:#1f77b4;" x="350.001092" xlink:href="#mfcb2f569ef" y="246.461774"/>
     <use style="fill:#1f77b4;stroke:#1f77b4;" x="352.021565" xlink:href="#mfcb2f569ef" y="243.679987"/>
     <use style="fill:#1f77b4;stroke:#1f77b4;" x="354.042039" xlink:href="#mfcb2f569ef" y="259.594878"/>
     <use style="fill:#1f77b4;stroke:#1f77b4;" x="356.062512" xlink:href="#mfcb2f569ef" y="251.902876"/>
     <use style="fill:#1f77b4;stroke:#1f77b4;" x="358.082985" xlink:href="#mfcb2f569ef" y="256.828915"/>
     <use style="fill:#1f77b4;stroke:#1f77b4;" x="360.103459" xlink:href="#mfcb2f569ef" y="247.89015"/>
     <use style="fill:#1f77b4;stroke:#1f77b4;" x="362.123932" xlink:href="#mfcb2f569ef" y="252.928558"/>
     <use style="fill:#1f77b4;stroke:#1f77b4;" x="364.144406" xlink:href="#mfcb2f569ef" y="252.947057"/>
     <use style="fill:#1f77b4;stroke:#1f77b4;" x="366.164879" xlink:href="#mfcb2f569ef" y="254.247127"/>
     <use style="fill:#1f77b4;stroke:#1f77b4;" x="368.185353" xlink:href="#mfcb2f569ef" y="263.156102"/>
     <use style="fill:#1f77b4;stroke:#1f77b4;" x="370.205826" xlink:href="#mfcb2f569ef" y="259.937166"/>
     <use style="fill:#1f77b4;stroke:#1f77b4;" x="372.226299" xlink:href="#mfcb2f569ef" y="273.411212"/>
     <use style="fill:#1f77b4;stroke:#1f77b4;" x="374.246773" xlink:href="#mfcb2f569ef" y="279.726847"/>
     <use style="fill:#1f77b4;stroke:#1f77b4;" x="376.267246" xlink:href="#mfcb2f569ef" y="293.153015"/>
     <use style="fill:#1f77b4;stroke:#1f77b4;" x="378.28772" xlink:href="#mfcb2f569ef" y="300.244466"/>
     <use style="fill:#1f77b4;stroke:#1f77b4;" x="380.308193" xlink:href="#mfcb2f569ef" y="296.920873"/>
     <use style="fill:#1f77b4;stroke:#1f77b4;" x="382.328667" xlink:href="#mfcb2f569ef" y="308.019098"/>
     <use style="fill:#1f77b4;stroke:#1f77b4;" x="384.34914" xlink:href="#mfcb2f569ef" y="303.99158"/>
     <use style="fill:#1f77b4;stroke:#1f77b4;" x="386.369613" xlink:href="#mfcb2f569ef" y="305.404834"/>
     <use style="fill:#1f77b4;stroke:#1f77b4;" x="388.390087" xlink:href="#mfcb2f569ef" y="306.599274"/>
     <use style="fill:#1f77b4;stroke:#1f77b4;" x="390.41056" xlink:href="#mfcb2f569ef" y="312.872149"/>
     <use style="fill:#1f77b4;stroke:#1f77b4;" x="392.431034" xlink:href="#mfcb2f569ef" y="308.669242"/>
     <use style="fill:#1f77b4;stroke:#1f77b4;" x="394.451507" xlink:href="#mfcb2f569ef" y="305.641882"/>
     <use style="fill:#1f77b4;stroke:#1f77b4;" x="396.471981" xlink:href="#mfcb2f569ef" y="306.4318"/>
     <use style="fill:#1f77b4;stroke:#1f77b4;" x="398.492454" xlink:href="#mfcb2f569ef" y="308.123494"/>
     <use style="fill:#1f77b4;stroke:#1f77b4;" x="400.512927" xlink:href="#mfcb2f569ef" y="318.379396"/>
     <use style="fill:#1f77b4;stroke:#1f77b4;" x="402.533401" xlink:href="#mfcb2f569ef" y="331.097483"/>
     <use style="fill:#1f77b4;stroke:#1f77b4;" x="404.553874" xlink:href="#mfcb2f569ef" y="322.360197"/>
     <use style="fill:#1f77b4;stroke:#1f77b4;" x="406.574348" xlink:href="#mfcb2f569ef" y="314.692423"/>
     <use style="fill:#1f77b4;stroke:#1f77b4;" x="408.594821" xlink:href="#mfcb2f569ef" y="314.061589"/>
     <use style="fill:#1f77b4;stroke:#1f77b4;" x="410.615295" xlink:href="#mfcb2f569ef" y="321.846118"/>
     <use style="fill:#1f77b4;stroke:#1f77b4;" x="412.635768" xlink:href="#mfcb2f569ef" y="312.833227"/>
     <use style="fill:#1f77b4;stroke:#1f77b4;" x="414.656242" xlink:href="#mfcb2f569ef" y="319.168106"/>
     <use style="fill:#1f77b4;stroke:#1f77b4;" x="416.676715" xlink:href="#mfcb2f569ef" y="324.761466"/>
     <use style="fill:#1f77b4;stroke:#1f77b4;" x="418.697188" xlink:href="#mfcb2f569ef" y="338.584769"/>
     <use style="fill:#1f77b4;stroke:#1f77b4;" x="420.717662" xlink:href="#mfcb2f569ef" y="327.504357"/>
     <use style="fill:#1f77b4;stroke:#1f77b4;" x="422.738135" xlink:href="#mfcb2f569ef" y="329.200534"/>
     <use style="fill:#1f77b4;stroke:#1f77b4;" x="424.758609" xlink:href="#mfcb2f569ef" y="340.999571"/>
     <use style="fill:#1f77b4;stroke:#1f77b4;" x="426.779082" xlink:href="#mfcb2f569ef" y="309.95553"/>
     <use style="fill:#1f77b4;stroke:#1f77b4;" x="428.799556" xlink:href="#mfcb2f569ef" y="302.260996"/>
     <use style="fill:#1f77b4;stroke:#1f77b4;" x="430.820029" xlink:href="#mfcb2f569ef" y="316.037304"/>
     <use style="fill:#1f77b4;stroke:#1f77b4;" x="432.840502" xlink:href="#mfcb2f569ef" y="317.27177"/>
     <use style="fill:#1f77b4;stroke:#1f77b4;" x="434.860976" xlink:href="#mfcb2f569ef" y="308.35352"/>
     <use style="fill:#1f77b4;stroke:#1f77b4;" x="436.881449" xlink:href="#mfcb2f569ef" y="306.324026"/>
     <use style="fill:#1f77b4;stroke:#1f77b4;" x="438.901923" xlink:href="#mfcb2f569ef" y="316.721312"/>
     <use style="fill:#1f77b4;stroke:#1f77b4;" x="440.922396" xlink:href="#mfcb2f569ef" y="309.366633"/>
     <use style="fill:#1f77b4;stroke:#1f77b4;" x="442.94287" xlink:href="#mfcb2f569ef" y="243.357644"/>
     <use style="fill:#1f77b4;stroke:#1f77b4;" x="444.963343" xlink:href="#mfcb2f569ef" y="248.793083"/>
     <use style="fill:#1f77b4;stroke:#1f77b4;" x="446.983816" xlink:href="#mfcb2f569ef" y="256.889781"/>
     <use style="fill:#1f77b4;stroke:#1f77b4;" x="449.00429" xlink:href="#mfcb2f569ef" y="244.415436"/>
     <use style="fill:#1f77b4;stroke:#1f77b4;" x="451.024763" xlink:href="#mfcb2f569ef" y="238.082149"/>
     <use style="fill:#1f77b4;stroke:#1f77b4;" x="453.045237" xlink:href="#mfcb2f569ef" y="294.643452"/>
     <use style="fill:#1f77b4;stroke:#1f77b4;" x="455.06571" xlink:href="#mfcb2f569ef" y="282.93234"/>
     <use style="fill:#1f77b4;stroke:#1f77b4;" x="457.086184" xlink:href="#mfcb2f569ef" y="250.892227"/>
     <use style="fill:#1f77b4;stroke:#1f77b4;" x="459.106657" xlink:href="#mfcb2f569ef" y="268.591281"/>
     <use style="fill:#1f77b4;stroke:#1f77b4;" x="461.12713" xlink:href="#mfcb2f569ef" y="274.84966"/>
     <use style="fill:#1f77b4;stroke:#1f77b4;" x="463.147604" xlink:href="#mfcb2f569ef" y="266.706796"/>
     <use style="fill:#1f77b4;stroke:#1f77b4;" x="465.168077" xlink:href="#mfcb2f569ef" y="256.623471"/>
     <use style="fill:#1f77b4;stroke:#1f77b4;" x="467.188551" xlink:href="#mfcb2f569ef" y="272.533601"/>
     <use style="fill:#1f77b4;stroke:#1f77b4;" x="469.209024" xlink:href="#mfcb2f569ef" y="274.908214"/>
     <use style="fill:#1f77b4;stroke:#1f77b4;" x="471.229498" xlink:href="#mfcb2f569ef" y="277.384254"/>
     <use style="fill:#1f77b4;stroke:#1f77b4;" x="473.249971" xlink:href="#mfcb2f569ef" y="273.250931"/>
     <use style="fill:#1f77b4;stroke:#1f77b4;" x="475.270444" xlink:href="#mfcb2f569ef" y="287.860109"/>
     <use style="fill:#1f77b4;stroke:#1f77b4;" x="477.290918" xlink:href="#mfcb2f569ef" y="265.781524"/>
     <use style="fill:#1f77b4;stroke:#1f77b4;" x="479.311391" xlink:href="#mfcb2f569ef" y="268.680621"/>
     <use style="fill:#1f77b4;stroke:#1f77b4;" x="481.331865" xlink:href="#mfcb2f569ef" y="280.93412"/>
     <use style="fill:#1f77b4;stroke:#1f77b4;" x="483.352338" xlink:href="#mfcb2f569ef" y="282.503655"/>
     <use style="fill:#1f77b4;stroke:#1f77b4;" x="485.372812" xlink:href="#mfcb2f569ef" y="305.343458"/>
     <use style="fill:#1f77b4;stroke:#1f77b4;" x="487.393285" xlink:href="#mfcb2f569ef" y="295.929554"/>
     <use style="fill:#1f77b4;stroke:#1f77b4;" x="489.413758" xlink:href="#mfcb2f569ef" y="307.230128"/>
     <use style="fill:#1f77b4;stroke:#1f77b4;" x="491.434232" xlink:href="#mfcb2f569ef" y="296.139984"/>
     <use style="fill:#1f77b4;stroke:#1f77b4;" x="493.454705" xlink:href="#mfcb2f569ef" y="290.629072"/>
     <use style="fill:#1f77b4;stroke:#1f77b4;" x="495.475179" xlink:href="#mfcb2f569ef" y="310.126991"/>
     <use style="fill:#1f77b4;stroke:#1f77b4;" x="497.495652" xlink:href="#mfcb2f569ef" y="307.078631"/>
     <use style="fill:#1f77b4;stroke:#1f77b4;" x="499.516126" xlink:href="#mfcb2f569ef" y="275.302752"/>
     <use style="fill:#1f77b4;stroke:#1f77b4;" x="501.536599" xlink:href="#mfcb2f569ef" y="283.013378"/>
     <use style="fill:#1f77b4;stroke:#1f77b4;" x="503.557073" xlink:href="#mfcb2f569ef" y="301.464447"/>
     <use style="fill:#1f77b4;stroke:#1f77b4;" x="505.577546" xlink:href="#mfcb2f569ef" y="310.974752"/>
     <use style="fill:#1f77b4;stroke:#1f77b4;" x="507.598019" xlink:href="#mfcb2f569ef" y="297.221436"/>
     <use style="fill:#1f77b4;stroke:#1f77b4;" x="509.618493" xlink:href="#mfcb2f569ef" y="300.064038"/>
     <use style="fill:#1f77b4;stroke:#1f77b4;" x="511.638966" xlink:href="#mfcb2f569ef" y="289.958606"/>
     <use style="fill:#1f77b4;stroke:#1f77b4;" x="513.65944" xlink:href="#mfcb2f569ef" y="293.621086"/>
     <use style="fill:#1f77b4;stroke:#1f77b4;" x="515.679913" xlink:href="#mfcb2f569ef" y="301.809497"/>
     <use style="fill:#1f77b4;stroke:#1f77b4;" x="517.700387" xlink:href="#mfcb2f569ef" y="304.815374"/>
     <use style="fill:#1f77b4;stroke:#1f77b4;" x="519.72086" xlink:href="#mfcb2f569ef" y="303.424358"/>
     <use style="fill:#1f77b4;stroke:#1f77b4;" x="521.741333" xlink:href="#mfcb2f569ef" y="295.478584"/>
     <use style="fill:#1f77b4;stroke:#1f77b4;" x="523.761807" xlink:href="#mfcb2f569ef" y="303.053996"/>
     <use style="fill:#1f77b4;stroke:#1f77b4;" x="525.78228" xlink:href="#mfcb2f569ef" y="298.916935"/>
     <use style="fill:#1f77b4;stroke:#1f77b4;" x="527.802754" xlink:href="#mfcb2f569ef" y="307.197375"/>
     <use style="fill:#1f77b4;stroke:#1f77b4;" x="529.823227" xlink:href="#mfcb2f569ef" y="330.813586"/>
     <use style="fill:#1f77b4;stroke:#1f77b4;" x="531.843701" xlink:href="#mfcb2f569ef" y="333.505142"/>
     <use style="fill:#1f77b4;stroke:#1f77b4;" x="533.864174" xlink:href="#mfcb2f569ef" y="326.290377"/>
     <use style="fill:#1f77b4;stroke:#1f77b4;" x="535.884647" xlink:href="#mfcb2f569ef" y="311.942513"/>
     <use style="fill:#1f77b4;stroke:#1f77b4;" x="537.905121" xlink:href="#mfcb2f569ef" y="326.280134"/>
     <use style="fill:#1f77b4;stroke:#1f77b4;" x="539.925594" xlink:href="#mfcb2f569ef" y="319.164061"/>
     <use style="fill:#1f77b4;stroke:#1f77b4;" x="541.946068" xlink:href="#mfcb2f569ef" y="296.164263"/>
     <use style="fill:#1f77b4;stroke:#1f77b4;" x="543.966541" xlink:href="#mfcb2f569ef" y="373.598182"/>
     <use style="fill:#1f77b4;stroke:#1f77b4;" x="545.987015" xlink:href="#mfcb2f569ef" y="309.275555"/>
     <use style="fill:#1f77b4;stroke:#1f77b4;" x="548.007488" xlink:href="#mfcb2f569ef" y="278.882145"/>
     <use style="fill:#1f77b4;stroke:#1f77b4;" x="550.027961" xlink:href="#mfcb2f569ef" y="273.276846"/>
     <use style="fill:#1f77b4;stroke:#1f77b4;" x="552.048435" xlink:href="#mfcb2f569ef" y="282.163901"/>
     <use style="fill:#1f77b4;stroke:#1f77b4;" x="554.068908" xlink:href="#mfcb2f569ef" y="292.979381"/>
     <use style="fill:#1f77b4;stroke:#1f77b4;" x="556.089382" xlink:href="#mfcb2f569ef" y="304.069106"/>
     <use style="fill:#1f77b4;stroke:#1f77b4;" x="558.109855" xlink:href="#mfcb2f569ef" y="294.175806"/>
     <use style="fill:#1f77b4;stroke:#1f77b4;" x="560.130329" xlink:href="#mfcb2f569ef" y="306.033863"/>
     <use style="fill:#1f77b4;stroke:#1f77b4;" x="562.150802" xlink:href="#mfcb2f569ef" y="303.773305"/>
     <use style="fill:#1f77b4;stroke:#1f77b4;" x="564.171275" xlink:href="#mfcb2f569ef" y="299.977235"/>
     <use style="fill:#1f77b4;stroke:#1f77b4;" x="566.191749" xlink:href="#mfcb2f569ef" y="310.341793"/>
     <use style="fill:#1f77b4;stroke:#1f77b4;" x="568.212222" xlink:href="#mfcb2f569ef" y="297.528399"/>
     <use style="fill:#1f77b4;stroke:#1f77b4;" x="570.232696" xlink:href="#mfcb2f569ef" y="317.140735"/>
     <use style="fill:#1f77b4;stroke:#1f77b4;" x="572.253169" xlink:href="#mfcb2f569ef" y="309.515655"/>
     <use style="fill:#1f77b4;stroke:#1f77b4;" x="574.273643" xlink:href="#mfcb2f569ef" y="299.882821"/>
     <use style="fill:#1f77b4;stroke:#1f77b4;" x="576.294116" xlink:href="#mfcb2f569ef" y="291.101112"/>
     <use style="fill:#1f77b4;stroke:#1f77b4;" x="578.31459" xlink:href="#mfcb2f569ef" y="297.54216"/>
     <use style="fill:#1f77b4;stroke:#1f77b4;" x="580.335063" xlink:href="#mfcb2f569ef" y="315.077453"/>
     <use style="fill:#1f77b4;stroke:#1f77b4;" x="582.355536" xlink:href="#mfcb2f569ef" y="330.326422"/>
     <use style="fill:#1f77b4;stroke:#1f77b4;" x="584.37601" xlink:href="#mfcb2f569ef" y="128.289535"/>
     <use style="fill:#1f77b4;stroke:#1f77b4;" x="586.396483" xlink:href="#mfcb2f569ef" y="131.281863"/>
     <use style="fill:#1f77b4;stroke:#1f77b4;" x="588.416957" xlink:href="#mfcb2f569ef" y="142.903844"/>
     <use style="fill:#1f77b4;stroke:#1f77b4;" x="590.43743" xlink:href="#mfcb2f569ef" y="137.554445"/>
     <use style="fill:#1f77b4;stroke:#1f77b4;" x="592.457904" xlink:href="#mfcb2f569ef" y="129.606023"/>
     <use style="fill:#1f77b4;stroke:#1f77b4;" x="594.478377" xlink:href="#mfcb2f569ef" y="142.395727"/>
     <use style="fill:#1f77b4;stroke:#1f77b4;" x="596.49885" xlink:href="#mfcb2f569ef" y="151.334814"/>
     <use style="fill:#1f77b4;stroke:#1f77b4;" x="598.519324" xlink:href="#mfcb2f569ef" y="162.617671"/>
     <use style="fill:#1f77b4;stroke:#1f77b4;" x="600.539797" xlink:href="#mfcb2f569ef" y="148.243952"/>
     <use style="fill:#1f77b4;stroke:#1f77b4;" x="602.560271" xlink:href="#mfcb2f569ef" y="166.133699"/>
     <use style="fill:#1f77b4;stroke:#1f77b4;" x="604.580744" xlink:href="#mfcb2f569ef" y="148.266198"/>
     <use style="fill:#1f77b4;stroke:#1f77b4;" x="606.601218" xlink:href="#mfcb2f569ef" y="145.508688"/>
     <use style="fill:#1f77b4;stroke:#1f77b4;" x="608.621691" xlink:href="#mfcb2f569ef" y="155.392843"/>
     <use style="fill:#1f77b4;stroke:#1f77b4;" x="610.642164" xlink:href="#mfcb2f569ef" y="160.354899"/>
     <use style="fill:#1f77b4;stroke:#1f77b4;" x="612.662638" xlink:href="#mfcb2f569ef" y="164.408751"/>
     <use style="fill:#1f77b4;stroke:#1f77b4;" x="614.683111" xlink:href="#mfcb2f569ef" y="193.928946"/>
     <use style="fill:#1f77b4;stroke:#1f77b4;" x="616.703585" xlink:href="#mfcb2f569ef" y="199.4909"/>
     <use style="fill:#1f77b4;stroke:#1f77b4;" x="618.724058" xlink:href="#mfcb2f569ef" y="189.549609"/>
     <use style="fill:#1f77b4;stroke:#1f77b4;" x="620.744532" xlink:href="#mfcb2f569ef" y="203.856827"/>
     <use style="fill:#1f77b4;stroke:#1f77b4;" x="622.765005" xlink:href="#mfcb2f569ef" y="203.063476"/>
     <use style="fill:#1f77b4;stroke:#1f77b4;" x="624.785478" xlink:href="#mfcb2f569ef" y="204.248058"/>
     <use style="fill:#1f77b4;stroke:#1f77b4;" x="626.805952" xlink:href="#mfcb2f569ef" y="210.107114"/>
     <use style="fill:#1f77b4;stroke:#1f77b4;" x="628.826425" xlink:href="#mfcb2f569ef" y="202.92745"/>
     <use style="fill:#1f77b4;stroke:#1f77b4;" x="630.846899" xlink:href="#mfcb2f569ef" y="205.715675"/>
     <use style="fill:#1f77b4;stroke:#1f77b4;" x="632.867372" xlink:href="#mfcb2f569ef" y="197.643412"/>
     <use style="fill:#1f77b4;stroke:#1f77b4;" x="634.887846" xlink:href="#mfcb2f569ef" y="198.779432"/>
     <use style="fill:#1f77b4;stroke:#1f77b4;" x="636.908319" xlink:href="#mfcb2f569ef" y="202.543805"/>
     <use style="fill:#1f77b4;stroke:#1f77b4;" x="638.928792" xlink:href="#mfcb2f569ef" y="200.304963"/>
     <use style="fill:#1f77b4;stroke:#1f77b4;" x="640.949266" xlink:href="#mfcb2f569ef" y="311.97345"/>
     <use style="fill:#1f77b4;stroke:#1f77b4;" x="642.969739" xlink:href="#mfcb2f569ef" y="220.751916"/>
     <use style="fill:#1f77b4;stroke:#1f77b4;" x="644.990213" xlink:href="#mfcb2f569ef" y="225.087378"/>
     <use style="fill:#1f77b4;stroke:#1f77b4;" x="647.010686" xlink:href="#mfcb2f569ef" y="219.720717"/>
     <use style="fill:#1f77b4;stroke:#1f77b4;" x="649.03116" xlink:href="#mfcb2f569ef" y="213.616141"/>
     <use style="fill:#1f77b4;stroke:#1f77b4;" x="651.051633" xlink:href="#mfcb2f569ef" y="217.524231"/>
     <use style="fill:#1f77b4;stroke:#1f77b4;" x="653.072107" xlink:href="#mfcb2f569ef" y="218.297537"/>
     <use style="fill:#1f77b4;stroke:#1f77b4;" x="655.09258" xlink:href="#mfcb2f569ef" y="230.674547"/>
     <use style="fill:#1f77b4;stroke:#1f77b4;" x="657.113053" xlink:href="#mfcb2f569ef" y="222.507884"/>
     <use style="fill:#1f77b4;stroke:#1f77b4;" x="659.133527" xlink:href="#mfcb2f569ef" y="233.918246"/>
     <use style="fill:#1f77b4;stroke:#1f77b4;" x="661.154" xlink:href="#mfcb2f569ef" y="228.143903"/>
     <use style="fill:#1f77b4;stroke:#1f77b4;" x="663.174474" xlink:href="#mfcb2f569ef" y="230.699969"/>
     <use style="fill:#1f77b4;stroke:#1f77b4;" x="665.194947" xlink:href="#mfcb2f569ef" y="311.996273"/>
     <use style="fill:#1f77b4;stroke:#1f77b4;" x="667.215421" xlink:href="#mfcb2f569ef" y="243.904457"/>
     <use style="fill:#1f77b4;stroke:#1f77b4;" x="669.235894" xlink:href="#mfcb2f569ef" y="242.977905"/>
     <use style="fill:#1f77b4;stroke:#1f77b4;" x="671.256367" xlink:href="#mfcb2f569ef" y="259.370133"/>
     <use style="fill:#1f77b4;stroke:#1f77b4;" x="673.276841" xlink:href="#mfcb2f569ef" y="306.499621"/>
     <use style="fill:#1f77b4;stroke:#1f77b4;" x="675.297314" xlink:href="#mfcb2f569ef" y="243.706839"/>
     <use style="fill:#1f77b4;stroke:#1f77b4;" x="677.317788" xlink:href="#mfcb2f569ef" y="234.907317"/>
     <use style="fill:#1f77b4;stroke:#1f77b4;" x="679.338261" xlink:href="#mfcb2f569ef" y="242.464863"/>
     <use style="fill:#1f77b4;stroke:#1f77b4;" x="681.358735" xlink:href="#mfcb2f569ef" y="225.231377"/>
     <use style="fill:#1f77b4;stroke:#1f77b4;" x="683.379208" xlink:href="#mfcb2f569ef" y="214.531727"/>
     <use style="fill:#1f77b4;stroke:#1f77b4;" x="685.399681" xlink:href="#mfcb2f569ef" y="227.611109"/>
     <use style="fill:#1f77b4;stroke:#1f77b4;" x="687.420155" xlink:href="#mfcb2f569ef" y="227.036334"/>
     <use style="fill:#1f77b4;stroke:#1f77b4;" x="689.440628" xlink:href="#mfcb2f569ef" y="215.824816"/>
     <use style="fill:#1f77b4;stroke:#1f77b4;" x="691.461102" xlink:href="#mfcb2f569ef" y="204.843971"/>
     <use style="fill:#1f77b4;stroke:#1f77b4;" x="693.481575" xlink:href="#mfcb2f569ef" y="208.061762"/>
     <use style="fill:#1f77b4;stroke:#1f77b4;" x="695.502049" xlink:href="#mfcb2f569ef" y="218.046909"/>
     <use style="fill:#1f77b4;stroke:#1f77b4;" x="697.522522" xlink:href="#mfcb2f569ef" y="232.894544"/>
     <use style="fill:#1f77b4;stroke:#1f77b4;" x="699.542995" xlink:href="#mfcb2f569ef" y="223.513918"/>
     <use style="fill:#1f77b4;stroke:#1f77b4;" x="701.563469" xlink:href="#mfcb2f569ef" y="237.151082"/>
     <use style="fill:#1f77b4;stroke:#1f77b4;" x="703.583942" xlink:href="#mfcb2f569ef" y="224.240458"/>
     <use style="fill:#1f77b4;stroke:#1f77b4;" x="705.604416" xlink:href="#mfcb2f569ef" y="208.733074"/>
     <use style="fill:#1f77b4;stroke:#1f77b4;" x="707.624889" xlink:href="#mfcb2f569ef" y="218.143904"/>
     <use style="fill:#1f77b4;stroke:#1f77b4;" x="709.645363" xlink:href="#mfcb2f569ef" y="215.857773"/>
     <use style="fill:#1f77b4;stroke:#1f77b4;" x="711.665836" xlink:href="#mfcb2f569ef" y="223.304888"/>
     <use style="fill:#1f77b4;stroke:#1f77b4;" x="713.686309" xlink:href="#mfcb2f569ef" y="224.852569"/>
     <use style="fill:#1f77b4;stroke:#1f77b4;" x="715.706783" xlink:href="#mfcb2f569ef" y="236.976"/>
     <use style="fill:#1f77b4;stroke:#1f77b4;" x="717.727256" xlink:href="#mfcb2f569ef" y="228.731134"/>
     <use style="fill:#1f77b4;stroke:#1f77b4;" x="719.74773" xlink:href="#mfcb2f569ef" y="224.507623"/>
     <use style="fill:#1f77b4;stroke:#1f77b4;" x="721.768203" xlink:href="#mfcb2f569ef" y="238.903434"/>
     <use style="fill:#1f77b4;stroke:#1f77b4;" x="723.788677" xlink:href="#mfcb2f569ef" y="242.021326"/>
     <use style="fill:#1f77b4;stroke:#1f77b4;" x="725.80915" xlink:href="#mfcb2f569ef" y="247.529649"/>
     <use style="fill:#1f77b4;stroke:#1f77b4;" x="727.829624" xlink:href="#mfcb2f569ef" y="250.088716"/>
     <use style="fill:#1f77b4;stroke:#1f77b4;" x="729.850097" xlink:href="#mfcb2f569ef" y="248.197133"/>
     <use style="fill:#1f77b4;stroke:#1f77b4;" x="731.87057" xlink:href="#mfcb2f569ef" y="246.226236"/>
     <use style="fill:#1f77b4;stroke:#1f77b4;" x="733.891044" xlink:href="#mfcb2f569ef" y="244.037161"/>
     <use style="fill:#1f77b4;stroke:#1f77b4;" x="735.911517" xlink:href="#mfcb2f569ef" y="252.864426"/>
     <use style="fill:#1f77b4;stroke:#1f77b4;" x="737.931991" xlink:href="#mfcb2f569ef" y="259.653756"/>
     <use style="fill:#1f77b4;stroke:#1f77b4;" x="739.952464" xlink:href="#mfcb2f569ef" y="262.417678"/>
     <use style="fill:#1f77b4;stroke:#1f77b4;" x="741.972938" xlink:href="#mfcb2f569ef" y="247.774899"/>
     <use style="fill:#1f77b4;stroke:#1f77b4;" x="743.993411" xlink:href="#mfcb2f569ef" y="241.6304"/>
     <use style="fill:#1f77b4;stroke:#1f77b4;" x="746.013884" xlink:href="#mfcb2f569ef" y="227.959595"/>
     <use style="fill:#1f77b4;stroke:#1f77b4;" x="748.034358" xlink:href="#mfcb2f569ef" y="219.592073"/>
     <use style="fill:#1f77b4;stroke:#1f77b4;" x="750.054831" xlink:href="#mfcb2f569ef" y="239.513777"/>
     <use style="fill:#1f77b4;stroke:#1f77b4;" x="752.075305" xlink:href="#mfcb2f569ef" y="239.650995"/>
     <use style="fill:#1f77b4;stroke:#1f77b4;" x="754.095778" xlink:href="#mfcb2f569ef" y="247.600581"/>
     <use style="fill:#1f77b4;stroke:#1f77b4;" x="756.116252" xlink:href="#mfcb2f569ef" y="246.369634"/>
     <use style="fill:#1f77b4;stroke:#1f77b4;" x="758.136725" xlink:href="#mfcb2f569ef" y="260.973418"/>
     <use style="fill:#1f77b4;stroke:#1f77b4;" x="760.157198" xlink:href="#mfcb2f569ef" y="251.163568"/>
     <use style="fill:#1f77b4;stroke:#1f77b4;" x="762.177672" xlink:href="#mfcb2f569ef" y="243.626184"/>
     <use style="fill:#1f77b4;stroke:#1f77b4;" x="764.198145" xlink:href="#mfcb2f569ef" y="257.90533"/>
     <use style="fill:#1f77b4;stroke:#1f77b4;" x="766.218619" xlink:href="#mfcb2f569ef" y="256.435179"/>
     <use style="fill:#1f77b4;stroke:#1f77b4;" x="768.239092" xlink:href="#mfcb2f569ef" y="253.650472"/>
     <use style="fill:#1f77b4;stroke:#1f77b4;" x="770.259566" xlink:href="#mfcb2f569ef" y="184.447054"/>
     <use style="fill:#1f77b4;stroke:#1f77b4;" x="772.280039" xlink:href="#mfcb2f569ef" y="203.700553"/>
     <use style="fill:#1f77b4;stroke:#1f77b4;" x="774.300512" xlink:href="#mfcb2f569ef" y="183.788802"/>
     <use style="fill:#1f77b4;stroke:#1f77b4;" x="776.320986" xlink:href="#mfcb2f569ef" y="180.710089"/>
     <use style="fill:#1f77b4;stroke:#1f77b4;" x="778.341459" xlink:href="#mfcb2f569ef" y="205.871634"/>
     <use style="fill:#1f77b4;stroke:#1f77b4;" x="780.361933" xlink:href="#mfcb2f569ef" y="202.572794"/>
     <use style="fill:#1f77b4;stroke:#1f77b4;" x="782.382406" xlink:href="#mfcb2f569ef" y="214.044361"/>
     <use style="fill:#1f77b4;stroke:#1f77b4;" x="784.40288" xlink:href="#mfcb2f569ef" y="210.803847"/>
     <use style="fill:#1f77b4;stroke:#1f77b4;" x="786.423353" xlink:href="#mfcb2f569ef" y="229.56032"/>
     <use style="fill:#1f77b4;stroke:#1f77b4;" x="788.443826" xlink:href="#mfcb2f569ef" y="206.208304"/>
     <use style="fill:#1f77b4;stroke:#1f77b4;" x="790.4643" xlink:href="#mfcb2f569ef" y="197.925326"/>
     <use style="fill:#1f77b4;stroke:#1f77b4;" x="792.484773" xlink:href="#mfcb2f569ef" y="219.585406"/>
     <use style="fill:#1f77b4;stroke:#1f77b4;" x="794.505247" xlink:href="#mfcb2f569ef" y="226.077413"/>
     <use style="fill:#1f77b4;stroke:#1f77b4;" x="796.52572" xlink:href="#mfcb2f569ef" y="223.119563"/>
     <use style="fill:#1f77b4;stroke:#1f77b4;" x="798.546194" xlink:href="#mfcb2f569ef" y="238.246033"/>
     <use style="fill:#1f77b4;stroke:#1f77b4;" x="800.566667" xlink:href="#mfcb2f569ef" y="246.214593"/>
     <use style="fill:#1f77b4;stroke:#1f77b4;" x="802.587141" xlink:href="#mfcb2f569ef" y="231.402375"/>
     <use style="fill:#1f77b4;stroke:#1f77b4;" x="804.607614" xlink:href="#mfcb2f569ef" y="218.00401"/>
     <use style="fill:#1f77b4;stroke:#1f77b4;" x="806.628087" xlink:href="#mfcb2f569ef" y="250.427061"/>
     <use style="fill:#1f77b4;stroke:#1f77b4;" x="808.648561" xlink:href="#mfcb2f569ef" y="238.805323"/>
     <use style="fill:#1f77b4;stroke:#1f77b4;" x="810.669034" xlink:href="#mfcb2f569ef" y="233.194836"/>
     <use style="fill:#1f77b4;stroke:#1f77b4;" x="812.689508" xlink:href="#mfcb2f569ef" y="229.817096"/>
     <use style="fill:#1f77b4;stroke:#1f77b4;" x="814.709981" xlink:href="#mfcb2f569ef" y="244.299855"/>
     <use style="fill:#1f77b4;stroke:#1f77b4;" x="816.730455" xlink:href="#mfcb2f569ef" y="235.55325"/>
    </g>
   </g>
   <g id="patch_3">
    <path d="M 50.87 390.04 
L 50.87 28.32 
" style="fill:none;stroke:#000000;stroke-linecap:square;stroke-linejoin:miter;stroke-width:0.8;"/>
   </g>
   <g id="patch_4">
    <path d="M 853.2 390.04 
L 853.2 28.32 
" style="fill:none;stroke:#000000;stroke-linecap:square;stroke-linejoin:miter;stroke-width:0.8;"/>
   </g>
   <g id="patch_5">
    <path d="M 50.87 390.04 
L 853.2 390.04 
" style="fill:none;stroke:#000000;stroke-linecap:square;stroke-linejoin:miter;stroke-width:0.8;"/>
   </g>
   <g id="patch_6">
    <path d="M 50.87 28.32 
L 853.2 28.32 
" style="fill:none;stroke:#000000;stroke-linecap:square;stroke-linejoin:miter;stroke-width:0.8;"/>
   </g>
   <g id="text_18">
    <!-- Durchschnittliche Preisentwicklung von Kategorie 'Handys' -->
    <g transform="translate(217.00625 22.32)scale(0.16 -0.16)">
     <defs>
      <path d="M 4.203125 54.6875 
L 13.1875 54.6875 
L 24.421875 12.015625 
L 35.59375 54.6875 
L 46.1875 54.6875 
L 57.421875 12.015625 
L 68.609375 54.6875 
L 77.59375 54.6875 
L 63.28125 0 
L 52.6875 0 
L 40.921875 44.828125 
L 29.109375 0 
L 18.5 0 
z
" id="DejaVuSans-119"/>
      <path d="M 45.40625 27.984375 
Q 45.40625 37.75 41.375 43.109375 
Q 37.359375 48.484375 30.078125 48.484375 
Q 22.859375 48.484375 18.828125 43.109375 
Q 14.796875 37.75 14.796875 27.984375 
Q 14.796875 18.265625 18.828125 12.890625 
Q 22.859375 7.515625 30.078125 7.515625 
Q 37.359375 7.515625 41.375 12.890625 
Q 45.40625 18.265625 45.40625 27.984375 
z
M 54.390625 6.78125 
Q 54.390625 -7.171875 48.1875 -13.984375 
Q 42 -20.796875 29.203125 -20.796875 
Q 24.46875 -20.796875 20.265625 -20.09375 
Q 16.0625 -19.390625 12.109375 -17.921875 
L 12.109375 -9.1875 
Q 16.0625 -11.328125 19.921875 -12.34375 
Q 23.78125 -13.375 27.78125 -13.375 
Q 36.625 -13.375 41.015625 -8.765625 
Q 45.40625 -4.15625 45.40625 5.171875 
L 45.40625 9.625 
Q 42.625 4.78125 38.28125 2.390625 
Q 33.9375 0 27.875 0 
Q 17.828125 0 11.671875 7.65625 
Q 5.515625 15.328125 5.515625 27.984375 
Q 5.515625 40.671875 11.671875 48.328125 
Q 17.828125 56 27.875 56 
Q 33.9375 56 38.28125 53.609375 
Q 42.625 51.21875 45.40625 46.390625 
L 45.40625 54.6875 
L 54.390625 54.6875 
z
" id="DejaVuSans-103"/>
      <path d="M 2.984375 54.6875 
L 12.5 54.6875 
L 29.59375 8.796875 
L 46.6875 54.6875 
L 56.203125 54.6875 
L 35.6875 0 
L 23.484375 0 
z
" id="DejaVuSans-118"/>
      <path d="M 9.8125 72.90625 
L 19.671875 72.90625 
L 19.671875 42.09375 
L 52.390625 72.90625 
L 65.09375 72.90625 
L 28.90625 38.921875 
L 67.671875 0 
L 54.6875 0 
L 19.671875 35.109375 
L 19.671875 0 
L 9.8125 0 
z
" id="DejaVuSans-75"/>
      <path d="M 17.921875 72.90625 
L 17.921875 45.796875 
L 9.625 45.796875 
L 9.625 72.90625 
z
" id="DejaVuSans-39"/>
      <path d="M 9.8125 72.90625 
L 19.671875 72.90625 
L 19.671875 43.015625 
L 55.515625 43.015625 
L 55.515625 72.90625 
L 65.375 72.90625 
L 65.375 0 
L 55.515625 0 
L 55.515625 34.71875 
L 19.671875 34.71875 
L 19.671875 0 
L 9.8125 0 
z
" id="DejaVuSans-72"/>
      <path d="M 32.171875 -5.078125 
Q 28.375 -14.84375 24.75 -17.8125 
Q 21.140625 -20.796875 15.09375 -20.796875 
L 7.90625 -20.796875 
L 7.90625 -13.28125 
L 13.1875 -13.28125 
Q 16.890625 -13.28125 18.9375 -11.515625 
Q 21 -9.765625 23.484375 -3.21875 
L 25.09375 0.875 
L 2.984375 54.6875 
L 12.5 54.6875 
L 29.59375 11.921875 
L 46.6875 54.6875 
L 56.203125 54.6875 
z
" id="DejaVuSans-121"/>
     </defs>
     <use xlink:href="#DejaVuSans-68"/>
     <use x="77.001953" xlink:href="#DejaVuSans-117"/>
     <use x="140.380859" xlink:href="#DejaVuSans-114"/>
     <use x="179.244141" xlink:href="#DejaVuSans-99"/>
     <use x="234.224609" xlink:href="#DejaVuSans-104"/>
     <use x="297.603516" xlink:href="#DejaVuSans-115"/>
     <use x="349.703125" xlink:href="#DejaVuSans-99"/>
     <use x="404.683594" xlink:href="#DejaVuSans-104"/>
     <use x="468.0625" xlink:href="#DejaVuSans-110"/>
     <use x="531.441406" xlink:href="#DejaVuSans-105"/>
     <use x="559.224609" xlink:href="#DejaVuSans-116"/>
     <use x="598.433594" xlink:href="#DejaVuSans-116"/>
     <use x="637.642578" xlink:href="#DejaVuSans-108"/>
     <use x="665.425781" xlink:href="#DejaVuSans-105"/>
     <use x="693.208984" xlink:href="#DejaVuSans-99"/>
     <use x="748.189453" xlink:href="#DejaVuSans-104"/>
     <use x="811.568359" xlink:href="#DejaVuSans-101"/>
     <use x="873.091797" xlink:href="#DejaVuSans-32"/>
     <use x="904.878906" xlink:href="#DejaVuSans-80"/>
     <use x="963.431641" xlink:href="#DejaVuSans-114"/>
     <use x="1002.294922" xlink:href="#DejaVuSans-101"/>
     <use x="1063.818359" xlink:href="#DejaVuSans-105"/>
     <use x="1091.601562" xlink:href="#DejaVuSans-115"/>
     <use x="1143.701172" xlink:href="#DejaVuSans-101"/>
     <use x="1205.224609" xlink:href="#DejaVuSans-110"/>
     <use x="1268.603516" xlink:href="#DejaVuSans-116"/>
     <use x="1307.8125" xlink:href="#DejaVuSans-119"/>
     <use x="1389.599609" xlink:href="#DejaVuSans-105"/>
     <use x="1417.382812" xlink:href="#DejaVuSans-99"/>
     <use x="1472.363281" xlink:href="#DejaVuSans-107"/>
     <use x="1530.273438" xlink:href="#DejaVuSans-108"/>
     <use x="1558.056641" xlink:href="#DejaVuSans-117"/>
     <use x="1621.435547" xlink:href="#DejaVuSans-110"/>
     <use x="1684.814453" xlink:href="#DejaVuSans-103"/>
     <use x="1748.291016" xlink:href="#DejaVuSans-32"/>
     <use x="1780.078125" xlink:href="#DejaVuSans-118"/>
     <use x="1839.257812" xlink:href="#DejaVuSans-111"/>
     <use x="1900.439453" xlink:href="#DejaVuSans-110"/>
     <use x="1963.818359" xlink:href="#DejaVuSans-32"/>
     <use x="1995.605469" xlink:href="#DejaVuSans-75"/>
     <use x="2059.431641" xlink:href="#DejaVuSans-97"/>
     <use x="2120.710938" xlink:href="#DejaVuSans-116"/>
     <use x="2159.919922" xlink:href="#DejaVuSans-101"/>
     <use x="2221.443359" xlink:href="#DejaVuSans-103"/>
     <use x="2284.919922" xlink:href="#DejaVuSans-111"/>
     <use x="2346.101562" xlink:href="#DejaVuSans-114"/>
     <use x="2387.214844" xlink:href="#DejaVuSans-105"/>
     <use x="2414.998047" xlink:href="#DejaVuSans-101"/>
     <use x="2476.521484" xlink:href="#DejaVuSans-32"/>
     <use x="2508.308594" xlink:href="#DejaVuSans-39"/>
     <use x="2535.798828" xlink:href="#DejaVuSans-72"/>
     <use x="2610.994141" xlink:href="#DejaVuSans-97"/>
     <use x="2672.273438" xlink:href="#DejaVuSans-110"/>
     <use x="2735.652344" xlink:href="#DejaVuSans-100"/>
     <use x="2799.128906" xlink:href="#DejaVuSans-121"/>
     <use x="2858.308594" xlink:href="#DejaVuSans-115"/>
     <use x="2910.408203" xlink:href="#DejaVuSans-39"/>
    </g>
   </g>
  </g>
 </g>
 <defs>
  <clipPath id="p7244748794">
   <rect height="361.72" width="802.33" x="50.87" y="28.32"/>
  </clipPath>
 </defs>
</svg>
