<?xml version="1.0" encoding="utf-8" standalone="no"?>
<!DOCTYPE svg PUBLIC "-//W3C//DTD SVG 1.1//EN"
  "http://www.w3.org/Graphics/SVG/1.1/DTD/svg11.dtd">
<!-- Created with matplotlib (https://matplotlib.org/) -->
<svg height="432pt" version="1.1" viewBox="0 0 720 432" width="720pt" xmlns="http://www.w3.org/2000/svg" xmlns:xlink="http://www.w3.org/1999/xlink">
 <metadata>
  <rdf:RDF xmlns:cc="http://creativecommons.org/ns#" xmlns:dc="http://purl.org/dc/elements/1.1/" xmlns:rdf="http://www.w3.org/1999/02/22-rdf-syntax-ns#">
   <cc:Work>
    <dc:type rdf:resource="http://purl.org/dc/dcmitype/StillImage"/>
    <dc:date>2021-02-17T13:43:53.498549</dc:date>
    <dc:format>image/svg+xml</dc:format>
    <dc:creator>
     <cc:Agent>
      <dc:title>Matplotlib v3.3.2, https://matplotlib.org/</dc:title>
     </cc:Agent>
    </dc:creator>
   </cc:Work>
  </rdf:RDF>
 </metadata>
 <defs>
  <style type="text/css">*{stroke-linecap:butt;stroke-linejoin:round;}</style>
 </defs>
 <g id="figure_1">
  <g id="patch_1">
   <path d="M 0 432 
L 720 432 
L 720 0 
L 0 0 
z
" style="fill:#ffffff;"/>
  </g>
  <g id="axes_1">
   <g id="patch_2">
    <path d="M 90 384.48 
L 648 384.48 
L 648 51.84 
L 90 51.84 
z
" style="fill:#ffffff;"/>
   </g>
   <g id="PolyCollection_1">
    <defs>
     <path d="M 115.363636 -337.230837 
L 115.363636 -337.230837 
L 116.768824 -337.230837 
L 118.174012 -337.230837 
L 119.579199 -337.230837 
L 120.984387 -337.230837 
L 122.389574 -337.230837 
L 123.794762 -337.230837 
L 125.19995 -337.230837 
L 126.605137 -337.230837 
L 128.010325 -337.230837 
L 129.415512 -337.230837 
L 130.8207 -337.230837 
L 132.225888 -337.230837 
L 133.631075 -337.230837 
L 135.036263 -337.230837 
L 136.441451 -337.230837 
L 137.846638 -337.230837 
L 139.251826 -337.230837 
L 140.657013 -337.230837 
L 142.062201 -337.230837 
L 143.467389 -337.230837 
L 144.872576 -337.230837 
L 146.277764 -337.230837 
L 147.682951 -337.230837 
L 149.088139 -337.230837 
L 150.493327 -337.230837 
L 151.898514 -337.230837 
L 153.303702 -337.230837 
L 154.708889 -337.230837 
L 156.114077 -337.230837 
L 157.519265 -337.230837 
L 158.924452 -337.230837 
L 160.32964 -337.230837 
L 161.734827 -337.230837 
L 163.140015 -337.230837 
L 164.545203 -337.230837 
L 165.95039 -337.230837 
L 167.355578 -337.230837 
L 168.760766 -337.230837 
L 170.165953 -337.230837 
L 171.571141 -337.230837 
L 172.976328 -337.230837 
L 174.381516 -337.230837 
L 175.786704 -337.230837 
L 177.191891 -337.230837 
L 178.597079 -337.230837 
L 180.002266 -337.230837 
L 181.407454 -337.230837 
L 182.812642 -337.230837 
L 184.217829 -337.230837 
L 185.623017 -337.230837 
L 187.028204 -337.230837 
L 188.433392 -337.230837 
L 189.83858 -337.230837 
L 191.243767 -337.230837 
L 192.648955 -337.230837 
L 194.054143 -337.230837 
L 195.45933 -337.230837 
L 196.864518 -337.230837 
L 198.269705 -337.230837 
L 199.674893 -337.230837 
L 201.080081 -337.230837 
L 202.485268 -337.230837 
L 203.890456 -337.230837 
L 205.295643 -337.230837 
L 206.700831 -337.230837 
L 208.106019 -337.230837 
L 209.511206 -337.230837 
L 210.916394 -337.230837 
L 212.321581 -337.230837 
L 213.726769 -337.230837 
L 215.131957 -337.230837 
L 216.537144 -337.230837 
L 217.942332 -337.230837 
L 219.34752 -337.230837 
L 220.752707 -337.230837 
L 222.157895 -337.230837 
L 223.563082 -337.230837 
L 224.96827 -337.230837 
L 226.373458 -337.230837 
L 227.778645 -337.230837 
L 229.183833 -337.230837 
L 230.58902 -337.230837 
L 231.994208 -337.230837 
L 233.399396 -337.230837 
L 234.804583 -337.230837 
L 236.209771 -337.230837 
L 237.614958 -337.230837 
L 239.020146 -337.230837 
L 240.425334 -337.230837 
L 241.830521 -337.230837 
L 243.235709 -337.230837 
L 244.640896 -337.230837 
L 246.046084 -337.230837 
L 247.451272 -337.230837 
L 248.856459 -337.230837 
L 250.261647 -337.230837 
L 251.666835 -337.230837 
L 253.072022 -337.230837 
L 254.47721 -337.230837 
L 255.882397 -337.230837 
L 257.287585 -337.230837 
L 258.692773 -337.230837 
L 260.09796 -337.230837 
L 261.503148 -337.230837 
L 262.908335 -337.230837 
L 264.313523 -337.230837 
L 265.718711 -337.230837 
L 267.123898 -337.230837 
L 268.529086 -337.230837 
L 269.934273 -337.230837 
L 271.339461 -337.230837 
L 272.744649 -337.230837 
L 274.149836 -337.230837 
L 275.555024 -337.230837 
L 276.960212 -337.230837 
L 278.365399 -337.230837 
L 279.770587 -337.230837 
L 281.175774 -337.230837 
L 282.580962 -337.230837 
L 283.98615 -337.230837 
L 285.391337 -337.230837 
L 286.796525 -337.230837 
L 288.201712 -337.230837 
L 289.6069 -337.230837 
L 291.012088 -337.230837 
L 292.417275 -337.230837 
L 293.822463 -337.230837 
L 295.22765 -337.230837 
L 296.632838 -337.230837 
L 298.038026 -337.230837 
L 299.443213 -337.230837 
L 300.848401 -337.230837 
L 302.253589 -337.230837 
L 303.658776 -337.230837 
L 305.063964 -337.230837 
L 306.469151 -337.230837 
L 307.874339 -337.230837 
L 309.279527 -337.230837 
L 310.684714 -337.230837 
L 312.089902 -337.230837 
L 313.495089 -337.230837 
L 314.900277 -337.230837 
L 316.305465 -337.230837 
L 317.710652 -337.230837 
L 319.11584 -337.230837 
L 320.521027 -337.230837 
L 321.926215 -337.230837 
L 323.331403 -337.230837 
L 324.73659 -337.230837 
L 326.141778 -337.230837 
L 327.546965 -337.230837 
L 328.952153 -337.230837 
L 330.357341 -337.230837 
L 331.762528 -337.230837 
L 333.167716 -337.230837 
L 334.572904 -337.230837 
L 335.978091 -337.230837 
L 337.383279 -337.230837 
L 338.788466 -337.230837 
L 340.193654 -337.230837 
L 341.598842 -337.230837 
L 343.004029 -337.230837 
L 344.409217 -337.230837 
L 345.814404 -337.230837 
L 347.219592 -337.230837 
L 348.62478 -337.230837 
L 350.029967 -337.230837 
L 351.435155 -337.230837 
L 352.840342 -337.230837 
L 354.24553 -337.230837 
L 355.650718 -337.230837 
L 357.055905 -337.230837 
L 358.461093 -337.230837 
L 359.866281 -337.230837 
L 361.271468 -337.230837 
L 362.676656 -337.230837 
L 364.081843 -337.230837 
L 365.487031 -337.230837 
L 366.892219 -337.230837 
L 368.297406 -337.230837 
L 369.702594 -337.230837 
L 371.107781 -337.230837 
L 372.512969 -337.230837 
L 373.918157 -337.230837 
L 375.323344 -337.230837 
L 376.728532 -337.230837 
L 378.133719 -337.230837 
L 379.538907 -337.230837 
L 380.944095 -337.230837 
L 382.349282 -337.230837 
L 383.75447 -337.230837 
L 385.159658 -337.230837 
L 386.564845 -337.230837 
L 387.970033 -337.230837 
L 389.37522 -337.230837 
L 390.780408 -337.230837 
L 392.185596 -337.230837 
L 393.590783 -337.230837 
L 394.995971 -337.230837 
L 396.401158 -337.230837 
L 397.806346 -337.230837 
L 399.211534 -337.230837 
L 400.616721 -337.230837 
L 402.021909 -337.230837 
L 403.427096 -337.230837 
L 404.832284 -337.230837 
L 406.237472 -337.230837 
L 407.642659 -337.230837 
L 409.047847 -337.230837 
L 410.453035 -337.230837 
L 411.858222 -337.230837 
L 413.26341 -337.230837 
L 414.668597 -337.230837 
L 416.073785 -337.230837 
L 417.478973 -337.230837 
L 418.88416 -337.230837 
L 420.289348 -337.230837 
L 421.694535 -337.230837 
L 423.099723 -337.230837 
L 424.504911 -337.230837 
L 425.910098 -337.230837 
L 427.315286 -337.230837 
L 428.720473 -337.230837 
L 430.125661 -337.230837 
L 431.530849 -337.230837 
L 432.936036 -337.230837 
L 434.341224 -337.230837 
L 435.746411 -337.230837 
L 437.151599 -337.230837 
L 438.556787 -337.230837 
L 439.961974 -337.230837 
L 441.367162 -337.230837 
L 442.77235 -337.230837 
L 444.177537 -337.230837 
L 445.582725 -337.230837 
L 446.987912 -337.230837 
L 448.3931 -337.230837 
L 449.798288 -337.230837 
L 451.203475 -337.230837 
L 452.608663 -337.230837 
L 454.01385 -337.230837 
L 455.419038 -337.230837 
L 456.824226 -337.230837 
L 458.229413 -337.230837 
L 459.634601 -337.230837 
L 461.039788 -337.230837 
L 462.444976 -337.230837 
L 463.850164 -337.230837 
L 465.255351 -337.230837 
L 466.660539 -337.230837 
L 468.065727 -337.230837 
L 469.470914 -337.230837 
L 470.876102 -337.230837 
L 472.281289 -337.230837 
L 473.686477 -337.230837 
L 475.091665 -337.230837 
L 476.496852 -337.230837 
L 477.90204 -337.230837 
L 479.307227 -337.230837 
L 480.712415 -337.230837 
L 482.117603 -337.230837 
L 483.52279 -337.230837 
L 484.927978 -337.230837 
L 486.333165 -337.230837 
L 487.738353 -337.230837 
L 489.143541 -337.230837 
L 490.548728 -337.230837 
L 491.953916 -337.230837 
L 493.359104 -337.230837 
L 494.764291 -337.230837 
L 496.169479 -337.230837 
L 497.574666 -358.607221 
L 498.979854 -365.04 
L 500.385042 -62.64 
L 501.790229 -318.974588 
L 503.195417 -320.76295 
L 504.600604 -337.230837 
L 506.005792 -337.230837 
L 507.41098 -337.230837 
L 508.816167 -337.230837 
L 510.221355 -337.230837 
L 511.626542 -337.230837 
L 513.03173 -337.230837 
L 514.436918 -337.230837 
L 515.842105 -337.230837 
L 517.247293 -337.230837 
L 518.65248 -337.230837 
L 520.057668 -337.230837 
L 521.462856 -337.230837 
L 522.868043 -337.230837 
L 524.273231 -337.230837 
L 525.678419 -337.230837 
L 527.083606 -337.230837 
L 528.488794 -337.230837 
L 529.893981 -337.230837 
L 531.299169 -337.230837 
L 532.704357 -337.230837 
L 534.109544 -337.230837 
L 535.514732 -337.230837 
L 536.919919 -337.230837 
L 538.325107 -337.230837 
L 539.730295 -337.230837 
L 541.135482 -337.230837 
L 542.54067 -337.230837 
L 543.945857 -337.230837 
L 545.351045 -337.230837 
L 546.756233 -337.230837 
L 548.16142 -337.230837 
L 549.566608 -337.230837 
L 550.971796 -337.230837 
L 552.376983 -337.230837 
L 553.782171 -337.230837 
L 555.187358 -337.230837 
L 556.592546 -337.230837 
L 557.997734 -337.230837 
L 559.402921 -337.230837 
L 560.808109 -337.230837 
L 562.213296 -337.230837 
L 563.618484 -337.230837 
L 565.023672 -337.230837 
L 566.428859 -337.230837 
L 567.834047 -337.230837 
L 569.239234 -337.230837 
L 570.644422 -337.230837 
L 572.04961 -337.230837 
L 573.454797 -337.230837 
L 574.859985 -337.230837 
L 576.265173 -337.230837 
L 577.67036 -337.230837 
L 579.075548 -337.230837 
L 580.480735 -337.230837 
L 581.885923 -337.230837 
L 583.291111 -337.230837 
L 584.696298 -337.230837 
L 586.101486 -337.230837 
L 587.506673 -337.230837 
L 588.911861 -337.230837 
L 590.317049 -337.230837 
L 591.722236 -337.230837 
L 593.127424 -337.230837 
L 594.532611 -337.230837 
L 595.937799 -337.230837 
L 597.342987 -337.230837 
L 598.748174 -337.230837 
L 600.153362 -337.230837 
L 601.558549 -337.230837 
L 602.963737 -337.230837 
L 604.368925 -337.230837 
L 605.774112 -337.230837 
L 607.1793 -337.230837 
L 608.584488 -337.230837 
L 609.989675 -337.230837 
L 611.394863 -337.230837 
L 612.80005 -337.230837 
L 614.205238 -337.230837 
L 615.610426 -337.230837 
L 617.015613 -337.230837 
L 618.420801 -337.230837 
L 619.825988 -337.230837 
L 621.231176 -337.230837 
L 622.636364 -337.230837 
L 622.636364 -337.230837 
L 622.636364 -337.230837 
L 621.231176 -337.230837 
L 619.825988 -337.230837 
L 618.420801 -337.230837 
L 617.015613 -337.230837 
L 615.610426 -337.230837 
L 614.205238 -337.230837 
L 612.80005 -337.230837 
L 611.394863 -337.230837 
L 609.989675 -337.230837 
L 608.584488 -337.230837 
L 607.1793 -337.230837 
L 605.774112 -337.230837 
L 604.368925 -337.230837 
L 602.963737 -337.230837 
L 601.558549 -337.230837 
L 600.153362 -337.230837 
L 598.748174 -337.230837 
L 597.342987 -337.230837 
L 595.937799 -337.230837 
L 594.532611 -337.230837 
L 593.127424 -337.230837 
L 591.722236 -337.230837 
L 590.317049 -337.230837 
L 588.911861 -337.230837 
L 587.506673 -337.230837 
L 586.101486 -337.230837 
L 584.696298 -337.230837 
L 583.291111 -337.230837 
L 581.885923 -337.230837 
L 580.480735 -337.230837 
L 579.075548 -337.230837 
L 577.67036 -337.230837 
L 576.265173 -337.230837 
L 574.859985 -337.230837 
L 573.454797 -337.230837 
L 572.04961 -337.230837 
L 570.644422 -337.230837 
L 569.239234 -337.230837 
L 567.834047 -337.230837 
L 566.428859 -337.230837 
L 565.023672 -337.230837 
L 563.618484 -337.230837 
L 562.213296 -337.230837 
L 560.808109 -337.230837 
L 559.402921 -337.230837 
L 557.997734 -337.230837 
L 556.592546 -337.230837 
L 555.187358 -337.230837 
L 553.782171 -337.230837 
L 552.376983 -337.230837 
L 550.971796 -337.230837 
L 549.566608 -337.230837 
L 548.16142 -337.230837 
L 546.756233 -337.230837 
L 545.351045 -337.230837 
L 543.945857 -337.230837 
L 542.54067 -337.230837 
L 541.135482 -337.230837 
L 539.730295 -337.230837 
L 538.325107 -337.230837 
L 536.919919 -337.230837 
L 535.514732 -337.230837 
L 534.109544 -337.230837 
L 532.704357 -337.230837 
L 531.299169 -337.230837 
L 529.893981 -337.230837 
L 528.488794 -337.230837 
L 527.083606 -337.230837 
L 525.678419 -337.230837 
L 524.273231 -337.230837 
L 522.868043 -337.230837 
L 521.462856 -337.230837 
L 520.057668 -337.230837 
L 518.65248 -337.230837 
L 517.247293 -337.230837 
L 515.842105 -337.230837 
L 514.436918 -337.230837 
L 513.03173 -337.230837 
L 511.626542 -337.230837 
L 510.221355 -337.230837 
L 508.816167 -337.230837 
L 507.41098 -337.230837 
L 506.005792 -337.230837 
L 504.600604 -337.230837 
L 503.195417 -320.76295 
L 501.790229 -318.974588 
L 500.385042 -62.64 
L 498.979854 -365.04 
L 497.574666 -358.607221 
L 496.169479 -337.230837 
L 494.764291 -337.230837 
L 493.359104 -337.230837 
L 491.953916 -337.230837 
L 490.548728 -337.230837 
L 489.143541 -337.230837 
L 487.738353 -337.230837 
L 486.333165 -337.230837 
L 484.927978 -337.230837 
L 483.52279 -337.230837 
L 482.117603 -337.230837 
L 480.712415 -337.230837 
L 479.307227 -337.230837 
L 477.90204 -337.230837 
L 476.496852 -337.230837 
L 475.091665 -337.230837 
L 473.686477 -337.230837 
L 472.281289 -337.230837 
L 470.876102 -337.230837 
L 469.470914 -337.230837 
L 468.065727 -337.230837 
L 466.660539 -337.230837 
L 465.255351 -337.230837 
L 463.850164 -337.230837 
L 462.444976 -337.230837 
L 461.039788 -337.230837 
L 459.634601 -337.230837 
L 458.229413 -337.230837 
L 456.824226 -337.230837 
L 455.419038 -337.230837 
L 454.01385 -337.230837 
L 452.608663 -337.230837 
L 451.203475 -337.230837 
L 449.798288 -337.230837 
L 448.3931 -337.230837 
L 446.987912 -337.230837 
L 445.582725 -337.230837 
L 444.177537 -337.230837 
L 442.77235 -337.230837 
L 441.367162 -337.230837 
L 439.961974 -337.230837 
L 438.556787 -337.230837 
L 437.151599 -337.230837 
L 435.746411 -337.230837 
L 434.341224 -337.230837 
L 432.936036 -337.230837 
L 431.530849 -337.230837 
L 430.125661 -337.230837 
L 428.720473 -337.230837 
L 427.315286 -337.230837 
L 425.910098 -337.230837 
L 424.504911 -337.230837 
L 423.099723 -337.230837 
L 421.694535 -337.230837 
L 420.289348 -337.230837 
L 418.88416 -337.230837 
L 417.478973 -337.230837 
L 416.073785 -337.230837 
L 414.668597 -337.230837 
L 413.26341 -337.230837 
L 411.858222 -337.230837 
L 410.453035 -337.230837 
L 409.047847 -337.230837 
L 407.642659 -337.230837 
L 406.237472 -337.230837 
L 404.832284 -337.230837 
L 403.427096 -337.230837 
L 402.021909 -337.230837 
L 400.616721 -337.230837 
L 399.211534 -337.230837 
L 397.806346 -337.230837 
L 396.401158 -337.230837 
L 394.995971 -337.230837 
L 393.590783 -337.230837 
L 392.185596 -337.230837 
L 390.780408 -337.230837 
L 389.37522 -337.230837 
L 387.970033 -337.230837 
L 386.564845 -337.230837 
L 385.159658 -337.230837 
L 383.75447 -337.230837 
L 382.349282 -337.230837 
L 380.944095 -337.230837 
L 379.538907 -337.230837 
L 378.133719 -337.230837 
L 376.728532 -337.230837 
L 375.323344 -337.230837 
L 373.918157 -337.230837 
L 372.512969 -337.230837 
L 371.107781 -337.230837 
L 369.702594 -337.230837 
L 368.297406 -337.230837 
L 366.892219 -337.230837 
L 365.487031 -337.230837 
L 364.081843 -337.230837 
L 362.676656 -337.230837 
L 361.271468 -337.230837 
L 359.866281 -337.230837 
L 358.461093 -337.230837 
L 357.055905 -337.230837 
L 355.650718 -337.230837 
L 354.24553 -337.230837 
L 352.840342 -337.230837 
L 351.435155 -337.230837 
L 350.029967 -337.230837 
L 348.62478 -337.230837 
L 347.219592 -337.230837 
L 345.814404 -337.230837 
L 344.409217 -337.230837 
L 343.004029 -337.230837 
L 341.598842 -337.230837 
L 340.193654 -337.230837 
L 338.788466 -337.230837 
L 337.383279 -337.230837 
L 335.978091 -337.230837 
L 334.572904 -337.230837 
L 333.167716 -337.230837 
L 331.762528 -337.230837 
L 330.357341 -337.230837 
L 328.952153 -337.230837 
L 327.546965 -337.230837 
L 326.141778 -337.230837 
L 324.73659 -337.230837 
L 323.331403 -337.230837 
L 321.926215 -337.230837 
L 320.521027 -337.230837 
L 319.11584 -337.230837 
L 317.710652 -337.230837 
L 316.305465 -337.230837 
L 314.900277 -337.230837 
L 313.495089 -337.230837 
L 312.089902 -337.230837 
L 310.684714 -337.230837 
L 309.279527 -337.230837 
L 307.874339 -337.230837 
L 306.469151 -337.230837 
L 305.063964 -337.230837 
L 303.658776 -337.230837 
L 302.253589 -337.230837 
L 300.848401 -337.230837 
L 299.443213 -337.230837 
L 298.038026 -337.230837 
L 296.632838 -337.230837 
L 295.22765 -337.230837 
L 293.822463 -337.230837 
L 292.417275 -337.230837 
L 291.012088 -337.230837 
L 289.6069 -337.230837 
L 288.201712 -337.230837 
L 286.796525 -337.230837 
L 285.391337 -337.230837 
L 283.98615 -337.230837 
L 282.580962 -337.230837 
L 281.175774 -337.230837 
L 279.770587 -337.230837 
L 278.365399 -337.230837 
L 276.960212 -337.230837 
L 275.555024 -337.230837 
L 274.149836 -337.230837 
L 272.744649 -337.230837 
L 271.339461 -337.230837 
L 269.934273 -337.230837 
L 268.529086 -337.230837 
L 267.123898 -337.230837 
L 265.718711 -337.230837 
L 264.313523 -337.230837 
L 262.908335 -337.230837 
L 261.503148 -337.230837 
L 260.09796 -337.230837 
L 258.692773 -337.230837 
L 257.287585 -337.230837 
L 255.882397 -337.230837 
L 254.47721 -337.230837 
L 253.072022 -337.230837 
L 251.666835 -337.230837 
L 250.261647 -337.230837 
L 248.856459 -337.230837 
L 247.451272 -337.230837 
L 246.046084 -337.230837 
L 244.640896 -337.230837 
L 243.235709 -337.230837 
L 241.830521 -337.230837 
L 240.425334 -337.230837 
L 239.020146 -337.230837 
L 237.614958 -337.230837 
L 236.209771 -337.230837 
L 234.804583 -337.230837 
L 233.399396 -337.230837 
L 231.994208 -337.230837 
L 230.58902 -337.230837 
L 229.183833 -337.230837 
L 227.778645 -337.230837 
L 226.373458 -337.230837 
L 224.96827 -337.230837 
L 223.563082 -337.230837 
L 222.157895 -337.230837 
L 220.752707 -337.230837 
L 219.34752 -337.230837 
L 217.942332 -337.230837 
L 216.537144 -337.230837 
L 215.131957 -337.230837 
L 213.726769 -337.230837 
L 212.321581 -337.230837 
L 210.916394 -337.230837 
L 209.511206 -337.230837 
L 208.106019 -337.230837 
L 206.700831 -337.230837 
L 205.295643 -337.230837 
L 203.890456 -337.230837 
L 202.485268 -337.230837 
L 201.080081 -337.230837 
L 199.674893 -337.230837 
L 198.269705 -337.230837 
L 196.864518 -337.230837 
L 195.45933 -337.230837 
L 194.054143 -337.230837 
L 192.648955 -337.230837 
L 191.243767 -337.230837 
L 189.83858 -337.230837 
L 188.433392 -337.230837 
L 187.028204 -337.230837 
L 185.623017 -337.230837 
L 184.217829 -337.230837 
L 182.812642 -337.230837 
L 181.407454 -337.230837 
L 180.002266 -337.230837 
L 178.597079 -337.230837 
L 177.191891 -337.230837 
L 175.786704 -337.230837 
L 174.381516 -337.230837 
L 172.976328 -337.230837 
L 171.571141 -337.230837 
L 170.165953 -337.230837 
L 168.760766 -337.230837 
L 167.355578 -337.230837 
L 165.95039 -337.230837 
L 164.545203 -337.230837 
L 163.140015 -337.230837 
L 161.734827 -337.230837 
L 160.32964 -337.230837 
L 158.924452 -337.230837 
L 157.519265 -337.230837 
L 156.114077 -337.230837 
L 154.708889 -337.230837 
L 153.303702 -337.230837 
L 151.898514 -337.230837 
L 150.493327 -337.230837 
L 149.088139 -337.230837 
L 147.682951 -337.230837 
L 146.277764 -337.230837 
L 144.872576 -337.230837 
L 143.467389 -337.230837 
L 142.062201 -337.230837 
L 140.657013 -337.230837 
L 139.251826 -337.230837 
L 137.846638 -337.230837 
L 136.441451 -337.230837 
L 135.036263 -337.230837 
L 133.631075 -337.230837 
L 132.225888 -337.230837 
L 130.8207 -337.230837 
L 129.415512 -337.230837 
L 128.010325 -337.230837 
L 126.605137 -337.230837 
L 125.19995 -337.230837 
L 123.794762 -337.230837 
L 122.389574 -337.230837 
L 120.984387 -337.230837 
L 119.579199 -337.230837 
L 118.174012 -337.230837 
L 116.768824 -337.230837 
L 115.363636 -337.230837 
z
" id="m1ce4a7166b" style="stroke:#0072b2;stroke-opacity:0.2;"/>
    </defs>
    <g clip-path="url(#p5b2c4681dc)">
     <use style="fill:#0072b2;fill-opacity:0.2;stroke:#0072b2;stroke-opacity:0.2;" x="0" xlink:href="#m1ce4a7166b" y="432"/>
    </g>
   </g>
   <g id="matplotlib.axis_1">
    <g id="xtick_1">
     <g id="line2d_1">
      <path clip-path="url(#p5b2c4681dc)" d="M 101.31176 384.48 
L 101.31176 51.84 
" style="fill:none;stroke:#808080;stroke-linecap:square;stroke-opacity:0.2;"/>
     </g>
     <g id="line2d_2">
      <defs>
       <path d="M 0 0 
L 0 3.5 
" id="mf48dc6f4aa" style="stroke:#000000;stroke-width:0.8;"/>
      </defs>
      <g>
       <use style="stroke:#000000;stroke-width:0.8;" x="101.31176" xlink:href="#mf48dc6f4aa" y="384.48"/>
      </g>
     </g>
     <g id="text_1">
      <!-- 2020-02 -->
      <g transform="translate(80.420354 399.078438)scale(0.1 -0.1)">
       <defs>
        <path d="M 19.1875 8.296875 
L 53.609375 8.296875 
L 53.609375 0 
L 7.328125 0 
L 7.328125 8.296875 
Q 12.9375 14.109375 22.625 23.890625 
Q 32.328125 33.6875 34.8125 36.53125 
Q 39.546875 41.84375 41.421875 45.53125 
Q 43.3125 49.21875 43.3125 52.78125 
Q 43.3125 58.59375 39.234375 62.25 
Q 35.15625 65.921875 28.609375 65.921875 
Q 23.96875 65.921875 18.8125 64.3125 
Q 13.671875 62.703125 7.8125 59.421875 
L 7.8125 69.390625 
Q 13.765625 71.78125 18.9375 73 
Q 24.125 74.21875 28.421875 74.21875 
Q 39.75 74.21875 46.484375 68.546875 
Q 53.21875 62.890625 53.21875 53.421875 
Q 53.21875 48.921875 51.53125 44.890625 
Q 49.859375 40.875 45.40625 35.40625 
Q 44.1875 33.984375 37.640625 27.21875 
Q 31.109375 20.453125 19.1875 8.296875 
z
" id="DejaVuSans-50"/>
        <path d="M 31.78125 66.40625 
Q 24.171875 66.40625 20.328125 58.90625 
Q 16.5 51.421875 16.5 36.375 
Q 16.5 21.390625 20.328125 13.890625 
Q 24.171875 6.390625 31.78125 6.390625 
Q 39.453125 6.390625 43.28125 13.890625 
Q 47.125 21.390625 47.125 36.375 
Q 47.125 51.421875 43.28125 58.90625 
Q 39.453125 66.40625 31.78125 66.40625 
z
M 31.78125 74.21875 
Q 44.046875 74.21875 50.515625 64.515625 
Q 56.984375 54.828125 56.984375 36.375 
Q 56.984375 17.96875 50.515625 8.265625 
Q 44.046875 -1.421875 31.78125 -1.421875 
Q 19.53125 -1.421875 13.0625 8.265625 
Q 6.59375 17.96875 6.59375 36.375 
Q 6.59375 54.828125 13.0625 64.515625 
Q 19.53125 74.21875 31.78125 74.21875 
z
" id="DejaVuSans-48"/>
        <path d="M 4.890625 31.390625 
L 31.203125 31.390625 
L 31.203125 23.390625 
L 4.890625 23.390625 
z
" id="DejaVuSans-45"/>
       </defs>
       <use xlink:href="#DejaVuSans-50"/>
       <use x="63.623047" xlink:href="#DejaVuSans-48"/>
       <use x="127.246094" xlink:href="#DejaVuSans-50"/>
       <use x="190.869141" xlink:href="#DejaVuSans-48"/>
       <use x="254.492188" xlink:href="#DejaVuSans-45"/>
       <use x="290.576172" xlink:href="#DejaVuSans-48"/>
       <use x="354.199219" xlink:href="#DejaVuSans-50"/>
      </g>
     </g>
    </g>
    <g id="xtick_2">
     <g id="line2d_3">
      <path clip-path="url(#p5b2c4681dc)" d="M 185.623017 384.48 
L 185.623017 51.84 
" style="fill:none;stroke:#808080;stroke-linecap:square;stroke-opacity:0.2;"/>
     </g>
     <g id="line2d_4">
      <g>
       <use style="stroke:#000000;stroke-width:0.8;" x="185.623017" xlink:href="#mf48dc6f4aa" y="384.48"/>
      </g>
     </g>
     <g id="text_2">
      <!-- 2020-04 -->
      <g transform="translate(164.731611 399.078438)scale(0.1 -0.1)">
       <defs>
        <path d="M 37.796875 64.3125 
L 12.890625 25.390625 
L 37.796875 25.390625 
z
M 35.203125 72.90625 
L 47.609375 72.90625 
L 47.609375 25.390625 
L 58.015625 25.390625 
L 58.015625 17.1875 
L 47.609375 17.1875 
L 47.609375 0 
L 37.796875 0 
L 37.796875 17.1875 
L 4.890625 17.1875 
L 4.890625 26.703125 
z
" id="DejaVuSans-52"/>
       </defs>
       <use xlink:href="#DejaVuSans-50"/>
       <use x="63.623047" xlink:href="#DejaVuSans-48"/>
       <use x="127.246094" xlink:href="#DejaVuSans-50"/>
       <use x="190.869141" xlink:href="#DejaVuSans-48"/>
       <use x="254.492188" xlink:href="#DejaVuSans-45"/>
       <use x="290.576172" xlink:href="#DejaVuSans-48"/>
       <use x="354.199219" xlink:href="#DejaVuSans-52"/>
      </g>
     </g>
    </g>
    <g id="xtick_3">
     <g id="line2d_5">
      <path clip-path="url(#p5b2c4681dc)" d="M 271.339461 384.48 
L 271.339461 51.84 
" style="fill:none;stroke:#808080;stroke-linecap:square;stroke-opacity:0.2;"/>
     </g>
     <g id="line2d_6">
      <g>
       <use style="stroke:#000000;stroke-width:0.8;" x="271.339461" xlink:href="#mf48dc6f4aa" y="384.48"/>
      </g>
     </g>
     <g id="text_3">
      <!-- 2020-06 -->
      <g transform="translate(250.448055 399.078438)scale(0.1 -0.1)">
       <defs>
        <path d="M 33.015625 40.375 
Q 26.375 40.375 22.484375 35.828125 
Q 18.609375 31.296875 18.609375 23.390625 
Q 18.609375 15.53125 22.484375 10.953125 
Q 26.375 6.390625 33.015625 6.390625 
Q 39.65625 6.390625 43.53125 10.953125 
Q 47.40625 15.53125 47.40625 23.390625 
Q 47.40625 31.296875 43.53125 35.828125 
Q 39.65625 40.375 33.015625 40.375 
z
M 52.59375 71.296875 
L 52.59375 62.3125 
Q 48.875 64.0625 45.09375 64.984375 
Q 41.3125 65.921875 37.59375 65.921875 
Q 27.828125 65.921875 22.671875 59.328125 
Q 17.53125 52.734375 16.796875 39.40625 
Q 19.671875 43.65625 24.015625 45.921875 
Q 28.375 48.1875 33.59375 48.1875 
Q 44.578125 48.1875 50.953125 41.515625 
Q 57.328125 34.859375 57.328125 23.390625 
Q 57.328125 12.15625 50.6875 5.359375 
Q 44.046875 -1.421875 33.015625 -1.421875 
Q 20.359375 -1.421875 13.671875 8.265625 
Q 6.984375 17.96875 6.984375 36.375 
Q 6.984375 53.65625 15.1875 63.9375 
Q 23.390625 74.21875 37.203125 74.21875 
Q 40.921875 74.21875 44.703125 73.484375 
Q 48.484375 72.75 52.59375 71.296875 
z
" id="DejaVuSans-54"/>
       </defs>
       <use xlink:href="#DejaVuSans-50"/>
       <use x="63.623047" xlink:href="#DejaVuSans-48"/>
       <use x="127.246094" xlink:href="#DejaVuSans-50"/>
       <use x="190.869141" xlink:href="#DejaVuSans-48"/>
       <use x="254.492188" xlink:href="#DejaVuSans-45"/>
       <use x="290.576172" xlink:href="#DejaVuSans-48"/>
       <use x="354.199219" xlink:href="#DejaVuSans-54"/>
      </g>
     </g>
    </g>
    <g id="xtick_4">
     <g id="line2d_7">
      <path clip-path="url(#p5b2c4681dc)" d="M 357.055905 384.48 
L 357.055905 51.84 
" style="fill:none;stroke:#808080;stroke-linecap:square;stroke-opacity:0.2;"/>
     </g>
     <g id="line2d_8">
      <g>
       <use style="stroke:#000000;stroke-width:0.8;" x="357.055905" xlink:href="#mf48dc6f4aa" y="384.48"/>
      </g>
     </g>
     <g id="text_4">
      <!-- 2020-08 -->
      <g transform="translate(336.164499 399.078438)scale(0.1 -0.1)">
       <defs>
        <path d="M 31.78125 34.625 
Q 24.75 34.625 20.71875 30.859375 
Q 16.703125 27.09375 16.703125 20.515625 
Q 16.703125 13.921875 20.71875 10.15625 
Q 24.75 6.390625 31.78125 6.390625 
Q 38.8125 6.390625 42.859375 10.171875 
Q 46.921875 13.96875 46.921875 20.515625 
Q 46.921875 27.09375 42.890625 30.859375 
Q 38.875 34.625 31.78125 34.625 
z
M 21.921875 38.8125 
Q 15.578125 40.375 12.03125 44.71875 
Q 8.5 49.078125 8.5 55.328125 
Q 8.5 64.0625 14.71875 69.140625 
Q 20.953125 74.21875 31.78125 74.21875 
Q 42.671875 74.21875 48.875 69.140625 
Q 55.078125 64.0625 55.078125 55.328125 
Q 55.078125 49.078125 51.53125 44.71875 
Q 48 40.375 41.703125 38.8125 
Q 48.828125 37.15625 52.796875 32.3125 
Q 56.78125 27.484375 56.78125 20.515625 
Q 56.78125 9.90625 50.3125 4.234375 
Q 43.84375 -1.421875 31.78125 -1.421875 
Q 19.734375 -1.421875 13.25 4.234375 
Q 6.78125 9.90625 6.78125 20.515625 
Q 6.78125 27.484375 10.78125 32.3125 
Q 14.796875 37.15625 21.921875 38.8125 
z
M 18.3125 54.390625 
Q 18.3125 48.734375 21.84375 45.5625 
Q 25.390625 42.390625 31.78125 42.390625 
Q 38.140625 42.390625 41.71875 45.5625 
Q 45.3125 48.734375 45.3125 54.390625 
Q 45.3125 60.0625 41.71875 63.234375 
Q 38.140625 66.40625 31.78125 66.40625 
Q 25.390625 66.40625 21.84375 63.234375 
Q 18.3125 60.0625 18.3125 54.390625 
z
" id="DejaVuSans-56"/>
       </defs>
       <use xlink:href="#DejaVuSans-50"/>
       <use x="63.623047" xlink:href="#DejaVuSans-48"/>
       <use x="127.246094" xlink:href="#DejaVuSans-50"/>
       <use x="190.869141" xlink:href="#DejaVuSans-48"/>
       <use x="254.492188" xlink:href="#DejaVuSans-45"/>
       <use x="290.576172" xlink:href="#DejaVuSans-48"/>
       <use x="354.199219" xlink:href="#DejaVuSans-56"/>
      </g>
     </g>
    </g>
    <g id="xtick_5">
     <g id="line2d_9">
      <path clip-path="url(#p5b2c4681dc)" d="M 442.77235 384.48 
L 442.77235 51.84 
" style="fill:none;stroke:#808080;stroke-linecap:square;stroke-opacity:0.2;"/>
     </g>
     <g id="line2d_10">
      <g>
       <use style="stroke:#000000;stroke-width:0.8;" x="442.77235" xlink:href="#mf48dc6f4aa" y="384.48"/>
      </g>
     </g>
     <g id="text_5">
      <!-- 2020-10 -->
      <g transform="translate(421.880943 399.078438)scale(0.1 -0.1)">
       <defs>
        <path d="M 12.40625 8.296875 
L 28.515625 8.296875 
L 28.515625 63.921875 
L 10.984375 60.40625 
L 10.984375 69.390625 
L 28.421875 72.90625 
L 38.28125 72.90625 
L 38.28125 8.296875 
L 54.390625 8.296875 
L 54.390625 0 
L 12.40625 0 
z
" id="DejaVuSans-49"/>
       </defs>
       <use xlink:href="#DejaVuSans-50"/>
       <use x="63.623047" xlink:href="#DejaVuSans-48"/>
       <use x="127.246094" xlink:href="#DejaVuSans-50"/>
       <use x="190.869141" xlink:href="#DejaVuSans-48"/>
       <use x="254.492188" xlink:href="#DejaVuSans-45"/>
       <use x="290.576172" xlink:href="#DejaVuSans-49"/>
       <use x="354.199219" xlink:href="#DejaVuSans-48"/>
      </g>
     </g>
    </g>
    <g id="xtick_6">
     <g id="line2d_11">
      <path clip-path="url(#p5b2c4681dc)" d="M 528.488794 384.48 
L 528.488794 51.84 
" style="fill:none;stroke:#808080;stroke-linecap:square;stroke-opacity:0.2;"/>
     </g>
     <g id="line2d_12">
      <g>
       <use style="stroke:#000000;stroke-width:0.8;" x="528.488794" xlink:href="#mf48dc6f4aa" y="384.48"/>
      </g>
     </g>
     <g id="text_6">
      <!-- 2020-12 -->
      <g transform="translate(507.597388 399.078438)scale(0.1 -0.1)">
       <use xlink:href="#DejaVuSans-50"/>
       <use x="63.623047" xlink:href="#DejaVuSans-48"/>
       <use x="127.246094" xlink:href="#DejaVuSans-50"/>
       <use x="190.869141" xlink:href="#DejaVuSans-48"/>
       <use x="254.492188" xlink:href="#DejaVuSans-45"/>
       <use x="290.576172" xlink:href="#DejaVuSans-49"/>
       <use x="354.199219" xlink:href="#DejaVuSans-50"/>
      </g>
     </g>
    </g>
    <g id="xtick_7">
     <g id="line2d_13">
      <path clip-path="url(#p5b2c4681dc)" d="M 615.610426 384.48 
L 615.610426 51.84 
" style="fill:none;stroke:#808080;stroke-linecap:square;stroke-opacity:0.2;"/>
     </g>
     <g id="line2d_14">
      <g>
       <use style="stroke:#000000;stroke-width:0.8;" x="615.610426" xlink:href="#mf48dc6f4aa" y="384.48"/>
      </g>
     </g>
     <g id="text_7">
      <!-- 2021-02 -->
      <g transform="translate(594.719019 399.078438)scale(0.1 -0.1)">
       <use xlink:href="#DejaVuSans-50"/>
       <use x="63.623047" xlink:href="#DejaVuSans-48"/>
       <use x="127.246094" xlink:href="#DejaVuSans-50"/>
       <use x="190.869141" xlink:href="#DejaVuSans-49"/>
       <use x="254.492188" xlink:href="#DejaVuSans-45"/>
       <use x="290.576172" xlink:href="#DejaVuSans-48"/>
       <use x="354.199219" xlink:href="#DejaVuSans-50"/>
      </g>
     </g>
    </g>
    <g id="text_8">
     <!-- ds -->
     <g transform="translate(363.221094 412.756563)scale(0.1 -0.1)">
      <defs>
       <path d="M 45.40625 46.390625 
L 45.40625 75.984375 
L 54.390625 75.984375 
L 54.390625 0 
L 45.40625 0 
L 45.40625 8.203125 
Q 42.578125 3.328125 38.25 0.953125 
Q 33.9375 -1.421875 27.875 -1.421875 
Q 17.96875 -1.421875 11.734375 6.484375 
Q 5.515625 14.40625 5.515625 27.296875 
Q 5.515625 40.1875 11.734375 48.09375 
Q 17.96875 56 27.875 56 
Q 33.9375 56 38.25 53.625 
Q 42.578125 51.265625 45.40625 46.390625 
z
M 14.796875 27.296875 
Q 14.796875 17.390625 18.875 11.75 
Q 22.953125 6.109375 30.078125 6.109375 
Q 37.203125 6.109375 41.296875 11.75 
Q 45.40625 17.390625 45.40625 27.296875 
Q 45.40625 37.203125 41.296875 42.84375 
Q 37.203125 48.484375 30.078125 48.484375 
Q 22.953125 48.484375 18.875 42.84375 
Q 14.796875 37.203125 14.796875 27.296875 
z
" id="DejaVuSans-100"/>
       <path d="M 44.28125 53.078125 
L 44.28125 44.578125 
Q 40.484375 46.53125 36.375 47.5 
Q 32.28125 48.484375 27.875 48.484375 
Q 21.1875 48.484375 17.84375 46.4375 
Q 14.5 44.390625 14.5 40.28125 
Q 14.5 37.15625 16.890625 35.375 
Q 19.28125 33.59375 26.515625 31.984375 
L 29.59375 31.296875 
Q 39.15625 29.25 43.1875 25.515625 
Q 47.21875 21.78125 47.21875 15.09375 
Q 47.21875 7.46875 41.1875 3.015625 
Q 35.15625 -1.421875 24.609375 -1.421875 
Q 20.21875 -1.421875 15.453125 -0.5625 
Q 10.6875 0.296875 5.421875 2 
L 5.421875 11.28125 
Q 10.40625 8.6875 15.234375 7.390625 
Q 20.0625 6.109375 24.8125 6.109375 
Q 31.15625 6.109375 34.5625 8.28125 
Q 37.984375 10.453125 37.984375 14.40625 
Q 37.984375 18.0625 35.515625 20.015625 
Q 33.0625 21.96875 24.703125 23.78125 
L 21.578125 24.515625 
Q 13.234375 26.265625 9.515625 29.90625 
Q 5.8125 33.546875 5.8125 39.890625 
Q 5.8125 47.609375 11.28125 51.796875 
Q 16.75 56 26.8125 56 
Q 31.78125 56 36.171875 55.265625 
Q 40.578125 54.546875 44.28125 53.078125 
z
" id="DejaVuSans-115"/>
      </defs>
      <use xlink:href="#DejaVuSans-100"/>
      <use x="63.476562" xlink:href="#DejaVuSans-115"/>
     </g>
    </g>
   </g>
   <g id="matplotlib.axis_2">
    <g id="ytick_1">
     <g id="line2d_15">
      <path clip-path="url(#p5b2c4681dc)" d="M 90 331.65049 
L 648 331.65049 
" style="fill:none;stroke:#808080;stroke-linecap:square;stroke-opacity:0.2;"/>
     </g>
     <g id="line2d_16">
      <defs>
       <path d="M 0 0 
L -3.5 0 
" id="mda48bf3a2a" style="stroke:#000000;stroke-width:0.8;"/>
      </defs>
      <g>
       <use style="stroke:#000000;stroke-width:0.8;" x="90" xlink:href="#mda48bf3a2a" y="331.65049"/>
      </g>
     </g>
     <g id="text_9">
      <!-- −20 -->
      <g transform="translate(61.895313 335.449708)scale(0.1 -0.1)">
       <defs>
        <path d="M 10.59375 35.5 
L 73.1875 35.5 
L 73.1875 27.203125 
L 10.59375 27.203125 
z
" id="DejaVuSans-8722"/>
       </defs>
       <use xlink:href="#DejaVuSans-8722"/>
       <use x="83.789062" xlink:href="#DejaVuSans-50"/>
       <use x="147.412109" xlink:href="#DejaVuSans-48"/>
      </g>
     </g>
    </g>
    <g id="ytick_2">
     <g id="line2d_17">
      <path clip-path="url(#p5b2c4681dc)" d="M 90 272.430158 
L 648 272.430158 
" style="fill:none;stroke:#808080;stroke-linecap:square;stroke-opacity:0.2;"/>
     </g>
     <g id="line2d_18">
      <g>
       <use style="stroke:#000000;stroke-width:0.8;" x="90" xlink:href="#mda48bf3a2a" y="272.430158"/>
      </g>
     </g>
     <g id="text_10">
      <!-- −15 -->
      <g transform="translate(61.895313 276.229377)scale(0.1 -0.1)">
       <defs>
        <path d="M 10.796875 72.90625 
L 49.515625 72.90625 
L 49.515625 64.59375 
L 19.828125 64.59375 
L 19.828125 46.734375 
Q 21.96875 47.46875 24.109375 47.828125 
Q 26.265625 48.1875 28.421875 48.1875 
Q 40.625 48.1875 47.75 41.5 
Q 54.890625 34.8125 54.890625 23.390625 
Q 54.890625 11.625 47.5625 5.09375 
Q 40.234375 -1.421875 26.90625 -1.421875 
Q 22.3125 -1.421875 17.546875 -0.640625 
Q 12.796875 0.140625 7.71875 1.703125 
L 7.71875 11.625 
Q 12.109375 9.234375 16.796875 8.0625 
Q 21.484375 6.890625 26.703125 6.890625 
Q 35.15625 6.890625 40.078125 11.328125 
Q 45.015625 15.765625 45.015625 23.390625 
Q 45.015625 31 40.078125 35.4375 
Q 35.15625 39.890625 26.703125 39.890625 
Q 22.75 39.890625 18.8125 39.015625 
Q 14.890625 38.140625 10.796875 36.28125 
z
" id="DejaVuSans-53"/>
       </defs>
       <use xlink:href="#DejaVuSans-8722"/>
       <use x="83.789062" xlink:href="#DejaVuSans-49"/>
       <use x="147.412109" xlink:href="#DejaVuSans-53"/>
      </g>
     </g>
    </g>
    <g id="ytick_3">
     <g id="line2d_19">
      <path clip-path="url(#p5b2c4681dc)" d="M 90 213.209826 
L 648 213.209826 
" style="fill:none;stroke:#808080;stroke-linecap:square;stroke-opacity:0.2;"/>
     </g>
     <g id="line2d_20">
      <g>
       <use style="stroke:#000000;stroke-width:0.8;" x="90" xlink:href="#mda48bf3a2a" y="213.209826"/>
      </g>
     </g>
     <g id="text_11">
      <!-- −10 -->
      <g transform="translate(61.895313 217.009045)scale(0.1 -0.1)">
       <use xlink:href="#DejaVuSans-8722"/>
       <use x="83.789062" xlink:href="#DejaVuSans-49"/>
       <use x="147.412109" xlink:href="#DejaVuSans-48"/>
      </g>
     </g>
    </g>
    <g id="ytick_4">
     <g id="line2d_21">
      <path clip-path="url(#p5b2c4681dc)" d="M 90 153.989495 
L 648 153.989495 
" style="fill:none;stroke:#808080;stroke-linecap:square;stroke-opacity:0.2;"/>
     </g>
     <g id="line2d_22">
      <g>
       <use style="stroke:#000000;stroke-width:0.8;" x="90" xlink:href="#mda48bf3a2a" y="153.989495"/>
      </g>
     </g>
     <g id="text_12">
      <!-- −5 -->
      <g transform="translate(68.257812 157.788713)scale(0.1 -0.1)">
       <use xlink:href="#DejaVuSans-8722"/>
       <use x="83.789062" xlink:href="#DejaVuSans-53"/>
      </g>
     </g>
    </g>
    <g id="ytick_5">
     <g id="line2d_23">
      <path clip-path="url(#p5b2c4681dc)" d="M 90 94.769163 
L 648 94.769163 
" style="fill:none;stroke:#808080;stroke-linecap:square;stroke-opacity:0.2;"/>
     </g>
     <g id="line2d_24">
      <g>
       <use style="stroke:#000000;stroke-width:0.8;" x="90" xlink:href="#mda48bf3a2a" y="94.769163"/>
      </g>
     </g>
     <g id="text_13">
      <!-- 0 -->
      <g transform="translate(76.6375 98.568382)scale(0.1 -0.1)">
       <use xlink:href="#DejaVuSans-48"/>
      </g>
     </g>
    </g>
    <g id="text_14">
     <!-- Preisänderung_in_singles_day -->
     <g transform="translate(55.5375 292.813906)rotate(-90)scale(0.1 -0.1)">
      <defs>
       <path d="M 19.671875 64.796875 
L 19.671875 37.40625 
L 32.078125 37.40625 
Q 38.96875 37.40625 42.71875 40.96875 
Q 46.484375 44.53125 46.484375 51.125 
Q 46.484375 57.671875 42.71875 61.234375 
Q 38.96875 64.796875 32.078125 64.796875 
z
M 9.8125 72.90625 
L 32.078125 72.90625 
Q 44.34375 72.90625 50.609375 67.359375 
Q 56.890625 61.8125 56.890625 51.125 
Q 56.890625 40.328125 50.609375 34.8125 
Q 44.34375 29.296875 32.078125 29.296875 
L 19.671875 29.296875 
L 19.671875 0 
L 9.8125 0 
z
" id="DejaVuSans-80"/>
       <path d="M 41.109375 46.296875 
Q 39.59375 47.171875 37.8125 47.578125 
Q 36.03125 48 33.890625 48 
Q 26.265625 48 22.1875 43.046875 
Q 18.109375 38.09375 18.109375 28.8125 
L 18.109375 0 
L 9.078125 0 
L 9.078125 54.6875 
L 18.109375 54.6875 
L 18.109375 46.1875 
Q 20.953125 51.171875 25.484375 53.578125 
Q 30.03125 56 36.53125 56 
Q 37.453125 56 38.578125 55.875 
Q 39.703125 55.765625 41.0625 55.515625 
z
" id="DejaVuSans-114"/>
       <path d="M 56.203125 29.59375 
L 56.203125 25.203125 
L 14.890625 25.203125 
Q 15.484375 15.921875 20.484375 11.0625 
Q 25.484375 6.203125 34.421875 6.203125 
Q 39.59375 6.203125 44.453125 7.46875 
Q 49.3125 8.734375 54.109375 11.28125 
L 54.109375 2.78125 
Q 49.265625 0.734375 44.1875 -0.34375 
Q 39.109375 -1.421875 33.890625 -1.421875 
Q 20.796875 -1.421875 13.15625 6.1875 
Q 5.515625 13.8125 5.515625 26.8125 
Q 5.515625 40.234375 12.765625 48.109375 
Q 20.015625 56 32.328125 56 
Q 43.359375 56 49.78125 48.890625 
Q 56.203125 41.796875 56.203125 29.59375 
z
M 47.21875 32.234375 
Q 47.125 39.59375 43.09375 43.984375 
Q 39.0625 48.390625 32.421875 48.390625 
Q 24.90625 48.390625 20.390625 44.140625 
Q 15.875 39.890625 15.1875 32.171875 
z
" id="DejaVuSans-101"/>
       <path d="M 9.421875 54.6875 
L 18.40625 54.6875 
L 18.40625 0 
L 9.421875 0 
z
M 9.421875 75.984375 
L 18.40625 75.984375 
L 18.40625 64.59375 
L 9.421875 64.59375 
z
" id="DejaVuSans-105"/>
       <path d="M 34.28125 27.484375 
Q 23.390625 27.484375 19.1875 25 
Q 14.984375 22.515625 14.984375 16.5 
Q 14.984375 11.71875 18.140625 8.90625 
Q 21.296875 6.109375 26.703125 6.109375 
Q 34.1875 6.109375 38.703125 11.40625 
Q 43.21875 16.703125 43.21875 25.484375 
L 43.21875 27.484375 
z
M 52.203125 31.203125 
L 52.203125 0 
L 43.21875 0 
L 43.21875 8.296875 
Q 40.140625 3.328125 35.546875 0.953125 
Q 30.953125 -1.421875 24.3125 -1.421875 
Q 15.921875 -1.421875 10.953125 3.296875 
Q 6 8.015625 6 15.921875 
Q 6 25.140625 12.171875 29.828125 
Q 18.359375 34.515625 30.609375 34.515625 
L 43.21875 34.515625 
L 43.21875 35.40625 
Q 43.21875 41.609375 39.140625 45 
Q 35.0625 48.390625 27.6875 48.390625 
Q 23 48.390625 18.546875 47.265625 
Q 14.109375 46.140625 10.015625 43.890625 
L 10.015625 52.203125 
Q 14.9375 54.109375 19.578125 55.046875 
Q 24.21875 56 28.609375 56 
Q 40.484375 56 46.34375 49.84375 
Q 52.203125 43.703125 52.203125 31.203125 
z
M 33.59375 75.78125 
L 43.5 75.78125 
L 43.5 65.921875 
L 33.59375 65.921875 
z
M 14.5 75.78125 
L 24.40625 75.78125 
L 24.40625 65.921875 
L 14.5 65.921875 
z
" id="DejaVuSans-228"/>
       <path d="M 54.890625 33.015625 
L 54.890625 0 
L 45.90625 0 
L 45.90625 32.71875 
Q 45.90625 40.484375 42.875 44.328125 
Q 39.84375 48.1875 33.796875 48.1875 
Q 26.515625 48.1875 22.3125 43.546875 
Q 18.109375 38.921875 18.109375 30.90625 
L 18.109375 0 
L 9.078125 0 
L 9.078125 54.6875 
L 18.109375 54.6875 
L 18.109375 46.1875 
Q 21.34375 51.125 25.703125 53.5625 
Q 30.078125 56 35.796875 56 
Q 45.21875 56 50.046875 50.171875 
Q 54.890625 44.34375 54.890625 33.015625 
z
" id="DejaVuSans-110"/>
       <path d="M 8.5 21.578125 
L 8.5 54.6875 
L 17.484375 54.6875 
L 17.484375 21.921875 
Q 17.484375 14.15625 20.5 10.265625 
Q 23.53125 6.390625 29.59375 6.390625 
Q 36.859375 6.390625 41.078125 11.03125 
Q 45.3125 15.671875 45.3125 23.6875 
L 45.3125 54.6875 
L 54.296875 54.6875 
L 54.296875 0 
L 45.3125 0 
L 45.3125 8.40625 
Q 42.046875 3.421875 37.71875 1 
Q 33.40625 -1.421875 27.6875 -1.421875 
Q 18.265625 -1.421875 13.375 4.4375 
Q 8.5 10.296875 8.5 21.578125 
z
M 31.109375 56 
z
" id="DejaVuSans-117"/>
       <path d="M 45.40625 27.984375 
Q 45.40625 37.75 41.375 43.109375 
Q 37.359375 48.484375 30.078125 48.484375 
Q 22.859375 48.484375 18.828125 43.109375 
Q 14.796875 37.75 14.796875 27.984375 
Q 14.796875 18.265625 18.828125 12.890625 
Q 22.859375 7.515625 30.078125 7.515625 
Q 37.359375 7.515625 41.375 12.890625 
Q 45.40625 18.265625 45.40625 27.984375 
z
M 54.390625 6.78125 
Q 54.390625 -7.171875 48.1875 -13.984375 
Q 42 -20.796875 29.203125 -20.796875 
Q 24.46875 -20.796875 20.265625 -20.09375 
Q 16.0625 -19.390625 12.109375 -17.921875 
L 12.109375 -9.1875 
Q 16.0625 -11.328125 19.921875 -12.34375 
Q 23.78125 -13.375 27.78125 -13.375 
Q 36.625 -13.375 41.015625 -8.765625 
Q 45.40625 -4.15625 45.40625 5.171875 
L 45.40625 9.625 
Q 42.625 4.78125 38.28125 2.390625 
Q 33.9375 0 27.875 0 
Q 17.828125 0 11.671875 7.65625 
Q 5.515625 15.328125 5.515625 27.984375 
Q 5.515625 40.671875 11.671875 48.328125 
Q 17.828125 56 27.875 56 
Q 33.9375 56 38.28125 53.609375 
Q 42.625 51.21875 45.40625 46.390625 
L 45.40625 54.6875 
L 54.390625 54.6875 
z
" id="DejaVuSans-103"/>
       <path d="M 50.984375 -16.609375 
L 50.984375 -23.578125 
L -0.984375 -23.578125 
L -0.984375 -16.609375 
z
" id="DejaVuSans-95"/>
       <path d="M 9.421875 75.984375 
L 18.40625 75.984375 
L 18.40625 0 
L 9.421875 0 
z
" id="DejaVuSans-108"/>
       <path d="M 34.28125 27.484375 
Q 23.390625 27.484375 19.1875 25 
Q 14.984375 22.515625 14.984375 16.5 
Q 14.984375 11.71875 18.140625 8.90625 
Q 21.296875 6.109375 26.703125 6.109375 
Q 34.1875 6.109375 38.703125 11.40625 
Q 43.21875 16.703125 43.21875 25.484375 
L 43.21875 27.484375 
z
M 52.203125 31.203125 
L 52.203125 0 
L 43.21875 0 
L 43.21875 8.296875 
Q 40.140625 3.328125 35.546875 0.953125 
Q 30.953125 -1.421875 24.3125 -1.421875 
Q 15.921875 -1.421875 10.953125 3.296875 
Q 6 8.015625 6 15.921875 
Q 6 25.140625 12.171875 29.828125 
Q 18.359375 34.515625 30.609375 34.515625 
L 43.21875 34.515625 
L 43.21875 35.40625 
Q 43.21875 41.609375 39.140625 45 
Q 35.0625 48.390625 27.6875 48.390625 
Q 23 48.390625 18.546875 47.265625 
Q 14.109375 46.140625 10.015625 43.890625 
L 10.015625 52.203125 
Q 14.9375 54.109375 19.578125 55.046875 
Q 24.21875 56 28.609375 56 
Q 40.484375 56 46.34375 49.84375 
Q 52.203125 43.703125 52.203125 31.203125 
z
" id="DejaVuSans-97"/>
       <path d="M 32.171875 -5.078125 
Q 28.375 -14.84375 24.75 -17.8125 
Q 21.140625 -20.796875 15.09375 -20.796875 
L 7.90625 -20.796875 
L 7.90625 -13.28125 
L 13.1875 -13.28125 
Q 16.890625 -13.28125 18.9375 -11.515625 
Q 21 -9.765625 23.484375 -3.21875 
L 25.09375 0.875 
L 2.984375 54.6875 
L 12.5 54.6875 
L 29.59375 11.921875 
L 46.6875 54.6875 
L 56.203125 54.6875 
z
" id="DejaVuSans-121"/>
      </defs>
      <use xlink:href="#DejaVuSans-80"/>
      <use x="58.552734" xlink:href="#DejaVuSans-114"/>
      <use x="97.416016" xlink:href="#DejaVuSans-101"/>
      <use x="158.939453" xlink:href="#DejaVuSans-105"/>
      <use x="186.722656" xlink:href="#DejaVuSans-115"/>
      <use x="238.822266" xlink:href="#DejaVuSans-228"/>
      <use x="300.101562" xlink:href="#DejaVuSans-110"/>
      <use x="363.480469" xlink:href="#DejaVuSans-100"/>
      <use x="426.957031" xlink:href="#DejaVuSans-101"/>
      <use x="488.480469" xlink:href="#DejaVuSans-114"/>
      <use x="529.59375" xlink:href="#DejaVuSans-117"/>
      <use x="592.972656" xlink:href="#DejaVuSans-110"/>
      <use x="656.351562" xlink:href="#DejaVuSans-103"/>
      <use x="719.828125" xlink:href="#DejaVuSans-95"/>
      <use x="769.828125" xlink:href="#DejaVuSans-105"/>
      <use x="797.611328" xlink:href="#DejaVuSans-110"/>
      <use x="860.990234" xlink:href="#DejaVuSans-95"/>
      <use x="910.990234" xlink:href="#DejaVuSans-115"/>
      <use x="963.089844" xlink:href="#DejaVuSans-105"/>
      <use x="990.873047" xlink:href="#DejaVuSans-110"/>
      <use x="1054.251953" xlink:href="#DejaVuSans-103"/>
      <use x="1117.728516" xlink:href="#DejaVuSans-108"/>
      <use x="1145.511719" xlink:href="#DejaVuSans-101"/>
      <use x="1207.035156" xlink:href="#DejaVuSans-115"/>
      <use x="1259.134766" xlink:href="#DejaVuSans-95"/>
      <use x="1309.134766" xlink:href="#DejaVuSans-100"/>
      <use x="1372.611328" xlink:href="#DejaVuSans-97"/>
      <use x="1433.890625" xlink:href="#DejaVuSans-121"/>
     </g>
    </g>
   </g>
   <g id="line2d_25">
    <path clip-path="url(#p5b2c4681dc)" d="M 115.363636 94.769163 
L 496.169479 94.769163 
L 497.574666 73.392779 
L 498.979854 66.96 
L 500.385042 369.36 
L 501.790229 113.025412 
L 503.195417 111.23705 
L 504.600604 94.769163 
L 622.636364 94.769163 
L 622.636364 94.769163 
" style="fill:none;stroke:#0072b2;stroke-linecap:square;stroke-width:1.5;"/>
   </g>
   <g id="patch_3">
    <path d="M 90 384.48 
L 90 51.84 
" style="fill:none;stroke:#000000;stroke-linecap:square;stroke-linejoin:miter;stroke-width:0.8;"/>
   </g>
   <g id="patch_4">
    <path d="M 648 384.48 
L 648 51.84 
" style="fill:none;stroke:#000000;stroke-linecap:square;stroke-linejoin:miter;stroke-width:0.8;"/>
   </g>
   <g id="patch_5">
    <path d="M 90 384.48 
L 648 384.48 
" style="fill:none;stroke:#000000;stroke-linecap:square;stroke-linejoin:miter;stroke-width:0.8;"/>
   </g>
   <g id="patch_6">
    <path d="M 90 51.84 
L 648 51.84 
" style="fill:none;stroke:#000000;stroke-linecap:square;stroke-linejoin:miter;stroke-width:0.8;"/>
   </g>
  </g>
 </g>
 <defs>
  <clipPath id="p5b2c4681dc">
   <rect height="332.64" width="558" x="90" y="51.84"/>
  </clipPath>
 </defs>
</svg>
