<?xml version="1.0" encoding="utf-8" standalone="no"?>
<!DOCTYPE svg PUBLIC "-//W3C//DTD SVG 1.1//EN"
  "http://www.w3.org/Graphics/SVG/1.1/DTD/svg11.dtd">
<!-- Created with matplotlib (https://matplotlib.org/) -->
<svg height="432pt" version="1.1" viewBox="0 0 864 432" width="864pt" xmlns="http://www.w3.org/2000/svg" xmlns:xlink="http://www.w3.org/1999/xlink">
 <metadata>
  <rdf:RDF xmlns:cc="http://creativecommons.org/ns#" xmlns:dc="http://purl.org/dc/elements/1.1/" xmlns:rdf="http://www.w3.org/1999/02/22-rdf-syntax-ns#">
   <cc:Work>
    <dc:type rdf:resource="http://purl.org/dc/dcmitype/StillImage"/>
    <dc:date>2020-10-16T00:55:51.864721</dc:date>
    <dc:format>image/svg+xml</dc:format>
    <dc:creator>
     <cc:Agent>
      <dc:title>Matplotlib v3.3.2, https://matplotlib.org/</dc:title>
     </cc:Agent>
    </dc:creator>
   </cc:Work>
  </rdf:RDF>
 </metadata>
 <defs>
  <style type="text/css">*{stroke-linecap:butt;stroke-linejoin:round;}</style>
 </defs>
 <g id="figure_1">
  <g id="patch_1">
   <path d="M 0 432 
L 864 432 
L 864 0 
L 0 0 
z
" style="fill:#ffffff;"/>
  </g>
  <g id="axes_1">
   <g id="patch_2">
    <path d="M 44.57 390.04 
L 834.617146 390.04 
L 834.617146 28.32 
L 44.57 28.32 
z
" style="fill:#ffffff;"/>
   </g>
   <g id="matplotlib.axis_1">
    <g id="xtick_1">
     <g id="line2d_1">
      <path clip-path="url(#p57721c5e67)" d="M 113.841397 390.04 
L 113.841397 28.32 
" style="fill:none;stroke:#b0b0b0;stroke-linecap:square;stroke-width:0.8;"/>
     </g>
     <g id="line2d_2">
      <defs>
       <path d="M 0 0 
L 0 3.5 
" id="mc3d32fc0d5" style="stroke:#000000;stroke-width:0.8;"/>
      </defs>
      <g>
       <use style="stroke:#000000;stroke-width:0.8;" x="113.841397" xlink:href="#mc3d32fc0d5" y="390.04"/>
      </g>
     </g>
     <g id="text_1">
      <!-- 2019-11 -->
      <g transform="translate(92.94999 404.638438)scale(0.1 -0.1)">
       <defs>
        <path d="M 19.1875 8.296875 
L 53.609375 8.296875 
L 53.609375 0 
L 7.328125 0 
L 7.328125 8.296875 
Q 12.9375 14.109375 22.625 23.890625 
Q 32.328125 33.6875 34.8125 36.53125 
Q 39.546875 41.84375 41.421875 45.53125 
Q 43.3125 49.21875 43.3125 52.78125 
Q 43.3125 58.59375 39.234375 62.25 
Q 35.15625 65.921875 28.609375 65.921875 
Q 23.96875 65.921875 18.8125 64.3125 
Q 13.671875 62.703125 7.8125 59.421875 
L 7.8125 69.390625 
Q 13.765625 71.78125 18.9375 73 
Q 24.125 74.21875 28.421875 74.21875 
Q 39.75 74.21875 46.484375 68.546875 
Q 53.21875 62.890625 53.21875 53.421875 
Q 53.21875 48.921875 51.53125 44.890625 
Q 49.859375 40.875 45.40625 35.40625 
Q 44.1875 33.984375 37.640625 27.21875 
Q 31.109375 20.453125 19.1875 8.296875 
z
" id="DejaVuSans-50"/>
        <path d="M 31.78125 66.40625 
Q 24.171875 66.40625 20.328125 58.90625 
Q 16.5 51.421875 16.5 36.375 
Q 16.5 21.390625 20.328125 13.890625 
Q 24.171875 6.390625 31.78125 6.390625 
Q 39.453125 6.390625 43.28125 13.890625 
Q 47.125 21.390625 47.125 36.375 
Q 47.125 51.421875 43.28125 58.90625 
Q 39.453125 66.40625 31.78125 66.40625 
z
M 31.78125 74.21875 
Q 44.046875 74.21875 50.515625 64.515625 
Q 56.984375 54.828125 56.984375 36.375 
Q 56.984375 17.96875 50.515625 8.265625 
Q 44.046875 -1.421875 31.78125 -1.421875 
Q 19.53125 -1.421875 13.0625 8.265625 
Q 6.59375 17.96875 6.59375 36.375 
Q 6.59375 54.828125 13.0625 64.515625 
Q 19.53125 74.21875 31.78125 74.21875 
z
" id="DejaVuSans-48"/>
        <path d="M 12.40625 8.296875 
L 28.515625 8.296875 
L 28.515625 63.921875 
L 10.984375 60.40625 
L 10.984375 69.390625 
L 28.421875 72.90625 
L 38.28125 72.90625 
L 38.28125 8.296875 
L 54.390625 8.296875 
L 54.390625 0 
L 12.40625 0 
z
" id="DejaVuSans-49"/>
        <path d="M 10.984375 1.515625 
L 10.984375 10.5 
Q 14.703125 8.734375 18.5 7.8125 
Q 22.3125 6.890625 25.984375 6.890625 
Q 35.75 6.890625 40.890625 13.453125 
Q 46.046875 20.015625 46.78125 33.40625 
Q 43.953125 29.203125 39.59375 26.953125 
Q 35.25 24.703125 29.984375 24.703125 
Q 19.046875 24.703125 12.671875 31.3125 
Q 6.296875 37.9375 6.296875 49.421875 
Q 6.296875 60.640625 12.9375 67.421875 
Q 19.578125 74.21875 30.609375 74.21875 
Q 43.265625 74.21875 49.921875 64.515625 
Q 56.59375 54.828125 56.59375 36.375 
Q 56.59375 19.140625 48.40625 8.859375 
Q 40.234375 -1.421875 26.421875 -1.421875 
Q 22.703125 -1.421875 18.890625 -0.6875 
Q 15.09375 0.046875 10.984375 1.515625 
z
M 30.609375 32.421875 
Q 37.25 32.421875 41.125 36.953125 
Q 45.015625 41.5 45.015625 49.421875 
Q 45.015625 57.28125 41.125 61.84375 
Q 37.25 66.40625 30.609375 66.40625 
Q 23.96875 66.40625 20.09375 61.84375 
Q 16.21875 57.28125 16.21875 49.421875 
Q 16.21875 41.5 20.09375 36.953125 
Q 23.96875 32.421875 30.609375 32.421875 
z
" id="DejaVuSans-57"/>
        <path d="M 4.890625 31.390625 
L 31.203125 31.390625 
L 31.203125 23.390625 
L 4.890625 23.390625 
z
" id="DejaVuSans-45"/>
       </defs>
       <use xlink:href="#DejaVuSans-50"/>
       <use x="63.623047" xlink:href="#DejaVuSans-48"/>
       <use x="127.246094" xlink:href="#DejaVuSans-49"/>
       <use x="190.869141" xlink:href="#DejaVuSans-57"/>
       <use x="254.492188" xlink:href="#DejaVuSans-45"/>
       <use x="290.576172" xlink:href="#DejaVuSans-49"/>
       <use x="354.199219" xlink:href="#DejaVuSans-49"/>
      </g>
     </g>
    </g>
    <g id="xtick_2">
     <g id="line2d_3">
      <path clip-path="url(#p57721c5e67)" d="M 233.54551 390.04 
L 233.54551 28.32 
" style="fill:none;stroke:#b0b0b0;stroke-linecap:square;stroke-width:0.8;"/>
     </g>
     <g id="line2d_4">
      <g>
       <use style="stroke:#000000;stroke-width:0.8;" x="233.54551" xlink:href="#mc3d32fc0d5" y="390.04"/>
      </g>
     </g>
     <g id="text_2">
      <!-- 2020-01 -->
      <g transform="translate(212.654103 404.638438)scale(0.1 -0.1)">
       <use xlink:href="#DejaVuSans-50"/>
       <use x="63.623047" xlink:href="#DejaVuSans-48"/>
       <use x="127.246094" xlink:href="#DejaVuSans-50"/>
       <use x="190.869141" xlink:href="#DejaVuSans-48"/>
       <use x="254.492188" xlink:href="#DejaVuSans-45"/>
       <use x="290.576172" xlink:href="#DejaVuSans-48"/>
       <use x="354.199219" xlink:href="#DejaVuSans-49"/>
      </g>
     </g>
    </g>
    <g id="xtick_3">
     <g id="line2d_5">
      <path clip-path="url(#p57721c5e67)" d="M 351.28726 390.04 
L 351.28726 28.32 
" style="fill:none;stroke:#b0b0b0;stroke-linecap:square;stroke-width:0.8;"/>
     </g>
     <g id="line2d_6">
      <g>
       <use style="stroke:#000000;stroke-width:0.8;" x="351.28726" xlink:href="#mc3d32fc0d5" y="390.04"/>
      </g>
     </g>
     <g id="text_3">
      <!-- 2020-03 -->
      <g transform="translate(330.395854 404.638438)scale(0.1 -0.1)">
       <defs>
        <path d="M 40.578125 39.3125 
Q 47.65625 37.796875 51.625 33 
Q 55.609375 28.21875 55.609375 21.1875 
Q 55.609375 10.40625 48.1875 4.484375 
Q 40.765625 -1.421875 27.09375 -1.421875 
Q 22.515625 -1.421875 17.65625 -0.515625 
Q 12.796875 0.390625 7.625 2.203125 
L 7.625 11.71875 
Q 11.71875 9.328125 16.59375 8.109375 
Q 21.484375 6.890625 26.8125 6.890625 
Q 36.078125 6.890625 40.9375 10.546875 
Q 45.796875 14.203125 45.796875 21.1875 
Q 45.796875 27.640625 41.28125 31.265625 
Q 36.765625 34.90625 28.71875 34.90625 
L 20.21875 34.90625 
L 20.21875 43.015625 
L 29.109375 43.015625 
Q 36.375 43.015625 40.234375 45.921875 
Q 44.09375 48.828125 44.09375 54.296875 
Q 44.09375 59.90625 40.109375 62.90625 
Q 36.140625 65.921875 28.71875 65.921875 
Q 24.65625 65.921875 20.015625 65.03125 
Q 15.375 64.15625 9.8125 62.3125 
L 9.8125 71.09375 
Q 15.4375 72.65625 20.34375 73.4375 
Q 25.25 74.21875 29.59375 74.21875 
Q 40.828125 74.21875 47.359375 69.109375 
Q 53.90625 64.015625 53.90625 55.328125 
Q 53.90625 49.265625 50.4375 45.09375 
Q 46.96875 40.921875 40.578125 39.3125 
z
" id="DejaVuSans-51"/>
       </defs>
       <use xlink:href="#DejaVuSans-50"/>
       <use x="63.623047" xlink:href="#DejaVuSans-48"/>
       <use x="127.246094" xlink:href="#DejaVuSans-50"/>
       <use x="190.869141" xlink:href="#DejaVuSans-48"/>
       <use x="254.492188" xlink:href="#DejaVuSans-45"/>
       <use x="290.576172" xlink:href="#DejaVuSans-48"/>
       <use x="354.199219" xlink:href="#DejaVuSans-51"/>
      </g>
     </g>
    </g>
    <g id="xtick_4">
     <g id="line2d_7">
      <path clip-path="url(#p57721c5e67)" d="M 470.991373 390.04 
L 470.991373 28.32 
" style="fill:none;stroke:#b0b0b0;stroke-linecap:square;stroke-width:0.8;"/>
     </g>
     <g id="line2d_8">
      <g>
       <use style="stroke:#000000;stroke-width:0.8;" x="470.991373" xlink:href="#mc3d32fc0d5" y="390.04"/>
      </g>
     </g>
     <g id="text_4">
      <!-- 2020-05 -->
      <g transform="translate(450.099967 404.638438)scale(0.1 -0.1)">
       <defs>
        <path d="M 10.796875 72.90625 
L 49.515625 72.90625 
L 49.515625 64.59375 
L 19.828125 64.59375 
L 19.828125 46.734375 
Q 21.96875 47.46875 24.109375 47.828125 
Q 26.265625 48.1875 28.421875 48.1875 
Q 40.625 48.1875 47.75 41.5 
Q 54.890625 34.8125 54.890625 23.390625 
Q 54.890625 11.625 47.5625 5.09375 
Q 40.234375 -1.421875 26.90625 -1.421875 
Q 22.3125 -1.421875 17.546875 -0.640625 
Q 12.796875 0.140625 7.71875 1.703125 
L 7.71875 11.625 
Q 12.109375 9.234375 16.796875 8.0625 
Q 21.484375 6.890625 26.703125 6.890625 
Q 35.15625 6.890625 40.078125 11.328125 
Q 45.015625 15.765625 45.015625 23.390625 
Q 45.015625 31 40.078125 35.4375 
Q 35.15625 39.890625 26.703125 39.890625 
Q 22.75 39.890625 18.8125 39.015625 
Q 14.890625 38.140625 10.796875 36.28125 
z
" id="DejaVuSans-53"/>
       </defs>
       <use xlink:href="#DejaVuSans-50"/>
       <use x="63.623047" xlink:href="#DejaVuSans-48"/>
       <use x="127.246094" xlink:href="#DejaVuSans-50"/>
       <use x="190.869141" xlink:href="#DejaVuSans-48"/>
       <use x="254.492188" xlink:href="#DejaVuSans-45"/>
       <use x="290.576172" xlink:href="#DejaVuSans-48"/>
       <use x="354.199219" xlink:href="#DejaVuSans-53"/>
      </g>
     </g>
    </g>
    <g id="xtick_5">
     <g id="line2d_9">
      <path clip-path="url(#p57721c5e67)" d="M 590.695486 390.04 
L 590.695486 28.32 
" style="fill:none;stroke:#b0b0b0;stroke-linecap:square;stroke-width:0.8;"/>
     </g>
     <g id="line2d_10">
      <g>
       <use style="stroke:#000000;stroke-width:0.8;" x="590.695486" xlink:href="#mc3d32fc0d5" y="390.04"/>
      </g>
     </g>
     <g id="text_5">
      <!-- 2020-07 -->
      <g transform="translate(569.80408 404.638438)scale(0.1 -0.1)">
       <defs>
        <path d="M 8.203125 72.90625 
L 55.078125 72.90625 
L 55.078125 68.703125 
L 28.609375 0 
L 18.3125 0 
L 43.21875 64.59375 
L 8.203125 64.59375 
z
" id="DejaVuSans-55"/>
       </defs>
       <use xlink:href="#DejaVuSans-50"/>
       <use x="63.623047" xlink:href="#DejaVuSans-48"/>
       <use x="127.246094" xlink:href="#DejaVuSans-50"/>
       <use x="190.869141" xlink:href="#DejaVuSans-48"/>
       <use x="254.492188" xlink:href="#DejaVuSans-45"/>
       <use x="290.576172" xlink:href="#DejaVuSans-48"/>
       <use x="354.199219" xlink:href="#DejaVuSans-55"/>
      </g>
     </g>
    </g>
    <g id="xtick_6">
     <g id="line2d_11">
      <path clip-path="url(#p57721c5e67)" d="M 712.361962 390.04 
L 712.361962 28.32 
" style="fill:none;stroke:#b0b0b0;stroke-linecap:square;stroke-width:0.8;"/>
     </g>
     <g id="line2d_12">
      <g>
       <use style="stroke:#000000;stroke-width:0.8;" x="712.361962" xlink:href="#mc3d32fc0d5" y="390.04"/>
      </g>
     </g>
     <g id="text_6">
      <!-- 2020-09 -->
      <g transform="translate(691.470556 404.638438)scale(0.1 -0.1)">
       <use xlink:href="#DejaVuSans-50"/>
       <use x="63.623047" xlink:href="#DejaVuSans-48"/>
       <use x="127.246094" xlink:href="#DejaVuSans-50"/>
       <use x="190.869141" xlink:href="#DejaVuSans-48"/>
       <use x="254.492188" xlink:href="#DejaVuSans-45"/>
       <use x="290.576172" xlink:href="#DejaVuSans-48"/>
       <use x="354.199219" xlink:href="#DejaVuSans-57"/>
      </g>
     </g>
    </g>
    <g id="xtick_7">
     <g id="line2d_13">
      <path clip-path="url(#p57721c5e67)" d="M 832.066075 390.04 
L 832.066075 28.32 
" style="fill:none;stroke:#b0b0b0;stroke-linecap:square;stroke-width:0.8;"/>
     </g>
     <g id="line2d_14">
      <g>
       <use style="stroke:#000000;stroke-width:0.8;" x="832.066075" xlink:href="#mc3d32fc0d5" y="390.04"/>
      </g>
     </g>
     <g id="text_7">
      <!-- 2020-11 -->
      <g transform="translate(811.174669 404.638438)scale(0.1 -0.1)">
       <use xlink:href="#DejaVuSans-50"/>
       <use x="63.623047" xlink:href="#DejaVuSans-48"/>
       <use x="127.246094" xlink:href="#DejaVuSans-50"/>
       <use x="190.869141" xlink:href="#DejaVuSans-48"/>
       <use x="254.492188" xlink:href="#DejaVuSans-45"/>
       <use x="290.576172" xlink:href="#DejaVuSans-49"/>
       <use x="354.199219" xlink:href="#DejaVuSans-49"/>
      </g>
     </g>
    </g>
    <g id="text_8">
     <!-- Datum -->
     <g transform="translate(422.680292 418.316562)scale(0.1 -0.1)">
      <defs>
       <path d="M 19.671875 64.796875 
L 19.671875 8.109375 
L 31.59375 8.109375 
Q 46.6875 8.109375 53.6875 14.9375 
Q 60.6875 21.78125 60.6875 36.53125 
Q 60.6875 51.171875 53.6875 57.984375 
Q 46.6875 64.796875 31.59375 64.796875 
z
M 9.8125 72.90625 
L 30.078125 72.90625 
Q 51.265625 72.90625 61.171875 64.09375 
Q 71.09375 55.28125 71.09375 36.53125 
Q 71.09375 17.671875 61.125 8.828125 
Q 51.171875 0 30.078125 0 
L 9.8125 0 
z
" id="DejaVuSans-68"/>
       <path d="M 34.28125 27.484375 
Q 23.390625 27.484375 19.1875 25 
Q 14.984375 22.515625 14.984375 16.5 
Q 14.984375 11.71875 18.140625 8.90625 
Q 21.296875 6.109375 26.703125 6.109375 
Q 34.1875 6.109375 38.703125 11.40625 
Q 43.21875 16.703125 43.21875 25.484375 
L 43.21875 27.484375 
z
M 52.203125 31.203125 
L 52.203125 0 
L 43.21875 0 
L 43.21875 8.296875 
Q 40.140625 3.328125 35.546875 0.953125 
Q 30.953125 -1.421875 24.3125 -1.421875 
Q 15.921875 -1.421875 10.953125 3.296875 
Q 6 8.015625 6 15.921875 
Q 6 25.140625 12.171875 29.828125 
Q 18.359375 34.515625 30.609375 34.515625 
L 43.21875 34.515625 
L 43.21875 35.40625 
Q 43.21875 41.609375 39.140625 45 
Q 35.0625 48.390625 27.6875 48.390625 
Q 23 48.390625 18.546875 47.265625 
Q 14.109375 46.140625 10.015625 43.890625 
L 10.015625 52.203125 
Q 14.9375 54.109375 19.578125 55.046875 
Q 24.21875 56 28.609375 56 
Q 40.484375 56 46.34375 49.84375 
Q 52.203125 43.703125 52.203125 31.203125 
z
" id="DejaVuSans-97"/>
       <path d="M 18.3125 70.21875 
L 18.3125 54.6875 
L 36.8125 54.6875 
L 36.8125 47.703125 
L 18.3125 47.703125 
L 18.3125 18.015625 
Q 18.3125 11.328125 20.140625 9.421875 
Q 21.96875 7.515625 27.59375 7.515625 
L 36.8125 7.515625 
L 36.8125 0 
L 27.59375 0 
Q 17.1875 0 13.234375 3.875 
Q 9.28125 7.765625 9.28125 18.015625 
L 9.28125 47.703125 
L 2.6875 47.703125 
L 2.6875 54.6875 
L 9.28125 54.6875 
L 9.28125 70.21875 
z
" id="DejaVuSans-116"/>
       <path d="M 8.5 21.578125 
L 8.5 54.6875 
L 17.484375 54.6875 
L 17.484375 21.921875 
Q 17.484375 14.15625 20.5 10.265625 
Q 23.53125 6.390625 29.59375 6.390625 
Q 36.859375 6.390625 41.078125 11.03125 
Q 45.3125 15.671875 45.3125 23.6875 
L 45.3125 54.6875 
L 54.296875 54.6875 
L 54.296875 0 
L 45.3125 0 
L 45.3125 8.40625 
Q 42.046875 3.421875 37.71875 1 
Q 33.40625 -1.421875 27.6875 -1.421875 
Q 18.265625 -1.421875 13.375 4.4375 
Q 8.5 10.296875 8.5 21.578125 
z
M 31.109375 56 
z
" id="DejaVuSans-117"/>
       <path d="M 52 44.1875 
Q 55.375 50.25 60.0625 53.125 
Q 64.75 56 71.09375 56 
Q 79.640625 56 84.28125 50.015625 
Q 88.921875 44.046875 88.921875 33.015625 
L 88.921875 0 
L 79.890625 0 
L 79.890625 32.71875 
Q 79.890625 40.578125 77.09375 44.375 
Q 74.3125 48.1875 68.609375 48.1875 
Q 61.625 48.1875 57.5625 43.546875 
Q 53.515625 38.921875 53.515625 30.90625 
L 53.515625 0 
L 44.484375 0 
L 44.484375 32.71875 
Q 44.484375 40.625 41.703125 44.40625 
Q 38.921875 48.1875 33.109375 48.1875 
Q 26.21875 48.1875 22.15625 43.53125 
Q 18.109375 38.875 18.109375 30.90625 
L 18.109375 0 
L 9.078125 0 
L 9.078125 54.6875 
L 18.109375 54.6875 
L 18.109375 46.1875 
Q 21.1875 51.21875 25.484375 53.609375 
Q 29.78125 56 35.6875 56 
Q 41.65625 56 45.828125 52.96875 
Q 50 49.953125 52 44.1875 
z
" id="DejaVuSans-109"/>
      </defs>
      <use xlink:href="#DejaVuSans-68"/>
      <use x="77.001953" xlink:href="#DejaVuSans-97"/>
      <use x="138.28125" xlink:href="#DejaVuSans-116"/>
      <use x="177.490234" xlink:href="#DejaVuSans-117"/>
      <use x="240.869141" xlink:href="#DejaVuSans-109"/>
     </g>
    </g>
   </g>
   <g id="matplotlib.axis_2">
    <g id="ytick_1">
     <g id="line2d_15">
      <path clip-path="url(#p57721c5e67)" d="M 44.57 357.271855 
L 834.617146 357.271855 
" style="fill:none;stroke:#b0b0b0;stroke-linecap:square;stroke-width:0.8;"/>
     </g>
     <g id="line2d_16">
      <defs>
       <path d="M 0 0 
L -3.5 0 
" id="m757a23cf04" style="stroke:#000000;stroke-width:0.8;"/>
      </defs>
      <g>
       <use style="stroke:#000000;stroke-width:0.8;" x="44.57" xlink:href="#m757a23cf04" y="357.271855"/>
      </g>
     </g>
     <g id="text_9">
      <!-- 40 -->
      <g transform="translate(24.845 361.071074)scale(0.1 -0.1)">
       <defs>
        <path d="M 37.796875 64.3125 
L 12.890625 25.390625 
L 37.796875 25.390625 
z
M 35.203125 72.90625 
L 47.609375 72.90625 
L 47.609375 25.390625 
L 58.015625 25.390625 
L 58.015625 17.1875 
L 47.609375 17.1875 
L 47.609375 0 
L 37.796875 0 
L 37.796875 17.1875 
L 4.890625 17.1875 
L 4.890625 26.703125 
z
" id="DejaVuSans-52"/>
       </defs>
       <use xlink:href="#DejaVuSans-52"/>
       <use x="63.623047" xlink:href="#DejaVuSans-48"/>
      </g>
     </g>
    </g>
    <g id="ytick_2">
     <g id="line2d_17">
      <path clip-path="url(#p57721c5e67)" d="M 44.57 278.527515 
L 834.617146 278.527515 
" style="fill:none;stroke:#b0b0b0;stroke-linecap:square;stroke-width:0.8;"/>
     </g>
     <g id="line2d_18">
      <g>
       <use style="stroke:#000000;stroke-width:0.8;" x="44.57" xlink:href="#m757a23cf04" y="278.527515"/>
      </g>
     </g>
     <g id="text_10">
      <!-- 50 -->
      <g transform="translate(24.845 282.326734)scale(0.1 -0.1)">
       <use xlink:href="#DejaVuSans-53"/>
       <use x="63.623047" xlink:href="#DejaVuSans-48"/>
      </g>
     </g>
    </g>
    <g id="ytick_3">
     <g id="line2d_19">
      <path clip-path="url(#p57721c5e67)" d="M 44.57 199.783175 
L 834.617146 199.783175 
" style="fill:none;stroke:#b0b0b0;stroke-linecap:square;stroke-width:0.8;"/>
     </g>
     <g id="line2d_20">
      <g>
       <use style="stroke:#000000;stroke-width:0.8;" x="44.57" xlink:href="#m757a23cf04" y="199.783175"/>
      </g>
     </g>
     <g id="text_11">
      <!-- 60 -->
      <g transform="translate(24.845 203.582394)scale(0.1 -0.1)">
       <defs>
        <path d="M 33.015625 40.375 
Q 26.375 40.375 22.484375 35.828125 
Q 18.609375 31.296875 18.609375 23.390625 
Q 18.609375 15.53125 22.484375 10.953125 
Q 26.375 6.390625 33.015625 6.390625 
Q 39.65625 6.390625 43.53125 10.953125 
Q 47.40625 15.53125 47.40625 23.390625 
Q 47.40625 31.296875 43.53125 35.828125 
Q 39.65625 40.375 33.015625 40.375 
z
M 52.59375 71.296875 
L 52.59375 62.3125 
Q 48.875 64.0625 45.09375 64.984375 
Q 41.3125 65.921875 37.59375 65.921875 
Q 27.828125 65.921875 22.671875 59.328125 
Q 17.53125 52.734375 16.796875 39.40625 
Q 19.671875 43.65625 24.015625 45.921875 
Q 28.375 48.1875 33.59375 48.1875 
Q 44.578125 48.1875 50.953125 41.515625 
Q 57.328125 34.859375 57.328125 23.390625 
Q 57.328125 12.15625 50.6875 5.359375 
Q 44.046875 -1.421875 33.015625 -1.421875 
Q 20.359375 -1.421875 13.671875 8.265625 
Q 6.984375 17.96875 6.984375 36.375 
Q 6.984375 53.65625 15.1875 63.9375 
Q 23.390625 74.21875 37.203125 74.21875 
Q 40.921875 74.21875 44.703125 73.484375 
Q 48.484375 72.75 52.59375 71.296875 
z
" id="DejaVuSans-54"/>
       </defs>
       <use xlink:href="#DejaVuSans-54"/>
       <use x="63.623047" xlink:href="#DejaVuSans-48"/>
      </g>
     </g>
    </g>
    <g id="ytick_4">
     <g id="line2d_21">
      <path clip-path="url(#p57721c5e67)" d="M 44.57 121.038835 
L 834.617146 121.038835 
" style="fill:none;stroke:#b0b0b0;stroke-linecap:square;stroke-width:0.8;"/>
     </g>
     <g id="line2d_22">
      <g>
       <use style="stroke:#000000;stroke-width:0.8;" x="44.57" xlink:href="#m757a23cf04" y="121.038835"/>
      </g>
     </g>
     <g id="text_12">
      <!-- 70 -->
      <g transform="translate(24.845 124.838054)scale(0.1 -0.1)">
       <use xlink:href="#DejaVuSans-55"/>
       <use x="63.623047" xlink:href="#DejaVuSans-48"/>
      </g>
     </g>
    </g>
    <g id="ytick_5">
     <g id="line2d_23">
      <path clip-path="url(#p57721c5e67)" d="M 44.57 42.294496 
L 834.617146 42.294496 
" style="fill:none;stroke:#b0b0b0;stroke-linecap:square;stroke-width:0.8;"/>
     </g>
     <g id="line2d_24">
      <g>
       <use style="stroke:#000000;stroke-width:0.8;" x="44.57" xlink:href="#m757a23cf04" y="42.294496"/>
      </g>
     </g>
     <g id="text_13">
      <!-- 80 -->
      <g transform="translate(24.845 46.093714)scale(0.1 -0.1)">
       <defs>
        <path d="M 31.78125 34.625 
Q 24.75 34.625 20.71875 30.859375 
Q 16.703125 27.09375 16.703125 20.515625 
Q 16.703125 13.921875 20.71875 10.15625 
Q 24.75 6.390625 31.78125 6.390625 
Q 38.8125 6.390625 42.859375 10.171875 
Q 46.921875 13.96875 46.921875 20.515625 
Q 46.921875 27.09375 42.890625 30.859375 
Q 38.875 34.625 31.78125 34.625 
z
M 21.921875 38.8125 
Q 15.578125 40.375 12.03125 44.71875 
Q 8.5 49.078125 8.5 55.328125 
Q 8.5 64.0625 14.71875 69.140625 
Q 20.953125 74.21875 31.78125 74.21875 
Q 42.671875 74.21875 48.875 69.140625 
Q 55.078125 64.0625 55.078125 55.328125 
Q 55.078125 49.078125 51.53125 44.71875 
Q 48 40.375 41.703125 38.8125 
Q 48.828125 37.15625 52.796875 32.3125 
Q 56.78125 27.484375 56.78125 20.515625 
Q 56.78125 9.90625 50.3125 4.234375 
Q 43.84375 -1.421875 31.78125 -1.421875 
Q 19.734375 -1.421875 13.25 4.234375 
Q 6.78125 9.90625 6.78125 20.515625 
Q 6.78125 27.484375 10.78125 32.3125 
Q 14.796875 37.15625 21.921875 38.8125 
z
M 18.3125 54.390625 
Q 18.3125 48.734375 21.84375 45.5625 
Q 25.390625 42.390625 31.78125 42.390625 
Q 38.140625 42.390625 41.71875 45.5625 
Q 45.3125 48.734375 45.3125 54.390625 
Q 45.3125 60.0625 41.71875 63.234375 
Q 38.140625 66.40625 31.78125 66.40625 
Q 25.390625 66.40625 21.84375 63.234375 
Q 18.3125 60.0625 18.3125 54.390625 
z
" id="DejaVuSans-56"/>
       </defs>
       <use xlink:href="#DejaVuSans-56"/>
       <use x="63.623047" xlink:href="#DejaVuSans-48"/>
      </g>
     </g>
    </g>
    <g id="text_14">
     <!-- durchschnittliche Produktpreise (€) -->
     <g transform="translate(18.765313 296.810469)rotate(-90)scale(0.1 -0.1)">
      <defs>
       <path d="M 45.40625 46.390625 
L 45.40625 75.984375 
L 54.390625 75.984375 
L 54.390625 0 
L 45.40625 0 
L 45.40625 8.203125 
Q 42.578125 3.328125 38.25 0.953125 
Q 33.9375 -1.421875 27.875 -1.421875 
Q 17.96875 -1.421875 11.734375 6.484375 
Q 5.515625 14.40625 5.515625 27.296875 
Q 5.515625 40.1875 11.734375 48.09375 
Q 17.96875 56 27.875 56 
Q 33.9375 56 38.25 53.625 
Q 42.578125 51.265625 45.40625 46.390625 
z
M 14.796875 27.296875 
Q 14.796875 17.390625 18.875 11.75 
Q 22.953125 6.109375 30.078125 6.109375 
Q 37.203125 6.109375 41.296875 11.75 
Q 45.40625 17.390625 45.40625 27.296875 
Q 45.40625 37.203125 41.296875 42.84375 
Q 37.203125 48.484375 30.078125 48.484375 
Q 22.953125 48.484375 18.875 42.84375 
Q 14.796875 37.203125 14.796875 27.296875 
z
" id="DejaVuSans-100"/>
       <path d="M 41.109375 46.296875 
Q 39.59375 47.171875 37.8125 47.578125 
Q 36.03125 48 33.890625 48 
Q 26.265625 48 22.1875 43.046875 
Q 18.109375 38.09375 18.109375 28.8125 
L 18.109375 0 
L 9.078125 0 
L 9.078125 54.6875 
L 18.109375 54.6875 
L 18.109375 46.1875 
Q 20.953125 51.171875 25.484375 53.578125 
Q 30.03125 56 36.53125 56 
Q 37.453125 56 38.578125 55.875 
Q 39.703125 55.765625 41.0625 55.515625 
z
" id="DejaVuSans-114"/>
       <path d="M 48.78125 52.59375 
L 48.78125 44.1875 
Q 44.96875 46.296875 41.140625 47.34375 
Q 37.3125 48.390625 33.40625 48.390625 
Q 24.65625 48.390625 19.8125 42.84375 
Q 14.984375 37.3125 14.984375 27.296875 
Q 14.984375 17.28125 19.8125 11.734375 
Q 24.65625 6.203125 33.40625 6.203125 
Q 37.3125 6.203125 41.140625 7.25 
Q 44.96875 8.296875 48.78125 10.40625 
L 48.78125 2.09375 
Q 45.015625 0.34375 40.984375 -0.53125 
Q 36.96875 -1.421875 32.421875 -1.421875 
Q 20.0625 -1.421875 12.78125 6.34375 
Q 5.515625 14.109375 5.515625 27.296875 
Q 5.515625 40.671875 12.859375 48.328125 
Q 20.21875 56 33.015625 56 
Q 37.15625 56 41.109375 55.140625 
Q 45.0625 54.296875 48.78125 52.59375 
z
" id="DejaVuSans-99"/>
       <path d="M 54.890625 33.015625 
L 54.890625 0 
L 45.90625 0 
L 45.90625 32.71875 
Q 45.90625 40.484375 42.875 44.328125 
Q 39.84375 48.1875 33.796875 48.1875 
Q 26.515625 48.1875 22.3125 43.546875 
Q 18.109375 38.921875 18.109375 30.90625 
L 18.109375 0 
L 9.078125 0 
L 9.078125 75.984375 
L 18.109375 75.984375 
L 18.109375 46.1875 
Q 21.34375 51.125 25.703125 53.5625 
Q 30.078125 56 35.796875 56 
Q 45.21875 56 50.046875 50.171875 
Q 54.890625 44.34375 54.890625 33.015625 
z
" id="DejaVuSans-104"/>
       <path d="M 44.28125 53.078125 
L 44.28125 44.578125 
Q 40.484375 46.53125 36.375 47.5 
Q 32.28125 48.484375 27.875 48.484375 
Q 21.1875 48.484375 17.84375 46.4375 
Q 14.5 44.390625 14.5 40.28125 
Q 14.5 37.15625 16.890625 35.375 
Q 19.28125 33.59375 26.515625 31.984375 
L 29.59375 31.296875 
Q 39.15625 29.25 43.1875 25.515625 
Q 47.21875 21.78125 47.21875 15.09375 
Q 47.21875 7.46875 41.1875 3.015625 
Q 35.15625 -1.421875 24.609375 -1.421875 
Q 20.21875 -1.421875 15.453125 -0.5625 
Q 10.6875 0.296875 5.421875 2 
L 5.421875 11.28125 
Q 10.40625 8.6875 15.234375 7.390625 
Q 20.0625 6.109375 24.8125 6.109375 
Q 31.15625 6.109375 34.5625 8.28125 
Q 37.984375 10.453125 37.984375 14.40625 
Q 37.984375 18.0625 35.515625 20.015625 
Q 33.0625 21.96875 24.703125 23.78125 
L 21.578125 24.515625 
Q 13.234375 26.265625 9.515625 29.90625 
Q 5.8125 33.546875 5.8125 39.890625 
Q 5.8125 47.609375 11.28125 51.796875 
Q 16.75 56 26.8125 56 
Q 31.78125 56 36.171875 55.265625 
Q 40.578125 54.546875 44.28125 53.078125 
z
" id="DejaVuSans-115"/>
       <path d="M 54.890625 33.015625 
L 54.890625 0 
L 45.90625 0 
L 45.90625 32.71875 
Q 45.90625 40.484375 42.875 44.328125 
Q 39.84375 48.1875 33.796875 48.1875 
Q 26.515625 48.1875 22.3125 43.546875 
Q 18.109375 38.921875 18.109375 30.90625 
L 18.109375 0 
L 9.078125 0 
L 9.078125 54.6875 
L 18.109375 54.6875 
L 18.109375 46.1875 
Q 21.34375 51.125 25.703125 53.5625 
Q 30.078125 56 35.796875 56 
Q 45.21875 56 50.046875 50.171875 
Q 54.890625 44.34375 54.890625 33.015625 
z
" id="DejaVuSans-110"/>
       <path d="M 9.421875 54.6875 
L 18.40625 54.6875 
L 18.40625 0 
L 9.421875 0 
z
M 9.421875 75.984375 
L 18.40625 75.984375 
L 18.40625 64.59375 
L 9.421875 64.59375 
z
" id="DejaVuSans-105"/>
       <path d="M 9.421875 75.984375 
L 18.40625 75.984375 
L 18.40625 0 
L 9.421875 0 
z
" id="DejaVuSans-108"/>
       <path d="M 56.203125 29.59375 
L 56.203125 25.203125 
L 14.890625 25.203125 
Q 15.484375 15.921875 20.484375 11.0625 
Q 25.484375 6.203125 34.421875 6.203125 
Q 39.59375 6.203125 44.453125 7.46875 
Q 49.3125 8.734375 54.109375 11.28125 
L 54.109375 2.78125 
Q 49.265625 0.734375 44.1875 -0.34375 
Q 39.109375 -1.421875 33.890625 -1.421875 
Q 20.796875 -1.421875 13.15625 6.1875 
Q 5.515625 13.8125 5.515625 26.8125 
Q 5.515625 40.234375 12.765625 48.109375 
Q 20.015625 56 32.328125 56 
Q 43.359375 56 49.78125 48.890625 
Q 56.203125 41.796875 56.203125 29.59375 
z
M 47.21875 32.234375 
Q 47.125 39.59375 43.09375 43.984375 
Q 39.0625 48.390625 32.421875 48.390625 
Q 24.90625 48.390625 20.390625 44.140625 
Q 15.875 39.890625 15.1875 32.171875 
z
" id="DejaVuSans-101"/>
       <path id="DejaVuSans-32"/>
       <path d="M 19.671875 64.796875 
L 19.671875 37.40625 
L 32.078125 37.40625 
Q 38.96875 37.40625 42.71875 40.96875 
Q 46.484375 44.53125 46.484375 51.125 
Q 46.484375 57.671875 42.71875 61.234375 
Q 38.96875 64.796875 32.078125 64.796875 
z
M 9.8125 72.90625 
L 32.078125 72.90625 
Q 44.34375 72.90625 50.609375 67.359375 
Q 56.890625 61.8125 56.890625 51.125 
Q 56.890625 40.328125 50.609375 34.8125 
Q 44.34375 29.296875 32.078125 29.296875 
L 19.671875 29.296875 
L 19.671875 0 
L 9.8125 0 
z
" id="DejaVuSans-80"/>
       <path d="M 30.609375 48.390625 
Q 23.390625 48.390625 19.1875 42.75 
Q 14.984375 37.109375 14.984375 27.296875 
Q 14.984375 17.484375 19.15625 11.84375 
Q 23.34375 6.203125 30.609375 6.203125 
Q 37.796875 6.203125 41.984375 11.859375 
Q 46.1875 17.53125 46.1875 27.296875 
Q 46.1875 37.015625 41.984375 42.703125 
Q 37.796875 48.390625 30.609375 48.390625 
z
M 30.609375 56 
Q 42.328125 56 49.015625 48.375 
Q 55.71875 40.765625 55.71875 27.296875 
Q 55.71875 13.875 49.015625 6.21875 
Q 42.328125 -1.421875 30.609375 -1.421875 
Q 18.84375 -1.421875 12.171875 6.21875 
Q 5.515625 13.875 5.515625 27.296875 
Q 5.515625 40.765625 12.171875 48.375 
Q 18.84375 56 30.609375 56 
z
" id="DejaVuSans-111"/>
       <path d="M 9.078125 75.984375 
L 18.109375 75.984375 
L 18.109375 31.109375 
L 44.921875 54.6875 
L 56.390625 54.6875 
L 27.390625 29.109375 
L 57.625 0 
L 45.90625 0 
L 18.109375 26.703125 
L 18.109375 0 
L 9.078125 0 
z
" id="DejaVuSans-107"/>
       <path d="M 18.109375 8.203125 
L 18.109375 -20.796875 
L 9.078125 -20.796875 
L 9.078125 54.6875 
L 18.109375 54.6875 
L 18.109375 46.390625 
Q 20.953125 51.265625 25.265625 53.625 
Q 29.59375 56 35.59375 56 
Q 45.5625 56 51.78125 48.09375 
Q 58.015625 40.1875 58.015625 27.296875 
Q 58.015625 14.40625 51.78125 6.484375 
Q 45.5625 -1.421875 35.59375 -1.421875 
Q 29.59375 -1.421875 25.265625 0.953125 
Q 20.953125 3.328125 18.109375 8.203125 
z
M 48.6875 27.296875 
Q 48.6875 37.203125 44.609375 42.84375 
Q 40.53125 48.484375 33.40625 48.484375 
Q 26.265625 48.484375 22.1875 42.84375 
Q 18.109375 37.203125 18.109375 27.296875 
Q 18.109375 17.390625 22.1875 11.75 
Q 26.265625 6.109375 33.40625 6.109375 
Q 40.53125 6.109375 44.609375 11.75 
Q 48.6875 17.390625 48.6875 27.296875 
z
" id="DejaVuSans-112"/>
       <path d="M 31 75.875 
Q 24.46875 64.65625 21.28125 53.65625 
Q 18.109375 42.671875 18.109375 31.390625 
Q 18.109375 20.125 21.3125 9.0625 
Q 24.515625 -2 31 -13.1875 
L 23.1875 -13.1875 
Q 15.875 -1.703125 12.234375 9.375 
Q 8.59375 20.453125 8.59375 31.390625 
Q 8.59375 42.28125 12.203125 53.3125 
Q 15.828125 64.359375 23.1875 75.875 
z
" id="DejaVuSans-40"/>
       <path d="M 56.984375 67.28125 
L 56.984375 56.890625 
Q 52.546875 62.015625 48.40625 64.203125 
Q 44.28125 66.40625 39.3125 66.40625 
Q 31.640625 66.40625 26.703125 61.515625 
Q 21.78125 56.640625 20.21875 47.515625 
L 48.390625 47.515625 
L 45.703125 41.5 
L 19.4375 41.5 
Q 19.34375 40.328125 19.3125 39.203125 
Q 19.28125 38.09375 19.28125 36.375 
Q 19.28125 34.8125 19.3125 33.6875 
Q 19.34375 32.5625 19.4375 31.390625 
L 41.21875 31.390625 
L 38.484375 25.390625 
L 20.21875 25.390625 
Q 21.78125 16.265625 26.703125 11.328125 
Q 31.640625 6.390625 39.3125 6.390625 
Q 44.28125 6.390625 48.40625 8.59375 
Q 52.546875 10.796875 56.984375 15.921875 
L 56.984375 5.609375 
Q 52.640625 2.09375 48.125 0.328125 
Q 43.609375 -1.421875 38.921875 -1.421875 
Q 27.34375 -1.421875 19.796875 5.65625 
Q 12.25 12.75 10.296875 25.390625 
L 0 25.390625 
L 2.6875 31.390625 
L 9.46875 31.390625 
Q 9.46875 32.515625 9.4375 33.65625 
Q 9.421875 34.8125 9.421875 36.375 
Q 9.421875 38.09375 9.4375 39.234375 
Q 9.46875 40.375 9.46875 41.5 
L 0 41.5 
L 2.6875 47.515625 
L 10.296875 47.515625 
Q 12.25 60.0625 19.8125 67.140625 
Q 27.390625 74.21875 38.921875 74.21875 
Q 43.703125 74.21875 48.21875 72.484375 
Q 52.734375 70.75 56.984375 67.28125 
z
" id="DejaVuSans-8364"/>
       <path d="M 8.015625 75.875 
L 15.828125 75.875 
Q 23.140625 64.359375 26.78125 53.3125 
Q 30.421875 42.28125 30.421875 31.390625 
Q 30.421875 20.453125 26.78125 9.375 
Q 23.140625 -1.703125 15.828125 -13.1875 
L 8.015625 -13.1875 
Q 14.5 -2 17.703125 9.0625 
Q 20.90625 20.125 20.90625 31.390625 
Q 20.90625 42.671875 17.703125 53.65625 
Q 14.5 64.65625 8.015625 75.875 
z
" id="DejaVuSans-41"/>
      </defs>
      <use xlink:href="#DejaVuSans-100"/>
      <use x="63.476562" xlink:href="#DejaVuSans-117"/>
      <use x="126.855469" xlink:href="#DejaVuSans-114"/>
      <use x="165.71875" xlink:href="#DejaVuSans-99"/>
      <use x="220.699219" xlink:href="#DejaVuSans-104"/>
      <use x="284.078125" xlink:href="#DejaVuSans-115"/>
      <use x="336.177734" xlink:href="#DejaVuSans-99"/>
      <use x="391.158203" xlink:href="#DejaVuSans-104"/>
      <use x="454.537109" xlink:href="#DejaVuSans-110"/>
      <use x="517.916016" xlink:href="#DejaVuSans-105"/>
      <use x="545.699219" xlink:href="#DejaVuSans-116"/>
      <use x="584.908203" xlink:href="#DejaVuSans-116"/>
      <use x="624.117188" xlink:href="#DejaVuSans-108"/>
      <use x="651.900391" xlink:href="#DejaVuSans-105"/>
      <use x="679.683594" xlink:href="#DejaVuSans-99"/>
      <use x="734.664062" xlink:href="#DejaVuSans-104"/>
      <use x="798.042969" xlink:href="#DejaVuSans-101"/>
      <use x="859.566406" xlink:href="#DejaVuSans-32"/>
      <use x="891.353516" xlink:href="#DejaVuSans-80"/>
      <use x="949.90625" xlink:href="#DejaVuSans-114"/>
      <use x="988.769531" xlink:href="#DejaVuSans-111"/>
      <use x="1049.951172" xlink:href="#DejaVuSans-100"/>
      <use x="1113.427734" xlink:href="#DejaVuSans-117"/>
      <use x="1176.806641" xlink:href="#DejaVuSans-107"/>
      <use x="1234.716797" xlink:href="#DejaVuSans-116"/>
      <use x="1273.925781" xlink:href="#DejaVuSans-112"/>
      <use x="1337.402344" xlink:href="#DejaVuSans-114"/>
      <use x="1376.265625" xlink:href="#DejaVuSans-101"/>
      <use x="1437.789062" xlink:href="#DejaVuSans-105"/>
      <use x="1465.572266" xlink:href="#DejaVuSans-115"/>
      <use x="1517.671875" xlink:href="#DejaVuSans-101"/>
      <use x="1579.195312" xlink:href="#DejaVuSans-32"/>
      <use x="1610.982422" xlink:href="#DejaVuSans-40"/>
      <use x="1649.996094" xlink:href="#DejaVuSans-8364"/>
      <use x="1713.619141" xlink:href="#DejaVuSans-41"/>
     </g>
    </g>
   </g>
   <g id="LineCollection_1">
    <path clip-path="url(#p57721c5e67)" d="M 284.566935 373.598182 
L 284.566935 44.761818 
" style="fill:none;stroke:#ff0000;stroke-dasharray:19.2,4.8,3,4.8;stroke-dashoffset:0;stroke-width:3;"/>
   </g>
   <g id="LineCollection_2">
    <path clip-path="url(#p57721c5e67)" d="M 392.496873 373.598182 
L 392.496873 44.761818 
" style="fill:none;stroke:#008000;stroke-dasharray:19.2,4.8,3,4.8;stroke-dashoffset:0;stroke-width:3;"/>
   </g>
   <g id="LineCollection_3">
    <path clip-path="url(#p57721c5e67)" d="M 449.405386 373.598182 
L 449.405386 44.761818 
" style="fill:none;stroke:#0000ff;stroke-dasharray:19.2,4.8,3,4.8;stroke-dashoffset:0;stroke-width:3;"/>
   </g>
   <g id="LineCollection_4">
    <path clip-path="url(#p57721c5e67)" d="M 794.781187 373.598182 
L 794.781187 44.761818 
" style="fill:none;stroke:#00bfbf;stroke-dasharray:19.2,4.8,3,4.8;stroke-dashoffset:0;stroke-width:3;"/>
   </g>
   <g id="line2d_25">
    <path clip-path="url(#p57721c5e67)" d="M 80.481234 259.313896 
L 92.255409 259.313896 
L 94.217771 258.972671 
L 109.916672 259.077663 
L 111.879034 262.594911 
L 117.766122 262.516166 
L 119.728484 259.051415 
L 127.577934 259.077663 
L 131.502659 258.998919 
L 135.427384 258.998919 
L 137.389747 260.022595 
L 139.352109 260.022595 
L 141.314472 260.52131 
L 145.239197 260.573806 
L 147.201559 259.077663 
L 149.163922 259.077663 
L 151.126284 260.10134 
L 153.088647 260.022595 
L 155.051009 259.051415 
L 158.975734 259.077663 
L 160.938097 259.340145 
L 162.900459 259.077663 
L 164.862822 258.998919 
L 166.825184 259.287648 
L 168.787547 334.226012 
L 170.749909 373.598182 
L 174.674634 373.598182 
L 176.636997 363.098936 
L 178.599359 360.474125 
L 180.561722 334.226012 
L 182.524084 334.226012 
L 184.486447 307.977899 
L 188.411172 307.977899 
L 190.373534 281.729785 
L 194.298259 281.729785 
L 196.260622 261.387497 
L 198.222984 261.387497 
L 200.185347 265.980917 
L 202.147709 261.151264 
L 239.432597 261.151264 
L 241.39496 259.077663 
L 243.357322 259.471385 
L 245.319685 258.605197 
L 247.282047 254.772973 
L 249.24441 258.605197 
L 251.206772 256.767829 
L 255.131497 256.767829 
L 257.09386 258.447709 
L 268.868035 258.395212 
L 270.830397 260.573806 
L 274.755122 260.600054 
L 276.717485 258.263972 
L 282.604572 258.211476 
L 284.566935 260.390069 
L 286.529297 259.943851 
L 292.416385 259.943851 
L 294.378747 258.158979 
L 296.34111 258.158979 
L 298.303472 260.337573 
L 300.265835 259.996347 
L 302.228197 259.996347 
L 304.19056 257.791506 
L 310.077647 257.791506 
L 312.04001 258.946423 
L 314.002372 258.946423 
L 315.964735 259.970099 
L 317.927097 259.943851 
L 319.88946 274.800283 
L 321.851822 257.791506 
L 323.814185 257.791506 
L 325.776548 259.970099 
L 329.701273 259.970099 
L 331.663635 257.791506 
L 337.550723 257.791506 
L 339.513085 259.970099 
L 343.43781 259.970099 
L 345.400173 258.946423 
L 347.362535 259.970099 
L 351.28726 259.970099 
L 353.249623 261.230009 
L 355.211985 260.206332 
L 357.174348 258.946423 
L 365.023798 258.946423 
L 366.98616 259.970099 
L 374.83561 259.970099 
L 376.797973 258.946423 
L 386.609785 258.946423 
L 388.572148 274.879028 
L 390.53451 295.168819 
L 396.421598 295.168819 
L 398.38396 296.428729 
L 402.308685 296.428729 
L 404.271048 295.168819 
L 412.120498 295.142571 
L 414.08286 280.207395 
L 419.969948 280.207395 
L 421.93231 258.946423 
L 427.819398 258.946423 
L 429.78176 269.183187 
L 431.744123 258.946423 
L 439.593573 258.946423 
L 441.555936 258.080235 
L 445.480661 258.080235 
L 447.443023 258.526453 
L 449.405386 258.080235 
L 455.292473 258.080235 
L 457.254836 258.946423 
L 470.991373 258.946423 
L 472.953736 258.080235 
L 484.727911 258.080235 
L 486.690273 258.29022 
L 490.614998 258.368964 
L 492.577361 257.214047 
L 496.502086 257.31904 
L 498.464448 257.817754 
L 502.389173 257.817754 
L 504.351536 258.71019 
L 506.313898 257.817754 
L 523.975161 257.817754 
L 525.937523 193.089907 
L 529.862248 193.089907 
L 531.824611 258.972671 
L 533.786973 193.089907 
L 535.749336 192.669937 
L 537.711698 195.294748 
L 541.636423 195.294748 
L 543.598786 192.669937 
L 553.410599 192.669937 
L 555.372961 201.883024 
L 557.335324 221.831591 
L 565.184774 221.831591 
L 567.147136 195.294748 
L 569.109499 195.294748 
L 571.071861 194.874778 
L 574.996586 194.874778 
L 576.958949 194.507305 
L 578.921311 194.507305 
L 580.883674 196.265928 
L 582.846036 196.607154 
L 586.770761 201.856776 
L 588.733124 200.386882 
L 590.695486 201.725536 
L 592.657849 205.662753 
L 594.620211 204.350347 
L 604.432024 204.350347 
L 606.394386 206.975158 
L 610.319111 206.975158 
L 612.281474 209.59997 
L 614.243836 209.59997 
L 616.206199 211.752315 
L 618.168561 212.251029 
L 620.130924 212.251029 
L 622.093286 258.605197 
L 624.055649 258.605197 
L 626.018011 212.251029 
L 627.980374 212.251029 
L 631.905099 217.500652 
L 633.867461 217.500652 
L 635.829824 207.263888 
L 639.754549 207.263888 
L 641.716911 207.78885 
L 643.679274 207.263888 
L 647.603999 207.263888 
L 649.566361 210.282421 
L 659.378174 210.256173 
L 661.340537 157.786194 
L 665.265262 157.83869 
L 667.227624 187.446562 
L 669.189987 202.985445 
L 671.152349 157.83869 
L 673.114712 157.654954 
L 675.077074 163.980749 
L 677.039437 179.440888 
L 682.926524 179.440888 
L 684.888887 157.392472 
L 686.851249 157.392472 
L 688.813612 181.90821 
L 692.738337 181.90821 
L 694.700699 189.677652 
L 698.625424 189.677652 
L 700.587787 123.742391 
L 702.550149 189.677652 
L 704.512512 131.643073 
L 706.474874 115.867957 
L 712.361962 115.867957 
L 714.324324 181.90821 
L 716.286687 125.081045 
L 718.249049 131.643073 
L 720.211412 131.643073 
L 722.173774 115.867957 
L 724.136137 125.081045 
L 726.098499 149.544287 
L 728.060862 149.544287 
L 730.023224 152.14285 
L 731.985587 167.629237 
L 739.835037 167.602989 
L 741.797399 152.116602 
L 745.722124 152.116602 
L 747.684487 59.303273 
L 749.646849 59.303273 
L 751.609212 125.054797 
L 753.571574 155.633849 
L 759.458662 155.633849 
L 761.421024 169.991567 
L 763.383387 44.761818 
L 765.345749 125.054797 
L 767.308112 126.472195 
L 769.270475 46.284209 
L 771.232837 126.577187 
L 773.1952 157.156239 
L 775.157562 171.513957 
L 777.119925 193.03741 
L 779.082287 193.03741 
L 781.04465 151.145421 
L 783.007012 44.945555 
L 784.969375 180.51706 
L 786.931737 180.254579 
L 788.8941 181.881962 
L 790.856462 181.881962 
L 792.818825 180.254579 
L 794.781187 180.333323 
L 796.74355 181.986955 
L 798.705912 181.986955 
L 798.705912 181.986955 
" style="fill:none;stroke:#1f77b4;stroke-linecap:square;stroke-width:1.5;"/>
   </g>
   <g id="patch_3">
    <path d="M 44.57 390.04 
L 44.57 28.32 
" style="fill:none;stroke:#000000;stroke-linecap:square;stroke-linejoin:miter;stroke-width:0.8;"/>
   </g>
   <g id="patch_4">
    <path d="M 834.617146 390.04 
L 834.617146 28.32 
" style="fill:none;stroke:#000000;stroke-linecap:square;stroke-linejoin:miter;stroke-width:0.8;"/>
   </g>
   <g id="patch_5">
    <path d="M 44.57 390.04 
L 834.617146 390.04 
" style="fill:none;stroke:#000000;stroke-linecap:square;stroke-linejoin:miter;stroke-width:0.8;"/>
   </g>
   <g id="patch_6">
    <path d="M 44.57 28.32 
L 834.617146 28.32 
" style="fill:none;stroke:#000000;stroke-linecap:square;stroke-linejoin:miter;stroke-width:0.8;"/>
   </g>
   <g id="text_15">
    <!-- Haus&amp;Garten(von Okt. 2019 bis Okt. 2020) -->
    <g transform="translate(277.429511 22.32)scale(0.15 -0.15)">
     <defs>
      <path d="M 9.8125 72.90625 
L 19.671875 72.90625 
L 19.671875 43.015625 
L 55.515625 43.015625 
L 55.515625 72.90625 
L 65.375 72.90625 
L 65.375 0 
L 55.515625 0 
L 55.515625 34.71875 
L 19.671875 34.71875 
L 19.671875 0 
L 9.8125 0 
z
" id="DejaVuSans-72"/>
      <path d="M 24.3125 39.203125 
Q 19.875 35.25 17.796875 31.3125 
Q 15.71875 27.390625 15.71875 23.09375 
Q 15.71875 15.96875 20.890625 11.234375 
Q 26.078125 6.5 33.890625 6.5 
Q 38.53125 6.5 42.578125 8.03125 
Q 46.625 9.578125 50.203125 12.703125 
z
M 31.203125 44.671875 
L 56 19.28125 
Q 58.890625 23.640625 60.5 28.59375 
Q 62.109375 33.546875 62.40625 39.109375 
L 71.484375 39.109375 
Q 70.90625 32.671875 68.359375 26.359375 
Q 65.828125 20.0625 61.28125 13.921875 
L 74.90625 0 
L 62.59375 0 
L 55.609375 7.171875 
Q 50.53125 2.828125 44.96875 0.703125 
Q 39.40625 -1.421875 33.015625 -1.421875 
Q 21.234375 -1.421875 13.765625 5.296875 
Q 6.296875 12.015625 6.296875 22.515625 
Q 6.296875 28.765625 9.5625 34.25 
Q 12.84375 39.75 19.390625 44.578125 
Q 17.046875 47.65625 15.8125 50.703125 
Q 14.59375 53.765625 14.59375 56.6875 
Q 14.59375 64.59375 20.015625 69.40625 
Q 25.4375 74.21875 34.421875 74.21875 
Q 38.484375 74.21875 42.5 73.34375 
Q 46.53125 72.46875 50.6875 70.703125 
L 50.6875 61.8125 
Q 46.4375 64.109375 42.578125 65.296875 
Q 38.71875 66.5 35.40625 66.5 
Q 30.28125 66.5 27.078125 63.78125 
Q 23.875 61.078125 23.875 56.78125 
Q 23.875 54.296875 25.3125 51.78125 
Q 26.765625 49.265625 31.203125 44.671875 
z
" id="DejaVuSans-38"/>
      <path d="M 59.515625 10.40625 
L 59.515625 29.984375 
L 43.40625 29.984375 
L 43.40625 38.09375 
L 69.28125 38.09375 
L 69.28125 6.78125 
Q 63.578125 2.734375 56.6875 0.65625 
Q 49.8125 -1.421875 42 -1.421875 
Q 24.90625 -1.421875 15.25 8.5625 
Q 5.609375 18.5625 5.609375 36.375 
Q 5.609375 54.25 15.25 64.234375 
Q 24.90625 74.21875 42 74.21875 
Q 49.125 74.21875 55.546875 72.453125 
Q 61.96875 70.703125 67.390625 67.28125 
L 67.390625 56.78125 
Q 61.921875 61.421875 55.765625 63.765625 
Q 49.609375 66.109375 42.828125 66.109375 
Q 29.4375 66.109375 22.71875 58.640625 
Q 16.015625 51.171875 16.015625 36.375 
Q 16.015625 21.625 22.71875 14.15625 
Q 29.4375 6.6875 42.828125 6.6875 
Q 48.046875 6.6875 52.140625 7.59375 
Q 56.25 8.5 59.515625 10.40625 
z
" id="DejaVuSans-71"/>
      <path d="M 2.984375 54.6875 
L 12.5 54.6875 
L 29.59375 8.796875 
L 46.6875 54.6875 
L 56.203125 54.6875 
L 35.6875 0 
L 23.484375 0 
z
" id="DejaVuSans-118"/>
      <path d="M 39.40625 66.21875 
Q 28.65625 66.21875 22.328125 58.203125 
Q 16.015625 50.203125 16.015625 36.375 
Q 16.015625 22.609375 22.328125 14.59375 
Q 28.65625 6.59375 39.40625 6.59375 
Q 50.140625 6.59375 56.421875 14.59375 
Q 62.703125 22.609375 62.703125 36.375 
Q 62.703125 50.203125 56.421875 58.203125 
Q 50.140625 66.21875 39.40625 66.21875 
z
M 39.40625 74.21875 
Q 54.734375 74.21875 63.90625 63.9375 
Q 73.09375 53.65625 73.09375 36.375 
Q 73.09375 19.140625 63.90625 8.859375 
Q 54.734375 -1.421875 39.40625 -1.421875 
Q 24.03125 -1.421875 14.8125 8.828125 
Q 5.609375 19.09375 5.609375 36.375 
Q 5.609375 53.65625 14.8125 63.9375 
Q 24.03125 74.21875 39.40625 74.21875 
z
" id="DejaVuSans-79"/>
      <path d="M 10.6875 12.40625 
L 21 12.40625 
L 21 0 
L 10.6875 0 
z
" id="DejaVuSans-46"/>
      <path d="M 48.6875 27.296875 
Q 48.6875 37.203125 44.609375 42.84375 
Q 40.53125 48.484375 33.40625 48.484375 
Q 26.265625 48.484375 22.1875 42.84375 
Q 18.109375 37.203125 18.109375 27.296875 
Q 18.109375 17.390625 22.1875 11.75 
Q 26.265625 6.109375 33.40625 6.109375 
Q 40.53125 6.109375 44.609375 11.75 
Q 48.6875 17.390625 48.6875 27.296875 
z
M 18.109375 46.390625 
Q 20.953125 51.265625 25.265625 53.625 
Q 29.59375 56 35.59375 56 
Q 45.5625 56 51.78125 48.09375 
Q 58.015625 40.1875 58.015625 27.296875 
Q 58.015625 14.40625 51.78125 6.484375 
Q 45.5625 -1.421875 35.59375 -1.421875 
Q 29.59375 -1.421875 25.265625 0.953125 
Q 20.953125 3.328125 18.109375 8.203125 
L 18.109375 0 
L 9.078125 0 
L 9.078125 75.984375 
L 18.109375 75.984375 
z
" id="DejaVuSans-98"/>
     </defs>
     <use xlink:href="#DejaVuSans-72"/>
     <use x="75.195312" xlink:href="#DejaVuSans-97"/>
     <use x="136.474609" xlink:href="#DejaVuSans-117"/>
     <use x="199.853516" xlink:href="#DejaVuSans-115"/>
     <use x="251.953125" xlink:href="#DejaVuSans-38"/>
     <use x="329.931641" xlink:href="#DejaVuSans-71"/>
     <use x="407.421875" xlink:href="#DejaVuSans-97"/>
     <use x="468.701172" xlink:href="#DejaVuSans-114"/>
     <use x="509.814453" xlink:href="#DejaVuSans-116"/>
     <use x="549.023438" xlink:href="#DejaVuSans-101"/>
     <use x="610.546875" xlink:href="#DejaVuSans-110"/>
     <use x="673.925781" xlink:href="#DejaVuSans-40"/>
     <use x="712.939453" xlink:href="#DejaVuSans-118"/>
     <use x="772.119141" xlink:href="#DejaVuSans-111"/>
     <use x="833.300781" xlink:href="#DejaVuSans-110"/>
     <use x="896.679688" xlink:href="#DejaVuSans-32"/>
     <use x="928.466797" xlink:href="#DejaVuSans-79"/>
     <use x="1007.177734" xlink:href="#DejaVuSans-107"/>
     <use x="1065.087891" xlink:href="#DejaVuSans-116"/>
     <use x="1104.296875" xlink:href="#DejaVuSans-46"/>
     <use x="1136.083984" xlink:href="#DejaVuSans-32"/>
     <use x="1167.871094" xlink:href="#DejaVuSans-50"/>
     <use x="1231.494141" xlink:href="#DejaVuSans-48"/>
     <use x="1295.117188" xlink:href="#DejaVuSans-49"/>
     <use x="1358.740234" xlink:href="#DejaVuSans-57"/>
     <use x="1422.363281" xlink:href="#DejaVuSans-32"/>
     <use x="1454.150391" xlink:href="#DejaVuSans-98"/>
     <use x="1517.626953" xlink:href="#DejaVuSans-105"/>
     <use x="1545.410156" xlink:href="#DejaVuSans-115"/>
     <use x="1597.509766" xlink:href="#DejaVuSans-32"/>
     <use x="1629.296875" xlink:href="#DejaVuSans-79"/>
     <use x="1708.007812" xlink:href="#DejaVuSans-107"/>
     <use x="1765.917969" xlink:href="#DejaVuSans-116"/>
     <use x="1805.126953" xlink:href="#DejaVuSans-46"/>
     <use x="1836.914062" xlink:href="#DejaVuSans-32"/>
     <use x="1868.701172" xlink:href="#DejaVuSans-50"/>
     <use x="1932.324219" xlink:href="#DejaVuSans-48"/>
     <use x="1995.947266" xlink:href="#DejaVuSans-50"/>
     <use x="2059.570312" xlink:href="#DejaVuSans-48"/>
     <use x="2123.193359" xlink:href="#DejaVuSans-41"/>
    </g>
   </g>
   <g id="legend_1">
    <g id="patch_7">
     <path d="M 51.57 95.0325 
L 300.31375 95.0325 
Q 302.31375 95.0325 302.31375 93.0325 
L 302.31375 35.32 
Q 302.31375 33.32 300.31375 33.32 
L 51.57 33.32 
Q 49.57 33.32 49.57 35.32 
L 49.57 93.0325 
Q 49.57 95.0325 51.57 95.0325 
z
" style="fill:#ffffff;opacity:0.8;stroke:#cccccc;stroke-linejoin:miter;"/>
    </g>
    <g id="line2d_26">
     <path d="M 53.57 41.418438 
L 73.57 41.418438 
" style="fill:none;stroke:#ff0000;stroke-dasharray:19.2,4.8,3,4.8;stroke-dashoffset:0;stroke-width:3;"/>
    </g>
    <g id="text_16">
     <!-- Erste Erkrankung in Deutschland(27.01.20) -->
     <g transform="translate(81.57 44.918438)scale(0.1 -0.1)">
      <defs>
       <path d="M 9.8125 72.90625 
L 55.90625 72.90625 
L 55.90625 64.59375 
L 19.671875 64.59375 
L 19.671875 43.015625 
L 54.390625 43.015625 
L 54.390625 34.71875 
L 19.671875 34.71875 
L 19.671875 8.296875 
L 56.78125 8.296875 
L 56.78125 0 
L 9.8125 0 
z
" id="DejaVuSans-69"/>
       <path d="M 45.40625 27.984375 
Q 45.40625 37.75 41.375 43.109375 
Q 37.359375 48.484375 30.078125 48.484375 
Q 22.859375 48.484375 18.828125 43.109375 
Q 14.796875 37.75 14.796875 27.984375 
Q 14.796875 18.265625 18.828125 12.890625 
Q 22.859375 7.515625 30.078125 7.515625 
Q 37.359375 7.515625 41.375 12.890625 
Q 45.40625 18.265625 45.40625 27.984375 
z
M 54.390625 6.78125 
Q 54.390625 -7.171875 48.1875 -13.984375 
Q 42 -20.796875 29.203125 -20.796875 
Q 24.46875 -20.796875 20.265625 -20.09375 
Q 16.0625 -19.390625 12.109375 -17.921875 
L 12.109375 -9.1875 
Q 16.0625 -11.328125 19.921875 -12.34375 
Q 23.78125 -13.375 27.78125 -13.375 
Q 36.625 -13.375 41.015625 -8.765625 
Q 45.40625 -4.15625 45.40625 5.171875 
L 45.40625 9.625 
Q 42.625 4.78125 38.28125 2.390625 
Q 33.9375 0 27.875 0 
Q 17.828125 0 11.671875 7.65625 
Q 5.515625 15.328125 5.515625 27.984375 
Q 5.515625 40.671875 11.671875 48.328125 
Q 17.828125 56 27.875 56 
Q 33.9375 56 38.28125 53.609375 
Q 42.625 51.21875 45.40625 46.390625 
L 45.40625 54.6875 
L 54.390625 54.6875 
z
" id="DejaVuSans-103"/>
      </defs>
      <use xlink:href="#DejaVuSans-69"/>
      <use x="63.183594" xlink:href="#DejaVuSans-114"/>
      <use x="104.296875" xlink:href="#DejaVuSans-115"/>
      <use x="156.396484" xlink:href="#DejaVuSans-116"/>
      <use x="195.605469" xlink:href="#DejaVuSans-101"/>
      <use x="257.128906" xlink:href="#DejaVuSans-32"/>
      <use x="288.916016" xlink:href="#DejaVuSans-69"/>
      <use x="352.099609" xlink:href="#DejaVuSans-114"/>
      <use x="393.212891" xlink:href="#DejaVuSans-107"/>
      <use x="451.123047" xlink:href="#DejaVuSans-114"/>
      <use x="492.236328" xlink:href="#DejaVuSans-97"/>
      <use x="553.515625" xlink:href="#DejaVuSans-110"/>
      <use x="616.894531" xlink:href="#DejaVuSans-107"/>
      <use x="671.679688" xlink:href="#DejaVuSans-117"/>
      <use x="735.058594" xlink:href="#DejaVuSans-110"/>
      <use x="798.4375" xlink:href="#DejaVuSans-103"/>
      <use x="861.914062" xlink:href="#DejaVuSans-32"/>
      <use x="893.701172" xlink:href="#DejaVuSans-105"/>
      <use x="921.484375" xlink:href="#DejaVuSans-110"/>
      <use x="984.863281" xlink:href="#DejaVuSans-32"/>
      <use x="1016.650391" xlink:href="#DejaVuSans-68"/>
      <use x="1093.652344" xlink:href="#DejaVuSans-101"/>
      <use x="1155.175781" xlink:href="#DejaVuSans-117"/>
      <use x="1218.554688" xlink:href="#DejaVuSans-116"/>
      <use x="1257.763672" xlink:href="#DejaVuSans-115"/>
      <use x="1309.863281" xlink:href="#DejaVuSans-99"/>
      <use x="1364.84375" xlink:href="#DejaVuSans-104"/>
      <use x="1428.222656" xlink:href="#DejaVuSans-108"/>
      <use x="1456.005859" xlink:href="#DejaVuSans-97"/>
      <use x="1517.285156" xlink:href="#DejaVuSans-110"/>
      <use x="1580.664062" xlink:href="#DejaVuSans-100"/>
      <use x="1644.140625" xlink:href="#DejaVuSans-40"/>
      <use x="1683.154297" xlink:href="#DejaVuSans-50"/>
      <use x="1746.777344" xlink:href="#DejaVuSans-55"/>
      <use x="1810.400391" xlink:href="#DejaVuSans-46"/>
      <use x="1842.1875" xlink:href="#DejaVuSans-48"/>
      <use x="1905.810547" xlink:href="#DejaVuSans-49"/>
      <use x="1969.433594" xlink:href="#DejaVuSans-46"/>
      <use x="2001.220703" xlink:href="#DejaVuSans-50"/>
      <use x="2064.84375" xlink:href="#DejaVuSans-48"/>
      <use x="2128.466797" xlink:href="#DejaVuSans-41"/>
     </g>
    </g>
    <g id="line2d_27">
     <path d="M 53.57 56.096563 
L 73.57 56.096563 
" style="fill:none;stroke:#008000;stroke-dasharray:19.2,4.8,3,4.8;stroke-dashoffset:0;stroke-width:3;"/>
    </g>
    <g id="text_17">
     <!-- Lock Down(22.03.20) -->
     <g transform="translate(81.57 59.596563)scale(0.1 -0.1)">
      <defs>
       <path d="M 9.8125 72.90625 
L 19.671875 72.90625 
L 19.671875 8.296875 
L 55.171875 8.296875 
L 55.171875 0 
L 9.8125 0 
z
" id="DejaVuSans-76"/>
       <path d="M 4.203125 54.6875 
L 13.1875 54.6875 
L 24.421875 12.015625 
L 35.59375 54.6875 
L 46.1875 54.6875 
L 57.421875 12.015625 
L 68.609375 54.6875 
L 77.59375 54.6875 
L 63.28125 0 
L 52.6875 0 
L 40.921875 44.828125 
L 29.109375 0 
L 18.5 0 
z
" id="DejaVuSans-119"/>
      </defs>
      <use xlink:href="#DejaVuSans-76"/>
      <use x="53.962891" xlink:href="#DejaVuSans-111"/>
      <use x="115.144531" xlink:href="#DejaVuSans-99"/>
      <use x="170.125" xlink:href="#DejaVuSans-107"/>
      <use x="228.035156" xlink:href="#DejaVuSans-32"/>
      <use x="259.822266" xlink:href="#DejaVuSans-68"/>
      <use x="336.824219" xlink:href="#DejaVuSans-111"/>
      <use x="398.005859" xlink:href="#DejaVuSans-119"/>
      <use x="479.792969" xlink:href="#DejaVuSans-110"/>
      <use x="543.171875" xlink:href="#DejaVuSans-40"/>
      <use x="582.185547" xlink:href="#DejaVuSans-50"/>
      <use x="645.808594" xlink:href="#DejaVuSans-50"/>
      <use x="709.431641" xlink:href="#DejaVuSans-46"/>
      <use x="741.21875" xlink:href="#DejaVuSans-48"/>
      <use x="804.841797" xlink:href="#DejaVuSans-51"/>
      <use x="868.464844" xlink:href="#DejaVuSans-46"/>
      <use x="900.251953" xlink:href="#DejaVuSans-50"/>
      <use x="963.875" xlink:href="#DejaVuSans-48"/>
      <use x="1027.498047" xlink:href="#DejaVuSans-41"/>
     </g>
    </g>
    <g id="line2d_28">
     <path d="M 53.57 70.774688 
L 73.57 70.774688 
" style="fill:none;stroke:#0000ff;stroke-dasharray:19.2,4.8,3,4.8;stroke-dashoffset:0;stroke-width:3;"/>
    </g>
    <g id="text_18">
     <!-- Erste Lockerung(20.04.20) -->
     <g transform="translate(81.57 74.274688)scale(0.1 -0.1)">
      <use xlink:href="#DejaVuSans-69"/>
      <use x="63.183594" xlink:href="#DejaVuSans-114"/>
      <use x="104.296875" xlink:href="#DejaVuSans-115"/>
      <use x="156.396484" xlink:href="#DejaVuSans-116"/>
      <use x="195.605469" xlink:href="#DejaVuSans-101"/>
      <use x="257.128906" xlink:href="#DejaVuSans-32"/>
      <use x="288.916016" xlink:href="#DejaVuSans-76"/>
      <use x="342.878906" xlink:href="#DejaVuSans-111"/>
      <use x="404.060547" xlink:href="#DejaVuSans-99"/>
      <use x="459.041016" xlink:href="#DejaVuSans-107"/>
      <use x="513.326172" xlink:href="#DejaVuSans-101"/>
      <use x="574.849609" xlink:href="#DejaVuSans-114"/>
      <use x="615.962891" xlink:href="#DejaVuSans-117"/>
      <use x="679.341797" xlink:href="#DejaVuSans-110"/>
      <use x="742.720703" xlink:href="#DejaVuSans-103"/>
      <use x="806.197266" xlink:href="#DejaVuSans-40"/>
      <use x="845.210938" xlink:href="#DejaVuSans-50"/>
      <use x="908.833984" xlink:href="#DejaVuSans-48"/>
      <use x="972.457031" xlink:href="#DejaVuSans-46"/>
      <use x="1004.244141" xlink:href="#DejaVuSans-48"/>
      <use x="1067.867188" xlink:href="#DejaVuSans-52"/>
      <use x="1131.490234" xlink:href="#DejaVuSans-46"/>
      <use x="1163.277344" xlink:href="#DejaVuSans-50"/>
      <use x="1226.900391" xlink:href="#DejaVuSans-48"/>
      <use x="1290.523438" xlink:href="#DejaVuSans-41"/>
     </g>
    </g>
    <g id="line2d_29">
     <path d="M 53.57 85.452813 
L 73.57 85.452813 
" style="fill:none;stroke:#00bfbf;stroke-dasharray:19.2,4.8,3,4.8;stroke-dashoffset:0;stroke-width:3;"/>
    </g>
    <g id="text_19">
     <!-- Amazon Prime Day -->
     <g transform="translate(81.57 88.952813)scale(0.1 -0.1)">
      <defs>
       <path d="M 34.1875 63.1875 
L 20.796875 26.90625 
L 47.609375 26.90625 
z
M 28.609375 72.90625 
L 39.796875 72.90625 
L 67.578125 0 
L 57.328125 0 
L 50.6875 18.703125 
L 17.828125 18.703125 
L 11.1875 0 
L 0.78125 0 
z
" id="DejaVuSans-65"/>
       <path d="M 5.515625 54.6875 
L 48.1875 54.6875 
L 48.1875 46.484375 
L 14.40625 7.171875 
L 48.1875 7.171875 
L 48.1875 0 
L 4.296875 0 
L 4.296875 8.203125 
L 38.09375 47.515625 
L 5.515625 47.515625 
z
" id="DejaVuSans-122"/>
       <path d="M 32.171875 -5.078125 
Q 28.375 -14.84375 24.75 -17.8125 
Q 21.140625 -20.796875 15.09375 -20.796875 
L 7.90625 -20.796875 
L 7.90625 -13.28125 
L 13.1875 -13.28125 
Q 16.890625 -13.28125 18.9375 -11.515625 
Q 21 -9.765625 23.484375 -3.21875 
L 25.09375 0.875 
L 2.984375 54.6875 
L 12.5 54.6875 
L 29.59375 11.921875 
L 46.6875 54.6875 
L 56.203125 54.6875 
z
" id="DejaVuSans-121"/>
      </defs>
      <use xlink:href="#DejaVuSans-65"/>
      <use x="68.408203" xlink:href="#DejaVuSans-109"/>
      <use x="165.820312" xlink:href="#DejaVuSans-97"/>
      <use x="227.099609" xlink:href="#DejaVuSans-122"/>
      <use x="279.589844" xlink:href="#DejaVuSans-111"/>
      <use x="340.771484" xlink:href="#DejaVuSans-110"/>
      <use x="404.150391" xlink:href="#DejaVuSans-32"/>
      <use x="435.9375" xlink:href="#DejaVuSans-80"/>
      <use x="494.490234" xlink:href="#DejaVuSans-114"/>
      <use x="535.603516" xlink:href="#DejaVuSans-105"/>
      <use x="563.386719" xlink:href="#DejaVuSans-109"/>
      <use x="660.798828" xlink:href="#DejaVuSans-101"/>
      <use x="722.322266" xlink:href="#DejaVuSans-32"/>
      <use x="754.109375" xlink:href="#DejaVuSans-68"/>
      <use x="831.111328" xlink:href="#DejaVuSans-97"/>
      <use x="892.390625" xlink:href="#DejaVuSans-121"/>
     </g>
    </g>
   </g>
  </g>
 </g>
 <defs>
  <clipPath id="p57721c5e67">
   <rect height="361.72" width="790.047146" x="44.57" y="28.32"/>
  </clipPath>
 </defs>
</svg>
