<?xml version="1.0" encoding="utf-8" standalone="no"?>
<!DOCTYPE svg PUBLIC "-//W3C//DTD SVG 1.1//EN"
  "http://www.w3.org/Graphics/SVG/1.1/DTD/svg11.dtd">
<!-- Created with matplotlib (https://matplotlib.org/) -->
<svg height="432pt" version="1.1" viewBox="0 0 864 432" width="864pt" xmlns="http://www.w3.org/2000/svg" xmlns:xlink="http://www.w3.org/1999/xlink">
 <metadata>
  <rdf:RDF xmlns:cc="http://creativecommons.org/ns#" xmlns:dc="http://purl.org/dc/elements/1.1/" xmlns:rdf="http://www.w3.org/1999/02/22-rdf-syntax-ns#">
   <cc:Work>
    <dc:type rdf:resource="http://purl.org/dc/dcmitype/StillImage"/>
    <dc:date>2020-09-22T04:27:08.088891</dc:date>
    <dc:format>image/svg+xml</dc:format>
    <dc:creator>
     <cc:Agent>
      <dc:title>Matplotlib v3.3.2, https://matplotlib.org/</dc:title>
     </cc:Agent>
    </dc:creator>
   </cc:Work>
  </rdf:RDF>
 </metadata>
 <defs>
  <style type="text/css">*{stroke-linecap:butt;stroke-linejoin:round;}</style>
 </defs>
 <g id="figure_1">
  <g id="patch_1">
   <path d="M 0 432 
L 864 432 
L 864 0 
L 0 0 
z
" style="fill:#ffffff;"/>
  </g>
  <g id="axes_1">
   <g id="patch_2">
    <path d="M 44.57 390.04 
L 853.2 390.04 
L 853.2 28.32 
L 44.57 28.32 
z
" style="fill:#ffffff;"/>
   </g>
   <g id="matplotlib.axis_1">
    <g id="xtick_1">
     <g id="line2d_1">
      <path clip-path="url(#p2a717b3a7c)" d="M 59.232193 390.04 
L 59.232193 28.32 
" style="fill:none;stroke:#b0b0b0;stroke-linecap:square;stroke-width:0.8;"/>
     </g>
     <g id="line2d_2">
      <defs>
       <path d="M 0 0 
L 0 3.5 
" id="m5aa7fc2221" style="stroke:#000000;stroke-width:0.8;"/>
      </defs>
      <g>
       <use style="stroke:#000000;stroke-width:0.8;" x="59.232193" xlink:href="#m5aa7fc2221" y="390.04"/>
      </g>
     </g>
     <g id="text_1">
      <!-- 2019-09 -->
      <g transform="translate(38.340787 404.638438)scale(0.1 -0.1)">
       <defs>
        <path d="M 19.1875 8.296875 
L 53.609375 8.296875 
L 53.609375 0 
L 7.328125 0 
L 7.328125 8.296875 
Q 12.9375 14.109375 22.625 23.890625 
Q 32.328125 33.6875 34.8125 36.53125 
Q 39.546875 41.84375 41.421875 45.53125 
Q 43.3125 49.21875 43.3125 52.78125 
Q 43.3125 58.59375 39.234375 62.25 
Q 35.15625 65.921875 28.609375 65.921875 
Q 23.96875 65.921875 18.8125 64.3125 
Q 13.671875 62.703125 7.8125 59.421875 
L 7.8125 69.390625 
Q 13.765625 71.78125 18.9375 73 
Q 24.125 74.21875 28.421875 74.21875 
Q 39.75 74.21875 46.484375 68.546875 
Q 53.21875 62.890625 53.21875 53.421875 
Q 53.21875 48.921875 51.53125 44.890625 
Q 49.859375 40.875 45.40625 35.40625 
Q 44.1875 33.984375 37.640625 27.21875 
Q 31.109375 20.453125 19.1875 8.296875 
z
" id="DejaVuSans-50"/>
        <path d="M 31.78125 66.40625 
Q 24.171875 66.40625 20.328125 58.90625 
Q 16.5 51.421875 16.5 36.375 
Q 16.5 21.390625 20.328125 13.890625 
Q 24.171875 6.390625 31.78125 6.390625 
Q 39.453125 6.390625 43.28125 13.890625 
Q 47.125 21.390625 47.125 36.375 
Q 47.125 51.421875 43.28125 58.90625 
Q 39.453125 66.40625 31.78125 66.40625 
z
M 31.78125 74.21875 
Q 44.046875 74.21875 50.515625 64.515625 
Q 56.984375 54.828125 56.984375 36.375 
Q 56.984375 17.96875 50.515625 8.265625 
Q 44.046875 -1.421875 31.78125 -1.421875 
Q 19.53125 -1.421875 13.0625 8.265625 
Q 6.59375 17.96875 6.59375 36.375 
Q 6.59375 54.828125 13.0625 64.515625 
Q 19.53125 74.21875 31.78125 74.21875 
z
" id="DejaVuSans-48"/>
        <path d="M 12.40625 8.296875 
L 28.515625 8.296875 
L 28.515625 63.921875 
L 10.984375 60.40625 
L 10.984375 69.390625 
L 28.421875 72.90625 
L 38.28125 72.90625 
L 38.28125 8.296875 
L 54.390625 8.296875 
L 54.390625 0 
L 12.40625 0 
z
" id="DejaVuSans-49"/>
        <path d="M 10.984375 1.515625 
L 10.984375 10.5 
Q 14.703125 8.734375 18.5 7.8125 
Q 22.3125 6.890625 25.984375 6.890625 
Q 35.75 6.890625 40.890625 13.453125 
Q 46.046875 20.015625 46.78125 33.40625 
Q 43.953125 29.203125 39.59375 26.953125 
Q 35.25 24.703125 29.984375 24.703125 
Q 19.046875 24.703125 12.671875 31.3125 
Q 6.296875 37.9375 6.296875 49.421875 
Q 6.296875 60.640625 12.9375 67.421875 
Q 19.578125 74.21875 30.609375 74.21875 
Q 43.265625 74.21875 49.921875 64.515625 
Q 56.59375 54.828125 56.59375 36.375 
Q 56.59375 19.140625 48.40625 8.859375 
Q 40.234375 -1.421875 26.421875 -1.421875 
Q 22.703125 -1.421875 18.890625 -0.6875 
Q 15.09375 0.046875 10.984375 1.515625 
z
M 30.609375 32.421875 
Q 37.25 32.421875 41.125 36.953125 
Q 45.015625 41.5 45.015625 49.421875 
Q 45.015625 57.28125 41.125 61.84375 
Q 37.25 66.40625 30.609375 66.40625 
Q 23.96875 66.40625 20.09375 61.84375 
Q 16.21875 57.28125 16.21875 49.421875 
Q 16.21875 41.5 20.09375 36.953125 
Q 23.96875 32.421875 30.609375 32.421875 
z
" id="DejaVuSans-57"/>
        <path d="M 4.890625 31.390625 
L 31.203125 31.390625 
L 31.203125 23.390625 
L 4.890625 23.390625 
z
" id="DejaVuSans-45"/>
       </defs>
       <use xlink:href="#DejaVuSans-50"/>
       <use x="63.623047" xlink:href="#DejaVuSans-48"/>
       <use x="127.246094" xlink:href="#DejaVuSans-49"/>
       <use x="190.869141" xlink:href="#DejaVuSans-57"/>
       <use x="254.492188" xlink:href="#DejaVuSans-45"/>
       <use x="290.576172" xlink:href="#DejaVuSans-48"/>
       <use x="354.199219" xlink:href="#DejaVuSans-57"/>
      </g>
     </g>
    </g>
    <g id="xtick_2">
     <g id="line2d_3">
      <path clip-path="url(#p2a717b3a7c)" d="M 181.75189 390.04 
L 181.75189 28.32 
" style="fill:none;stroke:#b0b0b0;stroke-linecap:square;stroke-width:0.8;"/>
     </g>
     <g id="line2d_4">
      <g>
       <use style="stroke:#000000;stroke-width:0.8;" x="181.75189" xlink:href="#m5aa7fc2221" y="390.04"/>
      </g>
     </g>
     <g id="text_2">
      <!-- 2019-11 -->
      <g transform="translate(160.860484 404.638438)scale(0.1 -0.1)">
       <use xlink:href="#DejaVuSans-50"/>
       <use x="63.623047" xlink:href="#DejaVuSans-48"/>
       <use x="127.246094" xlink:href="#DejaVuSans-49"/>
       <use x="190.869141" xlink:href="#DejaVuSans-57"/>
       <use x="254.492188" xlink:href="#DejaVuSans-45"/>
       <use x="290.576172" xlink:href="#DejaVuSans-49"/>
       <use x="354.199219" xlink:href="#DejaVuSans-49"/>
      </g>
     </g>
    </g>
    <g id="xtick_3">
     <g id="line2d_5">
      <path clip-path="url(#p2a717b3a7c)" d="M 304.271587 390.04 
L 304.271587 28.32 
" style="fill:none;stroke:#b0b0b0;stroke-linecap:square;stroke-width:0.8;"/>
     </g>
     <g id="line2d_6">
      <g>
       <use style="stroke:#000000;stroke-width:0.8;" x="304.271587" xlink:href="#m5aa7fc2221" y="390.04"/>
      </g>
     </g>
     <g id="text_3">
      <!-- 2020-01 -->
      <g transform="translate(283.380181 404.638438)scale(0.1 -0.1)">
       <use xlink:href="#DejaVuSans-50"/>
       <use x="63.623047" xlink:href="#DejaVuSans-48"/>
       <use x="127.246094" xlink:href="#DejaVuSans-50"/>
       <use x="190.869141" xlink:href="#DejaVuSans-48"/>
       <use x="254.492188" xlink:href="#DejaVuSans-45"/>
       <use x="290.576172" xlink:href="#DejaVuSans-48"/>
       <use x="354.199219" xlink:href="#DejaVuSans-49"/>
      </g>
     </g>
    </g>
    <g id="xtick_4">
     <g id="line2d_7">
      <path clip-path="url(#p2a717b3a7c)" d="M 424.782765 390.04 
L 424.782765 28.32 
" style="fill:none;stroke:#b0b0b0;stroke-linecap:square;stroke-width:0.8;"/>
     </g>
     <g id="line2d_8">
      <g>
       <use style="stroke:#000000;stroke-width:0.8;" x="424.782765" xlink:href="#m5aa7fc2221" y="390.04"/>
      </g>
     </g>
     <g id="text_4">
      <!-- 2020-03 -->
      <g transform="translate(403.891358 404.638438)scale(0.1 -0.1)">
       <defs>
        <path d="M 40.578125 39.3125 
Q 47.65625 37.796875 51.625 33 
Q 55.609375 28.21875 55.609375 21.1875 
Q 55.609375 10.40625 48.1875 4.484375 
Q 40.765625 -1.421875 27.09375 -1.421875 
Q 22.515625 -1.421875 17.65625 -0.515625 
Q 12.796875 0.390625 7.625 2.203125 
L 7.625 11.71875 
Q 11.71875 9.328125 16.59375 8.109375 
Q 21.484375 6.890625 26.8125 6.890625 
Q 36.078125 6.890625 40.9375 10.546875 
Q 45.796875 14.203125 45.796875 21.1875 
Q 45.796875 27.640625 41.28125 31.265625 
Q 36.765625 34.90625 28.71875 34.90625 
L 20.21875 34.90625 
L 20.21875 43.015625 
L 29.109375 43.015625 
Q 36.375 43.015625 40.234375 45.921875 
Q 44.09375 48.828125 44.09375 54.296875 
Q 44.09375 59.90625 40.109375 62.90625 
Q 36.140625 65.921875 28.71875 65.921875 
Q 24.65625 65.921875 20.015625 65.03125 
Q 15.375 64.15625 9.8125 62.3125 
L 9.8125 71.09375 
Q 15.4375 72.65625 20.34375 73.4375 
Q 25.25 74.21875 29.59375 74.21875 
Q 40.828125 74.21875 47.359375 69.109375 
Q 53.90625 64.015625 53.90625 55.328125 
Q 53.90625 49.265625 50.4375 45.09375 
Q 46.96875 40.921875 40.578125 39.3125 
z
" id="DejaVuSans-51"/>
       </defs>
       <use xlink:href="#DejaVuSans-50"/>
       <use x="63.623047" xlink:href="#DejaVuSans-48"/>
       <use x="127.246094" xlink:href="#DejaVuSans-50"/>
       <use x="190.869141" xlink:href="#DejaVuSans-48"/>
       <use x="254.492188" xlink:href="#DejaVuSans-45"/>
       <use x="290.576172" xlink:href="#DejaVuSans-48"/>
       <use x="354.199219" xlink:href="#DejaVuSans-51"/>
      </g>
     </g>
    </g>
    <g id="xtick_5">
     <g id="line2d_9">
      <path clip-path="url(#p2a717b3a7c)" d="M 547.302462 390.04 
L 547.302462 28.32 
" style="fill:none;stroke:#b0b0b0;stroke-linecap:square;stroke-width:0.8;"/>
     </g>
     <g id="line2d_10">
      <g>
       <use style="stroke:#000000;stroke-width:0.8;" x="547.302462" xlink:href="#m5aa7fc2221" y="390.04"/>
      </g>
     </g>
     <g id="text_5">
      <!-- 2020-05 -->
      <g transform="translate(526.411055 404.638438)scale(0.1 -0.1)">
       <defs>
        <path d="M 10.796875 72.90625 
L 49.515625 72.90625 
L 49.515625 64.59375 
L 19.828125 64.59375 
L 19.828125 46.734375 
Q 21.96875 47.46875 24.109375 47.828125 
Q 26.265625 48.1875 28.421875 48.1875 
Q 40.625 48.1875 47.75 41.5 
Q 54.890625 34.8125 54.890625 23.390625 
Q 54.890625 11.625 47.5625 5.09375 
Q 40.234375 -1.421875 26.90625 -1.421875 
Q 22.3125 -1.421875 17.546875 -0.640625 
Q 12.796875 0.140625 7.71875 1.703125 
L 7.71875 11.625 
Q 12.109375 9.234375 16.796875 8.0625 
Q 21.484375 6.890625 26.703125 6.890625 
Q 35.15625 6.890625 40.078125 11.328125 
Q 45.015625 15.765625 45.015625 23.390625 
Q 45.015625 31 40.078125 35.4375 
Q 35.15625 39.890625 26.703125 39.890625 
Q 22.75 39.890625 18.8125 39.015625 
Q 14.890625 38.140625 10.796875 36.28125 
z
" id="DejaVuSans-53"/>
       </defs>
       <use xlink:href="#DejaVuSans-50"/>
       <use x="63.623047" xlink:href="#DejaVuSans-48"/>
       <use x="127.246094" xlink:href="#DejaVuSans-50"/>
       <use x="190.869141" xlink:href="#DejaVuSans-48"/>
       <use x="254.492188" xlink:href="#DejaVuSans-45"/>
       <use x="290.576172" xlink:href="#DejaVuSans-48"/>
       <use x="354.199219" xlink:href="#DejaVuSans-53"/>
      </g>
     </g>
    </g>
    <g id="xtick_6">
     <g id="line2d_11">
      <path clip-path="url(#p2a717b3a7c)" d="M 669.822158 390.04 
L 669.822158 28.32 
" style="fill:none;stroke:#b0b0b0;stroke-linecap:square;stroke-width:0.8;"/>
     </g>
     <g id="line2d_12">
      <g>
       <use style="stroke:#000000;stroke-width:0.8;" x="669.822158" xlink:href="#m5aa7fc2221" y="390.04"/>
      </g>
     </g>
     <g id="text_6">
      <!-- 2020-07 -->
      <g transform="translate(648.930752 404.638438)scale(0.1 -0.1)">
       <defs>
        <path d="M 8.203125 72.90625 
L 55.078125 72.90625 
L 55.078125 68.703125 
L 28.609375 0 
L 18.3125 0 
L 43.21875 64.59375 
L 8.203125 64.59375 
z
" id="DejaVuSans-55"/>
       </defs>
       <use xlink:href="#DejaVuSans-50"/>
       <use x="63.623047" xlink:href="#DejaVuSans-48"/>
       <use x="127.246094" xlink:href="#DejaVuSans-50"/>
       <use x="190.869141" xlink:href="#DejaVuSans-48"/>
       <use x="254.492188" xlink:href="#DejaVuSans-45"/>
       <use x="290.576172" xlink:href="#DejaVuSans-48"/>
       <use x="354.199219" xlink:href="#DejaVuSans-55"/>
      </g>
     </g>
    </g>
    <g id="xtick_7">
     <g id="line2d_13">
      <path clip-path="url(#p2a717b3a7c)" d="M 794.350375 390.04 
L 794.350375 28.32 
" style="fill:none;stroke:#b0b0b0;stroke-linecap:square;stroke-width:0.8;"/>
     </g>
     <g id="line2d_14">
      <g>
       <use style="stroke:#000000;stroke-width:0.8;" x="794.350375" xlink:href="#m5aa7fc2221" y="390.04"/>
      </g>
     </g>
     <g id="text_7">
      <!-- 2020-09 -->
      <g transform="translate(773.458969 404.638438)scale(0.1 -0.1)">
       <use xlink:href="#DejaVuSans-50"/>
       <use x="63.623047" xlink:href="#DejaVuSans-48"/>
       <use x="127.246094" xlink:href="#DejaVuSans-50"/>
       <use x="190.869141" xlink:href="#DejaVuSans-48"/>
       <use x="254.492188" xlink:href="#DejaVuSans-45"/>
       <use x="290.576172" xlink:href="#DejaVuSans-48"/>
       <use x="354.199219" xlink:href="#DejaVuSans-57"/>
      </g>
     </g>
    </g>
    <g id="text_8">
     <!-- Datum -->
     <g transform="translate(431.971719 418.316562)scale(0.1 -0.1)">
      <defs>
       <path d="M 19.671875 64.796875 
L 19.671875 8.109375 
L 31.59375 8.109375 
Q 46.6875 8.109375 53.6875 14.9375 
Q 60.6875 21.78125 60.6875 36.53125 
Q 60.6875 51.171875 53.6875 57.984375 
Q 46.6875 64.796875 31.59375 64.796875 
z
M 9.8125 72.90625 
L 30.078125 72.90625 
Q 51.265625 72.90625 61.171875 64.09375 
Q 71.09375 55.28125 71.09375 36.53125 
Q 71.09375 17.671875 61.125 8.828125 
Q 51.171875 0 30.078125 0 
L 9.8125 0 
z
" id="DejaVuSans-68"/>
       <path d="M 34.28125 27.484375 
Q 23.390625 27.484375 19.1875 25 
Q 14.984375 22.515625 14.984375 16.5 
Q 14.984375 11.71875 18.140625 8.90625 
Q 21.296875 6.109375 26.703125 6.109375 
Q 34.1875 6.109375 38.703125 11.40625 
Q 43.21875 16.703125 43.21875 25.484375 
L 43.21875 27.484375 
z
M 52.203125 31.203125 
L 52.203125 0 
L 43.21875 0 
L 43.21875 8.296875 
Q 40.140625 3.328125 35.546875 0.953125 
Q 30.953125 -1.421875 24.3125 -1.421875 
Q 15.921875 -1.421875 10.953125 3.296875 
Q 6 8.015625 6 15.921875 
Q 6 25.140625 12.171875 29.828125 
Q 18.359375 34.515625 30.609375 34.515625 
L 43.21875 34.515625 
L 43.21875 35.40625 
Q 43.21875 41.609375 39.140625 45 
Q 35.0625 48.390625 27.6875 48.390625 
Q 23 48.390625 18.546875 47.265625 
Q 14.109375 46.140625 10.015625 43.890625 
L 10.015625 52.203125 
Q 14.9375 54.109375 19.578125 55.046875 
Q 24.21875 56 28.609375 56 
Q 40.484375 56 46.34375 49.84375 
Q 52.203125 43.703125 52.203125 31.203125 
z
" id="DejaVuSans-97"/>
       <path d="M 18.3125 70.21875 
L 18.3125 54.6875 
L 36.8125 54.6875 
L 36.8125 47.703125 
L 18.3125 47.703125 
L 18.3125 18.015625 
Q 18.3125 11.328125 20.140625 9.421875 
Q 21.96875 7.515625 27.59375 7.515625 
L 36.8125 7.515625 
L 36.8125 0 
L 27.59375 0 
Q 17.1875 0 13.234375 3.875 
Q 9.28125 7.765625 9.28125 18.015625 
L 9.28125 47.703125 
L 2.6875 47.703125 
L 2.6875 54.6875 
L 9.28125 54.6875 
L 9.28125 70.21875 
z
" id="DejaVuSans-116"/>
       <path d="M 8.5 21.578125 
L 8.5 54.6875 
L 17.484375 54.6875 
L 17.484375 21.921875 
Q 17.484375 14.15625 20.5 10.265625 
Q 23.53125 6.390625 29.59375 6.390625 
Q 36.859375 6.390625 41.078125 11.03125 
Q 45.3125 15.671875 45.3125 23.6875 
L 45.3125 54.6875 
L 54.296875 54.6875 
L 54.296875 0 
L 45.3125 0 
L 45.3125 8.40625 
Q 42.046875 3.421875 37.71875 1 
Q 33.40625 -1.421875 27.6875 -1.421875 
Q 18.265625 -1.421875 13.375 4.4375 
Q 8.5 10.296875 8.5 21.578125 
z
M 31.109375 56 
z
" id="DejaVuSans-117"/>
       <path d="M 52 44.1875 
Q 55.375 50.25 60.0625 53.125 
Q 64.75 56 71.09375 56 
Q 79.640625 56 84.28125 50.015625 
Q 88.921875 44.046875 88.921875 33.015625 
L 88.921875 0 
L 79.890625 0 
L 79.890625 32.71875 
Q 79.890625 40.578125 77.09375 44.375 
Q 74.3125 48.1875 68.609375 48.1875 
Q 61.625 48.1875 57.5625 43.546875 
Q 53.515625 38.921875 53.515625 30.90625 
L 53.515625 0 
L 44.484375 0 
L 44.484375 32.71875 
Q 44.484375 40.625 41.703125 44.40625 
Q 38.921875 48.1875 33.109375 48.1875 
Q 26.21875 48.1875 22.15625 43.53125 
Q 18.109375 38.875 18.109375 30.90625 
L 18.109375 0 
L 9.078125 0 
L 9.078125 54.6875 
L 18.109375 54.6875 
L 18.109375 46.1875 
Q 21.1875 51.21875 25.484375 53.609375 
Q 29.78125 56 35.6875 56 
Q 41.65625 56 45.828125 52.96875 
Q 50 49.953125 52 44.1875 
z
" id="DejaVuSans-109"/>
      </defs>
      <use xlink:href="#DejaVuSans-68"/>
      <use x="77.001953" xlink:href="#DejaVuSans-97"/>
      <use x="138.28125" xlink:href="#DejaVuSans-116"/>
      <use x="177.490234" xlink:href="#DejaVuSans-117"/>
      <use x="240.869141" xlink:href="#DejaVuSans-109"/>
     </g>
    </g>
   </g>
   <g id="matplotlib.axis_2">
    <g id="ytick_1">
     <g id="line2d_15">
      <path clip-path="url(#p2a717b3a7c)" d="M 44.57 327.259028 
L 853.2 327.259028 
" style="fill:none;stroke:#b0b0b0;stroke-linecap:square;stroke-width:0.8;"/>
     </g>
     <g id="line2d_16">
      <defs>
       <path d="M 0 0 
L -3.5 0 
" id="mc4b06b796f" style="stroke:#000000;stroke-width:0.8;"/>
      </defs>
      <g>
       <use style="stroke:#000000;stroke-width:0.8;" x="44.57" xlink:href="#mc4b06b796f" y="327.259028"/>
      </g>
     </g>
     <g id="text_9">
      <!-- 50 -->
      <g transform="translate(24.845 331.058247)scale(0.1 -0.1)">
       <use xlink:href="#DejaVuSans-53"/>
       <use x="63.623047" xlink:href="#DejaVuSans-48"/>
      </g>
     </g>
    </g>
    <g id="ytick_2">
     <g id="line2d_17">
      <path clip-path="url(#p2a717b3a7c)" d="M 44.57 258.60843 
L 853.2 258.60843 
" style="fill:none;stroke:#b0b0b0;stroke-linecap:square;stroke-width:0.8;"/>
     </g>
     <g id="line2d_18">
      <g>
       <use style="stroke:#000000;stroke-width:0.8;" x="44.57" xlink:href="#mc4b06b796f" y="258.60843"/>
      </g>
     </g>
     <g id="text_10">
      <!-- 60 -->
      <g transform="translate(24.845 262.407649)scale(0.1 -0.1)">
       <defs>
        <path d="M 33.015625 40.375 
Q 26.375 40.375 22.484375 35.828125 
Q 18.609375 31.296875 18.609375 23.390625 
Q 18.609375 15.53125 22.484375 10.953125 
Q 26.375 6.390625 33.015625 6.390625 
Q 39.65625 6.390625 43.53125 10.953125 
Q 47.40625 15.53125 47.40625 23.390625 
Q 47.40625 31.296875 43.53125 35.828125 
Q 39.65625 40.375 33.015625 40.375 
z
M 52.59375 71.296875 
L 52.59375 62.3125 
Q 48.875 64.0625 45.09375 64.984375 
Q 41.3125 65.921875 37.59375 65.921875 
Q 27.828125 65.921875 22.671875 59.328125 
Q 17.53125 52.734375 16.796875 39.40625 
Q 19.671875 43.65625 24.015625 45.921875 
Q 28.375 48.1875 33.59375 48.1875 
Q 44.578125 48.1875 50.953125 41.515625 
Q 57.328125 34.859375 57.328125 23.390625 
Q 57.328125 12.15625 50.6875 5.359375 
Q 44.046875 -1.421875 33.015625 -1.421875 
Q 20.359375 -1.421875 13.671875 8.265625 
Q 6.984375 17.96875 6.984375 36.375 
Q 6.984375 53.65625 15.1875 63.9375 
Q 23.390625 74.21875 37.203125 74.21875 
Q 40.921875 74.21875 44.703125 73.484375 
Q 48.484375 72.75 52.59375 71.296875 
z
" id="DejaVuSans-54"/>
       </defs>
       <use xlink:href="#DejaVuSans-54"/>
       <use x="63.623047" xlink:href="#DejaVuSans-48"/>
      </g>
     </g>
    </g>
    <g id="ytick_3">
     <g id="line2d_19">
      <path clip-path="url(#p2a717b3a7c)" d="M 44.57 189.957833 
L 853.2 189.957833 
" style="fill:none;stroke:#b0b0b0;stroke-linecap:square;stroke-width:0.8;"/>
     </g>
     <g id="line2d_20">
      <g>
       <use style="stroke:#000000;stroke-width:0.8;" x="44.57" xlink:href="#mc4b06b796f" y="189.957833"/>
      </g>
     </g>
     <g id="text_11">
      <!-- 70 -->
      <g transform="translate(24.845 193.757051)scale(0.1 -0.1)">
       <use xlink:href="#DejaVuSans-55"/>
       <use x="63.623047" xlink:href="#DejaVuSans-48"/>
      </g>
     </g>
    </g>
    <g id="ytick_4">
     <g id="line2d_21">
      <path clip-path="url(#p2a717b3a7c)" d="M 44.57 121.307235 
L 853.2 121.307235 
" style="fill:none;stroke:#b0b0b0;stroke-linecap:square;stroke-width:0.8;"/>
     </g>
     <g id="line2d_22">
      <g>
       <use style="stroke:#000000;stroke-width:0.8;" x="44.57" xlink:href="#mc4b06b796f" y="121.307235"/>
      </g>
     </g>
     <g id="text_12">
      <!-- 80 -->
      <g transform="translate(24.845 125.106454)scale(0.1 -0.1)">
       <defs>
        <path d="M 31.78125 34.625 
Q 24.75 34.625 20.71875 30.859375 
Q 16.703125 27.09375 16.703125 20.515625 
Q 16.703125 13.921875 20.71875 10.15625 
Q 24.75 6.390625 31.78125 6.390625 
Q 38.8125 6.390625 42.859375 10.171875 
Q 46.921875 13.96875 46.921875 20.515625 
Q 46.921875 27.09375 42.890625 30.859375 
Q 38.875 34.625 31.78125 34.625 
z
M 21.921875 38.8125 
Q 15.578125 40.375 12.03125 44.71875 
Q 8.5 49.078125 8.5 55.328125 
Q 8.5 64.0625 14.71875 69.140625 
Q 20.953125 74.21875 31.78125 74.21875 
Q 42.671875 74.21875 48.875 69.140625 
Q 55.078125 64.0625 55.078125 55.328125 
Q 55.078125 49.078125 51.53125 44.71875 
Q 48 40.375 41.703125 38.8125 
Q 48.828125 37.15625 52.796875 32.3125 
Q 56.78125 27.484375 56.78125 20.515625 
Q 56.78125 9.90625 50.3125 4.234375 
Q 43.84375 -1.421875 31.78125 -1.421875 
Q 19.734375 -1.421875 13.25 4.234375 
Q 6.78125 9.90625 6.78125 20.515625 
Q 6.78125 27.484375 10.78125 32.3125 
Q 14.796875 37.15625 21.921875 38.8125 
z
M 18.3125 54.390625 
Q 18.3125 48.734375 21.84375 45.5625 
Q 25.390625 42.390625 31.78125 42.390625 
Q 38.140625 42.390625 41.71875 45.5625 
Q 45.3125 48.734375 45.3125 54.390625 
Q 45.3125 60.0625 41.71875 63.234375 
Q 38.140625 66.40625 31.78125 66.40625 
Q 25.390625 66.40625 21.84375 63.234375 
Q 18.3125 60.0625 18.3125 54.390625 
z
" id="DejaVuSans-56"/>
       </defs>
       <use xlink:href="#DejaVuSans-56"/>
       <use x="63.623047" xlink:href="#DejaVuSans-48"/>
      </g>
     </g>
    </g>
    <g id="ytick_5">
     <g id="line2d_23">
      <path clip-path="url(#p2a717b3a7c)" d="M 44.57 52.656637 
L 853.2 52.656637 
" style="fill:none;stroke:#b0b0b0;stroke-linecap:square;stroke-width:0.8;"/>
     </g>
     <g id="line2d_24">
      <g>
       <use style="stroke:#000000;stroke-width:0.8;" x="44.57" xlink:href="#mc4b06b796f" y="52.656637"/>
      </g>
     </g>
     <g id="text_13">
      <!-- 90 -->
      <g transform="translate(24.845 56.455856)scale(0.1 -0.1)">
       <use xlink:href="#DejaVuSans-57"/>
       <use x="63.623047" xlink:href="#DejaVuSans-48"/>
      </g>
     </g>
    </g>
    <g id="text_14">
     <!-- durchschnittliche Produktpreise (€) -->
     <g transform="translate(18.765313 296.810469)rotate(-90)scale(0.1 -0.1)">
      <defs>
       <path d="M 45.40625 46.390625 
L 45.40625 75.984375 
L 54.390625 75.984375 
L 54.390625 0 
L 45.40625 0 
L 45.40625 8.203125 
Q 42.578125 3.328125 38.25 0.953125 
Q 33.9375 -1.421875 27.875 -1.421875 
Q 17.96875 -1.421875 11.734375 6.484375 
Q 5.515625 14.40625 5.515625 27.296875 
Q 5.515625 40.1875 11.734375 48.09375 
Q 17.96875 56 27.875 56 
Q 33.9375 56 38.25 53.625 
Q 42.578125 51.265625 45.40625 46.390625 
z
M 14.796875 27.296875 
Q 14.796875 17.390625 18.875 11.75 
Q 22.953125 6.109375 30.078125 6.109375 
Q 37.203125 6.109375 41.296875 11.75 
Q 45.40625 17.390625 45.40625 27.296875 
Q 45.40625 37.203125 41.296875 42.84375 
Q 37.203125 48.484375 30.078125 48.484375 
Q 22.953125 48.484375 18.875 42.84375 
Q 14.796875 37.203125 14.796875 27.296875 
z
" id="DejaVuSans-100"/>
       <path d="M 41.109375 46.296875 
Q 39.59375 47.171875 37.8125 47.578125 
Q 36.03125 48 33.890625 48 
Q 26.265625 48 22.1875 43.046875 
Q 18.109375 38.09375 18.109375 28.8125 
L 18.109375 0 
L 9.078125 0 
L 9.078125 54.6875 
L 18.109375 54.6875 
L 18.109375 46.1875 
Q 20.953125 51.171875 25.484375 53.578125 
Q 30.03125 56 36.53125 56 
Q 37.453125 56 38.578125 55.875 
Q 39.703125 55.765625 41.0625 55.515625 
z
" id="DejaVuSans-114"/>
       <path d="M 48.78125 52.59375 
L 48.78125 44.1875 
Q 44.96875 46.296875 41.140625 47.34375 
Q 37.3125 48.390625 33.40625 48.390625 
Q 24.65625 48.390625 19.8125 42.84375 
Q 14.984375 37.3125 14.984375 27.296875 
Q 14.984375 17.28125 19.8125 11.734375 
Q 24.65625 6.203125 33.40625 6.203125 
Q 37.3125 6.203125 41.140625 7.25 
Q 44.96875 8.296875 48.78125 10.40625 
L 48.78125 2.09375 
Q 45.015625 0.34375 40.984375 -0.53125 
Q 36.96875 -1.421875 32.421875 -1.421875 
Q 20.0625 -1.421875 12.78125 6.34375 
Q 5.515625 14.109375 5.515625 27.296875 
Q 5.515625 40.671875 12.859375 48.328125 
Q 20.21875 56 33.015625 56 
Q 37.15625 56 41.109375 55.140625 
Q 45.0625 54.296875 48.78125 52.59375 
z
" id="DejaVuSans-99"/>
       <path d="M 54.890625 33.015625 
L 54.890625 0 
L 45.90625 0 
L 45.90625 32.71875 
Q 45.90625 40.484375 42.875 44.328125 
Q 39.84375 48.1875 33.796875 48.1875 
Q 26.515625 48.1875 22.3125 43.546875 
Q 18.109375 38.921875 18.109375 30.90625 
L 18.109375 0 
L 9.078125 0 
L 9.078125 75.984375 
L 18.109375 75.984375 
L 18.109375 46.1875 
Q 21.34375 51.125 25.703125 53.5625 
Q 30.078125 56 35.796875 56 
Q 45.21875 56 50.046875 50.171875 
Q 54.890625 44.34375 54.890625 33.015625 
z
" id="DejaVuSans-104"/>
       <path d="M 44.28125 53.078125 
L 44.28125 44.578125 
Q 40.484375 46.53125 36.375 47.5 
Q 32.28125 48.484375 27.875 48.484375 
Q 21.1875 48.484375 17.84375 46.4375 
Q 14.5 44.390625 14.5 40.28125 
Q 14.5 37.15625 16.890625 35.375 
Q 19.28125 33.59375 26.515625 31.984375 
L 29.59375 31.296875 
Q 39.15625 29.25 43.1875 25.515625 
Q 47.21875 21.78125 47.21875 15.09375 
Q 47.21875 7.46875 41.1875 3.015625 
Q 35.15625 -1.421875 24.609375 -1.421875 
Q 20.21875 -1.421875 15.453125 -0.5625 
Q 10.6875 0.296875 5.421875 2 
L 5.421875 11.28125 
Q 10.40625 8.6875 15.234375 7.390625 
Q 20.0625 6.109375 24.8125 6.109375 
Q 31.15625 6.109375 34.5625 8.28125 
Q 37.984375 10.453125 37.984375 14.40625 
Q 37.984375 18.0625 35.515625 20.015625 
Q 33.0625 21.96875 24.703125 23.78125 
L 21.578125 24.515625 
Q 13.234375 26.265625 9.515625 29.90625 
Q 5.8125 33.546875 5.8125 39.890625 
Q 5.8125 47.609375 11.28125 51.796875 
Q 16.75 56 26.8125 56 
Q 31.78125 56 36.171875 55.265625 
Q 40.578125 54.546875 44.28125 53.078125 
z
" id="DejaVuSans-115"/>
       <path d="M 54.890625 33.015625 
L 54.890625 0 
L 45.90625 0 
L 45.90625 32.71875 
Q 45.90625 40.484375 42.875 44.328125 
Q 39.84375 48.1875 33.796875 48.1875 
Q 26.515625 48.1875 22.3125 43.546875 
Q 18.109375 38.921875 18.109375 30.90625 
L 18.109375 0 
L 9.078125 0 
L 9.078125 54.6875 
L 18.109375 54.6875 
L 18.109375 46.1875 
Q 21.34375 51.125 25.703125 53.5625 
Q 30.078125 56 35.796875 56 
Q 45.21875 56 50.046875 50.171875 
Q 54.890625 44.34375 54.890625 33.015625 
z
" id="DejaVuSans-110"/>
       <path d="M 9.421875 54.6875 
L 18.40625 54.6875 
L 18.40625 0 
L 9.421875 0 
z
M 9.421875 75.984375 
L 18.40625 75.984375 
L 18.40625 64.59375 
L 9.421875 64.59375 
z
" id="DejaVuSans-105"/>
       <path d="M 9.421875 75.984375 
L 18.40625 75.984375 
L 18.40625 0 
L 9.421875 0 
z
" id="DejaVuSans-108"/>
       <path d="M 56.203125 29.59375 
L 56.203125 25.203125 
L 14.890625 25.203125 
Q 15.484375 15.921875 20.484375 11.0625 
Q 25.484375 6.203125 34.421875 6.203125 
Q 39.59375 6.203125 44.453125 7.46875 
Q 49.3125 8.734375 54.109375 11.28125 
L 54.109375 2.78125 
Q 49.265625 0.734375 44.1875 -0.34375 
Q 39.109375 -1.421875 33.890625 -1.421875 
Q 20.796875 -1.421875 13.15625 6.1875 
Q 5.515625 13.8125 5.515625 26.8125 
Q 5.515625 40.234375 12.765625 48.109375 
Q 20.015625 56 32.328125 56 
Q 43.359375 56 49.78125 48.890625 
Q 56.203125 41.796875 56.203125 29.59375 
z
M 47.21875 32.234375 
Q 47.125 39.59375 43.09375 43.984375 
Q 39.0625 48.390625 32.421875 48.390625 
Q 24.90625 48.390625 20.390625 44.140625 
Q 15.875 39.890625 15.1875 32.171875 
z
" id="DejaVuSans-101"/>
       <path id="DejaVuSans-32"/>
       <path d="M 19.671875 64.796875 
L 19.671875 37.40625 
L 32.078125 37.40625 
Q 38.96875 37.40625 42.71875 40.96875 
Q 46.484375 44.53125 46.484375 51.125 
Q 46.484375 57.671875 42.71875 61.234375 
Q 38.96875 64.796875 32.078125 64.796875 
z
M 9.8125 72.90625 
L 32.078125 72.90625 
Q 44.34375 72.90625 50.609375 67.359375 
Q 56.890625 61.8125 56.890625 51.125 
Q 56.890625 40.328125 50.609375 34.8125 
Q 44.34375 29.296875 32.078125 29.296875 
L 19.671875 29.296875 
L 19.671875 0 
L 9.8125 0 
z
" id="DejaVuSans-80"/>
       <path d="M 30.609375 48.390625 
Q 23.390625 48.390625 19.1875 42.75 
Q 14.984375 37.109375 14.984375 27.296875 
Q 14.984375 17.484375 19.15625 11.84375 
Q 23.34375 6.203125 30.609375 6.203125 
Q 37.796875 6.203125 41.984375 11.859375 
Q 46.1875 17.53125 46.1875 27.296875 
Q 46.1875 37.015625 41.984375 42.703125 
Q 37.796875 48.390625 30.609375 48.390625 
z
M 30.609375 56 
Q 42.328125 56 49.015625 48.375 
Q 55.71875 40.765625 55.71875 27.296875 
Q 55.71875 13.875 49.015625 6.21875 
Q 42.328125 -1.421875 30.609375 -1.421875 
Q 18.84375 -1.421875 12.171875 6.21875 
Q 5.515625 13.875 5.515625 27.296875 
Q 5.515625 40.765625 12.171875 48.375 
Q 18.84375 56 30.609375 56 
z
" id="DejaVuSans-111"/>
       <path d="M 9.078125 75.984375 
L 18.109375 75.984375 
L 18.109375 31.109375 
L 44.921875 54.6875 
L 56.390625 54.6875 
L 27.390625 29.109375 
L 57.625 0 
L 45.90625 0 
L 18.109375 26.703125 
L 18.109375 0 
L 9.078125 0 
z
" id="DejaVuSans-107"/>
       <path d="M 18.109375 8.203125 
L 18.109375 -20.796875 
L 9.078125 -20.796875 
L 9.078125 54.6875 
L 18.109375 54.6875 
L 18.109375 46.390625 
Q 20.953125 51.265625 25.265625 53.625 
Q 29.59375 56 35.59375 56 
Q 45.5625 56 51.78125 48.09375 
Q 58.015625 40.1875 58.015625 27.296875 
Q 58.015625 14.40625 51.78125 6.484375 
Q 45.5625 -1.421875 35.59375 -1.421875 
Q 29.59375 -1.421875 25.265625 0.953125 
Q 20.953125 3.328125 18.109375 8.203125 
z
M 48.6875 27.296875 
Q 48.6875 37.203125 44.609375 42.84375 
Q 40.53125 48.484375 33.40625 48.484375 
Q 26.265625 48.484375 22.1875 42.84375 
Q 18.109375 37.203125 18.109375 27.296875 
Q 18.109375 17.390625 22.1875 11.75 
Q 26.265625 6.109375 33.40625 6.109375 
Q 40.53125 6.109375 44.609375 11.75 
Q 48.6875 17.390625 48.6875 27.296875 
z
" id="DejaVuSans-112"/>
       <path d="M 31 75.875 
Q 24.46875 64.65625 21.28125 53.65625 
Q 18.109375 42.671875 18.109375 31.390625 
Q 18.109375 20.125 21.3125 9.0625 
Q 24.515625 -2 31 -13.1875 
L 23.1875 -13.1875 
Q 15.875 -1.703125 12.234375 9.375 
Q 8.59375 20.453125 8.59375 31.390625 
Q 8.59375 42.28125 12.203125 53.3125 
Q 15.828125 64.359375 23.1875 75.875 
z
" id="DejaVuSans-40"/>
       <path d="M 56.984375 67.28125 
L 56.984375 56.890625 
Q 52.546875 62.015625 48.40625 64.203125 
Q 44.28125 66.40625 39.3125 66.40625 
Q 31.640625 66.40625 26.703125 61.515625 
Q 21.78125 56.640625 20.21875 47.515625 
L 48.390625 47.515625 
L 45.703125 41.5 
L 19.4375 41.5 
Q 19.34375 40.328125 19.3125 39.203125 
Q 19.28125 38.09375 19.28125 36.375 
Q 19.28125 34.8125 19.3125 33.6875 
Q 19.34375 32.5625 19.4375 31.390625 
L 41.21875 31.390625 
L 38.484375 25.390625 
L 20.21875 25.390625 
Q 21.78125 16.265625 26.703125 11.328125 
Q 31.640625 6.390625 39.3125 6.390625 
Q 44.28125 6.390625 48.40625 8.59375 
Q 52.546875 10.796875 56.984375 15.921875 
L 56.984375 5.609375 
Q 52.640625 2.09375 48.125 0.328125 
Q 43.609375 -1.421875 38.921875 -1.421875 
Q 27.34375 -1.421875 19.796875 5.65625 
Q 12.25 12.75 10.296875 25.390625 
L 0 25.390625 
L 2.6875 31.390625 
L 9.46875 31.390625 
Q 9.46875 32.515625 9.4375 33.65625 
Q 9.421875 34.8125 9.421875 36.375 
Q 9.421875 38.09375 9.4375 39.234375 
Q 9.46875 40.375 9.46875 41.5 
L 0 41.5 
L 2.6875 47.515625 
L 10.296875 47.515625 
Q 12.25 60.0625 19.8125 67.140625 
Q 27.390625 74.21875 38.921875 74.21875 
Q 43.703125 74.21875 48.21875 72.484375 
Q 52.734375 70.75 56.984375 67.28125 
z
" id="DejaVuSans-8364"/>
       <path d="M 8.015625 75.875 
L 15.828125 75.875 
Q 23.140625 64.359375 26.78125 53.3125 
Q 30.421875 42.28125 30.421875 31.390625 
Q 30.421875 20.453125 26.78125 9.375 
Q 23.140625 -1.703125 15.828125 -13.1875 
L 8.015625 -13.1875 
Q 14.5 -2 17.703125 9.0625 
Q 20.90625 20.125 20.90625 31.390625 
Q 20.90625 42.671875 17.703125 53.65625 
Q 14.5 64.65625 8.015625 75.875 
z
" id="DejaVuSans-41"/>
      </defs>
      <use xlink:href="#DejaVuSans-100"/>
      <use x="63.476562" xlink:href="#DejaVuSans-117"/>
      <use x="126.855469" xlink:href="#DejaVuSans-114"/>
      <use x="165.71875" xlink:href="#DejaVuSans-99"/>
      <use x="220.699219" xlink:href="#DejaVuSans-104"/>
      <use x="284.078125" xlink:href="#DejaVuSans-115"/>
      <use x="336.177734" xlink:href="#DejaVuSans-99"/>
      <use x="391.158203" xlink:href="#DejaVuSans-104"/>
      <use x="454.537109" xlink:href="#DejaVuSans-110"/>
      <use x="517.916016" xlink:href="#DejaVuSans-105"/>
      <use x="545.699219" xlink:href="#DejaVuSans-116"/>
      <use x="584.908203" xlink:href="#DejaVuSans-116"/>
      <use x="624.117188" xlink:href="#DejaVuSans-108"/>
      <use x="651.900391" xlink:href="#DejaVuSans-105"/>
      <use x="679.683594" xlink:href="#DejaVuSans-99"/>
      <use x="734.664062" xlink:href="#DejaVuSans-104"/>
      <use x="798.042969" xlink:href="#DejaVuSans-101"/>
      <use x="859.566406" xlink:href="#DejaVuSans-32"/>
      <use x="891.353516" xlink:href="#DejaVuSans-80"/>
      <use x="949.90625" xlink:href="#DejaVuSans-114"/>
      <use x="988.769531" xlink:href="#DejaVuSans-111"/>
      <use x="1049.951172" xlink:href="#DejaVuSans-100"/>
      <use x="1113.427734" xlink:href="#DejaVuSans-117"/>
      <use x="1176.806641" xlink:href="#DejaVuSans-107"/>
      <use x="1234.716797" xlink:href="#DejaVuSans-116"/>
      <use x="1273.925781" xlink:href="#DejaVuSans-112"/>
      <use x="1337.402344" xlink:href="#DejaVuSans-114"/>
      <use x="1376.265625" xlink:href="#DejaVuSans-101"/>
      <use x="1437.789062" xlink:href="#DejaVuSans-105"/>
      <use x="1465.572266" xlink:href="#DejaVuSans-115"/>
      <use x="1517.671875" xlink:href="#DejaVuSans-101"/>
      <use x="1579.195312" xlink:href="#DejaVuSans-32"/>
      <use x="1610.982422" xlink:href="#DejaVuSans-40"/>
      <use x="1649.996094" xlink:href="#DejaVuSans-8364"/>
      <use x="1713.619141" xlink:href="#DejaVuSans-41"/>
     </g>
    </g>
   </g>
   <g id="LineCollection_1">
    <path clip-path="url(#p2a717b3a7c)" d="M 356.493097 373.598182 
L 356.493097 44.761818 
" style="fill:none;stroke:#ff0000;stroke-dasharray:19.2,4.8,3,4.8;stroke-dashoffset:0;stroke-width:3;"/>
   </g>
   <g id="LineCollection_2">
    <path clip-path="url(#p2a717b3a7c)" d="M 466.961677 373.598182 
L 466.961677 44.761818 
" style="fill:none;stroke:#008000;stroke-dasharray:19.2,4.8,3,4.8;stroke-dashoffset:0;stroke-width:3;"/>
   </g>
   <g id="LineCollection_3">
    <path clip-path="url(#p2a717b3a7c)" d="M 525.208746 373.598182 
L 525.208746 44.761818 
" style="fill:none;stroke:#0000ff;stroke-dasharray:19.2,4.8,3,4.8;stroke-dashoffset:0;stroke-width:3;"/>
   </g>
   <g id="line2d_25">
    <path clip-path="url(#p2a717b3a7c)" d="M 81.325909 135.403491 
L 83.334429 130.483531 
L 85.342948 137.531659 
L 87.351468 94.144482 
L 89.359988 87.096354 
L 91.368507 97.37106 
L 93.377027 90.528883 
L 95.385546 138.241049 
L 97.394066 121.650488 
L 99.402586 87.096354 
L 101.411105 111.101179 
L 103.419625 131.627708 
L 105.428145 140.414985 
L 107.436664 92.931654 
L 109.445184 112.268239 
L 111.453703 112.268239 
L 113.462223 113.297998 
L 115.470743 113.297998 
L 117.479262 146.822374 
L 119.487782 147.852133 
L 121.496302 193.642081 
L 123.504821 111.330015 
L 125.513341 158.950646 
L 127.52186 115.44905 
L 141.581498 115.44905 
L 143.590017 101.055308 
L 145.598537 115.220215 
L 147.607057 121.627604 
L 149.615576 133.00072 
L 151.624096 156.204622 
L 153.632615 138.103748 
L 155.641135 145.151876 
L 157.649655 145.151876 
L 159.658174 219.797959 
L 161.666694 145.998566 
L 163.675214 223.916995 
L 165.683733 286.869593 
L 167.692253 258.951683 
L 169.700772 257.121001 
L 171.709292 257.121001 
L 173.717812 305.63409 
L 175.726331 218.585132 
L 177.734851 222.109196 
L 179.743371 120.185942 
L 181.75189 101.764698 
L 183.76041 108.378039 
L 185.768929 101.764698 
L 187.777449 100.48322 
L 189.785969 101.558746 
L 191.794488 95.448843 
L 193.803008 93.663927 
L 195.811528 81.398354 
L 197.820047 81.398354 
L 199.828567 67.11903 
L 201.837086 70.757511 
L 203.845606 69.613335 
L 205.854126 89.842377 
L 207.862645 118.217958 
L 209.871165 122.405644 
L 211.879685 92.542634 
L 213.888204 85.929293 
L 215.896724 83.618057 
L 217.905243 92.908771 
L 219.913763 88.698201 
L 221.922283 105.334529 
L 223.930802 94.991172 
L 225.939322 95.128473 
L 227.947842 104.281887 
L 229.956361 85.723342 
L 231.964881 91.238273 
L 233.9734 104.968392 
L 235.98192 153.000927 
L 237.99044 148.927659 
L 239.998959 161.673786 
L 242.007479 126.867933 
L 244.015999 126.867933 
L 246.024518 115.883838 
L 248.033038 115.883838 
L 250.041557 128.240945 
L 252.050077 117.142432 
L 254.058597 118.126424 
L 256.067116 109.178962 
L 258.075636 122.108158 
L 260.084155 128.195178 
L 262.092675 133.206672 
L 264.101195 124.396512 
L 266.109714 105.426063 
L 268.118234 102.680039 
L 270.126754 84.945301 
L 272.135273 113.160697 
L 274.143793 78.286193 
L 276.152312 169.820324 
L 278.160832 101.032425 
L 292.220469 101.032425 
L 294.228989 147.440229 
L 296.237509 135.906929 
L 306.280107 135.906929 
L 308.288626 101.032425 
L 310.297146 93.114723 
L 312.305666 87.233655 
L 314.314185 133.343973 
L 316.322705 101.512979 
L 318.331225 144.92304 
L 320.339744 139.225041 
L 322.348264 159.545618 
L 324.356783 124.19056 
L 326.365303 112.748794 
L 328.373823 144.92304 
L 330.382342 144.92304 
L 332.390862 124.19056 
L 334.399382 147.074092 
L 336.407901 192.841158 
L 338.416421 192.841158 
L 340.42494 206.113607 
L 342.43346 187.73813 
L 344.44198 245.633467 
L 346.450499 189.179792 
L 348.459019 213.665172 
L 350.467538 212.063325 
L 352.476058 212.063325 
L 354.484578 232.521203 
L 356.493097 246.091138 
L 358.501617 246.091138 
L 360.510137 247.235315 
L 362.518656 174.488565 
L 364.527176 174.488565 
L 366.535695 255.290318 
L 368.544215 154.579891 
L 370.552735 175.197954 
L 372.561254 175.197954 
L 374.569774 154.579891 
L 376.578294 255.290318 
L 378.586813 154.579891 
L 388.629411 154.579891 
L 390.637931 183.024122 
L 392.646451 199.957936 
L 394.65497 154.579891 
L 396.66349 154.579891 
L 398.672009 113.458183 
L 400.680529 131.696359 
L 402.689049 159.156598 
L 404.697568 167.234485 
L 406.706088 183.710628 
L 410.723127 183.710628 
L 412.731647 131.90231 
L 414.740166 142.58892 
L 416.748686 124.282094 
L 418.757206 117.073781 
L 420.765725 124.899949 
L 424.782765 124.899949 
L 426.791284 126.501797 
L 428.799804 126.501797 
L 430.808323 103.618264 
L 432.816843 128.309596 
L 434.825363 100.277268 
L 436.833882 95.952281 
L 438.842402 95.952281 
L 440.850922 98.99579 
L 442.859441 158.172606 
L 444.867961 94.098714 
L 446.87648 125.243202 
L 448.885 125.243202 
L 450.89352 115.517701 
L 452.902039 84.190145 
L 454.910559 84.190145 
L 456.919078 91.055205 
L 458.927598 159.911754 
L 460.936118 99.201742 
L 462.944637 98.400819 
L 464.953157 98.400819 
L 466.961677 94.602152 
L 468.970196 111.856336 
L 470.978716 111.146946 
L 472.987235 112.405541 
L 474.995755 112.405541 
L 477.004275 135.060238 
L 483.029834 135.060238 
L 485.038353 162.543361 
L 487.046873 90.414466 
L 489.055392 95.906514 
L 491.063912 158.149722 
L 493.072432 181.033255 
L 495.080951 109.888352 
L 501.10651 109.888352 
L 503.11503 119.041765 
L 507.132069 119.041765 
L 509.140589 109.888352 
L 511.149108 109.888352 
L 513.157628 139.041973 
L 515.166148 141.467627 
L 517.174667 139.041973 
L 519.183187 146.502004 
L 521.191706 93.778345 
L 525.208746 93.778345 
L 527.217265 146.502004 
L 529.225785 146.502004 
L 531.234305 90.963671 
L 533.242824 67.164797 
L 535.251344 56.318002 
L 537.259863 56.318002 
L 539.268383 44.761818 
L 541.276903 55.150942 
L 543.285422 56.958741 
L 545.293942 70.23119 
L 547.302462 156.616526 
L 549.310981 74.029856 
L 551.319501 74.029856 
L 553.32802 99.293276 
L 555.33654 54.990757 
L 557.34506 120.025757 
L 559.353579 120.025757 
L 561.362099 107.805951 
L 563.370618 107.805951 
L 565.379138 116.959364 
L 567.387658 118.469677 
L 569.396177 119.65962 
L 571.404697 121.902207 
L 573.413217 108.194971 
L 575.421736 145.128992 
L 577.430256 147.165627 
L 579.438775 143.618679 
L 581.447295 125.494921 
L 583.455815 125.494921 
L 585.464334 152.840743 
L 587.472854 152.840743 
L 589.481374 167.85234 
L 591.489893 167.85234 
L 593.498413 127.554439 
L 595.506932 122.748897 
L 597.515452 117.577219 
L 599.523972 112.977629 
L 601.532491 142.726221 
L 603.541011 142.726221 
L 605.549531 148.012317 
L 607.55805 148.012317 
L 609.56657 117.691637 
L 611.575089 137.096872 
L 613.583609 115.151564 
L 615.592129 118.561211 
L 617.600648 125.243202 
L 619.609168 125.243202 
L 621.617688 134.419499 
L 623.626207 137.348591 
L 625.634727 156.296156 
L 627.643246 158.607393 
L 629.651766 158.607393 
L 631.660286 187.921198 
L 633.668805 189.408628 
L 635.677325 135.65521 
L 637.685845 158.607393 
L 639.694364 158.607393 
L 641.702884 169.294003 
L 643.711403 169.294003 
L 645.719923 154.83161 
L 647.728443 151.765217 
L 649.736962 138.103748 
L 651.745482 141.856647 
L 653.754001 152.56614 
L 655.762521 148.012317 
L 657.771041 129.133403 
L 659.77956 142.451619 
L 661.78808 141.055723 
L 663.7966 154.373939 
L 665.805119 137.417242 
L 667.813639 159.156598 
L 669.822158 199.20278 
L 671.830678 162.817963 
L 673.839198 195.701599 
L 675.847717 218.562248 
L 677.856237 218.562248 
L 679.864757 162.817963 
L 681.873276 195.701599 
L 683.881796 198.03572 
L 685.890315 195.701599 
L 689.907355 195.701599 
L 691.915874 163.046798 
L 693.924394 195.701599 
L 701.958472 195.724483 
L 703.966992 199.248547 
L 705.975512 153.573016 
L 709.992551 153.550132 
L 712.001071 166.799698 
L 714.00959 193.573431 
L 716.01811 168.355778 
L 720.035149 168.355778 
L 722.043669 176.342131 
L 724.052188 168.378661 
L 726.060708 157.119963 
L 728.069228 202.681077 
L 730.077747 202.681077 
L 732.086267 190.278202 
L 734.094786 168.56173 
L 736.103306 202.681077 
L 738.111826 202.681077 
L 740.120345 183.91658 
L 742.128865 157.142847 
L 744.137385 188.195801 
L 746.145904 195.816017 
L 752.171463 195.793133 
L 754.179983 157.119963 
L 758.197022 157.119963 
L 760.205541 153.252646 
L 762.214061 244.786777 
L 766.2311 244.80966 
L 768.23962 237.258095 
L 770.24814 237.235211 
L 772.256659 248.699861 
L 774.265179 237.258095 
L 776.273698 265.839627 
L 778.282218 277.25851 
L 780.290738 266.388832 
L 782.299257 239.637982 
L 784.307777 248.699861 
L 786.316297 248.699861 
L 788.324816 232.56697 
L 790.333336 233.230593 
L 792.341855 373.598182 
L 794.350375 248.676977 
L 800.375934 248.676977 
L 802.384454 237.372512 
L 804.392973 237.372512 
L 806.401493 177.669376 
L 810.418532 177.646492 
L 812.427052 237.349629 
L 816.444091 237.349629 
L 816.444091 237.349629 
" style="fill:none;stroke:#1f77b4;stroke-linecap:square;stroke-width:1.5;"/>
   </g>
   <g id="patch_3">
    <path d="M 44.57 390.04 
L 44.57 28.32 
" style="fill:none;stroke:#000000;stroke-linecap:square;stroke-linejoin:miter;stroke-width:0.8;"/>
   </g>
   <g id="patch_4">
    <path d="M 853.2 390.04 
L 853.2 28.32 
" style="fill:none;stroke:#000000;stroke-linecap:square;stroke-linejoin:miter;stroke-width:0.8;"/>
   </g>
   <g id="patch_5">
    <path d="M 44.57 390.04 
L 853.2 390.04 
" style="fill:none;stroke:#000000;stroke-linecap:square;stroke-linejoin:miter;stroke-width:0.8;"/>
   </g>
   <g id="patch_6">
    <path d="M 44.57 28.32 
L 853.2 28.32 
" style="fill:none;stroke:#000000;stroke-linecap:square;stroke-linejoin:miter;stroke-width:0.8;"/>
   </g>
   <g id="text_15">
    <!-- Mode&amp;Accessoires(von Sep. 2019 bis Sep. 2020) -->
    <g transform="translate(265.294375 22.32)scale(0.15 -0.15)">
     <defs>
      <path d="M 9.8125 72.90625 
L 24.515625 72.90625 
L 43.109375 23.296875 
L 61.8125 72.90625 
L 76.515625 72.90625 
L 76.515625 0 
L 66.890625 0 
L 66.890625 64.015625 
L 48.09375 14.015625 
L 38.1875 14.015625 
L 19.390625 64.015625 
L 19.390625 0 
L 9.8125 0 
z
" id="DejaVuSans-77"/>
      <path d="M 24.3125 39.203125 
Q 19.875 35.25 17.796875 31.3125 
Q 15.71875 27.390625 15.71875 23.09375 
Q 15.71875 15.96875 20.890625 11.234375 
Q 26.078125 6.5 33.890625 6.5 
Q 38.53125 6.5 42.578125 8.03125 
Q 46.625 9.578125 50.203125 12.703125 
z
M 31.203125 44.671875 
L 56 19.28125 
Q 58.890625 23.640625 60.5 28.59375 
Q 62.109375 33.546875 62.40625 39.109375 
L 71.484375 39.109375 
Q 70.90625 32.671875 68.359375 26.359375 
Q 65.828125 20.0625 61.28125 13.921875 
L 74.90625 0 
L 62.59375 0 
L 55.609375 7.171875 
Q 50.53125 2.828125 44.96875 0.703125 
Q 39.40625 -1.421875 33.015625 -1.421875 
Q 21.234375 -1.421875 13.765625 5.296875 
Q 6.296875 12.015625 6.296875 22.515625 
Q 6.296875 28.765625 9.5625 34.25 
Q 12.84375 39.75 19.390625 44.578125 
Q 17.046875 47.65625 15.8125 50.703125 
Q 14.59375 53.765625 14.59375 56.6875 
Q 14.59375 64.59375 20.015625 69.40625 
Q 25.4375 74.21875 34.421875 74.21875 
Q 38.484375 74.21875 42.5 73.34375 
Q 46.53125 72.46875 50.6875 70.703125 
L 50.6875 61.8125 
Q 46.4375 64.109375 42.578125 65.296875 
Q 38.71875 66.5 35.40625 66.5 
Q 30.28125 66.5 27.078125 63.78125 
Q 23.875 61.078125 23.875 56.78125 
Q 23.875 54.296875 25.3125 51.78125 
Q 26.765625 49.265625 31.203125 44.671875 
z
" id="DejaVuSans-38"/>
      <path d="M 34.1875 63.1875 
L 20.796875 26.90625 
L 47.609375 26.90625 
z
M 28.609375 72.90625 
L 39.796875 72.90625 
L 67.578125 0 
L 57.328125 0 
L 50.6875 18.703125 
L 17.828125 18.703125 
L 11.1875 0 
L 0.78125 0 
z
" id="DejaVuSans-65"/>
      <path d="M 2.984375 54.6875 
L 12.5 54.6875 
L 29.59375 8.796875 
L 46.6875 54.6875 
L 56.203125 54.6875 
L 35.6875 0 
L 23.484375 0 
z
" id="DejaVuSans-118"/>
      <path d="M 53.515625 70.515625 
L 53.515625 60.890625 
Q 47.90625 63.578125 42.921875 64.890625 
Q 37.9375 66.21875 33.296875 66.21875 
Q 25.25 66.21875 20.875 63.09375 
Q 16.5 59.96875 16.5 54.203125 
Q 16.5 49.359375 19.40625 46.890625 
Q 22.3125 44.4375 30.421875 42.921875 
L 36.375 41.703125 
Q 47.40625 39.59375 52.65625 34.296875 
Q 57.90625 29 57.90625 20.125 
Q 57.90625 9.515625 50.796875 4.046875 
Q 43.703125 -1.421875 29.984375 -1.421875 
Q 24.8125 -1.421875 18.96875 -0.25 
Q 13.140625 0.921875 6.890625 3.21875 
L 6.890625 13.375 
Q 12.890625 10.015625 18.65625 8.296875 
Q 24.421875 6.59375 29.984375 6.59375 
Q 38.421875 6.59375 43.015625 9.90625 
Q 47.609375 13.234375 47.609375 19.390625 
Q 47.609375 24.75 44.3125 27.78125 
Q 41.015625 30.8125 33.5 32.328125 
L 27.484375 33.5 
Q 16.453125 35.6875 11.515625 40.375 
Q 6.59375 45.0625 6.59375 53.421875 
Q 6.59375 63.09375 13.40625 68.65625 
Q 20.21875 74.21875 32.171875 74.21875 
Q 37.3125 74.21875 42.625 73.28125 
Q 47.953125 72.359375 53.515625 70.515625 
z
" id="DejaVuSans-83"/>
      <path d="M 10.6875 12.40625 
L 21 12.40625 
L 21 0 
L 10.6875 0 
z
" id="DejaVuSans-46"/>
      <path d="M 48.6875 27.296875 
Q 48.6875 37.203125 44.609375 42.84375 
Q 40.53125 48.484375 33.40625 48.484375 
Q 26.265625 48.484375 22.1875 42.84375 
Q 18.109375 37.203125 18.109375 27.296875 
Q 18.109375 17.390625 22.1875 11.75 
Q 26.265625 6.109375 33.40625 6.109375 
Q 40.53125 6.109375 44.609375 11.75 
Q 48.6875 17.390625 48.6875 27.296875 
z
M 18.109375 46.390625 
Q 20.953125 51.265625 25.265625 53.625 
Q 29.59375 56 35.59375 56 
Q 45.5625 56 51.78125 48.09375 
Q 58.015625 40.1875 58.015625 27.296875 
Q 58.015625 14.40625 51.78125 6.484375 
Q 45.5625 -1.421875 35.59375 -1.421875 
Q 29.59375 -1.421875 25.265625 0.953125 
Q 20.953125 3.328125 18.109375 8.203125 
L 18.109375 0 
L 9.078125 0 
L 9.078125 75.984375 
L 18.109375 75.984375 
z
" id="DejaVuSans-98"/>
     </defs>
     <use xlink:href="#DejaVuSans-77"/>
     <use x="86.279297" xlink:href="#DejaVuSans-111"/>
     <use x="147.460938" xlink:href="#DejaVuSans-100"/>
     <use x="210.9375" xlink:href="#DejaVuSans-101"/>
     <use x="272.460938" xlink:href="#DejaVuSans-38"/>
     <use x="350.439453" xlink:href="#DejaVuSans-65"/>
     <use x="417.097656" xlink:href="#DejaVuSans-99"/>
     <use x="472.078125" xlink:href="#DejaVuSans-99"/>
     <use x="527.058594" xlink:href="#DejaVuSans-101"/>
     <use x="588.582031" xlink:href="#DejaVuSans-115"/>
     <use x="640.681641" xlink:href="#DejaVuSans-115"/>
     <use x="692.78125" xlink:href="#DejaVuSans-111"/>
     <use x="753.962891" xlink:href="#DejaVuSans-105"/>
     <use x="781.746094" xlink:href="#DejaVuSans-114"/>
     <use x="820.609375" xlink:href="#DejaVuSans-101"/>
     <use x="882.132812" xlink:href="#DejaVuSans-115"/>
     <use x="934.232422" xlink:href="#DejaVuSans-40"/>
     <use x="973.246094" xlink:href="#DejaVuSans-118"/>
     <use x="1032.425781" xlink:href="#DejaVuSans-111"/>
     <use x="1093.607422" xlink:href="#DejaVuSans-110"/>
     <use x="1156.986328" xlink:href="#DejaVuSans-32"/>
     <use x="1188.773438" xlink:href="#DejaVuSans-83"/>
     <use x="1252.25" xlink:href="#DejaVuSans-101"/>
     <use x="1313.773438" xlink:href="#DejaVuSans-112"/>
     <use x="1377.25" xlink:href="#DejaVuSans-46"/>
     <use x="1409.037109" xlink:href="#DejaVuSans-32"/>
     <use x="1440.824219" xlink:href="#DejaVuSans-50"/>
     <use x="1504.447266" xlink:href="#DejaVuSans-48"/>
     <use x="1568.070312" xlink:href="#DejaVuSans-49"/>
     <use x="1631.693359" xlink:href="#DejaVuSans-57"/>
     <use x="1695.316406" xlink:href="#DejaVuSans-32"/>
     <use x="1727.103516" xlink:href="#DejaVuSans-98"/>
     <use x="1790.580078" xlink:href="#DejaVuSans-105"/>
     <use x="1818.363281" xlink:href="#DejaVuSans-115"/>
     <use x="1870.462891" xlink:href="#DejaVuSans-32"/>
     <use x="1902.25" xlink:href="#DejaVuSans-83"/>
     <use x="1965.726562" xlink:href="#DejaVuSans-101"/>
     <use x="2027.25" xlink:href="#DejaVuSans-112"/>
     <use x="2090.726562" xlink:href="#DejaVuSans-46"/>
     <use x="2122.513672" xlink:href="#DejaVuSans-32"/>
     <use x="2154.300781" xlink:href="#DejaVuSans-50"/>
     <use x="2217.923828" xlink:href="#DejaVuSans-48"/>
     <use x="2281.546875" xlink:href="#DejaVuSans-50"/>
     <use x="2345.169922" xlink:href="#DejaVuSans-48"/>
     <use x="2408.792969" xlink:href="#DejaVuSans-41"/>
    </g>
   </g>
   <g id="legend_1">
    <g id="patch_7">
     <path d="M 597.45625 80.354375 
L 846.2 80.354375 
Q 848.2 80.354375 848.2 78.354375 
L 848.2 35.32 
Q 848.2 33.32 846.2 33.32 
L 597.45625 33.32 
Q 595.45625 33.32 595.45625 35.32 
L 595.45625 78.354375 
Q 595.45625 80.354375 597.45625 80.354375 
z
" style="fill:#ffffff;opacity:0.8;stroke:#cccccc;stroke-linejoin:miter;"/>
    </g>
    <g id="line2d_26">
     <path d="M 599.45625 41.418437 
L 619.45625 41.418437 
" style="fill:none;stroke:#ff0000;stroke-dasharray:19.2,4.8,3,4.8;stroke-dashoffset:0;stroke-width:3;"/>
    </g>
    <g id="text_16">
     <!-- Erste Erkrankung in Deutschland(27.01.20) -->
     <g transform="translate(627.45625 44.918437)scale(0.1 -0.1)">
      <defs>
       <path d="M 9.8125 72.90625 
L 55.90625 72.90625 
L 55.90625 64.59375 
L 19.671875 64.59375 
L 19.671875 43.015625 
L 54.390625 43.015625 
L 54.390625 34.71875 
L 19.671875 34.71875 
L 19.671875 8.296875 
L 56.78125 8.296875 
L 56.78125 0 
L 9.8125 0 
z
" id="DejaVuSans-69"/>
       <path d="M 45.40625 27.984375 
Q 45.40625 37.75 41.375 43.109375 
Q 37.359375 48.484375 30.078125 48.484375 
Q 22.859375 48.484375 18.828125 43.109375 
Q 14.796875 37.75 14.796875 27.984375 
Q 14.796875 18.265625 18.828125 12.890625 
Q 22.859375 7.515625 30.078125 7.515625 
Q 37.359375 7.515625 41.375 12.890625 
Q 45.40625 18.265625 45.40625 27.984375 
z
M 54.390625 6.78125 
Q 54.390625 -7.171875 48.1875 -13.984375 
Q 42 -20.796875 29.203125 -20.796875 
Q 24.46875 -20.796875 20.265625 -20.09375 
Q 16.0625 -19.390625 12.109375 -17.921875 
L 12.109375 -9.1875 
Q 16.0625 -11.328125 19.921875 -12.34375 
Q 23.78125 -13.375 27.78125 -13.375 
Q 36.625 -13.375 41.015625 -8.765625 
Q 45.40625 -4.15625 45.40625 5.171875 
L 45.40625 9.625 
Q 42.625 4.78125 38.28125 2.390625 
Q 33.9375 0 27.875 0 
Q 17.828125 0 11.671875 7.65625 
Q 5.515625 15.328125 5.515625 27.984375 
Q 5.515625 40.671875 11.671875 48.328125 
Q 17.828125 56 27.875 56 
Q 33.9375 56 38.28125 53.609375 
Q 42.625 51.21875 45.40625 46.390625 
L 45.40625 54.6875 
L 54.390625 54.6875 
z
" id="DejaVuSans-103"/>
      </defs>
      <use xlink:href="#DejaVuSans-69"/>
      <use x="63.183594" xlink:href="#DejaVuSans-114"/>
      <use x="104.296875" xlink:href="#DejaVuSans-115"/>
      <use x="156.396484" xlink:href="#DejaVuSans-116"/>
      <use x="195.605469" xlink:href="#DejaVuSans-101"/>
      <use x="257.128906" xlink:href="#DejaVuSans-32"/>
      <use x="288.916016" xlink:href="#DejaVuSans-69"/>
      <use x="352.099609" xlink:href="#DejaVuSans-114"/>
      <use x="393.212891" xlink:href="#DejaVuSans-107"/>
      <use x="451.123047" xlink:href="#DejaVuSans-114"/>
      <use x="492.236328" xlink:href="#DejaVuSans-97"/>
      <use x="553.515625" xlink:href="#DejaVuSans-110"/>
      <use x="616.894531" xlink:href="#DejaVuSans-107"/>
      <use x="671.679688" xlink:href="#DejaVuSans-117"/>
      <use x="735.058594" xlink:href="#DejaVuSans-110"/>
      <use x="798.4375" xlink:href="#DejaVuSans-103"/>
      <use x="861.914062" xlink:href="#DejaVuSans-32"/>
      <use x="893.701172" xlink:href="#DejaVuSans-105"/>
      <use x="921.484375" xlink:href="#DejaVuSans-110"/>
      <use x="984.863281" xlink:href="#DejaVuSans-32"/>
      <use x="1016.650391" xlink:href="#DejaVuSans-68"/>
      <use x="1093.652344" xlink:href="#DejaVuSans-101"/>
      <use x="1155.175781" xlink:href="#DejaVuSans-117"/>
      <use x="1218.554688" xlink:href="#DejaVuSans-116"/>
      <use x="1257.763672" xlink:href="#DejaVuSans-115"/>
      <use x="1309.863281" xlink:href="#DejaVuSans-99"/>
      <use x="1364.84375" xlink:href="#DejaVuSans-104"/>
      <use x="1428.222656" xlink:href="#DejaVuSans-108"/>
      <use x="1456.005859" xlink:href="#DejaVuSans-97"/>
      <use x="1517.285156" xlink:href="#DejaVuSans-110"/>
      <use x="1580.664062" xlink:href="#DejaVuSans-100"/>
      <use x="1644.140625" xlink:href="#DejaVuSans-40"/>
      <use x="1683.154297" xlink:href="#DejaVuSans-50"/>
      <use x="1746.777344" xlink:href="#DejaVuSans-55"/>
      <use x="1810.400391" xlink:href="#DejaVuSans-46"/>
      <use x="1842.1875" xlink:href="#DejaVuSans-48"/>
      <use x="1905.810547" xlink:href="#DejaVuSans-49"/>
      <use x="1969.433594" xlink:href="#DejaVuSans-46"/>
      <use x="2001.220703" xlink:href="#DejaVuSans-50"/>
      <use x="2064.84375" xlink:href="#DejaVuSans-48"/>
      <use x="2128.466797" xlink:href="#DejaVuSans-41"/>
     </g>
    </g>
    <g id="line2d_27">
     <path d="M 599.45625 56.096563 
L 619.45625 56.096563 
" style="fill:none;stroke:#008000;stroke-dasharray:19.2,4.8,3,4.8;stroke-dashoffset:0;stroke-width:3;"/>
    </g>
    <g id="text_17">
     <!-- Lock Down(22.03.20) -->
     <g transform="translate(627.45625 59.596563)scale(0.1 -0.1)">
      <defs>
       <path d="M 9.8125 72.90625 
L 19.671875 72.90625 
L 19.671875 8.296875 
L 55.171875 8.296875 
L 55.171875 0 
L 9.8125 0 
z
" id="DejaVuSans-76"/>
       <path d="M 4.203125 54.6875 
L 13.1875 54.6875 
L 24.421875 12.015625 
L 35.59375 54.6875 
L 46.1875 54.6875 
L 57.421875 12.015625 
L 68.609375 54.6875 
L 77.59375 54.6875 
L 63.28125 0 
L 52.6875 0 
L 40.921875 44.828125 
L 29.109375 0 
L 18.5 0 
z
" id="DejaVuSans-119"/>
      </defs>
      <use xlink:href="#DejaVuSans-76"/>
      <use x="53.962891" xlink:href="#DejaVuSans-111"/>
      <use x="115.144531" xlink:href="#DejaVuSans-99"/>
      <use x="170.125" xlink:href="#DejaVuSans-107"/>
      <use x="228.035156" xlink:href="#DejaVuSans-32"/>
      <use x="259.822266" xlink:href="#DejaVuSans-68"/>
      <use x="336.824219" xlink:href="#DejaVuSans-111"/>
      <use x="398.005859" xlink:href="#DejaVuSans-119"/>
      <use x="479.792969" xlink:href="#DejaVuSans-110"/>
      <use x="543.171875" xlink:href="#DejaVuSans-40"/>
      <use x="582.185547" xlink:href="#DejaVuSans-50"/>
      <use x="645.808594" xlink:href="#DejaVuSans-50"/>
      <use x="709.431641" xlink:href="#DejaVuSans-46"/>
      <use x="741.21875" xlink:href="#DejaVuSans-48"/>
      <use x="804.841797" xlink:href="#DejaVuSans-51"/>
      <use x="868.464844" xlink:href="#DejaVuSans-46"/>
      <use x="900.251953" xlink:href="#DejaVuSans-50"/>
      <use x="963.875" xlink:href="#DejaVuSans-48"/>
      <use x="1027.498047" xlink:href="#DejaVuSans-41"/>
     </g>
    </g>
    <g id="line2d_28">
     <path d="M 599.45625 70.774687 
L 619.45625 70.774687 
" style="fill:none;stroke:#0000ff;stroke-dasharray:19.2,4.8,3,4.8;stroke-dashoffset:0;stroke-width:3;"/>
    </g>
    <g id="text_18">
     <!-- Erste Lockerung(20.04.20) -->
     <g transform="translate(627.45625 74.274687)scale(0.1 -0.1)">
      <defs>
       <path d="M 37.796875 64.3125 
L 12.890625 25.390625 
L 37.796875 25.390625 
z
M 35.203125 72.90625 
L 47.609375 72.90625 
L 47.609375 25.390625 
L 58.015625 25.390625 
L 58.015625 17.1875 
L 47.609375 17.1875 
L 47.609375 0 
L 37.796875 0 
L 37.796875 17.1875 
L 4.890625 17.1875 
L 4.890625 26.703125 
z
" id="DejaVuSans-52"/>
      </defs>
      <use xlink:href="#DejaVuSans-69"/>
      <use x="63.183594" xlink:href="#DejaVuSans-114"/>
      <use x="104.296875" xlink:href="#DejaVuSans-115"/>
      <use x="156.396484" xlink:href="#DejaVuSans-116"/>
      <use x="195.605469" xlink:href="#DejaVuSans-101"/>
      <use x="257.128906" xlink:href="#DejaVuSans-32"/>
      <use x="288.916016" xlink:href="#DejaVuSans-76"/>
      <use x="342.878906" xlink:href="#DejaVuSans-111"/>
      <use x="404.060547" xlink:href="#DejaVuSans-99"/>
      <use x="459.041016" xlink:href="#DejaVuSans-107"/>
      <use x="513.326172" xlink:href="#DejaVuSans-101"/>
      <use x="574.849609" xlink:href="#DejaVuSans-114"/>
      <use x="615.962891" xlink:href="#DejaVuSans-117"/>
      <use x="679.341797" xlink:href="#DejaVuSans-110"/>
      <use x="742.720703" xlink:href="#DejaVuSans-103"/>
      <use x="806.197266" xlink:href="#DejaVuSans-40"/>
      <use x="845.210938" xlink:href="#DejaVuSans-50"/>
      <use x="908.833984" xlink:href="#DejaVuSans-48"/>
      <use x="972.457031" xlink:href="#DejaVuSans-46"/>
      <use x="1004.244141" xlink:href="#DejaVuSans-48"/>
      <use x="1067.867188" xlink:href="#DejaVuSans-52"/>
      <use x="1131.490234" xlink:href="#DejaVuSans-46"/>
      <use x="1163.277344" xlink:href="#DejaVuSans-50"/>
      <use x="1226.900391" xlink:href="#DejaVuSans-48"/>
      <use x="1290.523438" xlink:href="#DejaVuSans-41"/>
     </g>
    </g>
   </g>
  </g>
 </g>
 <defs>
  <clipPath id="p2a717b3a7c">
   <rect height="361.72" width="808.63" x="44.57" y="28.32"/>
  </clipPath>
 </defs>
</svg>
