<?xml version="1.0" encoding="utf-8" standalone="no"?>
<!DOCTYPE svg PUBLIC "-//W3C//DTD SVG 1.1//EN"
  "http://www.w3.org/Graphics/SVG/1.1/DTD/svg11.dtd">
<!-- Created with matplotlib (https://matplotlib.org/) -->
<svg height="432pt" version="1.1" viewBox="0 0 864 432" width="864pt" xmlns="http://www.w3.org/2000/svg" xmlns:xlink="http://www.w3.org/1999/xlink">
 <metadata>
  <rdf:RDF xmlns:cc="http://creativecommons.org/ns#" xmlns:dc="http://purl.org/dc/elements/1.1/" xmlns:rdf="http://www.w3.org/1999/02/22-rdf-syntax-ns#">
   <cc:Work>
    <dc:type rdf:resource="http://purl.org/dc/dcmitype/StillImage"/>
    <dc:date>2020-09-22T04:02:34.401531</dc:date>
    <dc:format>image/svg+xml</dc:format>
    <dc:creator>
     <cc:Agent>
      <dc:title>Matplotlib v3.3.2, https://matplotlib.org/</dc:title>
     </cc:Agent>
    </dc:creator>
   </cc:Work>
  </rdf:RDF>
 </metadata>
 <defs>
  <style type="text/css">*{stroke-linecap:butt;stroke-linejoin:round;}</style>
 </defs>
 <g id="figure_1">
  <g id="patch_1">
   <path d="M 0 432 
L 864 432 
L 864 0 
L 0 0 
z
" style="fill:#ffffff;"/>
  </g>
  <g id="axes_1">
   <g id="patch_2">
    <path d="M 108 384.48 
L 777.6 384.48 
L 777.6 51.84 
L 108 51.84 
z
" style="fill:#ffffff;"/>
   </g>
   <g id="matplotlib.axis_1">
    <g id="xtick_1">
     <g id="line2d_1">
      <defs>
       <path d="M 0 0 
L 0 3.5 
" id="mc7c7b3b5d6" style="stroke:#000000;stroke-width:0.8;"/>
      </defs>
      <g>
       <use style="stroke:#000000;stroke-width:0.8;" x="138.436364" xlink:href="#mc7c7b3b5d6" y="384.48"/>
      </g>
     </g>
     <g id="text_1">
      <!-- 0 -->
      <g transform="translate(135.255114 399.078438)scale(0.1 -0.1)">
       <defs>
        <path d="M 31.78125 66.40625 
Q 24.171875 66.40625 20.328125 58.90625 
Q 16.5 51.421875 16.5 36.375 
Q 16.5 21.390625 20.328125 13.890625 
Q 24.171875 6.390625 31.78125 6.390625 
Q 39.453125 6.390625 43.28125 13.890625 
Q 47.125 21.390625 47.125 36.375 
Q 47.125 51.421875 43.28125 58.90625 
Q 39.453125 66.40625 31.78125 66.40625 
z
M 31.78125 74.21875 
Q 44.046875 74.21875 50.515625 64.515625 
Q 56.984375 54.828125 56.984375 36.375 
Q 56.984375 17.96875 50.515625 8.265625 
Q 44.046875 -1.421875 31.78125 -1.421875 
Q 19.53125 -1.421875 13.0625 8.265625 
Q 6.59375 17.96875 6.59375 36.375 
Q 6.59375 54.828125 13.0625 64.515625 
Q 19.53125 74.21875 31.78125 74.21875 
z
" id="DejaVuSans-48"/>
       </defs>
       <use xlink:href="#DejaVuSans-48"/>
      </g>
     </g>
    </g>
    <g id="xtick_2">
     <g id="line2d_2">
      <g>
       <use style="stroke:#000000;stroke-width:0.8;" x="221.369235" xlink:href="#mc7c7b3b5d6" y="384.48"/>
      </g>
     </g>
     <g id="text_2">
      <!-- 50 -->
      <g transform="translate(215.006735 399.078438)scale(0.1 -0.1)">
       <defs>
        <path d="M 10.796875 72.90625 
L 49.515625 72.90625 
L 49.515625 64.59375 
L 19.828125 64.59375 
L 19.828125 46.734375 
Q 21.96875 47.46875 24.109375 47.828125 
Q 26.265625 48.1875 28.421875 48.1875 
Q 40.625 48.1875 47.75 41.5 
Q 54.890625 34.8125 54.890625 23.390625 
Q 54.890625 11.625 47.5625 5.09375 
Q 40.234375 -1.421875 26.90625 -1.421875 
Q 22.3125 -1.421875 17.546875 -0.640625 
Q 12.796875 0.140625 7.71875 1.703125 
L 7.71875 11.625 
Q 12.109375 9.234375 16.796875 8.0625 
Q 21.484375 6.890625 26.703125 6.890625 
Q 35.15625 6.890625 40.078125 11.328125 
Q 45.015625 15.765625 45.015625 23.390625 
Q 45.015625 31 40.078125 35.4375 
Q 35.15625 39.890625 26.703125 39.890625 
Q 22.75 39.890625 18.8125 39.015625 
Q 14.890625 38.140625 10.796875 36.28125 
z
" id="DejaVuSans-53"/>
       </defs>
       <use xlink:href="#DejaVuSans-53"/>
       <use x="63.623047" xlink:href="#DejaVuSans-48"/>
      </g>
     </g>
    </g>
    <g id="xtick_3">
     <g id="line2d_3">
      <g>
       <use style="stroke:#000000;stroke-width:0.8;" x="304.302106" xlink:href="#mc7c7b3b5d6" y="384.48"/>
      </g>
     </g>
     <g id="text_3">
      <!-- 100 -->
      <g transform="translate(294.758356 399.078438)scale(0.1 -0.1)">
       <defs>
        <path d="M 12.40625 8.296875 
L 28.515625 8.296875 
L 28.515625 63.921875 
L 10.984375 60.40625 
L 10.984375 69.390625 
L 28.421875 72.90625 
L 38.28125 72.90625 
L 38.28125 8.296875 
L 54.390625 8.296875 
L 54.390625 0 
L 12.40625 0 
z
" id="DejaVuSans-49"/>
       </defs>
       <use xlink:href="#DejaVuSans-49"/>
       <use x="63.623047" xlink:href="#DejaVuSans-48"/>
       <use x="127.246094" xlink:href="#DejaVuSans-48"/>
      </g>
     </g>
    </g>
    <g id="xtick_4">
     <g id="line2d_4">
      <g>
       <use style="stroke:#000000;stroke-width:0.8;" x="387.234976" xlink:href="#mc7c7b3b5d6" y="384.48"/>
      </g>
     </g>
     <g id="text_4">
      <!-- 150 -->
      <g transform="translate(377.691226 399.078438)scale(0.1 -0.1)">
       <use xlink:href="#DejaVuSans-49"/>
       <use x="63.623047" xlink:href="#DejaVuSans-53"/>
       <use x="127.246094" xlink:href="#DejaVuSans-48"/>
      </g>
     </g>
    </g>
    <g id="xtick_5">
     <g id="line2d_5">
      <g>
       <use style="stroke:#000000;stroke-width:0.8;" x="470.167847" xlink:href="#mc7c7b3b5d6" y="384.48"/>
      </g>
     </g>
     <g id="text_5">
      <!-- 200 -->
      <g transform="translate(460.624097 399.078438)scale(0.1 -0.1)">
       <defs>
        <path d="M 19.1875 8.296875 
L 53.609375 8.296875 
L 53.609375 0 
L 7.328125 0 
L 7.328125 8.296875 
Q 12.9375 14.109375 22.625 23.890625 
Q 32.328125 33.6875 34.8125 36.53125 
Q 39.546875 41.84375 41.421875 45.53125 
Q 43.3125 49.21875 43.3125 52.78125 
Q 43.3125 58.59375 39.234375 62.25 
Q 35.15625 65.921875 28.609375 65.921875 
Q 23.96875 65.921875 18.8125 64.3125 
Q 13.671875 62.703125 7.8125 59.421875 
L 7.8125 69.390625 
Q 13.765625 71.78125 18.9375 73 
Q 24.125 74.21875 28.421875 74.21875 
Q 39.75 74.21875 46.484375 68.546875 
Q 53.21875 62.890625 53.21875 53.421875 
Q 53.21875 48.921875 51.53125 44.890625 
Q 49.859375 40.875 45.40625 35.40625 
Q 44.1875 33.984375 37.640625 27.21875 
Q 31.109375 20.453125 19.1875 8.296875 
z
" id="DejaVuSans-50"/>
       </defs>
       <use xlink:href="#DejaVuSans-50"/>
       <use x="63.623047" xlink:href="#DejaVuSans-48"/>
       <use x="127.246094" xlink:href="#DejaVuSans-48"/>
      </g>
     </g>
    </g>
    <g id="xtick_6">
     <g id="line2d_6">
      <g>
       <use style="stroke:#000000;stroke-width:0.8;" x="553.100718" xlink:href="#mc7c7b3b5d6" y="384.48"/>
      </g>
     </g>
     <g id="text_6">
      <!-- 250 -->
      <g transform="translate(543.556968 399.078438)scale(0.1 -0.1)">
       <use xlink:href="#DejaVuSans-50"/>
       <use x="63.623047" xlink:href="#DejaVuSans-53"/>
       <use x="127.246094" xlink:href="#DejaVuSans-48"/>
      </g>
     </g>
    </g>
    <g id="xtick_7">
     <g id="line2d_7">
      <g>
       <use style="stroke:#000000;stroke-width:0.8;" x="636.033589" xlink:href="#mc7c7b3b5d6" y="384.48"/>
      </g>
     </g>
     <g id="text_7">
      <!-- 300 -->
      <g transform="translate(626.489839 399.078438)scale(0.1 -0.1)">
       <defs>
        <path d="M 40.578125 39.3125 
Q 47.65625 37.796875 51.625 33 
Q 55.609375 28.21875 55.609375 21.1875 
Q 55.609375 10.40625 48.1875 4.484375 
Q 40.765625 -1.421875 27.09375 -1.421875 
Q 22.515625 -1.421875 17.65625 -0.515625 
Q 12.796875 0.390625 7.625 2.203125 
L 7.625 11.71875 
Q 11.71875 9.328125 16.59375 8.109375 
Q 21.484375 6.890625 26.8125 6.890625 
Q 36.078125 6.890625 40.9375 10.546875 
Q 45.796875 14.203125 45.796875 21.1875 
Q 45.796875 27.640625 41.28125 31.265625 
Q 36.765625 34.90625 28.71875 34.90625 
L 20.21875 34.90625 
L 20.21875 43.015625 
L 29.109375 43.015625 
Q 36.375 43.015625 40.234375 45.921875 
Q 44.09375 48.828125 44.09375 54.296875 
Q 44.09375 59.90625 40.109375 62.90625 
Q 36.140625 65.921875 28.71875 65.921875 
Q 24.65625 65.921875 20.015625 65.03125 
Q 15.375 64.15625 9.8125 62.3125 
L 9.8125 71.09375 
Q 15.4375 72.65625 20.34375 73.4375 
Q 25.25 74.21875 29.59375 74.21875 
Q 40.828125 74.21875 47.359375 69.109375 
Q 53.90625 64.015625 53.90625 55.328125 
Q 53.90625 49.265625 50.4375 45.09375 
Q 46.96875 40.921875 40.578125 39.3125 
z
" id="DejaVuSans-51"/>
       </defs>
       <use xlink:href="#DejaVuSans-51"/>
       <use x="63.623047" xlink:href="#DejaVuSans-48"/>
       <use x="127.246094" xlink:href="#DejaVuSans-48"/>
      </g>
     </g>
    </g>
    <g id="xtick_8">
     <g id="line2d_8">
      <g>
       <use style="stroke:#000000;stroke-width:0.8;" x="718.96646" xlink:href="#mc7c7b3b5d6" y="384.48"/>
      </g>
     </g>
     <g id="text_8">
      <!-- 350 -->
      <g transform="translate(709.42271 399.078438)scale(0.1 -0.1)">
       <use xlink:href="#DejaVuSans-51"/>
       <use x="63.623047" xlink:href="#DejaVuSans-53"/>
       <use x="127.246094" xlink:href="#DejaVuSans-48"/>
      </g>
     </g>
    </g>
    <g id="text_9">
     <!-- Zeit -->
     <g transform="translate(432.949219 412.756563)scale(0.1 -0.1)">
      <defs>
       <path d="M 5.609375 72.90625 
L 62.890625 72.90625 
L 62.890625 65.375 
L 16.796875 8.296875 
L 64.015625 8.296875 
L 64.015625 0 
L 4.5 0 
L 4.5 7.515625 
L 50.59375 64.59375 
L 5.609375 64.59375 
z
" id="DejaVuSans-90"/>
       <path d="M 56.203125 29.59375 
L 56.203125 25.203125 
L 14.890625 25.203125 
Q 15.484375 15.921875 20.484375 11.0625 
Q 25.484375 6.203125 34.421875 6.203125 
Q 39.59375 6.203125 44.453125 7.46875 
Q 49.3125 8.734375 54.109375 11.28125 
L 54.109375 2.78125 
Q 49.265625 0.734375 44.1875 -0.34375 
Q 39.109375 -1.421875 33.890625 -1.421875 
Q 20.796875 -1.421875 13.15625 6.1875 
Q 5.515625 13.8125 5.515625 26.8125 
Q 5.515625 40.234375 12.765625 48.109375 
Q 20.015625 56 32.328125 56 
Q 43.359375 56 49.78125 48.890625 
Q 56.203125 41.796875 56.203125 29.59375 
z
M 47.21875 32.234375 
Q 47.125 39.59375 43.09375 43.984375 
Q 39.0625 48.390625 32.421875 48.390625 
Q 24.90625 48.390625 20.390625 44.140625 
Q 15.875 39.890625 15.1875 32.171875 
z
" id="DejaVuSans-101"/>
       <path d="M 9.421875 54.6875 
L 18.40625 54.6875 
L 18.40625 0 
L 9.421875 0 
z
M 9.421875 75.984375 
L 18.40625 75.984375 
L 18.40625 64.59375 
L 9.421875 64.59375 
z
" id="DejaVuSans-105"/>
       <path d="M 18.3125 70.21875 
L 18.3125 54.6875 
L 36.8125 54.6875 
L 36.8125 47.703125 
L 18.3125 47.703125 
L 18.3125 18.015625 
Q 18.3125 11.328125 20.140625 9.421875 
Q 21.96875 7.515625 27.59375 7.515625 
L 36.8125 7.515625 
L 36.8125 0 
L 27.59375 0 
Q 17.1875 0 13.234375 3.875 
Q 9.28125 7.765625 9.28125 18.015625 
L 9.28125 47.703125 
L 2.6875 47.703125 
L 2.6875 54.6875 
L 9.28125 54.6875 
L 9.28125 70.21875 
z
" id="DejaVuSans-116"/>
      </defs>
      <use xlink:href="#DejaVuSans-90"/>
      <use x="68.505859" xlink:href="#DejaVuSans-101"/>
      <use x="130.029297" xlink:href="#DejaVuSans-105"/>
      <use x="157.8125" xlink:href="#DejaVuSans-116"/>
     </g>
    </g>
   </g>
   <g id="matplotlib.axis_2">
    <g id="ytick_1">
     <g id="line2d_9">
      <defs>
       <path d="M 0 0 
L -3.5 0 
" id="m5cbc5e48d4" style="stroke:#000000;stroke-width:0.8;"/>
      </defs>
      <g>
       <use style="stroke:#000000;stroke-width:0.8;" x="108" xlink:href="#m5cbc5e48d4" y="317.347324"/>
      </g>
     </g>
     <g id="text_10">
      <!-- 95 -->
      <g transform="translate(88.275 321.146543)scale(0.1 -0.1)">
       <defs>
        <path d="M 10.984375 1.515625 
L 10.984375 10.5 
Q 14.703125 8.734375 18.5 7.8125 
Q 22.3125 6.890625 25.984375 6.890625 
Q 35.75 6.890625 40.890625 13.453125 
Q 46.046875 20.015625 46.78125 33.40625 
Q 43.953125 29.203125 39.59375 26.953125 
Q 35.25 24.703125 29.984375 24.703125 
Q 19.046875 24.703125 12.671875 31.3125 
Q 6.296875 37.9375 6.296875 49.421875 
Q 6.296875 60.640625 12.9375 67.421875 
Q 19.578125 74.21875 30.609375 74.21875 
Q 43.265625 74.21875 49.921875 64.515625 
Q 56.59375 54.828125 56.59375 36.375 
Q 56.59375 19.140625 48.40625 8.859375 
Q 40.234375 -1.421875 26.421875 -1.421875 
Q 22.703125 -1.421875 18.890625 -0.6875 
Q 15.09375 0.046875 10.984375 1.515625 
z
M 30.609375 32.421875 
Q 37.25 32.421875 41.125 36.953125 
Q 45.015625 41.5 45.015625 49.421875 
Q 45.015625 57.28125 41.125 61.84375 
Q 37.25 66.40625 30.609375 66.40625 
Q 23.96875 66.40625 20.09375 61.84375 
Q 16.21875 57.28125 16.21875 49.421875 
Q 16.21875 41.5 20.09375 36.953125 
Q 23.96875 32.421875 30.609375 32.421875 
z
" id="DejaVuSans-57"/>
       </defs>
       <use xlink:href="#DejaVuSans-57"/>
       <use x="63.623047" xlink:href="#DejaVuSans-53"/>
      </g>
     </g>
    </g>
    <g id="ytick_2">
     <g id="line2d_10">
      <g>
       <use style="stroke:#000000;stroke-width:0.8;" x="108" xlink:href="#m5cbc5e48d4" y="249.162431"/>
      </g>
     </g>
     <g id="text_11">
      <!-- 100 -->
      <g transform="translate(81.9125 252.96165)scale(0.1 -0.1)">
       <use xlink:href="#DejaVuSans-49"/>
       <use x="63.623047" xlink:href="#DejaVuSans-48"/>
       <use x="127.246094" xlink:href="#DejaVuSans-48"/>
      </g>
     </g>
    </g>
    <g id="ytick_3">
     <g id="line2d_11">
      <g>
       <use style="stroke:#000000;stroke-width:0.8;" x="108" xlink:href="#m5cbc5e48d4" y="180.977538"/>
      </g>
     </g>
     <g id="text_12">
      <!-- 105 -->
      <g transform="translate(81.9125 184.776757)scale(0.1 -0.1)">
       <use xlink:href="#DejaVuSans-49"/>
       <use x="63.623047" xlink:href="#DejaVuSans-48"/>
       <use x="127.246094" xlink:href="#DejaVuSans-53"/>
      </g>
     </g>
    </g>
    <g id="ytick_4">
     <g id="line2d_12">
      <g>
       <use style="stroke:#000000;stroke-width:0.8;" x="108" xlink:href="#m5cbc5e48d4" y="112.792645"/>
      </g>
     </g>
     <g id="text_13">
      <!-- 110 -->
      <g transform="translate(81.9125 116.591864)scale(0.1 -0.1)">
       <use xlink:href="#DejaVuSans-49"/>
       <use x="63.623047" xlink:href="#DejaVuSans-49"/>
       <use x="127.246094" xlink:href="#DejaVuSans-48"/>
      </g>
     </g>
    </g>
    <g id="text_14">
     <!-- durchschnittliche Preise (€) -->
     <g transform="translate(75.832812 286.415469)rotate(-90)scale(0.1 -0.1)">
      <defs>
       <path d="M 45.40625 46.390625 
L 45.40625 75.984375 
L 54.390625 75.984375 
L 54.390625 0 
L 45.40625 0 
L 45.40625 8.203125 
Q 42.578125 3.328125 38.25 0.953125 
Q 33.9375 -1.421875 27.875 -1.421875 
Q 17.96875 -1.421875 11.734375 6.484375 
Q 5.515625 14.40625 5.515625 27.296875 
Q 5.515625 40.1875 11.734375 48.09375 
Q 17.96875 56 27.875 56 
Q 33.9375 56 38.25 53.625 
Q 42.578125 51.265625 45.40625 46.390625 
z
M 14.796875 27.296875 
Q 14.796875 17.390625 18.875 11.75 
Q 22.953125 6.109375 30.078125 6.109375 
Q 37.203125 6.109375 41.296875 11.75 
Q 45.40625 17.390625 45.40625 27.296875 
Q 45.40625 37.203125 41.296875 42.84375 
Q 37.203125 48.484375 30.078125 48.484375 
Q 22.953125 48.484375 18.875 42.84375 
Q 14.796875 37.203125 14.796875 27.296875 
z
" id="DejaVuSans-100"/>
       <path d="M 8.5 21.578125 
L 8.5 54.6875 
L 17.484375 54.6875 
L 17.484375 21.921875 
Q 17.484375 14.15625 20.5 10.265625 
Q 23.53125 6.390625 29.59375 6.390625 
Q 36.859375 6.390625 41.078125 11.03125 
Q 45.3125 15.671875 45.3125 23.6875 
L 45.3125 54.6875 
L 54.296875 54.6875 
L 54.296875 0 
L 45.3125 0 
L 45.3125 8.40625 
Q 42.046875 3.421875 37.71875 1 
Q 33.40625 -1.421875 27.6875 -1.421875 
Q 18.265625 -1.421875 13.375 4.4375 
Q 8.5 10.296875 8.5 21.578125 
z
M 31.109375 56 
z
" id="DejaVuSans-117"/>
       <path d="M 41.109375 46.296875 
Q 39.59375 47.171875 37.8125 47.578125 
Q 36.03125 48 33.890625 48 
Q 26.265625 48 22.1875 43.046875 
Q 18.109375 38.09375 18.109375 28.8125 
L 18.109375 0 
L 9.078125 0 
L 9.078125 54.6875 
L 18.109375 54.6875 
L 18.109375 46.1875 
Q 20.953125 51.171875 25.484375 53.578125 
Q 30.03125 56 36.53125 56 
Q 37.453125 56 38.578125 55.875 
Q 39.703125 55.765625 41.0625 55.515625 
z
" id="DejaVuSans-114"/>
       <path d="M 48.78125 52.59375 
L 48.78125 44.1875 
Q 44.96875 46.296875 41.140625 47.34375 
Q 37.3125 48.390625 33.40625 48.390625 
Q 24.65625 48.390625 19.8125 42.84375 
Q 14.984375 37.3125 14.984375 27.296875 
Q 14.984375 17.28125 19.8125 11.734375 
Q 24.65625 6.203125 33.40625 6.203125 
Q 37.3125 6.203125 41.140625 7.25 
Q 44.96875 8.296875 48.78125 10.40625 
L 48.78125 2.09375 
Q 45.015625 0.34375 40.984375 -0.53125 
Q 36.96875 -1.421875 32.421875 -1.421875 
Q 20.0625 -1.421875 12.78125 6.34375 
Q 5.515625 14.109375 5.515625 27.296875 
Q 5.515625 40.671875 12.859375 48.328125 
Q 20.21875 56 33.015625 56 
Q 37.15625 56 41.109375 55.140625 
Q 45.0625 54.296875 48.78125 52.59375 
z
" id="DejaVuSans-99"/>
       <path d="M 54.890625 33.015625 
L 54.890625 0 
L 45.90625 0 
L 45.90625 32.71875 
Q 45.90625 40.484375 42.875 44.328125 
Q 39.84375 48.1875 33.796875 48.1875 
Q 26.515625 48.1875 22.3125 43.546875 
Q 18.109375 38.921875 18.109375 30.90625 
L 18.109375 0 
L 9.078125 0 
L 9.078125 75.984375 
L 18.109375 75.984375 
L 18.109375 46.1875 
Q 21.34375 51.125 25.703125 53.5625 
Q 30.078125 56 35.796875 56 
Q 45.21875 56 50.046875 50.171875 
Q 54.890625 44.34375 54.890625 33.015625 
z
" id="DejaVuSans-104"/>
       <path d="M 44.28125 53.078125 
L 44.28125 44.578125 
Q 40.484375 46.53125 36.375 47.5 
Q 32.28125 48.484375 27.875 48.484375 
Q 21.1875 48.484375 17.84375 46.4375 
Q 14.5 44.390625 14.5 40.28125 
Q 14.5 37.15625 16.890625 35.375 
Q 19.28125 33.59375 26.515625 31.984375 
L 29.59375 31.296875 
Q 39.15625 29.25 43.1875 25.515625 
Q 47.21875 21.78125 47.21875 15.09375 
Q 47.21875 7.46875 41.1875 3.015625 
Q 35.15625 -1.421875 24.609375 -1.421875 
Q 20.21875 -1.421875 15.453125 -0.5625 
Q 10.6875 0.296875 5.421875 2 
L 5.421875 11.28125 
Q 10.40625 8.6875 15.234375 7.390625 
Q 20.0625 6.109375 24.8125 6.109375 
Q 31.15625 6.109375 34.5625 8.28125 
Q 37.984375 10.453125 37.984375 14.40625 
Q 37.984375 18.0625 35.515625 20.015625 
Q 33.0625 21.96875 24.703125 23.78125 
L 21.578125 24.515625 
Q 13.234375 26.265625 9.515625 29.90625 
Q 5.8125 33.546875 5.8125 39.890625 
Q 5.8125 47.609375 11.28125 51.796875 
Q 16.75 56 26.8125 56 
Q 31.78125 56 36.171875 55.265625 
Q 40.578125 54.546875 44.28125 53.078125 
z
" id="DejaVuSans-115"/>
       <path d="M 54.890625 33.015625 
L 54.890625 0 
L 45.90625 0 
L 45.90625 32.71875 
Q 45.90625 40.484375 42.875 44.328125 
Q 39.84375 48.1875 33.796875 48.1875 
Q 26.515625 48.1875 22.3125 43.546875 
Q 18.109375 38.921875 18.109375 30.90625 
L 18.109375 0 
L 9.078125 0 
L 9.078125 54.6875 
L 18.109375 54.6875 
L 18.109375 46.1875 
Q 21.34375 51.125 25.703125 53.5625 
Q 30.078125 56 35.796875 56 
Q 45.21875 56 50.046875 50.171875 
Q 54.890625 44.34375 54.890625 33.015625 
z
" id="DejaVuSans-110"/>
       <path d="M 9.421875 75.984375 
L 18.40625 75.984375 
L 18.40625 0 
L 9.421875 0 
z
" id="DejaVuSans-108"/>
       <path id="DejaVuSans-32"/>
       <path d="M 19.671875 64.796875 
L 19.671875 37.40625 
L 32.078125 37.40625 
Q 38.96875 37.40625 42.71875 40.96875 
Q 46.484375 44.53125 46.484375 51.125 
Q 46.484375 57.671875 42.71875 61.234375 
Q 38.96875 64.796875 32.078125 64.796875 
z
M 9.8125 72.90625 
L 32.078125 72.90625 
Q 44.34375 72.90625 50.609375 67.359375 
Q 56.890625 61.8125 56.890625 51.125 
Q 56.890625 40.328125 50.609375 34.8125 
Q 44.34375 29.296875 32.078125 29.296875 
L 19.671875 29.296875 
L 19.671875 0 
L 9.8125 0 
z
" id="DejaVuSans-80"/>
       <path d="M 31 75.875 
Q 24.46875 64.65625 21.28125 53.65625 
Q 18.109375 42.671875 18.109375 31.390625 
Q 18.109375 20.125 21.3125 9.0625 
Q 24.515625 -2 31 -13.1875 
L 23.1875 -13.1875 
Q 15.875 -1.703125 12.234375 9.375 
Q 8.59375 20.453125 8.59375 31.390625 
Q 8.59375 42.28125 12.203125 53.3125 
Q 15.828125 64.359375 23.1875 75.875 
z
" id="DejaVuSans-40"/>
       <path d="M 56.984375 67.28125 
L 56.984375 56.890625 
Q 52.546875 62.015625 48.40625 64.203125 
Q 44.28125 66.40625 39.3125 66.40625 
Q 31.640625 66.40625 26.703125 61.515625 
Q 21.78125 56.640625 20.21875 47.515625 
L 48.390625 47.515625 
L 45.703125 41.5 
L 19.4375 41.5 
Q 19.34375 40.328125 19.3125 39.203125 
Q 19.28125 38.09375 19.28125 36.375 
Q 19.28125 34.8125 19.3125 33.6875 
Q 19.34375 32.5625 19.4375 31.390625 
L 41.21875 31.390625 
L 38.484375 25.390625 
L 20.21875 25.390625 
Q 21.78125 16.265625 26.703125 11.328125 
Q 31.640625 6.390625 39.3125 6.390625 
Q 44.28125 6.390625 48.40625 8.59375 
Q 52.546875 10.796875 56.984375 15.921875 
L 56.984375 5.609375 
Q 52.640625 2.09375 48.125 0.328125 
Q 43.609375 -1.421875 38.921875 -1.421875 
Q 27.34375 -1.421875 19.796875 5.65625 
Q 12.25 12.75 10.296875 25.390625 
L 0 25.390625 
L 2.6875 31.390625 
L 9.46875 31.390625 
Q 9.46875 32.515625 9.4375 33.65625 
Q 9.421875 34.8125 9.421875 36.375 
Q 9.421875 38.09375 9.4375 39.234375 
Q 9.46875 40.375 9.46875 41.5 
L 0 41.5 
L 2.6875 47.515625 
L 10.296875 47.515625 
Q 12.25 60.0625 19.8125 67.140625 
Q 27.390625 74.21875 38.921875 74.21875 
Q 43.703125 74.21875 48.21875 72.484375 
Q 52.734375 70.75 56.984375 67.28125 
z
" id="DejaVuSans-8364"/>
       <path d="M 8.015625 75.875 
L 15.828125 75.875 
Q 23.140625 64.359375 26.78125 53.3125 
Q 30.421875 42.28125 30.421875 31.390625 
Q 30.421875 20.453125 26.78125 9.375 
Q 23.140625 -1.703125 15.828125 -13.1875 
L 8.015625 -13.1875 
Q 14.5 -2 17.703125 9.0625 
Q 20.90625 20.125 20.90625 31.390625 
Q 20.90625 42.671875 17.703125 53.65625 
Q 14.5 64.65625 8.015625 75.875 
z
" id="DejaVuSans-41"/>
      </defs>
      <use xlink:href="#DejaVuSans-100"/>
      <use x="63.476562" xlink:href="#DejaVuSans-117"/>
      <use x="126.855469" xlink:href="#DejaVuSans-114"/>
      <use x="165.71875" xlink:href="#DejaVuSans-99"/>
      <use x="220.699219" xlink:href="#DejaVuSans-104"/>
      <use x="284.078125" xlink:href="#DejaVuSans-115"/>
      <use x="336.177734" xlink:href="#DejaVuSans-99"/>
      <use x="391.158203" xlink:href="#DejaVuSans-104"/>
      <use x="454.537109" xlink:href="#DejaVuSans-110"/>
      <use x="517.916016" xlink:href="#DejaVuSans-105"/>
      <use x="545.699219" xlink:href="#DejaVuSans-116"/>
      <use x="584.908203" xlink:href="#DejaVuSans-116"/>
      <use x="624.117188" xlink:href="#DejaVuSans-108"/>
      <use x="651.900391" xlink:href="#DejaVuSans-105"/>
      <use x="679.683594" xlink:href="#DejaVuSans-99"/>
      <use x="734.664062" xlink:href="#DejaVuSans-104"/>
      <use x="798.042969" xlink:href="#DejaVuSans-101"/>
      <use x="859.566406" xlink:href="#DejaVuSans-32"/>
      <use x="891.353516" xlink:href="#DejaVuSans-80"/>
      <use x="949.90625" xlink:href="#DejaVuSans-114"/>
      <use x="988.769531" xlink:href="#DejaVuSans-101"/>
      <use x="1050.292969" xlink:href="#DejaVuSans-105"/>
      <use x="1078.076172" xlink:href="#DejaVuSans-115"/>
      <use x="1130.175781" xlink:href="#DejaVuSans-101"/>
      <use x="1191.699219" xlink:href="#DejaVuSans-32"/>
      <use x="1223.486328" xlink:href="#DejaVuSans-40"/>
      <use x="1262.5" xlink:href="#DejaVuSans-8364"/>
      <use x="1326.123047" xlink:href="#DejaVuSans-41"/>
     </g>
    </g>
   </g>
   <g id="line2d_13">
    <path clip-path="url(#p183fd74e0a)" d="M 138.436364 101.864467 
L 140.095021 124.941953 
L 141.753678 125.326268 
L 145.070993 103.643472 
L 146.729651 106.420457 
L 148.388308 103.482308 
L 150.046966 90.737932 
L 151.705623 102.812856 
L 153.36428 103.265356 
L 155.022938 108.317237 
L 156.681595 83.138415 
L 158.340253 91.711116 
L 159.99891 85.289339 
L 161.657568 90.471391 
L 163.316225 79.121705 
L 164.974882 74.212393 
L 166.63354 66.96 
L 168.292197 86.386496 
L 169.950855 102.093816 
L 171.609512 120.708291 
L 173.268169 98.449023 
L 174.926827 120.317778 
L 176.585484 108.354429 
L 178.244142 108.366826 
L 179.902799 103.073199 
L 181.561457 108.670559 
L 183.220114 73.524346 
L 184.878771 76.202152 
L 186.537429 83.845059 
L 188.196086 77.572049 
L 189.854744 76.580269 
L 191.513401 82.326395 
L 193.172058 86.634441 
L 194.830716 122.97079 
L 196.489373 101.374775 
L 198.148031 104.250938 
L 199.806688 111.73268 
L 201.465346 105.031965 
L 203.124003 120.968634 
L 204.78266 110.102441 
L 206.441318 148.069029 
L 208.099975 158.166592 
L 209.758633 151.230329 
L 211.41729 154.38543 
L 213.075947 154.70156 
L 214.734605 180.208908 
L 216.393262 140.233965 
L 218.05192 156.790497 
L 219.710577 142.763005 
L 221.369235 134.710989 
L 223.027892 135.529208 
L 224.686549 133.644825 
L 226.345207 133.601435 
L 228.003864 136.589173 
L 229.662522 138.529343 
L 231.321179 132.522874 
L 232.979837 131.45671 
L 234.638494 137.754515 
L 236.297151 131.128183 
L 237.955809 140.909616 
L 239.614466 138.981843 
L 241.273124 130.812053 
L 242.931781 143.977936 
L 244.590438 141.188554 
L 246.249096 137.140851 
L 247.907753 141.07078 
L 249.566411 145.304442 
L 251.225068 145.372627 
L 252.883726 128.772705 
L 254.542383 145.924305 
L 256.20104 133.384483 
L 257.859698 131.407121 
L 259.518355 146.413996 
L 261.177013 137.835097 
L 262.83567 133.477462 
L 264.494327 152.519643 
L 267.811642 175.404973 
L 269.4703 186.79185 
L 271.128957 154.627176 
L 272.787615 163.81974 
L 274.446272 159.88981 
L 276.104929 154.751149 
L 277.763587 146.314818 
L 279.422244 153.852348 
L 281.080902 148.540125 
L 282.739559 146.141257 
L 284.398216 150.263343 
L 286.056874 144.802353 
L 287.715531 142.050163 
L 289.374189 151.552658 
L 291.032846 164.557376 
L 292.691504 148.069029 
L 294.350161 151.478274 
L 296.008818 129.807875 
L 297.667476 127.898698 
L 299.326133 152.990739 
L 300.984791 126.981302 
L 302.643448 129.287191 
L 304.302106 125.530823 
L 305.960763 121.092606 
L 307.61942 139.062425 
L 309.278078 125.437844 
L 310.936735 125.431645 
L 312.595393 119.233018 
L 314.25405 126.125891 
L 315.912707 122.388119 
L 317.571365 109.364805 
L 319.230022 123.646441 
L 320.88868 123.020379 
L 322.547337 128.698321 
L 324.205995 123.392297 
L 325.864652 122.871612 
L 327.523309 119.462368 
L 329.181967 116.889937 
L 330.840624 128.710718 
L 332.499282 150.089782 
L 334.157939 139.415747 
L 335.816596 144.703175 
L 337.475254 136.192461 
L 340.792569 128.196232 
L 342.451226 138.219412 
L 344.109884 137.698727 
L 345.768541 131.264553 
L 347.427198 142.47167 
L 349.085856 160.980769 
L 350.744513 154.788341 
L 352.403171 158.383544 
L 354.061828 163.181281 
L 355.720486 183.996269 
L 357.379143 170.836585 
L 359.0378 190.163903 
L 360.696458 183.320619 
L 362.355115 185.440549 
L 364.013773 190.982122 
L 365.67243 228.713162 
L 367.331087 224.002206 
L 368.989745 204.724477 
L 370.648402 180.803977 
L 372.30706 192.469792 
L 373.965717 211.865295 
L 375.624375 184.57894 
L 377.283032 198.736603 
L 378.941689 193.573147 
L 380.600347 200.707767 
L 382.259004 209.987111 
L 383.917662 185.595515 
L 385.576319 185.149214 
L 387.234976 181.733771 
L 388.893634 193.046264 
L 390.552291 186.277364 
L 392.210949 186.630686 
L 393.869606 218.274675 
L 395.528264 230.045867 
L 397.186921 181.82675 
L 398.845578 174.524768 
L 400.504236 173.483399 
L 402.162893 175.789288 
L 403.821551 185.260789 
L 405.480208 186.581097 
L 407.138865 181.932127 
L 408.797523 186.017022 
L 410.45618 204.247183 
L 412.114838 169.448093 
L 413.773495 169.497682 
L 415.432153 181.423839 
L 417.09081 175.944253 
L 418.749467 202.480574 
L 420.408125 166.689704 
L 422.066782 171.326277 
L 423.72544 177.915417 
L 425.384097 186.822843 
L 427.042755 156.790497 
L 428.701412 159.418715 
L 430.360069 157.391764 
L 432.018727 150.021597 
L 433.677384 149.215775 
L 435.336042 168.307545 
L 436.994699 178.064184 
L 438.653356 177.884423 
L 440.312014 207.296907 
L 441.970671 184.349591 
L 443.629329 155.959881 
L 445.287986 146.277626 
L 446.946644 165.704122 
L 448.605301 190.734176 
L 450.263958 159.871215 
L 451.922616 181.801956 
L 453.581273 177.841033 
L 455.239931 170.154736 
L 456.898588 169.125764 
L 458.557245 180.029148 
L 460.215903 171.134119 
L 461.87456 177.698465 
L 463.533218 179.347299 
L 465.191875 216.545258 
L 466.850533 179.43408 
L 468.50919 172.522611 
L 470.167847 186.221576 
L 471.826505 191.818936 
L 473.485162 182.198668 
L 475.14382 176.347164 
L 476.802477 196.492701 
L 478.461135 200.596191 
L 480.119792 184.603735 
L 481.778449 178.826615 
L 483.437107 174.549562 
L 485.095764 183.921886 
L 486.754422 183.054078 
L 488.413079 185.366166 
L 490.071736 196.238557 
L 491.730394 181.19449 
L 493.389051 181.250278 
L 495.047709 189.624622 
L 496.706366 181.206887 
L 498.365024 183.31442 
L 500.023681 182.706955 
L 501.682338 169.094771 
L 503.340996 163.627582 
L 504.999653 162.294878 
L 506.658311 180.51884 
L 508.316968 173.74994 
L 509.975625 157.199606 
L 511.634283 151.94937 
L 513.29294 130.570306 
L 514.951598 118.495382 
L 516.610255 129.212807 
L 518.268913 141.045985 
L 519.92757 142.713416 
L 521.586227 131.190169 
L 523.244885 155.742929 
L 524.903542 126.975103 
L 526.5622 149.252967 
L 528.220857 134.79777 
L 529.879514 112.879426 
L 531.538172 136.415611 
L 533.196829 131.059998 
L 534.855487 117.255656 
L 536.514144 121.588496 
L 538.172802 129.640512 
L 539.831459 130.557909 
L 541.490116 139.843452 
L 543.148774 146.234236 
L 544.807431 141.4303 
L 546.466089 184.870276 
L 548.124746 159.245153 
L 549.783404 157.466147 
L 551.442061 148.223995 
L 553.100718 177.13439 
L 554.759376 186.512912 
L 556.418033 178.882402 
L 558.076691 180.989935 
L 559.735348 166.757889 
L 561.394005 170.718811 
L 563.052663 166.503745 
L 564.71132 180.884559 
L 566.369978 158.321558 
L 568.028635 167.483128 
L 569.687293 141.628656 
L 571.34595 158.197585 
L 573.004607 139.521123 
L 574.663265 159.654263 
L 576.321922 148.15581 
L 577.98058 147.678516 
L 579.639237 149.079406 
L 581.297894 181.603599 
L 582.956552 175.609528 
L 584.615209 147.889269 
L 586.273867 157.100428 
L 587.932524 160.968371 
L 589.591182 136.663556 
L 591.249839 182.930106 
L 592.908496 222.551727 
L 594.567154 205.319545 
L 596.225811 189.767191 
L 597.884469 276.213238 
L 599.543126 276.554162 
L 601.201784 258.206227 
L 602.860441 184.337194 
L 604.519098 159.902208 
L 606.177756 162.183302 
L 607.836413 153.660191 
L 609.495071 183.109866 
L 611.153728 173.012303 
L 612.812385 188.329109 
L 614.471043 162.654398 
L 616.1297 156.765703 
L 617.788358 159.759639 
L 619.447015 232.171995 
L 621.105673 159.598475 
L 622.76433 167.669087 
L 624.422987 193.932668 
L 626.081645 192.891299 
L 627.740302 212.503753 
L 629.39896 212.999643 
L 631.057617 208.586221 
L 632.716274 203.428964 
L 634.374932 211.270227 
L 636.033589 208.053139 
L 637.692247 189.50065 
L 639.350904 192.785922 
L 641.009562 196.393523 
L 642.668219 188.917979 
L 644.326876 199.47424 
L 645.985534 208.028345 
L 647.644191 234.763021 
L 649.302849 217.072141 
L 650.961506 276.238032 
L 652.620163 231.099633 
L 654.278821 215.863409 
L 655.937478 206.435298 
L 657.596136 203.007457 
L 659.254793 203.689306 
L 660.913451 212.912863 
L 662.572108 210.067693 
L 664.230765 208.976735 
L 665.889423 210.266049 
L 667.54808 226.159328 
L 669.206738 233.603878 
L 670.865395 219.725153 
L 672.524053 219.756146 
L 674.18271 219.185873 
L 675.841367 216.991559 
L 677.500025 211.121459 
L 679.158682 222.638508 
L 680.81734 227.039533 
L 682.475997 232.023228 
L 684.134654 207.017969 
L 685.793312 223.326555 
L 687.451969 214.722862 
L 689.110627 222.892651 
L 690.769284 231.855866 
L 692.427942 221.330598 
L 694.086599 198.122939 
L 695.745256 214.952211 
L 697.403914 214.462519 
L 699.062571 215.764231 
L 700.721229 234.099768 
L 702.379886 235.091549 
L 704.038543 231.34138 
L 705.697201 225.657239 
L 707.355858 240.00706 
L 709.014516 251.133594 
L 710.673173 242.467914 
L 712.331831 248.926883 
L 713.990488 369.36 
L 715.649145 260.648486 
L 717.307803 245.19531 
L 718.96646 253.619244 
L 720.625118 245.325481 
L 722.283775 225.099363 
L 723.942432 224.61587 
L 725.60109 265.756155 
L 727.259747 243.775825 
L 728.918405 254.239106 
L 730.577062 241.302573 
L 732.23572 239.083464 
L 733.894377 238.661958 
L 735.553034 228.440422 
L 737.211692 227.870149 
L 738.870349 231.06864 
L 740.529007 234.818809 
L 742.187664 271.898994 
L 743.846322 279.163784 
L 745.504979 268.297591 
L 745.504979 268.297591 
" style="fill:none;stroke:#0000ff;stroke-linecap:square;stroke-width:1.5;"/>
   </g>
   <g id="line2d_14">
    <path clip-path="url(#p183fd74e0a)" d="M 237.955809 210.489749 
L 239.614466 211.702565 
L 241.273124 213.433926 
L 242.931781 214.295393 
L 244.590438 215.744072 
L 246.249096 217.471167 
L 247.907753 218.664112 
L 249.566411 219.602257 
L 251.225068 220.851696 
L 252.883726 222.332109 
L 254.542383 221.996782 
L 256.20104 221.811587 
L 257.859698 220.864598 
L 259.518355 218.983936 
L 261.177013 218.442607 
L 262.83567 218.398597 
L 264.494327 217.926351 
L 266.152985 219.298871 
L 267.811642 223.638459 
L 269.4703 230.757213 
L 271.128957 239.420781 
L 272.787615 246.77082 
L 274.446272 251.405574 
L 276.104929 252.83667 
L 277.763587 251.196554 
L 279.422244 246.721504 
L 284.398216 230.432706 
L 286.056874 226.590023 
L 287.715531 223.724709 
L 289.374189 221.372738 
L 291.032846 220.629463 
L 292.691504 223.034599 
L 294.350161 225.742914 
L 296.008818 227.982103 
L 297.667476 227.320085 
L 299.326133 223.745414 
L 300.984791 221.705568 
L 302.643448 219.117838 
L 304.302106 216.006362 
L 305.960763 212.424199 
L 307.61942 208.391744 
L 309.278078 206.967827 
L 310.936735 206.317565 
L 312.595393 205.807863 
L 314.25405 204.527628 
L 315.912707 203.652532 
L 317.571365 202.970121 
L 319.230022 200.730307 
L 320.88868 199.375578 
L 322.547337 199.182372 
L 324.205995 200.526905 
L 325.864652 202.083996 
L 327.523309 203.263935 
L 329.181967 203.535901 
L 330.840624 202.767031 
L 332.499282 202.900309 
L 334.157939 206.825913 
L 337.475254 217.315209 
L 339.133911 221.118668 
L 340.792569 222.568492 
L 342.451226 221.504247 
L 344.109884 219.960578 
L 345.768541 218.750466 
L 347.427198 217.287117 
L 349.085856 216.944715 
L 350.744513 219.970982 
L 352.403171 224.676901 
L 355.720486 235.412983 
L 359.0378 248.556179 
L 360.696458 255.011874 
L 362.355115 260.593826 
L 364.013773 264.84248 
L 365.67243 267.908803 
L 367.331087 270.453251 
L 368.989745 272.564157 
L 370.648402 274.114173 
L 372.30706 274.867957 
L 373.965717 274.924035 
L 375.624375 274.771094 
L 377.283032 274.275646 
L 380.600347 272.849752 
L 382.259004 272.126349 
L 385.576319 271.212237 
L 387.234976 270.496533 
L 388.893634 269.327102 
L 392.210949 266.564374 
L 393.869606 265.098839 
L 395.528264 264.380846 
L 397.186921 264.619414 
L 398.845578 265.057535 
L 400.504236 264.884513 
L 402.162893 263.553713 
L 405.480208 258.678935 
L 407.138865 256.890351 
L 408.797523 255.581504 
L 410.45618 254.82772 
L 412.114838 255.334404 
L 413.773495 255.463624 
L 415.432153 254.222821 
L 417.09081 252.4642 
L 418.749467 250.371918 
L 420.408125 250.266836 
L 422.066782 249.982073 
L 423.72544 248.768841 
L 425.384097 247.281146 
L 427.042755 246.856759 
L 428.701412 245.260964 
L 430.360069 242.107559 
L 432.018727 237.796375 
L 435.336042 227.197315 
L 436.994699 224.884776 
L 438.653356 227.056547 
L 440.312014 232.283403 
L 443.629329 248.859461 
L 445.287986 254.268079 
L 446.946644 254.708904 
L 448.605301 252.117013 
L 450.263958 250.843748 
L 451.922616 249.384769 
L 453.581273 249.058285 
L 455.239931 249.639255 
L 456.898588 249.913405 
L 458.557245 249.298518 
L 460.215903 248.921782 
L 461.87456 248.353089 
L 463.533218 248.101308 
L 465.191875 248.453594 
L 466.850533 251.699701 
L 468.50919 255.409522 
L 470.167847 257.669936 
L 473.485162 260.122828 
L 475.14382 260.760813 
L 476.802477 260.287214 
L 478.461135 260.152792 
L 481.778449 261.859495 
L 483.437107 261.929619 
L 485.095764 260.576555 
L 488.413079 256.684452 
L 490.071736 255.254084 
L 491.730394 255.246072 
L 493.389051 255.561319 
L 495.047709 255.557886 
L 496.706366 255.694389 
L 498.365024 255.536245 
L 500.023681 255.104159 
L 501.682338 254.46503 
L 503.340996 252.648875 
L 504.999653 249.173564 
L 506.658311 244.402098 
L 508.316968 241.082434 
L 509.975625 239.474883 
L 511.634283 237.690564 
L 513.29294 234.745346 
L 514.951598 228.921602 
L 518.268913 210.253469 
L 519.92757 204.759954 
L 521.586227 203.678022 
L 523.244885 204.074526 
L 524.903542 208.042787 
L 526.5622 210.868149 
L 528.220857 214.33368 
L 529.879514 216.635191 
L 531.538172 215.081117 
L 533.196829 213.229692 
L 534.855487 211.727743 
L 536.514144 209.030665 
L 538.172802 206.007832 
L 539.831459 204.454591 
L 541.490116 204.533454 
L 543.148774 206.771187 
L 546.466089 215.587593 
L 551.442061 239.054866 
L 553.100718 242.987961 
L 554.759376 246.410419 
L 558.076691 255.568394 
L 559.735348 259.57203 
L 561.394005 261.340742 
L 563.052663 260.797644 
L 566.369978 255.46248 
L 569.687293 247.973648 
L 573.004607 236.626112 
L 574.663265 230.387552 
L 576.321922 226.391615 
L 577.98058 223.910736 
L 579.639237 222.380176 
L 581.297894 221.67987 
L 582.956552 225.578632 
L 584.615209 232.344476 
L 586.273867 237.414333 
L 587.932524 240.207962 
L 589.591182 241.397161 
L 591.249839 239.360333 
L 592.908496 239.548544 
L 594.567154 244.891095 
L 597.884469 259.516472 
L 599.543126 265.397648 
L 601.201784 267.666281 
L 602.860441 264.865369 
L 604.519098 258.453996 
L 606.177756 251.33493 
L 607.836413 246.357254 
L 609.495071 243.690452 
L 611.153728 244.42093 
L 612.812385 247.12269 
L 614.471043 250.960691 
L 616.1297 254.064261 
L 617.788358 255.247529 
L 619.447015 254.200972 
L 621.105673 254.442557 
L 622.76433 254.398443 
L 622.76433 254.398443 
" style="fill:none;stroke:#008000;stroke-linecap:square;stroke-width:1.5;"/>
   </g>
   <g id="line2d_15">
    <path clip-path="url(#p183fd74e0a)" d="M 626.081645 200.006696 
L 627.740302 202.74435 
L 629.39896 205.982654 
L 631.057617 211.146461 
L 632.716274 217.320827 
L 634.374932 222.874167 
L 636.033589 226.56859 
L 637.692247 228.903706 
L 639.350904 229.878163 
L 641.009562 228.235237 
L 642.668219 224.719766 
L 645.985534 216.878857 
L 647.644191 214.334825 
L 649.302849 214.236505 
L 650.961506 218.564023 
L 652.620163 224.138588 
L 655.937478 241.333383 
L 657.596136 247.188965 
L 659.254793 248.445999 
L 660.913451 245.378948 
L 664.230765 233.616076 
L 665.889423 228.781769 
L 667.54808 225.294701 
L 669.206738 223.172247 
L 670.865395 223.763621 
L 672.524053 227.142693 
L 674.18271 230.79935 
L 675.841367 233.551362 
L 677.500025 235.036664 
L 679.158682 235.218633 
L 682.475997 232.832432 
L 684.134654 232.79789 
L 685.793312 234.264257 
L 687.451969 234.608843 
L 689.110627 234.626322 
L 690.769284 233.931635 
L 692.427942 233.391553 
L 694.086599 234.138158 
L 695.745256 235.047588 
L 697.403914 233.767145 
L 700.721229 229.659467 
L 702.379886 228.269987 
L 704.038543 229.399986 
L 705.697201 232.699779 
L 707.355858 236.708409 
L 710.673173 242.951755 
L 713.990488 250.494063 
L 715.649145 253.786885 
L 718.96646 262.638249 
L 720.625118 265.407532 
L 722.283775 266.685374 
L 723.942432 266.368567 
L 725.60109 263.636947 
L 727.259747 258.565737 
L 728.918405 255.027272 
L 730.577062 252.833133 
L 732.23572 252.141358 
L 733.894377 251.598572 
L 735.553034 250.392102 
L 737.211692 248.38503 
L 738.870349 245.184077 
L 742.187664 237.151523 
L 743.846322 234.326994 
L 745.504979 236.132953 
L 747.163636 241.929127 
L 747.163636 241.929127 
" style="fill:none;stroke:#ff0000;stroke-linecap:square;stroke-width:1.5;"/>
   </g>
   <g id="patch_3">
    <path d="M 108 384.48 
L 108 51.84 
" style="fill:none;stroke:#000000;stroke-linecap:square;stroke-linejoin:miter;stroke-width:0.8;"/>
   </g>
   <g id="patch_4">
    <path d="M 777.6 384.48 
L 777.6 51.84 
" style="fill:none;stroke:#000000;stroke-linecap:square;stroke-linejoin:miter;stroke-width:0.8;"/>
   </g>
   <g id="patch_5">
    <path d="M 108 384.48 
L 777.6 384.48 
" style="fill:none;stroke:#000000;stroke-linecap:square;stroke-linejoin:miter;stroke-width:0.8;"/>
   </g>
   <g id="patch_6">
    <path d="M 108 51.84 
L 777.6 51.84 
" style="fill:none;stroke:#000000;stroke-linecap:square;stroke-linejoin:miter;stroke-width:0.8;"/>
   </g>
   <g id="text_15">
    <!-- Vorhersage von durchschnitlicher Preisentwicklung(Alle Produkte) -->
    <g transform="translate(245.462813 45.84)scale(0.12 -0.12)">
     <defs>
      <path d="M 28.609375 0 
L 0.78125 72.90625 
L 11.078125 72.90625 
L 34.1875 11.53125 
L 57.328125 72.90625 
L 67.578125 72.90625 
L 39.796875 0 
z
" id="DejaVuSans-86"/>
      <path d="M 30.609375 48.390625 
Q 23.390625 48.390625 19.1875 42.75 
Q 14.984375 37.109375 14.984375 27.296875 
Q 14.984375 17.484375 19.15625 11.84375 
Q 23.34375 6.203125 30.609375 6.203125 
Q 37.796875 6.203125 41.984375 11.859375 
Q 46.1875 17.53125 46.1875 27.296875 
Q 46.1875 37.015625 41.984375 42.703125 
Q 37.796875 48.390625 30.609375 48.390625 
z
M 30.609375 56 
Q 42.328125 56 49.015625 48.375 
Q 55.71875 40.765625 55.71875 27.296875 
Q 55.71875 13.875 49.015625 6.21875 
Q 42.328125 -1.421875 30.609375 -1.421875 
Q 18.84375 -1.421875 12.171875 6.21875 
Q 5.515625 13.875 5.515625 27.296875 
Q 5.515625 40.765625 12.171875 48.375 
Q 18.84375 56 30.609375 56 
z
" id="DejaVuSans-111"/>
      <path d="M 34.28125 27.484375 
Q 23.390625 27.484375 19.1875 25 
Q 14.984375 22.515625 14.984375 16.5 
Q 14.984375 11.71875 18.140625 8.90625 
Q 21.296875 6.109375 26.703125 6.109375 
Q 34.1875 6.109375 38.703125 11.40625 
Q 43.21875 16.703125 43.21875 25.484375 
L 43.21875 27.484375 
z
M 52.203125 31.203125 
L 52.203125 0 
L 43.21875 0 
L 43.21875 8.296875 
Q 40.140625 3.328125 35.546875 0.953125 
Q 30.953125 -1.421875 24.3125 -1.421875 
Q 15.921875 -1.421875 10.953125 3.296875 
Q 6 8.015625 6 15.921875 
Q 6 25.140625 12.171875 29.828125 
Q 18.359375 34.515625 30.609375 34.515625 
L 43.21875 34.515625 
L 43.21875 35.40625 
Q 43.21875 41.609375 39.140625 45 
Q 35.0625 48.390625 27.6875 48.390625 
Q 23 48.390625 18.546875 47.265625 
Q 14.109375 46.140625 10.015625 43.890625 
L 10.015625 52.203125 
Q 14.9375 54.109375 19.578125 55.046875 
Q 24.21875 56 28.609375 56 
Q 40.484375 56 46.34375 49.84375 
Q 52.203125 43.703125 52.203125 31.203125 
z
" id="DejaVuSans-97"/>
      <path d="M 45.40625 27.984375 
Q 45.40625 37.75 41.375 43.109375 
Q 37.359375 48.484375 30.078125 48.484375 
Q 22.859375 48.484375 18.828125 43.109375 
Q 14.796875 37.75 14.796875 27.984375 
Q 14.796875 18.265625 18.828125 12.890625 
Q 22.859375 7.515625 30.078125 7.515625 
Q 37.359375 7.515625 41.375 12.890625 
Q 45.40625 18.265625 45.40625 27.984375 
z
M 54.390625 6.78125 
Q 54.390625 -7.171875 48.1875 -13.984375 
Q 42 -20.796875 29.203125 -20.796875 
Q 24.46875 -20.796875 20.265625 -20.09375 
Q 16.0625 -19.390625 12.109375 -17.921875 
L 12.109375 -9.1875 
Q 16.0625 -11.328125 19.921875 -12.34375 
Q 23.78125 -13.375 27.78125 -13.375 
Q 36.625 -13.375 41.015625 -8.765625 
Q 45.40625 -4.15625 45.40625 5.171875 
L 45.40625 9.625 
Q 42.625 4.78125 38.28125 2.390625 
Q 33.9375 0 27.875 0 
Q 17.828125 0 11.671875 7.65625 
Q 5.515625 15.328125 5.515625 27.984375 
Q 5.515625 40.671875 11.671875 48.328125 
Q 17.828125 56 27.875 56 
Q 33.9375 56 38.28125 53.609375 
Q 42.625 51.21875 45.40625 46.390625 
L 45.40625 54.6875 
L 54.390625 54.6875 
z
" id="DejaVuSans-103"/>
      <path d="M 2.984375 54.6875 
L 12.5 54.6875 
L 29.59375 8.796875 
L 46.6875 54.6875 
L 56.203125 54.6875 
L 35.6875 0 
L 23.484375 0 
z
" id="DejaVuSans-118"/>
      <path d="M 4.203125 54.6875 
L 13.1875 54.6875 
L 24.421875 12.015625 
L 35.59375 54.6875 
L 46.1875 54.6875 
L 57.421875 12.015625 
L 68.609375 54.6875 
L 77.59375 54.6875 
L 63.28125 0 
L 52.6875 0 
L 40.921875 44.828125 
L 29.109375 0 
L 18.5 0 
z
" id="DejaVuSans-119"/>
      <path d="M 9.078125 75.984375 
L 18.109375 75.984375 
L 18.109375 31.109375 
L 44.921875 54.6875 
L 56.390625 54.6875 
L 27.390625 29.109375 
L 57.625 0 
L 45.90625 0 
L 18.109375 26.703125 
L 18.109375 0 
L 9.078125 0 
z
" id="DejaVuSans-107"/>
      <path d="M 34.1875 63.1875 
L 20.796875 26.90625 
L 47.609375 26.90625 
z
M 28.609375 72.90625 
L 39.796875 72.90625 
L 67.578125 0 
L 57.328125 0 
L 50.6875 18.703125 
L 17.828125 18.703125 
L 11.1875 0 
L 0.78125 0 
z
" id="DejaVuSans-65"/>
     </defs>
     <use xlink:href="#DejaVuSans-86"/>
     <use x="60.658203" xlink:href="#DejaVuSans-111"/>
     <use x="121.839844" xlink:href="#DejaVuSans-114"/>
     <use x="161.203125" xlink:href="#DejaVuSans-104"/>
     <use x="224.582031" xlink:href="#DejaVuSans-101"/>
     <use x="286.105469" xlink:href="#DejaVuSans-114"/>
     <use x="327.21875" xlink:href="#DejaVuSans-115"/>
     <use x="379.318359" xlink:href="#DejaVuSans-97"/>
     <use x="440.597656" xlink:href="#DejaVuSans-103"/>
     <use x="504.074219" xlink:href="#DejaVuSans-101"/>
     <use x="565.597656" xlink:href="#DejaVuSans-32"/>
     <use x="597.384766" xlink:href="#DejaVuSans-118"/>
     <use x="656.564453" xlink:href="#DejaVuSans-111"/>
     <use x="717.746094" xlink:href="#DejaVuSans-110"/>
     <use x="781.125" xlink:href="#DejaVuSans-32"/>
     <use x="812.912109" xlink:href="#DejaVuSans-100"/>
     <use x="876.388672" xlink:href="#DejaVuSans-117"/>
     <use x="939.767578" xlink:href="#DejaVuSans-114"/>
     <use x="978.630859" xlink:href="#DejaVuSans-99"/>
     <use x="1033.611328" xlink:href="#DejaVuSans-104"/>
     <use x="1096.990234" xlink:href="#DejaVuSans-115"/>
     <use x="1149.089844" xlink:href="#DejaVuSans-99"/>
     <use x="1204.070312" xlink:href="#DejaVuSans-104"/>
     <use x="1267.449219" xlink:href="#DejaVuSans-110"/>
     <use x="1330.828125" xlink:href="#DejaVuSans-105"/>
     <use x="1358.611328" xlink:href="#DejaVuSans-116"/>
     <use x="1397.820312" xlink:href="#DejaVuSans-108"/>
     <use x="1425.603516" xlink:href="#DejaVuSans-105"/>
     <use x="1453.386719" xlink:href="#DejaVuSans-99"/>
     <use x="1508.367188" xlink:href="#DejaVuSans-104"/>
     <use x="1571.746094" xlink:href="#DejaVuSans-101"/>
     <use x="1633.269531" xlink:href="#DejaVuSans-114"/>
     <use x="1674.382812" xlink:href="#DejaVuSans-32"/>
     <use x="1706.169922" xlink:href="#DejaVuSans-80"/>
     <use x="1764.722656" xlink:href="#DejaVuSans-114"/>
     <use x="1803.585938" xlink:href="#DejaVuSans-101"/>
     <use x="1865.109375" xlink:href="#DejaVuSans-105"/>
     <use x="1892.892578" xlink:href="#DejaVuSans-115"/>
     <use x="1944.992188" xlink:href="#DejaVuSans-101"/>
     <use x="2006.515625" xlink:href="#DejaVuSans-110"/>
     <use x="2069.894531" xlink:href="#DejaVuSans-116"/>
     <use x="2109.103516" xlink:href="#DejaVuSans-119"/>
     <use x="2190.890625" xlink:href="#DejaVuSans-105"/>
     <use x="2218.673828" xlink:href="#DejaVuSans-99"/>
     <use x="2273.654297" xlink:href="#DejaVuSans-107"/>
     <use x="2331.564453" xlink:href="#DejaVuSans-108"/>
     <use x="2359.347656" xlink:href="#DejaVuSans-117"/>
     <use x="2422.726562" xlink:href="#DejaVuSans-110"/>
     <use x="2486.105469" xlink:href="#DejaVuSans-103"/>
     <use x="2549.582031" xlink:href="#DejaVuSans-40"/>
     <use x="2588.595703" xlink:href="#DejaVuSans-65"/>
     <use x="2657.003906" xlink:href="#DejaVuSans-108"/>
     <use x="2684.787109" xlink:href="#DejaVuSans-108"/>
     <use x="2712.570312" xlink:href="#DejaVuSans-101"/>
     <use x="2774.09375" xlink:href="#DejaVuSans-32"/>
     <use x="2805.880859" xlink:href="#DejaVuSans-80"/>
     <use x="2864.433594" xlink:href="#DejaVuSans-114"/>
     <use x="2903.296875" xlink:href="#DejaVuSans-111"/>
     <use x="2964.478516" xlink:href="#DejaVuSans-100"/>
     <use x="3027.955078" xlink:href="#DejaVuSans-117"/>
     <use x="3091.333984" xlink:href="#DejaVuSans-107"/>
     <use x="3149.244141" xlink:href="#DejaVuSans-116"/>
     <use x="3188.453125" xlink:href="#DejaVuSans-101"/>
     <use x="3249.976562" xlink:href="#DejaVuSans-41"/>
    </g>
   </g>
   <g id="legend_1">
    <g id="patch_7">
     <path d="M 673.154688 104.430625 
L 770.6 104.430625 
Q 772.6 104.430625 772.6 102.430625 
L 772.6 58.84 
Q 772.6 56.84 770.6 56.84 
L 673.154688 56.84 
Q 671.154688 56.84 671.154688 58.84 
L 671.154688 102.430625 
Q 671.154688 104.430625 673.154688 104.430625 
z
" style="fill:#ffffff;opacity:0.8;stroke:#cccccc;stroke-linejoin:miter;"/>
    </g>
    <g id="line2d_16">
     <path d="M 675.154688 64.938437 
L 695.154688 64.938437 
" style="fill:none;stroke:#0000ff;stroke-linecap:square;stroke-width:1.5;"/>
    </g>
    <g id="line2d_17"/>
    <g id="text_16">
     <!-- original price -->
     <g transform="translate(703.154688 68.438437)scale(0.1 -0.1)">
      <defs>
       <path d="M 18.109375 8.203125 
L 18.109375 -20.796875 
L 9.078125 -20.796875 
L 9.078125 54.6875 
L 18.109375 54.6875 
L 18.109375 46.390625 
Q 20.953125 51.265625 25.265625 53.625 
Q 29.59375 56 35.59375 56 
Q 45.5625 56 51.78125 48.09375 
Q 58.015625 40.1875 58.015625 27.296875 
Q 58.015625 14.40625 51.78125 6.484375 
Q 45.5625 -1.421875 35.59375 -1.421875 
Q 29.59375 -1.421875 25.265625 0.953125 
Q 20.953125 3.328125 18.109375 8.203125 
z
M 48.6875 27.296875 
Q 48.6875 37.203125 44.609375 42.84375 
Q 40.53125 48.484375 33.40625 48.484375 
Q 26.265625 48.484375 22.1875 42.84375 
Q 18.109375 37.203125 18.109375 27.296875 
Q 18.109375 17.390625 22.1875 11.75 
Q 26.265625 6.109375 33.40625 6.109375 
Q 40.53125 6.109375 44.609375 11.75 
Q 48.6875 17.390625 48.6875 27.296875 
z
" id="DejaVuSans-112"/>
      </defs>
      <use xlink:href="#DejaVuSans-111"/>
      <use x="61.181641" xlink:href="#DejaVuSans-114"/>
      <use x="102.294922" xlink:href="#DejaVuSans-105"/>
      <use x="130.078125" xlink:href="#DejaVuSans-103"/>
      <use x="193.554688" xlink:href="#DejaVuSans-105"/>
      <use x="221.337891" xlink:href="#DejaVuSans-110"/>
      <use x="284.716797" xlink:href="#DejaVuSans-97"/>
      <use x="345.996094" xlink:href="#DejaVuSans-108"/>
      <use x="373.779297" xlink:href="#DejaVuSans-32"/>
      <use x="405.566406" xlink:href="#DejaVuSans-112"/>
      <use x="469.042969" xlink:href="#DejaVuSans-114"/>
      <use x="510.15625" xlink:href="#DejaVuSans-105"/>
      <use x="537.939453" xlink:href="#DejaVuSans-99"/>
      <use x="592.919922" xlink:href="#DejaVuSans-101"/>
     </g>
    </g>
    <g id="line2d_18">
     <path d="M 675.154688 79.616562 
L 695.154688 79.616562 
" style="fill:none;stroke:#008000;stroke-linecap:square;stroke-width:1.5;"/>
    </g>
    <g id="line2d_19"/>
    <g id="text_17">
     <!-- train_predict -->
     <g transform="translate(703.154688 83.116562)scale(0.1 -0.1)">
      <defs>
       <path d="M 50.984375 -16.609375 
L 50.984375 -23.578125 
L -0.984375 -23.578125 
L -0.984375 -16.609375 
z
" id="DejaVuSans-95"/>
      </defs>
      <use xlink:href="#DejaVuSans-116"/>
      <use x="39.208984" xlink:href="#DejaVuSans-114"/>
      <use x="80.322266" xlink:href="#DejaVuSans-97"/>
      <use x="141.601562" xlink:href="#DejaVuSans-105"/>
      <use x="169.384766" xlink:href="#DejaVuSans-110"/>
      <use x="232.763672" xlink:href="#DejaVuSans-95"/>
      <use x="282.763672" xlink:href="#DejaVuSans-112"/>
      <use x="346.240234" xlink:href="#DejaVuSans-114"/>
      <use x="385.103516" xlink:href="#DejaVuSans-101"/>
      <use x="446.626953" xlink:href="#DejaVuSans-100"/>
      <use x="510.103516" xlink:href="#DejaVuSans-105"/>
      <use x="537.886719" xlink:href="#DejaVuSans-99"/>
      <use x="592.867188" xlink:href="#DejaVuSans-116"/>
     </g>
    </g>
    <g id="line2d_20">
     <path d="M 675.154688 94.572812 
L 695.154688 94.572812 
" style="fill:none;stroke:#ff0000;stroke-linecap:square;stroke-width:1.5;"/>
    </g>
    <g id="line2d_21"/>
    <g id="text_18">
     <!-- test_predict -->
     <g transform="translate(703.154688 98.072812)scale(0.1 -0.1)">
      <use xlink:href="#DejaVuSans-116"/>
      <use x="39.208984" xlink:href="#DejaVuSans-101"/>
      <use x="100.732422" xlink:href="#DejaVuSans-115"/>
      <use x="152.832031" xlink:href="#DejaVuSans-116"/>
      <use x="192.041016" xlink:href="#DejaVuSans-95"/>
      <use x="242.041016" xlink:href="#DejaVuSans-112"/>
      <use x="305.517578" xlink:href="#DejaVuSans-114"/>
      <use x="344.380859" xlink:href="#DejaVuSans-101"/>
      <use x="405.904297" xlink:href="#DejaVuSans-100"/>
      <use x="469.380859" xlink:href="#DejaVuSans-105"/>
      <use x="497.164062" xlink:href="#DejaVuSans-99"/>
      <use x="552.144531" xlink:href="#DejaVuSans-116"/>
     </g>
    </g>
   </g>
  </g>
 </g>
 <defs>
  <clipPath id="p183fd74e0a">
   <rect height="332.64" width="669.6" x="108" y="51.84"/>
  </clipPath>
 </defs>
</svg>
