<?xml version="1.0" encoding="utf-8" standalone="no"?>
<!DOCTYPE svg PUBLIC "-//W3C//DTD SVG 1.1//EN"
  "http://www.w3.org/Graphics/SVG/1.1/DTD/svg11.dtd">
<!-- Created with matplotlib (https://matplotlib.org/) -->
<svg height="432pt" version="1.1" viewBox="0 0 864 432" width="864pt" xmlns="http://www.w3.org/2000/svg" xmlns:xlink="http://www.w3.org/1999/xlink">
 <metadata>
  <rdf:RDF xmlns:cc="http://creativecommons.org/ns#" xmlns:dc="http://purl.org/dc/elements/1.1/" xmlns:rdf="http://www.w3.org/1999/02/22-rdf-syntax-ns#">
   <cc:Work>
    <dc:type rdf:resource="http://purl.org/dc/dcmitype/StillImage"/>
    <dc:date>2020-10-16T00:30:15.714815</dc:date>
    <dc:format>image/svg+xml</dc:format>
    <dc:creator>
     <cc:Agent>
      <dc:title>Matplotlib v3.3.2, https://matplotlib.org/</dc:title>
     </cc:Agent>
    </dc:creator>
   </cc:Work>
  </rdf:RDF>
 </metadata>
 <defs>
  <style type="text/css">*{stroke-linecap:butt;stroke-linejoin:round;}</style>
 </defs>
 <g id="figure_1">
  <g id="patch_1">
   <path d="M 0 432 
L 864 432 
L 864 0 
L 0 0 
z
" style="fill:#ffffff;"/>
  </g>
  <g id="axes_1">
   <g id="patch_2">
    <path d="M 108 384.48 
L 777.6 384.48 
L 777.6 51.84 
L 108 51.84 
z
" style="fill:#ffffff;"/>
   </g>
   <g id="matplotlib.axis_1">
    <g id="xtick_1">
     <g id="line2d_1">
      <defs>
       <path d="M 0 0 
L 0 3.5 
" id="me545a032ea" style="stroke:#000000;stroke-width:0.8;"/>
      </defs>
      <g>
       <use style="stroke:#000000;stroke-width:0.8;" x="138.436364" xlink:href="#me545a032ea" y="384.48"/>
      </g>
     </g>
     <g id="text_1">
      <!-- 0 -->
      <g transform="translate(135.255114 399.078438)scale(0.1 -0.1)">
       <defs>
        <path d="M 31.78125 66.40625 
Q 24.171875 66.40625 20.328125 58.90625 
Q 16.5 51.421875 16.5 36.375 
Q 16.5 21.390625 20.328125 13.890625 
Q 24.171875 6.390625 31.78125 6.390625 
Q 39.453125 6.390625 43.28125 13.890625 
Q 47.125 21.390625 47.125 36.375 
Q 47.125 51.421875 43.28125 58.90625 
Q 39.453125 66.40625 31.78125 66.40625 
z
M 31.78125 74.21875 
Q 44.046875 74.21875 50.515625 64.515625 
Q 56.984375 54.828125 56.984375 36.375 
Q 56.984375 17.96875 50.515625 8.265625 
Q 44.046875 -1.421875 31.78125 -1.421875 
Q 19.53125 -1.421875 13.0625 8.265625 
Q 6.59375 17.96875 6.59375 36.375 
Q 6.59375 54.828125 13.0625 64.515625 
Q 19.53125 74.21875 31.78125 74.21875 
z
" id="DejaVuSans-48"/>
       </defs>
       <use xlink:href="#DejaVuSans-48"/>
      </g>
     </g>
    </g>
    <g id="xtick_2">
     <g id="line2d_2">
      <g>
       <use style="stroke:#000000;stroke-width:0.8;" x="221.369235" xlink:href="#me545a032ea" y="384.48"/>
      </g>
     </g>
     <g id="text_2">
      <!-- 50 -->
      <g transform="translate(215.006735 399.078438)scale(0.1 -0.1)">
       <defs>
        <path d="M 10.796875 72.90625 
L 49.515625 72.90625 
L 49.515625 64.59375 
L 19.828125 64.59375 
L 19.828125 46.734375 
Q 21.96875 47.46875 24.109375 47.828125 
Q 26.265625 48.1875 28.421875 48.1875 
Q 40.625 48.1875 47.75 41.5 
Q 54.890625 34.8125 54.890625 23.390625 
Q 54.890625 11.625 47.5625 5.09375 
Q 40.234375 -1.421875 26.90625 -1.421875 
Q 22.3125 -1.421875 17.546875 -0.640625 
Q 12.796875 0.140625 7.71875 1.703125 
L 7.71875 11.625 
Q 12.109375 9.234375 16.796875 8.0625 
Q 21.484375 6.890625 26.703125 6.890625 
Q 35.15625 6.890625 40.078125 11.328125 
Q 45.015625 15.765625 45.015625 23.390625 
Q 45.015625 31 40.078125 35.4375 
Q 35.15625 39.890625 26.703125 39.890625 
Q 22.75 39.890625 18.8125 39.015625 
Q 14.890625 38.140625 10.796875 36.28125 
z
" id="DejaVuSans-53"/>
       </defs>
       <use xlink:href="#DejaVuSans-53"/>
       <use x="63.623047" xlink:href="#DejaVuSans-48"/>
      </g>
     </g>
    </g>
    <g id="xtick_3">
     <g id="line2d_3">
      <g>
       <use style="stroke:#000000;stroke-width:0.8;" x="304.302106" xlink:href="#me545a032ea" y="384.48"/>
      </g>
     </g>
     <g id="text_3">
      <!-- 100 -->
      <g transform="translate(294.758356 399.078438)scale(0.1 -0.1)">
       <defs>
        <path d="M 12.40625 8.296875 
L 28.515625 8.296875 
L 28.515625 63.921875 
L 10.984375 60.40625 
L 10.984375 69.390625 
L 28.421875 72.90625 
L 38.28125 72.90625 
L 38.28125 8.296875 
L 54.390625 8.296875 
L 54.390625 0 
L 12.40625 0 
z
" id="DejaVuSans-49"/>
       </defs>
       <use xlink:href="#DejaVuSans-49"/>
       <use x="63.623047" xlink:href="#DejaVuSans-48"/>
       <use x="127.246094" xlink:href="#DejaVuSans-48"/>
      </g>
     </g>
    </g>
    <g id="xtick_4">
     <g id="line2d_4">
      <g>
       <use style="stroke:#000000;stroke-width:0.8;" x="387.234976" xlink:href="#me545a032ea" y="384.48"/>
      </g>
     </g>
     <g id="text_4">
      <!-- 150 -->
      <g transform="translate(377.691226 399.078438)scale(0.1 -0.1)">
       <use xlink:href="#DejaVuSans-49"/>
       <use x="63.623047" xlink:href="#DejaVuSans-53"/>
       <use x="127.246094" xlink:href="#DejaVuSans-48"/>
      </g>
     </g>
    </g>
    <g id="xtick_5">
     <g id="line2d_5">
      <g>
       <use style="stroke:#000000;stroke-width:0.8;" x="470.167847" xlink:href="#me545a032ea" y="384.48"/>
      </g>
     </g>
     <g id="text_5">
      <!-- 200 -->
      <g transform="translate(460.624097 399.078438)scale(0.1 -0.1)">
       <defs>
        <path d="M 19.1875 8.296875 
L 53.609375 8.296875 
L 53.609375 0 
L 7.328125 0 
L 7.328125 8.296875 
Q 12.9375 14.109375 22.625 23.890625 
Q 32.328125 33.6875 34.8125 36.53125 
Q 39.546875 41.84375 41.421875 45.53125 
Q 43.3125 49.21875 43.3125 52.78125 
Q 43.3125 58.59375 39.234375 62.25 
Q 35.15625 65.921875 28.609375 65.921875 
Q 23.96875 65.921875 18.8125 64.3125 
Q 13.671875 62.703125 7.8125 59.421875 
L 7.8125 69.390625 
Q 13.765625 71.78125 18.9375 73 
Q 24.125 74.21875 28.421875 74.21875 
Q 39.75 74.21875 46.484375 68.546875 
Q 53.21875 62.890625 53.21875 53.421875 
Q 53.21875 48.921875 51.53125 44.890625 
Q 49.859375 40.875 45.40625 35.40625 
Q 44.1875 33.984375 37.640625 27.21875 
Q 31.109375 20.453125 19.1875 8.296875 
z
" id="DejaVuSans-50"/>
       </defs>
       <use xlink:href="#DejaVuSans-50"/>
       <use x="63.623047" xlink:href="#DejaVuSans-48"/>
       <use x="127.246094" xlink:href="#DejaVuSans-48"/>
      </g>
     </g>
    </g>
    <g id="xtick_6">
     <g id="line2d_6">
      <g>
       <use style="stroke:#000000;stroke-width:0.8;" x="553.100718" xlink:href="#me545a032ea" y="384.48"/>
      </g>
     </g>
     <g id="text_6">
      <!-- 250 -->
      <g transform="translate(543.556968 399.078438)scale(0.1 -0.1)">
       <use xlink:href="#DejaVuSans-50"/>
       <use x="63.623047" xlink:href="#DejaVuSans-53"/>
       <use x="127.246094" xlink:href="#DejaVuSans-48"/>
      </g>
     </g>
    </g>
    <g id="xtick_7">
     <g id="line2d_7">
      <g>
       <use style="stroke:#000000;stroke-width:0.8;" x="636.033589" xlink:href="#me545a032ea" y="384.48"/>
      </g>
     </g>
     <g id="text_7">
      <!-- 300 -->
      <g transform="translate(626.489839 399.078438)scale(0.1 -0.1)">
       <defs>
        <path d="M 40.578125 39.3125 
Q 47.65625 37.796875 51.625 33 
Q 55.609375 28.21875 55.609375 21.1875 
Q 55.609375 10.40625 48.1875 4.484375 
Q 40.765625 -1.421875 27.09375 -1.421875 
Q 22.515625 -1.421875 17.65625 -0.515625 
Q 12.796875 0.390625 7.625 2.203125 
L 7.625 11.71875 
Q 11.71875 9.328125 16.59375 8.109375 
Q 21.484375 6.890625 26.8125 6.890625 
Q 36.078125 6.890625 40.9375 10.546875 
Q 45.796875 14.203125 45.796875 21.1875 
Q 45.796875 27.640625 41.28125 31.265625 
Q 36.765625 34.90625 28.71875 34.90625 
L 20.21875 34.90625 
L 20.21875 43.015625 
L 29.109375 43.015625 
Q 36.375 43.015625 40.234375 45.921875 
Q 44.09375 48.828125 44.09375 54.296875 
Q 44.09375 59.90625 40.109375 62.90625 
Q 36.140625 65.921875 28.71875 65.921875 
Q 24.65625 65.921875 20.015625 65.03125 
Q 15.375 64.15625 9.8125 62.3125 
L 9.8125 71.09375 
Q 15.4375 72.65625 20.34375 73.4375 
Q 25.25 74.21875 29.59375 74.21875 
Q 40.828125 74.21875 47.359375 69.109375 
Q 53.90625 64.015625 53.90625 55.328125 
Q 53.90625 49.265625 50.4375 45.09375 
Q 46.96875 40.921875 40.578125 39.3125 
z
" id="DejaVuSans-51"/>
       </defs>
       <use xlink:href="#DejaVuSans-51"/>
       <use x="63.623047" xlink:href="#DejaVuSans-48"/>
       <use x="127.246094" xlink:href="#DejaVuSans-48"/>
      </g>
     </g>
    </g>
    <g id="xtick_8">
     <g id="line2d_8">
      <g>
       <use style="stroke:#000000;stroke-width:0.8;" x="718.96646" xlink:href="#me545a032ea" y="384.48"/>
      </g>
     </g>
     <g id="text_8">
      <!-- 350 -->
      <g transform="translate(709.42271 399.078438)scale(0.1 -0.1)">
       <use xlink:href="#DejaVuSans-51"/>
       <use x="63.623047" xlink:href="#DejaVuSans-53"/>
       <use x="127.246094" xlink:href="#DejaVuSans-48"/>
      </g>
     </g>
    </g>
    <g id="text_9">
     <!-- Zeit -->
     <g transform="translate(432.949219 412.756563)scale(0.1 -0.1)">
      <defs>
       <path d="M 5.609375 72.90625 
L 62.890625 72.90625 
L 62.890625 65.375 
L 16.796875 8.296875 
L 64.015625 8.296875 
L 64.015625 0 
L 4.5 0 
L 4.5 7.515625 
L 50.59375 64.59375 
L 5.609375 64.59375 
z
" id="DejaVuSans-90"/>
       <path d="M 56.203125 29.59375 
L 56.203125 25.203125 
L 14.890625 25.203125 
Q 15.484375 15.921875 20.484375 11.0625 
Q 25.484375 6.203125 34.421875 6.203125 
Q 39.59375 6.203125 44.453125 7.46875 
Q 49.3125 8.734375 54.109375 11.28125 
L 54.109375 2.78125 
Q 49.265625 0.734375 44.1875 -0.34375 
Q 39.109375 -1.421875 33.890625 -1.421875 
Q 20.796875 -1.421875 13.15625 6.1875 
Q 5.515625 13.8125 5.515625 26.8125 
Q 5.515625 40.234375 12.765625 48.109375 
Q 20.015625 56 32.328125 56 
Q 43.359375 56 49.78125 48.890625 
Q 56.203125 41.796875 56.203125 29.59375 
z
M 47.21875 32.234375 
Q 47.125 39.59375 43.09375 43.984375 
Q 39.0625 48.390625 32.421875 48.390625 
Q 24.90625 48.390625 20.390625 44.140625 
Q 15.875 39.890625 15.1875 32.171875 
z
" id="DejaVuSans-101"/>
       <path d="M 9.421875 54.6875 
L 18.40625 54.6875 
L 18.40625 0 
L 9.421875 0 
z
M 9.421875 75.984375 
L 18.40625 75.984375 
L 18.40625 64.59375 
L 9.421875 64.59375 
z
" id="DejaVuSans-105"/>
       <path d="M 18.3125 70.21875 
L 18.3125 54.6875 
L 36.8125 54.6875 
L 36.8125 47.703125 
L 18.3125 47.703125 
L 18.3125 18.015625 
Q 18.3125 11.328125 20.140625 9.421875 
Q 21.96875 7.515625 27.59375 7.515625 
L 36.8125 7.515625 
L 36.8125 0 
L 27.59375 0 
Q 17.1875 0 13.234375 3.875 
Q 9.28125 7.765625 9.28125 18.015625 
L 9.28125 47.703125 
L 2.6875 47.703125 
L 2.6875 54.6875 
L 9.28125 54.6875 
L 9.28125 70.21875 
z
" id="DejaVuSans-116"/>
      </defs>
      <use xlink:href="#DejaVuSans-90"/>
      <use x="68.505859" xlink:href="#DejaVuSans-101"/>
      <use x="130.029297" xlink:href="#DejaVuSans-105"/>
      <use x="157.8125" xlink:href="#DejaVuSans-116"/>
     </g>
    </g>
   </g>
   <g id="matplotlib.axis_2">
    <g id="ytick_1">
     <g id="line2d_9">
      <defs>
       <path d="M 0 0 
L -3.5 0 
" id="md57fba54d1" style="stroke:#000000;stroke-width:0.8;"/>
      </defs>
      <g>
       <use style="stroke:#000000;stroke-width:0.8;" x="108" xlink:href="#md57fba54d1" y="348.489312"/>
      </g>
     </g>
     <g id="text_10">
      <!-- 90 -->
      <g transform="translate(88.275 352.288531)scale(0.1 -0.1)">
       <defs>
        <path d="M 10.984375 1.515625 
L 10.984375 10.5 
Q 14.703125 8.734375 18.5 7.8125 
Q 22.3125 6.890625 25.984375 6.890625 
Q 35.75 6.890625 40.890625 13.453125 
Q 46.046875 20.015625 46.78125 33.40625 
Q 43.953125 29.203125 39.59375 26.953125 
Q 35.25 24.703125 29.984375 24.703125 
Q 19.046875 24.703125 12.671875 31.3125 
Q 6.296875 37.9375 6.296875 49.421875 
Q 6.296875 60.640625 12.9375 67.421875 
Q 19.578125 74.21875 30.609375 74.21875 
Q 43.265625 74.21875 49.921875 64.515625 
Q 56.59375 54.828125 56.59375 36.375 
Q 56.59375 19.140625 48.40625 8.859375 
Q 40.234375 -1.421875 26.421875 -1.421875 
Q 22.703125 -1.421875 18.890625 -0.6875 
Q 15.09375 0.046875 10.984375 1.515625 
z
M 30.609375 32.421875 
Q 37.25 32.421875 41.125 36.953125 
Q 45.015625 41.5 45.015625 49.421875 
Q 45.015625 57.28125 41.125 61.84375 
Q 37.25 66.40625 30.609375 66.40625 
Q 23.96875 66.40625 20.09375 61.84375 
Q 16.21875 57.28125 16.21875 49.421875 
Q 16.21875 41.5 20.09375 36.953125 
Q 23.96875 32.421875 30.609375 32.421875 
z
" id="DejaVuSans-57"/>
       </defs>
       <use xlink:href="#DejaVuSans-57"/>
       <use x="63.623047" xlink:href="#DejaVuSans-48"/>
      </g>
     </g>
    </g>
    <g id="ytick_2">
     <g id="line2d_10">
      <g>
       <use style="stroke:#000000;stroke-width:0.8;" x="108" xlink:href="#md57fba54d1" y="280.472529"/>
      </g>
     </g>
     <g id="text_11">
      <!-- 100 -->
      <g transform="translate(81.9125 284.271748)scale(0.1 -0.1)">
       <use xlink:href="#DejaVuSans-49"/>
       <use x="63.623047" xlink:href="#DejaVuSans-48"/>
       <use x="127.246094" xlink:href="#DejaVuSans-48"/>
      </g>
     </g>
    </g>
    <g id="ytick_3">
     <g id="line2d_11">
      <g>
       <use style="stroke:#000000;stroke-width:0.8;" x="108" xlink:href="#md57fba54d1" y="212.455746"/>
      </g>
     </g>
     <g id="text_12">
      <!-- 110 -->
      <g transform="translate(81.9125 216.254965)scale(0.1 -0.1)">
       <use xlink:href="#DejaVuSans-49"/>
       <use x="63.623047" xlink:href="#DejaVuSans-49"/>
       <use x="127.246094" xlink:href="#DejaVuSans-48"/>
      </g>
     </g>
    </g>
    <g id="ytick_4">
     <g id="line2d_12">
      <g>
       <use style="stroke:#000000;stroke-width:0.8;" x="108" xlink:href="#md57fba54d1" y="144.438964"/>
      </g>
     </g>
     <g id="text_13">
      <!-- 120 -->
      <g transform="translate(81.9125 148.238182)scale(0.1 -0.1)">
       <use xlink:href="#DejaVuSans-49"/>
       <use x="63.623047" xlink:href="#DejaVuSans-50"/>
       <use x="127.246094" xlink:href="#DejaVuSans-48"/>
      </g>
     </g>
    </g>
    <g id="ytick_5">
     <g id="line2d_13">
      <g>
       <use style="stroke:#000000;stroke-width:0.8;" x="108" xlink:href="#md57fba54d1" y="76.422181"/>
      </g>
     </g>
     <g id="text_14">
      <!-- 130 -->
      <g transform="translate(81.9125 80.2214)scale(0.1 -0.1)">
       <use xlink:href="#DejaVuSans-49"/>
       <use x="63.623047" xlink:href="#DejaVuSans-51"/>
       <use x="127.246094" xlink:href="#DejaVuSans-48"/>
      </g>
     </g>
    </g>
    <g id="text_15">
     <!-- durchschnittliche Preise (€) -->
     <g transform="translate(75.832812 286.415469)rotate(-90)scale(0.1 -0.1)">
      <defs>
       <path d="M 45.40625 46.390625 
L 45.40625 75.984375 
L 54.390625 75.984375 
L 54.390625 0 
L 45.40625 0 
L 45.40625 8.203125 
Q 42.578125 3.328125 38.25 0.953125 
Q 33.9375 -1.421875 27.875 -1.421875 
Q 17.96875 -1.421875 11.734375 6.484375 
Q 5.515625 14.40625 5.515625 27.296875 
Q 5.515625 40.1875 11.734375 48.09375 
Q 17.96875 56 27.875 56 
Q 33.9375 56 38.25 53.625 
Q 42.578125 51.265625 45.40625 46.390625 
z
M 14.796875 27.296875 
Q 14.796875 17.390625 18.875 11.75 
Q 22.953125 6.109375 30.078125 6.109375 
Q 37.203125 6.109375 41.296875 11.75 
Q 45.40625 17.390625 45.40625 27.296875 
Q 45.40625 37.203125 41.296875 42.84375 
Q 37.203125 48.484375 30.078125 48.484375 
Q 22.953125 48.484375 18.875 42.84375 
Q 14.796875 37.203125 14.796875 27.296875 
z
" id="DejaVuSans-100"/>
       <path d="M 8.5 21.578125 
L 8.5 54.6875 
L 17.484375 54.6875 
L 17.484375 21.921875 
Q 17.484375 14.15625 20.5 10.265625 
Q 23.53125 6.390625 29.59375 6.390625 
Q 36.859375 6.390625 41.078125 11.03125 
Q 45.3125 15.671875 45.3125 23.6875 
L 45.3125 54.6875 
L 54.296875 54.6875 
L 54.296875 0 
L 45.3125 0 
L 45.3125 8.40625 
Q 42.046875 3.421875 37.71875 1 
Q 33.40625 -1.421875 27.6875 -1.421875 
Q 18.265625 -1.421875 13.375 4.4375 
Q 8.5 10.296875 8.5 21.578125 
z
M 31.109375 56 
z
" id="DejaVuSans-117"/>
       <path d="M 41.109375 46.296875 
Q 39.59375 47.171875 37.8125 47.578125 
Q 36.03125 48 33.890625 48 
Q 26.265625 48 22.1875 43.046875 
Q 18.109375 38.09375 18.109375 28.8125 
L 18.109375 0 
L 9.078125 0 
L 9.078125 54.6875 
L 18.109375 54.6875 
L 18.109375 46.1875 
Q 20.953125 51.171875 25.484375 53.578125 
Q 30.03125 56 36.53125 56 
Q 37.453125 56 38.578125 55.875 
Q 39.703125 55.765625 41.0625 55.515625 
z
" id="DejaVuSans-114"/>
       <path d="M 48.78125 52.59375 
L 48.78125 44.1875 
Q 44.96875 46.296875 41.140625 47.34375 
Q 37.3125 48.390625 33.40625 48.390625 
Q 24.65625 48.390625 19.8125 42.84375 
Q 14.984375 37.3125 14.984375 27.296875 
Q 14.984375 17.28125 19.8125 11.734375 
Q 24.65625 6.203125 33.40625 6.203125 
Q 37.3125 6.203125 41.140625 7.25 
Q 44.96875 8.296875 48.78125 10.40625 
L 48.78125 2.09375 
Q 45.015625 0.34375 40.984375 -0.53125 
Q 36.96875 -1.421875 32.421875 -1.421875 
Q 20.0625 -1.421875 12.78125 6.34375 
Q 5.515625 14.109375 5.515625 27.296875 
Q 5.515625 40.671875 12.859375 48.328125 
Q 20.21875 56 33.015625 56 
Q 37.15625 56 41.109375 55.140625 
Q 45.0625 54.296875 48.78125 52.59375 
z
" id="DejaVuSans-99"/>
       <path d="M 54.890625 33.015625 
L 54.890625 0 
L 45.90625 0 
L 45.90625 32.71875 
Q 45.90625 40.484375 42.875 44.328125 
Q 39.84375 48.1875 33.796875 48.1875 
Q 26.515625 48.1875 22.3125 43.546875 
Q 18.109375 38.921875 18.109375 30.90625 
L 18.109375 0 
L 9.078125 0 
L 9.078125 75.984375 
L 18.109375 75.984375 
L 18.109375 46.1875 
Q 21.34375 51.125 25.703125 53.5625 
Q 30.078125 56 35.796875 56 
Q 45.21875 56 50.046875 50.171875 
Q 54.890625 44.34375 54.890625 33.015625 
z
" id="DejaVuSans-104"/>
       <path d="M 44.28125 53.078125 
L 44.28125 44.578125 
Q 40.484375 46.53125 36.375 47.5 
Q 32.28125 48.484375 27.875 48.484375 
Q 21.1875 48.484375 17.84375 46.4375 
Q 14.5 44.390625 14.5 40.28125 
Q 14.5 37.15625 16.890625 35.375 
Q 19.28125 33.59375 26.515625 31.984375 
L 29.59375 31.296875 
Q 39.15625 29.25 43.1875 25.515625 
Q 47.21875 21.78125 47.21875 15.09375 
Q 47.21875 7.46875 41.1875 3.015625 
Q 35.15625 -1.421875 24.609375 -1.421875 
Q 20.21875 -1.421875 15.453125 -0.5625 
Q 10.6875 0.296875 5.421875 2 
L 5.421875 11.28125 
Q 10.40625 8.6875 15.234375 7.390625 
Q 20.0625 6.109375 24.8125 6.109375 
Q 31.15625 6.109375 34.5625 8.28125 
Q 37.984375 10.453125 37.984375 14.40625 
Q 37.984375 18.0625 35.515625 20.015625 
Q 33.0625 21.96875 24.703125 23.78125 
L 21.578125 24.515625 
Q 13.234375 26.265625 9.515625 29.90625 
Q 5.8125 33.546875 5.8125 39.890625 
Q 5.8125 47.609375 11.28125 51.796875 
Q 16.75 56 26.8125 56 
Q 31.78125 56 36.171875 55.265625 
Q 40.578125 54.546875 44.28125 53.078125 
z
" id="DejaVuSans-115"/>
       <path d="M 54.890625 33.015625 
L 54.890625 0 
L 45.90625 0 
L 45.90625 32.71875 
Q 45.90625 40.484375 42.875 44.328125 
Q 39.84375 48.1875 33.796875 48.1875 
Q 26.515625 48.1875 22.3125 43.546875 
Q 18.109375 38.921875 18.109375 30.90625 
L 18.109375 0 
L 9.078125 0 
L 9.078125 54.6875 
L 18.109375 54.6875 
L 18.109375 46.1875 
Q 21.34375 51.125 25.703125 53.5625 
Q 30.078125 56 35.796875 56 
Q 45.21875 56 50.046875 50.171875 
Q 54.890625 44.34375 54.890625 33.015625 
z
" id="DejaVuSans-110"/>
       <path d="M 9.421875 75.984375 
L 18.40625 75.984375 
L 18.40625 0 
L 9.421875 0 
z
" id="DejaVuSans-108"/>
       <path id="DejaVuSans-32"/>
       <path d="M 19.671875 64.796875 
L 19.671875 37.40625 
L 32.078125 37.40625 
Q 38.96875 37.40625 42.71875 40.96875 
Q 46.484375 44.53125 46.484375 51.125 
Q 46.484375 57.671875 42.71875 61.234375 
Q 38.96875 64.796875 32.078125 64.796875 
z
M 9.8125 72.90625 
L 32.078125 72.90625 
Q 44.34375 72.90625 50.609375 67.359375 
Q 56.890625 61.8125 56.890625 51.125 
Q 56.890625 40.328125 50.609375 34.8125 
Q 44.34375 29.296875 32.078125 29.296875 
L 19.671875 29.296875 
L 19.671875 0 
L 9.8125 0 
z
" id="DejaVuSans-80"/>
       <path d="M 31 75.875 
Q 24.46875 64.65625 21.28125 53.65625 
Q 18.109375 42.671875 18.109375 31.390625 
Q 18.109375 20.125 21.3125 9.0625 
Q 24.515625 -2 31 -13.1875 
L 23.1875 -13.1875 
Q 15.875 -1.703125 12.234375 9.375 
Q 8.59375 20.453125 8.59375 31.390625 
Q 8.59375 42.28125 12.203125 53.3125 
Q 15.828125 64.359375 23.1875 75.875 
z
" id="DejaVuSans-40"/>
       <path d="M 56.984375 67.28125 
L 56.984375 56.890625 
Q 52.546875 62.015625 48.40625 64.203125 
Q 44.28125 66.40625 39.3125 66.40625 
Q 31.640625 66.40625 26.703125 61.515625 
Q 21.78125 56.640625 20.21875 47.515625 
L 48.390625 47.515625 
L 45.703125 41.5 
L 19.4375 41.5 
Q 19.34375 40.328125 19.3125 39.203125 
Q 19.28125 38.09375 19.28125 36.375 
Q 19.28125 34.8125 19.3125 33.6875 
Q 19.34375 32.5625 19.4375 31.390625 
L 41.21875 31.390625 
L 38.484375 25.390625 
L 20.21875 25.390625 
Q 21.78125 16.265625 26.703125 11.328125 
Q 31.640625 6.390625 39.3125 6.390625 
Q 44.28125 6.390625 48.40625 8.59375 
Q 52.546875 10.796875 56.984375 15.921875 
L 56.984375 5.609375 
Q 52.640625 2.09375 48.125 0.328125 
Q 43.609375 -1.421875 38.921875 -1.421875 
Q 27.34375 -1.421875 19.796875 5.65625 
Q 12.25 12.75 10.296875 25.390625 
L 0 25.390625 
L 2.6875 31.390625 
L 9.46875 31.390625 
Q 9.46875 32.515625 9.4375 33.65625 
Q 9.421875 34.8125 9.421875 36.375 
Q 9.421875 38.09375 9.4375 39.234375 
Q 9.46875 40.375 9.46875 41.5 
L 0 41.5 
L 2.6875 47.515625 
L 10.296875 47.515625 
Q 12.25 60.0625 19.8125 67.140625 
Q 27.390625 74.21875 38.921875 74.21875 
Q 43.703125 74.21875 48.21875 72.484375 
Q 52.734375 70.75 56.984375 67.28125 
z
" id="DejaVuSans-8364"/>
       <path d="M 8.015625 75.875 
L 15.828125 75.875 
Q 23.140625 64.359375 26.78125 53.3125 
Q 30.421875 42.28125 30.421875 31.390625 
Q 30.421875 20.453125 26.78125 9.375 
Q 23.140625 -1.703125 15.828125 -13.1875 
L 8.015625 -13.1875 
Q 14.5 -2 17.703125 9.0625 
Q 20.90625 20.125 20.90625 31.390625 
Q 20.90625 42.671875 17.703125 53.65625 
Q 14.5 64.65625 8.015625 75.875 
z
" id="DejaVuSans-41"/>
      </defs>
      <use xlink:href="#DejaVuSans-100"/>
      <use x="63.476562" xlink:href="#DejaVuSans-117"/>
      <use x="126.855469" xlink:href="#DejaVuSans-114"/>
      <use x="165.71875" xlink:href="#DejaVuSans-99"/>
      <use x="220.699219" xlink:href="#DejaVuSans-104"/>
      <use x="284.078125" xlink:href="#DejaVuSans-115"/>
      <use x="336.177734" xlink:href="#DejaVuSans-99"/>
      <use x="391.158203" xlink:href="#DejaVuSans-104"/>
      <use x="454.537109" xlink:href="#DejaVuSans-110"/>
      <use x="517.916016" xlink:href="#DejaVuSans-105"/>
      <use x="545.699219" xlink:href="#DejaVuSans-116"/>
      <use x="584.908203" xlink:href="#DejaVuSans-116"/>
      <use x="624.117188" xlink:href="#DejaVuSans-108"/>
      <use x="651.900391" xlink:href="#DejaVuSans-105"/>
      <use x="679.683594" xlink:href="#DejaVuSans-99"/>
      <use x="734.664062" xlink:href="#DejaVuSans-104"/>
      <use x="798.042969" xlink:href="#DejaVuSans-101"/>
      <use x="859.566406" xlink:href="#DejaVuSans-32"/>
      <use x="891.353516" xlink:href="#DejaVuSans-80"/>
      <use x="949.90625" xlink:href="#DejaVuSans-114"/>
      <use x="988.769531" xlink:href="#DejaVuSans-101"/>
      <use x="1050.292969" xlink:href="#DejaVuSans-105"/>
      <use x="1078.076172" xlink:href="#DejaVuSans-115"/>
      <use x="1130.175781" xlink:href="#DejaVuSans-101"/>
      <use x="1191.699219" xlink:href="#DejaVuSans-32"/>
      <use x="1223.486328" xlink:href="#DejaVuSans-40"/>
      <use x="1262.5" xlink:href="#DejaVuSans-8364"/>
      <use x="1326.123047" xlink:href="#DejaVuSans-41"/>
     </g>
    </g>
   </g>
   <g id="line2d_14">
    <path clip-path="url(#p2066d51f58)" d="M 138.436364 66.96 
L 140.095021 81.42403 
L 141.753678 72.309782 
L 143.412336 74.433998 
L 145.070993 77.591546 
L 146.729651 77.505217 
L 148.388308 84.231031 
L 150.046966 77.0291 
L 151.705623 92.926715 
L 153.36428 97.073123 
L 155.022938 95.4538 
L 156.681595 96.785359 
L 158.340253 96.918777 
L 159.99891 107.806694 
L 161.657568 90.935916 
L 163.316225 98.239872 
L 164.974882 92.319796 
L 166.63354 89.444779 
L 168.292197 89.557268 
L 169.950855 86.943854 
L 171.609512 89.452627 
L 174.926827 88.400983 
L 176.585484 85.818961 
L 178.244142 86.988326 
L 179.902799 89.651445 
L 181.561457 86.854909 
L 183.220114 91.765197 
L 184.878771 90.954228 
L 186.537429 91.168743 
L 188.196086 97.096667 
L 189.854744 98.200632 
L 191.513401 96.19152 
L 193.172058 97.643417 
L 194.830716 102.027884 
L 196.489373 101.70088 
L 198.148031 97.073123 
L 199.806688 104.196573 
L 201.465346 98.697677 
L 203.124003 97.381814 
L 204.78266 103.717839 
L 206.441318 96.502828 
L 208.099975 94.666375 
L 209.758633 104.288134 
L 211.41729 107.212855 
L 213.075947 113.457319 
L 214.734605 118.189718 
L 216.393262 104.615137 
L 218.05192 114.42525 
L 219.710577 111.806604 
L 221.369235 102.833621 
L 223.027892 99.273204 
L 224.686549 102.454296 
L 226.345207 105.172352 
L 228.003864 108.34298 
L 229.662522 105.41041 
L 231.321179 105.447035 
L 232.979837 106.830915 
L 234.638494 109.533274 
L 236.297151 115.560607 
L 237.955809 107.730829 
L 239.614466 109.499266 
L 241.273124 99.31506 
L 242.931781 99.597592 
L 244.590438 108.604583 
L 246.249096 99.982148 
L 247.907753 103.830328 
L 249.566411 99.12409 
L 251.225068 97.251013 
L 252.883726 106.394038 
L 254.542383 99.448478 
L 256.20104 99.445862 
L 257.859698 96.829832 
L 259.518355 99.738857 
L 261.177013 98.161391 
L 262.83567 92.665112 
L 264.494327 96.466204 
L 266.152985 96.201985 
L 267.811642 100.834974 
L 269.4703 98.595652 
L 271.128957 108.567959 
L 272.787615 96.976329 
L 274.446272 95.890677 
L 276.104929 103.838176 
L 277.763587 112.860864 
L 279.422244 105.745262 
L 281.080902 106.668721 
L 282.739559 103.076912 
L 284.398216 101.023328 
L 286.056874 99.372613 
L 287.715531 114.778414 
L 289.374189 114.558668 
L 291.032846 100.636156 
L 292.691504 105.365938 
L 294.350161 116.031493 
L 296.008818 112.13884 
L 297.667476 112.253945 
L 299.326133 114.278753 
L 300.984791 123.748782 
L 302.643448 115.738497 
L 304.302106 126.053504 
L 305.960763 123.152327 
L 307.61942 121.909712 
L 309.278078 124.248443 
L 310.936735 143.089092 
L 312.595393 141.20555 
L 314.25405 131.753834 
L 315.912707 128.792488 
L 317.571365 132.776701 
L 319.230022 135.26193 
L 320.88868 122.901188 
L 322.547337 132.229951 
L 324.205995 137.454163 
L 325.864652 140.26378 
L 327.523309 134.503281 
L 329.181967 124.470806 
L 330.840624 123.065998 
L 332.499282 122.137307 
L 334.157939 129.598225 
L 335.816596 126.74152 
L 337.475254 129.328774 
L 339.133911 139.61762 
L 340.792569 143.646307 
L 342.451226 123.296208 
L 344.109884 119.128872 
L 345.768541 116.46837 
L 347.427198 116.52069 
L 349.085856 121.669038 
L 350.744513 126.380508 
L 352.403171 125.723884 
L 354.061828 125.841606 
L 355.720486 133.537966 
L 357.379143 121.478067 
L 359.0378 120.884229 
L 360.696458 126.890634 
L 362.355115 125.538146 
L 364.013773 136.284798 
L 365.67243 118.066764 
L 367.331087 126.56363 
L 368.989745 127.322279 
L 370.648402 126.584558 
L 372.30706 111.717659 
L 373.965717 112.819008 
L 375.624375 112.471076 
L 377.283032 110.681711 
L 378.941689 110.341627 
L 380.600347 118.901278 
L 382.259004 122.770386 
L 383.917662 122.689289 
L 385.576319 132.509866 
L 387.234976 129.072403 
L 388.893634 112.31673 
L 390.552291 108.233107 
L 392.210949 121.135367 
L 393.869606 126.911562 
L 395.528264 113.886348 
L 397.186921 125.208526 
L 398.845578 121.457139 
L 400.504236 122.778234 
L 402.162893 122.343973 
L 403.821551 119.764568 
L 405.480208 113.656137 
L 407.138865 121.137983 
L 408.797523 121.833847 
L 410.45618 137.532644 
L 412.114838 119.513429 
L 413.773495 114.239512 
L 415.432153 119.968618 
L 417.09081 124.68532 
L 418.749467 123.502875 
L 420.408125 121.033342 
L 422.066782 129.53544 
L 423.72544 131.267252 
L 425.384097 124.533591 
L 427.042755 122.022202 
L 428.701412 99.547887 
L 430.360069 120.219757 
L 432.018727 137.223953 
L 433.677384 104.115476 
L 435.336042 126.757216 
L 436.994699 107.586948 
L 438.653356 102.362735 
L 440.312014 123.950216 
L 441.970671 108.960363 
L 443.629329 106.726274 
L 445.287986 118.242038 
L 446.946644 111.170909 
L 448.605301 98.658437 
L 450.263958 107.212855 
L 451.922616 97.925948 
L 453.581273 97.952109 
L 455.239931 92.840386 
L 456.898588 96.905697 
L 458.557245 77.683107 
L 460.215903 67.621856 
L 461.87456 72.403959 
L 463.533218 80.016606 
L 465.191875 83.027657 
L 466.850533 78.208929 
L 468.50919 89.606973 
L 470.167847 76.427413 
L 471.826505 85.826809 
L 473.485162 79.715763 
L 475.14382 79.286734 
L 476.802477 80.131712 
L 478.461135 80.278209 
L 480.119792 74.42615 
L 481.778449 85.973307 
L 483.437107 75.922519 
L 485.095764 90.512119 
L 486.754422 94.446628 
L 488.413079 96.060719 
L 490.071736 99.12409 
L 491.730394 119.688703 
L 493.389051 107.665428 
L 495.047709 104.67269 
L 496.706366 112.410907 
L 498.365024 124.648696 
L 500.023681 129.946157 
L 501.682338 125.310551 
L 503.340996 116.049805 
L 504.999653 110.0434 
L 506.658311 111.717659 
L 508.316968 112.892257 
L 509.975625 118.961446 
L 511.634283 109.57513 
L 513.29294 113.441623 
L 514.951598 103.579189 
L 516.610255 112.136224 
L 518.268913 100.358856 
L 519.92757 110.948546 
L 521.586227 102.433368 
L 523.244885 102.715899 
L 524.903542 102.817925 
L 526.5622 119.395707 
L 528.220857 116.866006 
L 529.879514 105.16712 
L 533.196829 112.675126 
L 534.855487 102.22147 
L 538.172802 140.98842 
L 539.831459 134.335855 
L 541.490116 125.820677 
L 543.148774 159.428816 
L 544.807431 163.912692 
L 546.466089 147.892123 
L 548.124746 117.491238 
L 549.783404 106.862307 
L 551.442061 112.130992 
L 553.100718 102.987967 
L 554.759376 119.845665 
L 556.418033 114.265672 
L 558.076691 127.387679 
L 559.735348 118.106005 
L 561.394005 106.006865 
L 563.052663 105.828975 
L 564.71132 137.938129 
L 566.369978 106.786442 
L 568.028635 110.362555 
L 569.687293 126.126753 
L 571.34595 116.3428 
L 573.004607 125.069877 
L 574.663265 126.851393 
L 576.321922 122.545408 
L 577.98058 119.625918 
L 579.639237 125.200678 
L 581.297894 115.746345 
L 582.956552 113.185252 
L 584.615209 125.804981 
L 586.273867 107.498003 
L 587.932524 104.086699 
L 589.591182 110.417492 
L 591.249839 118.24727 
L 592.908496 135.892393 
L 594.567154 128.844808 
L 596.225811 141.969431 
L 597.884469 130.712654 
L 599.543126 120.319166 
L 601.201784 116.3428 
L 602.860441 118.859421 
L 604.519098 119.144569 
L 606.177756 122.621273 
L 607.836413 122.166083 
L 609.495071 121.182456 
L 611.153728 124.34262 
L 612.812385 131.050122 
L 614.471043 134.191974 
L 616.1297 131.348349 
L 617.788358 132.695604 
L 619.447015 131.429446 
L 621.105673 130.322865 
L 622.76433 127.374599 
L 624.422987 132.656364 
L 626.081645 132.575267 
L 627.740302 132.062525 
L 629.39896 120.986254 
L 631.057617 127.869029 
L 632.716274 124.237979 
L 634.374932 127.685907 
L 636.033589 131.994508 
L 637.692247 126.657807 
L 639.350904 125.080341 
L 641.009562 124.334772 
L 642.668219 124.128106 
L 644.326876 123.178487 
L 645.985534 130.916704 
L 647.644191 131.337885 
L 649.302849 129.990629 
L 650.961506 126.72844 
L 652.620163 133.315604 
L 654.278821 138.223276 
L 655.937478 133.825729 
L 657.596136 134.71518 
L 659.254793 369.36 
L 660.913451 140.84977 
L 662.572108 135.086656 
L 664.230765 152.404775 
L 665.889423 137.645133 
L 667.54808 127.212405 
L 669.206738 126.820001 
L 670.865395 145.004026 
L 672.524053 138.189268 
L 674.18271 140.106818 
L 675.841367 133.328684 
L 677.500025 136.549017 
L 679.158682 136.868172 
L 680.81734 130.254848 
L 682.475997 130.116199 
L 684.134654 129.009618 
L 685.793312 133.208346 
L 687.451969 147.546807 
L 689.110627 153.103255 
L 690.769284 167.023152 
L 692.427942 141.558714 
L 695.745256 138.089859 
L 697.403914 137.705302 
L 699.062571 142.058376 
L 700.721229 147.141323 
L 702.379886 136.34235 
L 704.038543 132.65898 
L 705.697201 135.764208 
L 707.355858 124.562367 
L 709.014516 145.752211 
L 710.673173 171.237576 
L 712.331831 133.626911 
L 713.990488 134.453577 
L 715.649145 121.621949 
L 717.307803 130.139743 
L 718.96646 123.772326 
L 720.625118 121.72659 
L 722.283775 129.930461 
L 723.942432 140.415509 
L 725.60109 133.694928 
L 727.259747 132.091302 
L 728.918405 137.823023 
L 730.577062 125.3184 
L 732.23572 120.384567 
L 733.894377 134.490201 
L 735.553034 124.706249 
L 737.211692 123.759246 
L 738.870349 121.109207 
L 740.529007 128.504724 
L 742.187664 134.997711 
L 743.846322 137.802095 
L 745.504979 138.579056 
L 745.504979 138.579056 
" style="fill:none;stroke:#0000ff;stroke-linecap:square;stroke-width:1.5;"/>
   </g>
   <g id="line2d_15">
    <path clip-path="url(#p2066d51f58)" d="M 237.955809 212.223578 
L 239.614466 211.238655 
L 242.931781 211.135856 
L 244.590438 210.237386 
L 246.249096 208.542156 
L 247.907753 205.876428 
L 249.566411 202.467131 
L 251.225068 198.312135 
L 257.859698 178.482694 
L 259.518355 174.205751 
L 261.177013 170.364239 
L 262.83567 167.146166 
L 264.494327 164.294403 
L 266.152985 161.859391 
L 267.811642 159.897743 
L 269.4703 158.663579 
L 271.128957 158.294207 
L 272.787615 159.213175 
L 274.446272 161.237405 
L 276.104929 163.96312 
L 277.763587 167.355604 
L 279.422244 171.818946 
L 281.080902 177.412874 
L 286.056874 197.475106 
L 287.715531 203.116308 
L 291.032846 212.897924 
L 292.691504 217.155823 
L 294.350161 220.601238 
L 297.667476 226.508234 
L 300.984791 232.235993 
L 302.643448 235.578142 
L 304.302106 239.26164 
L 307.61942 247.396234 
L 309.278078 251.156534 
L 310.936735 254.55483 
L 312.595393 257.66699 
L 314.25405 260.447556 
L 315.912707 262.749205 
L 317.571365 264.350665 
L 319.230022 265.340881 
L 320.88868 265.862195 
L 322.547337 265.923584 
L 324.205995 265.674395 
L 330.840624 263.960484 
L 332.499282 263.391169 
L 335.816596 261.772947 
L 339.133911 260.040147 
L 340.792569 259.397352 
L 342.451226 259.045208 
L 345.768541 258.568937 
L 347.427198 258.041344 
L 349.085856 257.079617 
L 354.061828 253.088395 
L 355.720486 252.060193 
L 357.379143 251.470485 
L 359.0378 251.196751 
L 360.696458 251.076152 
L 364.013773 251.156586 
L 370.648402 252.082144 
L 372.30706 252.28603 
L 373.965717 252.209281 
L 375.624375 251.615732 
L 377.283032 250.376276 
L 378.941689 248.284222 
L 380.600347 245.212279 
L 383.917662 237.540567 
L 385.576319 234.309469 
L 387.234976 232.387053 
L 388.893634 232.083896 
L 395.528264 234.420779 
L 398.845578 235.171407 
L 400.504236 235.672067 
L 402.162893 236.346153 
L 407.138865 238.796578 
L 408.797523 239.236836 
L 410.45618 239.520014 
L 412.114838 239.99011 
L 415.432153 241.097915 
L 422.066782 242.212051 
L 423.72544 242.734091 
L 425.384097 243.534951 
L 428.701412 245.574074 
L 430.360069 246.032546 
L 432.018727 245.829334 
L 433.677384 245.318347 
L 435.336042 244.168146 
L 436.994699 242.684638 
L 438.653356 240.616766 
L 440.312014 237.457591 
L 441.970671 233.601913 
L 443.629329 229.088235 
L 446.946644 218.69662 
L 450.263958 208.907117 
L 451.922616 203.633004 
L 453.581273 197.566126 
L 455.239931 190.408879 
L 456.898588 181.873414 
L 458.557245 172.29802 
L 465.191875 131.24831 
L 466.850533 122.436931 
L 468.50919 115.017574 
L 470.167847 109.413891 
L 471.826505 105.757169 
L 473.485162 104.202308 
L 475.14382 104.70738 
L 476.802477 107.156818 
L 478.461135 111.37943 
L 480.119792 117.154463 
L 481.778449 124.201231 
L 483.437107 132.376924 
L 486.754422 150.587572 
L 495.047709 197.737839 
L 496.706366 206.400285 
L 498.365024 214.114133 
L 500.023681 220.924996 
L 501.682338 226.737807 
L 503.340996 231.708712 
L 504.999653 235.658005 
L 506.658311 238.305569 
L 508.316968 239.622243 
L 509.975625 239.839932 
L 511.634283 239.475853 
L 513.29294 238.622063 
L 514.951598 237.597182 
L 518.268913 235.154334 
L 521.586227 232.326494 
L 523.244885 230.575272 
L 524.903542 227.782303 
L 526.5622 223.533434 
L 528.220857 218.78572 
L 529.879514 214.977368 
L 531.538172 211.868269 
L 533.196829 209.384374 
L 534.855487 208.374335 
L 536.514144 207.014175 
L 538.172802 206.91122 
L 539.831459 208.682889 
L 541.490116 211.796554 
L 543.148774 217.540088 
L 544.807431 224.619392 
L 546.466089 231.04791 
L 548.124746 236.017154 
L 549.783404 239.125163 
L 551.442061 239.892759 
L 553.100718 238.349159 
L 554.759376 234.204075 
L 556.418033 228.346948 
L 558.076691 221.709614 
L 559.735348 215.679268 
L 561.394005 211.093252 
L 563.052663 207.671085 
L 564.71132 204.817662 
L 566.369978 203.239709 
L 568.028635 202.471853 
L 568.028635 202.471853 
" style="fill:none;stroke:#008000;stroke-linecap:square;stroke-width:1.5;"/>
   </g>
   <g id="line2d_16">
    <path clip-path="url(#p2066d51f58)" d="M 571.34595 177.516193 
L 573.004607 176.866081 
L 574.663265 176.355042 
L 576.321922 176.00897 
L 577.98058 175.86943 
L 579.639237 175.927706 
L 581.297894 176.133927 
L 586.273867 177.217654 
L 589.591182 177.867195 
L 591.249839 178.029308 
L 597.884469 178.192147 
L 599.543126 178.496913 
L 602.860441 179.619922 
L 606.177756 180.713664 
L 607.836413 181.086721 
L 611.153728 181.49138 
L 614.471043 181.532738 
L 621.105673 181.498074 
L 626.081645 181.634811 
L 632.716274 181.464603 
L 636.033589 181.099642 
L 639.350904 180.594467 
L 650.961506 179.433524 
L 654.278821 179.275095 
L 655.937478 179.280596 
L 659.254793 179.621116 
L 660.913451 179.925207 
L 662.572108 181.23394 
L 665.889423 184.787292 
L 667.54808 186.320254 
L 669.206738 187.324793 
L 670.865395 187.786274 
L 672.524053 187.739934 
L 674.18271 187.252143 
L 675.841367 186.501359 
L 679.158682 184.636492 
L 685.793312 180.841268 
L 689.110627 179.223618 
L 690.769284 178.561778 
L 692.427942 178.221051 
L 694.086599 178.445694 
L 695.745256 179.146609 
L 700.721229 181.770459 
L 702.379886 182.353681 
L 704.038543 182.772922 
L 705.697201 183.015105 
L 707.355858 183.067776 
L 709.014516 182.956674 
L 713.990488 182.095982 
L 720.625118 181.942276 
L 722.283775 181.684473 
L 725.60109 180.809199 
L 728.918405 179.972533 
L 732.23572 179.506225 
L 737.211692 179.358435 
L 742.187664 179.311161 
L 745.504979 179.226939 
L 747.163636 179.293725 
L 747.163636 179.293725 
" style="fill:none;stroke:#ff0000;stroke-linecap:square;stroke-width:1.5;"/>
   </g>
   <g id="patch_3">
    <path d="M 108 384.48 
L 108 51.84 
" style="fill:none;stroke:#000000;stroke-linecap:square;stroke-linejoin:miter;stroke-width:0.8;"/>
   </g>
   <g id="patch_4">
    <path d="M 777.6 384.48 
L 777.6 51.84 
" style="fill:none;stroke:#000000;stroke-linecap:square;stroke-linejoin:miter;stroke-width:0.8;"/>
   </g>
   <g id="patch_5">
    <path d="M 108 384.48 
L 777.6 384.48 
" style="fill:none;stroke:#000000;stroke-linecap:square;stroke-linejoin:miter;stroke-width:0.8;"/>
   </g>
   <g id="patch_6">
    <path d="M 108 51.84 
L 777.6 51.84 
" style="fill:none;stroke:#000000;stroke-linecap:square;stroke-linejoin:miter;stroke-width:0.8;"/>
   </g>
   <g id="text_16">
    <!-- Vorhersage von durchschnitlicher Preisentwicklung(Alle Produkte) -->
    <g transform="translate(245.462813 45.84)scale(0.12 -0.12)">
     <defs>
      <path d="M 28.609375 0 
L 0.78125 72.90625 
L 11.078125 72.90625 
L 34.1875 11.53125 
L 57.328125 72.90625 
L 67.578125 72.90625 
L 39.796875 0 
z
" id="DejaVuSans-86"/>
      <path d="M 30.609375 48.390625 
Q 23.390625 48.390625 19.1875 42.75 
Q 14.984375 37.109375 14.984375 27.296875 
Q 14.984375 17.484375 19.15625 11.84375 
Q 23.34375 6.203125 30.609375 6.203125 
Q 37.796875 6.203125 41.984375 11.859375 
Q 46.1875 17.53125 46.1875 27.296875 
Q 46.1875 37.015625 41.984375 42.703125 
Q 37.796875 48.390625 30.609375 48.390625 
z
M 30.609375 56 
Q 42.328125 56 49.015625 48.375 
Q 55.71875 40.765625 55.71875 27.296875 
Q 55.71875 13.875 49.015625 6.21875 
Q 42.328125 -1.421875 30.609375 -1.421875 
Q 18.84375 -1.421875 12.171875 6.21875 
Q 5.515625 13.875 5.515625 27.296875 
Q 5.515625 40.765625 12.171875 48.375 
Q 18.84375 56 30.609375 56 
z
" id="DejaVuSans-111"/>
      <path d="M 34.28125 27.484375 
Q 23.390625 27.484375 19.1875 25 
Q 14.984375 22.515625 14.984375 16.5 
Q 14.984375 11.71875 18.140625 8.90625 
Q 21.296875 6.109375 26.703125 6.109375 
Q 34.1875 6.109375 38.703125 11.40625 
Q 43.21875 16.703125 43.21875 25.484375 
L 43.21875 27.484375 
z
M 52.203125 31.203125 
L 52.203125 0 
L 43.21875 0 
L 43.21875 8.296875 
Q 40.140625 3.328125 35.546875 0.953125 
Q 30.953125 -1.421875 24.3125 -1.421875 
Q 15.921875 -1.421875 10.953125 3.296875 
Q 6 8.015625 6 15.921875 
Q 6 25.140625 12.171875 29.828125 
Q 18.359375 34.515625 30.609375 34.515625 
L 43.21875 34.515625 
L 43.21875 35.40625 
Q 43.21875 41.609375 39.140625 45 
Q 35.0625 48.390625 27.6875 48.390625 
Q 23 48.390625 18.546875 47.265625 
Q 14.109375 46.140625 10.015625 43.890625 
L 10.015625 52.203125 
Q 14.9375 54.109375 19.578125 55.046875 
Q 24.21875 56 28.609375 56 
Q 40.484375 56 46.34375 49.84375 
Q 52.203125 43.703125 52.203125 31.203125 
z
" id="DejaVuSans-97"/>
      <path d="M 45.40625 27.984375 
Q 45.40625 37.75 41.375 43.109375 
Q 37.359375 48.484375 30.078125 48.484375 
Q 22.859375 48.484375 18.828125 43.109375 
Q 14.796875 37.75 14.796875 27.984375 
Q 14.796875 18.265625 18.828125 12.890625 
Q 22.859375 7.515625 30.078125 7.515625 
Q 37.359375 7.515625 41.375 12.890625 
Q 45.40625 18.265625 45.40625 27.984375 
z
M 54.390625 6.78125 
Q 54.390625 -7.171875 48.1875 -13.984375 
Q 42 -20.796875 29.203125 -20.796875 
Q 24.46875 -20.796875 20.265625 -20.09375 
Q 16.0625 -19.390625 12.109375 -17.921875 
L 12.109375 -9.1875 
Q 16.0625 -11.328125 19.921875 -12.34375 
Q 23.78125 -13.375 27.78125 -13.375 
Q 36.625 -13.375 41.015625 -8.765625 
Q 45.40625 -4.15625 45.40625 5.171875 
L 45.40625 9.625 
Q 42.625 4.78125 38.28125 2.390625 
Q 33.9375 0 27.875 0 
Q 17.828125 0 11.671875 7.65625 
Q 5.515625 15.328125 5.515625 27.984375 
Q 5.515625 40.671875 11.671875 48.328125 
Q 17.828125 56 27.875 56 
Q 33.9375 56 38.28125 53.609375 
Q 42.625 51.21875 45.40625 46.390625 
L 45.40625 54.6875 
L 54.390625 54.6875 
z
" id="DejaVuSans-103"/>
      <path d="M 2.984375 54.6875 
L 12.5 54.6875 
L 29.59375 8.796875 
L 46.6875 54.6875 
L 56.203125 54.6875 
L 35.6875 0 
L 23.484375 0 
z
" id="DejaVuSans-118"/>
      <path d="M 4.203125 54.6875 
L 13.1875 54.6875 
L 24.421875 12.015625 
L 35.59375 54.6875 
L 46.1875 54.6875 
L 57.421875 12.015625 
L 68.609375 54.6875 
L 77.59375 54.6875 
L 63.28125 0 
L 52.6875 0 
L 40.921875 44.828125 
L 29.109375 0 
L 18.5 0 
z
" id="DejaVuSans-119"/>
      <path d="M 9.078125 75.984375 
L 18.109375 75.984375 
L 18.109375 31.109375 
L 44.921875 54.6875 
L 56.390625 54.6875 
L 27.390625 29.109375 
L 57.625 0 
L 45.90625 0 
L 18.109375 26.703125 
L 18.109375 0 
L 9.078125 0 
z
" id="DejaVuSans-107"/>
      <path d="M 34.1875 63.1875 
L 20.796875 26.90625 
L 47.609375 26.90625 
z
M 28.609375 72.90625 
L 39.796875 72.90625 
L 67.578125 0 
L 57.328125 0 
L 50.6875 18.703125 
L 17.828125 18.703125 
L 11.1875 0 
L 0.78125 0 
z
" id="DejaVuSans-65"/>
     </defs>
     <use xlink:href="#DejaVuSans-86"/>
     <use x="60.658203" xlink:href="#DejaVuSans-111"/>
     <use x="121.839844" xlink:href="#DejaVuSans-114"/>
     <use x="161.203125" xlink:href="#DejaVuSans-104"/>
     <use x="224.582031" xlink:href="#DejaVuSans-101"/>
     <use x="286.105469" xlink:href="#DejaVuSans-114"/>
     <use x="327.21875" xlink:href="#DejaVuSans-115"/>
     <use x="379.318359" xlink:href="#DejaVuSans-97"/>
     <use x="440.597656" xlink:href="#DejaVuSans-103"/>
     <use x="504.074219" xlink:href="#DejaVuSans-101"/>
     <use x="565.597656" xlink:href="#DejaVuSans-32"/>
     <use x="597.384766" xlink:href="#DejaVuSans-118"/>
     <use x="656.564453" xlink:href="#DejaVuSans-111"/>
     <use x="717.746094" xlink:href="#DejaVuSans-110"/>
     <use x="781.125" xlink:href="#DejaVuSans-32"/>
     <use x="812.912109" xlink:href="#DejaVuSans-100"/>
     <use x="876.388672" xlink:href="#DejaVuSans-117"/>
     <use x="939.767578" xlink:href="#DejaVuSans-114"/>
     <use x="978.630859" xlink:href="#DejaVuSans-99"/>
     <use x="1033.611328" xlink:href="#DejaVuSans-104"/>
     <use x="1096.990234" xlink:href="#DejaVuSans-115"/>
     <use x="1149.089844" xlink:href="#DejaVuSans-99"/>
     <use x="1204.070312" xlink:href="#DejaVuSans-104"/>
     <use x="1267.449219" xlink:href="#DejaVuSans-110"/>
     <use x="1330.828125" xlink:href="#DejaVuSans-105"/>
     <use x="1358.611328" xlink:href="#DejaVuSans-116"/>
     <use x="1397.820312" xlink:href="#DejaVuSans-108"/>
     <use x="1425.603516" xlink:href="#DejaVuSans-105"/>
     <use x="1453.386719" xlink:href="#DejaVuSans-99"/>
     <use x="1508.367188" xlink:href="#DejaVuSans-104"/>
     <use x="1571.746094" xlink:href="#DejaVuSans-101"/>
     <use x="1633.269531" xlink:href="#DejaVuSans-114"/>
     <use x="1674.382812" xlink:href="#DejaVuSans-32"/>
     <use x="1706.169922" xlink:href="#DejaVuSans-80"/>
     <use x="1764.722656" xlink:href="#DejaVuSans-114"/>
     <use x="1803.585938" xlink:href="#DejaVuSans-101"/>
     <use x="1865.109375" xlink:href="#DejaVuSans-105"/>
     <use x="1892.892578" xlink:href="#DejaVuSans-115"/>
     <use x="1944.992188" xlink:href="#DejaVuSans-101"/>
     <use x="2006.515625" xlink:href="#DejaVuSans-110"/>
     <use x="2069.894531" xlink:href="#DejaVuSans-116"/>
     <use x="2109.103516" xlink:href="#DejaVuSans-119"/>
     <use x="2190.890625" xlink:href="#DejaVuSans-105"/>
     <use x="2218.673828" xlink:href="#DejaVuSans-99"/>
     <use x="2273.654297" xlink:href="#DejaVuSans-107"/>
     <use x="2331.564453" xlink:href="#DejaVuSans-108"/>
     <use x="2359.347656" xlink:href="#DejaVuSans-117"/>
     <use x="2422.726562" xlink:href="#DejaVuSans-110"/>
     <use x="2486.105469" xlink:href="#DejaVuSans-103"/>
     <use x="2549.582031" xlink:href="#DejaVuSans-40"/>
     <use x="2588.595703" xlink:href="#DejaVuSans-65"/>
     <use x="2657.003906" xlink:href="#DejaVuSans-108"/>
     <use x="2684.787109" xlink:href="#DejaVuSans-108"/>
     <use x="2712.570312" xlink:href="#DejaVuSans-101"/>
     <use x="2774.09375" xlink:href="#DejaVuSans-32"/>
     <use x="2805.880859" xlink:href="#DejaVuSans-80"/>
     <use x="2864.433594" xlink:href="#DejaVuSans-114"/>
     <use x="2903.296875" xlink:href="#DejaVuSans-111"/>
     <use x="2964.478516" xlink:href="#DejaVuSans-100"/>
     <use x="3027.955078" xlink:href="#DejaVuSans-117"/>
     <use x="3091.333984" xlink:href="#DejaVuSans-107"/>
     <use x="3149.244141" xlink:href="#DejaVuSans-116"/>
     <use x="3188.453125" xlink:href="#DejaVuSans-101"/>
     <use x="3249.976562" xlink:href="#DejaVuSans-41"/>
    </g>
   </g>
   <g id="legend_1">
    <g id="patch_7">
     <path d="M 673.154688 104.430625 
L 770.6 104.430625 
Q 772.6 104.430625 772.6 102.430625 
L 772.6 58.84 
Q 772.6 56.84 770.6 56.84 
L 673.154688 56.84 
Q 671.154688 56.84 671.154688 58.84 
L 671.154688 102.430625 
Q 671.154688 104.430625 673.154688 104.430625 
z
" style="fill:#ffffff;opacity:0.8;stroke:#cccccc;stroke-linejoin:miter;"/>
    </g>
    <g id="line2d_17">
     <path d="M 675.154688 64.938437 
L 695.154688 64.938437 
" style="fill:none;stroke:#0000ff;stroke-linecap:square;stroke-width:1.5;"/>
    </g>
    <g id="line2d_18"/>
    <g id="text_17">
     <!-- original price -->
     <g transform="translate(703.154688 68.438437)scale(0.1 -0.1)">
      <defs>
       <path d="M 18.109375 8.203125 
L 18.109375 -20.796875 
L 9.078125 -20.796875 
L 9.078125 54.6875 
L 18.109375 54.6875 
L 18.109375 46.390625 
Q 20.953125 51.265625 25.265625 53.625 
Q 29.59375 56 35.59375 56 
Q 45.5625 56 51.78125 48.09375 
Q 58.015625 40.1875 58.015625 27.296875 
Q 58.015625 14.40625 51.78125 6.484375 
Q 45.5625 -1.421875 35.59375 -1.421875 
Q 29.59375 -1.421875 25.265625 0.953125 
Q 20.953125 3.328125 18.109375 8.203125 
z
M 48.6875 27.296875 
Q 48.6875 37.203125 44.609375 42.84375 
Q 40.53125 48.484375 33.40625 48.484375 
Q 26.265625 48.484375 22.1875 42.84375 
Q 18.109375 37.203125 18.109375 27.296875 
Q 18.109375 17.390625 22.1875 11.75 
Q 26.265625 6.109375 33.40625 6.109375 
Q 40.53125 6.109375 44.609375 11.75 
Q 48.6875 17.390625 48.6875 27.296875 
z
" id="DejaVuSans-112"/>
      </defs>
      <use xlink:href="#DejaVuSans-111"/>
      <use x="61.181641" xlink:href="#DejaVuSans-114"/>
      <use x="102.294922" xlink:href="#DejaVuSans-105"/>
      <use x="130.078125" xlink:href="#DejaVuSans-103"/>
      <use x="193.554688" xlink:href="#DejaVuSans-105"/>
      <use x="221.337891" xlink:href="#DejaVuSans-110"/>
      <use x="284.716797" xlink:href="#DejaVuSans-97"/>
      <use x="345.996094" xlink:href="#DejaVuSans-108"/>
      <use x="373.779297" xlink:href="#DejaVuSans-32"/>
      <use x="405.566406" xlink:href="#DejaVuSans-112"/>
      <use x="469.042969" xlink:href="#DejaVuSans-114"/>
      <use x="510.15625" xlink:href="#DejaVuSans-105"/>
      <use x="537.939453" xlink:href="#DejaVuSans-99"/>
      <use x="592.919922" xlink:href="#DejaVuSans-101"/>
     </g>
    </g>
    <g id="line2d_19">
     <path d="M 675.154688 79.616562 
L 695.154688 79.616562 
" style="fill:none;stroke:#008000;stroke-linecap:square;stroke-width:1.5;"/>
    </g>
    <g id="line2d_20"/>
    <g id="text_18">
     <!-- train_predict -->
     <g transform="translate(703.154688 83.116562)scale(0.1 -0.1)">
      <defs>
       <path d="M 50.984375 -16.609375 
L 50.984375 -23.578125 
L -0.984375 -23.578125 
L -0.984375 -16.609375 
z
" id="DejaVuSans-95"/>
      </defs>
      <use xlink:href="#DejaVuSans-116"/>
      <use x="39.208984" xlink:href="#DejaVuSans-114"/>
      <use x="80.322266" xlink:href="#DejaVuSans-97"/>
      <use x="141.601562" xlink:href="#DejaVuSans-105"/>
      <use x="169.384766" xlink:href="#DejaVuSans-110"/>
      <use x="232.763672" xlink:href="#DejaVuSans-95"/>
      <use x="282.763672" xlink:href="#DejaVuSans-112"/>
      <use x="346.240234" xlink:href="#DejaVuSans-114"/>
      <use x="385.103516" xlink:href="#DejaVuSans-101"/>
      <use x="446.626953" xlink:href="#DejaVuSans-100"/>
      <use x="510.103516" xlink:href="#DejaVuSans-105"/>
      <use x="537.886719" xlink:href="#DejaVuSans-99"/>
      <use x="592.867188" xlink:href="#DejaVuSans-116"/>
     </g>
    </g>
    <g id="line2d_21">
     <path d="M 675.154688 94.572812 
L 695.154688 94.572812 
" style="fill:none;stroke:#ff0000;stroke-linecap:square;stroke-width:1.5;"/>
    </g>
    <g id="line2d_22"/>
    <g id="text_19">
     <!-- test_predict -->
     <g transform="translate(703.154688 98.072812)scale(0.1 -0.1)">
      <use xlink:href="#DejaVuSans-116"/>
      <use x="39.208984" xlink:href="#DejaVuSans-101"/>
      <use x="100.732422" xlink:href="#DejaVuSans-115"/>
      <use x="152.832031" xlink:href="#DejaVuSans-116"/>
      <use x="192.041016" xlink:href="#DejaVuSans-95"/>
      <use x="242.041016" xlink:href="#DejaVuSans-112"/>
      <use x="305.517578" xlink:href="#DejaVuSans-114"/>
      <use x="344.380859" xlink:href="#DejaVuSans-101"/>
      <use x="405.904297" xlink:href="#DejaVuSans-100"/>
      <use x="469.380859" xlink:href="#DejaVuSans-105"/>
      <use x="497.164062" xlink:href="#DejaVuSans-99"/>
      <use x="552.144531" xlink:href="#DejaVuSans-116"/>
     </g>
    </g>
   </g>
  </g>
 </g>
 <defs>
  <clipPath id="p2066d51f58">
   <rect height="332.64" width="669.6" x="108" y="51.84"/>
  </clipPath>
 </defs>
</svg>
