<?xml version="1.0" encoding="utf-8" standalone="no"?>
<!DOCTYPE svg PUBLIC "-//W3C//DTD SVG 1.1//EN"
  "http://www.w3.org/Graphics/SVG/1.1/DTD/svg11.dtd">
<!-- Created with matplotlib (https://matplotlib.org/) -->
<svg height="432pt" version="1.1" viewBox="0 0 720 432" width="720pt" xmlns="http://www.w3.org/2000/svg" xmlns:xlink="http://www.w3.org/1999/xlink">
 <metadata>
  <rdf:RDF xmlns:cc="http://creativecommons.org/ns#" xmlns:dc="http://purl.org/dc/elements/1.1/" xmlns:rdf="http://www.w3.org/1999/02/22-rdf-syntax-ns#">
   <cc:Work>
    <dc:type rdf:resource="http://purl.org/dc/dcmitype/StillImage"/>
    <dc:date>2021-02-17T13:13:30.412703</dc:date>
    <dc:format>image/svg+xml</dc:format>
    <dc:creator>
     <cc:Agent>
      <dc:title>Matplotlib v3.3.2, https://matplotlib.org/</dc:title>
     </cc:Agent>
    </dc:creator>
   </cc:Work>
  </rdf:RDF>
 </metadata>
 <defs>
  <style type="text/css">*{stroke-linecap:butt;stroke-linejoin:round;}</style>
 </defs>
 <g id="figure_1">
  <g id="patch_1">
   <path d="M 0 432 
L 720 432 
L 720 0 
L 0 0 
z
" style="fill:#ffffff;"/>
  </g>
  <g id="axes_1">
   <g id="patch_2">
    <path d="M 90 384.48 
L 648 384.48 
L 648 51.84 
L 90 51.84 
z
" style="fill:#ffffff;"/>
   </g>
   <g id="PolyCollection_1">
    <defs>
     <path d="M 115.363636 -153.741563 
L 115.363636 -153.741563 
L 116.757243 -153.741563 
L 118.150849 -153.741563 
L 119.544456 -153.741563 
L 120.938062 -153.741563 
L 122.331668 -153.741563 
L 123.725275 -153.741563 
L 125.118881 -153.741563 
L 126.512488 -153.741563 
L 127.906094 -153.741563 
L 129.2997 -153.741563 
L 130.693307 -153.741563 
L 132.086913 -153.741563 
L 133.480519 -153.741563 
L 134.874126 -153.741563 
L 136.267732 -153.741563 
L 137.661339 -153.741563 
L 139.054945 -153.741563 
L 140.448551 -153.741563 
L 141.842158 -153.741563 
L 143.235764 -153.741563 
L 144.629371 -153.741563 
L 146.022977 -153.741563 
L 147.416583 -153.741563 
L 148.81019 -153.741563 
L 150.203796 -153.741563 
L 151.597403 -153.741563 
L 152.991009 -153.741563 
L 154.384615 -153.741563 
L 155.778222 -153.741563 
L 157.171828 -153.741563 
L 158.565435 -153.741563 
L 159.959041 -153.741563 
L 161.352647 -153.741563 
L 162.746254 -153.741563 
L 164.13986 -153.741563 
L 165.533467 -153.741563 
L 166.927073 -153.741563 
L 168.320679 -153.741563 
L 169.714286 -153.741563 
L 171.107892 -153.741563 
L 172.501499 -153.741563 
L 173.895105 -153.741563 
L 175.288711 -153.741563 
L 176.682318 -153.741563 
L 178.075924 -153.741563 
L 179.46953 -153.741563 
L 180.863137 -153.741563 
L 182.256743 -153.741563 
L 183.65035 -153.741563 
L 185.043956 -153.741563 
L 186.437562 -153.741563 
L 187.831169 -153.741563 
L 189.224775 -153.741563 
L 190.618382 -153.741563 
L 192.011988 -153.741563 
L 193.405594 -153.741563 
L 194.799201 -153.741563 
L 196.192807 -153.741563 
L 197.586414 -153.741563 
L 198.98002 -153.741563 
L 200.373626 -153.741563 
L 201.767233 -153.741563 
L 203.160839 -153.741563 
L 204.554446 -153.741563 
L 205.948052 -153.741563 
L 207.341658 -153.741563 
L 208.735265 -153.741563 
L 210.128871 -153.741563 
L 211.522478 -153.741563 
L 212.916084 -153.741563 
L 214.30969 -153.741563 
L 215.703297 -153.741563 
L 217.096903 -153.741563 
L 218.490509 -153.741563 
L 219.884116 -153.741563 
L 221.277722 -153.741563 
L 222.671329 -153.741563 
L 224.064935 -153.741563 
L 225.458541 -153.741563 
L 226.852148 -153.741563 
L 228.245754 -311.474534 
L 229.639361 -347.805383 
L 231.032967 -365.04 
L 232.426573 -305.440442 
L 233.82018 -62.64 
L 235.213786 -63.714747 
L 236.607393 -72.796242 
L 238.000999 -153.741563 
L 239.394605 -153.741563 
L 240.788212 -153.741563 
L 242.181818 -153.741563 
L 243.575425 -153.741563 
L 244.969031 -153.741563 
L 246.362637 -153.741563 
L 247.756244 -153.741563 
L 249.14985 -153.741563 
L 250.543457 -153.741563 
L 251.937063 -153.741563 
L 253.330669 -153.741563 
L 254.724276 -153.741563 
L 256.117882 -153.741563 
L 257.511489 -153.741563 
L 258.905095 -153.741563 
L 260.298701 -153.741563 
L 261.692308 -153.741563 
L 263.085914 -153.741563 
L 264.47952 -153.741563 
L 265.873127 -153.741563 
L 267.266733 -153.741563 
L 268.66034 -153.741563 
L 270.053946 -153.741563 
L 271.447552 -153.741563 
L 272.841159 -153.741563 
L 274.234765 -153.741563 
L 275.628372 -153.741563 
L 277.021978 -153.741563 
L 278.415584 -153.741563 
L 279.809191 -153.741563 
L 281.202797 -153.741563 
L 282.596404 -153.741563 
L 283.99001 -153.741563 
L 285.383616 -153.741563 
L 286.777223 -153.741563 
L 288.170829 -153.741563 
L 289.564436 -153.741563 
L 290.958042 -153.741563 
L 292.351648 -153.741563 
L 293.745255 -153.741563 
L 295.138861 -153.741563 
L 296.532468 -153.741563 
L 297.926074 -153.741563 
L 299.31968 -153.741563 
L 300.713287 -153.741563 
L 302.106893 -153.741563 
L 303.5005 -153.741563 
L 304.894106 -153.741563 
L 306.287712 -153.741563 
L 307.681319 -153.741563 
L 309.074925 -153.741563 
L 310.468531 -153.741563 
L 311.862138 -153.741563 
L 313.255744 -153.741563 
L 314.649351 -153.741563 
L 316.042957 -153.741563 
L 317.436563 -153.741563 
L 318.83017 -153.741563 
L 320.223776 -153.741563 
L 321.617383 -153.741563 
L 323.010989 -153.741563 
L 324.404595 -153.741563 
L 325.798202 -153.741563 
L 327.191808 -153.741563 
L 328.585415 -153.741563 
L 329.979021 -153.741563 
L 331.372627 -153.741563 
L 332.766234 -153.741563 
L 334.15984 -153.741563 
L 335.553447 -153.741563 
L 336.947053 -153.741563 
L 338.340659 -153.741563 
L 339.734266 -153.741563 
L 341.127872 -153.741563 
L 342.521479 -153.741563 
L 343.915085 -153.741563 
L 345.308691 -153.741563 
L 346.702298 -153.741563 
L 348.095904 -153.741563 
L 349.48951 -153.741563 
L 350.883117 -153.741563 
L 352.276723 -153.741563 
L 353.67033 -153.741563 
L 355.063936 -153.741563 
L 356.457542 -153.741563 
L 357.851149 -153.741563 
L 359.244755 -153.741563 
L 360.638362 -153.741563 
L 362.031968 -153.741563 
L 363.425574 -153.741563 
L 364.819181 -153.741563 
L 366.212787 -153.741563 
L 367.606394 -153.741563 
L 369 -153.741563 
L 370.393606 -153.741563 
L 371.787213 -153.741563 
L 373.180819 -153.741563 
L 374.574426 -153.741563 
L 375.968032 -153.741563 
L 377.361638 -153.741563 
L 378.755245 -153.741563 
L 380.148851 -153.741563 
L 381.542458 -153.741563 
L 382.936064 -153.741563 
L 384.32967 -153.741563 
L 385.723277 -153.741563 
L 387.116883 -153.741563 
L 388.51049 -153.741563 
L 389.904096 -153.741563 
L 391.297702 -153.741563 
L 392.691309 -153.741563 
L 394.084915 -153.741563 
L 395.478521 -153.741563 
L 396.872128 -153.741563 
L 398.265734 -153.741563 
L 399.659341 -153.741563 
L 401.052947 -153.741563 
L 402.446553 -153.741563 
L 403.84016 -153.741563 
L 405.233766 -153.741563 
L 406.627373 -153.741563 
L 408.020979 -153.741563 
L 409.414585 -153.741563 
L 410.808192 -153.741563 
L 412.201798 -153.741563 
L 413.595405 -153.741563 
L 414.989011 -153.741563 
L 416.382617 -153.741563 
L 417.776224 -153.741563 
L 419.16983 -153.741563 
L 420.563437 -153.741563 
L 421.957043 -153.741563 
L 423.350649 -153.741563 
L 424.744256 -153.741563 
L 426.137862 -153.741563 
L 427.531469 -153.741563 
L 428.925075 -153.741563 
L 430.318681 -153.741563 
L 431.712288 -153.741563 
L 433.105894 -153.741563 
L 434.4995 -153.741563 
L 435.893107 -153.741563 
L 437.286713 -153.741563 
L 438.68032 -153.741563 
L 440.073926 -153.741563 
L 441.467532 -153.741563 
L 442.861139 -153.741563 
L 444.254745 -153.741563 
L 445.648352 -153.741563 
L 447.041958 -153.741563 
L 448.435564 -153.741563 
L 449.829171 -153.741563 
L 451.222777 -153.741563 
L 452.616384 -153.741563 
L 454.00999 -153.741563 
L 455.403596 -153.741563 
L 456.797203 -153.741563 
L 458.190809 -153.741563 
L 459.584416 -153.741563 
L 460.978022 -153.741563 
L 462.371628 -153.741563 
L 463.765235 -153.741563 
L 465.158841 -153.741563 
L 466.552448 -153.741563 
L 467.946054 -153.741563 
L 469.33966 -153.741563 
L 470.733267 -153.741563 
L 472.126873 -153.741563 
L 473.52048 -153.741563 
L 474.914086 -153.741563 
L 476.307692 -153.741563 
L 477.701299 -153.741563 
L 479.094905 -153.741563 
L 480.488511 -153.741563 
L 481.882118 -153.741563 
L 483.275724 -153.741563 
L 484.669331 -153.741563 
L 486.062937 -153.741563 
L 487.456543 -153.741563 
L 488.85015 -153.741563 
L 490.243756 -153.741563 
L 491.637363 -153.741563 
L 493.030969 -153.741563 
L 494.424575 -153.741563 
L 495.818182 -153.741563 
L 497.211788 -153.741563 
L 498.605395 -153.741563 
L 499.999001 -153.741563 
L 501.392607 -153.741563 
L 502.786214 -153.741563 
L 504.17982 -153.741563 
L 505.573427 -153.741563 
L 506.967033 -153.741563 
L 508.360639 -153.741563 
L 509.754246 -153.741563 
L 511.147852 -153.741563 
L 512.541459 -153.741563 
L 513.935065 -153.741563 
L 515.328671 -153.741563 
L 516.722278 -153.741563 
L 518.115884 -153.741563 
L 519.509491 -153.741563 
L 520.903097 -153.741563 
L 522.296703 -153.741563 
L 523.69031 -153.741563 
L 525.083916 -153.741563 
L 526.477522 -153.741563 
L 527.871129 -153.741563 
L 529.264735 -153.741563 
L 530.658342 -153.741563 
L 532.051948 -153.741563 
L 533.445554 -153.741563 
L 534.839161 -153.741563 
L 536.232767 -153.741563 
L 537.626374 -153.741563 
L 539.01998 -153.741563 
L 540.413586 -153.741563 
L 541.807193 -153.741563 
L 543.200799 -153.741563 
L 544.594406 -153.741563 
L 545.988012 -153.741563 
L 547.381618 -153.741563 
L 548.775225 -153.741563 
L 550.168831 -153.741563 
L 551.562438 -153.741563 
L 552.956044 -153.741563 
L 554.34965 -153.741563 
L 555.743257 -153.741563 
L 557.136863 -153.741563 
L 558.53047 -153.741563 
L 559.924076 -153.741563 
L 561.317682 -153.741563 
L 562.711289 -153.741563 
L 564.104895 -153.741563 
L 565.498501 -153.741563 
L 566.892108 -153.741563 
L 568.285714 -153.741563 
L 569.679321 -153.741563 
L 571.072927 -153.741563 
L 572.466533 -153.741563 
L 573.86014 -153.741563 
L 575.253746 -153.741563 
L 576.647353 -153.741563 
L 578.040959 -153.741563 
L 579.434565 -153.741563 
L 580.828172 -153.741563 
L 582.221778 -153.741563 
L 583.615385 -153.741563 
L 585.008991 -153.741563 
L 586.402597 -153.741563 
L 587.796204 -153.741563 
L 589.18981 -153.741563 
L 590.583417 -153.741563 
L 591.977023 -153.741563 
L 593.370629 -153.741563 
L 594.764236 -153.741563 
L 596.157842 -153.741563 
L 597.551449 -153.741563 
L 598.945055 -153.741563 
L 600.338661 -153.741563 
L 601.732268 -153.741563 
L 603.125874 -153.741563 
L 604.519481 -153.741563 
L 605.913087 -153.741563 
L 607.306693 -153.741563 
L 608.7003 -153.741563 
L 610.093906 -153.741563 
L 611.487512 -153.741563 
L 612.881119 -153.741563 
L 614.274725 -153.741563 
L 615.668332 -153.741563 
L 617.061938 -153.741563 
L 618.455544 -153.741563 
L 619.849151 -153.741563 
L 621.242757 -153.741563 
L 622.636364 -153.741563 
L 622.636364 -153.741563 
L 622.636364 -153.741563 
L 621.242757 -153.741563 
L 619.849151 -153.741563 
L 618.455544 -153.741563 
L 617.061938 -153.741563 
L 615.668332 -153.741563 
L 614.274725 -153.741563 
L 612.881119 -153.741563 
L 611.487512 -153.741563 
L 610.093906 -153.741563 
L 608.7003 -153.741563 
L 607.306693 -153.741563 
L 605.913087 -153.741563 
L 604.519481 -153.741563 
L 603.125874 -153.741563 
L 601.732268 -153.741563 
L 600.338661 -153.741563 
L 598.945055 -153.741563 
L 597.551449 -153.741563 
L 596.157842 -153.741563 
L 594.764236 -153.741563 
L 593.370629 -153.741563 
L 591.977023 -153.741563 
L 590.583417 -153.741563 
L 589.18981 -153.741563 
L 587.796204 -153.741563 
L 586.402597 -153.741563 
L 585.008991 -153.741563 
L 583.615385 -153.741563 
L 582.221778 -153.741563 
L 580.828172 -153.741563 
L 579.434565 -153.741563 
L 578.040959 -153.741563 
L 576.647353 -153.741563 
L 575.253746 -153.741563 
L 573.86014 -153.741563 
L 572.466533 -153.741563 
L 571.072927 -153.741563 
L 569.679321 -153.741563 
L 568.285714 -153.741563 
L 566.892108 -153.741563 
L 565.498501 -153.741563 
L 564.104895 -153.741563 
L 562.711289 -153.741563 
L 561.317682 -153.741563 
L 559.924076 -153.741563 
L 558.53047 -153.741563 
L 557.136863 -153.741563 
L 555.743257 -153.741563 
L 554.34965 -153.741563 
L 552.956044 -153.741563 
L 551.562438 -153.741563 
L 550.168831 -153.741563 
L 548.775225 -153.741563 
L 547.381618 -153.741563 
L 545.988012 -153.741563 
L 544.594406 -153.741563 
L 543.200799 -153.741563 
L 541.807193 -153.741563 
L 540.413586 -153.741563 
L 539.01998 -153.741563 
L 537.626374 -153.741563 
L 536.232767 -153.741563 
L 534.839161 -153.741563 
L 533.445554 -153.741563 
L 532.051948 -153.741563 
L 530.658342 -153.741563 
L 529.264735 -153.741563 
L 527.871129 -153.741563 
L 526.477522 -153.741563 
L 525.083916 -153.741563 
L 523.69031 -153.741563 
L 522.296703 -153.741563 
L 520.903097 -153.741563 
L 519.509491 -153.741563 
L 518.115884 -153.741563 
L 516.722278 -153.741563 
L 515.328671 -153.741563 
L 513.935065 -153.741563 
L 512.541459 -153.741563 
L 511.147852 -153.741563 
L 509.754246 -153.741563 
L 508.360639 -153.741563 
L 506.967033 -153.741563 
L 505.573427 -153.741563 
L 504.17982 -153.741563 
L 502.786214 -153.741563 
L 501.392607 -153.741563 
L 499.999001 -153.741563 
L 498.605395 -153.741563 
L 497.211788 -153.741563 
L 495.818182 -153.741563 
L 494.424575 -153.741563 
L 493.030969 -153.741563 
L 491.637363 -153.741563 
L 490.243756 -153.741563 
L 488.85015 -153.741563 
L 487.456543 -153.741563 
L 486.062937 -153.741563 
L 484.669331 -153.741563 
L 483.275724 -153.741563 
L 481.882118 -153.741563 
L 480.488511 -153.741563 
L 479.094905 -153.741563 
L 477.701299 -153.741563 
L 476.307692 -153.741563 
L 474.914086 -153.741563 
L 473.52048 -153.741563 
L 472.126873 -153.741563 
L 470.733267 -153.741563 
L 469.33966 -153.741563 
L 467.946054 -153.741563 
L 466.552448 -153.741563 
L 465.158841 -153.741563 
L 463.765235 -153.741563 
L 462.371628 -153.741563 
L 460.978022 -153.741563 
L 459.584416 -153.741563 
L 458.190809 -153.741563 
L 456.797203 -153.741563 
L 455.403596 -153.741563 
L 454.00999 -153.741563 
L 452.616384 -153.741563 
L 451.222777 -153.741563 
L 449.829171 -153.741563 
L 448.435564 -153.741563 
L 447.041958 -153.741563 
L 445.648352 -153.741563 
L 444.254745 -153.741563 
L 442.861139 -153.741563 
L 441.467532 -153.741563 
L 440.073926 -153.741563 
L 438.68032 -153.741563 
L 437.286713 -153.741563 
L 435.893107 -153.741563 
L 434.4995 -153.741563 
L 433.105894 -153.741563 
L 431.712288 -153.741563 
L 430.318681 -153.741563 
L 428.925075 -153.741563 
L 427.531469 -153.741563 
L 426.137862 -153.741563 
L 424.744256 -153.741563 
L 423.350649 -153.741563 
L 421.957043 -153.741563 
L 420.563437 -153.741563 
L 419.16983 -153.741563 
L 417.776224 -153.741563 
L 416.382617 -153.741563 
L 414.989011 -153.741563 
L 413.595405 -153.741563 
L 412.201798 -153.741563 
L 410.808192 -153.741563 
L 409.414585 -153.741563 
L 408.020979 -153.741563 
L 406.627373 -153.741563 
L 405.233766 -153.741563 
L 403.84016 -153.741563 
L 402.446553 -153.741563 
L 401.052947 -153.741563 
L 399.659341 -153.741563 
L 398.265734 -153.741563 
L 396.872128 -153.741563 
L 395.478521 -153.741563 
L 394.084915 -153.741563 
L 392.691309 -153.741563 
L 391.297702 -153.741563 
L 389.904096 -153.741563 
L 388.51049 -153.741563 
L 387.116883 -153.741563 
L 385.723277 -153.741563 
L 384.32967 -153.741563 
L 382.936064 -153.741563 
L 381.542458 -153.741563 
L 380.148851 -153.741563 
L 378.755245 -153.741563 
L 377.361638 -153.741563 
L 375.968032 -153.741563 
L 374.574426 -153.741563 
L 373.180819 -153.741563 
L 371.787213 -153.741563 
L 370.393606 -153.741563 
L 369 -153.741563 
L 367.606394 -153.741563 
L 366.212787 -153.741563 
L 364.819181 -153.741563 
L 363.425574 -153.741563 
L 362.031968 -153.741563 
L 360.638362 -153.741563 
L 359.244755 -153.741563 
L 357.851149 -153.741563 
L 356.457542 -153.741563 
L 355.063936 -153.741563 
L 353.67033 -153.741563 
L 352.276723 -153.741563 
L 350.883117 -153.741563 
L 349.48951 -153.741563 
L 348.095904 -153.741563 
L 346.702298 -153.741563 
L 345.308691 -153.741563 
L 343.915085 -153.741563 
L 342.521479 -153.741563 
L 341.127872 -153.741563 
L 339.734266 -153.741563 
L 338.340659 -153.741563 
L 336.947053 -153.741563 
L 335.553447 -153.741563 
L 334.15984 -153.741563 
L 332.766234 -153.741563 
L 331.372627 -153.741563 
L 329.979021 -153.741563 
L 328.585415 -153.741563 
L 327.191808 -153.741563 
L 325.798202 -153.741563 
L 324.404595 -153.741563 
L 323.010989 -153.741563 
L 321.617383 -153.741563 
L 320.223776 -153.741563 
L 318.83017 -153.741563 
L 317.436563 -153.741563 
L 316.042957 -153.741563 
L 314.649351 -153.741563 
L 313.255744 -153.741563 
L 311.862138 -153.741563 
L 310.468531 -153.741563 
L 309.074925 -153.741563 
L 307.681319 -153.741563 
L 306.287712 -153.741563 
L 304.894106 -153.741563 
L 303.5005 -153.741563 
L 302.106893 -153.741563 
L 300.713287 -153.741563 
L 299.31968 -153.741563 
L 297.926074 -153.741563 
L 296.532468 -153.741563 
L 295.138861 -153.741563 
L 293.745255 -153.741563 
L 292.351648 -153.741563 
L 290.958042 -153.741563 
L 289.564436 -153.741563 
L 288.170829 -153.741563 
L 286.777223 -153.741563 
L 285.383616 -153.741563 
L 283.99001 -153.741563 
L 282.596404 -153.741563 
L 281.202797 -153.741563 
L 279.809191 -153.741563 
L 278.415584 -153.741563 
L 277.021978 -153.741563 
L 275.628372 -153.741563 
L 274.234765 -153.741563 
L 272.841159 -153.741563 
L 271.447552 -153.741563 
L 270.053946 -153.741563 
L 268.66034 -153.741563 
L 267.266733 -153.741563 
L 265.873127 -153.741563 
L 264.47952 -153.741563 
L 263.085914 -153.741563 
L 261.692308 -153.741563 
L 260.298701 -153.741563 
L 258.905095 -153.741563 
L 257.511489 -153.741563 
L 256.117882 -153.741563 
L 254.724276 -153.741563 
L 253.330669 -153.741563 
L 251.937063 -153.741563 
L 250.543457 -153.741563 
L 249.14985 -153.741563 
L 247.756244 -153.741563 
L 246.362637 -153.741563 
L 244.969031 -153.741563 
L 243.575425 -153.741563 
L 242.181818 -153.741563 
L 240.788212 -153.741563 
L 239.394605 -153.741563 
L 238.000999 -153.741563 
L 236.607393 -72.796242 
L 235.213786 -63.714747 
L 233.82018 -62.64 
L 232.426573 -305.440442 
L 231.032967 -365.04 
L 229.639361 -347.805383 
L 228.245754 -311.474534 
L 226.852148 -153.741563 
L 225.458541 -153.741563 
L 224.064935 -153.741563 
L 222.671329 -153.741563 
L 221.277722 -153.741563 
L 219.884116 -153.741563 
L 218.490509 -153.741563 
L 217.096903 -153.741563 
L 215.703297 -153.741563 
L 214.30969 -153.741563 
L 212.916084 -153.741563 
L 211.522478 -153.741563 
L 210.128871 -153.741563 
L 208.735265 -153.741563 
L 207.341658 -153.741563 
L 205.948052 -153.741563 
L 204.554446 -153.741563 
L 203.160839 -153.741563 
L 201.767233 -153.741563 
L 200.373626 -153.741563 
L 198.98002 -153.741563 
L 197.586414 -153.741563 
L 196.192807 -153.741563 
L 194.799201 -153.741563 
L 193.405594 -153.741563 
L 192.011988 -153.741563 
L 190.618382 -153.741563 
L 189.224775 -153.741563 
L 187.831169 -153.741563 
L 186.437562 -153.741563 
L 185.043956 -153.741563 
L 183.65035 -153.741563 
L 182.256743 -153.741563 
L 180.863137 -153.741563 
L 179.46953 -153.741563 
L 178.075924 -153.741563 
L 176.682318 -153.741563 
L 175.288711 -153.741563 
L 173.895105 -153.741563 
L 172.501499 -153.741563 
L 171.107892 -153.741563 
L 169.714286 -153.741563 
L 168.320679 -153.741563 
L 166.927073 -153.741563 
L 165.533467 -153.741563 
L 164.13986 -153.741563 
L 162.746254 -153.741563 
L 161.352647 -153.741563 
L 159.959041 -153.741563 
L 158.565435 -153.741563 
L 157.171828 -153.741563 
L 155.778222 -153.741563 
L 154.384615 -153.741563 
L 152.991009 -153.741563 
L 151.597403 -153.741563 
L 150.203796 -153.741563 
L 148.81019 -153.741563 
L 147.416583 -153.741563 
L 146.022977 -153.741563 
L 144.629371 -153.741563 
L 143.235764 -153.741563 
L 141.842158 -153.741563 
L 140.448551 -153.741563 
L 139.054945 -153.741563 
L 137.661339 -153.741563 
L 136.267732 -153.741563 
L 134.874126 -153.741563 
L 133.480519 -153.741563 
L 132.086913 -153.741563 
L 130.693307 -153.741563 
L 129.2997 -153.741563 
L 127.906094 -153.741563 
L 126.512488 -153.741563 
L 125.118881 -153.741563 
L 123.725275 -153.741563 
L 122.331668 -153.741563 
L 120.938062 -153.741563 
L 119.544456 -153.741563 
L 118.150849 -153.741563 
L 116.757243 -153.741563 
L 115.363636 -153.741563 
z
" id="m5afc882d63" style="stroke:#0072b2;stroke-opacity:0.2;"/>
    </defs>
    <g clip-path="url(#p5d2207107d)">
     <use style="fill:#0072b2;fill-opacity:0.2;stroke:#0072b2;stroke-opacity:0.2;" x="0" xlink:href="#m5afc882d63" y="432"/>
    </g>
   </g>
   <g id="matplotlib.axis_1">
    <g id="xtick_1">
     <g id="line2d_1">
      <path clip-path="url(#p5d2207107d)" d="M 108.395604 384.48 
L 108.395604 51.84 
" style="fill:none;stroke:#808080;stroke-linecap:square;stroke-opacity:0.2;"/>
     </g>
     <g id="line2d_2">
      <defs>
       <path d="M 0 0 
L 0 3.5 
" id="m8198427694" style="stroke:#000000;stroke-width:0.8;"/>
      </defs>
      <g>
       <use style="stroke:#000000;stroke-width:0.8;" x="108.395604" xlink:href="#m8198427694" y="384.48"/>
      </g>
     </g>
     <g id="text_1">
      <!-- 2020-02 -->
      <g transform="translate(87.504198 399.078438)scale(0.1 -0.1)">
       <defs>
        <path d="M 19.1875 8.296875 
L 53.609375 8.296875 
L 53.609375 0 
L 7.328125 0 
L 7.328125 8.296875 
Q 12.9375 14.109375 22.625 23.890625 
Q 32.328125 33.6875 34.8125 36.53125 
Q 39.546875 41.84375 41.421875 45.53125 
Q 43.3125 49.21875 43.3125 52.78125 
Q 43.3125 58.59375 39.234375 62.25 
Q 35.15625 65.921875 28.609375 65.921875 
Q 23.96875 65.921875 18.8125 64.3125 
Q 13.671875 62.703125 7.8125 59.421875 
L 7.8125 69.390625 
Q 13.765625 71.78125 18.9375 73 
Q 24.125 74.21875 28.421875 74.21875 
Q 39.75 74.21875 46.484375 68.546875 
Q 53.21875 62.890625 53.21875 53.421875 
Q 53.21875 48.921875 51.53125 44.890625 
Q 49.859375 40.875 45.40625 35.40625 
Q 44.1875 33.984375 37.640625 27.21875 
Q 31.109375 20.453125 19.1875 8.296875 
z
" id="DejaVuSans-50"/>
        <path d="M 31.78125 66.40625 
Q 24.171875 66.40625 20.328125 58.90625 
Q 16.5 51.421875 16.5 36.375 
Q 16.5 21.390625 20.328125 13.890625 
Q 24.171875 6.390625 31.78125 6.390625 
Q 39.453125 6.390625 43.28125 13.890625 
Q 47.125 21.390625 47.125 36.375 
Q 47.125 51.421875 43.28125 58.90625 
Q 39.453125 66.40625 31.78125 66.40625 
z
M 31.78125 74.21875 
Q 44.046875 74.21875 50.515625 64.515625 
Q 56.984375 54.828125 56.984375 36.375 
Q 56.984375 17.96875 50.515625 8.265625 
Q 44.046875 -1.421875 31.78125 -1.421875 
Q 19.53125 -1.421875 13.0625 8.265625 
Q 6.59375 17.96875 6.59375 36.375 
Q 6.59375 54.828125 13.0625 64.515625 
Q 19.53125 74.21875 31.78125 74.21875 
z
" id="DejaVuSans-48"/>
        <path d="M 4.890625 31.390625 
L 31.203125 31.390625 
L 31.203125 23.390625 
L 4.890625 23.390625 
z
" id="DejaVuSans-45"/>
       </defs>
       <use xlink:href="#DejaVuSans-50"/>
       <use x="63.623047" xlink:href="#DejaVuSans-48"/>
       <use x="127.246094" xlink:href="#DejaVuSans-50"/>
       <use x="190.869141" xlink:href="#DejaVuSans-48"/>
       <use x="254.492188" xlink:href="#DejaVuSans-45"/>
       <use x="290.576172" xlink:href="#DejaVuSans-48"/>
       <use x="354.199219" xlink:href="#DejaVuSans-50"/>
      </g>
     </g>
    </g>
    <g id="xtick_2">
     <g id="line2d_3">
      <path clip-path="url(#p5d2207107d)" d="M 192.011988 384.48 
L 192.011988 51.84 
" style="fill:none;stroke:#808080;stroke-linecap:square;stroke-opacity:0.2;"/>
     </g>
     <g id="line2d_4">
      <g>
       <use style="stroke:#000000;stroke-width:0.8;" x="192.011988" xlink:href="#m8198427694" y="384.48"/>
      </g>
     </g>
     <g id="text_2">
      <!-- 2020-04 -->
      <g transform="translate(171.120582 399.078438)scale(0.1 -0.1)">
       <defs>
        <path d="M 37.796875 64.3125 
L 12.890625 25.390625 
L 37.796875 25.390625 
z
M 35.203125 72.90625 
L 47.609375 72.90625 
L 47.609375 25.390625 
L 58.015625 25.390625 
L 58.015625 17.1875 
L 47.609375 17.1875 
L 47.609375 0 
L 37.796875 0 
L 37.796875 17.1875 
L 4.890625 17.1875 
L 4.890625 26.703125 
z
" id="DejaVuSans-52"/>
       </defs>
       <use xlink:href="#DejaVuSans-50"/>
       <use x="63.623047" xlink:href="#DejaVuSans-48"/>
       <use x="127.246094" xlink:href="#DejaVuSans-50"/>
       <use x="190.869141" xlink:href="#DejaVuSans-48"/>
       <use x="254.492188" xlink:href="#DejaVuSans-45"/>
       <use x="290.576172" xlink:href="#DejaVuSans-48"/>
       <use x="354.199219" xlink:href="#DejaVuSans-52"/>
      </g>
     </g>
    </g>
    <g id="xtick_3">
     <g id="line2d_5">
      <path clip-path="url(#p5d2207107d)" d="M 277.021978 384.48 
L 277.021978 51.84 
" style="fill:none;stroke:#808080;stroke-linecap:square;stroke-opacity:0.2;"/>
     </g>
     <g id="line2d_6">
      <g>
       <use style="stroke:#000000;stroke-width:0.8;" x="277.021978" xlink:href="#m8198427694" y="384.48"/>
      </g>
     </g>
     <g id="text_3">
      <!-- 2020-06 -->
      <g transform="translate(256.130572 399.078438)scale(0.1 -0.1)">
       <defs>
        <path d="M 33.015625 40.375 
Q 26.375 40.375 22.484375 35.828125 
Q 18.609375 31.296875 18.609375 23.390625 
Q 18.609375 15.53125 22.484375 10.953125 
Q 26.375 6.390625 33.015625 6.390625 
Q 39.65625 6.390625 43.53125 10.953125 
Q 47.40625 15.53125 47.40625 23.390625 
Q 47.40625 31.296875 43.53125 35.828125 
Q 39.65625 40.375 33.015625 40.375 
z
M 52.59375 71.296875 
L 52.59375 62.3125 
Q 48.875 64.0625 45.09375 64.984375 
Q 41.3125 65.921875 37.59375 65.921875 
Q 27.828125 65.921875 22.671875 59.328125 
Q 17.53125 52.734375 16.796875 39.40625 
Q 19.671875 43.65625 24.015625 45.921875 
Q 28.375 48.1875 33.59375 48.1875 
Q 44.578125 48.1875 50.953125 41.515625 
Q 57.328125 34.859375 57.328125 23.390625 
Q 57.328125 12.15625 50.6875 5.359375 
Q 44.046875 -1.421875 33.015625 -1.421875 
Q 20.359375 -1.421875 13.671875 8.265625 
Q 6.984375 17.96875 6.984375 36.375 
Q 6.984375 53.65625 15.1875 63.9375 
Q 23.390625 74.21875 37.203125 74.21875 
Q 40.921875 74.21875 44.703125 73.484375 
Q 48.484375 72.75 52.59375 71.296875 
z
" id="DejaVuSans-54"/>
       </defs>
       <use xlink:href="#DejaVuSans-50"/>
       <use x="63.623047" xlink:href="#DejaVuSans-48"/>
       <use x="127.246094" xlink:href="#DejaVuSans-50"/>
       <use x="190.869141" xlink:href="#DejaVuSans-48"/>
       <use x="254.492188" xlink:href="#DejaVuSans-45"/>
       <use x="290.576172" xlink:href="#DejaVuSans-48"/>
       <use x="354.199219" xlink:href="#DejaVuSans-54"/>
      </g>
     </g>
    </g>
    <g id="xtick_4">
     <g id="line2d_7">
      <path clip-path="url(#p5d2207107d)" d="M 362.031968 384.48 
L 362.031968 51.84 
" style="fill:none;stroke:#808080;stroke-linecap:square;stroke-opacity:0.2;"/>
     </g>
     <g id="line2d_8">
      <g>
       <use style="stroke:#000000;stroke-width:0.8;" x="362.031968" xlink:href="#m8198427694" y="384.48"/>
      </g>
     </g>
     <g id="text_4">
      <!-- 2020-08 -->
      <g transform="translate(341.140562 399.078438)scale(0.1 -0.1)">
       <defs>
        <path d="M 31.78125 34.625 
Q 24.75 34.625 20.71875 30.859375 
Q 16.703125 27.09375 16.703125 20.515625 
Q 16.703125 13.921875 20.71875 10.15625 
Q 24.75 6.390625 31.78125 6.390625 
Q 38.8125 6.390625 42.859375 10.171875 
Q 46.921875 13.96875 46.921875 20.515625 
Q 46.921875 27.09375 42.890625 30.859375 
Q 38.875 34.625 31.78125 34.625 
z
M 21.921875 38.8125 
Q 15.578125 40.375 12.03125 44.71875 
Q 8.5 49.078125 8.5 55.328125 
Q 8.5 64.0625 14.71875 69.140625 
Q 20.953125 74.21875 31.78125 74.21875 
Q 42.671875 74.21875 48.875 69.140625 
Q 55.078125 64.0625 55.078125 55.328125 
Q 55.078125 49.078125 51.53125 44.71875 
Q 48 40.375 41.703125 38.8125 
Q 48.828125 37.15625 52.796875 32.3125 
Q 56.78125 27.484375 56.78125 20.515625 
Q 56.78125 9.90625 50.3125 4.234375 
Q 43.84375 -1.421875 31.78125 -1.421875 
Q 19.734375 -1.421875 13.25 4.234375 
Q 6.78125 9.90625 6.78125 20.515625 
Q 6.78125 27.484375 10.78125 32.3125 
Q 14.796875 37.15625 21.921875 38.8125 
z
M 18.3125 54.390625 
Q 18.3125 48.734375 21.84375 45.5625 
Q 25.390625 42.390625 31.78125 42.390625 
Q 38.140625 42.390625 41.71875 45.5625 
Q 45.3125 48.734375 45.3125 54.390625 
Q 45.3125 60.0625 41.71875 63.234375 
Q 38.140625 66.40625 31.78125 66.40625 
Q 25.390625 66.40625 21.84375 63.234375 
Q 18.3125 60.0625 18.3125 54.390625 
z
" id="DejaVuSans-56"/>
       </defs>
       <use xlink:href="#DejaVuSans-50"/>
       <use x="63.623047" xlink:href="#DejaVuSans-48"/>
       <use x="127.246094" xlink:href="#DejaVuSans-50"/>
       <use x="190.869141" xlink:href="#DejaVuSans-48"/>
       <use x="254.492188" xlink:href="#DejaVuSans-45"/>
       <use x="290.576172" xlink:href="#DejaVuSans-48"/>
       <use x="354.199219" xlink:href="#DejaVuSans-56"/>
      </g>
     </g>
    </g>
    <g id="xtick_5">
     <g id="line2d_9">
      <path clip-path="url(#p5d2207107d)" d="M 447.041958 384.48 
L 447.041958 51.84 
" style="fill:none;stroke:#808080;stroke-linecap:square;stroke-opacity:0.2;"/>
     </g>
     <g id="line2d_10">
      <g>
       <use style="stroke:#000000;stroke-width:0.8;" x="447.041958" xlink:href="#m8198427694" y="384.48"/>
      </g>
     </g>
     <g id="text_5">
      <!-- 2020-10 -->
      <g transform="translate(426.150552 399.078438)scale(0.1 -0.1)">
       <defs>
        <path d="M 12.40625 8.296875 
L 28.515625 8.296875 
L 28.515625 63.921875 
L 10.984375 60.40625 
L 10.984375 69.390625 
L 28.421875 72.90625 
L 38.28125 72.90625 
L 38.28125 8.296875 
L 54.390625 8.296875 
L 54.390625 0 
L 12.40625 0 
z
" id="DejaVuSans-49"/>
       </defs>
       <use xlink:href="#DejaVuSans-50"/>
       <use x="63.623047" xlink:href="#DejaVuSans-48"/>
       <use x="127.246094" xlink:href="#DejaVuSans-50"/>
       <use x="190.869141" xlink:href="#DejaVuSans-48"/>
       <use x="254.492188" xlink:href="#DejaVuSans-45"/>
       <use x="290.576172" xlink:href="#DejaVuSans-49"/>
       <use x="354.199219" xlink:href="#DejaVuSans-48"/>
      </g>
     </g>
    </g>
    <g id="xtick_6">
     <g id="line2d_11">
      <path clip-path="url(#p5d2207107d)" d="M 532.051948 384.48 
L 532.051948 51.84 
" style="fill:none;stroke:#808080;stroke-linecap:square;stroke-opacity:0.2;"/>
     </g>
     <g id="line2d_12">
      <g>
       <use style="stroke:#000000;stroke-width:0.8;" x="532.051948" xlink:href="#m8198427694" y="384.48"/>
      </g>
     </g>
     <g id="text_6">
      <!-- 2020-12 -->
      <g transform="translate(511.160542 399.078438)scale(0.1 -0.1)">
       <use xlink:href="#DejaVuSans-50"/>
       <use x="63.623047" xlink:href="#DejaVuSans-48"/>
       <use x="127.246094" xlink:href="#DejaVuSans-50"/>
       <use x="190.869141" xlink:href="#DejaVuSans-48"/>
       <use x="254.492188" xlink:href="#DejaVuSans-45"/>
       <use x="290.576172" xlink:href="#DejaVuSans-49"/>
       <use x="354.199219" xlink:href="#DejaVuSans-50"/>
      </g>
     </g>
    </g>
    <g id="xtick_7">
     <g id="line2d_13">
      <path clip-path="url(#p5d2207107d)" d="M 618.455544 384.48 
L 618.455544 51.84 
" style="fill:none;stroke:#808080;stroke-linecap:square;stroke-opacity:0.2;"/>
     </g>
     <g id="line2d_14">
      <g>
       <use style="stroke:#000000;stroke-width:0.8;" x="618.455544" xlink:href="#m8198427694" y="384.48"/>
      </g>
     </g>
     <g id="text_7">
      <!-- 2021-02 -->
      <g transform="translate(597.564138 399.078438)scale(0.1 -0.1)">
       <use xlink:href="#DejaVuSans-50"/>
       <use x="63.623047" xlink:href="#DejaVuSans-48"/>
       <use x="127.246094" xlink:href="#DejaVuSans-50"/>
       <use x="190.869141" xlink:href="#DejaVuSans-49"/>
       <use x="254.492188" xlink:href="#DejaVuSans-45"/>
       <use x="290.576172" xlink:href="#DejaVuSans-48"/>
       <use x="354.199219" xlink:href="#DejaVuSans-50"/>
      </g>
     </g>
    </g>
    <g id="text_8">
     <!-- ds -->
     <g transform="translate(363.221094 412.756563)scale(0.1 -0.1)">
      <defs>
       <path d="M 45.40625 46.390625 
L 45.40625 75.984375 
L 54.390625 75.984375 
L 54.390625 0 
L 45.40625 0 
L 45.40625 8.203125 
Q 42.578125 3.328125 38.25 0.953125 
Q 33.9375 -1.421875 27.875 -1.421875 
Q 17.96875 -1.421875 11.734375 6.484375 
Q 5.515625 14.40625 5.515625 27.296875 
Q 5.515625 40.1875 11.734375 48.09375 
Q 17.96875 56 27.875 56 
Q 33.9375 56 38.25 53.625 
Q 42.578125 51.265625 45.40625 46.390625 
z
M 14.796875 27.296875 
Q 14.796875 17.390625 18.875 11.75 
Q 22.953125 6.109375 30.078125 6.109375 
Q 37.203125 6.109375 41.296875 11.75 
Q 45.40625 17.390625 45.40625 27.296875 
Q 45.40625 37.203125 41.296875 42.84375 
Q 37.203125 48.484375 30.078125 48.484375 
Q 22.953125 48.484375 18.875 42.84375 
Q 14.796875 37.203125 14.796875 27.296875 
z
" id="DejaVuSans-100"/>
       <path d="M 44.28125 53.078125 
L 44.28125 44.578125 
Q 40.484375 46.53125 36.375 47.5 
Q 32.28125 48.484375 27.875 48.484375 
Q 21.1875 48.484375 17.84375 46.4375 
Q 14.5 44.390625 14.5 40.28125 
Q 14.5 37.15625 16.890625 35.375 
Q 19.28125 33.59375 26.515625 31.984375 
L 29.59375 31.296875 
Q 39.15625 29.25 43.1875 25.515625 
Q 47.21875 21.78125 47.21875 15.09375 
Q 47.21875 7.46875 41.1875 3.015625 
Q 35.15625 -1.421875 24.609375 -1.421875 
Q 20.21875 -1.421875 15.453125 -0.5625 
Q 10.6875 0.296875 5.421875 2 
L 5.421875 11.28125 
Q 10.40625 8.6875 15.234375 7.390625 
Q 20.0625 6.109375 24.8125 6.109375 
Q 31.15625 6.109375 34.5625 8.28125 
Q 37.984375 10.453125 37.984375 14.40625 
Q 37.984375 18.0625 35.515625 20.015625 
Q 33.0625 21.96875 24.703125 23.78125 
L 21.578125 24.515625 
Q 13.234375 26.265625 9.515625 29.90625 
Q 5.8125 33.546875 5.8125 39.890625 
Q 5.8125 47.609375 11.28125 51.796875 
Q 16.75 56 26.8125 56 
Q 31.78125 56 36.171875 55.265625 
Q 40.578125 54.546875 44.28125 53.078125 
z
" id="DejaVuSans-115"/>
      </defs>
      <use xlink:href="#DejaVuSans-100"/>
      <use x="63.476562" xlink:href="#DejaVuSans-115"/>
     </g>
    </g>
   </g>
   <g id="matplotlib.axis_2">
    <g id="ytick_1">
     <g id="line2d_15">
      <path clip-path="url(#p5d2207107d)" d="M 90 337.745124 
L 648 337.745124 
" style="fill:none;stroke:#808080;stroke-linecap:square;stroke-opacity:0.2;"/>
     </g>
     <g id="line2d_16">
      <defs>
       <path d="M 0 0 
L -3.5 0 
" id="m573352effb" style="stroke:#000000;stroke-width:0.8;"/>
      </defs>
      <g>
       <use style="stroke:#000000;stroke-width:0.8;" x="90" xlink:href="#m573352effb" y="337.745124"/>
      </g>
     </g>
     <g id="text_9">
      <!-- −0.2 -->
      <g transform="translate(58.717187 341.544343)scale(0.1 -0.1)">
       <defs>
        <path d="M 10.59375 35.5 
L 73.1875 35.5 
L 73.1875 27.203125 
L 10.59375 27.203125 
z
" id="DejaVuSans-8722"/>
        <path d="M 10.6875 12.40625 
L 21 12.40625 
L 21 0 
L 10.6875 0 
z
" id="DejaVuSans-46"/>
       </defs>
       <use xlink:href="#DejaVuSans-8722"/>
       <use x="83.789062" xlink:href="#DejaVuSans-48"/>
       <use x="147.412109" xlink:href="#DejaVuSans-46"/>
       <use x="179.199219" xlink:href="#DejaVuSans-50"/>
      </g>
     </g>
    </g>
    <g id="ytick_2">
     <g id="line2d_17">
      <path clip-path="url(#p5d2207107d)" d="M 90 278.258437 
L 648 278.258437 
" style="fill:none;stroke:#808080;stroke-linecap:square;stroke-opacity:0.2;"/>
     </g>
     <g id="line2d_18">
      <g>
       <use style="stroke:#000000;stroke-width:0.8;" x="90" xlink:href="#m573352effb" y="278.258437"/>
      </g>
     </g>
     <g id="text_10">
      <!-- 0.0 -->
      <g transform="translate(67.096875 282.057656)scale(0.1 -0.1)">
       <use xlink:href="#DejaVuSans-48"/>
       <use x="63.623047" xlink:href="#DejaVuSans-46"/>
       <use x="95.410156" xlink:href="#DejaVuSans-48"/>
      </g>
     </g>
    </g>
    <g id="ytick_3">
     <g id="line2d_19">
      <path clip-path="url(#p5d2207107d)" d="M 90 218.771749 
L 648 218.771749 
" style="fill:none;stroke:#808080;stroke-linecap:square;stroke-opacity:0.2;"/>
     </g>
     <g id="line2d_20">
      <g>
       <use style="stroke:#000000;stroke-width:0.8;" x="90" xlink:href="#m573352effb" y="218.771749"/>
      </g>
     </g>
     <g id="text_11">
      <!-- 0.2 -->
      <g transform="translate(67.096875 222.570968)scale(0.1 -0.1)">
       <use xlink:href="#DejaVuSans-48"/>
       <use x="63.623047" xlink:href="#DejaVuSans-46"/>
       <use x="95.410156" xlink:href="#DejaVuSans-50"/>
      </g>
     </g>
    </g>
    <g id="ytick_4">
     <g id="line2d_21">
      <path clip-path="url(#p5d2207107d)" d="M 90 159.285062 
L 648 159.285062 
" style="fill:none;stroke:#808080;stroke-linecap:square;stroke-opacity:0.2;"/>
     </g>
     <g id="line2d_22">
      <g>
       <use style="stroke:#000000;stroke-width:0.8;" x="90" xlink:href="#m573352effb" y="159.285062"/>
      </g>
     </g>
     <g id="text_12">
      <!-- 0.4 -->
      <g transform="translate(67.096875 163.084281)scale(0.1 -0.1)">
       <use xlink:href="#DejaVuSans-48"/>
       <use x="63.623047" xlink:href="#DejaVuSans-46"/>
       <use x="95.410156" xlink:href="#DejaVuSans-52"/>
      </g>
     </g>
    </g>
    <g id="ytick_5">
     <g id="line2d_23">
      <path clip-path="url(#p5d2207107d)" d="M 90 99.798374 
L 648 99.798374 
" style="fill:none;stroke:#808080;stroke-linecap:square;stroke-opacity:0.2;"/>
     </g>
     <g id="line2d_24">
      <g>
       <use style="stroke:#000000;stroke-width:0.8;" x="90" xlink:href="#m573352effb" y="99.798374"/>
      </g>
     </g>
     <g id="text_13">
      <!-- 0.6 -->
      <g transform="translate(67.096875 103.597593)scale(0.1 -0.1)">
       <use xlink:href="#DejaVuSans-48"/>
       <use x="63.623047" xlink:href="#DejaVuSans-46"/>
       <use x="95.410156" xlink:href="#DejaVuSans-54"/>
      </g>
     </g>
    </g>
    <g id="text_14">
     <!-- Preisänderung_in_einer_Woche_ab_Aufhebung_von_erstem_Lockdown -->
     <g transform="translate(52.359375 393.423281)rotate(-90)scale(0.1 -0.1)">
      <defs>
       <path d="M 19.671875 64.796875 
L 19.671875 37.40625 
L 32.078125 37.40625 
Q 38.96875 37.40625 42.71875 40.96875 
Q 46.484375 44.53125 46.484375 51.125 
Q 46.484375 57.671875 42.71875 61.234375 
Q 38.96875 64.796875 32.078125 64.796875 
z
M 9.8125 72.90625 
L 32.078125 72.90625 
Q 44.34375 72.90625 50.609375 67.359375 
Q 56.890625 61.8125 56.890625 51.125 
Q 56.890625 40.328125 50.609375 34.8125 
Q 44.34375 29.296875 32.078125 29.296875 
L 19.671875 29.296875 
L 19.671875 0 
L 9.8125 0 
z
" id="DejaVuSans-80"/>
       <path d="M 41.109375 46.296875 
Q 39.59375 47.171875 37.8125 47.578125 
Q 36.03125 48 33.890625 48 
Q 26.265625 48 22.1875 43.046875 
Q 18.109375 38.09375 18.109375 28.8125 
L 18.109375 0 
L 9.078125 0 
L 9.078125 54.6875 
L 18.109375 54.6875 
L 18.109375 46.1875 
Q 20.953125 51.171875 25.484375 53.578125 
Q 30.03125 56 36.53125 56 
Q 37.453125 56 38.578125 55.875 
Q 39.703125 55.765625 41.0625 55.515625 
z
" id="DejaVuSans-114"/>
       <path d="M 56.203125 29.59375 
L 56.203125 25.203125 
L 14.890625 25.203125 
Q 15.484375 15.921875 20.484375 11.0625 
Q 25.484375 6.203125 34.421875 6.203125 
Q 39.59375 6.203125 44.453125 7.46875 
Q 49.3125 8.734375 54.109375 11.28125 
L 54.109375 2.78125 
Q 49.265625 0.734375 44.1875 -0.34375 
Q 39.109375 -1.421875 33.890625 -1.421875 
Q 20.796875 -1.421875 13.15625 6.1875 
Q 5.515625 13.8125 5.515625 26.8125 
Q 5.515625 40.234375 12.765625 48.109375 
Q 20.015625 56 32.328125 56 
Q 43.359375 56 49.78125 48.890625 
Q 56.203125 41.796875 56.203125 29.59375 
z
M 47.21875 32.234375 
Q 47.125 39.59375 43.09375 43.984375 
Q 39.0625 48.390625 32.421875 48.390625 
Q 24.90625 48.390625 20.390625 44.140625 
Q 15.875 39.890625 15.1875 32.171875 
z
" id="DejaVuSans-101"/>
       <path d="M 9.421875 54.6875 
L 18.40625 54.6875 
L 18.40625 0 
L 9.421875 0 
z
M 9.421875 75.984375 
L 18.40625 75.984375 
L 18.40625 64.59375 
L 9.421875 64.59375 
z
" id="DejaVuSans-105"/>
       <path d="M 34.28125 27.484375 
Q 23.390625 27.484375 19.1875 25 
Q 14.984375 22.515625 14.984375 16.5 
Q 14.984375 11.71875 18.140625 8.90625 
Q 21.296875 6.109375 26.703125 6.109375 
Q 34.1875 6.109375 38.703125 11.40625 
Q 43.21875 16.703125 43.21875 25.484375 
L 43.21875 27.484375 
z
M 52.203125 31.203125 
L 52.203125 0 
L 43.21875 0 
L 43.21875 8.296875 
Q 40.140625 3.328125 35.546875 0.953125 
Q 30.953125 -1.421875 24.3125 -1.421875 
Q 15.921875 -1.421875 10.953125 3.296875 
Q 6 8.015625 6 15.921875 
Q 6 25.140625 12.171875 29.828125 
Q 18.359375 34.515625 30.609375 34.515625 
L 43.21875 34.515625 
L 43.21875 35.40625 
Q 43.21875 41.609375 39.140625 45 
Q 35.0625 48.390625 27.6875 48.390625 
Q 23 48.390625 18.546875 47.265625 
Q 14.109375 46.140625 10.015625 43.890625 
L 10.015625 52.203125 
Q 14.9375 54.109375 19.578125 55.046875 
Q 24.21875 56 28.609375 56 
Q 40.484375 56 46.34375 49.84375 
Q 52.203125 43.703125 52.203125 31.203125 
z
M 33.59375 75.78125 
L 43.5 75.78125 
L 43.5 65.921875 
L 33.59375 65.921875 
z
M 14.5 75.78125 
L 24.40625 75.78125 
L 24.40625 65.921875 
L 14.5 65.921875 
z
" id="DejaVuSans-228"/>
       <path d="M 54.890625 33.015625 
L 54.890625 0 
L 45.90625 0 
L 45.90625 32.71875 
Q 45.90625 40.484375 42.875 44.328125 
Q 39.84375 48.1875 33.796875 48.1875 
Q 26.515625 48.1875 22.3125 43.546875 
Q 18.109375 38.921875 18.109375 30.90625 
L 18.109375 0 
L 9.078125 0 
L 9.078125 54.6875 
L 18.109375 54.6875 
L 18.109375 46.1875 
Q 21.34375 51.125 25.703125 53.5625 
Q 30.078125 56 35.796875 56 
Q 45.21875 56 50.046875 50.171875 
Q 54.890625 44.34375 54.890625 33.015625 
z
" id="DejaVuSans-110"/>
       <path d="M 8.5 21.578125 
L 8.5 54.6875 
L 17.484375 54.6875 
L 17.484375 21.921875 
Q 17.484375 14.15625 20.5 10.265625 
Q 23.53125 6.390625 29.59375 6.390625 
Q 36.859375 6.390625 41.078125 11.03125 
Q 45.3125 15.671875 45.3125 23.6875 
L 45.3125 54.6875 
L 54.296875 54.6875 
L 54.296875 0 
L 45.3125 0 
L 45.3125 8.40625 
Q 42.046875 3.421875 37.71875 1 
Q 33.40625 -1.421875 27.6875 -1.421875 
Q 18.265625 -1.421875 13.375 4.4375 
Q 8.5 10.296875 8.5 21.578125 
z
M 31.109375 56 
z
" id="DejaVuSans-117"/>
       <path d="M 45.40625 27.984375 
Q 45.40625 37.75 41.375 43.109375 
Q 37.359375 48.484375 30.078125 48.484375 
Q 22.859375 48.484375 18.828125 43.109375 
Q 14.796875 37.75 14.796875 27.984375 
Q 14.796875 18.265625 18.828125 12.890625 
Q 22.859375 7.515625 30.078125 7.515625 
Q 37.359375 7.515625 41.375 12.890625 
Q 45.40625 18.265625 45.40625 27.984375 
z
M 54.390625 6.78125 
Q 54.390625 -7.171875 48.1875 -13.984375 
Q 42 -20.796875 29.203125 -20.796875 
Q 24.46875 -20.796875 20.265625 -20.09375 
Q 16.0625 -19.390625 12.109375 -17.921875 
L 12.109375 -9.1875 
Q 16.0625 -11.328125 19.921875 -12.34375 
Q 23.78125 -13.375 27.78125 -13.375 
Q 36.625 -13.375 41.015625 -8.765625 
Q 45.40625 -4.15625 45.40625 5.171875 
L 45.40625 9.625 
Q 42.625 4.78125 38.28125 2.390625 
Q 33.9375 0 27.875 0 
Q 17.828125 0 11.671875 7.65625 
Q 5.515625 15.328125 5.515625 27.984375 
Q 5.515625 40.671875 11.671875 48.328125 
Q 17.828125 56 27.875 56 
Q 33.9375 56 38.28125 53.609375 
Q 42.625 51.21875 45.40625 46.390625 
L 45.40625 54.6875 
L 54.390625 54.6875 
z
" id="DejaVuSans-103"/>
       <path d="M 50.984375 -16.609375 
L 50.984375 -23.578125 
L -0.984375 -23.578125 
L -0.984375 -16.609375 
z
" id="DejaVuSans-95"/>
       <path d="M 3.328125 72.90625 
L 13.28125 72.90625 
L 28.609375 11.28125 
L 43.890625 72.90625 
L 54.984375 72.90625 
L 70.3125 11.28125 
L 85.59375 72.90625 
L 95.609375 72.90625 
L 77.296875 0 
L 64.890625 0 
L 49.515625 63.28125 
L 33.984375 0 
L 21.578125 0 
z
" id="DejaVuSans-87"/>
       <path d="M 30.609375 48.390625 
Q 23.390625 48.390625 19.1875 42.75 
Q 14.984375 37.109375 14.984375 27.296875 
Q 14.984375 17.484375 19.15625 11.84375 
Q 23.34375 6.203125 30.609375 6.203125 
Q 37.796875 6.203125 41.984375 11.859375 
Q 46.1875 17.53125 46.1875 27.296875 
Q 46.1875 37.015625 41.984375 42.703125 
Q 37.796875 48.390625 30.609375 48.390625 
z
M 30.609375 56 
Q 42.328125 56 49.015625 48.375 
Q 55.71875 40.765625 55.71875 27.296875 
Q 55.71875 13.875 49.015625 6.21875 
Q 42.328125 -1.421875 30.609375 -1.421875 
Q 18.84375 -1.421875 12.171875 6.21875 
Q 5.515625 13.875 5.515625 27.296875 
Q 5.515625 40.765625 12.171875 48.375 
Q 18.84375 56 30.609375 56 
z
" id="DejaVuSans-111"/>
       <path d="M 48.78125 52.59375 
L 48.78125 44.1875 
Q 44.96875 46.296875 41.140625 47.34375 
Q 37.3125 48.390625 33.40625 48.390625 
Q 24.65625 48.390625 19.8125 42.84375 
Q 14.984375 37.3125 14.984375 27.296875 
Q 14.984375 17.28125 19.8125 11.734375 
Q 24.65625 6.203125 33.40625 6.203125 
Q 37.3125 6.203125 41.140625 7.25 
Q 44.96875 8.296875 48.78125 10.40625 
L 48.78125 2.09375 
Q 45.015625 0.34375 40.984375 -0.53125 
Q 36.96875 -1.421875 32.421875 -1.421875 
Q 20.0625 -1.421875 12.78125 6.34375 
Q 5.515625 14.109375 5.515625 27.296875 
Q 5.515625 40.671875 12.859375 48.328125 
Q 20.21875 56 33.015625 56 
Q 37.15625 56 41.109375 55.140625 
Q 45.0625 54.296875 48.78125 52.59375 
z
" id="DejaVuSans-99"/>
       <path d="M 54.890625 33.015625 
L 54.890625 0 
L 45.90625 0 
L 45.90625 32.71875 
Q 45.90625 40.484375 42.875 44.328125 
Q 39.84375 48.1875 33.796875 48.1875 
Q 26.515625 48.1875 22.3125 43.546875 
Q 18.109375 38.921875 18.109375 30.90625 
L 18.109375 0 
L 9.078125 0 
L 9.078125 75.984375 
L 18.109375 75.984375 
L 18.109375 46.1875 
Q 21.34375 51.125 25.703125 53.5625 
Q 30.078125 56 35.796875 56 
Q 45.21875 56 50.046875 50.171875 
Q 54.890625 44.34375 54.890625 33.015625 
z
" id="DejaVuSans-104"/>
       <path d="M 34.28125 27.484375 
Q 23.390625 27.484375 19.1875 25 
Q 14.984375 22.515625 14.984375 16.5 
Q 14.984375 11.71875 18.140625 8.90625 
Q 21.296875 6.109375 26.703125 6.109375 
Q 34.1875 6.109375 38.703125 11.40625 
Q 43.21875 16.703125 43.21875 25.484375 
L 43.21875 27.484375 
z
M 52.203125 31.203125 
L 52.203125 0 
L 43.21875 0 
L 43.21875 8.296875 
Q 40.140625 3.328125 35.546875 0.953125 
Q 30.953125 -1.421875 24.3125 -1.421875 
Q 15.921875 -1.421875 10.953125 3.296875 
Q 6 8.015625 6 15.921875 
Q 6 25.140625 12.171875 29.828125 
Q 18.359375 34.515625 30.609375 34.515625 
L 43.21875 34.515625 
L 43.21875 35.40625 
Q 43.21875 41.609375 39.140625 45 
Q 35.0625 48.390625 27.6875 48.390625 
Q 23 48.390625 18.546875 47.265625 
Q 14.109375 46.140625 10.015625 43.890625 
L 10.015625 52.203125 
Q 14.9375 54.109375 19.578125 55.046875 
Q 24.21875 56 28.609375 56 
Q 40.484375 56 46.34375 49.84375 
Q 52.203125 43.703125 52.203125 31.203125 
z
" id="DejaVuSans-97"/>
       <path d="M 48.6875 27.296875 
Q 48.6875 37.203125 44.609375 42.84375 
Q 40.53125 48.484375 33.40625 48.484375 
Q 26.265625 48.484375 22.1875 42.84375 
Q 18.109375 37.203125 18.109375 27.296875 
Q 18.109375 17.390625 22.1875 11.75 
Q 26.265625 6.109375 33.40625 6.109375 
Q 40.53125 6.109375 44.609375 11.75 
Q 48.6875 17.390625 48.6875 27.296875 
z
M 18.109375 46.390625 
Q 20.953125 51.265625 25.265625 53.625 
Q 29.59375 56 35.59375 56 
Q 45.5625 56 51.78125 48.09375 
Q 58.015625 40.1875 58.015625 27.296875 
Q 58.015625 14.40625 51.78125 6.484375 
Q 45.5625 -1.421875 35.59375 -1.421875 
Q 29.59375 -1.421875 25.265625 0.953125 
Q 20.953125 3.328125 18.109375 8.203125 
L 18.109375 0 
L 9.078125 0 
L 9.078125 75.984375 
L 18.109375 75.984375 
z
" id="DejaVuSans-98"/>
       <path d="M 34.1875 63.1875 
L 20.796875 26.90625 
L 47.609375 26.90625 
z
M 28.609375 72.90625 
L 39.796875 72.90625 
L 67.578125 0 
L 57.328125 0 
L 50.6875 18.703125 
L 17.828125 18.703125 
L 11.1875 0 
L 0.78125 0 
z
" id="DejaVuSans-65"/>
       <path d="M 37.109375 75.984375 
L 37.109375 68.5 
L 28.515625 68.5 
Q 23.6875 68.5 21.796875 66.546875 
Q 19.921875 64.59375 19.921875 59.515625 
L 19.921875 54.6875 
L 34.71875 54.6875 
L 34.71875 47.703125 
L 19.921875 47.703125 
L 19.921875 0 
L 10.890625 0 
L 10.890625 47.703125 
L 2.296875 47.703125 
L 2.296875 54.6875 
L 10.890625 54.6875 
L 10.890625 58.5 
Q 10.890625 67.625 15.140625 71.796875 
Q 19.390625 75.984375 28.609375 75.984375 
z
" id="DejaVuSans-102"/>
       <path d="M 2.984375 54.6875 
L 12.5 54.6875 
L 29.59375 8.796875 
L 46.6875 54.6875 
L 56.203125 54.6875 
L 35.6875 0 
L 23.484375 0 
z
" id="DejaVuSans-118"/>
       <path d="M 18.3125 70.21875 
L 18.3125 54.6875 
L 36.8125 54.6875 
L 36.8125 47.703125 
L 18.3125 47.703125 
L 18.3125 18.015625 
Q 18.3125 11.328125 20.140625 9.421875 
Q 21.96875 7.515625 27.59375 7.515625 
L 36.8125 7.515625 
L 36.8125 0 
L 27.59375 0 
Q 17.1875 0 13.234375 3.875 
Q 9.28125 7.765625 9.28125 18.015625 
L 9.28125 47.703125 
L 2.6875 47.703125 
L 2.6875 54.6875 
L 9.28125 54.6875 
L 9.28125 70.21875 
z
" id="DejaVuSans-116"/>
       <path d="M 52 44.1875 
Q 55.375 50.25 60.0625 53.125 
Q 64.75 56 71.09375 56 
Q 79.640625 56 84.28125 50.015625 
Q 88.921875 44.046875 88.921875 33.015625 
L 88.921875 0 
L 79.890625 0 
L 79.890625 32.71875 
Q 79.890625 40.578125 77.09375 44.375 
Q 74.3125 48.1875 68.609375 48.1875 
Q 61.625 48.1875 57.5625 43.546875 
Q 53.515625 38.921875 53.515625 30.90625 
L 53.515625 0 
L 44.484375 0 
L 44.484375 32.71875 
Q 44.484375 40.625 41.703125 44.40625 
Q 38.921875 48.1875 33.109375 48.1875 
Q 26.21875 48.1875 22.15625 43.53125 
Q 18.109375 38.875 18.109375 30.90625 
L 18.109375 0 
L 9.078125 0 
L 9.078125 54.6875 
L 18.109375 54.6875 
L 18.109375 46.1875 
Q 21.1875 51.21875 25.484375 53.609375 
Q 29.78125 56 35.6875 56 
Q 41.65625 56 45.828125 52.96875 
Q 50 49.953125 52 44.1875 
z
" id="DejaVuSans-109"/>
       <path d="M 9.8125 72.90625 
L 19.671875 72.90625 
L 19.671875 8.296875 
L 55.171875 8.296875 
L 55.171875 0 
L 9.8125 0 
z
" id="DejaVuSans-76"/>
       <path d="M 9.078125 75.984375 
L 18.109375 75.984375 
L 18.109375 31.109375 
L 44.921875 54.6875 
L 56.390625 54.6875 
L 27.390625 29.109375 
L 57.625 0 
L 45.90625 0 
L 18.109375 26.703125 
L 18.109375 0 
L 9.078125 0 
z
" id="DejaVuSans-107"/>
       <path d="M 4.203125 54.6875 
L 13.1875 54.6875 
L 24.421875 12.015625 
L 35.59375 54.6875 
L 46.1875 54.6875 
L 57.421875 12.015625 
L 68.609375 54.6875 
L 77.59375 54.6875 
L 63.28125 0 
L 52.6875 0 
L 40.921875 44.828125 
L 29.109375 0 
L 18.5 0 
z
" id="DejaVuSans-119"/>
      </defs>
      <use xlink:href="#DejaVuSans-80"/>
      <use x="58.552734" xlink:href="#DejaVuSans-114"/>
      <use x="97.416016" xlink:href="#DejaVuSans-101"/>
      <use x="158.939453" xlink:href="#DejaVuSans-105"/>
      <use x="186.722656" xlink:href="#DejaVuSans-115"/>
      <use x="238.822266" xlink:href="#DejaVuSans-228"/>
      <use x="300.101562" xlink:href="#DejaVuSans-110"/>
      <use x="363.480469" xlink:href="#DejaVuSans-100"/>
      <use x="426.957031" xlink:href="#DejaVuSans-101"/>
      <use x="488.480469" xlink:href="#DejaVuSans-114"/>
      <use x="529.59375" xlink:href="#DejaVuSans-117"/>
      <use x="592.972656" xlink:href="#DejaVuSans-110"/>
      <use x="656.351562" xlink:href="#DejaVuSans-103"/>
      <use x="719.828125" xlink:href="#DejaVuSans-95"/>
      <use x="769.828125" xlink:href="#DejaVuSans-105"/>
      <use x="797.611328" xlink:href="#DejaVuSans-110"/>
      <use x="860.990234" xlink:href="#DejaVuSans-95"/>
      <use x="910.990234" xlink:href="#DejaVuSans-101"/>
      <use x="972.513672" xlink:href="#DejaVuSans-105"/>
      <use x="1000.296875" xlink:href="#DejaVuSans-110"/>
      <use x="1063.675781" xlink:href="#DejaVuSans-101"/>
      <use x="1125.199219" xlink:href="#DejaVuSans-114"/>
      <use x="1166.3125" xlink:href="#DejaVuSans-95"/>
      <use x="1216.3125" xlink:href="#DejaVuSans-87"/>
      <use x="1309.314453" xlink:href="#DejaVuSans-111"/>
      <use x="1370.496094" xlink:href="#DejaVuSans-99"/>
      <use x="1425.476562" xlink:href="#DejaVuSans-104"/>
      <use x="1488.855469" xlink:href="#DejaVuSans-101"/>
      <use x="1550.378906" xlink:href="#DejaVuSans-95"/>
      <use x="1600.378906" xlink:href="#DejaVuSans-97"/>
      <use x="1661.658203" xlink:href="#DejaVuSans-98"/>
      <use x="1725.134766" xlink:href="#DejaVuSans-95"/>
      <use x="1775.134766" xlink:href="#DejaVuSans-65"/>
      <use x="1843.542969" xlink:href="#DejaVuSans-117"/>
      <use x="1906.921875" xlink:href="#DejaVuSans-102"/>
      <use x="1942.126953" xlink:href="#DejaVuSans-104"/>
      <use x="2005.505859" xlink:href="#DejaVuSans-101"/>
      <use x="2067.029297" xlink:href="#DejaVuSans-98"/>
      <use x="2130.505859" xlink:href="#DejaVuSans-117"/>
      <use x="2193.884766" xlink:href="#DejaVuSans-110"/>
      <use x="2257.263672" xlink:href="#DejaVuSans-103"/>
      <use x="2320.740234" xlink:href="#DejaVuSans-95"/>
      <use x="2370.740234" xlink:href="#DejaVuSans-118"/>
      <use x="2429.919922" xlink:href="#DejaVuSans-111"/>
      <use x="2491.101562" xlink:href="#DejaVuSans-110"/>
      <use x="2554.480469" xlink:href="#DejaVuSans-95"/>
      <use x="2604.480469" xlink:href="#DejaVuSans-101"/>
      <use x="2666.003906" xlink:href="#DejaVuSans-114"/>
      <use x="2707.117188" xlink:href="#DejaVuSans-115"/>
      <use x="2759.216797" xlink:href="#DejaVuSans-116"/>
      <use x="2798.425781" xlink:href="#DejaVuSans-101"/>
      <use x="2859.949219" xlink:href="#DejaVuSans-109"/>
      <use x="2957.361328" xlink:href="#DejaVuSans-95"/>
      <use x="3007.361328" xlink:href="#DejaVuSans-76"/>
      <use x="3061.324219" xlink:href="#DejaVuSans-111"/>
      <use x="3122.505859" xlink:href="#DejaVuSans-99"/>
      <use x="3177.486328" xlink:href="#DejaVuSans-107"/>
      <use x="3235.396484" xlink:href="#DejaVuSans-100"/>
      <use x="3298.873047" xlink:href="#DejaVuSans-111"/>
      <use x="3360.054688" xlink:href="#DejaVuSans-119"/>
      <use x="3441.841797" xlink:href="#DejaVuSans-110"/>
     </g>
    </g>
   </g>
   <g id="line2d_25">
    <path clip-path="url(#p5d2207107d)" d="M 115.363636 278.258437 
L 226.852148 278.258437 
L 228.245754 120.525466 
L 229.639361 84.194617 
L 231.032967 66.96 
L 232.426573 126.559558 
L 233.82018 369.36 
L 235.213786 368.285253 
L 236.607393 359.203758 
L 238.000999 278.258437 
L 622.636364 278.258437 
L 622.636364 278.258437 
" style="fill:none;stroke:#0072b2;stroke-linecap:square;stroke-width:1.5;"/>
   </g>
   <g id="patch_3">
    <path d="M 90 384.48 
L 90 51.84 
" style="fill:none;stroke:#000000;stroke-linecap:square;stroke-linejoin:miter;stroke-width:0.8;"/>
   </g>
   <g id="patch_4">
    <path d="M 648 384.48 
L 648 51.84 
" style="fill:none;stroke:#000000;stroke-linecap:square;stroke-linejoin:miter;stroke-width:0.8;"/>
   </g>
   <g id="patch_5">
    <path d="M 90 384.48 
L 648 384.48 
" style="fill:none;stroke:#000000;stroke-linecap:square;stroke-linejoin:miter;stroke-width:0.8;"/>
   </g>
   <g id="patch_6">
    <path d="M 90 51.84 
L 648 51.84 
" style="fill:none;stroke:#000000;stroke-linecap:square;stroke-linejoin:miter;stroke-width:0.8;"/>
   </g>
  </g>
 </g>
 <defs>
  <clipPath id="p5d2207107d">
   <rect height="332.64" width="558" x="90" y="51.84"/>
  </clipPath>
 </defs>
</svg>
