<?xml version="1.0" encoding="utf-8" standalone="no"?>
<!DOCTYPE svg PUBLIC "-//W3C//DTD SVG 1.1//EN"
  "http://www.w3.org/Graphics/SVG/1.1/DTD/svg11.dtd">
<!-- Created with matplotlib (https://matplotlib.org/) -->
<svg height="432pt" version="1.1" viewBox="0 0 864 432" width="864pt" xmlns="http://www.w3.org/2000/svg" xmlns:xlink="http://www.w3.org/1999/xlink">
 <metadata>
  <rdf:RDF xmlns:cc="http://creativecommons.org/ns#" xmlns:dc="http://purl.org/dc/elements/1.1/" xmlns:rdf="http://www.w3.org/1999/02/22-rdf-syntax-ns#">
   <cc:Work>
    <dc:type rdf:resource="http://purl.org/dc/dcmitype/StillImage"/>
    <dc:date>2021-02-19T21:15:07.081335</dc:date>
    <dc:format>image/svg+xml</dc:format>
    <dc:creator>
     <cc:Agent>
      <dc:title>Matplotlib v3.3.2, https://matplotlib.org/</dc:title>
     </cc:Agent>
    </dc:creator>
   </cc:Work>
  </rdf:RDF>
 </metadata>
 <defs>
  <style type="text/css">*{stroke-linecap:butt;stroke-linejoin:round;}</style>
 </defs>
 <g id="figure_1">
  <g id="patch_1">
   <path d="M 0 432 
L 864 432 
L 864 0 
L 0 0 
z
" style="fill:#ffffff;"/>
  </g>
  <g id="axes_1">
   <g id="patch_2">
    <path d="M 44.66 390.04 
L 853.2 390.04 
L 853.2 28.32 
L 44.66 28.32 
z
" style="fill:#ffffff;"/>
   </g>
   <g id="matplotlib.axis_1">
    <g id="xtick_1">
     <g id="line2d_1">
      <path clip-path="url(#pd43030f838)" d="M 129.875754 390.04 
L 129.875754 28.32 
" style="fill:none;stroke:#b0b0b0;stroke-linecap:square;stroke-width:0.8;"/>
     </g>
     <g id="line2d_2">
      <defs>
       <path d="M 0 0 
L 0 3.5 
" id="me3d64d7959" style="stroke:#000000;stroke-width:0.8;"/>
      </defs>
      <g>
       <use style="stroke:#000000;stroke-width:0.8;" x="129.875754" xlink:href="#me3d64d7959" y="390.04"/>
      </g>
     </g>
     <g id="text_1">
      <!-- 2020-03 -->
      <g transform="translate(108.984348 404.638438)scale(0.1 -0.1)">
       <defs>
        <path d="M 19.1875 8.296875 
L 53.609375 8.296875 
L 53.609375 0 
L 7.328125 0 
L 7.328125 8.296875 
Q 12.9375 14.109375 22.625 23.890625 
Q 32.328125 33.6875 34.8125 36.53125 
Q 39.546875 41.84375 41.421875 45.53125 
Q 43.3125 49.21875 43.3125 52.78125 
Q 43.3125 58.59375 39.234375 62.25 
Q 35.15625 65.921875 28.609375 65.921875 
Q 23.96875 65.921875 18.8125 64.3125 
Q 13.671875 62.703125 7.8125 59.421875 
L 7.8125 69.390625 
Q 13.765625 71.78125 18.9375 73 
Q 24.125 74.21875 28.421875 74.21875 
Q 39.75 74.21875 46.484375 68.546875 
Q 53.21875 62.890625 53.21875 53.421875 
Q 53.21875 48.921875 51.53125 44.890625 
Q 49.859375 40.875 45.40625 35.40625 
Q 44.1875 33.984375 37.640625 27.21875 
Q 31.109375 20.453125 19.1875 8.296875 
z
" id="DejaVuSans-50"/>
        <path d="M 31.78125 66.40625 
Q 24.171875 66.40625 20.328125 58.90625 
Q 16.5 51.421875 16.5 36.375 
Q 16.5 21.390625 20.328125 13.890625 
Q 24.171875 6.390625 31.78125 6.390625 
Q 39.453125 6.390625 43.28125 13.890625 
Q 47.125 21.390625 47.125 36.375 
Q 47.125 51.421875 43.28125 58.90625 
Q 39.453125 66.40625 31.78125 66.40625 
z
M 31.78125 74.21875 
Q 44.046875 74.21875 50.515625 64.515625 
Q 56.984375 54.828125 56.984375 36.375 
Q 56.984375 17.96875 50.515625 8.265625 
Q 44.046875 -1.421875 31.78125 -1.421875 
Q 19.53125 -1.421875 13.0625 8.265625 
Q 6.59375 17.96875 6.59375 36.375 
Q 6.59375 54.828125 13.0625 64.515625 
Q 19.53125 74.21875 31.78125 74.21875 
z
" id="DejaVuSans-48"/>
        <path d="M 4.890625 31.390625 
L 31.203125 31.390625 
L 31.203125 23.390625 
L 4.890625 23.390625 
z
" id="DejaVuSans-45"/>
        <path d="M 40.578125 39.3125 
Q 47.65625 37.796875 51.625 33 
Q 55.609375 28.21875 55.609375 21.1875 
Q 55.609375 10.40625 48.1875 4.484375 
Q 40.765625 -1.421875 27.09375 -1.421875 
Q 22.515625 -1.421875 17.65625 -0.515625 
Q 12.796875 0.390625 7.625 2.203125 
L 7.625 11.71875 
Q 11.71875 9.328125 16.59375 8.109375 
Q 21.484375 6.890625 26.8125 6.890625 
Q 36.078125 6.890625 40.9375 10.546875 
Q 45.796875 14.203125 45.796875 21.1875 
Q 45.796875 27.640625 41.28125 31.265625 
Q 36.765625 34.90625 28.71875 34.90625 
L 20.21875 34.90625 
L 20.21875 43.015625 
L 29.109375 43.015625 
Q 36.375 43.015625 40.234375 45.921875 
Q 44.09375 48.828125 44.09375 54.296875 
Q 44.09375 59.90625 40.109375 62.90625 
Q 36.140625 65.921875 28.71875 65.921875 
Q 24.65625 65.921875 20.015625 65.03125 
Q 15.375 64.15625 9.8125 62.3125 
L 9.8125 71.09375 
Q 15.4375 72.65625 20.34375 73.4375 
Q 25.25 74.21875 29.59375 74.21875 
Q 40.828125 74.21875 47.359375 69.109375 
Q 53.90625 64.015625 53.90625 55.328125 
Q 53.90625 49.265625 50.4375 45.09375 
Q 46.96875 40.921875 40.578125 39.3125 
z
" id="DejaVuSans-51"/>
       </defs>
       <use xlink:href="#DejaVuSans-50"/>
       <use x="63.623047" xlink:href="#DejaVuSans-48"/>
       <use x="127.246094" xlink:href="#DejaVuSans-50"/>
       <use x="190.869141" xlink:href="#DejaVuSans-48"/>
       <use x="254.492188" xlink:href="#DejaVuSans-45"/>
       <use x="290.576172" xlink:href="#DejaVuSans-48"/>
       <use x="354.199219" xlink:href="#DejaVuSans-51"/>
      </g>
     </g>
    </g>
    <g id="xtick_2">
     <g id="line2d_3">
      <path clip-path="url(#pd43030f838)" d="M 253.054925 390.04 
L 253.054925 28.32 
" style="fill:none;stroke:#b0b0b0;stroke-linecap:square;stroke-width:0.8;"/>
     </g>
     <g id="line2d_4">
      <g>
       <use style="stroke:#000000;stroke-width:0.8;" x="253.054925" xlink:href="#me3d64d7959" y="390.04"/>
      </g>
     </g>
     <g id="text_2">
      <!-- 2020-05 -->
      <g transform="translate(232.163519 404.638438)scale(0.1 -0.1)">
       <defs>
        <path d="M 10.796875 72.90625 
L 49.515625 72.90625 
L 49.515625 64.59375 
L 19.828125 64.59375 
L 19.828125 46.734375 
Q 21.96875 47.46875 24.109375 47.828125 
Q 26.265625 48.1875 28.421875 48.1875 
Q 40.625 48.1875 47.75 41.5 
Q 54.890625 34.8125 54.890625 23.390625 
Q 54.890625 11.625 47.5625 5.09375 
Q 40.234375 -1.421875 26.90625 -1.421875 
Q 22.3125 -1.421875 17.546875 -0.640625 
Q 12.796875 0.140625 7.71875 1.703125 
L 7.71875 11.625 
Q 12.109375 9.234375 16.796875 8.0625 
Q 21.484375 6.890625 26.703125 6.890625 
Q 35.15625 6.890625 40.078125 11.328125 
Q 45.015625 15.765625 45.015625 23.390625 
Q 45.015625 31 40.078125 35.4375 
Q 35.15625 39.890625 26.703125 39.890625 
Q 22.75 39.890625 18.8125 39.015625 
Q 14.890625 38.140625 10.796875 36.28125 
z
" id="DejaVuSans-53"/>
       </defs>
       <use xlink:href="#DejaVuSans-50"/>
       <use x="63.623047" xlink:href="#DejaVuSans-48"/>
       <use x="127.246094" xlink:href="#DejaVuSans-50"/>
       <use x="190.869141" xlink:href="#DejaVuSans-48"/>
       <use x="254.492188" xlink:href="#DejaVuSans-45"/>
       <use x="290.576172" xlink:href="#DejaVuSans-48"/>
       <use x="354.199219" xlink:href="#DejaVuSans-53"/>
      </g>
     </g>
    </g>
    <g id="xtick_3">
     <g id="line2d_5">
      <path clip-path="url(#pd43030f838)" d="M 376.234096 390.04 
L 376.234096 28.32 
" style="fill:none;stroke:#b0b0b0;stroke-linecap:square;stroke-width:0.8;"/>
     </g>
     <g id="line2d_6">
      <g>
       <use style="stroke:#000000;stroke-width:0.8;" x="376.234096" xlink:href="#me3d64d7959" y="390.04"/>
      </g>
     </g>
     <g id="text_3">
      <!-- 2020-07 -->
      <g transform="translate(355.34269 404.638438)scale(0.1 -0.1)">
       <defs>
        <path d="M 8.203125 72.90625 
L 55.078125 72.90625 
L 55.078125 68.703125 
L 28.609375 0 
L 18.3125 0 
L 43.21875 64.59375 
L 8.203125 64.59375 
z
" id="DejaVuSans-55"/>
       </defs>
       <use xlink:href="#DejaVuSans-50"/>
       <use x="63.623047" xlink:href="#DejaVuSans-48"/>
       <use x="127.246094" xlink:href="#DejaVuSans-50"/>
       <use x="190.869141" xlink:href="#DejaVuSans-48"/>
       <use x="254.492188" xlink:href="#DejaVuSans-45"/>
       <use x="290.576172" xlink:href="#DejaVuSans-48"/>
       <use x="354.199219" xlink:href="#DejaVuSans-55"/>
      </g>
     </g>
    </g>
    <g id="xtick_4">
     <g id="line2d_7">
      <path clip-path="url(#pd43030f838)" d="M 501.432597 390.04 
L 501.432597 28.32 
" style="fill:none;stroke:#b0b0b0;stroke-linecap:square;stroke-width:0.8;"/>
     </g>
     <g id="line2d_8">
      <g>
       <use style="stroke:#000000;stroke-width:0.8;" x="501.432597" xlink:href="#me3d64d7959" y="390.04"/>
      </g>
     </g>
     <g id="text_4">
      <!-- 2020-09 -->
      <g transform="translate(480.541191 404.638438)scale(0.1 -0.1)">
       <defs>
        <path d="M 10.984375 1.515625 
L 10.984375 10.5 
Q 14.703125 8.734375 18.5 7.8125 
Q 22.3125 6.890625 25.984375 6.890625 
Q 35.75 6.890625 40.890625 13.453125 
Q 46.046875 20.015625 46.78125 33.40625 
Q 43.953125 29.203125 39.59375 26.953125 
Q 35.25 24.703125 29.984375 24.703125 
Q 19.046875 24.703125 12.671875 31.3125 
Q 6.296875 37.9375 6.296875 49.421875 
Q 6.296875 60.640625 12.9375 67.421875 
Q 19.578125 74.21875 30.609375 74.21875 
Q 43.265625 74.21875 49.921875 64.515625 
Q 56.59375 54.828125 56.59375 36.375 
Q 56.59375 19.140625 48.40625 8.859375 
Q 40.234375 -1.421875 26.421875 -1.421875 
Q 22.703125 -1.421875 18.890625 -0.6875 
Q 15.09375 0.046875 10.984375 1.515625 
z
M 30.609375 32.421875 
Q 37.25 32.421875 41.125 36.953125 
Q 45.015625 41.5 45.015625 49.421875 
Q 45.015625 57.28125 41.125 61.84375 
Q 37.25 66.40625 30.609375 66.40625 
Q 23.96875 66.40625 20.09375 61.84375 
Q 16.21875 57.28125 16.21875 49.421875 
Q 16.21875 41.5 20.09375 36.953125 
Q 23.96875 32.421875 30.609375 32.421875 
z
" id="DejaVuSans-57"/>
       </defs>
       <use xlink:href="#DejaVuSans-50"/>
       <use x="63.623047" xlink:href="#DejaVuSans-48"/>
       <use x="127.246094" xlink:href="#DejaVuSans-50"/>
       <use x="190.869141" xlink:href="#DejaVuSans-48"/>
       <use x="254.492188" xlink:href="#DejaVuSans-45"/>
       <use x="290.576172" xlink:href="#DejaVuSans-48"/>
       <use x="354.199219" xlink:href="#DejaVuSans-57"/>
      </g>
     </g>
    </g>
    <g id="xtick_5">
     <g id="line2d_9">
      <path clip-path="url(#pd43030f838)" d="M 624.611768 390.04 
L 624.611768 28.32 
" style="fill:none;stroke:#b0b0b0;stroke-linecap:square;stroke-width:0.8;"/>
     </g>
     <g id="line2d_10">
      <g>
       <use style="stroke:#000000;stroke-width:0.8;" x="624.611768" xlink:href="#me3d64d7959" y="390.04"/>
      </g>
     </g>
     <g id="text_5">
      <!-- 2020-11 -->
      <g transform="translate(603.720362 404.638438)scale(0.1 -0.1)">
       <defs>
        <path d="M 12.40625 8.296875 
L 28.515625 8.296875 
L 28.515625 63.921875 
L 10.984375 60.40625 
L 10.984375 69.390625 
L 28.421875 72.90625 
L 38.28125 72.90625 
L 38.28125 8.296875 
L 54.390625 8.296875 
L 54.390625 0 
L 12.40625 0 
z
" id="DejaVuSans-49"/>
       </defs>
       <use xlink:href="#DejaVuSans-50"/>
       <use x="63.623047" xlink:href="#DejaVuSans-48"/>
       <use x="127.246094" xlink:href="#DejaVuSans-50"/>
       <use x="190.869141" xlink:href="#DejaVuSans-48"/>
       <use x="254.492188" xlink:href="#DejaVuSans-45"/>
       <use x="290.576172" xlink:href="#DejaVuSans-49"/>
       <use x="354.199219" xlink:href="#DejaVuSans-49"/>
      </g>
     </g>
    </g>
    <g id="xtick_6">
     <g id="line2d_11">
      <path clip-path="url(#pd43030f838)" d="M 747.790939 390.04 
L 747.790939 28.32 
" style="fill:none;stroke:#b0b0b0;stroke-linecap:square;stroke-width:0.8;"/>
     </g>
     <g id="line2d_12">
      <g>
       <use style="stroke:#000000;stroke-width:0.8;" x="747.790939" xlink:href="#me3d64d7959" y="390.04"/>
      </g>
     </g>
     <g id="text_6">
      <!-- 2021-01 -->
      <g transform="translate(726.899533 404.638438)scale(0.1 -0.1)">
       <use xlink:href="#DejaVuSans-50"/>
       <use x="63.623047" xlink:href="#DejaVuSans-48"/>
       <use x="127.246094" xlink:href="#DejaVuSans-50"/>
       <use x="190.869141" xlink:href="#DejaVuSans-49"/>
       <use x="254.492188" xlink:href="#DejaVuSans-45"/>
       <use x="290.576172" xlink:href="#DejaVuSans-48"/>
       <use x="354.199219" xlink:href="#DejaVuSans-49"/>
      </g>
     </g>
    </g>
    <g id="text_7">
     <!-- Datum -->
     <g transform="translate(432.016719 418.316562)scale(0.1 -0.1)">
      <defs>
       <path d="M 19.671875 64.796875 
L 19.671875 8.109375 
L 31.59375 8.109375 
Q 46.6875 8.109375 53.6875 14.9375 
Q 60.6875 21.78125 60.6875 36.53125 
Q 60.6875 51.171875 53.6875 57.984375 
Q 46.6875 64.796875 31.59375 64.796875 
z
M 9.8125 72.90625 
L 30.078125 72.90625 
Q 51.265625 72.90625 61.171875 64.09375 
Q 71.09375 55.28125 71.09375 36.53125 
Q 71.09375 17.671875 61.125 8.828125 
Q 51.171875 0 30.078125 0 
L 9.8125 0 
z
" id="DejaVuSans-68"/>
       <path d="M 34.28125 27.484375 
Q 23.390625 27.484375 19.1875 25 
Q 14.984375 22.515625 14.984375 16.5 
Q 14.984375 11.71875 18.140625 8.90625 
Q 21.296875 6.109375 26.703125 6.109375 
Q 34.1875 6.109375 38.703125 11.40625 
Q 43.21875 16.703125 43.21875 25.484375 
L 43.21875 27.484375 
z
M 52.203125 31.203125 
L 52.203125 0 
L 43.21875 0 
L 43.21875 8.296875 
Q 40.140625 3.328125 35.546875 0.953125 
Q 30.953125 -1.421875 24.3125 -1.421875 
Q 15.921875 -1.421875 10.953125 3.296875 
Q 6 8.015625 6 15.921875 
Q 6 25.140625 12.171875 29.828125 
Q 18.359375 34.515625 30.609375 34.515625 
L 43.21875 34.515625 
L 43.21875 35.40625 
Q 43.21875 41.609375 39.140625 45 
Q 35.0625 48.390625 27.6875 48.390625 
Q 23 48.390625 18.546875 47.265625 
Q 14.109375 46.140625 10.015625 43.890625 
L 10.015625 52.203125 
Q 14.9375 54.109375 19.578125 55.046875 
Q 24.21875 56 28.609375 56 
Q 40.484375 56 46.34375 49.84375 
Q 52.203125 43.703125 52.203125 31.203125 
z
" id="DejaVuSans-97"/>
       <path d="M 18.3125 70.21875 
L 18.3125 54.6875 
L 36.8125 54.6875 
L 36.8125 47.703125 
L 18.3125 47.703125 
L 18.3125 18.015625 
Q 18.3125 11.328125 20.140625 9.421875 
Q 21.96875 7.515625 27.59375 7.515625 
L 36.8125 7.515625 
L 36.8125 0 
L 27.59375 0 
Q 17.1875 0 13.234375 3.875 
Q 9.28125 7.765625 9.28125 18.015625 
L 9.28125 47.703125 
L 2.6875 47.703125 
L 2.6875 54.6875 
L 9.28125 54.6875 
L 9.28125 70.21875 
z
" id="DejaVuSans-116"/>
       <path d="M 8.5 21.578125 
L 8.5 54.6875 
L 17.484375 54.6875 
L 17.484375 21.921875 
Q 17.484375 14.15625 20.5 10.265625 
Q 23.53125 6.390625 29.59375 6.390625 
Q 36.859375 6.390625 41.078125 11.03125 
Q 45.3125 15.671875 45.3125 23.6875 
L 45.3125 54.6875 
L 54.296875 54.6875 
L 54.296875 0 
L 45.3125 0 
L 45.3125 8.40625 
Q 42.046875 3.421875 37.71875 1 
Q 33.40625 -1.421875 27.6875 -1.421875 
Q 18.265625 -1.421875 13.375 4.4375 
Q 8.5 10.296875 8.5 21.578125 
z
M 31.109375 56 
z
" id="DejaVuSans-117"/>
       <path d="M 52 44.1875 
Q 55.375 50.25 60.0625 53.125 
Q 64.75 56 71.09375 56 
Q 79.640625 56 84.28125 50.015625 
Q 88.921875 44.046875 88.921875 33.015625 
L 88.921875 0 
L 79.890625 0 
L 79.890625 32.71875 
Q 79.890625 40.578125 77.09375 44.375 
Q 74.3125 48.1875 68.609375 48.1875 
Q 61.625 48.1875 57.5625 43.546875 
Q 53.515625 38.921875 53.515625 30.90625 
L 53.515625 0 
L 44.484375 0 
L 44.484375 32.71875 
Q 44.484375 40.625 41.703125 44.40625 
Q 38.921875 48.1875 33.109375 48.1875 
Q 26.21875 48.1875 22.15625 43.53125 
Q 18.109375 38.875 18.109375 30.90625 
L 18.109375 0 
L 9.078125 0 
L 9.078125 54.6875 
L 18.109375 54.6875 
L 18.109375 46.1875 
Q 21.1875 51.21875 25.484375 53.609375 
Q 29.78125 56 35.6875 56 
Q 41.65625 56 45.828125 52.96875 
Q 50 49.953125 52 44.1875 
z
" id="DejaVuSans-109"/>
      </defs>
      <use xlink:href="#DejaVuSans-68"/>
      <use x="77.001953" xlink:href="#DejaVuSans-97"/>
      <use x="138.28125" xlink:href="#DejaVuSans-116"/>
      <use x="177.490234" xlink:href="#DejaVuSans-117"/>
      <use x="240.869141" xlink:href="#DejaVuSans-109"/>
     </g>
    </g>
   </g>
   <g id="matplotlib.axis_2">
    <g id="ytick_1">
     <g id="line2d_13">
      <path clip-path="url(#pd43030f838)" d="M 44.66 355.350114 
L 853.2 355.350114 
" style="fill:none;stroke:#b0b0b0;stroke-linecap:square;stroke-width:0.8;"/>
     </g>
     <g id="line2d_14">
      <defs>
       <path d="M 0 0 
L -3.5 0 
" id="m3fda9bfce8" style="stroke:#000000;stroke-width:0.8;"/>
      </defs>
      <g>
       <use style="stroke:#000000;stroke-width:0.8;" x="44.66" xlink:href="#m3fda9bfce8" y="355.350114"/>
      </g>
     </g>
     <g id="text_8">
      <!-- 17 -->
      <g transform="translate(24.935 359.149333)scale(0.1 -0.1)">
       <use xlink:href="#DejaVuSans-49"/>
       <use x="63.623047" xlink:href="#DejaVuSans-55"/>
      </g>
     </g>
    </g>
    <g id="ytick_2">
     <g id="line2d_15">
      <path clip-path="url(#pd43030f838)" d="M 44.66 304.643265 
L 853.2 304.643265 
" style="fill:none;stroke:#b0b0b0;stroke-linecap:square;stroke-width:0.8;"/>
     </g>
     <g id="line2d_16">
      <g>
       <use style="stroke:#000000;stroke-width:0.8;" x="44.66" xlink:href="#m3fda9bfce8" y="304.643265"/>
      </g>
     </g>
     <g id="text_9">
      <!-- 18 -->
      <g transform="translate(24.935 308.442484)scale(0.1 -0.1)">
       <defs>
        <path d="M 31.78125 34.625 
Q 24.75 34.625 20.71875 30.859375 
Q 16.703125 27.09375 16.703125 20.515625 
Q 16.703125 13.921875 20.71875 10.15625 
Q 24.75 6.390625 31.78125 6.390625 
Q 38.8125 6.390625 42.859375 10.171875 
Q 46.921875 13.96875 46.921875 20.515625 
Q 46.921875 27.09375 42.890625 30.859375 
Q 38.875 34.625 31.78125 34.625 
z
M 21.921875 38.8125 
Q 15.578125 40.375 12.03125 44.71875 
Q 8.5 49.078125 8.5 55.328125 
Q 8.5 64.0625 14.71875 69.140625 
Q 20.953125 74.21875 31.78125 74.21875 
Q 42.671875 74.21875 48.875 69.140625 
Q 55.078125 64.0625 55.078125 55.328125 
Q 55.078125 49.078125 51.53125 44.71875 
Q 48 40.375 41.703125 38.8125 
Q 48.828125 37.15625 52.796875 32.3125 
Q 56.78125 27.484375 56.78125 20.515625 
Q 56.78125 9.90625 50.3125 4.234375 
Q 43.84375 -1.421875 31.78125 -1.421875 
Q 19.734375 -1.421875 13.25 4.234375 
Q 6.78125 9.90625 6.78125 20.515625 
Q 6.78125 27.484375 10.78125 32.3125 
Q 14.796875 37.15625 21.921875 38.8125 
z
M 18.3125 54.390625 
Q 18.3125 48.734375 21.84375 45.5625 
Q 25.390625 42.390625 31.78125 42.390625 
Q 38.140625 42.390625 41.71875 45.5625 
Q 45.3125 48.734375 45.3125 54.390625 
Q 45.3125 60.0625 41.71875 63.234375 
Q 38.140625 66.40625 31.78125 66.40625 
Q 25.390625 66.40625 21.84375 63.234375 
Q 18.3125 60.0625 18.3125 54.390625 
z
" id="DejaVuSans-56"/>
       </defs>
       <use xlink:href="#DejaVuSans-49"/>
       <use x="63.623047" xlink:href="#DejaVuSans-56"/>
      </g>
     </g>
    </g>
    <g id="ytick_3">
     <g id="line2d_17">
      <path clip-path="url(#pd43030f838)" d="M 44.66 253.936416 
L 853.2 253.936416 
" style="fill:none;stroke:#b0b0b0;stroke-linecap:square;stroke-width:0.8;"/>
     </g>
     <g id="line2d_18">
      <g>
       <use style="stroke:#000000;stroke-width:0.8;" x="44.66" xlink:href="#m3fda9bfce8" y="253.936416"/>
      </g>
     </g>
     <g id="text_10">
      <!-- 19 -->
      <g transform="translate(24.935 257.735635)scale(0.1 -0.1)">
       <use xlink:href="#DejaVuSans-49"/>
       <use x="63.623047" xlink:href="#DejaVuSans-57"/>
      </g>
     </g>
    </g>
    <g id="ytick_4">
     <g id="line2d_19">
      <path clip-path="url(#pd43030f838)" d="M 44.66 203.229566 
L 853.2 203.229566 
" style="fill:none;stroke:#b0b0b0;stroke-linecap:square;stroke-width:0.8;"/>
     </g>
     <g id="line2d_20">
      <g>
       <use style="stroke:#000000;stroke-width:0.8;" x="44.66" xlink:href="#m3fda9bfce8" y="203.229566"/>
      </g>
     </g>
     <g id="text_11">
      <!-- 20 -->
      <g transform="translate(24.935 207.028785)scale(0.1 -0.1)">
       <use xlink:href="#DejaVuSans-50"/>
       <use x="63.623047" xlink:href="#DejaVuSans-48"/>
      </g>
     </g>
    </g>
    <g id="ytick_5">
     <g id="line2d_21">
      <path clip-path="url(#pd43030f838)" d="M 44.66 152.522717 
L 853.2 152.522717 
" style="fill:none;stroke:#b0b0b0;stroke-linecap:square;stroke-width:0.8;"/>
     </g>
     <g id="line2d_22">
      <g>
       <use style="stroke:#000000;stroke-width:0.8;" x="44.66" xlink:href="#m3fda9bfce8" y="152.522717"/>
      </g>
     </g>
     <g id="text_12">
      <!-- 21 -->
      <g transform="translate(24.935 156.321936)scale(0.1 -0.1)">
       <use xlink:href="#DejaVuSans-50"/>
       <use x="63.623047" xlink:href="#DejaVuSans-49"/>
      </g>
     </g>
    </g>
    <g id="ytick_6">
     <g id="line2d_23">
      <path clip-path="url(#pd43030f838)" d="M 44.66 101.815868 
L 853.2 101.815868 
" style="fill:none;stroke:#b0b0b0;stroke-linecap:square;stroke-width:0.8;"/>
     </g>
     <g id="line2d_24">
      <g>
       <use style="stroke:#000000;stroke-width:0.8;" x="44.66" xlink:href="#m3fda9bfce8" y="101.815868"/>
      </g>
     </g>
     <g id="text_13">
      <!-- 22 -->
      <g transform="translate(24.935 105.615087)scale(0.1 -0.1)">
       <use xlink:href="#DejaVuSans-50"/>
       <use x="63.623047" xlink:href="#DejaVuSans-50"/>
      </g>
     </g>
    </g>
    <g id="ytick_7">
     <g id="line2d_25">
      <path clip-path="url(#pd43030f838)" d="M 44.66 51.109019 
L 853.2 51.109019 
" style="fill:none;stroke:#b0b0b0;stroke-linecap:square;stroke-width:0.8;"/>
     </g>
     <g id="line2d_26">
      <g>
       <use style="stroke:#000000;stroke-width:0.8;" x="44.66" xlink:href="#m3fda9bfce8" y="51.109019"/>
      </g>
     </g>
     <g id="text_14">
      <!-- 23 -->
      <g transform="translate(24.935 54.908237)scale(0.1 -0.1)">
       <use xlink:href="#DejaVuSans-50"/>
       <use x="63.623047" xlink:href="#DejaVuSans-51"/>
      </g>
     </g>
    </g>
    <g id="text_15">
     <!-- durchschnittliche Produktpreise (€) -->
     <g transform="translate(18.855313 296.810469)rotate(-90)scale(0.1 -0.1)">
      <defs>
       <path d="M 45.40625 46.390625 
L 45.40625 75.984375 
L 54.390625 75.984375 
L 54.390625 0 
L 45.40625 0 
L 45.40625 8.203125 
Q 42.578125 3.328125 38.25 0.953125 
Q 33.9375 -1.421875 27.875 -1.421875 
Q 17.96875 -1.421875 11.734375 6.484375 
Q 5.515625 14.40625 5.515625 27.296875 
Q 5.515625 40.1875 11.734375 48.09375 
Q 17.96875 56 27.875 56 
Q 33.9375 56 38.25 53.625 
Q 42.578125 51.265625 45.40625 46.390625 
z
M 14.796875 27.296875 
Q 14.796875 17.390625 18.875 11.75 
Q 22.953125 6.109375 30.078125 6.109375 
Q 37.203125 6.109375 41.296875 11.75 
Q 45.40625 17.390625 45.40625 27.296875 
Q 45.40625 37.203125 41.296875 42.84375 
Q 37.203125 48.484375 30.078125 48.484375 
Q 22.953125 48.484375 18.875 42.84375 
Q 14.796875 37.203125 14.796875 27.296875 
z
" id="DejaVuSans-100"/>
       <path d="M 41.109375 46.296875 
Q 39.59375 47.171875 37.8125 47.578125 
Q 36.03125 48 33.890625 48 
Q 26.265625 48 22.1875 43.046875 
Q 18.109375 38.09375 18.109375 28.8125 
L 18.109375 0 
L 9.078125 0 
L 9.078125 54.6875 
L 18.109375 54.6875 
L 18.109375 46.1875 
Q 20.953125 51.171875 25.484375 53.578125 
Q 30.03125 56 36.53125 56 
Q 37.453125 56 38.578125 55.875 
Q 39.703125 55.765625 41.0625 55.515625 
z
" id="DejaVuSans-114"/>
       <path d="M 48.78125 52.59375 
L 48.78125 44.1875 
Q 44.96875 46.296875 41.140625 47.34375 
Q 37.3125 48.390625 33.40625 48.390625 
Q 24.65625 48.390625 19.8125 42.84375 
Q 14.984375 37.3125 14.984375 27.296875 
Q 14.984375 17.28125 19.8125 11.734375 
Q 24.65625 6.203125 33.40625 6.203125 
Q 37.3125 6.203125 41.140625 7.25 
Q 44.96875 8.296875 48.78125 10.40625 
L 48.78125 2.09375 
Q 45.015625 0.34375 40.984375 -0.53125 
Q 36.96875 -1.421875 32.421875 -1.421875 
Q 20.0625 -1.421875 12.78125 6.34375 
Q 5.515625 14.109375 5.515625 27.296875 
Q 5.515625 40.671875 12.859375 48.328125 
Q 20.21875 56 33.015625 56 
Q 37.15625 56 41.109375 55.140625 
Q 45.0625 54.296875 48.78125 52.59375 
z
" id="DejaVuSans-99"/>
       <path d="M 54.890625 33.015625 
L 54.890625 0 
L 45.90625 0 
L 45.90625 32.71875 
Q 45.90625 40.484375 42.875 44.328125 
Q 39.84375 48.1875 33.796875 48.1875 
Q 26.515625 48.1875 22.3125 43.546875 
Q 18.109375 38.921875 18.109375 30.90625 
L 18.109375 0 
L 9.078125 0 
L 9.078125 75.984375 
L 18.109375 75.984375 
L 18.109375 46.1875 
Q 21.34375 51.125 25.703125 53.5625 
Q 30.078125 56 35.796875 56 
Q 45.21875 56 50.046875 50.171875 
Q 54.890625 44.34375 54.890625 33.015625 
z
" id="DejaVuSans-104"/>
       <path d="M 44.28125 53.078125 
L 44.28125 44.578125 
Q 40.484375 46.53125 36.375 47.5 
Q 32.28125 48.484375 27.875 48.484375 
Q 21.1875 48.484375 17.84375 46.4375 
Q 14.5 44.390625 14.5 40.28125 
Q 14.5 37.15625 16.890625 35.375 
Q 19.28125 33.59375 26.515625 31.984375 
L 29.59375 31.296875 
Q 39.15625 29.25 43.1875 25.515625 
Q 47.21875 21.78125 47.21875 15.09375 
Q 47.21875 7.46875 41.1875 3.015625 
Q 35.15625 -1.421875 24.609375 -1.421875 
Q 20.21875 -1.421875 15.453125 -0.5625 
Q 10.6875 0.296875 5.421875 2 
L 5.421875 11.28125 
Q 10.40625 8.6875 15.234375 7.390625 
Q 20.0625 6.109375 24.8125 6.109375 
Q 31.15625 6.109375 34.5625 8.28125 
Q 37.984375 10.453125 37.984375 14.40625 
Q 37.984375 18.0625 35.515625 20.015625 
Q 33.0625 21.96875 24.703125 23.78125 
L 21.578125 24.515625 
Q 13.234375 26.265625 9.515625 29.90625 
Q 5.8125 33.546875 5.8125 39.890625 
Q 5.8125 47.609375 11.28125 51.796875 
Q 16.75 56 26.8125 56 
Q 31.78125 56 36.171875 55.265625 
Q 40.578125 54.546875 44.28125 53.078125 
z
" id="DejaVuSans-115"/>
       <path d="M 54.890625 33.015625 
L 54.890625 0 
L 45.90625 0 
L 45.90625 32.71875 
Q 45.90625 40.484375 42.875 44.328125 
Q 39.84375 48.1875 33.796875 48.1875 
Q 26.515625 48.1875 22.3125 43.546875 
Q 18.109375 38.921875 18.109375 30.90625 
L 18.109375 0 
L 9.078125 0 
L 9.078125 54.6875 
L 18.109375 54.6875 
L 18.109375 46.1875 
Q 21.34375 51.125 25.703125 53.5625 
Q 30.078125 56 35.796875 56 
Q 45.21875 56 50.046875 50.171875 
Q 54.890625 44.34375 54.890625 33.015625 
z
" id="DejaVuSans-110"/>
       <path d="M 9.421875 54.6875 
L 18.40625 54.6875 
L 18.40625 0 
L 9.421875 0 
z
M 9.421875 75.984375 
L 18.40625 75.984375 
L 18.40625 64.59375 
L 9.421875 64.59375 
z
" id="DejaVuSans-105"/>
       <path d="M 9.421875 75.984375 
L 18.40625 75.984375 
L 18.40625 0 
L 9.421875 0 
z
" id="DejaVuSans-108"/>
       <path d="M 56.203125 29.59375 
L 56.203125 25.203125 
L 14.890625 25.203125 
Q 15.484375 15.921875 20.484375 11.0625 
Q 25.484375 6.203125 34.421875 6.203125 
Q 39.59375 6.203125 44.453125 7.46875 
Q 49.3125 8.734375 54.109375 11.28125 
L 54.109375 2.78125 
Q 49.265625 0.734375 44.1875 -0.34375 
Q 39.109375 -1.421875 33.890625 -1.421875 
Q 20.796875 -1.421875 13.15625 6.1875 
Q 5.515625 13.8125 5.515625 26.8125 
Q 5.515625 40.234375 12.765625 48.109375 
Q 20.015625 56 32.328125 56 
Q 43.359375 56 49.78125 48.890625 
Q 56.203125 41.796875 56.203125 29.59375 
z
M 47.21875 32.234375 
Q 47.125 39.59375 43.09375 43.984375 
Q 39.0625 48.390625 32.421875 48.390625 
Q 24.90625 48.390625 20.390625 44.140625 
Q 15.875 39.890625 15.1875 32.171875 
z
" id="DejaVuSans-101"/>
       <path id="DejaVuSans-32"/>
       <path d="M 19.671875 64.796875 
L 19.671875 37.40625 
L 32.078125 37.40625 
Q 38.96875 37.40625 42.71875 40.96875 
Q 46.484375 44.53125 46.484375 51.125 
Q 46.484375 57.671875 42.71875 61.234375 
Q 38.96875 64.796875 32.078125 64.796875 
z
M 9.8125 72.90625 
L 32.078125 72.90625 
Q 44.34375 72.90625 50.609375 67.359375 
Q 56.890625 61.8125 56.890625 51.125 
Q 56.890625 40.328125 50.609375 34.8125 
Q 44.34375 29.296875 32.078125 29.296875 
L 19.671875 29.296875 
L 19.671875 0 
L 9.8125 0 
z
" id="DejaVuSans-80"/>
       <path d="M 30.609375 48.390625 
Q 23.390625 48.390625 19.1875 42.75 
Q 14.984375 37.109375 14.984375 27.296875 
Q 14.984375 17.484375 19.15625 11.84375 
Q 23.34375 6.203125 30.609375 6.203125 
Q 37.796875 6.203125 41.984375 11.859375 
Q 46.1875 17.53125 46.1875 27.296875 
Q 46.1875 37.015625 41.984375 42.703125 
Q 37.796875 48.390625 30.609375 48.390625 
z
M 30.609375 56 
Q 42.328125 56 49.015625 48.375 
Q 55.71875 40.765625 55.71875 27.296875 
Q 55.71875 13.875 49.015625 6.21875 
Q 42.328125 -1.421875 30.609375 -1.421875 
Q 18.84375 -1.421875 12.171875 6.21875 
Q 5.515625 13.875 5.515625 27.296875 
Q 5.515625 40.765625 12.171875 48.375 
Q 18.84375 56 30.609375 56 
z
" id="DejaVuSans-111"/>
       <path d="M 9.078125 75.984375 
L 18.109375 75.984375 
L 18.109375 31.109375 
L 44.921875 54.6875 
L 56.390625 54.6875 
L 27.390625 29.109375 
L 57.625 0 
L 45.90625 0 
L 18.109375 26.703125 
L 18.109375 0 
L 9.078125 0 
z
" id="DejaVuSans-107"/>
       <path d="M 18.109375 8.203125 
L 18.109375 -20.796875 
L 9.078125 -20.796875 
L 9.078125 54.6875 
L 18.109375 54.6875 
L 18.109375 46.390625 
Q 20.953125 51.265625 25.265625 53.625 
Q 29.59375 56 35.59375 56 
Q 45.5625 56 51.78125 48.09375 
Q 58.015625 40.1875 58.015625 27.296875 
Q 58.015625 14.40625 51.78125 6.484375 
Q 45.5625 -1.421875 35.59375 -1.421875 
Q 29.59375 -1.421875 25.265625 0.953125 
Q 20.953125 3.328125 18.109375 8.203125 
z
M 48.6875 27.296875 
Q 48.6875 37.203125 44.609375 42.84375 
Q 40.53125 48.484375 33.40625 48.484375 
Q 26.265625 48.484375 22.1875 42.84375 
Q 18.109375 37.203125 18.109375 27.296875 
Q 18.109375 17.390625 22.1875 11.75 
Q 26.265625 6.109375 33.40625 6.109375 
Q 40.53125 6.109375 44.609375 11.75 
Q 48.6875 17.390625 48.6875 27.296875 
z
" id="DejaVuSans-112"/>
       <path d="M 31 75.875 
Q 24.46875 64.65625 21.28125 53.65625 
Q 18.109375 42.671875 18.109375 31.390625 
Q 18.109375 20.125 21.3125 9.0625 
Q 24.515625 -2 31 -13.1875 
L 23.1875 -13.1875 
Q 15.875 -1.703125 12.234375 9.375 
Q 8.59375 20.453125 8.59375 31.390625 
Q 8.59375 42.28125 12.203125 53.3125 
Q 15.828125 64.359375 23.1875 75.875 
z
" id="DejaVuSans-40"/>
       <path d="M 56.984375 67.28125 
L 56.984375 56.890625 
Q 52.546875 62.015625 48.40625 64.203125 
Q 44.28125 66.40625 39.3125 66.40625 
Q 31.640625 66.40625 26.703125 61.515625 
Q 21.78125 56.640625 20.21875 47.515625 
L 48.390625 47.515625 
L 45.703125 41.5 
L 19.4375 41.5 
Q 19.34375 40.328125 19.3125 39.203125 
Q 19.28125 38.09375 19.28125 36.375 
Q 19.28125 34.8125 19.3125 33.6875 
Q 19.34375 32.5625 19.4375 31.390625 
L 41.21875 31.390625 
L 38.484375 25.390625 
L 20.21875 25.390625 
Q 21.78125 16.265625 26.703125 11.328125 
Q 31.640625 6.390625 39.3125 6.390625 
Q 44.28125 6.390625 48.40625 8.59375 
Q 52.546875 10.796875 56.984375 15.921875 
L 56.984375 5.609375 
Q 52.640625 2.09375 48.125 0.328125 
Q 43.609375 -1.421875 38.921875 -1.421875 
Q 27.34375 -1.421875 19.796875 5.65625 
Q 12.25 12.75 10.296875 25.390625 
L 0 25.390625 
L 2.6875 31.390625 
L 9.46875 31.390625 
Q 9.46875 32.515625 9.4375 33.65625 
Q 9.421875 34.8125 9.421875 36.375 
Q 9.421875 38.09375 9.4375 39.234375 
Q 9.46875 40.375 9.46875 41.5 
L 0 41.5 
L 2.6875 47.515625 
L 10.296875 47.515625 
Q 12.25 60.0625 19.8125 67.140625 
Q 27.390625 74.21875 38.921875 74.21875 
Q 43.703125 74.21875 48.21875 72.484375 
Q 52.734375 70.75 56.984375 67.28125 
z
" id="DejaVuSans-8364"/>
       <path d="M 8.015625 75.875 
L 15.828125 75.875 
Q 23.140625 64.359375 26.78125 53.3125 
Q 30.421875 42.28125 30.421875 31.390625 
Q 30.421875 20.453125 26.78125 9.375 
Q 23.140625 -1.703125 15.828125 -13.1875 
L 8.015625 -13.1875 
Q 14.5 -2 17.703125 9.0625 
Q 20.90625 20.125 20.90625 31.390625 
Q 20.90625 42.671875 17.703125 53.65625 
Q 14.5 64.65625 8.015625 75.875 
z
" id="DejaVuSans-41"/>
      </defs>
      <use xlink:href="#DejaVuSans-100"/>
      <use x="63.476562" xlink:href="#DejaVuSans-117"/>
      <use x="126.855469" xlink:href="#DejaVuSans-114"/>
      <use x="165.71875" xlink:href="#DejaVuSans-99"/>
      <use x="220.699219" xlink:href="#DejaVuSans-104"/>
      <use x="284.078125" xlink:href="#DejaVuSans-115"/>
      <use x="336.177734" xlink:href="#DejaVuSans-99"/>
      <use x="391.158203" xlink:href="#DejaVuSans-104"/>
      <use x="454.537109" xlink:href="#DejaVuSans-110"/>
      <use x="517.916016" xlink:href="#DejaVuSans-105"/>
      <use x="545.699219" xlink:href="#DejaVuSans-116"/>
      <use x="584.908203" xlink:href="#DejaVuSans-116"/>
      <use x="624.117188" xlink:href="#DejaVuSans-108"/>
      <use x="651.900391" xlink:href="#DejaVuSans-105"/>
      <use x="679.683594" xlink:href="#DejaVuSans-99"/>
      <use x="734.664062" xlink:href="#DejaVuSans-104"/>
      <use x="798.042969" xlink:href="#DejaVuSans-101"/>
      <use x="859.566406" xlink:href="#DejaVuSans-32"/>
      <use x="891.353516" xlink:href="#DejaVuSans-80"/>
      <use x="949.90625" xlink:href="#DejaVuSans-114"/>
      <use x="988.769531" xlink:href="#DejaVuSans-111"/>
      <use x="1049.951172" xlink:href="#DejaVuSans-100"/>
      <use x="1113.427734" xlink:href="#DejaVuSans-117"/>
      <use x="1176.806641" xlink:href="#DejaVuSans-107"/>
      <use x="1234.716797" xlink:href="#DejaVuSans-116"/>
      <use x="1273.925781" xlink:href="#DejaVuSans-112"/>
      <use x="1337.402344" xlink:href="#DejaVuSans-114"/>
      <use x="1376.265625" xlink:href="#DejaVuSans-101"/>
      <use x="1437.789062" xlink:href="#DejaVuSans-105"/>
      <use x="1465.572266" xlink:href="#DejaVuSans-115"/>
      <use x="1517.671875" xlink:href="#DejaVuSans-101"/>
      <use x="1579.195312" xlink:href="#DejaVuSans-32"/>
      <use x="1610.982422" xlink:href="#DejaVuSans-40"/>
      <use x="1649.996094" xlink:href="#DejaVuSans-8364"/>
      <use x="1713.619141" xlink:href="#DejaVuSans-41"/>
     </g>
    </g>
   </g>
   <g id="line2d_27">
    <path clip-path="url(#pd43030f838)" d="M 81.411818 371.69505 
L 83.431149 370.931238 
L 85.45048 368.306035 
L 87.46981 369.984496 
L 89.489141 369.645916 
L 91.508472 368.44243 
L 93.527802 371.120424 
L 95.547133 372.852775 
L 97.566464 373.598182 
L 99.585794 367.236632 
L 101.605125 368.234773 
L 103.624456 364.842053 
L 105.643786 362.156349 
L 107.663117 359.908932 
L 109.682448 361.001449 
L 111.701778 366.835694 
L 113.721109 366.717697 
L 115.74044 364.912661 
L 117.75977 365.257085 
L 119.779101 357.805729 
L 121.798432 354.961043 
L 123.817762 343.646081 
L 125.837093 340.134871 
L 127.856424 336.89314 
L 129.875754 344.181851 
L 131.895085 345.146557 
L 133.914416 339.902065 
L 135.933746 338.765148 
L 137.953077 319.795211 
L 139.972408 315.962688 
L 141.991738 314.420036 
L 144.011069 315.226029 
L 146.0304 316.916144 
L 148.04973 326.076369 
L 150.069061 320.506184 
L 152.088392 304.634183 
L 154.107722 295.66891 
L 156.127053 275.555697 
L 158.146384 260.507115 
L 160.165714 267.695379 
L 162.185045 246.496393 
L 164.204376 182.3239 
L 166.223706 141.764882 
L 168.243037 112.346383 
L 170.262368 91.721667 
L 172.281698 86.636242 
L 174.301029 83.265121 
L 176.32036 44.761818 
L 178.33969 51.28833 
L 180.359021 56.699627 
L 182.378352 98.994853 
L 184.397682 68.21261 
L 186.417013 45.517022 
L 188.436344 82.345007 
L 190.455674 81.962512 
L 192.475005 159.072234 
L 194.494336 108.903527 
L 196.513666 109.492321 
L 198.532997 100.007324 
L 200.552328 93.371769 
L 202.571658 85.631932 
L 204.590989 80.713367 
L 206.61032 79.985161 
L 208.62965 80.383773 
L 210.648981 72.415755 
L 212.668312 70.705807 
L 214.687642 63.868834 
L 216.706973 61.101085 
L 218.726304 68.072765 
L 220.745634 74.325212 
L 222.764965 103.602416 
L 224.784296 104.502636 
L 226.803626 103.273169 
L 228.822957 99.480028 
L 230.842288 99.707458 
L 232.861618 107.151831 
L 234.880949 105.001971 
L 236.90028 105.938735 
L 238.91961 112.707478 
L 240.938941 93.430585 
L 242.958272 96.826701 
L 244.977602 99.479484 
L 246.996933 97.230145 
L 249.016264 100.680475 
L 251.035594 112.09365 
L 253.054925 155.474187 
L 255.074256 156.9637 
L 257.093586 157.458368 
L 259.112917 142.772672 
L 261.132248 153.776609 
L 263.151578 158.530376 
L 265.170909 164.626222 
L 267.19024 159.532112 
L 269.20957 156.540684 
L 271.228901 157.499705 
L 275.267562 180.535525 
L 277.286893 192.454361 
L 279.306224 190.307498 
L 281.325554 190.212082 
L 283.344885 206.05661 
L 285.364216 205.15152 
L 287.383546 215.179753 
L 289.402877 212.948379 
L 291.422208 216.766387 
L 293.441538 215.872202 
L 295.460869 215.50962 
L 297.4802 215.408752 
L 299.49953 215.580501 
L 301.518861 217.261188 
L 303.538192 219.146337 
L 305.557522 224.214296 
L 307.576853 221.897048 
L 309.596184 222.472271 
L 311.615514 224.917649 
L 313.634845 224.24701 
L 315.654176 257.128766 
L 317.673506 269.370654 
L 319.692837 259.595954 
L 321.712168 258.930768 
L 323.731499 259.217016 
L 325.750829 261.959548 
L 327.77016 261.571068 
L 329.789491 264.809764 
L 331.808821 265.098738 
L 333.828152 269.032608 
L 335.847483 265.659839 
L 337.866813 264.987805 
L 339.886144 265.699053 
L 341.905475 268.869921 
L 343.924805 268.512945 
L 345.944136 270.880617 
L 347.963467 273.92438 
L 349.982797 289.2081 
L 352.002128 291.896239 
L 354.021459 287.042864 
L 356.040789 288.469668 
L 358.06012 281.802257 
L 360.079451 281.420607 
L 362.098781 279.369407 
L 364.118112 282.88652 
L 366.137443 282.374058 
L 368.156773 279.566301 
L 370.176104 284.494035 
L 372.195435 276.650657 
L 374.214765 282.589831 
L 376.234096 312.341365 
L 378.253427 269.375689 
L 380.272757 274.223007 
L 382.292088 276.179392 
L 384.311419 275.574761 
L 386.330749 278.791758 
L 388.35008 282.300158 
L 390.369411 280.070341 
L 392.388741 283.48503 
L 394.408072 288.79577 
L 396.427403 292.219445 
L 398.446733 289.245071 
L 400.466064 293.919087 
L 402.485395 293.191219 
L 404.504725 292.851034 
L 406.524056 295.826692 
L 408.543387 297.543022 
L 410.562717 301.614975 
L 412.582048 295.901148 
L 414.601379 293.791999 
L 416.620709 296.695769 
L 418.64004 298.761271 
L 420.659371 299.861417 
L 422.678701 307.255631 
L 424.698032 307.403258 
L 426.717363 307.14138 
L 428.736693 307.413528 
L 430.756024 297.578967 
L 432.775355 292.893397 
L 434.794685 292.07952 
L 436.814016 292.178366 
L 438.833347 310.590729 
L 440.852677 305.265868 
L 442.872008 307.556021 
L 444.891339 310.151698 
L 446.910669 315.305824 
L 448.93 311.214616 
L 450.949331 308.841022 
L 452.968661 309.604834 
L 454.987992 306.884636 
L 457.007323 306.961659 
L 459.026653 293.99611 
L 461.045984 303.332589 
L 463.065315 304.751097 
L 465.084645 305.698481 
L 467.103976 305.055338 
L 469.123307 305.167022 
L 473.161968 301.441673 
L 475.181299 304.471247 
L 477.200629 300.670159 
L 479.21996 302.585466 
L 481.239291 301.735645 
L 483.258621 301.234995 
L 485.277952 297.490526 
L 487.297283 299.896541 
L 489.316613 300.99903 
L 493.355275 302.307677 
L 495.374605 300.908117 
L 497.393936 298.835026 
L 499.413267 300.402329 
L 501.432597 305.86612 
L 503.451928 301.67 
L 505.471259 307.300253 
L 507.490589 307.605006 
L 509.50992 308.836824 
L 511.529251 308.250366 
L 513.548581 308.215793 
L 515.567912 311.89204 
L 517.587243 313.821717 
L 521.625904 315.736029 
L 523.645235 312.405511 
L 525.664565 312.880567 
L 527.683896 314.980548 
L 529.703227 315.554201 
L 531.722557 314.100861 
L 533.741888 309.397672 
L 535.761219 309.195357 
L 537.780549 307.435983 
L 539.79988 308.291341 
L 541.819211 308.800971 
L 543.838541 311.118632 
L 545.857872 302.040057 
L 547.877203 303.027304 
L 549.896533 299.62508 
L 551.915864 298.732588 
L 553.935195 298.546948 
L 555.954525 300.621203 
L 557.973856 297.726953 
L 559.993187 299.497222 
L 562.012517 308.630842 
L 566.051179 340.442045 
L 570.08984 340.795844 
L 572.109171 336.225841 
L 574.128501 336.918111 
L 576.147832 336.356121 
L 578.167163 325.043116 
L 580.186494 299.170165 
L 582.205824 299.649824 
L 584.225155 303.249138 
L 586.244486 302.011991 
L 588.263816 300.104566 
L 590.283147 296.011888 
L 592.302478 307.542401 
L 594.321808 307.254606 
L 596.341139 302.681022 
L 598.36047 299.31344 
L 600.3798 296.984911 
L 602.399131 293.708277 
L 604.418462 286.279163 
L 606.437792 284.766679 
L 608.457123 280.216767 
L 610.476454 279.767008 
L 612.495784 283.473156 
L 614.515115 282.961116 
L 616.534446 271.839165 
L 618.553776 274.857962 
L 620.573107 272.793413 
L 622.592438 265.349796 
L 624.611768 280.217193 
L 626.631099 291.551345 
L 628.65043 292.11108 
L 630.66976 296.06107 
L 632.689091 299.69996 
L 634.708422 301.751505 
L 636.727752 297.984011 
L 638.747083 299.083884 
L 640.766414 295.729148 
L 642.785744 297.320167 
L 644.805075 294.918328 
L 646.824406 296.272961 
L 648.843736 298.557218 
L 650.863067 296.217844 
L 652.882398 296.252139 
L 654.901728 297.682709 
L 656.921059 297.002943 
L 658.94039 306.626221 
L 660.95972 304.476692 
L 662.979051 302.770541 
L 664.998382 301.456327 
L 667.017712 301.360793 
L 669.037043 306.230451 
L 671.056374 303.367652 
L 673.075704 305.336055 
L 675.095035 307.908053 
L 677.114366 304.429441 
L 679.133696 303.010871 
L 681.153027 300.756555 
L 683.172358 298.68185 
L 685.191688 311.37689 
L 687.211019 313.545677 
L 689.23035 311.390331 
L 691.24968 307.488958 
L 693.269011 307.661239 
L 695.288342 308.241619 
L 697.307672 309.62842 
L 701.346334 311.269367 
L 703.365664 309.916777 
L 705.384995 303.026093 
L 707.404326 303.544833 
L 709.423656 298.597349 
L 711.442987 300.998064 
L 713.462318 304.938193 
L 715.481648 299.299643 
L 717.500979 297.806895 
L 719.52031 296.743604 
L 721.53964 297.462813 
L 723.558971 297.427887 
L 725.578302 299.850692 
L 727.597632 301.485729 
L 729.616963 291.530629 
L 731.636294 288.772797 
L 733.655624 289.837383 
L 735.674955 287.186915 
L 737.694286 287.458559 
L 739.713616 286.091285 
L 741.732947 285.538942 
L 743.752278 284.3256 
L 745.771608 285.528594 
L 747.790939 288.083339 
L 749.81027 288.972003 
L 751.8296 272.396555 
L 753.848931 271.466498 
L 755.868262 270.967191 
L 757.887592 271.441921 
L 759.906923 274.547715 
L 761.926254 274.455874 
L 763.945584 272.392674 
L 765.964915 270.52868 
L 767.984246 271.432866 
L 770.003576 276.093498 
L 772.022907 277.542265 
L 774.042238 288.45588 
L 776.061568 285.404414 
L 778.080899 283.298527 
L 780.10023 279.005261 
L 782.11956 279.857705 
L 784.138891 284.646398 
L 786.158222 280.712737 
L 788.177552 260.65378 
L 790.196883 266.042676 
L 792.216214 270.268678 
L 794.235544 273.446911 
L 796.254875 282.911758 
L 798.274206 286.243923 
L 800.293536 287.154576 
L 802.312867 289.616187 
L 804.332198 290.261664 
L 806.351528 290.266838 
L 808.370859 287.983737 
L 810.39019 300.514279 
L 812.40952 295.900214 
L 814.428851 293.826666 
L 816.448182 295.659615 
L 816.448182 295.659615 
" style="fill:none;stroke:#1f77b4;stroke-linecap:square;stroke-width:1.5;"/>
    <defs>
     <path d="M -3 3 
L 3 -3 
M -3 -3 
L 3 3 
" id="me142677785" style="stroke:#1f77b4;"/>
    </defs>
    <g clip-path="url(#pd43030f838)">
     <use style="fill:#1f77b4;stroke:#1f77b4;" x="81.411818" xlink:href="#me142677785" y="371.69505"/>
     <use style="fill:#1f77b4;stroke:#1f77b4;" x="83.431149" xlink:href="#me142677785" y="370.931238"/>
     <use style="fill:#1f77b4;stroke:#1f77b4;" x="85.45048" xlink:href="#me142677785" y="368.306035"/>
     <use style="fill:#1f77b4;stroke:#1f77b4;" x="87.46981" xlink:href="#me142677785" y="369.984496"/>
     <use style="fill:#1f77b4;stroke:#1f77b4;" x="89.489141" xlink:href="#me142677785" y="369.645916"/>
     <use style="fill:#1f77b4;stroke:#1f77b4;" x="91.508472" xlink:href="#me142677785" y="368.44243"/>
     <use style="fill:#1f77b4;stroke:#1f77b4;" x="93.527802" xlink:href="#me142677785" y="371.120424"/>
     <use style="fill:#1f77b4;stroke:#1f77b4;" x="95.547133" xlink:href="#me142677785" y="372.852775"/>
     <use style="fill:#1f77b4;stroke:#1f77b4;" x="97.566464" xlink:href="#me142677785" y="373.598182"/>
     <use style="fill:#1f77b4;stroke:#1f77b4;" x="99.585794" xlink:href="#me142677785" y="367.236632"/>
     <use style="fill:#1f77b4;stroke:#1f77b4;" x="101.605125" xlink:href="#me142677785" y="368.234773"/>
     <use style="fill:#1f77b4;stroke:#1f77b4;" x="103.624456" xlink:href="#me142677785" y="364.842053"/>
     <use style="fill:#1f77b4;stroke:#1f77b4;" x="105.643786" xlink:href="#me142677785" y="362.156349"/>
     <use style="fill:#1f77b4;stroke:#1f77b4;" x="107.663117" xlink:href="#me142677785" y="359.908932"/>
     <use style="fill:#1f77b4;stroke:#1f77b4;" x="109.682448" xlink:href="#me142677785" y="361.001449"/>
     <use style="fill:#1f77b4;stroke:#1f77b4;" x="111.701778" xlink:href="#me142677785" y="366.835694"/>
     <use style="fill:#1f77b4;stroke:#1f77b4;" x="113.721109" xlink:href="#me142677785" y="366.717697"/>
     <use style="fill:#1f77b4;stroke:#1f77b4;" x="115.74044" xlink:href="#me142677785" y="364.912661"/>
     <use style="fill:#1f77b4;stroke:#1f77b4;" x="117.75977" xlink:href="#me142677785" y="365.257085"/>
     <use style="fill:#1f77b4;stroke:#1f77b4;" x="119.779101" xlink:href="#me142677785" y="357.805729"/>
     <use style="fill:#1f77b4;stroke:#1f77b4;" x="121.798432" xlink:href="#me142677785" y="354.961043"/>
     <use style="fill:#1f77b4;stroke:#1f77b4;" x="123.817762" xlink:href="#me142677785" y="343.646081"/>
     <use style="fill:#1f77b4;stroke:#1f77b4;" x="125.837093" xlink:href="#me142677785" y="340.134871"/>
     <use style="fill:#1f77b4;stroke:#1f77b4;" x="127.856424" xlink:href="#me142677785" y="336.89314"/>
     <use style="fill:#1f77b4;stroke:#1f77b4;" x="129.875754" xlink:href="#me142677785" y="344.181851"/>
     <use style="fill:#1f77b4;stroke:#1f77b4;" x="131.895085" xlink:href="#me142677785" y="345.146557"/>
     <use style="fill:#1f77b4;stroke:#1f77b4;" x="133.914416" xlink:href="#me142677785" y="339.902065"/>
     <use style="fill:#1f77b4;stroke:#1f77b4;" x="135.933746" xlink:href="#me142677785" y="338.765148"/>
     <use style="fill:#1f77b4;stroke:#1f77b4;" x="137.953077" xlink:href="#me142677785" y="319.795211"/>
     <use style="fill:#1f77b4;stroke:#1f77b4;" x="139.972408" xlink:href="#me142677785" y="315.962688"/>
     <use style="fill:#1f77b4;stroke:#1f77b4;" x="141.991738" xlink:href="#me142677785" y="314.420036"/>
     <use style="fill:#1f77b4;stroke:#1f77b4;" x="144.011069" xlink:href="#me142677785" y="315.226029"/>
     <use style="fill:#1f77b4;stroke:#1f77b4;" x="146.0304" xlink:href="#me142677785" y="316.916144"/>
     <use style="fill:#1f77b4;stroke:#1f77b4;" x="148.04973" xlink:href="#me142677785" y="326.076369"/>
     <use style="fill:#1f77b4;stroke:#1f77b4;" x="150.069061" xlink:href="#me142677785" y="320.506184"/>
     <use style="fill:#1f77b4;stroke:#1f77b4;" x="152.088392" xlink:href="#me142677785" y="304.634183"/>
     <use style="fill:#1f77b4;stroke:#1f77b4;" x="154.107722" xlink:href="#me142677785" y="295.66891"/>
     <use style="fill:#1f77b4;stroke:#1f77b4;" x="156.127053" xlink:href="#me142677785" y="275.555697"/>
     <use style="fill:#1f77b4;stroke:#1f77b4;" x="158.146384" xlink:href="#me142677785" y="260.507115"/>
     <use style="fill:#1f77b4;stroke:#1f77b4;" x="160.165714" xlink:href="#me142677785" y="267.695379"/>
     <use style="fill:#1f77b4;stroke:#1f77b4;" x="162.185045" xlink:href="#me142677785" y="246.496393"/>
     <use style="fill:#1f77b4;stroke:#1f77b4;" x="164.204376" xlink:href="#me142677785" y="182.3239"/>
     <use style="fill:#1f77b4;stroke:#1f77b4;" x="166.223706" xlink:href="#me142677785" y="141.764882"/>
     <use style="fill:#1f77b4;stroke:#1f77b4;" x="168.243037" xlink:href="#me142677785" y="112.346383"/>
     <use style="fill:#1f77b4;stroke:#1f77b4;" x="170.262368" xlink:href="#me142677785" y="91.721667"/>
     <use style="fill:#1f77b4;stroke:#1f77b4;" x="172.281698" xlink:href="#me142677785" y="86.636242"/>
     <use style="fill:#1f77b4;stroke:#1f77b4;" x="174.301029" xlink:href="#me142677785" y="83.265121"/>
     <use style="fill:#1f77b4;stroke:#1f77b4;" x="176.32036" xlink:href="#me142677785" y="44.761818"/>
     <use style="fill:#1f77b4;stroke:#1f77b4;" x="178.33969" xlink:href="#me142677785" y="51.28833"/>
     <use style="fill:#1f77b4;stroke:#1f77b4;" x="180.359021" xlink:href="#me142677785" y="56.699627"/>
     <use style="fill:#1f77b4;stroke:#1f77b4;" x="182.378352" xlink:href="#me142677785" y="98.994853"/>
     <use style="fill:#1f77b4;stroke:#1f77b4;" x="184.397682" xlink:href="#me142677785" y="68.21261"/>
     <use style="fill:#1f77b4;stroke:#1f77b4;" x="186.417013" xlink:href="#me142677785" y="45.517022"/>
     <use style="fill:#1f77b4;stroke:#1f77b4;" x="188.436344" xlink:href="#me142677785" y="82.345007"/>
     <use style="fill:#1f77b4;stroke:#1f77b4;" x="190.455674" xlink:href="#me142677785" y="81.962512"/>
     <use style="fill:#1f77b4;stroke:#1f77b4;" x="192.475005" xlink:href="#me142677785" y="159.072234"/>
     <use style="fill:#1f77b4;stroke:#1f77b4;" x="194.494336" xlink:href="#me142677785" y="108.903527"/>
     <use style="fill:#1f77b4;stroke:#1f77b4;" x="196.513666" xlink:href="#me142677785" y="109.492321"/>
     <use style="fill:#1f77b4;stroke:#1f77b4;" x="198.532997" xlink:href="#me142677785" y="100.007324"/>
     <use style="fill:#1f77b4;stroke:#1f77b4;" x="200.552328" xlink:href="#me142677785" y="93.371769"/>
     <use style="fill:#1f77b4;stroke:#1f77b4;" x="202.571658" xlink:href="#me142677785" y="85.631932"/>
     <use style="fill:#1f77b4;stroke:#1f77b4;" x="204.590989" xlink:href="#me142677785" y="80.713367"/>
     <use style="fill:#1f77b4;stroke:#1f77b4;" x="206.61032" xlink:href="#me142677785" y="79.985161"/>
     <use style="fill:#1f77b4;stroke:#1f77b4;" x="208.62965" xlink:href="#me142677785" y="80.383773"/>
     <use style="fill:#1f77b4;stroke:#1f77b4;" x="210.648981" xlink:href="#me142677785" y="72.415755"/>
     <use style="fill:#1f77b4;stroke:#1f77b4;" x="212.668312" xlink:href="#me142677785" y="70.705807"/>
     <use style="fill:#1f77b4;stroke:#1f77b4;" x="214.687642" xlink:href="#me142677785" y="63.868834"/>
     <use style="fill:#1f77b4;stroke:#1f77b4;" x="216.706973" xlink:href="#me142677785" y="61.101085"/>
     <use style="fill:#1f77b4;stroke:#1f77b4;" x="218.726304" xlink:href="#me142677785" y="68.072765"/>
     <use style="fill:#1f77b4;stroke:#1f77b4;" x="220.745634" xlink:href="#me142677785" y="74.325212"/>
     <use style="fill:#1f77b4;stroke:#1f77b4;" x="222.764965" xlink:href="#me142677785" y="103.602416"/>
     <use style="fill:#1f77b4;stroke:#1f77b4;" x="224.784296" xlink:href="#me142677785" y="104.502636"/>
     <use style="fill:#1f77b4;stroke:#1f77b4;" x="226.803626" xlink:href="#me142677785" y="103.273169"/>
     <use style="fill:#1f77b4;stroke:#1f77b4;" x="228.822957" xlink:href="#me142677785" y="99.480028"/>
     <use style="fill:#1f77b4;stroke:#1f77b4;" x="230.842288" xlink:href="#me142677785" y="99.707458"/>
     <use style="fill:#1f77b4;stroke:#1f77b4;" x="232.861618" xlink:href="#me142677785" y="107.151831"/>
     <use style="fill:#1f77b4;stroke:#1f77b4;" x="234.880949" xlink:href="#me142677785" y="105.001971"/>
     <use style="fill:#1f77b4;stroke:#1f77b4;" x="236.90028" xlink:href="#me142677785" y="105.938735"/>
     <use style="fill:#1f77b4;stroke:#1f77b4;" x="238.91961" xlink:href="#me142677785" y="112.707478"/>
     <use style="fill:#1f77b4;stroke:#1f77b4;" x="240.938941" xlink:href="#me142677785" y="93.430585"/>
     <use style="fill:#1f77b4;stroke:#1f77b4;" x="242.958272" xlink:href="#me142677785" y="96.826701"/>
     <use style="fill:#1f77b4;stroke:#1f77b4;" x="244.977602" xlink:href="#me142677785" y="99.479484"/>
     <use style="fill:#1f77b4;stroke:#1f77b4;" x="246.996933" xlink:href="#me142677785" y="97.230145"/>
     <use style="fill:#1f77b4;stroke:#1f77b4;" x="249.016264" xlink:href="#me142677785" y="100.680475"/>
     <use style="fill:#1f77b4;stroke:#1f77b4;" x="251.035594" xlink:href="#me142677785" y="112.09365"/>
     <use style="fill:#1f77b4;stroke:#1f77b4;" x="253.054925" xlink:href="#me142677785" y="155.474187"/>
     <use style="fill:#1f77b4;stroke:#1f77b4;" x="255.074256" xlink:href="#me142677785" y="156.9637"/>
     <use style="fill:#1f77b4;stroke:#1f77b4;" x="257.093586" xlink:href="#me142677785" y="157.458368"/>
     <use style="fill:#1f77b4;stroke:#1f77b4;" x="259.112917" xlink:href="#me142677785" y="142.772672"/>
     <use style="fill:#1f77b4;stroke:#1f77b4;" x="261.132248" xlink:href="#me142677785" y="153.776609"/>
     <use style="fill:#1f77b4;stroke:#1f77b4;" x="263.151578" xlink:href="#me142677785" y="158.530376"/>
     <use style="fill:#1f77b4;stroke:#1f77b4;" x="265.170909" xlink:href="#me142677785" y="164.626222"/>
     <use style="fill:#1f77b4;stroke:#1f77b4;" x="267.19024" xlink:href="#me142677785" y="159.532112"/>
     <use style="fill:#1f77b4;stroke:#1f77b4;" x="269.20957" xlink:href="#me142677785" y="156.540684"/>
     <use style="fill:#1f77b4;stroke:#1f77b4;" x="271.228901" xlink:href="#me142677785" y="157.499705"/>
     <use style="fill:#1f77b4;stroke:#1f77b4;" x="273.248232" xlink:href="#me142677785" y="168.789802"/>
     <use style="fill:#1f77b4;stroke:#1f77b4;" x="275.267562" xlink:href="#me142677785" y="180.535525"/>
     <use style="fill:#1f77b4;stroke:#1f77b4;" x="277.286893" xlink:href="#me142677785" y="192.454361"/>
     <use style="fill:#1f77b4;stroke:#1f77b4;" x="279.306224" xlink:href="#me142677785" y="190.307498"/>
     <use style="fill:#1f77b4;stroke:#1f77b4;" x="281.325554" xlink:href="#me142677785" y="190.212082"/>
     <use style="fill:#1f77b4;stroke:#1f77b4;" x="283.344885" xlink:href="#me142677785" y="206.05661"/>
     <use style="fill:#1f77b4;stroke:#1f77b4;" x="285.364216" xlink:href="#me142677785" y="205.15152"/>
     <use style="fill:#1f77b4;stroke:#1f77b4;" x="287.383546" xlink:href="#me142677785" y="215.179753"/>
     <use style="fill:#1f77b4;stroke:#1f77b4;" x="289.402877" xlink:href="#me142677785" y="212.948379"/>
     <use style="fill:#1f77b4;stroke:#1f77b4;" x="291.422208" xlink:href="#me142677785" y="216.766387"/>
     <use style="fill:#1f77b4;stroke:#1f77b4;" x="293.441538" xlink:href="#me142677785" y="215.872202"/>
     <use style="fill:#1f77b4;stroke:#1f77b4;" x="295.460869" xlink:href="#me142677785" y="215.50962"/>
     <use style="fill:#1f77b4;stroke:#1f77b4;" x="297.4802" xlink:href="#me142677785" y="215.408752"/>
     <use style="fill:#1f77b4;stroke:#1f77b4;" x="299.49953" xlink:href="#me142677785" y="215.580501"/>
     <use style="fill:#1f77b4;stroke:#1f77b4;" x="301.518861" xlink:href="#me142677785" y="217.261188"/>
     <use style="fill:#1f77b4;stroke:#1f77b4;" x="303.538192" xlink:href="#me142677785" y="219.146337"/>
     <use style="fill:#1f77b4;stroke:#1f77b4;" x="305.557522" xlink:href="#me142677785" y="224.214296"/>
     <use style="fill:#1f77b4;stroke:#1f77b4;" x="307.576853" xlink:href="#me142677785" y="221.897048"/>
     <use style="fill:#1f77b4;stroke:#1f77b4;" x="309.596184" xlink:href="#me142677785" y="222.472271"/>
     <use style="fill:#1f77b4;stroke:#1f77b4;" x="311.615514" xlink:href="#me142677785" y="224.917649"/>
     <use style="fill:#1f77b4;stroke:#1f77b4;" x="313.634845" xlink:href="#me142677785" y="224.24701"/>
     <use style="fill:#1f77b4;stroke:#1f77b4;" x="315.654176" xlink:href="#me142677785" y="257.128766"/>
     <use style="fill:#1f77b4;stroke:#1f77b4;" x="317.673506" xlink:href="#me142677785" y="269.370654"/>
     <use style="fill:#1f77b4;stroke:#1f77b4;" x="319.692837" xlink:href="#me142677785" y="259.595954"/>
     <use style="fill:#1f77b4;stroke:#1f77b4;" x="321.712168" xlink:href="#me142677785" y="258.930768"/>
     <use style="fill:#1f77b4;stroke:#1f77b4;" x="323.731499" xlink:href="#me142677785" y="259.217016"/>
     <use style="fill:#1f77b4;stroke:#1f77b4;" x="325.750829" xlink:href="#me142677785" y="261.959548"/>
     <use style="fill:#1f77b4;stroke:#1f77b4;" x="327.77016" xlink:href="#me142677785" y="261.571068"/>
     <use style="fill:#1f77b4;stroke:#1f77b4;" x="329.789491" xlink:href="#me142677785" y="264.809764"/>
     <use style="fill:#1f77b4;stroke:#1f77b4;" x="331.808821" xlink:href="#me142677785" y="265.098738"/>
     <use style="fill:#1f77b4;stroke:#1f77b4;" x="333.828152" xlink:href="#me142677785" y="269.032608"/>
     <use style="fill:#1f77b4;stroke:#1f77b4;" x="335.847483" xlink:href="#me142677785" y="265.659839"/>
     <use style="fill:#1f77b4;stroke:#1f77b4;" x="337.866813" xlink:href="#me142677785" y="264.987805"/>
     <use style="fill:#1f77b4;stroke:#1f77b4;" x="339.886144" xlink:href="#me142677785" y="265.699053"/>
     <use style="fill:#1f77b4;stroke:#1f77b4;" x="341.905475" xlink:href="#me142677785" y="268.869921"/>
     <use style="fill:#1f77b4;stroke:#1f77b4;" x="343.924805" xlink:href="#me142677785" y="268.512945"/>
     <use style="fill:#1f77b4;stroke:#1f77b4;" x="345.944136" xlink:href="#me142677785" y="270.880617"/>
     <use style="fill:#1f77b4;stroke:#1f77b4;" x="347.963467" xlink:href="#me142677785" y="273.92438"/>
     <use style="fill:#1f77b4;stroke:#1f77b4;" x="349.982797" xlink:href="#me142677785" y="289.2081"/>
     <use style="fill:#1f77b4;stroke:#1f77b4;" x="352.002128" xlink:href="#me142677785" y="291.896239"/>
     <use style="fill:#1f77b4;stroke:#1f77b4;" x="354.021459" xlink:href="#me142677785" y="287.042864"/>
     <use style="fill:#1f77b4;stroke:#1f77b4;" x="356.040789" xlink:href="#me142677785" y="288.469668"/>
     <use style="fill:#1f77b4;stroke:#1f77b4;" x="358.06012" xlink:href="#me142677785" y="281.802257"/>
     <use style="fill:#1f77b4;stroke:#1f77b4;" x="360.079451" xlink:href="#me142677785" y="281.420607"/>
     <use style="fill:#1f77b4;stroke:#1f77b4;" x="362.098781" xlink:href="#me142677785" y="279.369407"/>
     <use style="fill:#1f77b4;stroke:#1f77b4;" x="364.118112" xlink:href="#me142677785" y="282.88652"/>
     <use style="fill:#1f77b4;stroke:#1f77b4;" x="366.137443" xlink:href="#me142677785" y="282.374058"/>
     <use style="fill:#1f77b4;stroke:#1f77b4;" x="368.156773" xlink:href="#me142677785" y="279.566301"/>
     <use style="fill:#1f77b4;stroke:#1f77b4;" x="370.176104" xlink:href="#me142677785" y="284.494035"/>
     <use style="fill:#1f77b4;stroke:#1f77b4;" x="372.195435" xlink:href="#me142677785" y="276.650657"/>
     <use style="fill:#1f77b4;stroke:#1f77b4;" x="374.214765" xlink:href="#me142677785" y="282.589831"/>
     <use style="fill:#1f77b4;stroke:#1f77b4;" x="376.234096" xlink:href="#me142677785" y="312.341365"/>
     <use style="fill:#1f77b4;stroke:#1f77b4;" x="378.253427" xlink:href="#me142677785" y="269.375689"/>
     <use style="fill:#1f77b4;stroke:#1f77b4;" x="380.272757" xlink:href="#me142677785" y="274.223007"/>
     <use style="fill:#1f77b4;stroke:#1f77b4;" x="382.292088" xlink:href="#me142677785" y="276.179392"/>
     <use style="fill:#1f77b4;stroke:#1f77b4;" x="384.311419" xlink:href="#me142677785" y="275.574761"/>
     <use style="fill:#1f77b4;stroke:#1f77b4;" x="386.330749" xlink:href="#me142677785" y="278.791758"/>
     <use style="fill:#1f77b4;stroke:#1f77b4;" x="388.35008" xlink:href="#me142677785" y="282.300158"/>
     <use style="fill:#1f77b4;stroke:#1f77b4;" x="390.369411" xlink:href="#me142677785" y="280.070341"/>
     <use style="fill:#1f77b4;stroke:#1f77b4;" x="392.388741" xlink:href="#me142677785" y="283.48503"/>
     <use style="fill:#1f77b4;stroke:#1f77b4;" x="394.408072" xlink:href="#me142677785" y="288.79577"/>
     <use style="fill:#1f77b4;stroke:#1f77b4;" x="396.427403" xlink:href="#me142677785" y="292.219445"/>
     <use style="fill:#1f77b4;stroke:#1f77b4;" x="398.446733" xlink:href="#me142677785" y="289.245071"/>
     <use style="fill:#1f77b4;stroke:#1f77b4;" x="400.466064" xlink:href="#me142677785" y="293.919087"/>
     <use style="fill:#1f77b4;stroke:#1f77b4;" x="402.485395" xlink:href="#me142677785" y="293.191219"/>
     <use style="fill:#1f77b4;stroke:#1f77b4;" x="404.504725" xlink:href="#me142677785" y="292.851034"/>
     <use style="fill:#1f77b4;stroke:#1f77b4;" x="406.524056" xlink:href="#me142677785" y="295.826692"/>
     <use style="fill:#1f77b4;stroke:#1f77b4;" x="408.543387" xlink:href="#me142677785" y="297.543022"/>
     <use style="fill:#1f77b4;stroke:#1f77b4;" x="410.562717" xlink:href="#me142677785" y="301.614975"/>
     <use style="fill:#1f77b4;stroke:#1f77b4;" x="412.582048" xlink:href="#me142677785" y="295.901148"/>
     <use style="fill:#1f77b4;stroke:#1f77b4;" x="414.601379" xlink:href="#me142677785" y="293.791999"/>
     <use style="fill:#1f77b4;stroke:#1f77b4;" x="416.620709" xlink:href="#me142677785" y="296.695769"/>
     <use style="fill:#1f77b4;stroke:#1f77b4;" x="418.64004" xlink:href="#me142677785" y="298.761271"/>
     <use style="fill:#1f77b4;stroke:#1f77b4;" x="420.659371" xlink:href="#me142677785" y="299.861417"/>
     <use style="fill:#1f77b4;stroke:#1f77b4;" x="422.678701" xlink:href="#me142677785" y="307.255631"/>
     <use style="fill:#1f77b4;stroke:#1f77b4;" x="424.698032" xlink:href="#me142677785" y="307.403258"/>
     <use style="fill:#1f77b4;stroke:#1f77b4;" x="426.717363" xlink:href="#me142677785" y="307.14138"/>
     <use style="fill:#1f77b4;stroke:#1f77b4;" x="428.736693" xlink:href="#me142677785" y="307.413528"/>
     <use style="fill:#1f77b4;stroke:#1f77b4;" x="430.756024" xlink:href="#me142677785" y="297.578967"/>
     <use style="fill:#1f77b4;stroke:#1f77b4;" x="432.775355" xlink:href="#me142677785" y="292.893397"/>
     <use style="fill:#1f77b4;stroke:#1f77b4;" x="434.794685" xlink:href="#me142677785" y="292.07952"/>
     <use style="fill:#1f77b4;stroke:#1f77b4;" x="436.814016" xlink:href="#me142677785" y="292.178366"/>
     <use style="fill:#1f77b4;stroke:#1f77b4;" x="438.833347" xlink:href="#me142677785" y="310.590729"/>
     <use style="fill:#1f77b4;stroke:#1f77b4;" x="440.852677" xlink:href="#me142677785" y="305.265868"/>
     <use style="fill:#1f77b4;stroke:#1f77b4;" x="442.872008" xlink:href="#me142677785" y="307.556021"/>
     <use style="fill:#1f77b4;stroke:#1f77b4;" x="444.891339" xlink:href="#me142677785" y="310.151698"/>
     <use style="fill:#1f77b4;stroke:#1f77b4;" x="446.910669" xlink:href="#me142677785" y="315.305824"/>
     <use style="fill:#1f77b4;stroke:#1f77b4;" x="448.93" xlink:href="#me142677785" y="311.214616"/>
     <use style="fill:#1f77b4;stroke:#1f77b4;" x="450.949331" xlink:href="#me142677785" y="308.841022"/>
     <use style="fill:#1f77b4;stroke:#1f77b4;" x="452.968661" xlink:href="#me142677785" y="309.604834"/>
     <use style="fill:#1f77b4;stroke:#1f77b4;" x="454.987992" xlink:href="#me142677785" y="306.884636"/>
     <use style="fill:#1f77b4;stroke:#1f77b4;" x="457.007323" xlink:href="#me142677785" y="306.961659"/>
     <use style="fill:#1f77b4;stroke:#1f77b4;" x="459.026653" xlink:href="#me142677785" y="293.99611"/>
     <use style="fill:#1f77b4;stroke:#1f77b4;" x="461.045984" xlink:href="#me142677785" y="303.332589"/>
     <use style="fill:#1f77b4;stroke:#1f77b4;" x="463.065315" xlink:href="#me142677785" y="304.751097"/>
     <use style="fill:#1f77b4;stroke:#1f77b4;" x="465.084645" xlink:href="#me142677785" y="305.698481"/>
     <use style="fill:#1f77b4;stroke:#1f77b4;" x="467.103976" xlink:href="#me142677785" y="305.055338"/>
     <use style="fill:#1f77b4;stroke:#1f77b4;" x="469.123307" xlink:href="#me142677785" y="305.167022"/>
     <use style="fill:#1f77b4;stroke:#1f77b4;" x="471.142637" xlink:href="#me142677785" y="303.235027"/>
     <use style="fill:#1f77b4;stroke:#1f77b4;" x="473.161968" xlink:href="#me142677785" y="301.441673"/>
     <use style="fill:#1f77b4;stroke:#1f77b4;" x="475.181299" xlink:href="#me142677785" y="304.471247"/>
     <use style="fill:#1f77b4;stroke:#1f77b4;" x="477.200629" xlink:href="#me142677785" y="300.670159"/>
     <use style="fill:#1f77b4;stroke:#1f77b4;" x="479.21996" xlink:href="#me142677785" y="302.585466"/>
     <use style="fill:#1f77b4;stroke:#1f77b4;" x="481.239291" xlink:href="#me142677785" y="301.735645"/>
     <use style="fill:#1f77b4;stroke:#1f77b4;" x="483.258621" xlink:href="#me142677785" y="301.234995"/>
     <use style="fill:#1f77b4;stroke:#1f77b4;" x="485.277952" xlink:href="#me142677785" y="297.490526"/>
     <use style="fill:#1f77b4;stroke:#1f77b4;" x="487.297283" xlink:href="#me142677785" y="299.896541"/>
     <use style="fill:#1f77b4;stroke:#1f77b4;" x="489.316613" xlink:href="#me142677785" y="300.99903"/>
     <use style="fill:#1f77b4;stroke:#1f77b4;" x="491.335944" xlink:href="#me142677785" y="301.613659"/>
     <use style="fill:#1f77b4;stroke:#1f77b4;" x="493.355275" xlink:href="#me142677785" y="302.307677"/>
     <use style="fill:#1f77b4;stroke:#1f77b4;" x="495.374605" xlink:href="#me142677785" y="300.908117"/>
     <use style="fill:#1f77b4;stroke:#1f77b4;" x="497.393936" xlink:href="#me142677785" y="298.835026"/>
     <use style="fill:#1f77b4;stroke:#1f77b4;" x="499.413267" xlink:href="#me142677785" y="300.402329"/>
     <use style="fill:#1f77b4;stroke:#1f77b4;" x="501.432597" xlink:href="#me142677785" y="305.86612"/>
     <use style="fill:#1f77b4;stroke:#1f77b4;" x="503.451928" xlink:href="#me142677785" y="301.67"/>
     <use style="fill:#1f77b4;stroke:#1f77b4;" x="505.471259" xlink:href="#me142677785" y="307.300253"/>
     <use style="fill:#1f77b4;stroke:#1f77b4;" x="507.490589" xlink:href="#me142677785" y="307.605006"/>
     <use style="fill:#1f77b4;stroke:#1f77b4;" x="509.50992" xlink:href="#me142677785" y="308.836824"/>
     <use style="fill:#1f77b4;stroke:#1f77b4;" x="511.529251" xlink:href="#me142677785" y="308.250366"/>
     <use style="fill:#1f77b4;stroke:#1f77b4;" x="513.548581" xlink:href="#me142677785" y="308.215793"/>
     <use style="fill:#1f77b4;stroke:#1f77b4;" x="515.567912" xlink:href="#me142677785" y="311.89204"/>
     <use style="fill:#1f77b4;stroke:#1f77b4;" x="517.587243" xlink:href="#me142677785" y="313.821717"/>
     <use style="fill:#1f77b4;stroke:#1f77b4;" x="519.606573" xlink:href="#me142677785" y="314.829452"/>
     <use style="fill:#1f77b4;stroke:#1f77b4;" x="521.625904" xlink:href="#me142677785" y="315.736029"/>
     <use style="fill:#1f77b4;stroke:#1f77b4;" x="523.645235" xlink:href="#me142677785" y="312.405511"/>
     <use style="fill:#1f77b4;stroke:#1f77b4;" x="525.664565" xlink:href="#me142677785" y="312.880567"/>
     <use style="fill:#1f77b4;stroke:#1f77b4;" x="527.683896" xlink:href="#me142677785" y="314.980548"/>
     <use style="fill:#1f77b4;stroke:#1f77b4;" x="529.703227" xlink:href="#me142677785" y="315.554201"/>
     <use style="fill:#1f77b4;stroke:#1f77b4;" x="531.722557" xlink:href="#me142677785" y="314.100861"/>
     <use style="fill:#1f77b4;stroke:#1f77b4;" x="533.741888" xlink:href="#me142677785" y="309.397672"/>
     <use style="fill:#1f77b4;stroke:#1f77b4;" x="535.761219" xlink:href="#me142677785" y="309.195357"/>
     <use style="fill:#1f77b4;stroke:#1f77b4;" x="537.780549" xlink:href="#me142677785" y="307.435983"/>
     <use style="fill:#1f77b4;stroke:#1f77b4;" x="539.79988" xlink:href="#me142677785" y="308.291341"/>
     <use style="fill:#1f77b4;stroke:#1f77b4;" x="541.819211" xlink:href="#me142677785" y="308.800971"/>
     <use style="fill:#1f77b4;stroke:#1f77b4;" x="543.838541" xlink:href="#me142677785" y="311.118632"/>
     <use style="fill:#1f77b4;stroke:#1f77b4;" x="545.857872" xlink:href="#me142677785" y="302.040057"/>
     <use style="fill:#1f77b4;stroke:#1f77b4;" x="547.877203" xlink:href="#me142677785" y="303.027304"/>
     <use style="fill:#1f77b4;stroke:#1f77b4;" x="549.896533" xlink:href="#me142677785" y="299.62508"/>
     <use style="fill:#1f77b4;stroke:#1f77b4;" x="551.915864" xlink:href="#me142677785" y="298.732588"/>
     <use style="fill:#1f77b4;stroke:#1f77b4;" x="553.935195" xlink:href="#me142677785" y="298.546948"/>
     <use style="fill:#1f77b4;stroke:#1f77b4;" x="555.954525" xlink:href="#me142677785" y="300.621203"/>
     <use style="fill:#1f77b4;stroke:#1f77b4;" x="557.973856" xlink:href="#me142677785" y="297.726953"/>
     <use style="fill:#1f77b4;stroke:#1f77b4;" x="559.993187" xlink:href="#me142677785" y="299.497222"/>
     <use style="fill:#1f77b4;stroke:#1f77b4;" x="562.012517" xlink:href="#me142677785" y="308.630842"/>
     <use style="fill:#1f77b4;stroke:#1f77b4;" x="564.031848" xlink:href="#me142677785" y="324.314202"/>
     <use style="fill:#1f77b4;stroke:#1f77b4;" x="566.051179" xlink:href="#me142677785" y="340.442045"/>
     <use style="fill:#1f77b4;stroke:#1f77b4;" x="568.070509" xlink:href="#me142677785" y="340.591484"/>
     <use style="fill:#1f77b4;stroke:#1f77b4;" x="570.08984" xlink:href="#me142677785" y="340.795844"/>
     <use style="fill:#1f77b4;stroke:#1f77b4;" x="572.109171" xlink:href="#me142677785" y="336.225841"/>
     <use style="fill:#1f77b4;stroke:#1f77b4;" x="574.128501" xlink:href="#me142677785" y="336.918111"/>
     <use style="fill:#1f77b4;stroke:#1f77b4;" x="576.147832" xlink:href="#me142677785" y="336.356121"/>
     <use style="fill:#1f77b4;stroke:#1f77b4;" x="578.167163" xlink:href="#me142677785" y="325.043116"/>
     <use style="fill:#1f77b4;stroke:#1f77b4;" x="580.186494" xlink:href="#me142677785" y="299.170165"/>
     <use style="fill:#1f77b4;stroke:#1f77b4;" x="582.205824" xlink:href="#me142677785" y="299.649824"/>
     <use style="fill:#1f77b4;stroke:#1f77b4;" x="584.225155" xlink:href="#me142677785" y="303.249138"/>
     <use style="fill:#1f77b4;stroke:#1f77b4;" x="586.244486" xlink:href="#me142677785" y="302.011991"/>
     <use style="fill:#1f77b4;stroke:#1f77b4;" x="588.263816" xlink:href="#me142677785" y="300.104566"/>
     <use style="fill:#1f77b4;stroke:#1f77b4;" x="590.283147" xlink:href="#me142677785" y="296.011888"/>
     <use style="fill:#1f77b4;stroke:#1f77b4;" x="592.302478" xlink:href="#me142677785" y="307.542401"/>
     <use style="fill:#1f77b4;stroke:#1f77b4;" x="594.321808" xlink:href="#me142677785" y="307.254606"/>
     <use style="fill:#1f77b4;stroke:#1f77b4;" x="596.341139" xlink:href="#me142677785" y="302.681022"/>
     <use style="fill:#1f77b4;stroke:#1f77b4;" x="598.36047" xlink:href="#me142677785" y="299.31344"/>
     <use style="fill:#1f77b4;stroke:#1f77b4;" x="600.3798" xlink:href="#me142677785" y="296.984911"/>
     <use style="fill:#1f77b4;stroke:#1f77b4;" x="602.399131" xlink:href="#me142677785" y="293.708277"/>
     <use style="fill:#1f77b4;stroke:#1f77b4;" x="604.418462" xlink:href="#me142677785" y="286.279163"/>
     <use style="fill:#1f77b4;stroke:#1f77b4;" x="606.437792" xlink:href="#me142677785" y="284.766679"/>
     <use style="fill:#1f77b4;stroke:#1f77b4;" x="608.457123" xlink:href="#me142677785" y="280.216767"/>
     <use style="fill:#1f77b4;stroke:#1f77b4;" x="610.476454" xlink:href="#me142677785" y="279.767008"/>
     <use style="fill:#1f77b4;stroke:#1f77b4;" x="612.495784" xlink:href="#me142677785" y="283.473156"/>
     <use style="fill:#1f77b4;stroke:#1f77b4;" x="614.515115" xlink:href="#me142677785" y="282.961116"/>
     <use style="fill:#1f77b4;stroke:#1f77b4;" x="616.534446" xlink:href="#me142677785" y="271.839165"/>
     <use style="fill:#1f77b4;stroke:#1f77b4;" x="618.553776" xlink:href="#me142677785" y="274.857962"/>
     <use style="fill:#1f77b4;stroke:#1f77b4;" x="620.573107" xlink:href="#me142677785" y="272.793413"/>
     <use style="fill:#1f77b4;stroke:#1f77b4;" x="622.592438" xlink:href="#me142677785" y="265.349796"/>
     <use style="fill:#1f77b4;stroke:#1f77b4;" x="624.611768" xlink:href="#me142677785" y="280.217193"/>
     <use style="fill:#1f77b4;stroke:#1f77b4;" x="626.631099" xlink:href="#me142677785" y="291.551345"/>
     <use style="fill:#1f77b4;stroke:#1f77b4;" x="628.65043" xlink:href="#me142677785" y="292.11108"/>
     <use style="fill:#1f77b4;stroke:#1f77b4;" x="630.66976" xlink:href="#me142677785" y="296.06107"/>
     <use style="fill:#1f77b4;stroke:#1f77b4;" x="632.689091" xlink:href="#me142677785" y="299.69996"/>
     <use style="fill:#1f77b4;stroke:#1f77b4;" x="634.708422" xlink:href="#me142677785" y="301.751505"/>
     <use style="fill:#1f77b4;stroke:#1f77b4;" x="636.727752" xlink:href="#me142677785" y="297.984011"/>
     <use style="fill:#1f77b4;stroke:#1f77b4;" x="638.747083" xlink:href="#me142677785" y="299.083884"/>
     <use style="fill:#1f77b4;stroke:#1f77b4;" x="640.766414" xlink:href="#me142677785" y="295.729148"/>
     <use style="fill:#1f77b4;stroke:#1f77b4;" x="642.785744" xlink:href="#me142677785" y="297.320167"/>
     <use style="fill:#1f77b4;stroke:#1f77b4;" x="644.805075" xlink:href="#me142677785" y="294.918328"/>
     <use style="fill:#1f77b4;stroke:#1f77b4;" x="646.824406" xlink:href="#me142677785" y="296.272961"/>
     <use style="fill:#1f77b4;stroke:#1f77b4;" x="648.843736" xlink:href="#me142677785" y="298.557218"/>
     <use style="fill:#1f77b4;stroke:#1f77b4;" x="650.863067" xlink:href="#me142677785" y="296.217844"/>
     <use style="fill:#1f77b4;stroke:#1f77b4;" x="652.882398" xlink:href="#me142677785" y="296.252139"/>
     <use style="fill:#1f77b4;stroke:#1f77b4;" x="654.901728" xlink:href="#me142677785" y="297.682709"/>
     <use style="fill:#1f77b4;stroke:#1f77b4;" x="656.921059" xlink:href="#me142677785" y="297.002943"/>
     <use style="fill:#1f77b4;stroke:#1f77b4;" x="658.94039" xlink:href="#me142677785" y="306.626221"/>
     <use style="fill:#1f77b4;stroke:#1f77b4;" x="660.95972" xlink:href="#me142677785" y="304.476692"/>
     <use style="fill:#1f77b4;stroke:#1f77b4;" x="662.979051" xlink:href="#me142677785" y="302.770541"/>
     <use style="fill:#1f77b4;stroke:#1f77b4;" x="664.998382" xlink:href="#me142677785" y="301.456327"/>
     <use style="fill:#1f77b4;stroke:#1f77b4;" x="667.017712" xlink:href="#me142677785" y="301.360793"/>
     <use style="fill:#1f77b4;stroke:#1f77b4;" x="669.037043" xlink:href="#me142677785" y="306.230451"/>
     <use style="fill:#1f77b4;stroke:#1f77b4;" x="671.056374" xlink:href="#me142677785" y="303.367652"/>
     <use style="fill:#1f77b4;stroke:#1f77b4;" x="673.075704" xlink:href="#me142677785" y="305.336055"/>
     <use style="fill:#1f77b4;stroke:#1f77b4;" x="675.095035" xlink:href="#me142677785" y="307.908053"/>
     <use style="fill:#1f77b4;stroke:#1f77b4;" x="677.114366" xlink:href="#me142677785" y="304.429441"/>
     <use style="fill:#1f77b4;stroke:#1f77b4;" x="679.133696" xlink:href="#me142677785" y="303.010871"/>
     <use style="fill:#1f77b4;stroke:#1f77b4;" x="681.153027" xlink:href="#me142677785" y="300.756555"/>
     <use style="fill:#1f77b4;stroke:#1f77b4;" x="683.172358" xlink:href="#me142677785" y="298.68185"/>
     <use style="fill:#1f77b4;stroke:#1f77b4;" x="685.191688" xlink:href="#me142677785" y="311.37689"/>
     <use style="fill:#1f77b4;stroke:#1f77b4;" x="687.211019" xlink:href="#me142677785" y="313.545677"/>
     <use style="fill:#1f77b4;stroke:#1f77b4;" x="689.23035" xlink:href="#me142677785" y="311.390331"/>
     <use style="fill:#1f77b4;stroke:#1f77b4;" x="691.24968" xlink:href="#me142677785" y="307.488958"/>
     <use style="fill:#1f77b4;stroke:#1f77b4;" x="693.269011" xlink:href="#me142677785" y="307.661239"/>
     <use style="fill:#1f77b4;stroke:#1f77b4;" x="695.288342" xlink:href="#me142677785" y="308.241619"/>
     <use style="fill:#1f77b4;stroke:#1f77b4;" x="697.307672" xlink:href="#me142677785" y="309.62842"/>
     <use style="fill:#1f77b4;stroke:#1f77b4;" x="699.327003" xlink:href="#me142677785" y="310.442174"/>
     <use style="fill:#1f77b4;stroke:#1f77b4;" x="701.346334" xlink:href="#me142677785" y="311.269367"/>
     <use style="fill:#1f77b4;stroke:#1f77b4;" x="703.365664" xlink:href="#me142677785" y="309.916777"/>
     <use style="fill:#1f77b4;stroke:#1f77b4;" x="705.384995" xlink:href="#me142677785" y="303.026093"/>
     <use style="fill:#1f77b4;stroke:#1f77b4;" x="707.404326" xlink:href="#me142677785" y="303.544833"/>
     <use style="fill:#1f77b4;stroke:#1f77b4;" x="709.423656" xlink:href="#me142677785" y="298.597349"/>
     <use style="fill:#1f77b4;stroke:#1f77b4;" x="711.442987" xlink:href="#me142677785" y="300.998064"/>
     <use style="fill:#1f77b4;stroke:#1f77b4;" x="713.462318" xlink:href="#me142677785" y="304.938193"/>
     <use style="fill:#1f77b4;stroke:#1f77b4;" x="715.481648" xlink:href="#me142677785" y="299.299643"/>
     <use style="fill:#1f77b4;stroke:#1f77b4;" x="717.500979" xlink:href="#me142677785" y="297.806895"/>
     <use style="fill:#1f77b4;stroke:#1f77b4;" x="719.52031" xlink:href="#me142677785" y="296.743604"/>
     <use style="fill:#1f77b4;stroke:#1f77b4;" x="721.53964" xlink:href="#me142677785" y="297.462813"/>
     <use style="fill:#1f77b4;stroke:#1f77b4;" x="723.558971" xlink:href="#me142677785" y="297.427887"/>
     <use style="fill:#1f77b4;stroke:#1f77b4;" x="725.578302" xlink:href="#me142677785" y="299.850692"/>
     <use style="fill:#1f77b4;stroke:#1f77b4;" x="727.597632" xlink:href="#me142677785" y="301.485729"/>
     <use style="fill:#1f77b4;stroke:#1f77b4;" x="729.616963" xlink:href="#me142677785" y="291.530629"/>
     <use style="fill:#1f77b4;stroke:#1f77b4;" x="731.636294" xlink:href="#me142677785" y="288.772797"/>
     <use style="fill:#1f77b4;stroke:#1f77b4;" x="733.655624" xlink:href="#me142677785" y="289.837383"/>
     <use style="fill:#1f77b4;stroke:#1f77b4;" x="735.674955" xlink:href="#me142677785" y="287.186915"/>
     <use style="fill:#1f77b4;stroke:#1f77b4;" x="737.694286" xlink:href="#me142677785" y="287.458559"/>
     <use style="fill:#1f77b4;stroke:#1f77b4;" x="739.713616" xlink:href="#me142677785" y="286.091285"/>
     <use style="fill:#1f77b4;stroke:#1f77b4;" x="741.732947" xlink:href="#me142677785" y="285.538942"/>
     <use style="fill:#1f77b4;stroke:#1f77b4;" x="743.752278" xlink:href="#me142677785" y="284.3256"/>
     <use style="fill:#1f77b4;stroke:#1f77b4;" x="745.771608" xlink:href="#me142677785" y="285.528594"/>
     <use style="fill:#1f77b4;stroke:#1f77b4;" x="747.790939" xlink:href="#me142677785" y="288.083339"/>
     <use style="fill:#1f77b4;stroke:#1f77b4;" x="749.81027" xlink:href="#me142677785" y="288.972003"/>
     <use style="fill:#1f77b4;stroke:#1f77b4;" x="751.8296" xlink:href="#me142677785" y="272.396555"/>
     <use style="fill:#1f77b4;stroke:#1f77b4;" x="753.848931" xlink:href="#me142677785" y="271.466498"/>
     <use style="fill:#1f77b4;stroke:#1f77b4;" x="755.868262" xlink:href="#me142677785" y="270.967191"/>
     <use style="fill:#1f77b4;stroke:#1f77b4;" x="757.887592" xlink:href="#me142677785" y="271.441921"/>
     <use style="fill:#1f77b4;stroke:#1f77b4;" x="759.906923" xlink:href="#me142677785" y="274.547715"/>
     <use style="fill:#1f77b4;stroke:#1f77b4;" x="761.926254" xlink:href="#me142677785" y="274.455874"/>
     <use style="fill:#1f77b4;stroke:#1f77b4;" x="763.945584" xlink:href="#me142677785" y="272.392674"/>
     <use style="fill:#1f77b4;stroke:#1f77b4;" x="765.964915" xlink:href="#me142677785" y="270.52868"/>
     <use style="fill:#1f77b4;stroke:#1f77b4;" x="767.984246" xlink:href="#me142677785" y="271.432866"/>
     <use style="fill:#1f77b4;stroke:#1f77b4;" x="770.003576" xlink:href="#me142677785" y="276.093498"/>
     <use style="fill:#1f77b4;stroke:#1f77b4;" x="772.022907" xlink:href="#me142677785" y="277.542265"/>
     <use style="fill:#1f77b4;stroke:#1f77b4;" x="774.042238" xlink:href="#me142677785" y="288.45588"/>
     <use style="fill:#1f77b4;stroke:#1f77b4;" x="776.061568" xlink:href="#me142677785" y="285.404414"/>
     <use style="fill:#1f77b4;stroke:#1f77b4;" x="778.080899" xlink:href="#me142677785" y="283.298527"/>
     <use style="fill:#1f77b4;stroke:#1f77b4;" x="780.10023" xlink:href="#me142677785" y="279.005261"/>
     <use style="fill:#1f77b4;stroke:#1f77b4;" x="782.11956" xlink:href="#me142677785" y="279.857705"/>
     <use style="fill:#1f77b4;stroke:#1f77b4;" x="784.138891" xlink:href="#me142677785" y="284.646398"/>
     <use style="fill:#1f77b4;stroke:#1f77b4;" x="786.158222" xlink:href="#me142677785" y="280.712737"/>
     <use style="fill:#1f77b4;stroke:#1f77b4;" x="788.177552" xlink:href="#me142677785" y="260.65378"/>
     <use style="fill:#1f77b4;stroke:#1f77b4;" x="790.196883" xlink:href="#me142677785" y="266.042676"/>
     <use style="fill:#1f77b4;stroke:#1f77b4;" x="792.216214" xlink:href="#me142677785" y="270.268678"/>
     <use style="fill:#1f77b4;stroke:#1f77b4;" x="794.235544" xlink:href="#me142677785" y="273.446911"/>
     <use style="fill:#1f77b4;stroke:#1f77b4;" x="796.254875" xlink:href="#me142677785" y="282.911758"/>
     <use style="fill:#1f77b4;stroke:#1f77b4;" x="798.274206" xlink:href="#me142677785" y="286.243923"/>
     <use style="fill:#1f77b4;stroke:#1f77b4;" x="800.293536" xlink:href="#me142677785" y="287.154576"/>
     <use style="fill:#1f77b4;stroke:#1f77b4;" x="802.312867" xlink:href="#me142677785" y="289.616187"/>
     <use style="fill:#1f77b4;stroke:#1f77b4;" x="804.332198" xlink:href="#me142677785" y="290.261664"/>
     <use style="fill:#1f77b4;stroke:#1f77b4;" x="806.351528" xlink:href="#me142677785" y="290.266838"/>
     <use style="fill:#1f77b4;stroke:#1f77b4;" x="808.370859" xlink:href="#me142677785" y="287.983737"/>
     <use style="fill:#1f77b4;stroke:#1f77b4;" x="810.39019" xlink:href="#me142677785" y="300.514279"/>
     <use style="fill:#1f77b4;stroke:#1f77b4;" x="812.40952" xlink:href="#me142677785" y="295.900214"/>
     <use style="fill:#1f77b4;stroke:#1f77b4;" x="814.428851" xlink:href="#me142677785" y="293.826666"/>
     <use style="fill:#1f77b4;stroke:#1f77b4;" x="816.448182" xlink:href="#me142677785" y="295.659615"/>
    </g>
   </g>
   <g id="patch_3">
    <path d="M 44.66 390.04 
L 44.66 28.32 
" style="fill:none;stroke:#000000;stroke-linecap:square;stroke-linejoin:miter;stroke-width:0.8;"/>
   </g>
   <g id="patch_4">
    <path d="M 853.2 390.04 
L 853.2 28.32 
" style="fill:none;stroke:#000000;stroke-linecap:square;stroke-linejoin:miter;stroke-width:0.8;"/>
   </g>
   <g id="patch_5">
    <path d="M 44.66 390.04 
L 853.2 390.04 
" style="fill:none;stroke:#000000;stroke-linecap:square;stroke-linejoin:miter;stroke-width:0.8;"/>
   </g>
   <g id="patch_6">
    <path d="M 44.66 28.32 
L 853.2 28.32 
" style="fill:none;stroke:#000000;stroke-linecap:square;stroke-linejoin:miter;stroke-width:0.8;"/>
   </g>
   <g id="text_16">
    <!-- Durchschnittliche Preisentwicklung von Kategorie 'Toilettenartikel' -->
    <g transform="translate(184.78 22.32)scale(0.16 -0.16)">
     <defs>
      <path d="M 4.203125 54.6875 
L 13.1875 54.6875 
L 24.421875 12.015625 
L 35.59375 54.6875 
L 46.1875 54.6875 
L 57.421875 12.015625 
L 68.609375 54.6875 
L 77.59375 54.6875 
L 63.28125 0 
L 52.6875 0 
L 40.921875 44.828125 
L 29.109375 0 
L 18.5 0 
z
" id="DejaVuSans-119"/>
      <path d="M 45.40625 27.984375 
Q 45.40625 37.75 41.375 43.109375 
Q 37.359375 48.484375 30.078125 48.484375 
Q 22.859375 48.484375 18.828125 43.109375 
Q 14.796875 37.75 14.796875 27.984375 
Q 14.796875 18.265625 18.828125 12.890625 
Q 22.859375 7.515625 30.078125 7.515625 
Q 37.359375 7.515625 41.375 12.890625 
Q 45.40625 18.265625 45.40625 27.984375 
z
M 54.390625 6.78125 
Q 54.390625 -7.171875 48.1875 -13.984375 
Q 42 -20.796875 29.203125 -20.796875 
Q 24.46875 -20.796875 20.265625 -20.09375 
Q 16.0625 -19.390625 12.109375 -17.921875 
L 12.109375 -9.1875 
Q 16.0625 -11.328125 19.921875 -12.34375 
Q 23.78125 -13.375 27.78125 -13.375 
Q 36.625 -13.375 41.015625 -8.765625 
Q 45.40625 -4.15625 45.40625 5.171875 
L 45.40625 9.625 
Q 42.625 4.78125 38.28125 2.390625 
Q 33.9375 0 27.875 0 
Q 17.828125 0 11.671875 7.65625 
Q 5.515625 15.328125 5.515625 27.984375 
Q 5.515625 40.671875 11.671875 48.328125 
Q 17.828125 56 27.875 56 
Q 33.9375 56 38.28125 53.609375 
Q 42.625 51.21875 45.40625 46.390625 
L 45.40625 54.6875 
L 54.390625 54.6875 
z
" id="DejaVuSans-103"/>
      <path d="M 2.984375 54.6875 
L 12.5 54.6875 
L 29.59375 8.796875 
L 46.6875 54.6875 
L 56.203125 54.6875 
L 35.6875 0 
L 23.484375 0 
z
" id="DejaVuSans-118"/>
      <path d="M 9.8125 72.90625 
L 19.671875 72.90625 
L 19.671875 42.09375 
L 52.390625 72.90625 
L 65.09375 72.90625 
L 28.90625 38.921875 
L 67.671875 0 
L 54.6875 0 
L 19.671875 35.109375 
L 19.671875 0 
L 9.8125 0 
z
" id="DejaVuSans-75"/>
      <path d="M 17.921875 72.90625 
L 17.921875 45.796875 
L 9.625 45.796875 
L 9.625 72.90625 
z
" id="DejaVuSans-39"/>
      <path d="M -0.296875 72.90625 
L 61.375 72.90625 
L 61.375 64.59375 
L 35.5 64.59375 
L 35.5 0 
L 25.59375 0 
L 25.59375 64.59375 
L -0.296875 64.59375 
z
" id="DejaVuSans-84"/>
     </defs>
     <use xlink:href="#DejaVuSans-68"/>
     <use x="77.001953" xlink:href="#DejaVuSans-117"/>
     <use x="140.380859" xlink:href="#DejaVuSans-114"/>
     <use x="179.244141" xlink:href="#DejaVuSans-99"/>
     <use x="234.224609" xlink:href="#DejaVuSans-104"/>
     <use x="297.603516" xlink:href="#DejaVuSans-115"/>
     <use x="349.703125" xlink:href="#DejaVuSans-99"/>
     <use x="404.683594" xlink:href="#DejaVuSans-104"/>
     <use x="468.0625" xlink:href="#DejaVuSans-110"/>
     <use x="531.441406" xlink:href="#DejaVuSans-105"/>
     <use x="559.224609" xlink:href="#DejaVuSans-116"/>
     <use x="598.433594" xlink:href="#DejaVuSans-116"/>
     <use x="637.642578" xlink:href="#DejaVuSans-108"/>
     <use x="665.425781" xlink:href="#DejaVuSans-105"/>
     <use x="693.208984" xlink:href="#DejaVuSans-99"/>
     <use x="748.189453" xlink:href="#DejaVuSans-104"/>
     <use x="811.568359" xlink:href="#DejaVuSans-101"/>
     <use x="873.091797" xlink:href="#DejaVuSans-32"/>
     <use x="904.878906" xlink:href="#DejaVuSans-80"/>
     <use x="963.431641" xlink:href="#DejaVuSans-114"/>
     <use x="1002.294922" xlink:href="#DejaVuSans-101"/>
     <use x="1063.818359" xlink:href="#DejaVuSans-105"/>
     <use x="1091.601562" xlink:href="#DejaVuSans-115"/>
     <use x="1143.701172" xlink:href="#DejaVuSans-101"/>
     <use x="1205.224609" xlink:href="#DejaVuSans-110"/>
     <use x="1268.603516" xlink:href="#DejaVuSans-116"/>
     <use x="1307.8125" xlink:href="#DejaVuSans-119"/>
     <use x="1389.599609" xlink:href="#DejaVuSans-105"/>
     <use x="1417.382812" xlink:href="#DejaVuSans-99"/>
     <use x="1472.363281" xlink:href="#DejaVuSans-107"/>
     <use x="1530.273438" xlink:href="#DejaVuSans-108"/>
     <use x="1558.056641" xlink:href="#DejaVuSans-117"/>
     <use x="1621.435547" xlink:href="#DejaVuSans-110"/>
     <use x="1684.814453" xlink:href="#DejaVuSans-103"/>
     <use x="1748.291016" xlink:href="#DejaVuSans-32"/>
     <use x="1780.078125" xlink:href="#DejaVuSans-118"/>
     <use x="1839.257812" xlink:href="#DejaVuSans-111"/>
     <use x="1900.439453" xlink:href="#DejaVuSans-110"/>
     <use x="1963.818359" xlink:href="#DejaVuSans-32"/>
     <use x="1995.605469" xlink:href="#DejaVuSans-75"/>
     <use x="2059.431641" xlink:href="#DejaVuSans-97"/>
     <use x="2120.710938" xlink:href="#DejaVuSans-116"/>
     <use x="2159.919922" xlink:href="#DejaVuSans-101"/>
     <use x="2221.443359" xlink:href="#DejaVuSans-103"/>
     <use x="2284.919922" xlink:href="#DejaVuSans-111"/>
     <use x="2346.101562" xlink:href="#DejaVuSans-114"/>
     <use x="2387.214844" xlink:href="#DejaVuSans-105"/>
     <use x="2414.998047" xlink:href="#DejaVuSans-101"/>
     <use x="2476.521484" xlink:href="#DejaVuSans-32"/>
     <use x="2508.308594" xlink:href="#DejaVuSans-39"/>
     <use x="2535.798828" xlink:href="#DejaVuSans-84"/>
     <use x="2579.882812" xlink:href="#DejaVuSans-111"/>
     <use x="2641.064453" xlink:href="#DejaVuSans-105"/>
     <use x="2668.847656" xlink:href="#DejaVuSans-108"/>
     <use x="2696.630859" xlink:href="#DejaVuSans-101"/>
     <use x="2758.154297" xlink:href="#DejaVuSans-116"/>
     <use x="2797.363281" xlink:href="#DejaVuSans-116"/>
     <use x="2836.572266" xlink:href="#DejaVuSans-101"/>
     <use x="2898.095703" xlink:href="#DejaVuSans-110"/>
     <use x="2961.474609" xlink:href="#DejaVuSans-97"/>
     <use x="3022.753906" xlink:href="#DejaVuSans-114"/>
     <use x="3063.867188" xlink:href="#DejaVuSans-116"/>
     <use x="3103.076172" xlink:href="#DejaVuSans-105"/>
     <use x="3130.859375" xlink:href="#DejaVuSans-107"/>
     <use x="3185.144531" xlink:href="#DejaVuSans-101"/>
     <use x="3246.667969" xlink:href="#DejaVuSans-108"/>
     <use x="3274.451172" xlink:href="#DejaVuSans-39"/>
    </g>
   </g>
  </g>
 </g>
 <defs>
  <clipPath id="pd43030f838">
   <rect height="361.72" width="808.54" x="44.66" y="28.32"/>
  </clipPath>
 </defs>
</svg>
